<?xml version="1.0" encoding="UTF-8" standalone="no"?>
<!DOCTYPE svg PUBLIC "-//W3C//DTD SVG 1.1//EN"
 "http://www.w3.org/Graphics/SVG/1.1/DTD/svg11.dtd">
<!-- Generated by graphviz version 2.43.0 (0)
 -->
<!-- Title: %3 Pages: 1 -->
<svg width="3028pt" height="1419pt"
 viewBox="0.00 0.00 3027.50 1419.00" xmlns="http://www.w3.org/2000/svg" xmlns:xlink="http://www.w3.org/1999/xlink">
<g id="graph0" class="graph" transform="scale(1 1) rotate(0) translate(4 1415)">
<title>%3</title>
<!-- node0x503000000a90 -->
<g id="node1" class="node">
<title>node0x503000000a90</title>
<path fill="#a0a0a0" stroke="black" d="M236,-1364.5C236,-1364.5 472,-1364.5 472,-1364.5 478,-1364.5 484,-1370.5 484,-1376.5 484,-1376.5 484,-1398.5 484,-1398.5 484,-1404.5 478,-1410.5 472,-1410.5 472,-1410.5 236,-1410.5 236,-1410.5 230,-1410.5 224,-1404.5 224,-1398.5 224,-1398.5 224,-1376.5 224,-1376.5 224,-1370.5 230,-1364.5 236,-1364.5"/>
<text text-anchor="middle" x="354" y="-1395.3" font-family="Times,serif" font-size="14.00">type = 4 (FUNC)</text>
<polyline fill="none" stroke="black" points="224,-1387.5 484,-1387.5 "/>
<text text-anchor="middle" x="354" y="-1372.3" font-family="Times,serif" font-size="14.00">value = &#39;&#39; NEXT FUNCTION &#39;&#39; (64)</text>
</g>
<!-- node0x503000000a60 -->
<g id="node2" class="node">
<title>node0x503000000a60</title>
<path fill="#755cf7" stroke="black" d="M254,-1281.5C254,-1281.5 454,-1281.5 454,-1281.5 460,-1281.5 466,-1287.5 466,-1293.5 466,-1293.5 466,-1315.5 466,-1315.5 466,-1321.5 460,-1327.5 454,-1327.5 454,-1327.5 254,-1327.5 254,-1327.5 248,-1327.5 242,-1321.5 242,-1315.5 242,-1315.5 242,-1293.5 242,-1293.5 242,-1287.5 248,-1281.5 254,-1281.5"/>
<text text-anchor="middle" x="354" y="-1312.3" font-family="Times,serif" font-size="14.00">type = 4 (FUNC)</text>
<polyline fill="none" stroke="black" points="242,-1304.5 466,-1304.5 "/>
<text text-anchor="middle" x="354" y="-1289.3" font-family="Times,serif" font-size="14.00">value = &#39;&#39; DEFINITION &#39;&#39; (68)</text>
</g>
<!-- node0x503000000a90&#45;&gt;node0x503000000a60 -->
<g id="edge1" class="edge">
<title>node0x503000000a90&#45;&gt;node0x503000000a60</title>
<path fill="none" stroke="black" d="M354,-1364.37C354,-1356.15 354,-1346.66 354,-1337.73"/>
<polygon fill="black" stroke="black" points="357.5,-1337.61 354,-1327.61 350.5,-1337.61 357.5,-1337.61"/>
</g>
<!-- node0x5030000000d0 -->
<g id="node3" class="node">
<title>node0x5030000000d0</title>
<path fill="#f069f5" stroke="black" d="M179.5,-1198.5C179.5,-1198.5 326.5,-1198.5 326.5,-1198.5 332.5,-1198.5 338.5,-1204.5 338.5,-1210.5 338.5,-1210.5 338.5,-1232.5 338.5,-1232.5 338.5,-1238.5 332.5,-1244.5 326.5,-1244.5 326.5,-1244.5 179.5,-1244.5 179.5,-1244.5 173.5,-1244.5 167.5,-1238.5 167.5,-1232.5 167.5,-1232.5 167.5,-1210.5 167.5,-1210.5 167.5,-1204.5 173.5,-1198.5 179.5,-1198.5"/>
<text text-anchor="middle" x="253" y="-1229.3" font-family="Times,serif" font-size="14.00">type = 4 (FUNC)</text>
<polyline fill="none" stroke="black" points="167.5,-1221.5 338.5,-1221.5 "/>
<text text-anchor="middle" x="253" y="-1206.3" font-family="Times,serif" font-size="14.00">value = &#39;&#39; CALL &#39;&#39; (67)</text>
</g>
<!-- node0x503000000a60&#45;&gt;node0x5030000000d0 -->
<g id="edge2" class="edge">
<title>node0x503000000a60&#45;&gt;node0x5030000000d0</title>
<path fill="none" stroke="black" d="M326.4,-1281.37C314.71,-1271.99 300.94,-1260.95 288.51,-1250.98"/>
<polygon fill="black" stroke="black" points="290.56,-1248.13 280.57,-1244.61 286.18,-1253.59 290.56,-1248.13"/>
</g>
<!-- node0x503000000190 -->
<g id="node4" class="node">
<title>node0x503000000190</title>
<path fill="#e0e0e0" stroke="black" d="M394.5,-1198.5C394.5,-1198.5 567.5,-1198.5 567.5,-1198.5 573.5,-1198.5 579.5,-1204.5 579.5,-1210.5 579.5,-1210.5 579.5,-1232.5 579.5,-1232.5 579.5,-1238.5 573.5,-1244.5 567.5,-1244.5 567.5,-1244.5 394.5,-1244.5 394.5,-1244.5 388.5,-1244.5 382.5,-1238.5 382.5,-1232.5 382.5,-1232.5 382.5,-1210.5 382.5,-1210.5 382.5,-1204.5 388.5,-1198.5 394.5,-1198.5"/>
<text text-anchor="middle" x="481" y="-1229.3" font-family="Times,serif" font-size="14.00">type = 2 (OP)</text>
<polyline fill="none" stroke="black" points="382.5,-1221.5 579.5,-1221.5 "/>
<text text-anchor="middle" x="481" y="-1206.3" font-family="Times,serif" font-size="14.00">value = &#39;&#39; SHUTUP &#39;&#39; (59)</text>
</g>
<!-- node0x503000000a60&#45;&gt;node0x503000000190 -->
<g id="edge3" class="edge">
<title>node0x503000000a60&#45;&gt;node0x503000000190</title>
<path fill="none" stroke="black" d="M388.7,-1281.37C403.82,-1271.72 421.71,-1260.32 437.69,-1250.13"/>
<polygon fill="black" stroke="black" points="439.79,-1252.94 446.34,-1244.61 436.03,-1247.03 439.79,-1252.94"/>
</g>
<!-- node0x503000000040 -->
<g id="node5" class="node">
<title>node0x503000000040</title>
<path fill="#2ee31e" stroke="black" d="M12,-1115.5C12,-1115.5 154,-1115.5 154,-1115.5 160,-1115.5 166,-1121.5 166,-1127.5 166,-1127.5 166,-1149.5 166,-1149.5 166,-1155.5 160,-1161.5 154,-1161.5 154,-1161.5 12,-1161.5 12,-1161.5 6,-1161.5 0,-1155.5 0,-1149.5 0,-1149.5 0,-1127.5 0,-1127.5 0,-1121.5 6,-1115.5 12,-1115.5"/>
<text text-anchor="middle" x="83" y="-1146.3" font-family="Times,serif" font-size="14.00">type = 4 (FUNC)</text>
<polyline fill="none" stroke="black" points="0,-1138.5 166,-1138.5 "/>
<text text-anchor="middle" x="83" y="-1123.3" font-family="Times,serif" font-size="14.00">value = &#39;&#39; carti &#39;&#39; (20)</text>
</g>
<!-- node0x5030000000d0&#45;&gt;node0x503000000040 -->
<g id="edge4" class="edge">
<title>node0x5030000000d0&#45;&gt;node0x503000000040</title>
<path fill="none" stroke="black" d="M206.55,-1198.37C185.56,-1188.37 160.59,-1176.47 138.61,-1166"/>
<polygon fill="black" stroke="black" points="139.93,-1162.75 129.4,-1161.61 136.92,-1169.07 139.93,-1162.75"/>
</g>
<!-- node0x5030000000a0 -->
<g id="node6" class="node">
<title>node0x5030000000a0</title>
<path fill="#feaadf" stroke="black" d="M196.5,-1115.5C196.5,-1115.5 309.5,-1115.5 309.5,-1115.5 315.5,-1115.5 321.5,-1121.5 321.5,-1127.5 321.5,-1127.5 321.5,-1149.5 321.5,-1149.5 321.5,-1155.5 315.5,-1161.5 309.5,-1161.5 309.5,-1161.5 196.5,-1161.5 196.5,-1161.5 190.5,-1161.5 184.5,-1155.5 184.5,-1149.5 184.5,-1149.5 184.5,-1127.5 184.5,-1127.5 184.5,-1121.5 190.5,-1115.5 196.5,-1115.5"/>
<text text-anchor="middle" x="253" y="-1146.3" font-family="Times,serif" font-size="14.00">type = 4 (FUNC)</text>
<polyline fill="none" stroke="black" points="184.5,-1138.5 321.5,-1138.5 "/>
<text text-anchor="middle" x="253" y="-1123.3" font-family="Times,serif" font-size="14.00">value = &#39;&#39; , &#39;&#39; (44)</text>
</g>
<!-- node0x5030000000d0&#45;&gt;node0x5030000000a0 -->
<g id="edge5" class="edge">
<title>node0x5030000000d0&#45;&gt;node0x5030000000a0</title>
<path fill="none" stroke="black" d="M253,-1198.37C253,-1190.15 253,-1180.66 253,-1171.73"/>
<polygon fill="black" stroke="black" points="256.5,-1171.61 253,-1161.61 249.5,-1171.61 256.5,-1171.61"/>
</g>
<!-- node0x503000000160 -->
<g id="node8" class="node">
<title>node0x503000000160</title>
<path fill="#00ffdd" stroke="black" d="M420.5,-1115.5C420.5,-1115.5 541.5,-1115.5 541.5,-1115.5 547.5,-1115.5 553.5,-1121.5 553.5,-1127.5 553.5,-1127.5 553.5,-1149.5 553.5,-1149.5 553.5,-1155.5 547.5,-1161.5 541.5,-1161.5 541.5,-1161.5 420.5,-1161.5 420.5,-1161.5 414.5,-1161.5 408.5,-1155.5 408.5,-1149.5 408.5,-1149.5 408.5,-1127.5 408.5,-1127.5 408.5,-1121.5 414.5,-1115.5 420.5,-1115.5"/>
<text text-anchor="middle" x="481" y="-1146.3" font-family="Times,serif" font-size="14.00">type = 2 (OP)</text>
<polyline fill="none" stroke="black" points="408.5,-1138.5 553.5,-1138.5 "/>
<text text-anchor="middle" x="481" y="-1123.3" font-family="Times,serif" font-size="14.00">value = &#39;&#39; = &#39;&#39; (61)</text>
</g>
<!-- node0x503000000190&#45;&gt;node0x503000000160 -->
<g id="edge7" class="edge">
<title>node0x503000000190&#45;&gt;node0x503000000160</title>
<path fill="none" stroke="black" d="M481,-1198.37C481,-1190.15 481,-1180.66 481,-1171.73"/>
<polygon fill="black" stroke="black" points="484.5,-1171.61 481,-1161.61 477.5,-1171.61 484.5,-1171.61"/>
</g>
<!-- node0x503000000250 -->
<g id="node9" class="node">
<title>node0x503000000250</title>
<path fill="#e0e0e0" stroke="black" d="M668.5,-1115.5C668.5,-1115.5 841.5,-1115.5 841.5,-1115.5 847.5,-1115.5 853.5,-1121.5 853.5,-1127.5 853.5,-1127.5 853.5,-1149.5 853.5,-1149.5 853.5,-1155.5 847.5,-1161.5 841.5,-1161.5 841.5,-1161.5 668.5,-1161.5 668.5,-1161.5 662.5,-1161.5 656.5,-1155.5 656.5,-1149.5 656.5,-1149.5 656.5,-1127.5 656.5,-1127.5 656.5,-1121.5 662.5,-1115.5 668.5,-1115.5"/>
<text text-anchor="middle" x="755" y="-1146.3" font-family="Times,serif" font-size="14.00">type = 2 (OP)</text>
<polyline fill="none" stroke="black" points="656.5,-1138.5 853.5,-1138.5 "/>
<text text-anchor="middle" x="755" y="-1123.3" font-family="Times,serif" font-size="14.00">value = &#39;&#39; SHUTUP &#39;&#39; (59)</text>
</g>
<!-- node0x503000000190&#45;&gt;node0x503000000250 -->
<g id="edge8" class="edge">
<title>node0x503000000190&#45;&gt;node0x503000000250</title>
<path fill="none" stroke="black" d="M555.51,-1198.47C591.15,-1187.94 633.97,-1175.28 670.79,-1164.39"/>
<polygon fill="black" stroke="black" points="671.91,-1167.71 680.51,-1161.52 669.92,-1161 671.91,-1167.71"/>
</g>
<!-- node0x503000000070 -->
<g id="node7" class="node">
<title>node0x503000000070</title>
<path fill="#ff5050" stroke="black" d="M35.5,-986.5C35.5,-986.5 248.5,-986.5 248.5,-986.5 254.5,-986.5 260.5,-992.5 260.5,-998.5 260.5,-998.5 260.5,-1066.5 260.5,-1066.5 260.5,-1072.5 254.5,-1078.5 248.5,-1078.5 248.5,-1078.5 35.5,-1078.5 35.5,-1078.5 29.5,-1078.5 23.5,-1072.5 23.5,-1066.5 23.5,-1066.5 23.5,-998.5 23.5,-998.5 23.5,-992.5 29.5,-986.5 35.5,-986.5"/>
<text text-anchor="middle" x="142" y="-1063.3" font-family="Times,serif" font-size="14.00">type = 3 (ID)</text>
<polyline fill="none" stroke="black" points="23.5,-1055.5 260.5,-1055.5 "/>
<text text-anchor="middle" x="142" y="-1040.3" font-family="Times,serif" font-size="14.00">name = &#39;&#39; argc &#39;&#39;</text>
<polyline fill="none" stroke="black" points="23.5,-1032.5 260.5,-1032.5 "/>
<text text-anchor="middle" x="142" y="-1017.3" font-family="Times,serif" font-size="14.00">number in name table = &#39;&#39; 21 &#39;&#39;</text>
<polyline fill="none" stroke="black" points="23.5,-1009.5 260.5,-1009.5 "/>
<text text-anchor="middle" x="142" y="-994.3" font-family="Times,serif" font-size="14.00">id_type = PARM</text>
</g>
<!-- node0x5030000000a0&#45;&gt;node0x503000000070 -->
<g id="edge6" class="edge">
<title>node0x5030000000a0&#45;&gt;node0x503000000070</title>
<path fill="none" stroke="black" d="M229.46,-1115.44C220.06,-1106.64 208.81,-1096.1 197.56,-1085.55"/>
<polygon fill="black" stroke="black" points="199.87,-1082.93 190.18,-1078.64 195.09,-1088.03 199.87,-1082.93"/>
</g>
<!-- node0x503000000100 -->
<g id="node10" class="node">
<title>node0x503000000100</title>
<path fill="#ff5050" stroke="black" d="M290.5,-986.5C290.5,-986.5 503.5,-986.5 503.5,-986.5 509.5,-986.5 515.5,-992.5 515.5,-998.5 515.5,-998.5 515.5,-1066.5 515.5,-1066.5 515.5,-1072.5 509.5,-1078.5 503.5,-1078.5 503.5,-1078.5 290.5,-1078.5 290.5,-1078.5 284.5,-1078.5 278.5,-1072.5 278.5,-1066.5 278.5,-1066.5 278.5,-998.5 278.5,-998.5 278.5,-992.5 284.5,-986.5 290.5,-986.5"/>
<text text-anchor="middle" x="397" y="-1063.3" font-family="Times,serif" font-size="14.00">type = 3 (ID)</text>
<polyline fill="none" stroke="black" points="278.5,-1055.5 515.5,-1055.5 "/>
<text text-anchor="middle" x="397" y="-1040.3" font-family="Times,serif" font-size="14.00">name = &#39;&#39; numb &#39;&#39;</text>
<polyline fill="none" stroke="black" points="278.5,-1032.5 515.5,-1032.5 "/>
<text text-anchor="middle" x="397" y="-1017.3" font-family="Times,serif" font-size="14.00">number in name table = &#39;&#39; 22 &#39;&#39;</text>
<polyline fill="none" stroke="black" points="278.5,-1009.5 515.5,-1009.5 "/>
<text text-anchor="middle" x="397" y="-994.3" font-family="Times,serif" font-size="14.00">id_type = LOCL</text>
</g>
<!-- node0x503000000160&#45;&gt;node0x503000000100 -->
<g id="edge9" class="edge">
<title>node0x503000000160&#45;&gt;node0x503000000100</title>
<path fill="none" stroke="black" d="M463.19,-1115.44C456.28,-1106.89 448.05,-1096.7 439.77,-1086.46"/>
<polygon fill="black" stroke="black" points="442.47,-1084.22 433.46,-1078.64 437.02,-1088.62 442.47,-1084.22"/>
</g>
<!-- node0x503000000130 -->
<g id="node11" class="node">
<title>node0x503000000130</title>
<path fill="#ffd700" stroke="black" d="M545.5,-1009.5C545.5,-1009.5 652.5,-1009.5 652.5,-1009.5 658.5,-1009.5 664.5,-1015.5 664.5,-1021.5 664.5,-1021.5 664.5,-1043.5 664.5,-1043.5 664.5,-1049.5 658.5,-1055.5 652.5,-1055.5 652.5,-1055.5 545.5,-1055.5 545.5,-1055.5 539.5,-1055.5 533.5,-1049.5 533.5,-1043.5 533.5,-1043.5 533.5,-1021.5 533.5,-1021.5 533.5,-1015.5 539.5,-1009.5 545.5,-1009.5"/>
<text text-anchor="middle" x="599" y="-1040.3" font-family="Times,serif" font-size="14.00">type = 1 (NUM)</text>
<polyline fill="none" stroke="black" points="533.5,-1032.5 664.5,-1032.5 "/>
<text text-anchor="middle" x="599" y="-1017.3" font-family="Times,serif" font-size="14.00">value = &#39;&#39; 5 &#39;&#39;</text>
</g>
<!-- node0x503000000160&#45;&gt;node0x503000000130 -->
<g id="edge10" class="edge">
<title>node0x503000000160&#45;&gt;node0x503000000130</title>
<path fill="none" stroke="black" d="M506.02,-1115.44C523.62,-1099.93 547.34,-1079.03 566.42,-1062.22"/>
<polygon fill="black" stroke="black" points="568.82,-1064.76 574.01,-1055.52 564.19,-1059.51 568.82,-1064.76"/>
</g>
<!-- node0x503000000220 -->
<g id="node12" class="node">
<title>node0x503000000220</title>
<path fill="#00ffdd" stroke="black" d="M694.5,-1009.5C694.5,-1009.5 815.5,-1009.5 815.5,-1009.5 821.5,-1009.5 827.5,-1015.5 827.5,-1021.5 827.5,-1021.5 827.5,-1043.5 827.5,-1043.5 827.5,-1049.5 821.5,-1055.5 815.5,-1055.5 815.5,-1055.5 694.5,-1055.5 694.5,-1055.5 688.5,-1055.5 682.5,-1049.5 682.5,-1043.5 682.5,-1043.5 682.5,-1021.5 682.5,-1021.5 682.5,-1015.5 688.5,-1009.5 694.5,-1009.5"/>
<text text-anchor="middle" x="755" y="-1040.3" font-family="Times,serif" font-size="14.00">type = 2 (OP)</text>
<polyline fill="none" stroke="black" points="682.5,-1032.5 827.5,-1032.5 "/>
<text text-anchor="middle" x="755" y="-1017.3" font-family="Times,serif" font-size="14.00">value = &#39;&#39; = &#39;&#39; (61)</text>
</g>
<!-- node0x503000000250&#45;&gt;node0x503000000220 -->
<g id="edge11" class="edge">
<title>node0x503000000250&#45;&gt;node0x503000000220</title>
<path fill="none" stroke="black" d="M755,-1115.44C755,-1100.97 755,-1081.79 755,-1065.63"/>
<polygon fill="black" stroke="black" points="758.5,-1065.52 755,-1055.52 751.5,-1065.52 758.5,-1065.52"/>
</g>
<!-- node0x503000000310 -->
<g id="node13" class="node">
<title>node0x503000000310</title>
<path fill="#e0e0e0" stroke="black" d="M857.5,-1009.5C857.5,-1009.5 1030.5,-1009.5 1030.5,-1009.5 1036.5,-1009.5 1042.5,-1015.5 1042.5,-1021.5 1042.5,-1021.5 1042.5,-1043.5 1042.5,-1043.5 1042.5,-1049.5 1036.5,-1055.5 1030.5,-1055.5 1030.5,-1055.5 857.5,-1055.5 857.5,-1055.5 851.5,-1055.5 845.5,-1049.5 845.5,-1043.5 845.5,-1043.5 845.5,-1021.5 845.5,-1021.5 845.5,-1015.5 851.5,-1009.5 857.5,-1009.5"/>
<text text-anchor="middle" x="944" y="-1040.3" font-family="Times,serif" font-size="14.00">type = 2 (OP)</text>
<polyline fill="none" stroke="black" points="845.5,-1032.5 1042.5,-1032.5 "/>
<text text-anchor="middle" x="944" y="-1017.3" font-family="Times,serif" font-size="14.00">value = &#39;&#39; SHUTUP &#39;&#39; (59)</text>
</g>
<!-- node0x503000000250&#45;&gt;node0x503000000310 -->
<g id="edge12" class="edge">
<title>node0x503000000250&#45;&gt;node0x503000000310</title>
<path fill="none" stroke="black" d="M795.08,-1115.44C824.27,-1099.38 863.98,-1077.53 895.05,-1060.44"/>
<polygon fill="black" stroke="black" points="896.9,-1063.41 903.98,-1055.52 893.53,-1057.28 896.9,-1063.41"/>
</g>
<!-- node0x5030000001c0 -->
<g id="node14" class="node">
<title>node0x5030000001c0</title>
<path fill="#ff5050" stroke="black" d="M454.5,-857.5C454.5,-857.5 667.5,-857.5 667.5,-857.5 673.5,-857.5 679.5,-863.5 679.5,-869.5 679.5,-869.5 679.5,-937.5 679.5,-937.5 679.5,-943.5 673.5,-949.5 667.5,-949.5 667.5,-949.5 454.5,-949.5 454.5,-949.5 448.5,-949.5 442.5,-943.5 442.5,-937.5 442.5,-937.5 442.5,-869.5 442.5,-869.5 442.5,-863.5 448.5,-857.5 454.5,-857.5"/>
<text text-anchor="middle" x="561" y="-934.3" font-family="Times,serif" font-size="14.00">type = 3 (ID)</text>
<polyline fill="none" stroke="black" points="442.5,-926.5 679.5,-926.5 "/>
<text text-anchor="middle" x="561" y="-911.3" font-family="Times,serif" font-size="14.00">name = &#39;&#39; result &#39;&#39;</text>
<polyline fill="none" stroke="black" points="442.5,-903.5 679.5,-903.5 "/>
<text text-anchor="middle" x="561" y="-888.3" font-family="Times,serif" font-size="14.00">number in name table = &#39;&#39; 23 &#39;&#39;</text>
<polyline fill="none" stroke="black" points="442.5,-880.5 679.5,-880.5 "/>
<text text-anchor="middle" x="561" y="-865.3" font-family="Times,serif" font-size="14.00">id_type = LOCL</text>
</g>
<!-- node0x503000000220&#45;&gt;node0x5030000001c0 -->
<g id="edge13" class="edge">
<title>node0x503000000220&#45;&gt;node0x5030000001c0</title>
<path fill="none" stroke="black" d="M721.21,-1009.38C698.38,-994.44 667.29,-974.08 638.57,-955.28"/>
<polygon fill="black" stroke="black" points="640.42,-952.31 630.14,-949.76 636.59,-958.17 640.42,-952.31"/>
</g>
<!-- node0x5030000001f0 -->
<g id="node15" class="node">
<title>node0x5030000001f0</title>
<path fill="#ffd700" stroke="black" d="M709.5,-880.5C709.5,-880.5 816.5,-880.5 816.5,-880.5 822.5,-880.5 828.5,-886.5 828.5,-892.5 828.5,-892.5 828.5,-914.5 828.5,-914.5 828.5,-920.5 822.5,-926.5 816.5,-926.5 816.5,-926.5 709.5,-926.5 709.5,-926.5 703.5,-926.5 697.5,-920.5 697.5,-914.5 697.5,-914.5 697.5,-892.5 697.5,-892.5 697.5,-886.5 703.5,-880.5 709.5,-880.5"/>
<text text-anchor="middle" x="763" y="-911.3" font-family="Times,serif" font-size="14.00">type = 1 (NUM)</text>
<polyline fill="none" stroke="black" points="697.5,-903.5 828.5,-903.5 "/>
<text text-anchor="middle" x="763" y="-888.3" font-family="Times,serif" font-size="14.00">value = &#39;&#39; 1 &#39;&#39;</text>
</g>
<!-- node0x503000000220&#45;&gt;node0x5030000001f0 -->
<g id="edge14" class="edge">
<title>node0x503000000220&#45;&gt;node0x5030000001f0</title>
<path fill="none" stroke="black" d="M756.39,-1009.38C757.65,-989.38 759.52,-959.68 760.95,-936.98"/>
<polygon fill="black" stroke="black" points="764.46,-936.99 761.6,-926.79 757.47,-936.55 764.46,-936.99"/>
</g>
<!-- node0x5030000002e0 -->
<g id="node16" class="node">
<title>node0x5030000002e0</title>
<path fill="#00ffdd" stroke="black" d="M874.5,-880.5C874.5,-880.5 995.5,-880.5 995.5,-880.5 1001.5,-880.5 1007.5,-886.5 1007.5,-892.5 1007.5,-892.5 1007.5,-914.5 1007.5,-914.5 1007.5,-920.5 1001.5,-926.5 995.5,-926.5 995.5,-926.5 874.5,-926.5 874.5,-926.5 868.5,-926.5 862.5,-920.5 862.5,-914.5 862.5,-914.5 862.5,-892.5 862.5,-892.5 862.5,-886.5 868.5,-880.5 874.5,-880.5"/>
<text text-anchor="middle" x="935" y="-911.3" font-family="Times,serif" font-size="14.00">type = 2 (OP)</text>
<polyline fill="none" stroke="black" points="862.5,-903.5 1007.5,-903.5 "/>
<text text-anchor="middle" x="935" y="-888.3" font-family="Times,serif" font-size="14.00">value = &#39;&#39; = &#39;&#39; (61)</text>
</g>
<!-- node0x503000000310&#45;&gt;node0x5030000002e0 -->
<g id="edge15" class="edge">
<title>node0x503000000310&#45;&gt;node0x5030000002e0</title>
<path fill="none" stroke="black" d="M942.43,-1009.38C941.01,-989.38 938.91,-959.68 937.3,-936.98"/>
<polygon fill="black" stroke="black" points="940.78,-936.52 936.58,-926.79 933.8,-937.02 940.78,-936.52"/>
</g>
<!-- node0x5030000005e0 -->
<g id="node17" class="node">
<title>node0x5030000005e0</title>
<path fill="#e0e0e0" stroke="black" d="M1037.5,-880.5C1037.5,-880.5 1210.5,-880.5 1210.5,-880.5 1216.5,-880.5 1222.5,-886.5 1222.5,-892.5 1222.5,-892.5 1222.5,-914.5 1222.5,-914.5 1222.5,-920.5 1216.5,-926.5 1210.5,-926.5 1210.5,-926.5 1037.5,-926.5 1037.5,-926.5 1031.5,-926.5 1025.5,-920.5 1025.5,-914.5 1025.5,-914.5 1025.5,-892.5 1025.5,-892.5 1025.5,-886.5 1031.5,-880.5 1037.5,-880.5"/>
<text text-anchor="middle" x="1124" y="-911.3" font-family="Times,serif" font-size="14.00">type = 2 (OP)</text>
<polyline fill="none" stroke="black" points="1025.5,-903.5 1222.5,-903.5 "/>
<text text-anchor="middle" x="1124" y="-888.3" font-family="Times,serif" font-size="14.00">value = &#39;&#39; SHUTUP &#39;&#39; (59)</text>
</g>
<!-- node0x503000000310&#45;&gt;node0x5030000005e0 -->
<g id="edge16" class="edge">
<title>node0x503000000310&#45;&gt;node0x5030000005e0</title>
<path fill="none" stroke="black" d="M975.35,-1009.38C1005.59,-988.05 1051.46,-955.68 1084.25,-932.55"/>
<polygon fill="black" stroke="black" points="1086.55,-935.21 1092.7,-926.58 1082.52,-929.49 1086.55,-935.21"/>
</g>
<!-- node0x503000000280 -->
<g id="node18" class="node">
<title>node0x503000000280</title>
<path fill="#ff5050" stroke="black" d="M628.5,-728.5C628.5,-728.5 841.5,-728.5 841.5,-728.5 847.5,-728.5 853.5,-734.5 853.5,-740.5 853.5,-740.5 853.5,-808.5 853.5,-808.5 853.5,-814.5 847.5,-820.5 841.5,-820.5 841.5,-820.5 628.5,-820.5 628.5,-820.5 622.5,-820.5 616.5,-814.5 616.5,-808.5 616.5,-808.5 616.5,-740.5 616.5,-740.5 616.5,-734.5 622.5,-728.5 628.5,-728.5"/>
<text text-anchor="middle" x="735" y="-805.3" font-family="Times,serif" font-size="14.00">type = 3 (ID)</text>
<polyline fill="none" stroke="black" points="616.5,-797.5 853.5,-797.5 "/>
<text text-anchor="middle" x="735" y="-782.3" font-family="Times,serif" font-size="14.00">name = &#39;&#39; old &#39;&#39;</text>
<polyline fill="none" stroke="black" points="616.5,-774.5 853.5,-774.5 "/>
<text text-anchor="middle" x="735" y="-759.3" font-family="Times,serif" font-size="14.00">number in name table = &#39;&#39; 24 &#39;&#39;</text>
<polyline fill="none" stroke="black" points="616.5,-751.5 853.5,-751.5 "/>
<text text-anchor="middle" x="735" y="-736.3" font-family="Times,serif" font-size="14.00">id_type = LOCL</text>
</g>
<!-- node0x5030000002e0&#45;&gt;node0x503000000280 -->
<g id="edge17" class="edge">
<title>node0x5030000002e0&#45;&gt;node0x503000000280</title>
<path fill="none" stroke="black" d="M900.16,-880.38C876.63,-865.44 844.58,-845.08 814.97,-826.28"/>
<polygon fill="black" stroke="black" points="816.6,-823.17 806.28,-820.76 812.84,-829.08 816.6,-823.17"/>
</g>
<!-- node0x5030000002b0 -->
<g id="node19" class="node">
<title>node0x5030000002b0</title>
<path fill="#ffd700" stroke="black" d="M883.5,-751.5C883.5,-751.5 990.5,-751.5 990.5,-751.5 996.5,-751.5 1002.5,-757.5 1002.5,-763.5 1002.5,-763.5 1002.5,-785.5 1002.5,-785.5 1002.5,-791.5 996.5,-797.5 990.5,-797.5 990.5,-797.5 883.5,-797.5 883.5,-797.5 877.5,-797.5 871.5,-791.5 871.5,-785.5 871.5,-785.5 871.5,-763.5 871.5,-763.5 871.5,-757.5 877.5,-751.5 883.5,-751.5"/>
<text text-anchor="middle" x="937" y="-782.3" font-family="Times,serif" font-size="14.00">type = 1 (NUM)</text>
<polyline fill="none" stroke="black" points="871.5,-774.5 1002.5,-774.5 "/>
<text text-anchor="middle" x="937" y="-759.3" font-family="Times,serif" font-size="14.00">value = &#39;&#39; 1 &#39;&#39;</text>
</g>
<!-- node0x5030000002e0&#45;&gt;node0x5030000002b0 -->
<g id="edge18" class="edge">
<title>node0x5030000002e0&#45;&gt;node0x5030000002b0</title>
<path fill="none" stroke="black" d="M935.35,-880.38C935.66,-860.38 936.13,-830.68 936.49,-807.98"/>
<polygon fill="black" stroke="black" points="939.99,-807.85 936.65,-797.79 932.99,-807.74 939.99,-807.85"/>
</g>
<!-- node0x5030000005b0 -->
<g id="node20" class="node">
<title>node0x5030000005b0</title>
<path fill="#df73df" stroke="black" d="M1035.5,-751.5C1035.5,-751.5 1210.5,-751.5 1210.5,-751.5 1216.5,-751.5 1222.5,-757.5 1222.5,-763.5 1222.5,-763.5 1222.5,-785.5 1222.5,-785.5 1222.5,-791.5 1216.5,-797.5 1210.5,-797.5 1210.5,-797.5 1035.5,-797.5 1035.5,-797.5 1029.5,-797.5 1023.5,-791.5 1023.5,-785.5 1023.5,-785.5 1023.5,-763.5 1023.5,-763.5 1023.5,-757.5 1029.5,-751.5 1035.5,-751.5"/>
<text text-anchor="middle" x="1123" y="-782.3" font-family="Times,serif" font-size="14.00">type = 2 (OP)</text>
<polyline fill="none" stroke="black" points="1023.5,-774.5 1222.5,-774.5 "/>
<text text-anchor="middle" x="1123" y="-759.3" font-family="Times,serif" font-size="14.00">value = &#39;&#39; MONEY &#39;&#39; (119)</text>
</g>
<!-- node0x5030000005e0&#45;&gt;node0x5030000005b0 -->
<g id="edge19" class="edge">
<title>node0x5030000005e0&#45;&gt;node0x5030000005b0</title>
<path fill="none" stroke="black" d="M1123.83,-880.38C1123.67,-860.38 1123.43,-830.68 1123.26,-807.98"/>
<polygon fill="black" stroke="black" points="1126.75,-807.77 1123.18,-797.79 1119.75,-807.82 1126.75,-807.77"/>
</g>
<!-- node0x503000000700 -->
<g id="node21" class="node">
<title>node0x503000000700</title>
<path fill="#e0e0e0" stroke="black" d="M1381.5,-751.5C1381.5,-751.5 1554.5,-751.5 1554.5,-751.5 1560.5,-751.5 1566.5,-757.5 1566.5,-763.5 1566.5,-763.5 1566.5,-785.5 1566.5,-785.5 1566.5,-791.5 1560.5,-797.5 1554.5,-797.5 1554.5,-797.5 1381.5,-797.5 1381.5,-797.5 1375.5,-797.5 1369.5,-791.5 1369.5,-785.5 1369.5,-785.5 1369.5,-763.5 1369.5,-763.5 1369.5,-757.5 1375.5,-751.5 1381.5,-751.5"/>
<text text-anchor="middle" x="1468" y="-782.3" font-family="Times,serif" font-size="14.00">type = 2 (OP)</text>
<polyline fill="none" stroke="black" points="1369.5,-774.5 1566.5,-774.5 "/>
<text text-anchor="middle" x="1468" y="-759.3" font-family="Times,serif" font-size="14.00">value = &#39;&#39; SHUTUP &#39;&#39; (59)</text>
</g>
<!-- node0x5030000005e0&#45;&gt;node0x503000000700 -->
<g id="edge20" class="edge">
<title>node0x5030000005e0&#45;&gt;node0x503000000700</title>
<path fill="none" stroke="black" d="M1183.92,-880.38C1243.79,-858.27 1335.76,-824.32 1398.73,-801.07"/>
<polygon fill="black" stroke="black" points="1400.02,-804.33 1408.19,-797.58 1397.6,-797.76 1400.02,-804.33"/>
</g>
<!-- node0x503000000340 -->
<g id="node22" class="node">
<title>node0x503000000340</title>
<path fill="#ff5050" stroke="black" d="M781.5,-599.5C781.5,-599.5 994.5,-599.5 994.5,-599.5 1000.5,-599.5 1006.5,-605.5 1006.5,-611.5 1006.5,-611.5 1006.5,-679.5 1006.5,-679.5 1006.5,-685.5 1000.5,-691.5 994.5,-691.5 994.5,-691.5 781.5,-691.5 781.5,-691.5 775.5,-691.5 769.5,-685.5 769.5,-679.5 769.5,-679.5 769.5,-611.5 769.5,-611.5 769.5,-605.5 775.5,-599.5 781.5,-599.5"/>
<text text-anchor="middle" x="888" y="-676.3" font-family="Times,serif" font-size="14.00">type = 3 (ID)</text>
<polyline fill="none" stroke="black" points="769.5,-668.5 1006.5,-668.5 "/>
<text text-anchor="middle" x="888" y="-653.3" font-family="Times,serif" font-size="14.00">name = &#39;&#39; numb &#39;&#39;</text>
<polyline fill="none" stroke="black" points="769.5,-645.5 1006.5,-645.5 "/>
<text text-anchor="middle" x="888" y="-630.3" font-family="Times,serif" font-size="14.00">number in name table = &#39;&#39; 22 &#39;&#39;</text>
<polyline fill="none" stroke="black" points="769.5,-622.5 1006.5,-622.5 "/>
<text text-anchor="middle" x="888" y="-607.3" font-family="Times,serif" font-size="14.00">id_type = LOCL</text>
</g>
<!-- node0x5030000005b0&#45;&gt;node0x503000000340 -->
<g id="edge21" class="edge">
<title>node0x5030000005b0&#45;&gt;node0x503000000340</title>
<path fill="none" stroke="black" d="M1082.07,-751.38C1054.06,-736.24 1015.78,-715.56 980.62,-696.55"/>
<polygon fill="black" stroke="black" points="982.21,-693.44 971.75,-691.76 978.89,-699.6 982.21,-693.44"/>
</g>
<!-- node0x503000000460 -->
<g id="node23" class="node">
<title>node0x503000000460</title>
<path fill="#e0e0e0" stroke="black" d="M1036.5,-622.5C1036.5,-622.5 1209.5,-622.5 1209.5,-622.5 1215.5,-622.5 1221.5,-628.5 1221.5,-634.5 1221.5,-634.5 1221.5,-656.5 1221.5,-656.5 1221.5,-662.5 1215.5,-668.5 1209.5,-668.5 1209.5,-668.5 1036.5,-668.5 1036.5,-668.5 1030.5,-668.5 1024.5,-662.5 1024.5,-656.5 1024.5,-656.5 1024.5,-634.5 1024.5,-634.5 1024.5,-628.5 1030.5,-622.5 1036.5,-622.5"/>
<text text-anchor="middle" x="1123" y="-653.3" font-family="Times,serif" font-size="14.00">type = 2 (OP)</text>
<polyline fill="none" stroke="black" points="1024.5,-645.5 1221.5,-645.5 "/>
<text text-anchor="middle" x="1123" y="-630.3" font-family="Times,serif" font-size="14.00">value = &#39;&#39; SHUTUP &#39;&#39; (59)</text>
</g>
<!-- node0x5030000005b0&#45;&gt;node0x503000000460 -->
<g id="edge22" class="edge">
<title>node0x5030000005b0&#45;&gt;node0x503000000460</title>
<path fill="none" stroke="black" d="M1123,-751.38C1123,-731.38 1123,-701.68 1123,-678.98"/>
<polygon fill="black" stroke="black" points="1126.5,-678.79 1123,-668.79 1119.5,-678.79 1126.5,-678.79"/>
</g>
<!-- node0x5030000006d0 -->
<g id="node35" class="node">
<title>node0x5030000006d0</title>
<path fill="#00ffdd" stroke="black" d="M1407.5,-622.5C1407.5,-622.5 1528.5,-622.5 1528.5,-622.5 1534.5,-622.5 1540.5,-628.5 1540.5,-634.5 1540.5,-634.5 1540.5,-656.5 1540.5,-656.5 1540.5,-662.5 1534.5,-668.5 1528.5,-668.5 1528.5,-668.5 1407.5,-668.5 1407.5,-668.5 1401.5,-668.5 1395.5,-662.5 1395.5,-656.5 1395.5,-656.5 1395.5,-634.5 1395.5,-634.5 1395.5,-628.5 1401.5,-622.5 1407.5,-622.5"/>
<text text-anchor="middle" x="1468" y="-653.3" font-family="Times,serif" font-size="14.00">type = 2 (OP)</text>
<polyline fill="none" stroke="black" points="1395.5,-645.5 1540.5,-645.5 "/>
<text text-anchor="middle" x="1468" y="-630.3" font-family="Times,serif" font-size="14.00">value = &#39;&#39; = &#39;&#39; (61)</text>
</g>
<!-- node0x503000000700&#45;&gt;node0x5030000006d0 -->
<g id="edge34" class="edge">
<title>node0x503000000700&#45;&gt;node0x5030000006d0</title>
<path fill="none" stroke="black" d="M1468,-751.38C1468,-731.38 1468,-701.68 1468,-678.98"/>
<polygon fill="black" stroke="black" points="1471.5,-678.79 1468,-668.79 1464.5,-678.79 1471.5,-678.79"/>
</g>
<!-- node0x503000000820 -->
<g id="node36" class="node">
<title>node0x503000000820</title>
<path fill="#e0e0e0" stroke="black" d="M1804.5,-622.5C1804.5,-622.5 1977.5,-622.5 1977.5,-622.5 1983.5,-622.5 1989.5,-628.5 1989.5,-634.5 1989.5,-634.5 1989.5,-656.5 1989.5,-656.5 1989.5,-662.5 1983.5,-668.5 1977.5,-668.5 1977.5,-668.5 1804.5,-668.5 1804.5,-668.5 1798.5,-668.5 1792.5,-662.5 1792.5,-656.5 1792.5,-656.5 1792.5,-634.5 1792.5,-634.5 1792.5,-628.5 1798.5,-622.5 1804.5,-622.5"/>
<text text-anchor="middle" x="1891" y="-653.3" font-family="Times,serif" font-size="14.00">type = 2 (OP)</text>
<polyline fill="none" stroke="black" points="1792.5,-645.5 1989.5,-645.5 "/>
<text text-anchor="middle" x="1891" y="-630.3" font-family="Times,serif" font-size="14.00">value = &#39;&#39; SHUTUP &#39;&#39; (59)</text>
</g>
<!-- node0x503000000700&#45;&gt;node0x503000000820 -->
<g id="edge35" class="edge">
<title>node0x503000000700&#45;&gt;node0x503000000820</title>
<path fill="none" stroke="black" d="M1541.68,-751.38C1615.91,-729.09 1730.25,-694.76 1807.72,-671.5"/>
<polygon fill="black" stroke="black" points="1808.88,-674.81 1817.45,-668.58 1806.87,-668.1 1808.88,-674.81"/>
</g>
<!-- node0x503000000430 -->
<g id="node24" class="node">
<title>node0x503000000430</title>
<path fill="#00ffdd" stroke="black" d="M830.5,-493.5C830.5,-493.5 951.5,-493.5 951.5,-493.5 957.5,-493.5 963.5,-499.5 963.5,-505.5 963.5,-505.5 963.5,-527.5 963.5,-527.5 963.5,-533.5 957.5,-539.5 951.5,-539.5 951.5,-539.5 830.5,-539.5 830.5,-539.5 824.5,-539.5 818.5,-533.5 818.5,-527.5 818.5,-527.5 818.5,-505.5 818.5,-505.5 818.5,-499.5 824.5,-493.5 830.5,-493.5"/>
<text text-anchor="middle" x="891" y="-524.3" font-family="Times,serif" font-size="14.00">type = 2 (OP)</text>
<polyline fill="none" stroke="black" points="818.5,-516.5 963.5,-516.5 "/>
<text text-anchor="middle" x="891" y="-501.3" font-family="Times,serif" font-size="14.00">value = &#39;&#39; = &#39;&#39; (61)</text>
</g>
<!-- node0x503000000460&#45;&gt;node0x503000000430 -->
<g id="edge23" class="edge">
<title>node0x503000000460&#45;&gt;node0x503000000430</title>
<path fill="none" stroke="black" d="M1082.59,-622.38C1043.04,-600.73 982.72,-567.71 940.36,-544.52"/>
<polygon fill="black" stroke="black" points="941.79,-541.31 931.34,-539.58 938.43,-547.45 941.79,-541.31"/>
</g>
<!-- node0x503000000580 -->
<g id="node25" class="node">
<title>node0x503000000580</title>
<path fill="#e0e0e0" stroke="black" d="M1036.5,-493.5C1036.5,-493.5 1209.5,-493.5 1209.5,-493.5 1215.5,-493.5 1221.5,-499.5 1221.5,-505.5 1221.5,-505.5 1221.5,-527.5 1221.5,-527.5 1221.5,-533.5 1215.5,-539.5 1209.5,-539.5 1209.5,-539.5 1036.5,-539.5 1036.5,-539.5 1030.5,-539.5 1024.5,-533.5 1024.5,-527.5 1024.5,-527.5 1024.5,-505.5 1024.5,-505.5 1024.5,-499.5 1030.5,-493.5 1036.5,-493.5"/>
<text text-anchor="middle" x="1123" y="-524.3" font-family="Times,serif" font-size="14.00">type = 2 (OP)</text>
<polyline fill="none" stroke="black" points="1024.5,-516.5 1221.5,-516.5 "/>
<text text-anchor="middle" x="1123" y="-501.3" font-family="Times,serif" font-size="14.00">value = &#39;&#39; SHUTUP &#39;&#39; (59)</text>
</g>
<!-- node0x503000000460&#45;&gt;node0x503000000580 -->
<g id="edge24" class="edge">
<title>node0x503000000460&#45;&gt;node0x503000000580</title>
<path fill="none" stroke="black" d="M1123,-622.38C1123,-602.38 1123,-572.68 1123,-549.98"/>
<polygon fill="black" stroke="black" points="1126.5,-549.79 1123,-539.79 1119.5,-549.79 1126.5,-549.79"/>
</g>
<!-- node0x503000000370 -->
<g id="node26" class="node">
<title>node0x503000000370</title>
<path fill="#ff5050" stroke="black" d="M563.5,-341.5C563.5,-341.5 776.5,-341.5 776.5,-341.5 782.5,-341.5 788.5,-347.5 788.5,-353.5 788.5,-353.5 788.5,-421.5 788.5,-421.5 788.5,-427.5 782.5,-433.5 776.5,-433.5 776.5,-433.5 563.5,-433.5 563.5,-433.5 557.5,-433.5 551.5,-427.5 551.5,-421.5 551.5,-421.5 551.5,-353.5 551.5,-353.5 551.5,-347.5 557.5,-341.5 563.5,-341.5"/>
<text text-anchor="middle" x="670" y="-418.3" font-family="Times,serif" font-size="14.00">type = 3 (ID)</text>
<polyline fill="none" stroke="black" points="551.5,-410.5 788.5,-410.5 "/>
<text text-anchor="middle" x="670" y="-395.3" font-family="Times,serif" font-size="14.00">name = &#39;&#39; result &#39;&#39;</text>
<polyline fill="none" stroke="black" points="551.5,-387.5 788.5,-387.5 "/>
<text text-anchor="middle" x="670" y="-372.3" font-family="Times,serif" font-size="14.00">number in name table = &#39;&#39; 23 &#39;&#39;</text>
<polyline fill="none" stroke="black" points="551.5,-364.5 788.5,-364.5 "/>
<text text-anchor="middle" x="670" y="-349.3" font-family="Times,serif" font-size="14.00">id_type = LOCL</text>
</g>
<!-- node0x503000000430&#45;&gt;node0x503000000370 -->
<g id="edge25" class="edge">
<title>node0x503000000430&#45;&gt;node0x503000000370</title>
<path fill="none" stroke="black" d="M852.5,-493.38C826.28,-478.31 790.47,-457.73 757.52,-438.79"/>
<polygon fill="black" stroke="black" points="759.18,-435.71 748.76,-433.76 755.69,-441.78 759.18,-435.71"/>
</g>
<!-- node0x503000000400 -->
<g id="node27" class="node">
<title>node0x503000000400</title>
<path fill="#00ffdd" stroke="black" d="M819,-364.5C819,-364.5 963,-364.5 963,-364.5 969,-364.5 975,-370.5 975,-376.5 975,-376.5 975,-398.5 975,-398.5 975,-404.5 969,-410.5 963,-410.5 963,-410.5 819,-410.5 819,-410.5 813,-410.5 807,-404.5 807,-398.5 807,-398.5 807,-376.5 807,-376.5 807,-370.5 813,-364.5 819,-364.5"/>
<text text-anchor="middle" x="891" y="-395.3" font-family="Times,serif" font-size="14.00">type = 2 (OP)</text>
<polyline fill="none" stroke="black" points="807,-387.5 975,-387.5 "/>
<text text-anchor="middle" x="891" y="-372.3" font-family="Times,serif" font-size="14.00">value = &#39;&#39; MUL &#39;&#39; (42)</text>
</g>
<!-- node0x503000000430&#45;&gt;node0x503000000400 -->
<g id="edge26" class="edge">
<title>node0x503000000430&#45;&gt;node0x503000000400</title>
<path fill="none" stroke="black" d="M891,-493.38C891,-473.38 891,-443.68 891,-420.98"/>
<polygon fill="black" stroke="black" points="894.5,-420.79 891,-410.79 887.5,-420.79 894.5,-420.79"/>
</g>
<!-- node0x503000000550 -->
<g id="node30" class="node">
<title>node0x503000000550</title>
<path fill="#00ffdd" stroke="black" d="M1085.5,-364.5C1085.5,-364.5 1206.5,-364.5 1206.5,-364.5 1212.5,-364.5 1218.5,-370.5 1218.5,-376.5 1218.5,-376.5 1218.5,-398.5 1218.5,-398.5 1218.5,-404.5 1212.5,-410.5 1206.5,-410.5 1206.5,-410.5 1085.5,-410.5 1085.5,-410.5 1079.5,-410.5 1073.5,-404.5 1073.5,-398.5 1073.5,-398.5 1073.5,-376.5 1073.5,-376.5 1073.5,-370.5 1079.5,-364.5 1085.5,-364.5"/>
<text text-anchor="middle" x="1146" y="-395.3" font-family="Times,serif" font-size="14.00">type = 2 (OP)</text>
<polyline fill="none" stroke="black" points="1073.5,-387.5 1218.5,-387.5 "/>
<text text-anchor="middle" x="1146" y="-372.3" font-family="Times,serif" font-size="14.00">value = &#39;&#39; = &#39;&#39; (61)</text>
</g>
<!-- node0x503000000580&#45;&gt;node0x503000000550 -->
<g id="edge29" class="edge">
<title>node0x503000000580&#45;&gt;node0x503000000550</title>
<path fill="none" stroke="black" d="M1127.01,-493.38C1130.64,-473.29 1136.06,-443.41 1140.17,-420.68"/>
<polygon fill="black" stroke="black" points="1143.62,-421.26 1141.96,-410.79 1136.74,-420.01 1143.62,-421.26"/>
</g>
<!-- node0x5030000003a0 -->
<g id="node28" class="node">
<title>node0x5030000003a0</title>
<path fill="#ff5050" stroke="black" d="M529.5,-212.5C529.5,-212.5 742.5,-212.5 742.5,-212.5 748.5,-212.5 754.5,-218.5 754.5,-224.5 754.5,-224.5 754.5,-292.5 754.5,-292.5 754.5,-298.5 748.5,-304.5 742.5,-304.5 742.5,-304.5 529.5,-304.5 529.5,-304.5 523.5,-304.5 517.5,-298.5 517.5,-292.5 517.5,-292.5 517.5,-224.5 517.5,-224.5 517.5,-218.5 523.5,-212.5 529.5,-212.5"/>
<text text-anchor="middle" x="636" y="-289.3" font-family="Times,serif" font-size="14.00">type = 3 (ID)</text>
<polyline fill="none" stroke="black" points="517.5,-281.5 754.5,-281.5 "/>
<text text-anchor="middle" x="636" y="-266.3" font-family="Times,serif" font-size="14.00">name = &#39;&#39; result &#39;&#39;</text>
<polyline fill="none" stroke="black" points="517.5,-258.5 754.5,-258.5 "/>
<text text-anchor="middle" x="636" y="-243.3" font-family="Times,serif" font-size="14.00">number in name table = &#39;&#39; 23 &#39;&#39;</text>
<polyline fill="none" stroke="black" points="517.5,-235.5 754.5,-235.5 "/>
<text text-anchor="middle" x="636" y="-220.3" font-family="Times,serif" font-size="14.00">id_type = LOCL</text>
</g>
<!-- node0x503000000400&#45;&gt;node0x5030000003a0 -->
<g id="edge27" class="edge">
<title>node0x503000000400&#45;&gt;node0x5030000003a0</title>
<path fill="none" stroke="black" d="M846.58,-364.38C816,-349.15 774.12,-328.29 735.77,-309.19"/>
<polygon fill="black" stroke="black" points="737.13,-305.96 726.62,-304.63 734.01,-312.22 737.13,-305.96"/>
</g>
<!-- node0x5030000003d0 -->
<g id="node29" class="node">
<title>node0x5030000003d0</title>
<path fill="#ff5050" stroke="black" d="M784.5,-212.5C784.5,-212.5 997.5,-212.5 997.5,-212.5 1003.5,-212.5 1009.5,-218.5 1009.5,-224.5 1009.5,-224.5 1009.5,-292.5 1009.5,-292.5 1009.5,-298.5 1003.5,-304.5 997.5,-304.5 997.5,-304.5 784.5,-304.5 784.5,-304.5 778.5,-304.5 772.5,-298.5 772.5,-292.5 772.5,-292.5 772.5,-224.5 772.5,-224.5 772.5,-218.5 778.5,-212.5 784.5,-212.5"/>
<text text-anchor="middle" x="891" y="-289.3" font-family="Times,serif" font-size="14.00">type = 3 (ID)</text>
<polyline fill="none" stroke="black" points="772.5,-281.5 1009.5,-281.5 "/>
<text text-anchor="middle" x="891" y="-266.3" font-family="Times,serif" font-size="14.00">name = &#39;&#39; numb &#39;&#39;</text>
<polyline fill="none" stroke="black" points="772.5,-258.5 1009.5,-258.5 "/>
<text text-anchor="middle" x="891" y="-243.3" font-family="Times,serif" font-size="14.00">number in name table = &#39;&#39; 22 &#39;&#39;</text>
<polyline fill="none" stroke="black" points="772.5,-235.5 1009.5,-235.5 "/>
<text text-anchor="middle" x="891" y="-220.3" font-family="Times,serif" font-size="14.00">id_type = LOCL</text>
</g>
<!-- node0x503000000400&#45;&gt;node0x5030000003d0 -->
<g id="edge28" class="edge">
<title>node0x503000000400&#45;&gt;node0x5030000003d0</title>
<path fill="none" stroke="black" d="M891,-364.38C891,-350.66 891,-332.37 891,-314.91"/>
<polygon fill="black" stroke="black" points="894.5,-314.76 891,-304.76 887.5,-314.76 894.5,-314.76"/>
</g>
<!-- node0x503000000490 -->
<g id="node31" class="node">
<title>node0x503000000490</title>
<path fill="#ff5050" stroke="black" d="M1039.5,-212.5C1039.5,-212.5 1252.5,-212.5 1252.5,-212.5 1258.5,-212.5 1264.5,-218.5 1264.5,-224.5 1264.5,-224.5 1264.5,-292.5 1264.5,-292.5 1264.5,-298.5 1258.5,-304.5 1252.5,-304.5 1252.5,-304.5 1039.5,-304.5 1039.5,-304.5 1033.5,-304.5 1027.5,-298.5 1027.5,-292.5 1027.5,-292.5 1027.5,-224.5 1027.5,-224.5 1027.5,-218.5 1033.5,-212.5 1039.5,-212.5"/>
<text text-anchor="middle" x="1146" y="-289.3" font-family="Times,serif" font-size="14.00">type = 3 (ID)</text>
<polyline fill="none" stroke="black" points="1027.5,-281.5 1264.5,-281.5 "/>
<text text-anchor="middle" x="1146" y="-266.3" font-family="Times,serif" font-size="14.00">name = &#39;&#39; numb &#39;&#39;</text>
<polyline fill="none" stroke="black" points="1027.5,-258.5 1264.5,-258.5 "/>
<text text-anchor="middle" x="1146" y="-243.3" font-family="Times,serif" font-size="14.00">number in name table = &#39;&#39; 22 &#39;&#39;</text>
<polyline fill="none" stroke="black" points="1027.5,-235.5 1264.5,-235.5 "/>
<text text-anchor="middle" x="1146" y="-220.3" font-family="Times,serif" font-size="14.00">id_type = LOCL</text>
</g>
<!-- node0x503000000550&#45;&gt;node0x503000000490 -->
<g id="edge30" class="edge">
<title>node0x503000000550&#45;&gt;node0x503000000490</title>
<path fill="none" stroke="black" d="M1146,-364.38C1146,-350.66 1146,-332.37 1146,-314.91"/>
<polygon fill="black" stroke="black" points="1149.5,-314.76 1146,-304.76 1142.5,-314.76 1149.5,-314.76"/>
</g>
<!-- node0x503000000520 -->
<g id="node32" class="node">
<title>node0x503000000520</title>
<path fill="#00ffdd" stroke="black" d="M1294.5,-235.5C1294.5,-235.5 1435.5,-235.5 1435.5,-235.5 1441.5,-235.5 1447.5,-241.5 1447.5,-247.5 1447.5,-247.5 1447.5,-269.5 1447.5,-269.5 1447.5,-275.5 1441.5,-281.5 1435.5,-281.5 1435.5,-281.5 1294.5,-281.5 1294.5,-281.5 1288.5,-281.5 1282.5,-275.5 1282.5,-269.5 1282.5,-269.5 1282.5,-247.5 1282.5,-247.5 1282.5,-241.5 1288.5,-235.5 1294.5,-235.5"/>
<text text-anchor="middle" x="1365" y="-266.3" font-family="Times,serif" font-size="14.00">type = 2 (OP)</text>
<polyline fill="none" stroke="black" points="1282.5,-258.5 1447.5,-258.5 "/>
<text text-anchor="middle" x="1365" y="-243.3" font-family="Times,serif" font-size="14.00">value = &#39;&#39; SUB &#39;&#39; (45)</text>
</g>
<!-- node0x503000000550&#45;&gt;node0x503000000520 -->
<g id="edge31" class="edge">
<title>node0x503000000550&#45;&gt;node0x503000000520</title>
<path fill="none" stroke="black" d="M1184.15,-364.38C1221.4,-342.77 1278.18,-309.85 1318.16,-286.66"/>
<polygon fill="black" stroke="black" points="1320.03,-289.63 1326.92,-281.58 1316.52,-283.57 1320.03,-289.63"/>
</g>
<!-- node0x5030000004c0 -->
<g id="node33" class="node">
<title>node0x5030000004c0</title>
<path fill="#ff5050" stroke="black" d="M1157.5,-83.5C1157.5,-83.5 1370.5,-83.5 1370.5,-83.5 1376.5,-83.5 1382.5,-89.5 1382.5,-95.5 1382.5,-95.5 1382.5,-163.5 1382.5,-163.5 1382.5,-169.5 1376.5,-175.5 1370.5,-175.5 1370.5,-175.5 1157.5,-175.5 1157.5,-175.5 1151.5,-175.5 1145.5,-169.5 1145.5,-163.5 1145.5,-163.5 1145.5,-95.5 1145.5,-95.5 1145.5,-89.5 1151.5,-83.5 1157.5,-83.5"/>
<text text-anchor="middle" x="1264" y="-160.3" font-family="Times,serif" font-size="14.00">type = 3 (ID)</text>
<polyline fill="none" stroke="black" points="1145.5,-152.5 1382.5,-152.5 "/>
<text text-anchor="middle" x="1264" y="-137.3" font-family="Times,serif" font-size="14.00">name = &#39;&#39; numb &#39;&#39;</text>
<polyline fill="none" stroke="black" points="1145.5,-129.5 1382.5,-129.5 "/>
<text text-anchor="middle" x="1264" y="-114.3" font-family="Times,serif" font-size="14.00">number in name table = &#39;&#39; 22 &#39;&#39;</text>
<polyline fill="none" stroke="black" points="1145.5,-106.5 1382.5,-106.5 "/>
<text text-anchor="middle" x="1264" y="-91.3" font-family="Times,serif" font-size="14.00">id_type = LOCL</text>
</g>
<!-- node0x503000000520&#45;&gt;node0x5030000004c0 -->
<g id="edge32" class="edge">
<title>node0x503000000520&#45;&gt;node0x5030000004c0</title>
<path fill="none" stroke="black" d="M1347.41,-235.38C1336.09,-221.14 1320.86,-201.99 1306.51,-183.95"/>
<polygon fill="black" stroke="black" points="1308.96,-181.41 1300,-175.76 1303.48,-185.77 1308.96,-181.41"/>
</g>
<!-- node0x5030000004f0 -->
<g id="node34" class="node">
<title>node0x5030000004f0</title>
<path fill="#ffd700" stroke="black" d="M1412.5,-106.5C1412.5,-106.5 1519.5,-106.5 1519.5,-106.5 1525.5,-106.5 1531.5,-112.5 1531.5,-118.5 1531.5,-118.5 1531.5,-140.5 1531.5,-140.5 1531.5,-146.5 1525.5,-152.5 1519.5,-152.5 1519.5,-152.5 1412.5,-152.5 1412.5,-152.5 1406.5,-152.5 1400.5,-146.5 1400.5,-140.5 1400.5,-140.5 1400.5,-118.5 1400.5,-118.5 1400.5,-112.5 1406.5,-106.5 1412.5,-106.5"/>
<text text-anchor="middle" x="1466" y="-137.3" font-family="Times,serif" font-size="14.00">type = 1 (NUM)</text>
<polyline fill="none" stroke="black" points="1400.5,-129.5 1531.5,-129.5 "/>
<text text-anchor="middle" x="1466" y="-114.3" font-family="Times,serif" font-size="14.00">value = &#39;&#39; 1 &#39;&#39;</text>
</g>
<!-- node0x503000000520&#45;&gt;node0x5030000004f0 -->
<g id="edge33" class="edge">
<title>node0x503000000520&#45;&gt;node0x5030000004f0</title>
<path fill="none" stroke="black" d="M1382.59,-235.38C1399,-214.74 1423.62,-183.79 1441.86,-160.85"/>
<polygon fill="black" stroke="black" points="1444.78,-162.8 1448.27,-152.79 1439.31,-158.44 1444.78,-162.8"/>
</g>
<!-- node0x503000000610 -->
<g id="node37" class="node">
<title>node0x503000000610</title>
<path fill="#ff5050" stroke="black" d="M1251.5,-470.5C1251.5,-470.5 1464.5,-470.5 1464.5,-470.5 1470.5,-470.5 1476.5,-476.5 1476.5,-482.5 1476.5,-482.5 1476.5,-550.5 1476.5,-550.5 1476.5,-556.5 1470.5,-562.5 1464.5,-562.5 1464.5,-562.5 1251.5,-562.5 1251.5,-562.5 1245.5,-562.5 1239.5,-556.5 1239.5,-550.5 1239.5,-550.5 1239.5,-482.5 1239.5,-482.5 1239.5,-476.5 1245.5,-470.5 1251.5,-470.5"/>
<text text-anchor="middle" x="1358" y="-547.3" font-family="Times,serif" font-size="14.00">type = 3 (ID)</text>
<polyline fill="none" stroke="black" points="1239.5,-539.5 1476.5,-539.5 "/>
<text text-anchor="middle" x="1358" y="-524.3" font-family="Times,serif" font-size="14.00">name = &#39;&#39; result &#39;&#39;</text>
<polyline fill="none" stroke="black" points="1239.5,-516.5 1476.5,-516.5 "/>
<text text-anchor="middle" x="1358" y="-501.3" font-family="Times,serif" font-size="14.00">number in name table = &#39;&#39; 23 &#39;&#39;</text>
<polyline fill="none" stroke="black" points="1239.5,-493.5 1476.5,-493.5 "/>
<text text-anchor="middle" x="1358" y="-478.3" font-family="Times,serif" font-size="14.00">id_type = LOCL</text>
</g>
<!-- node0x5030000006d0&#45;&gt;node0x503000000610 -->
<g id="edge36" class="edge">
<title>node0x5030000006d0&#45;&gt;node0x503000000610</title>
<path fill="none" stroke="black" d="M1448.84,-622.38C1436.4,-608.01 1419.62,-588.65 1403.87,-570.46"/>
<polygon fill="black" stroke="black" points="1406.4,-568.03 1397.2,-562.76 1401.1,-572.61 1406.4,-568.03"/>
</g>
<!-- node0x5030000006a0 -->
<g id="node38" class="node">
<title>node0x5030000006a0</title>
<path fill="#00ffdd" stroke="black" d="M1507,-493.5C1507,-493.5 1651,-493.5 1651,-493.5 1657,-493.5 1663,-499.5 1663,-505.5 1663,-505.5 1663,-527.5 1663,-527.5 1663,-533.5 1657,-539.5 1651,-539.5 1651,-539.5 1507,-539.5 1507,-539.5 1501,-539.5 1495,-533.5 1495,-527.5 1495,-527.5 1495,-505.5 1495,-505.5 1495,-499.5 1501,-493.5 1507,-493.5"/>
<text text-anchor="middle" x="1579" y="-524.3" font-family="Times,serif" font-size="14.00">type = 2 (OP)</text>
<polyline fill="none" stroke="black" points="1495,-516.5 1663,-516.5 "/>
<text text-anchor="middle" x="1579" y="-501.3" font-family="Times,serif" font-size="14.00">value = &#39;&#39; MUL &#39;&#39; (42)</text>
</g>
<!-- node0x5030000006d0&#45;&gt;node0x5030000006a0 -->
<g id="edge37" class="edge">
<title>node0x5030000006d0&#45;&gt;node0x5030000006a0</title>
<path fill="none" stroke="black" d="M1487.33,-622.38C1505.45,-601.65 1532.66,-570.51 1552.74,-547.55"/>
<polygon fill="black" stroke="black" points="1555.57,-549.63 1559.51,-539.79 1550.3,-545.02 1555.57,-549.63"/>
</g>
<!-- node0x5030000007f0 -->
<g id="node41" class="node">
<title>node0x5030000007f0</title>
<path fill="#00ffdd" stroke="black" d="M1830.5,-493.5C1830.5,-493.5 1951.5,-493.5 1951.5,-493.5 1957.5,-493.5 1963.5,-499.5 1963.5,-505.5 1963.5,-505.5 1963.5,-527.5 1963.5,-527.5 1963.5,-533.5 1957.5,-539.5 1951.5,-539.5 1951.5,-539.5 1830.5,-539.5 1830.5,-539.5 1824.5,-539.5 1818.5,-533.5 1818.5,-527.5 1818.5,-527.5 1818.5,-505.5 1818.5,-505.5 1818.5,-499.5 1824.5,-493.5 1830.5,-493.5"/>
<text text-anchor="middle" x="1891" y="-524.3" font-family="Times,serif" font-size="14.00">type = 2 (OP)</text>
<polyline fill="none" stroke="black" points="1818.5,-516.5 1963.5,-516.5 "/>
<text text-anchor="middle" x="1891" y="-501.3" font-family="Times,serif" font-size="14.00">value = &#39;&#39; = &#39;&#39; (61)</text>
</g>
<!-- node0x503000000820&#45;&gt;node0x5030000007f0 -->
<g id="edge40" class="edge">
<title>node0x503000000820&#45;&gt;node0x5030000007f0</title>
<path fill="none" stroke="black" d="M1891,-622.38C1891,-602.38 1891,-572.68 1891,-549.98"/>
<polygon fill="black" stroke="black" points="1894.5,-549.79 1891,-539.79 1887.5,-549.79 1894.5,-549.79"/>
</g>
<!-- node0x503000000910 -->
<g id="node42" class="node">
<title>node0x503000000910</title>
<path fill="#e0e0e0" stroke="black" d="M2179.5,-493.5C2179.5,-493.5 2352.5,-493.5 2352.5,-493.5 2358.5,-493.5 2364.5,-499.5 2364.5,-505.5 2364.5,-505.5 2364.5,-527.5 2364.5,-527.5 2364.5,-533.5 2358.5,-539.5 2352.5,-539.5 2352.5,-539.5 2179.5,-539.5 2179.5,-539.5 2173.5,-539.5 2167.5,-533.5 2167.5,-527.5 2167.5,-527.5 2167.5,-505.5 2167.5,-505.5 2167.5,-499.5 2173.5,-493.5 2179.5,-493.5"/>
<text text-anchor="middle" x="2266" y="-524.3" font-family="Times,serif" font-size="14.00">type = 2 (OP)</text>
<polyline fill="none" stroke="black" points="2167.5,-516.5 2364.5,-516.5 "/>
<text text-anchor="middle" x="2266" y="-501.3" font-family="Times,serif" font-size="14.00">value = &#39;&#39; SHUTUP &#39;&#39; (59)</text>
</g>
<!-- node0x503000000820&#45;&gt;node0x503000000910 -->
<g id="edge41" class="edge">
<title>node0x503000000820&#45;&gt;node0x503000000910</title>
<path fill="none" stroke="black" d="M1956.32,-622.38C2021.72,-600.23 2122.25,-566.18 2190.91,-542.93"/>
<polygon fill="black" stroke="black" points="2192.45,-546.1 2200.8,-539.58 2190.21,-539.47 2192.45,-546.1"/>
</g>
<!-- node0x503000000640 -->
<g id="node39" class="node">
<title>node0x503000000640</title>
<path fill="#ff5050" stroke="black" d="M1270.5,-341.5C1270.5,-341.5 1483.5,-341.5 1483.5,-341.5 1489.5,-341.5 1495.5,-347.5 1495.5,-353.5 1495.5,-353.5 1495.5,-421.5 1495.5,-421.5 1495.5,-427.5 1489.5,-433.5 1483.5,-433.5 1483.5,-433.5 1270.5,-433.5 1270.5,-433.5 1264.5,-433.5 1258.5,-427.5 1258.5,-421.5 1258.5,-421.5 1258.5,-353.5 1258.5,-353.5 1258.5,-347.5 1264.5,-341.5 1270.5,-341.5"/>
<text text-anchor="middle" x="1377" y="-418.3" font-family="Times,serif" font-size="14.00">type = 3 (ID)</text>
<polyline fill="none" stroke="black" points="1258.5,-410.5 1495.5,-410.5 "/>
<text text-anchor="middle" x="1377" y="-395.3" font-family="Times,serif" font-size="14.00">name = &#39;&#39; result &#39;&#39;</text>
<polyline fill="none" stroke="black" points="1258.5,-387.5 1495.5,-387.5 "/>
<text text-anchor="middle" x="1377" y="-372.3" font-family="Times,serif" font-size="14.00">number in name table = &#39;&#39; 23 &#39;&#39;</text>
<polyline fill="none" stroke="black" points="1258.5,-364.5 1495.5,-364.5 "/>
<text text-anchor="middle" x="1377" y="-349.3" font-family="Times,serif" font-size="14.00">id_type = LOCL</text>
</g>
<!-- node0x5030000006a0&#45;&gt;node0x503000000640 -->
<g id="edge38" class="edge">
<title>node0x5030000006a0&#45;&gt;node0x503000000640</title>
<path fill="none" stroke="black" d="M1543.81,-493.38C1520.05,-478.44 1487.67,-458.08 1457.77,-439.28"/>
<polygon fill="black" stroke="black" points="1459.32,-436.12 1448.99,-433.76 1455.59,-442.05 1459.32,-436.12"/>
</g>
<!-- node0x503000000670 -->
<g id="node40" class="node">
<title>node0x503000000670</title>
<path fill="#ffd700" stroke="black" d="M1525.5,-364.5C1525.5,-364.5 1632.5,-364.5 1632.5,-364.5 1638.5,-364.5 1644.5,-370.5 1644.5,-376.5 1644.5,-376.5 1644.5,-398.5 1644.5,-398.5 1644.5,-404.5 1638.5,-410.5 1632.5,-410.5 1632.5,-410.5 1525.5,-410.5 1525.5,-410.5 1519.5,-410.5 1513.5,-404.5 1513.5,-398.5 1513.5,-398.5 1513.5,-376.5 1513.5,-376.5 1513.5,-370.5 1519.5,-364.5 1525.5,-364.5"/>
<text text-anchor="middle" x="1579" y="-395.3" font-family="Times,serif" font-size="14.00">type = 1 (NUM)</text>
<polyline fill="none" stroke="black" points="1513.5,-387.5 1644.5,-387.5 "/>
<text text-anchor="middle" x="1579" y="-372.3" font-family="Times,serif" font-size="14.00">value = &#39;&#39; 1 &#39;&#39;</text>
</g>
<!-- node0x5030000006a0&#45;&gt;node0x503000000670 -->
<g id="edge39" class="edge">
<title>node0x5030000006a0&#45;&gt;node0x503000000670</title>
<path fill="none" stroke="black" d="M1579,-493.38C1579,-473.38 1579,-443.68 1579,-420.98"/>
<polygon fill="black" stroke="black" points="1582.5,-420.79 1579,-410.79 1575.5,-420.79 1582.5,-420.79"/>
</g>
<!-- node0x503000000730 -->
<g id="node43" class="node">
<title>node0x503000000730</title>
<path fill="#ff5050" stroke="black" d="M1674.5,-341.5C1674.5,-341.5 1887.5,-341.5 1887.5,-341.5 1893.5,-341.5 1899.5,-347.5 1899.5,-353.5 1899.5,-353.5 1899.5,-421.5 1899.5,-421.5 1899.5,-427.5 1893.5,-433.5 1887.5,-433.5 1887.5,-433.5 1674.5,-433.5 1674.5,-433.5 1668.5,-433.5 1662.5,-427.5 1662.5,-421.5 1662.5,-421.5 1662.5,-353.5 1662.5,-353.5 1662.5,-347.5 1668.5,-341.5 1674.5,-341.5"/>
<text text-anchor="middle" x="1781" y="-418.3" font-family="Times,serif" font-size="14.00">type = 3 (ID)</text>
<polyline fill="none" stroke="black" points="1662.5,-410.5 1899.5,-410.5 "/>
<text text-anchor="middle" x="1781" y="-395.3" font-family="Times,serif" font-size="14.00">name = &#39;&#39; old &#39;&#39;</text>
<polyline fill="none" stroke="black" points="1662.5,-387.5 1899.5,-387.5 "/>
<text text-anchor="middle" x="1781" y="-372.3" font-family="Times,serif" font-size="14.00">number in name table = &#39;&#39; 24 &#39;&#39;</text>
<polyline fill="none" stroke="black" points="1662.5,-364.5 1899.5,-364.5 "/>
<text text-anchor="middle" x="1781" y="-349.3" font-family="Times,serif" font-size="14.00">id_type = LOCL</text>
</g>
<!-- node0x5030000007f0&#45;&gt;node0x503000000730 -->
<g id="edge42" class="edge">
<title>node0x5030000007f0&#45;&gt;node0x503000000730</title>
<path fill="none" stroke="black" d="M1871.84,-493.38C1859.4,-479.01 1842.62,-459.65 1826.87,-441.46"/>
<polygon fill="black" stroke="black" points="1829.4,-439.03 1820.2,-433.76 1824.1,-443.61 1829.4,-439.03"/>
</g>
<!-- node0x5030000007c0 -->
<g id="node44" class="node">
<title>node0x5030000007c0</title>
<path fill="#00ffdd" stroke="black" d="M1930,-364.5C1930,-364.5 2074,-364.5 2074,-364.5 2080,-364.5 2086,-370.5 2086,-376.5 2086,-376.5 2086,-398.5 2086,-398.5 2086,-404.5 2080,-410.5 2074,-410.5 2074,-410.5 1930,-410.5 1930,-410.5 1924,-410.5 1918,-404.5 1918,-398.5 1918,-398.5 1918,-376.5 1918,-376.5 1918,-370.5 1924,-364.5 1930,-364.5"/>
<text text-anchor="middle" x="2002" y="-395.3" font-family="Times,serif" font-size="14.00">type = 2 (OP)</text>
<polyline fill="none" stroke="black" points="1918,-387.5 2086,-387.5 "/>
<text text-anchor="middle" x="2002" y="-372.3" font-family="Times,serif" font-size="14.00">value = &#39;&#39; MUL &#39;&#39; (42)</text>
</g>
<!-- node0x5030000007f0&#45;&gt;node0x5030000007c0 -->
<g id="edge43" class="edge">
<title>node0x5030000007f0&#45;&gt;node0x5030000007c0</title>
<path fill="none" stroke="black" d="M1910.33,-493.38C1928.45,-472.65 1955.66,-441.51 1975.74,-418.55"/>
<polygon fill="black" stroke="black" points="1978.57,-420.63 1982.51,-410.79 1973.3,-416.02 1978.57,-420.63"/>
</g>
<!-- node0x5030000008e0 -->
<g id="node47" class="node">
<title>node0x5030000008e0</title>
<path fill="#00ffdd" stroke="black" d="M2205.5,-364.5C2205.5,-364.5 2326.5,-364.5 2326.5,-364.5 2332.5,-364.5 2338.5,-370.5 2338.5,-376.5 2338.5,-376.5 2338.5,-398.5 2338.5,-398.5 2338.5,-404.5 2332.5,-410.5 2326.5,-410.5 2326.5,-410.5 2205.5,-410.5 2205.5,-410.5 2199.5,-410.5 2193.5,-404.5 2193.5,-398.5 2193.5,-398.5 2193.5,-376.5 2193.5,-376.5 2193.5,-370.5 2199.5,-364.5 2205.5,-364.5"/>
<text text-anchor="middle" x="2266" y="-395.3" font-family="Times,serif" font-size="14.00">type = 2 (OP)</text>
<polyline fill="none" stroke="black" points="2193.5,-387.5 2338.5,-387.5 "/>
<text text-anchor="middle" x="2266" y="-372.3" font-family="Times,serif" font-size="14.00">value = &#39;&#39; = &#39;&#39; (61)</text>
</g>
<!-- node0x503000000910&#45;&gt;node0x5030000008e0 -->
<g id="edge46" class="edge">
<title>node0x503000000910&#45;&gt;node0x5030000008e0</title>
<path fill="none" stroke="black" d="M2266,-493.38C2266,-473.38 2266,-443.68 2266,-420.98"/>
<polygon fill="black" stroke="black" points="2269.5,-420.79 2266,-410.79 2262.5,-420.79 2269.5,-420.79"/>
</g>
<!-- node0x503000000a30 -->
<g id="node48" class="node">
<title>node0x503000000a30</title>
<path fill="#e0e0e0" stroke="black" d="M2493.5,-364.5C2493.5,-364.5 2666.5,-364.5 2666.5,-364.5 2672.5,-364.5 2678.5,-370.5 2678.5,-376.5 2678.5,-376.5 2678.5,-398.5 2678.5,-398.5 2678.5,-404.5 2672.5,-410.5 2666.5,-410.5 2666.5,-410.5 2493.5,-410.5 2493.5,-410.5 2487.5,-410.5 2481.5,-404.5 2481.5,-398.5 2481.5,-398.5 2481.5,-376.5 2481.5,-376.5 2481.5,-370.5 2487.5,-364.5 2493.5,-364.5"/>
<text text-anchor="middle" x="2580" y="-395.3" font-family="Times,serif" font-size="14.00">type = 2 (OP)</text>
<polyline fill="none" stroke="black" points="2481.5,-387.5 2678.5,-387.5 "/>
<text text-anchor="middle" x="2580" y="-372.3" font-family="Times,serif" font-size="14.00">value = &#39;&#39; SHUTUP &#39;&#39; (59)</text>
</g>
<!-- node0x503000000910&#45;&gt;node0x503000000a30 -->
<g id="edge47" class="edge">
<title>node0x503000000910&#45;&gt;node0x503000000a30</title>
<path fill="none" stroke="black" d="M2320.69,-493.38C2375.12,-471.36 2458.6,-437.6 2516.06,-414.36"/>
<polygon fill="black" stroke="black" points="2517.45,-417.58 2525.41,-410.58 2514.82,-411.09 2517.45,-417.58"/>
</g>
<!-- node0x503000000760 -->
<g id="node45" class="node">
<title>node0x503000000760</title>
<path fill="#ffd700" stroke="black" d="M1799.5,-235.5C1799.5,-235.5 1906.5,-235.5 1906.5,-235.5 1912.5,-235.5 1918.5,-241.5 1918.5,-247.5 1918.5,-247.5 1918.5,-269.5 1918.5,-269.5 1918.5,-275.5 1912.5,-281.5 1906.5,-281.5 1906.5,-281.5 1799.5,-281.5 1799.5,-281.5 1793.5,-281.5 1787.5,-275.5 1787.5,-269.5 1787.5,-269.5 1787.5,-247.5 1787.5,-247.5 1787.5,-241.5 1793.5,-235.5 1799.5,-235.5"/>
<text text-anchor="middle" x="1853" y="-266.3" font-family="Times,serif" font-size="14.00">type = 1 (NUM)</text>
<polyline fill="none" stroke="black" points="1787.5,-258.5 1918.5,-258.5 "/>
<text text-anchor="middle" x="1853" y="-243.3" font-family="Times,serif" font-size="14.00">value = &#39;&#39; 5 &#39;&#39;</text>
</g>
<!-- node0x5030000007c0&#45;&gt;node0x503000000760 -->
<g id="edge44" class="edge">
<title>node0x5030000007c0&#45;&gt;node0x503000000760</title>
<path fill="none" stroke="black" d="M1976.05,-364.38C1951.23,-343.23 1913.69,-311.23 1886.6,-288.14"/>
<polygon fill="black" stroke="black" points="1888.79,-285.4 1878.91,-281.58 1884.25,-290.73 1888.79,-285.4"/>
</g>
<!-- node0x503000000790 -->
<g id="node46" class="node">
<title>node0x503000000790</title>
<path fill="#ffd700" stroke="black" d="M1948.5,-235.5C1948.5,-235.5 2055.5,-235.5 2055.5,-235.5 2061.5,-235.5 2067.5,-241.5 2067.5,-247.5 2067.5,-247.5 2067.5,-269.5 2067.5,-269.5 2067.5,-275.5 2061.5,-281.5 2055.5,-281.5 2055.5,-281.5 1948.5,-281.5 1948.5,-281.5 1942.5,-281.5 1936.5,-275.5 1936.5,-269.5 1936.5,-269.5 1936.5,-247.5 1936.5,-247.5 1936.5,-241.5 1942.5,-235.5 1948.5,-235.5"/>
<text text-anchor="middle" x="2002" y="-266.3" font-family="Times,serif" font-size="14.00">type = 1 (NUM)</text>
<polyline fill="none" stroke="black" points="1936.5,-258.5 2067.5,-258.5 "/>
<text text-anchor="middle" x="2002" y="-243.3" font-family="Times,serif" font-size="14.00">value = &#39;&#39; 5 &#39;&#39;</text>
</g>
<!-- node0x5030000007c0&#45;&gt;node0x503000000790 -->
<g id="edge45" class="edge">
<title>node0x5030000007c0&#45;&gt;node0x503000000790</title>
<path fill="none" stroke="black" d="M2002,-364.38C2002,-344.38 2002,-314.68 2002,-291.98"/>
<polygon fill="black" stroke="black" points="2005.5,-291.79 2002,-281.79 1998.5,-291.79 2005.5,-291.79"/>
</g>
<!-- node0x503000000850 -->
<g id="node49" class="node">
<title>node0x503000000850</title>
<path fill="#ff5050" stroke="black" d="M2097.5,-212.5C2097.5,-212.5 2310.5,-212.5 2310.5,-212.5 2316.5,-212.5 2322.5,-218.5 2322.5,-224.5 2322.5,-224.5 2322.5,-292.5 2322.5,-292.5 2322.5,-298.5 2316.5,-304.5 2310.5,-304.5 2310.5,-304.5 2097.5,-304.5 2097.5,-304.5 2091.5,-304.5 2085.5,-298.5 2085.5,-292.5 2085.5,-292.5 2085.5,-224.5 2085.5,-224.5 2085.5,-218.5 2091.5,-212.5 2097.5,-212.5"/>
<text text-anchor="middle" x="2204" y="-289.3" font-family="Times,serif" font-size="14.00">type = 3 (ID)</text>
<polyline fill="none" stroke="black" points="2085.5,-281.5 2322.5,-281.5 "/>
<text text-anchor="middle" x="2204" y="-266.3" font-family="Times,serif" font-size="14.00">name = &#39;&#39; old &#39;&#39;</text>
<polyline fill="none" stroke="black" points="2085.5,-258.5 2322.5,-258.5 "/>
<text text-anchor="middle" x="2204" y="-243.3" font-family="Times,serif" font-size="14.00">number in name table = &#39;&#39; 24 &#39;&#39;</text>
<polyline fill="none" stroke="black" points="2085.5,-235.5 2322.5,-235.5 "/>
<text text-anchor="middle" x="2204" y="-220.3" font-family="Times,serif" font-size="14.00">id_type = LOCL</text>
</g>
<!-- node0x5030000008e0&#45;&gt;node0x503000000850 -->
<g id="edge48" class="edge">
<title>node0x5030000008e0&#45;&gt;node0x503000000850</title>
<path fill="none" stroke="black" d="M2255.2,-364.38C2248.38,-350.4 2239.24,-331.68 2230.57,-313.93"/>
<polygon fill="black" stroke="black" points="2233.63,-312.21 2226.1,-304.76 2227.34,-315.28 2233.63,-312.21"/>
</g>
<!-- node0x5030000008b0 -->
<g id="node50" class="node">
<title>node0x5030000008b0</title>
<path fill="#00ffdd" stroke="black" d="M2352.5,-235.5C2352.5,-235.5 2501.5,-235.5 2501.5,-235.5 2507.5,-235.5 2513.5,-241.5 2513.5,-247.5 2513.5,-247.5 2513.5,-269.5 2513.5,-269.5 2513.5,-275.5 2507.5,-281.5 2501.5,-281.5 2501.5,-281.5 2352.5,-281.5 2352.5,-281.5 2346.5,-281.5 2340.5,-275.5 2340.5,-269.5 2340.5,-269.5 2340.5,-247.5 2340.5,-247.5 2340.5,-241.5 2346.5,-235.5 2352.5,-235.5"/>
<text text-anchor="middle" x="2427" y="-266.3" font-family="Times,serif" font-size="14.00">type = 2 (OP)</text>
<polyline fill="none" stroke="black" points="2340.5,-258.5 2513.5,-258.5 "/>
<text text-anchor="middle" x="2427" y="-243.3" font-family="Times,serif" font-size="14.00">value = &#39;&#39; SQRT &#39;&#39; (83)</text>
</g>
<!-- node0x5030000008e0&#45;&gt;node0x5030000008b0 -->
<g id="edge49" class="edge">
<title>node0x5030000008e0&#45;&gt;node0x5030000008b0</title>
<path fill="none" stroke="black" d="M2294.04,-364.38C2320.97,-343.14 2361.77,-310.95 2391.07,-287.84"/>
<polygon fill="black" stroke="black" points="2393.32,-290.52 2399.01,-281.58 2388.99,-285.03 2393.32,-290.52"/>
</g>
<!-- node0x503000000a00 -->
<g id="node52" class="node">
<title>node0x503000000a00</title>
<path fill="#00ffdd" stroke="black" d="M2582.5,-235.5C2582.5,-235.5 2703.5,-235.5 2703.5,-235.5 2709.5,-235.5 2715.5,-241.5 2715.5,-247.5 2715.5,-247.5 2715.5,-269.5 2715.5,-269.5 2715.5,-275.5 2709.5,-281.5 2703.5,-281.5 2703.5,-281.5 2582.5,-281.5 2582.5,-281.5 2576.5,-281.5 2570.5,-275.5 2570.5,-269.5 2570.5,-269.5 2570.5,-247.5 2570.5,-247.5 2570.5,-241.5 2576.5,-235.5 2582.5,-235.5"/>
<text text-anchor="middle" x="2643" y="-266.3" font-family="Times,serif" font-size="14.00">type = 2 (OP)</text>
<polyline fill="none" stroke="black" points="2570.5,-258.5 2715.5,-258.5 "/>
<text text-anchor="middle" x="2643" y="-243.3" font-family="Times,serif" font-size="14.00">value = &#39;&#39; = &#39;&#39; (61)</text>
</g>
<!-- node0x503000000a30&#45;&gt;node0x503000000a00 -->
<g id="edge51" class="edge">
<title>node0x503000000a30&#45;&gt;node0x503000000a00</title>
<path fill="none" stroke="black" d="M2590.97,-364.38C2601.07,-344.02 2616.16,-313.6 2627.49,-290.76"/>
<polygon fill="black" stroke="black" points="2630.63,-292.31 2631.94,-281.79 2624.36,-289.2 2630.63,-292.31"/>
</g>
<!-- node0x503000000880 -->
<g id="node51" class="node">
<title>node0x503000000880</title>
<path fill="#ff5050" stroke="black" d="M2281.5,-83.5C2281.5,-83.5 2494.5,-83.5 2494.5,-83.5 2500.5,-83.5 2506.5,-89.5 2506.5,-95.5 2506.5,-95.5 2506.5,-163.5 2506.5,-163.5 2506.5,-169.5 2500.5,-175.5 2494.5,-175.5 2494.5,-175.5 2281.5,-175.5 2281.5,-175.5 2275.5,-175.5 2269.5,-169.5 2269.5,-163.5 2269.5,-163.5 2269.5,-95.5 2269.5,-95.5 2269.5,-89.5 2275.5,-83.5 2281.5,-83.5"/>
<text text-anchor="middle" x="2388" y="-160.3" font-family="Times,serif" font-size="14.00">type = 3 (ID)</text>
<polyline fill="none" stroke="black" points="2269.5,-152.5 2506.5,-152.5 "/>
<text text-anchor="middle" x="2388" y="-137.3" font-family="Times,serif" font-size="14.00">name = &#39;&#39; old &#39;&#39;</text>
<polyline fill="none" stroke="black" points="2269.5,-129.5 2506.5,-129.5 "/>
<text text-anchor="middle" x="2388" y="-114.3" font-family="Times,serif" font-size="14.00">number in name table = &#39;&#39; 24 &#39;&#39;</text>
<polyline fill="none" stroke="black" points="2269.5,-106.5 2506.5,-106.5 "/>
<text text-anchor="middle" x="2388" y="-91.3" font-family="Times,serif" font-size="14.00">id_type = LOCL</text>
</g>
<!-- node0x5030000008b0&#45;&gt;node0x503000000880 -->
<g id="edge50" class="edge">
<title>node0x5030000008b0&#45;&gt;node0x503000000880</title>
<path fill="none" stroke="black" d="M2420.21,-235.38C2415.95,-221.53 2410.27,-203.02 2404.86,-185.42"/>
<polygon fill="black" stroke="black" points="2408.18,-184.29 2401.9,-175.76 2401.49,-186.35 2408.18,-184.29"/>
</g>
<!-- node0x503000000940 -->
<g id="node53" class="node">
<title>node0x503000000940</title>
<path fill="#ff5050" stroke="black" d="M2536.5,-83.5C2536.5,-83.5 2749.5,-83.5 2749.5,-83.5 2755.5,-83.5 2761.5,-89.5 2761.5,-95.5 2761.5,-95.5 2761.5,-163.5 2761.5,-163.5 2761.5,-169.5 2755.5,-175.5 2749.5,-175.5 2749.5,-175.5 2536.5,-175.5 2536.5,-175.5 2530.5,-175.5 2524.5,-169.5 2524.5,-163.5 2524.5,-163.5 2524.5,-95.5 2524.5,-95.5 2524.5,-89.5 2530.5,-83.5 2536.5,-83.5"/>
<text text-anchor="middle" x="2643" y="-160.3" font-family="Times,serif" font-size="14.00">type = 3 (ID)</text>
<polyline fill="none" stroke="black" points="2524.5,-152.5 2761.5,-152.5 "/>
<text text-anchor="middle" x="2643" y="-137.3" font-family="Times,serif" font-size="14.00">name = &#39;&#39; result &#39;&#39;</text>
<polyline fill="none" stroke="black" points="2524.5,-129.5 2761.5,-129.5 "/>
<text text-anchor="middle" x="2643" y="-114.3" font-family="Times,serif" font-size="14.00">number in name table = &#39;&#39; 23 &#39;&#39;</text>
<polyline fill="none" stroke="black" points="2524.5,-106.5 2761.5,-106.5 "/>
<text text-anchor="middle" x="2643" y="-91.3" font-family="Times,serif" font-size="14.00">id_type = LOCL</text>
</g>
<!-- node0x503000000a00&#45;&gt;node0x503000000940 -->
<g id="edge52" class="edge">
<title>node0x503000000a00&#45;&gt;node0x503000000940</title>
<path fill="none" stroke="black" d="M2643,-235.38C2643,-221.66 2643,-203.37 2643,-185.91"/>
<polygon fill="black" stroke="black" points="2646.5,-185.76 2643,-175.76 2639.5,-185.76 2646.5,-185.76"/>
</g>
<!-- node0x5030000009d0 -->
<g id="node54" class="node">
<title>node0x5030000009d0</title>
<path fill="#f069f5" stroke="black" d="M2791.5,-106.5C2791.5,-106.5 2938.5,-106.5 2938.5,-106.5 2944.5,-106.5 2950.5,-112.5 2950.5,-118.5 2950.5,-118.5 2950.5,-140.5 2950.5,-140.5 2950.5,-146.5 2944.5,-152.5 2938.5,-152.5 2938.5,-152.5 2791.5,-152.5 2791.5,-152.5 2785.5,-152.5 2779.5,-146.5 2779.5,-140.5 2779.5,-140.5 2779.5,-118.5 2779.5,-118.5 2779.5,-112.5 2785.5,-106.5 2791.5,-106.5"/>
<text text-anchor="middle" x="2865" y="-137.3" font-family="Times,serif" font-size="14.00">type = 4 (FUNC)</text>
<polyline fill="none" stroke="black" points="2779.5,-129.5 2950.5,-129.5 "/>
<text text-anchor="middle" x="2865" y="-114.3" font-family="Times,serif" font-size="14.00">value = &#39;&#39; CALL &#39;&#39; (67)</text>
</g>
<!-- node0x503000000a00&#45;&gt;node0x5030000009d0 -->
<g id="edge53" class="edge">
<title>node0x503000000a00&#45;&gt;node0x5030000009d0</title>
<path fill="none" stroke="black" d="M2681.67,-235.38C2719.44,-213.77 2776.99,-180.85 2817.51,-157.66"/>
<polygon fill="black" stroke="black" points="2819.46,-160.58 2826.4,-152.58 2815.98,-154.51 2819.46,-160.58"/>
</g>
<!-- node0x503000000970 -->
<g id="node55" class="node">
<title>node0x503000000970</title>
<path fill="#2ee31e" stroke="black" d="M2703.5,-0.5C2703.5,-0.5 2852.5,-0.5 2852.5,-0.5 2858.5,-0.5 2864.5,-6.5 2864.5,-12.5 2864.5,-12.5 2864.5,-34.5 2864.5,-34.5 2864.5,-40.5 2858.5,-46.5 2852.5,-46.5 2852.5,-46.5 2703.5,-46.5 2703.5,-46.5 2697.5,-46.5 2691.5,-40.5 2691.5,-34.5 2691.5,-34.5 2691.5,-12.5 2691.5,-12.5 2691.5,-6.5 2697.5,-0.5 2703.5,-0.5"/>
<text text-anchor="middle" x="2778" y="-31.3" font-family="Times,serif" font-size="14.00">type = 4 (FUNC)</text>
<polyline fill="none" stroke="black" points="2691.5,-23.5 2864.5,-23.5 "/>
<text text-anchor="middle" x="2778" y="-8.3" font-family="Times,serif" font-size="14.00">value = &#39;&#39; printf &#39;&#39; (25)</text>
</g>
<!-- node0x5030000009d0&#45;&gt;node0x503000000970 -->
<g id="edge54" class="edge">
<title>node0x5030000009d0&#45;&gt;node0x503000000970</title>
<path fill="none" stroke="black" d="M2846.55,-106.44C2833.86,-91.28 2816.86,-70.95 2802.96,-54.34"/>
<polygon fill="black" stroke="black" points="2805.52,-51.95 2796.42,-46.52 2800.16,-56.44 2805.52,-51.95"/>
</g>
<!-- node0x5030000009a0 -->
<g id="node56" class="node">
<title>node0x5030000009a0</title>
<path fill="#feaadf" stroke="black" d="M2894.5,-0.5C2894.5,-0.5 3007.5,-0.5 3007.5,-0.5 3013.5,-0.5 3019.5,-6.5 3019.5,-12.5 3019.5,-12.5 3019.5,-34.5 3019.5,-34.5 3019.5,-40.5 3013.5,-46.5 3007.5,-46.5 3007.5,-46.5 2894.5,-46.5 2894.5,-46.5 2888.5,-46.5 2882.5,-40.5 2882.5,-34.5 2882.5,-34.5 2882.5,-12.5 2882.5,-12.5 2882.5,-6.5 2888.5,-0.5 2894.5,-0.5"/>
<text text-anchor="middle" x="2951" y="-31.3" font-family="Times,serif" font-size="14.00">type = 4 (FUNC)</text>
<polyline fill="none" stroke="black" points="2882.5,-23.5 3019.5,-23.5 "/>
<text text-anchor="middle" x="2951" y="-8.3" font-family="Times,serif" font-size="14.00">value = &#39;&#39; , &#39;&#39; (44)</text>
</g>
<!-- node0x5030000009d0&#45;&gt;node0x5030000009a0 -->
<g id="edge55" class="edge">
<title>node0x5030000009d0&#45;&gt;node0x5030000009a0</title>
<path fill="none" stroke="black" d="M2883.24,-106.44C2895.78,-91.28 2912.59,-70.95 2926.32,-54.34"/>
<polygon fill="black" stroke="black" points="2929.11,-56.46 2932.79,-46.52 2923.72,-52 2929.11,-56.46"/>
</g>
</g>
</svg>
