<?xml version="1.0" encoding="UTF-8" standalone="no"?>
<!DOCTYPE svg PUBLIC "-//W3C//DTD SVG 1.1//EN"
 "http://www.w3.org/Graphics/SVG/1.1/DTD/svg11.dtd">
<!-- Generated by graphviz version 13.1.0 (0)
 -->
<!-- Pages: 1 -->
<svg width="382pt" height="285pt"
 viewBox="0.00 0.00 382.00 285.00" xmlns="http://www.w3.org/2000/svg" xmlns:xlink="http://www.w3.org/1999/xlink">
<g id="graph0" class="graph" transform="scale(1 1) rotate(0) translate(4 281)">
<!-- node0x7bfdfe5e03d0 -->
<g id="node1" class="node">
<title>node0x7bfdfe5e03d0</title>
<path fill="#f069f5" stroke="black" d="M96.62,-226C96.62,-226 243.12,-226 243.12,-226 249.12,-226 255.12,-232 255.12,-238 255.12,-238 255.12,-264.5 255.12,-264.5 255.12,-270.5 249.12,-276.5 243.12,-276.5 243.12,-276.5 96.62,-276.5 96.62,-276.5 90.62,-276.5 84.62,-270.5 84.62,-264.5 84.62,-264.5 84.62,-238 84.62,-238 84.62,-232 90.62,-226 96.62,-226"/>
<text xml:space="preserve" text-anchor="middle" x="169.88" y="-259.2" font-family="Times,serif" font-size="14.00">type = 4 (FUNC)</text>
<polyline fill="none" stroke="black" points="84.62,-251.25 255.12,-251.25"/>
<text xml:space="preserve" text-anchor="middle" x="169.88" y="-233.95" font-family="Times,serif" font-size="14.00">value = &#39;&#39; CALL &#39;&#39; (67)</text>
</g>
<!-- node0x7bfdfe5e0340 -->
<g id="node2" class="node">
<title>node0x7bfdfe5e0340</title>
<path fill="#2ee31e" stroke="black" d="M12,-138.5C12,-138.5 157.75,-138.5 157.75,-138.5 163.75,-138.5 169.75,-144.5 169.75,-150.5 169.75,-150.5 169.75,-177 169.75,-177 169.75,-183 163.75,-189 157.75,-189 157.75,-189 12,-189 12,-189 6,-189 0,-183 0,-177 0,-177 0,-150.5 0,-150.5 0,-144.5 6,-138.5 12,-138.5"/>
<text xml:space="preserve" text-anchor="middle" x="84.88" y="-171.7" font-family="Times,serif" font-size="14.00">type = 4 (FUNC)</text>
<polyline fill="none" stroke="black" points="0,-163.75 169.75,-163.75"/>
<text xml:space="preserve" text-anchor="middle" x="84.88" y="-146.45" font-family="Times,serif" font-size="14.00">value = &#39;&#39; scanf &#39;&#39; (25)</text>
</g>
<!-- node0x7bfdfe5e03d0&#45;&gt;node0x7bfdfe5e0340 -->
<g id="edge1" class="edge">
<title>node0x7bfdfe5e03d0&#45;&gt;node0x7bfdfe5e0340</title>
<path fill="none" stroke="black" d="M145.29,-225.52C136.57,-216.75 126.61,-206.73 117.34,-197.4"/>
<polygon fill="black" stroke="black" points="120,-195.12 110.47,-190.5 115.04,-200.06 120,-195.12"/>
</g>
<!-- node0x7bfdfe5e03a0 -->
<g id="node3" class="node">
<title>node0x7bfdfe5e03a0</title>
<path fill="#feaadf" stroke="black" d="M199.5,-138.5C199.5,-138.5 312.25,-138.5 312.25,-138.5 318.25,-138.5 324.25,-144.5 324.25,-150.5 324.25,-150.5 324.25,-177 324.25,-177 324.25,-183 318.25,-189 312.25,-189 312.25,-189 199.5,-189 199.5,-189 193.5,-189 187.5,-183 187.5,-177 187.5,-177 187.5,-150.5 187.5,-150.5 187.5,-144.5 193.5,-138.5 199.5,-138.5"/>
<text xml:space="preserve" text-anchor="middle" x="255.88" y="-171.7" font-family="Times,serif" font-size="14.00">type = 4 (FUNC)</text>
<polyline fill="none" stroke="black" points="187.5,-163.75 324.25,-163.75"/>
<text xml:space="preserve" text-anchor="middle" x="255.88" y="-146.45" font-family="Times,serif" font-size="14.00">value = &#39;&#39; , &#39;&#39; (44)</text>
</g>
<!-- node0x7bfdfe5e03d0&#45;&gt;node0x7bfdfe5e03a0 -->
<g id="edge2" class="edge">
<title>node0x7bfdfe5e03d0&#45;&gt;node0x7bfdfe5e03a0</title>
<path fill="none" stroke="black" d="M194.75,-225.52C203.57,-216.75 213.65,-206.73 223.03,-197.4"/>
<polygon fill="black" stroke="black" points="225.36,-200.02 229.98,-190.49 220.42,-195.06 225.36,-200.02"/>
</g>
<!-- node0x7bfdfe5e0370 -->
<g id="node4" class="node">
<title>node0x7bfdfe5e0370</title>
<path fill="#ff5050" stroke="black" d="M149.62,-0.5C149.62,-0.5 362.12,-0.5 362.12,-0.5 368.12,-0.5 374.12,-6.5 374.12,-12.5 374.12,-12.5 374.12,-89.5 374.12,-89.5 374.12,-95.5 368.12,-101.5 362.12,-101.5 362.12,-101.5 149.62,-101.5 149.62,-101.5 143.62,-101.5 137.62,-95.5 137.62,-89.5 137.62,-89.5 137.62,-12.5 137.62,-12.5 137.62,-6.5 143.62,-0.5 149.62,-0.5"/>
<text xml:space="preserve" text-anchor="middle" x="255.88" y="-84.2" font-family="Times,serif" font-size="14.00">type = 3 (ID)</text>
<polyline fill="none" stroke="black" points="137.62,-76.25 374.12,-76.25"/>
<text xml:space="preserve" text-anchor="middle" x="255.88" y="-58.95" font-family="Times,serif" font-size="14.00">name = &#39;&#39; numb &#39;&#39;</text>
<polyline fill="none" stroke="black" points="137.62,-51 374.12,-51"/>
<text xml:space="preserve" text-anchor="middle" x="255.88" y="-33.7" font-family="Times,serif" font-size="14.00">number in name table = &#39;&#39; 22 &#39;&#39;</text>
<polyline fill="none" stroke="black" points="137.62,-25.75 374.12,-25.75"/>
<text xml:space="preserve" text-anchor="middle" x="255.88" y="-8.45" font-family="Times,serif" font-size="14.00">id_type = LOCL</text>
</g>
<!-- node0x7bfdfe5e03a0&#45;&gt;node0x7bfdfe5e0370 -->
<g id="edge3" class="edge">
<title>node0x7bfdfe5e03a0&#45;&gt;node0x7bfdfe5e0370</title>
<path fill="none" stroke="black" d="M255.88,-138.17C255.88,-130.64 255.88,-122 255.88,-113.16"/>
<polygon fill="black" stroke="black" points="259.38,-113.44 255.88,-103.44 252.38,-113.44 259.38,-113.44"/>
</g>
</g>
</svg>
