<?xml version="1.0" encoding="UTF-8" standalone="no"?>
<!DOCTYPE svg PUBLIC "-//W3C//DTD SVG 1.1//EN"
 "http://www.w3.org/Graphics/SVG/1.1/DTD/svg11.dtd">
<!-- Generated by graphviz version 2.43.0 (0)
 -->
<!-- Title: %3 Pages: 1 -->
<svg width="376pt" height="267pt"
 viewBox="0.00 0.00 375.50 267.00" xmlns="http://www.w3.org/2000/svg" xmlns:xlink="http://www.w3.org/1999/xlink">
<g id="graph0" class="graph" transform="scale(1 1) rotate(0) translate(4 263)">
<title>%3</title>
<!-- node0x5030000003a0 -->
<g id="node1" class="node">
<title>node0x5030000003a0</title>
<path fill="#f069f5" stroke="black" d="M91.5,-212.5C91.5,-212.5 238.5,-212.5 238.5,-212.5 244.5,-212.5 250.5,-218.5 250.5,-224.5 250.5,-224.5 250.5,-246.5 250.5,-246.5 250.5,-252.5 244.5,-258.5 238.5,-258.5 238.5,-258.5 91.5,-258.5 91.5,-258.5 85.5,-258.5 79.5,-252.5 79.5,-246.5 79.5,-246.5 79.5,-224.5 79.5,-224.5 79.5,-218.5 85.5,-212.5 91.5,-212.5"/>
<text text-anchor="middle" x="165" y="-243.3" font-family="Times,serif" font-size="14.00">type = 4 (FUNC)</text>
<polyline fill="none" stroke="black" points="79.5,-235.5 250.5,-235.5 "/>
<text text-anchor="middle" x="165" y="-220.3" font-family="Times,serif" font-size="14.00">value = &#39;&#39; CALL &#39;&#39; (67)</text>
</g>
<!-- node0x503000000310 -->
<g id="node2" class="node">
<title>node0x503000000310</title>
<path fill="#2ee31e" stroke="black" d="M12,-129.5C12,-129.5 150,-129.5 150,-129.5 156,-129.5 162,-135.5 162,-141.5 162,-141.5 162,-163.5 162,-163.5 162,-169.5 156,-175.5 150,-175.5 150,-175.5 12,-175.5 12,-175.5 6,-175.5 0,-169.5 0,-163.5 0,-163.5 0,-141.5 0,-141.5 0,-135.5 6,-129.5 12,-129.5"/>
<text text-anchor="middle" x="81" y="-160.3" font-family="Times,serif" font-size="14.00">type = 4 (FUNC)</text>
<polyline fill="none" stroke="black" points="0,-152.5 162,-152.5 "/>
<text text-anchor="middle" x="81" y="-137.3" font-family="Times,serif" font-size="14.00">value = &#39;&#39; eval &#39;&#39; (25)</text>
</g>
<!-- node0x5030000003a0&#45;&gt;node0x503000000310 -->
<g id="edge1" class="edge">
<title>node0x5030000003a0&#45;&gt;node0x503000000310</title>
<path fill="none" stroke="black" d="M142.05,-212.37C132.51,-203.17 121.31,-192.37 111.12,-182.55"/>
<polygon fill="black" stroke="black" points="113.55,-180.03 103.93,-175.61 108.69,-185.07 113.55,-180.03"/>
</g>
<!-- node0x503000000370 -->
<g id="node3" class="node">
<title>node0x503000000370</title>
<path fill="#feaadf" stroke="black" d="M192.5,-129.5C192.5,-129.5 305.5,-129.5 305.5,-129.5 311.5,-129.5 317.5,-135.5 317.5,-141.5 317.5,-141.5 317.5,-163.5 317.5,-163.5 317.5,-169.5 311.5,-175.5 305.5,-175.5 305.5,-175.5 192.5,-175.5 192.5,-175.5 186.5,-175.5 180.5,-169.5 180.5,-163.5 180.5,-163.5 180.5,-141.5 180.5,-141.5 180.5,-135.5 186.5,-129.5 192.5,-129.5"/>
<text text-anchor="middle" x="249" y="-160.3" font-family="Times,serif" font-size="14.00">type = 4 (FUNC)</text>
<polyline fill="none" stroke="black" points="180.5,-152.5 317.5,-152.5 "/>
<text text-anchor="middle" x="249" y="-137.3" font-family="Times,serif" font-size="14.00">value = &#39;&#39; , &#39;&#39; (44)</text>
</g>
<!-- node0x5030000003a0&#45;&gt;node0x503000000370 -->
<g id="edge2" class="edge">
<title>node0x5030000003a0&#45;&gt;node0x503000000370</title>
<path fill="none" stroke="black" d="M187.95,-212.37C197.49,-203.17 208.69,-192.37 218.88,-182.55"/>
<polygon fill="black" stroke="black" points="221.31,-185.07 226.07,-175.61 216.45,-180.03 221.31,-185.07"/>
</g>
<!-- node0x503000000340 -->
<g id="node4" class="node">
<title>node0x503000000340</title>
<path fill="#ff5050" stroke="black" d="M142.5,-0.5C142.5,-0.5 355.5,-0.5 355.5,-0.5 361.5,-0.5 367.5,-6.5 367.5,-12.5 367.5,-12.5 367.5,-80.5 367.5,-80.5 367.5,-86.5 361.5,-92.5 355.5,-92.5 355.5,-92.5 142.5,-92.5 142.5,-92.5 136.5,-92.5 130.5,-86.5 130.5,-80.5 130.5,-80.5 130.5,-12.5 130.5,-12.5 130.5,-6.5 136.5,-0.5 142.5,-0.5"/>
<text text-anchor="middle" x="249" y="-77.3" font-family="Times,serif" font-size="14.00">type = 3 (ID)</text>
<polyline fill="none" stroke="black" points="130.5,-69.5 367.5,-69.5 "/>
<text text-anchor="middle" x="249" y="-54.3" font-family="Times,serif" font-size="14.00">name = &#39;&#39; dude &#39;&#39;</text>
<polyline fill="none" stroke="black" points="130.5,-46.5 367.5,-46.5 "/>
<text text-anchor="middle" x="249" y="-31.3" font-family="Times,serif" font-size="14.00">number in name table = &#39;&#39; 24 &#39;&#39;</text>
<polyline fill="none" stroke="black" points="130.5,-23.5 367.5,-23.5 "/>
<text text-anchor="middle" x="249" y="-8.3" font-family="Times,serif" font-size="14.00">id_type = LOCL</text>
</g>
<!-- node0x503000000370&#45;&gt;node0x503000000340 -->
<g id="edge3" class="edge">
<title>node0x503000000370&#45;&gt;node0x503000000340</title>
<path fill="none" stroke="black" d="M249,-129.44C249,-121.56 249,-112.29 249,-102.87"/>
<polygon fill="black" stroke="black" points="252.5,-102.64 249,-92.64 245.5,-102.64 252.5,-102.64"/>
</g>
</g>
</svg>
