<?xml version="1.0" encoding="UTF-8" standalone="no"?>
<!DOCTYPE svg PUBLIC "-//W3C//DTD SVG 1.1//EN"
 "http://www.w3.org/Graphics/SVG/1.1/DTD/svg11.dtd">
<!-- Generated by graphviz version 2.43.0 (0)
 -->
<!-- Title: %3 Pages: 1 -->
<svg width="2046pt" height="1032pt"
 viewBox="0.00 0.00 2046.00 1032.00" xmlns="http://www.w3.org/2000/svg" xmlns:xlink="http://www.w3.org/1999/xlink">
<g id="graph0" class="graph" transform="scale(1 1) rotate(0) translate(4 1028)">
<title>%3</title>
<!-- node0x5801ac1d4ae0 -->
<g id="node1" class="node">
<title>node0x5801ac1d4ae0</title>
<path fill="#a0a0a0" stroke="black" d="M804.5,-977.5C804.5,-977.5 1040.5,-977.5 1040.5,-977.5 1046.5,-977.5 1052.5,-983.5 1052.5,-989.5 1052.5,-989.5 1052.5,-1011.5 1052.5,-1011.5 1052.5,-1017.5 1046.5,-1023.5 1040.5,-1023.5 1040.5,-1023.5 804.5,-1023.5 804.5,-1023.5 798.5,-1023.5 792.5,-1017.5 792.5,-1011.5 792.5,-1011.5 792.5,-989.5 792.5,-989.5 792.5,-983.5 798.5,-977.5 804.5,-977.5"/>
<text text-anchor="middle" x="922.5" y="-1008.3" font-family="Times,serif" font-size="14.00">type = 4 (FUNC)</text>
<polyline fill="none" stroke="black" points="792.5,-1000.5 1052.5,-1000.5 "/>
<text text-anchor="middle" x="922.5" y="-985.3" font-family="Times,serif" font-size="14.00">value = &#39;&#39; NEXT FUNCTION &#39;&#39; (64)</text>
</g>
<!-- node0x5801ac1d4ab0 -->
<g id="node2" class="node">
<title>node0x5801ac1d4ab0</title>
<path fill="#755cf7" stroke="black" d="M692.5,-894.5C692.5,-894.5 892.5,-894.5 892.5,-894.5 898.5,-894.5 904.5,-900.5 904.5,-906.5 904.5,-906.5 904.5,-928.5 904.5,-928.5 904.5,-934.5 898.5,-940.5 892.5,-940.5 892.5,-940.5 692.5,-940.5 692.5,-940.5 686.5,-940.5 680.5,-934.5 680.5,-928.5 680.5,-928.5 680.5,-906.5 680.5,-906.5 680.5,-900.5 686.5,-894.5 692.5,-894.5"/>
<text text-anchor="middle" x="792.5" y="-925.3" font-family="Times,serif" font-size="14.00">type = 4 (FUNC)</text>
<polyline fill="none" stroke="black" points="680.5,-917.5 904.5,-917.5 "/>
<text text-anchor="middle" x="792.5" y="-902.3" font-family="Times,serif" font-size="14.00">value = &#39;&#39; DEFINITION &#39;&#39; (68)</text>
</g>
<!-- node0x5801ac1d4ae0&#45;&gt;node0x5801ac1d4ab0 -->
<g id="edge1" class="edge">
<title>node0x5801ac1d4ae0&#45;&gt;node0x5801ac1d4ab0</title>
<path fill="none" stroke="black" d="M886.98,-977.37C871.5,-967.72 853.19,-956.32 836.84,-946.13"/>
<polygon fill="black" stroke="black" points="838.32,-942.92 827.98,-940.61 834.62,-948.87 838.32,-942.92"/>
</g>
<!-- node0x5801ac1d4d20 -->
<g id="node3" class="node">
<title>node0x5801ac1d4d20</title>
<path fill="#a0a0a0" stroke="black" d="M1092.5,-894.5C1092.5,-894.5 1328.5,-894.5 1328.5,-894.5 1334.5,-894.5 1340.5,-900.5 1340.5,-906.5 1340.5,-906.5 1340.5,-928.5 1340.5,-928.5 1340.5,-934.5 1334.5,-940.5 1328.5,-940.5 1328.5,-940.5 1092.5,-940.5 1092.5,-940.5 1086.5,-940.5 1080.5,-934.5 1080.5,-928.5 1080.5,-928.5 1080.5,-906.5 1080.5,-906.5 1080.5,-900.5 1086.5,-894.5 1092.5,-894.5"/>
<text text-anchor="middle" x="1210.5" y="-925.3" font-family="Times,serif" font-size="14.00">type = 4 (FUNC)</text>
<polyline fill="none" stroke="black" points="1080.5,-917.5 1340.5,-917.5 "/>
<text text-anchor="middle" x="1210.5" y="-902.3" font-family="Times,serif" font-size="14.00">value = &#39;&#39; NEXT FUNCTION &#39;&#39; (64)</text>
</g>
<!-- node0x5801ac1d4ae0&#45;&gt;node0x5801ac1d4d20 -->
<g id="edge2" class="edge">
<title>node0x5801ac1d4ae0&#45;&gt;node0x5801ac1d4d20</title>
<path fill="none" stroke="black" d="M1000.82,-977.47C1038.44,-966.89 1083.67,-954.17 1122.48,-943.26"/>
<polygon fill="black" stroke="black" points="1123.52,-946.6 1132.2,-940.52 1121.62,-939.86 1123.52,-946.6"/>
</g>
<!-- node0x5801ac1d4750 -->
<g id="node4" class="node">
<title>node0x5801ac1d4750</title>
<path fill="#f069f5" stroke="black" d="M250,-811.5C250,-811.5 397,-811.5 397,-811.5 403,-811.5 409,-817.5 409,-823.5 409,-823.5 409,-845.5 409,-845.5 409,-851.5 403,-857.5 397,-857.5 397,-857.5 250,-857.5 250,-857.5 244,-857.5 238,-851.5 238,-845.5 238,-845.5 238,-823.5 238,-823.5 238,-817.5 244,-811.5 250,-811.5"/>
<text text-anchor="middle" x="323.5" y="-842.3" font-family="Times,serif" font-size="14.00">type = 4 (FUNC)</text>
<polyline fill="none" stroke="black" points="238,-834.5 409,-834.5 "/>
<text text-anchor="middle" x="323.5" y="-819.3" font-family="Times,serif" font-size="14.00">value = &#39;&#39; CALL &#39;&#39; (67)</text>
</g>
<!-- node0x5801ac1d4ab0&#45;&gt;node0x5801ac1d4750 -->
<g id="edge3" class="edge">
<title>node0x5801ac1d4ab0&#45;&gt;node0x5801ac1d4750</title>
<path fill="none" stroke="black" d="M680.46,-897.15C600.85,-883.4 495.06,-865.13 419.35,-852.05"/>
<polygon fill="black" stroke="black" points="419.79,-848.58 409.34,-850.33 418.6,-855.48 419.79,-848.58"/>
</g>
<!-- node0x5801ac1d4810 -->
<g id="node5" class="node">
<title>node0x5801ac1d4810</title>
<path fill="#e0e0e0" stroke="black" d="M706,-811.5C706,-811.5 879,-811.5 879,-811.5 885,-811.5 891,-817.5 891,-823.5 891,-823.5 891,-845.5 891,-845.5 891,-851.5 885,-857.5 879,-857.5 879,-857.5 706,-857.5 706,-857.5 700,-857.5 694,-851.5 694,-845.5 694,-845.5 694,-823.5 694,-823.5 694,-817.5 700,-811.5 706,-811.5"/>
<text text-anchor="middle" x="792.5" y="-842.3" font-family="Times,serif" font-size="14.00">type = 2 (OP)</text>
<polyline fill="none" stroke="black" points="694,-834.5 891,-834.5 "/>
<text text-anchor="middle" x="792.5" y="-819.3" font-family="Times,serif" font-size="14.00">value = &#39;&#39; SHUTUP &#39;&#39; (59)</text>
</g>
<!-- node0x5801ac1d4ab0&#45;&gt;node0x5801ac1d4810 -->
<g id="edge4" class="edge">
<title>node0x5801ac1d4ab0&#45;&gt;node0x5801ac1d4810</title>
<path fill="none" stroke="black" d="M792.5,-894.37C792.5,-886.15 792.5,-876.66 792.5,-867.73"/>
<polygon fill="black" stroke="black" points="796,-867.61 792.5,-857.61 789,-867.61 796,-867.61"/>
</g>
<!-- node0x5801ac1d4cf0 -->
<g id="node27" class="node">
<title>node0x5801ac1d4cf0</title>
<path fill="#755cf7" stroke="black" d="M1216.5,-811.5C1216.5,-811.5 1416.5,-811.5 1416.5,-811.5 1422.5,-811.5 1428.5,-817.5 1428.5,-823.5 1428.5,-823.5 1428.5,-845.5 1428.5,-845.5 1428.5,-851.5 1422.5,-857.5 1416.5,-857.5 1416.5,-857.5 1216.5,-857.5 1216.5,-857.5 1210.5,-857.5 1204.5,-851.5 1204.5,-845.5 1204.5,-845.5 1204.5,-823.5 1204.5,-823.5 1204.5,-817.5 1210.5,-811.5 1216.5,-811.5"/>
<text text-anchor="middle" x="1316.5" y="-842.3" font-family="Times,serif" font-size="14.00">type = 4 (FUNC)</text>
<polyline fill="none" stroke="black" points="1204.5,-834.5 1428.5,-834.5 "/>
<text text-anchor="middle" x="1316.5" y="-819.3" font-family="Times,serif" font-size="14.00">value = &#39;&#39; DEFINITION &#39;&#39; (68)</text>
</g>
<!-- node0x5801ac1d4d20&#45;&gt;node0x5801ac1d4cf0 -->
<g id="edge26" class="edge">
<title>node0x5801ac1d4d20&#45;&gt;node0x5801ac1d4cf0</title>
<path fill="none" stroke="black" d="M1239.46,-894.37C1251.85,-884.9 1266.46,-873.74 1279.61,-863.69"/>
<polygon fill="black" stroke="black" points="1281.75,-866.46 1287.57,-857.61 1277.5,-860.9 1281.75,-866.46"/>
</g>
<!-- node0x5801ac1d4660 -->
<g id="node6" class="node">
<title>node0x5801ac1d4660</title>
<path fill="#2ee31e" stroke="black" d="M82.5,-728.5C82.5,-728.5 224.5,-728.5 224.5,-728.5 230.5,-728.5 236.5,-734.5 236.5,-740.5 236.5,-740.5 236.5,-762.5 236.5,-762.5 236.5,-768.5 230.5,-774.5 224.5,-774.5 224.5,-774.5 82.5,-774.5 82.5,-774.5 76.5,-774.5 70.5,-768.5 70.5,-762.5 70.5,-762.5 70.5,-740.5 70.5,-740.5 70.5,-734.5 76.5,-728.5 82.5,-728.5"/>
<text text-anchor="middle" x="153.5" y="-759.3" font-family="Times,serif" font-size="14.00">type = 4 (FUNC)</text>
<polyline fill="none" stroke="black" points="70.5,-751.5 236.5,-751.5 "/>
<text text-anchor="middle" x="153.5" y="-736.3" font-family="Times,serif" font-size="14.00">value = &#39;&#39; carti &#39;&#39; (20)</text>
</g>
<!-- node0x5801ac1d4750&#45;&gt;node0x5801ac1d4660 -->
<g id="edge5" class="edge">
<title>node0x5801ac1d4750&#45;&gt;node0x5801ac1d4660</title>
<path fill="none" stroke="black" d="M277.05,-811.37C256.06,-801.37 231.09,-789.47 209.11,-779"/>
<polygon fill="black" stroke="black" points="210.43,-775.75 199.9,-774.61 207.42,-782.07 210.43,-775.75"/>
</g>
<!-- node0x5801ac1d46c0 -->
<g id="node7" class="node">
<title>node0x5801ac1d46c0</title>
<path fill="#feaadf" stroke="black" d="M267,-728.5C267,-728.5 380,-728.5 380,-728.5 386,-728.5 392,-734.5 392,-740.5 392,-740.5 392,-762.5 392,-762.5 392,-768.5 386,-774.5 380,-774.5 380,-774.5 267,-774.5 267,-774.5 261,-774.5 255,-768.5 255,-762.5 255,-762.5 255,-740.5 255,-740.5 255,-734.5 261,-728.5 267,-728.5"/>
<text text-anchor="middle" x="323.5" y="-759.3" font-family="Times,serif" font-size="14.00">type = 4 (FUNC)</text>
<polyline fill="none" stroke="black" points="255,-751.5 392,-751.5 "/>
<text text-anchor="middle" x="323.5" y="-736.3" font-family="Times,serif" font-size="14.00">value = &#39;&#39; , &#39;&#39; (44)</text>
</g>
<!-- node0x5801ac1d4750&#45;&gt;node0x5801ac1d46c0 -->
<g id="edge6" class="edge">
<title>node0x5801ac1d4750&#45;&gt;node0x5801ac1d46c0</title>
<path fill="none" stroke="black" d="M323.5,-811.37C323.5,-803.15 323.5,-793.66 323.5,-784.73"/>
<polygon fill="black" stroke="black" points="327,-784.61 323.5,-774.61 320,-784.61 327,-784.61"/>
</g>
<!-- node0x5801ac1d47e0 -->
<g id="node11" class="node">
<title>node0x5801ac1d47e0</title>
<path fill="#00ffdd" stroke="black" d="M653,-728.5C653,-728.5 774,-728.5 774,-728.5 780,-728.5 786,-734.5 786,-740.5 786,-740.5 786,-762.5 786,-762.5 786,-768.5 780,-774.5 774,-774.5 774,-774.5 653,-774.5 653,-774.5 647,-774.5 641,-768.5 641,-762.5 641,-762.5 641,-740.5 641,-740.5 641,-734.5 647,-728.5 653,-728.5"/>
<text text-anchor="middle" x="713.5" y="-759.3" font-family="Times,serif" font-size="14.00">type = 2 (OP)</text>
<polyline fill="none" stroke="black" points="641,-751.5 786,-751.5 "/>
<text text-anchor="middle" x="713.5" y="-736.3" font-family="Times,serif" font-size="14.00">value = &#39;&#39; = &#39;&#39; (61)</text>
</g>
<!-- node0x5801ac1d4810&#45;&gt;node0x5801ac1d47e0 -->
<g id="edge10" class="edge">
<title>node0x5801ac1d4810&#45;&gt;node0x5801ac1d47e0</title>
<path fill="none" stroke="black" d="M770.91,-811.37C762.03,-802.26 751.61,-791.58 742.11,-781.83"/>
<polygon fill="black" stroke="black" points="744.55,-779.32 735.06,-774.61 739.54,-784.21 744.55,-779.32"/>
</g>
<!-- node0x5801ac1d48d0 -->
<g id="node12" class="node">
<title>node0x5801ac1d48d0</title>
<path fill="#e0e0e0" stroke="black" d="M816,-728.5C816,-728.5 989,-728.5 989,-728.5 995,-728.5 1001,-734.5 1001,-740.5 1001,-740.5 1001,-762.5 1001,-762.5 1001,-768.5 995,-774.5 989,-774.5 989,-774.5 816,-774.5 816,-774.5 810,-774.5 804,-768.5 804,-762.5 804,-762.5 804,-740.5 804,-740.5 804,-734.5 810,-728.5 816,-728.5"/>
<text text-anchor="middle" x="902.5" y="-759.3" font-family="Times,serif" font-size="14.00">type = 2 (OP)</text>
<polyline fill="none" stroke="black" points="804,-751.5 1001,-751.5 "/>
<text text-anchor="middle" x="902.5" y="-736.3" font-family="Times,serif" font-size="14.00">value = &#39;&#39; SHUTUP &#39;&#39; (59)</text>
</g>
<!-- node0x5801ac1d4810&#45;&gt;node0x5801ac1d48d0 -->
<g id="edge11" class="edge">
<title>node0x5801ac1d4810&#45;&gt;node0x5801ac1d48d0</title>
<path fill="none" stroke="black" d="M822.56,-811.37C835.41,-801.9 850.57,-790.74 864.21,-780.69"/>
<polygon fill="black" stroke="black" points="866.5,-783.35 872.48,-774.61 862.35,-777.72 866.5,-783.35"/>
</g>
<!-- node0x5801ac1d4690 -->
<g id="node8" class="node">
<title>node0x5801ac1d4690</title>
<path fill="#ff5050" stroke="black" d="M12,-599.5C12,-599.5 225,-599.5 225,-599.5 231,-599.5 237,-605.5 237,-611.5 237,-611.5 237,-679.5 237,-679.5 237,-685.5 231,-691.5 225,-691.5 225,-691.5 12,-691.5 12,-691.5 6,-691.5 0,-685.5 0,-679.5 0,-679.5 0,-611.5 0,-611.5 0,-605.5 6,-599.5 12,-599.5"/>
<text text-anchor="middle" x="118.5" y="-676.3" font-family="Times,serif" font-size="14.00">type = 3 (ID)</text>
<polyline fill="none" stroke="black" points="0,-668.5 237,-668.5 "/>
<text text-anchor="middle" x="118.5" y="-653.3" font-family="Times,serif" font-size="14.00">name = &#39;&#39; void &#39;&#39;</text>
<polyline fill="none" stroke="black" points="0,-645.5 237,-645.5 "/>
<text text-anchor="middle" x="118.5" y="-630.3" font-family="Times,serif" font-size="14.00">number in name table = &#39;&#39; 21 &#39;&#39;</text>
<polyline fill="none" stroke="black" points="0,-622.5 237,-622.5 "/>
<text text-anchor="middle" x="118.5" y="-607.3" font-family="Times,serif" font-size="14.00">id_type = PARM</text>
</g>
<!-- node0x5801ac1d46c0&#45;&gt;node0x5801ac1d4690 -->
<g id="edge7" class="edge">
<title>node0x5801ac1d46c0&#45;&gt;node0x5801ac1d4690</title>
<path fill="none" stroke="black" d="M280.02,-728.44C261.43,-719.01 238.91,-707.58 216.65,-696.3"/>
<polygon fill="black" stroke="black" points="217.99,-693.05 207.48,-691.64 214.82,-699.29 217.99,-693.05"/>
</g>
<!-- node0x5801ac1d4720 -->
<g id="node9" class="node">
<title>node0x5801ac1d4720</title>
<path fill="#feaadf" stroke="black" d="M267,-622.5C267,-622.5 380,-622.5 380,-622.5 386,-622.5 392,-628.5 392,-634.5 392,-634.5 392,-656.5 392,-656.5 392,-662.5 386,-668.5 380,-668.5 380,-668.5 267,-668.5 267,-668.5 261,-668.5 255,-662.5 255,-656.5 255,-656.5 255,-634.5 255,-634.5 255,-628.5 261,-622.5 267,-622.5"/>
<text text-anchor="middle" x="323.5" y="-653.3" font-family="Times,serif" font-size="14.00">type = 4 (FUNC)</text>
<polyline fill="none" stroke="black" points="255,-645.5 392,-645.5 "/>
<text text-anchor="middle" x="323.5" y="-630.3" font-family="Times,serif" font-size="14.00">value = &#39;&#39; , &#39;&#39; (44)</text>
</g>
<!-- node0x5801ac1d46c0&#45;&gt;node0x5801ac1d4720 -->
<g id="edge8" class="edge">
<title>node0x5801ac1d46c0&#45;&gt;node0x5801ac1d4720</title>
<path fill="none" stroke="black" d="M323.5,-728.44C323.5,-713.97 323.5,-694.79 323.5,-678.63"/>
<polygon fill="black" stroke="black" points="327,-678.52 323.5,-668.52 320,-678.52 327,-678.52"/>
</g>
<!-- node0x5801ac1d46f0 -->
<g id="node10" class="node">
<title>node0x5801ac1d46f0</title>
<path fill="#ff5050" stroke="black" d="M217,-470.5C217,-470.5 430,-470.5 430,-470.5 436,-470.5 442,-476.5 442,-482.5 442,-482.5 442,-550.5 442,-550.5 442,-556.5 436,-562.5 430,-562.5 430,-562.5 217,-562.5 217,-562.5 211,-562.5 205,-556.5 205,-550.5 205,-550.5 205,-482.5 205,-482.5 205,-476.5 211,-470.5 217,-470.5"/>
<text text-anchor="middle" x="323.5" y="-547.3" font-family="Times,serif" font-size="14.00">type = 3 (ID)</text>
<polyline fill="none" stroke="black" points="205,-539.5 442,-539.5 "/>
<text text-anchor="middle" x="323.5" y="-524.3" font-family="Times,serif" font-size="14.00">name = &#39;&#39; loh &#39;&#39;</text>
<polyline fill="none" stroke="black" points="205,-516.5 442,-516.5 "/>
<text text-anchor="middle" x="323.5" y="-501.3" font-family="Times,serif" font-size="14.00">number in name table = &#39;&#39; 22 &#39;&#39;</text>
<polyline fill="none" stroke="black" points="205,-493.5 442,-493.5 "/>
<text text-anchor="middle" x="323.5" y="-478.3" font-family="Times,serif" font-size="14.00">id_type = PARM</text>
</g>
<!-- node0x5801ac1d4720&#45;&gt;node0x5801ac1d46f0 -->
<g id="edge9" class="edge">
<title>node0x5801ac1d4720&#45;&gt;node0x5801ac1d46f0</title>
<path fill="none" stroke="black" d="M323.5,-622.38C323.5,-608.66 323.5,-590.37 323.5,-572.91"/>
<polygon fill="black" stroke="black" points="327,-572.76 323.5,-562.76 320,-572.76 327,-572.76"/>
</g>
<!-- node0x5801ac1d4780 -->
<g id="node13" class="node">
<title>node0x5801ac1d4780</title>
<path fill="#ff5050" stroke="black" d="M422,-599.5C422,-599.5 635,-599.5 635,-599.5 641,-599.5 647,-605.5 647,-611.5 647,-611.5 647,-679.5 647,-679.5 647,-685.5 641,-691.5 635,-691.5 635,-691.5 422,-691.5 422,-691.5 416,-691.5 410,-685.5 410,-679.5 410,-679.5 410,-611.5 410,-611.5 410,-605.5 416,-599.5 422,-599.5"/>
<text text-anchor="middle" x="528.5" y="-676.3" font-family="Times,serif" font-size="14.00">type = 3 (ID)</text>
<polyline fill="none" stroke="black" points="410,-668.5 647,-668.5 "/>
<text text-anchor="middle" x="528.5" y="-653.3" font-family="Times,serif" font-size="14.00">name = &#39;&#39; bro &#39;&#39;</text>
<polyline fill="none" stroke="black" points="410,-645.5 647,-645.5 "/>
<text text-anchor="middle" x="528.5" y="-630.3" font-family="Times,serif" font-size="14.00">number in name table = &#39;&#39; 23 &#39;&#39;</text>
<polyline fill="none" stroke="black" points="410,-622.5 647,-622.5 "/>
<text text-anchor="middle" x="528.5" y="-607.3" font-family="Times,serif" font-size="14.00">id_type = LOCL</text>
</g>
<!-- node0x5801ac1d47e0&#45;&gt;node0x5801ac1d4780 -->
<g id="edge12" class="edge">
<title>node0x5801ac1d47e0&#45;&gt;node0x5801ac1d4780</title>
<path fill="none" stroke="black" d="M674.27,-728.44C657.64,-719.1 637.52,-707.79 617.61,-696.6"/>
<polygon fill="black" stroke="black" points="619.24,-693.49 608.8,-691.64 615.8,-699.59 619.24,-693.49"/>
</g>
<!-- node0x5801ac1d47b0 -->
<g id="node14" class="node">
<title>node0x5801ac1d47b0</title>
<path fill="#ffd700" stroke="black" d="M677,-622.5C677,-622.5 784,-622.5 784,-622.5 790,-622.5 796,-628.5 796,-634.5 796,-634.5 796,-656.5 796,-656.5 796,-662.5 790,-668.5 784,-668.5 784,-668.5 677,-668.5 677,-668.5 671,-668.5 665,-662.5 665,-656.5 665,-656.5 665,-634.5 665,-634.5 665,-628.5 671,-622.5 677,-622.5"/>
<text text-anchor="middle" x="730.5" y="-653.3" font-family="Times,serif" font-size="14.00">type = 1 (NUM)</text>
<polyline fill="none" stroke="black" points="665,-645.5 796,-645.5 "/>
<text text-anchor="middle" x="730.5" y="-630.3" font-family="Times,serif" font-size="14.00">value = &#39;&#39; 25 &#39;&#39;</text>
</g>
<!-- node0x5801ac1d47e0&#45;&gt;node0x5801ac1d47b0 -->
<g id="edge13" class="edge">
<title>node0x5801ac1d47e0&#45;&gt;node0x5801ac1d47b0</title>
<path fill="none" stroke="black" d="M717.11,-728.44C719.47,-713.97 722.61,-694.79 725.25,-678.63"/>
<polygon fill="black" stroke="black" points="728.74,-678.96 726.9,-668.52 721.83,-677.83 728.74,-678.96"/>
</g>
<!-- node0x5801ac1d48a0 -->
<g id="node15" class="node">
<title>node0x5801ac1d48a0</title>
<path fill="#00ffdd" stroke="black" d="M826,-622.5C826,-622.5 947,-622.5 947,-622.5 953,-622.5 959,-628.5 959,-634.5 959,-634.5 959,-656.5 959,-656.5 959,-662.5 953,-668.5 947,-668.5 947,-668.5 826,-668.5 826,-668.5 820,-668.5 814,-662.5 814,-656.5 814,-656.5 814,-634.5 814,-634.5 814,-628.5 820,-622.5 826,-622.5"/>
<text text-anchor="middle" x="886.5" y="-653.3" font-family="Times,serif" font-size="14.00">type = 2 (OP)</text>
<polyline fill="none" stroke="black" points="814,-645.5 959,-645.5 "/>
<text text-anchor="middle" x="886.5" y="-630.3" font-family="Times,serif" font-size="14.00">value = &#39;&#39; = &#39;&#39; (61)</text>
</g>
<!-- node0x5801ac1d48d0&#45;&gt;node0x5801ac1d48a0 -->
<g id="edge14" class="edge">
<title>node0x5801ac1d48d0&#45;&gt;node0x5801ac1d48a0</title>
<path fill="none" stroke="black" d="M899.11,-728.44C896.88,-713.97 893.93,-694.79 891.44,-678.63"/>
<polygon fill="black" stroke="black" points="894.87,-677.88 889.89,-668.52 887.95,-678.94 894.87,-677.88"/>
</g>
<!-- node0x5801ac1d4a80 -->
<g id="node16" class="node">
<title>node0x5801ac1d4a80</title>
<path fill="#e0e0e0" stroke="black" d="M989,-622.5C989,-622.5 1162,-622.5 1162,-622.5 1168,-622.5 1174,-628.5 1174,-634.5 1174,-634.5 1174,-656.5 1174,-656.5 1174,-662.5 1168,-668.5 1162,-668.5 1162,-668.5 989,-668.5 989,-668.5 983,-668.5 977,-662.5 977,-656.5 977,-656.5 977,-634.5 977,-634.5 977,-628.5 983,-622.5 989,-622.5"/>
<text text-anchor="middle" x="1075.5" y="-653.3" font-family="Times,serif" font-size="14.00">type = 2 (OP)</text>
<polyline fill="none" stroke="black" points="977,-645.5 1174,-645.5 "/>
<text text-anchor="middle" x="1075.5" y="-630.3" font-family="Times,serif" font-size="14.00">value = &#39;&#39; SHUTUP &#39;&#39; (59)</text>
</g>
<!-- node0x5801ac1d48d0&#45;&gt;node0x5801ac1d4a80 -->
<g id="edge15" class="edge">
<title>node0x5801ac1d48d0&#45;&gt;node0x5801ac1d4a80</title>
<path fill="none" stroke="black" d="M939.19,-728.44C965.68,-712.52 1001.63,-690.91 1029.96,-673.88"/>
<polygon fill="black" stroke="black" points="1032.1,-676.68 1038.86,-668.52 1028.49,-670.68 1032.1,-676.68"/>
</g>
<!-- node0x5801ac1d4840 -->
<g id="node17" class="node">
<title>node0x5801ac1d4840</title>
<path fill="#ff5050" stroke="black" d="M594,-470.5C594,-470.5 807,-470.5 807,-470.5 813,-470.5 819,-476.5 819,-482.5 819,-482.5 819,-550.5 819,-550.5 819,-556.5 813,-562.5 807,-562.5 807,-562.5 594,-562.5 594,-562.5 588,-562.5 582,-556.5 582,-550.5 582,-550.5 582,-482.5 582,-482.5 582,-476.5 588,-470.5 594,-470.5"/>
<text text-anchor="middle" x="700.5" y="-547.3" font-family="Times,serif" font-size="14.00">type = 3 (ID)</text>
<polyline fill="none" stroke="black" points="582,-539.5 819,-539.5 "/>
<text text-anchor="middle" x="700.5" y="-524.3" font-family="Times,serif" font-size="14.00">name = &#39;&#39; dude &#39;&#39;</text>
<polyline fill="none" stroke="black" points="582,-516.5 819,-516.5 "/>
<text text-anchor="middle" x="700.5" y="-501.3" font-family="Times,serif" font-size="14.00">number in name table = &#39;&#39; 24 &#39;&#39;</text>
<polyline fill="none" stroke="black" points="582,-493.5 819,-493.5 "/>
<text text-anchor="middle" x="700.5" y="-478.3" font-family="Times,serif" font-size="14.00">id_type = PARM</text>
</g>
<!-- node0x5801ac1d48a0&#45;&gt;node0x5801ac1d4840 -->
<g id="edge16" class="edge">
<title>node0x5801ac1d48a0&#45;&gt;node0x5801ac1d4840</title>
<path fill="none" stroke="black" d="M854.1,-622.38C832.31,-607.5 802.66,-587.26 775.22,-568.52"/>
<polygon fill="black" stroke="black" points="777.02,-565.51 766.79,-562.76 773.07,-571.29 777.02,-565.51"/>
</g>
<!-- node0x5801ac1d4870 -->
<g id="node18" class="node">
<title>node0x5801ac1d4870</title>
<path fill="#ffd700" stroke="black" d="M849,-493.5C849,-493.5 956,-493.5 956,-493.5 962,-493.5 968,-499.5 968,-505.5 968,-505.5 968,-527.5 968,-527.5 968,-533.5 962,-539.5 956,-539.5 956,-539.5 849,-539.5 849,-539.5 843,-539.5 837,-533.5 837,-527.5 837,-527.5 837,-505.5 837,-505.5 837,-499.5 843,-493.5 849,-493.5"/>
<text text-anchor="middle" x="902.5" y="-524.3" font-family="Times,serif" font-size="14.00">type = 1 (NUM)</text>
<polyline fill="none" stroke="black" points="837,-516.5 968,-516.5 "/>
<text text-anchor="middle" x="902.5" y="-501.3" font-family="Times,serif" font-size="14.00">value = &#39;&#39; 10 &#39;&#39;</text>
</g>
<!-- node0x5801ac1d48a0&#45;&gt;node0x5801ac1d4870 -->
<g id="edge17" class="edge">
<title>node0x5801ac1d48a0&#45;&gt;node0x5801ac1d4870</title>
<path fill="none" stroke="black" d="M889.29,-622.38C891.81,-602.38 895.55,-572.68 898.41,-549.98"/>
<polygon fill="black" stroke="black" points="901.91,-550.15 899.69,-539.79 894.97,-549.28 901.91,-550.15"/>
</g>
<!-- node0x5801ac1d4a50 -->
<g id="node19" class="node">
<title>node0x5801ac1d4a50</title>
<path fill="#00ffdd" stroke="black" d="M1015,-493.5C1015,-493.5 1136,-493.5 1136,-493.5 1142,-493.5 1148,-499.5 1148,-505.5 1148,-505.5 1148,-527.5 1148,-527.5 1148,-533.5 1142,-539.5 1136,-539.5 1136,-539.5 1015,-539.5 1015,-539.5 1009,-539.5 1003,-533.5 1003,-527.5 1003,-527.5 1003,-505.5 1003,-505.5 1003,-499.5 1009,-493.5 1015,-493.5"/>
<text text-anchor="middle" x="1075.5" y="-524.3" font-family="Times,serif" font-size="14.00">type = 2 (OP)</text>
<polyline fill="none" stroke="black" points="1003,-516.5 1148,-516.5 "/>
<text text-anchor="middle" x="1075.5" y="-501.3" font-family="Times,serif" font-size="14.00">value = &#39;&#39; = &#39;&#39; (61)</text>
</g>
<!-- node0x5801ac1d4a80&#45;&gt;node0x5801ac1d4a50 -->
<g id="edge18" class="edge">
<title>node0x5801ac1d4a80&#45;&gt;node0x5801ac1d4a50</title>
<path fill="none" stroke="black" d="M1075.5,-622.38C1075.5,-602.38 1075.5,-572.68 1075.5,-549.98"/>
<polygon fill="black" stroke="black" points="1079,-549.79 1075.5,-539.79 1072,-549.79 1079,-549.79"/>
</g>
<!-- node0x5801ac1d4900 -->
<g id="node20" class="node">
<title>node0x5801ac1d4900</title>
<path fill="#ff5050" stroke="black" d="M857,-341.5C857,-341.5 1070,-341.5 1070,-341.5 1076,-341.5 1082,-347.5 1082,-353.5 1082,-353.5 1082,-421.5 1082,-421.5 1082,-427.5 1076,-433.5 1070,-433.5 1070,-433.5 857,-433.5 857,-433.5 851,-433.5 845,-427.5 845,-421.5 845,-421.5 845,-353.5 845,-353.5 845,-347.5 851,-341.5 857,-341.5"/>
<text text-anchor="middle" x="963.5" y="-418.3" font-family="Times,serif" font-size="14.00">type = 3 (ID)</text>
<polyline fill="none" stroke="black" points="845,-410.5 1082,-410.5 "/>
<text text-anchor="middle" x="963.5" y="-395.3" font-family="Times,serif" font-size="14.00">name = &#39;&#39; bro &#39;&#39;</text>
<polyline fill="none" stroke="black" points="845,-387.5 1082,-387.5 "/>
<text text-anchor="middle" x="963.5" y="-372.3" font-family="Times,serif" font-size="14.00">number in name table = &#39;&#39; 23 &#39;&#39;</text>
<polyline fill="none" stroke="black" points="845,-364.5 1082,-364.5 "/>
<text text-anchor="middle" x="963.5" y="-349.3" font-family="Times,serif" font-size="14.00">id_type = LOCL</text>
</g>
<!-- node0x5801ac1d4a50&#45;&gt;node0x5801ac1d4900 -->
<g id="edge19" class="edge">
<title>node0x5801ac1d4a50&#45;&gt;node0x5801ac1d4900</title>
<path fill="none" stroke="black" d="M1055.99,-493.38C1043.32,-479.01 1026.24,-459.65 1010.21,-441.46"/>
<polygon fill="black" stroke="black" points="1012.66,-438.95 1003.42,-433.76 1007.41,-443.58 1012.66,-438.95"/>
</g>
<!-- node0x5801ac1d4a20 -->
<g id="node21" class="node">
<title>node0x5801ac1d4a20</title>
<path fill="#00ffdd" stroke="black" d="M1112,-364.5C1112,-364.5 1261,-364.5 1261,-364.5 1267,-364.5 1273,-370.5 1273,-376.5 1273,-376.5 1273,-398.5 1273,-398.5 1273,-404.5 1267,-410.5 1261,-410.5 1261,-410.5 1112,-410.5 1112,-410.5 1106,-410.5 1100,-404.5 1100,-398.5 1100,-398.5 1100,-376.5 1100,-376.5 1100,-370.5 1106,-364.5 1112,-364.5"/>
<text text-anchor="middle" x="1186.5" y="-395.3" font-family="Times,serif" font-size="14.00">type = 2 (OP)</text>
<polyline fill="none" stroke="black" points="1100,-387.5 1273,-387.5 "/>
<text text-anchor="middle" x="1186.5" y="-372.3" font-family="Times,serif" font-size="14.00">value = &#39;&#39; PLUS &#39;&#39; (43)</text>
</g>
<!-- node0x5801ac1d4a50&#45;&gt;node0x5801ac1d4a20 -->
<g id="edge20" class="edge">
<title>node0x5801ac1d4a50&#45;&gt;node0x5801ac1d4a20</title>
<path fill="none" stroke="black" d="M1094.83,-493.38C1112.95,-472.65 1140.16,-441.51 1160.24,-418.55"/>
<polygon fill="black" stroke="black" points="1163.07,-420.63 1167.01,-410.79 1157.8,-416.02 1163.07,-420.63"/>
</g>
<!-- node0x5801ac1d4930 -->
<g id="node22" class="node">
<title>node0x5801ac1d4930</title>
<path fill="#ff5050" stroke="black" d="M969,-212.5C969,-212.5 1182,-212.5 1182,-212.5 1188,-212.5 1194,-218.5 1194,-224.5 1194,-224.5 1194,-292.5 1194,-292.5 1194,-298.5 1188,-304.5 1182,-304.5 1182,-304.5 969,-304.5 969,-304.5 963,-304.5 957,-298.5 957,-292.5 957,-292.5 957,-224.5 957,-224.5 957,-218.5 963,-212.5 969,-212.5"/>
<text text-anchor="middle" x="1075.5" y="-289.3" font-family="Times,serif" font-size="14.00">type = 3 (ID)</text>
<polyline fill="none" stroke="black" points="957,-281.5 1194,-281.5 "/>
<text text-anchor="middle" x="1075.5" y="-266.3" font-family="Times,serif" font-size="14.00">name = &#39;&#39; bro &#39;&#39;</text>
<polyline fill="none" stroke="black" points="957,-258.5 1194,-258.5 "/>
<text text-anchor="middle" x="1075.5" y="-243.3" font-family="Times,serif" font-size="14.00">number in name table = &#39;&#39; 23 &#39;&#39;</text>
<polyline fill="none" stroke="black" points="957,-235.5 1194,-235.5 "/>
<text text-anchor="middle" x="1075.5" y="-220.3" font-family="Times,serif" font-size="14.00">id_type = LOCL</text>
</g>
<!-- node0x5801ac1d4a20&#45;&gt;node0x5801ac1d4930 -->
<g id="edge21" class="edge">
<title>node0x5801ac1d4a20&#45;&gt;node0x5801ac1d4930</title>
<path fill="none" stroke="black" d="M1167.17,-364.38C1154.61,-350.01 1137.68,-330.65 1121.79,-312.46"/>
<polygon fill="black" stroke="black" points="1124.28,-309.99 1115.06,-304.76 1119,-314.59 1124.28,-309.99"/>
</g>
<!-- node0x5801ac1d49f0 -->
<g id="node23" class="node">
<title>node0x5801ac1d49f0</title>
<path fill="#f069f5" stroke="black" d="M1224,-235.5C1224,-235.5 1371,-235.5 1371,-235.5 1377,-235.5 1383,-241.5 1383,-247.5 1383,-247.5 1383,-269.5 1383,-269.5 1383,-275.5 1377,-281.5 1371,-281.5 1371,-281.5 1224,-281.5 1224,-281.5 1218,-281.5 1212,-275.5 1212,-269.5 1212,-269.5 1212,-247.5 1212,-247.5 1212,-241.5 1218,-235.5 1224,-235.5"/>
<text text-anchor="middle" x="1297.5" y="-266.3" font-family="Times,serif" font-size="14.00">type = 4 (FUNC)</text>
<polyline fill="none" stroke="black" points="1212,-258.5 1383,-258.5 "/>
<text text-anchor="middle" x="1297.5" y="-243.3" font-family="Times,serif" font-size="14.00">value = &#39;&#39; CALL &#39;&#39; (67)</text>
</g>
<!-- node0x5801ac1d4a20&#45;&gt;node0x5801ac1d49f0 -->
<g id="edge22" class="edge">
<title>node0x5801ac1d4a20&#45;&gt;node0x5801ac1d49f0</title>
<path fill="none" stroke="black" d="M1205.83,-364.38C1223.95,-343.65 1251.16,-312.51 1271.24,-289.55"/>
<polygon fill="black" stroke="black" points="1274.07,-291.63 1278.01,-281.79 1268.8,-287.02 1274.07,-291.63"/>
</g>
<!-- node0x5801ac1d4960 -->
<g id="node24" class="node">
<title>node0x5801ac1d4960</title>
<path fill="#2ee31e" stroke="black" d="M1144.5,-129.5C1144.5,-129.5 1282.5,-129.5 1282.5,-129.5 1288.5,-129.5 1294.5,-135.5 1294.5,-141.5 1294.5,-141.5 1294.5,-163.5 1294.5,-163.5 1294.5,-169.5 1288.5,-175.5 1282.5,-175.5 1282.5,-175.5 1144.5,-175.5 1144.5,-175.5 1138.5,-175.5 1132.5,-169.5 1132.5,-163.5 1132.5,-163.5 1132.5,-141.5 1132.5,-141.5 1132.5,-135.5 1138.5,-129.5 1144.5,-129.5"/>
<text text-anchor="middle" x="1213.5" y="-160.3" font-family="Times,serif" font-size="14.00">type = 4 (FUNC)</text>
<polyline fill="none" stroke="black" points="1132.5,-152.5 1294.5,-152.5 "/>
<text text-anchor="middle" x="1213.5" y="-137.3" font-family="Times,serif" font-size="14.00">value = &#39;&#39; eval &#39;&#39; (25)</text>
</g>
<!-- node0x5801ac1d49f0&#45;&gt;node0x5801ac1d4960 -->
<g id="edge23" class="edge">
<title>node0x5801ac1d49f0&#45;&gt;node0x5801ac1d4960</title>
<path fill="none" stroke="black" d="M1279.69,-235.44C1267.44,-220.28 1251.02,-199.95 1237.6,-183.34"/>
<polygon fill="black" stroke="black" points="1240.29,-181.1 1231.29,-175.52 1234.85,-185.5 1240.29,-181.1"/>
</g>
<!-- node0x5801ac1d49c0 -->
<g id="node25" class="node">
<title>node0x5801ac1d49c0</title>
<path fill="#feaadf" stroke="black" d="M1325,-129.5C1325,-129.5 1438,-129.5 1438,-129.5 1444,-129.5 1450,-135.5 1450,-141.5 1450,-141.5 1450,-163.5 1450,-163.5 1450,-169.5 1444,-175.5 1438,-175.5 1438,-175.5 1325,-175.5 1325,-175.5 1319,-175.5 1313,-169.5 1313,-163.5 1313,-163.5 1313,-141.5 1313,-141.5 1313,-135.5 1319,-129.5 1325,-129.5"/>
<text text-anchor="middle" x="1381.5" y="-160.3" font-family="Times,serif" font-size="14.00">type = 4 (FUNC)</text>
<polyline fill="none" stroke="black" points="1313,-152.5 1450,-152.5 "/>
<text text-anchor="middle" x="1381.5" y="-137.3" font-family="Times,serif" font-size="14.00">value = &#39;&#39; , &#39;&#39; (44)</text>
</g>
<!-- node0x5801ac1d49f0&#45;&gt;node0x5801ac1d49c0 -->
<g id="edge24" class="edge">
<title>node0x5801ac1d49f0&#45;&gt;node0x5801ac1d49c0</title>
<path fill="none" stroke="black" d="M1315.31,-235.44C1327.56,-220.28 1343.98,-199.95 1357.4,-183.34"/>
<polygon fill="black" stroke="black" points="1360.15,-185.5 1363.71,-175.52 1354.71,-181.1 1360.15,-185.5"/>
</g>
<!-- node0x5801ac1d4990 -->
<g id="node26" class="node">
<title>node0x5801ac1d4990</title>
<path fill="#ff5050" stroke="black" d="M1275,-0.5C1275,-0.5 1488,-0.5 1488,-0.5 1494,-0.5 1500,-6.5 1500,-12.5 1500,-12.5 1500,-80.5 1500,-80.5 1500,-86.5 1494,-92.5 1488,-92.5 1488,-92.5 1275,-92.5 1275,-92.5 1269,-92.5 1263,-86.5 1263,-80.5 1263,-80.5 1263,-12.5 1263,-12.5 1263,-6.5 1269,-0.5 1275,-0.5"/>
<text text-anchor="middle" x="1381.5" y="-77.3" font-family="Times,serif" font-size="14.00">type = 3 (ID)</text>
<polyline fill="none" stroke="black" points="1263,-69.5 1500,-69.5 "/>
<text text-anchor="middle" x="1381.5" y="-54.3" font-family="Times,serif" font-size="14.00">name = &#39;&#39; dude &#39;&#39;</text>
<polyline fill="none" stroke="black" points="1263,-46.5 1500,-46.5 "/>
<text text-anchor="middle" x="1381.5" y="-31.3" font-family="Times,serif" font-size="14.00">number in name table = &#39;&#39; 24 &#39;&#39;</text>
<polyline fill="none" stroke="black" points="1263,-23.5 1500,-23.5 "/>
<text text-anchor="middle" x="1381.5" y="-8.3" font-family="Times,serif" font-size="14.00">id_type = PARM</text>
</g>
<!-- node0x5801ac1d49c0&#45;&gt;node0x5801ac1d4990 -->
<g id="edge25" class="edge">
<title>node0x5801ac1d49c0&#45;&gt;node0x5801ac1d4990</title>
<path fill="none" stroke="black" d="M1381.5,-129.44C1381.5,-121.56 1381.5,-112.29 1381.5,-102.87"/>
<polygon fill="black" stroke="black" points="1385,-102.64 1381.5,-92.64 1378,-102.64 1385,-102.64"/>
</g>
<!-- node0x5801ac1d4ba0 -->
<g id="node28" class="node">
<title>node0x5801ac1d4ba0</title>
<path fill="#f069f5" stroke="black" d="M1243,-728.5C1243,-728.5 1390,-728.5 1390,-728.5 1396,-728.5 1402,-734.5 1402,-740.5 1402,-740.5 1402,-762.5 1402,-762.5 1402,-768.5 1396,-774.5 1390,-774.5 1390,-774.5 1243,-774.5 1243,-774.5 1237,-774.5 1231,-768.5 1231,-762.5 1231,-762.5 1231,-740.5 1231,-740.5 1231,-734.5 1237,-728.5 1243,-728.5"/>
<text text-anchor="middle" x="1316.5" y="-759.3" font-family="Times,serif" font-size="14.00">type = 4 (FUNC)</text>
<polyline fill="none" stroke="black" points="1231,-751.5 1402,-751.5 "/>
<text text-anchor="middle" x="1316.5" y="-736.3" font-family="Times,serif" font-size="14.00">value = &#39;&#39; CALL &#39;&#39; (67)</text>
</g>
<!-- node0x5801ac1d4cf0&#45;&gt;node0x5801ac1d4ba0 -->
<g id="edge27" class="edge">
<title>node0x5801ac1d4cf0&#45;&gt;node0x5801ac1d4ba0</title>
<path fill="none" stroke="black" d="M1316.5,-811.37C1316.5,-803.15 1316.5,-793.66 1316.5,-784.73"/>
<polygon fill="black" stroke="black" points="1320,-784.61 1316.5,-774.61 1313,-784.61 1320,-784.61"/>
</g>
<!-- node0x5801ac1d4cc0 -->
<g id="node29" class="node">
<title>node0x5801ac1d4cc0</title>
<path fill="#e0e0e0" stroke="black" d="M1518,-728.5C1518,-728.5 1691,-728.5 1691,-728.5 1697,-728.5 1703,-734.5 1703,-740.5 1703,-740.5 1703,-762.5 1703,-762.5 1703,-768.5 1697,-774.5 1691,-774.5 1691,-774.5 1518,-774.5 1518,-774.5 1512,-774.5 1506,-768.5 1506,-762.5 1506,-762.5 1506,-740.5 1506,-740.5 1506,-734.5 1512,-728.5 1518,-728.5"/>
<text text-anchor="middle" x="1604.5" y="-759.3" font-family="Times,serif" font-size="14.00">type = 2 (OP)</text>
<polyline fill="none" stroke="black" points="1506,-751.5 1703,-751.5 "/>
<text text-anchor="middle" x="1604.5" y="-736.3" font-family="Times,serif" font-size="14.00">value = &#39;&#39; SHUTUP &#39;&#39; (59)</text>
</g>
<!-- node0x5801ac1d4cf0&#45;&gt;node0x5801ac1d4cc0 -->
<g id="edge28" class="edge">
<title>node0x5801ac1d4cf0&#45;&gt;node0x5801ac1d4cc0</title>
<path fill="none" stroke="black" d="M1394.82,-811.47C1432.44,-800.89 1477.67,-788.17 1516.48,-777.26"/>
<polygon fill="black" stroke="black" points="1517.52,-780.6 1526.2,-774.52 1515.62,-773.86 1517.52,-780.6"/>
</g>
<!-- node0x5801ac1d4b10 -->
<g id="node30" class="node">
<title>node0x5801ac1d4b10</title>
<path fill="#2ee31e" stroke="black" d="M1204.5,-622.5C1204.5,-622.5 1342.5,-622.5 1342.5,-622.5 1348.5,-622.5 1354.5,-628.5 1354.5,-634.5 1354.5,-634.5 1354.5,-656.5 1354.5,-656.5 1354.5,-662.5 1348.5,-668.5 1342.5,-668.5 1342.5,-668.5 1204.5,-668.5 1204.5,-668.5 1198.5,-668.5 1192.5,-662.5 1192.5,-656.5 1192.5,-656.5 1192.5,-634.5 1192.5,-634.5 1192.5,-628.5 1198.5,-622.5 1204.5,-622.5"/>
<text text-anchor="middle" x="1273.5" y="-653.3" font-family="Times,serif" font-size="14.00">type = 4 (FUNC)</text>
<polyline fill="none" stroke="black" points="1192.5,-645.5 1354.5,-645.5 "/>
<text text-anchor="middle" x="1273.5" y="-630.3" font-family="Times,serif" font-size="14.00">value = &#39;&#39; eval &#39;&#39; (25)</text>
</g>
<!-- node0x5801ac1d4ba0&#45;&gt;node0x5801ac1d4b10 -->
<g id="edge29" class="edge">
<title>node0x5801ac1d4ba0&#45;&gt;node0x5801ac1d4b10</title>
<path fill="none" stroke="black" d="M1307.38,-728.44C1301.34,-713.83 1293.32,-694.43 1286.59,-678.17"/>
<polygon fill="black" stroke="black" points="1289.66,-676.43 1282.61,-668.52 1283.19,-679.1 1289.66,-676.43"/>
</g>
<!-- node0x5801ac1d4b70 -->
<g id="node31" class="node">
<title>node0x5801ac1d4b70</title>
<path fill="#feaadf" stroke="black" d="M1385,-622.5C1385,-622.5 1498,-622.5 1498,-622.5 1504,-622.5 1510,-628.5 1510,-634.5 1510,-634.5 1510,-656.5 1510,-656.5 1510,-662.5 1504,-668.5 1498,-668.5 1498,-668.5 1385,-668.5 1385,-668.5 1379,-668.5 1373,-662.5 1373,-656.5 1373,-656.5 1373,-634.5 1373,-634.5 1373,-628.5 1379,-622.5 1385,-622.5"/>
<text text-anchor="middle" x="1441.5" y="-653.3" font-family="Times,serif" font-size="14.00">type = 4 (FUNC)</text>
<polyline fill="none" stroke="black" points="1373,-645.5 1510,-645.5 "/>
<text text-anchor="middle" x="1441.5" y="-630.3" font-family="Times,serif" font-size="14.00">value = &#39;&#39; , &#39;&#39; (44)</text>
</g>
<!-- node0x5801ac1d4ba0&#45;&gt;node0x5801ac1d4b70 -->
<g id="edge30" class="edge">
<title>node0x5801ac1d4ba0&#45;&gt;node0x5801ac1d4b70</title>
<path fill="none" stroke="black" d="M1343.01,-728.44C1361.74,-712.86 1387,-691.84 1407.26,-674.99"/>
<polygon fill="black" stroke="black" points="1409.58,-677.61 1415.03,-668.52 1405.1,-672.23 1409.58,-677.61"/>
</g>
<!-- node0x5801ac1d4c90 -->
<g id="node33" class="node">
<title>node0x5801ac1d4c90</title>
<path fill="#00ffdd" stroke="black" d="M1588,-622.5C1588,-622.5 1709,-622.5 1709,-622.5 1715,-622.5 1721,-628.5 1721,-634.5 1721,-634.5 1721,-656.5 1721,-656.5 1721,-662.5 1715,-668.5 1709,-668.5 1709,-668.5 1588,-668.5 1588,-668.5 1582,-668.5 1576,-662.5 1576,-656.5 1576,-656.5 1576,-634.5 1576,-634.5 1576,-628.5 1582,-622.5 1588,-622.5"/>
<text text-anchor="middle" x="1648.5" y="-653.3" font-family="Times,serif" font-size="14.00">type = 2 (OP)</text>
<polyline fill="none" stroke="black" points="1576,-645.5 1721,-645.5 "/>
<text text-anchor="middle" x="1648.5" y="-630.3" font-family="Times,serif" font-size="14.00">value = &#39;&#39; = &#39;&#39; (61)</text>
</g>
<!-- node0x5801ac1d4cc0&#45;&gt;node0x5801ac1d4c90 -->
<g id="edge32" class="edge">
<title>node0x5801ac1d4cc0&#45;&gt;node0x5801ac1d4c90</title>
<path fill="none" stroke="black" d="M1613.83,-728.44C1620.01,-713.83 1628.22,-694.43 1635.1,-678.17"/>
<polygon fill="black" stroke="black" points="1638.51,-679.1 1639.18,-668.52 1632.06,-676.37 1638.51,-679.1"/>
</g>
<!-- node0x5801ac1d4b40 -->
<g id="node32" class="node">
<title>node0x5801ac1d4b40</title>
<path fill="#ff5050" stroke="black" d="M1287,-470.5C1287,-470.5 1500,-470.5 1500,-470.5 1506,-470.5 1512,-476.5 1512,-482.5 1512,-482.5 1512,-550.5 1512,-550.5 1512,-556.5 1506,-562.5 1500,-562.5 1500,-562.5 1287,-562.5 1287,-562.5 1281,-562.5 1275,-556.5 1275,-550.5 1275,-550.5 1275,-482.5 1275,-482.5 1275,-476.5 1281,-470.5 1287,-470.5"/>
<text text-anchor="middle" x="1393.5" y="-547.3" font-family="Times,serif" font-size="14.00">type = 3 (ID)</text>
<polyline fill="none" stroke="black" points="1275,-539.5 1512,-539.5 "/>
<text text-anchor="middle" x="1393.5" y="-524.3" font-family="Times,serif" font-size="14.00">name = &#39;&#39; dude &#39;&#39;</text>
<polyline fill="none" stroke="black" points="1275,-516.5 1512,-516.5 "/>
<text text-anchor="middle" x="1393.5" y="-501.3" font-family="Times,serif" font-size="14.00">number in name table = &#39;&#39; 24 &#39;&#39;</text>
<polyline fill="none" stroke="black" points="1275,-493.5 1512,-493.5 "/>
<text text-anchor="middle" x="1393.5" y="-478.3" font-family="Times,serif" font-size="14.00">id_type = PARM</text>
</g>
<!-- node0x5801ac1d4b70&#45;&gt;node0x5801ac1d4b40 -->
<g id="edge31" class="edge">
<title>node0x5801ac1d4b70&#45;&gt;node0x5801ac1d4b40</title>
<path fill="none" stroke="black" d="M1433.14,-622.38C1427.9,-608.53 1420.91,-590.02 1414.26,-572.42"/>
<polygon fill="black" stroke="black" points="1417.42,-570.88 1410.61,-562.76 1410.87,-573.35 1417.42,-570.88"/>
</g>
<!-- node0x5801ac1d4bd0 -->
<g id="node34" class="node">
<title>node0x5801ac1d4bd0</title>
<path fill="#ff5050" stroke="black" d="M1542,-470.5C1542,-470.5 1755,-470.5 1755,-470.5 1761,-470.5 1767,-476.5 1767,-482.5 1767,-482.5 1767,-550.5 1767,-550.5 1767,-556.5 1761,-562.5 1755,-562.5 1755,-562.5 1542,-562.5 1542,-562.5 1536,-562.5 1530,-556.5 1530,-550.5 1530,-550.5 1530,-482.5 1530,-482.5 1530,-476.5 1536,-470.5 1542,-470.5"/>
<text text-anchor="middle" x="1648.5" y="-547.3" font-family="Times,serif" font-size="14.00">type = 3 (ID)</text>
<polyline fill="none" stroke="black" points="1530,-539.5 1767,-539.5 "/>
<text text-anchor="middle" x="1648.5" y="-524.3" font-family="Times,serif" font-size="14.00">name = &#39;&#39; dude &#39;&#39;</text>
<polyline fill="none" stroke="black" points="1530,-516.5 1767,-516.5 "/>
<text text-anchor="middle" x="1648.5" y="-501.3" font-family="Times,serif" font-size="14.00">number in name table = &#39;&#39; 24 &#39;&#39;</text>
<polyline fill="none" stroke="black" points="1530,-493.5 1767,-493.5 "/>
<text text-anchor="middle" x="1648.5" y="-478.3" font-family="Times,serif" font-size="14.00">id_type = PARM</text>
</g>
<!-- node0x5801ac1d4c90&#45;&gt;node0x5801ac1d4bd0 -->
<g id="edge33" class="edge">
<title>node0x5801ac1d4c90&#45;&gt;node0x5801ac1d4bd0</title>
<path fill="none" stroke="black" d="M1648.5,-622.38C1648.5,-608.66 1648.5,-590.37 1648.5,-572.91"/>
<polygon fill="black" stroke="black" points="1652,-572.76 1648.5,-562.76 1645,-572.76 1652,-572.76"/>
</g>
<!-- node0x5801ac1d4c60 -->
<g id="node35" class="node">
<title>node0x5801ac1d4c60</title>
<path fill="#00ffdd" stroke="black" d="M1797,-493.5C1797,-493.5 1946,-493.5 1946,-493.5 1952,-493.5 1958,-499.5 1958,-505.5 1958,-505.5 1958,-527.5 1958,-527.5 1958,-533.5 1952,-539.5 1946,-539.5 1946,-539.5 1797,-539.5 1797,-539.5 1791,-539.5 1785,-533.5 1785,-527.5 1785,-527.5 1785,-505.5 1785,-505.5 1785,-499.5 1791,-493.5 1797,-493.5"/>
<text text-anchor="middle" x="1871.5" y="-524.3" font-family="Times,serif" font-size="14.00">type = 2 (OP)</text>
<polyline fill="none" stroke="black" points="1785,-516.5 1958,-516.5 "/>
<text text-anchor="middle" x="1871.5" y="-501.3" font-family="Times,serif" font-size="14.00">value = &#39;&#39; PLUS &#39;&#39; (43)</text>
</g>
<!-- node0x5801ac1d4c90&#45;&gt;node0x5801ac1d4c60 -->
<g id="edge34" class="edge">
<title>node0x5801ac1d4c90&#45;&gt;node0x5801ac1d4c60</title>
<path fill="none" stroke="black" d="M1687.34,-622.38C1725.28,-600.77 1783.09,-567.85 1823.8,-544.66"/>
<polygon fill="black" stroke="black" points="1825.77,-547.57 1832.73,-539.58 1822.31,-541.49 1825.77,-547.57"/>
</g>
<!-- node0x5801ac1d4c00 -->
<g id="node36" class="node">
<title>node0x5801ac1d4c00</title>
<path fill="#ff5050" stroke="black" d="M1664,-341.5C1664,-341.5 1877,-341.5 1877,-341.5 1883,-341.5 1889,-347.5 1889,-353.5 1889,-353.5 1889,-421.5 1889,-421.5 1889,-427.5 1883,-433.5 1877,-433.5 1877,-433.5 1664,-433.5 1664,-433.5 1658,-433.5 1652,-427.5 1652,-421.5 1652,-421.5 1652,-353.5 1652,-353.5 1652,-347.5 1658,-341.5 1664,-341.5"/>
<text text-anchor="middle" x="1770.5" y="-418.3" font-family="Times,serif" font-size="14.00">type = 3 (ID)</text>
<polyline fill="none" stroke="black" points="1652,-410.5 1889,-410.5 "/>
<text text-anchor="middle" x="1770.5" y="-395.3" font-family="Times,serif" font-size="14.00">name = &#39;&#39; dude &#39;&#39;</text>
<polyline fill="none" stroke="black" points="1652,-387.5 1889,-387.5 "/>
<text text-anchor="middle" x="1770.5" y="-372.3" font-family="Times,serif" font-size="14.00">number in name table = &#39;&#39; 24 &#39;&#39;</text>
<polyline fill="none" stroke="black" points="1652,-364.5 1889,-364.5 "/>
<text text-anchor="middle" x="1770.5" y="-349.3" font-family="Times,serif" font-size="14.00">id_type = PARM</text>
</g>
<!-- node0x5801ac1d4c60&#45;&gt;node0x5801ac1d4c00 -->
<g id="edge35" class="edge">
<title>node0x5801ac1d4c60&#45;&gt;node0x5801ac1d4c00</title>
<path fill="none" stroke="black" d="M1853.91,-493.38C1842.59,-479.14 1827.36,-459.99 1813.01,-441.95"/>
<polygon fill="black" stroke="black" points="1815.46,-439.41 1806.5,-433.76 1809.98,-443.77 1815.46,-439.41"/>
</g>
<!-- node0x5801ac1d4c30 -->
<g id="node37" class="node">
<title>node0x5801ac1d4c30</title>
<path fill="#ffd700" stroke="black" d="M1919,-364.5C1919,-364.5 2026,-364.5 2026,-364.5 2032,-364.5 2038,-370.5 2038,-376.5 2038,-376.5 2038,-398.5 2038,-398.5 2038,-404.5 2032,-410.5 2026,-410.5 2026,-410.5 1919,-410.5 1919,-410.5 1913,-410.5 1907,-404.5 1907,-398.5 1907,-398.5 1907,-376.5 1907,-376.5 1907,-370.5 1913,-364.5 1919,-364.5"/>
<text text-anchor="middle" x="1972.5" y="-395.3" font-family="Times,serif" font-size="14.00">type = 1 (NUM)</text>
<polyline fill="none" stroke="black" points="1907,-387.5 2038,-387.5 "/>
<text text-anchor="middle" x="1972.5" y="-372.3" font-family="Times,serif" font-size="14.00">value = &#39;&#39; 10 &#39;&#39;</text>
</g>
<!-- node0x5801ac1d4c60&#45;&gt;node0x5801ac1d4c30 -->
<g id="edge36" class="edge">
<title>node0x5801ac1d4c60&#45;&gt;node0x5801ac1d4c30</title>
<path fill="none" stroke="black" d="M1889.09,-493.38C1905.5,-472.74 1930.12,-441.79 1948.36,-418.85"/>
<polygon fill="black" stroke="black" points="1951.28,-420.8 1954.77,-410.79 1945.81,-416.44 1951.28,-420.8"/>
</g>
</g>
</svg>
