<?xml version="1.0" encoding="UTF-8" standalone="no"?>
<!DOCTYPE svg PUBLIC "-//W3C//DTD SVG 1.1//EN"
 "http://www.w3.org/Graphics/SVG/1.1/DTD/svg11.dtd">
<!-- Generated by graphviz version 2.43.0 (0)
 -->
<!-- Title: %3 Pages: 1 -->
<svg width="384pt" height="267pt"
 viewBox="0.00 0.00 383.50 267.00" xmlns="http://www.w3.org/2000/svg" xmlns:xlink="http://www.w3.org/1999/xlink">
<g id="graph0" class="graph" transform="scale(1 1) rotate(0) translate(4 263)">
<title>%3</title>
<!-- node0x5030000003d0 -->
<g id="node1" class="node">
<title>node0x5030000003d0</title>
<path fill="#f069f5" stroke="black" d="M97.5,-212.5C97.5,-212.5 244.5,-212.5 244.5,-212.5 250.5,-212.5 256.5,-218.5 256.5,-224.5 256.5,-224.5 256.5,-246.5 256.5,-246.5 256.5,-252.5 250.5,-258.5 244.5,-258.5 244.5,-258.5 97.5,-258.5 97.5,-258.5 91.5,-258.5 85.5,-252.5 85.5,-246.5 85.5,-246.5 85.5,-224.5 85.5,-224.5 85.5,-218.5 91.5,-212.5 97.5,-212.5"/>
<text text-anchor="middle" x="171" y="-243.3" font-family="Times,serif" font-size="14.00">type = 4 (FUNC)</text>
<polyline fill="none" stroke="black" points="85.5,-235.5 256.5,-235.5 "/>
<text text-anchor="middle" x="171" y="-220.3" font-family="Times,serif" font-size="14.00">value = &#39;&#39; CALL &#39;&#39; (67)</text>
</g>
<!-- node0x503000000340 -->
<g id="node2" class="node">
<title>node0x503000000340</title>
<path fill="#2ee31e" stroke="black" d="M12,-129.5C12,-129.5 158,-129.5 158,-129.5 164,-129.5 170,-135.5 170,-141.5 170,-141.5 170,-163.5 170,-163.5 170,-169.5 164,-175.5 158,-175.5 158,-175.5 12,-175.5 12,-175.5 6,-175.5 0,-169.5 0,-163.5 0,-163.5 0,-141.5 0,-141.5 0,-135.5 6,-129.5 12,-129.5"/>
<text text-anchor="middle" x="85" y="-160.3" font-family="Times,serif" font-size="14.00">type = 4 (FUNC)</text>
<polyline fill="none" stroke="black" points="0,-152.5 170,-152.5 "/>
<text text-anchor="middle" x="85" y="-137.3" font-family="Times,serif" font-size="14.00">value = &#39;&#39; scanf &#39;&#39; (25)</text>
</g>
<!-- node0x5030000003d0&#45;&gt;node0x503000000340 -->
<g id="edge1" class="edge">
<title>node0x5030000003d0&#45;&gt;node0x503000000340</title>
<path fill="none" stroke="black" d="M147.5,-212.37C137.74,-203.17 126.27,-192.37 115.84,-182.55"/>
<polygon fill="black" stroke="black" points="118.15,-179.92 108.47,-175.61 113.35,-185.01 118.15,-179.92"/>
</g>
<!-- node0x5030000003a0 -->
<g id="node3" class="node">
<title>node0x5030000003a0</title>
<path fill="#feaadf" stroke="black" d="M200.5,-129.5C200.5,-129.5 313.5,-129.5 313.5,-129.5 319.5,-129.5 325.5,-135.5 325.5,-141.5 325.5,-141.5 325.5,-163.5 325.5,-163.5 325.5,-169.5 319.5,-175.5 313.5,-175.5 313.5,-175.5 200.5,-175.5 200.5,-175.5 194.5,-175.5 188.5,-169.5 188.5,-163.5 188.5,-163.5 188.5,-141.5 188.5,-141.5 188.5,-135.5 194.5,-129.5 200.5,-129.5"/>
<text text-anchor="middle" x="257" y="-160.3" font-family="Times,serif" font-size="14.00">type = 4 (FUNC)</text>
<polyline fill="none" stroke="black" points="188.5,-152.5 325.5,-152.5 "/>
<text text-anchor="middle" x="257" y="-137.3" font-family="Times,serif" font-size="14.00">value = &#39;&#39; , &#39;&#39; (44)</text>
</g>
<!-- node0x5030000003d0&#45;&gt;node0x5030000003a0 -->
<g id="edge2" class="edge">
<title>node0x5030000003d0&#45;&gt;node0x5030000003a0</title>
<path fill="none" stroke="black" d="M194.5,-212.37C204.26,-203.17 215.73,-192.37 226.16,-182.55"/>
<polygon fill="black" stroke="black" points="228.65,-185.01 233.53,-175.61 223.85,-179.92 228.65,-185.01"/>
</g>
<!-- node0x503000000370 -->
<g id="node4" class="node">
<title>node0x503000000370</title>
<path fill="#ff5050" stroke="black" d="M150.5,-0.5C150.5,-0.5 363.5,-0.5 363.5,-0.5 369.5,-0.5 375.5,-6.5 375.5,-12.5 375.5,-12.5 375.5,-80.5 375.5,-80.5 375.5,-86.5 369.5,-92.5 363.5,-92.5 363.5,-92.5 150.5,-92.5 150.5,-92.5 144.5,-92.5 138.5,-86.5 138.5,-80.5 138.5,-80.5 138.5,-12.5 138.5,-12.5 138.5,-6.5 144.5,-0.5 150.5,-0.5"/>
<text text-anchor="middle" x="257" y="-77.3" font-family="Times,serif" font-size="14.00">type = 3 (ID)</text>
<polyline fill="none" stroke="black" points="138.5,-69.5 375.5,-69.5 "/>
<text text-anchor="middle" x="257" y="-54.3" font-family="Times,serif" font-size="14.00">name = &#39;&#39; numb &#39;&#39;</text>
<polyline fill="none" stroke="black" points="138.5,-46.5 375.5,-46.5 "/>
<text text-anchor="middle" x="257" y="-31.3" font-family="Times,serif" font-size="14.00">number in name table = &#39;&#39; 22 &#39;&#39;</text>
<polyline fill="none" stroke="black" points="138.5,-23.5 375.5,-23.5 "/>
<text text-anchor="middle" x="257" y="-8.3" font-family="Times,serif" font-size="14.00">id_type = LOCL</text>
</g>
<!-- node0x5030000003a0&#45;&gt;node0x503000000370 -->
<g id="edge3" class="edge">
<title>node0x5030000003a0&#45;&gt;node0x503000000370</title>
<path fill="none" stroke="black" d="M257,-129.44C257,-121.56 257,-112.29 257,-102.87"/>
<polygon fill="black" stroke="black" points="260.5,-102.64 257,-92.64 253.5,-102.64 260.5,-102.64"/>
</g>
</g>
</svg>
