<?xml version="1.0" encoding="UTF-8" standalone="no"?>
<!DOCTYPE svg PUBLIC "-//W3C//DTD SVG 1.1//EN"
 "http://www.w3.org/Graphics/SVG/1.1/DTD/svg11.dtd">
<!-- Generated by graphviz version 2.43.0 (0)
 -->
<!-- Title: %3 Pages: 1 -->
<svg width="1997pt" height="949pt"
 viewBox="0.00 0.00 1997.00 949.00" xmlns="http://www.w3.org/2000/svg" xmlns:xlink="http://www.w3.org/1999/xlink">
<g id="graph0" class="graph" transform="scale(1 1) rotate(0) translate(4 945)">
<title>%3</title>
<!-- node0x56632d09eb40 -->
<g id="node1" class="node">
<title>node0x56632d09eb40</title>
<path fill="#a0a0a0" stroke="black" d="M810.5,-894.5C810.5,-894.5 1046.5,-894.5 1046.5,-894.5 1052.5,-894.5 1058.5,-900.5 1058.5,-906.5 1058.5,-906.5 1058.5,-928.5 1058.5,-928.5 1058.5,-934.5 1052.5,-940.5 1046.5,-940.5 1046.5,-940.5 810.5,-940.5 810.5,-940.5 804.5,-940.5 798.5,-934.5 798.5,-928.5 798.5,-928.5 798.5,-906.5 798.5,-906.5 798.5,-900.5 804.5,-894.5 810.5,-894.5"/>
<text text-anchor="middle" x="928.5" y="-925.3" font-family="Times,serif" font-size="14.00">type = 4 (FUNC)</text>
<polyline fill="none" stroke="black" points="798.5,-917.5 1058.5,-917.5 "/>
<text text-anchor="middle" x="928.5" y="-902.3" font-family="Times,serif" font-size="14.00">value = &#39;&#39; NEXT FUNCTION &#39;&#39; (64)</text>
</g>
<!-- node0x56632d09eb10 -->
<g id="node2" class="node">
<title>node0x56632d09eb10</title>
<path fill="#755cf7" stroke="black" d="M698.5,-811.5C698.5,-811.5 898.5,-811.5 898.5,-811.5 904.5,-811.5 910.5,-817.5 910.5,-823.5 910.5,-823.5 910.5,-845.5 910.5,-845.5 910.5,-851.5 904.5,-857.5 898.5,-857.5 898.5,-857.5 698.5,-857.5 698.5,-857.5 692.5,-857.5 686.5,-851.5 686.5,-845.5 686.5,-845.5 686.5,-823.5 686.5,-823.5 686.5,-817.5 692.5,-811.5 698.5,-811.5"/>
<text text-anchor="middle" x="798.5" y="-842.3" font-family="Times,serif" font-size="14.00">type = 4 (FUNC)</text>
<polyline fill="none" stroke="black" points="686.5,-834.5 910.5,-834.5 "/>
<text text-anchor="middle" x="798.5" y="-819.3" font-family="Times,serif" font-size="14.00">value = &#39;&#39; DEFINITION &#39;&#39; (68)</text>
</g>
<!-- node0x56632d09eb40&#45;&gt;node0x56632d09eb10 -->
<g id="edge1" class="edge">
<title>node0x56632d09eb40&#45;&gt;node0x56632d09eb10</title>
<path fill="none" stroke="black" d="M892.98,-894.37C877.5,-884.72 859.19,-873.32 842.84,-863.13"/>
<polygon fill="black" stroke="black" points="844.32,-859.92 833.98,-857.61 840.62,-865.87 844.32,-859.92"/>
</g>
<!-- node0x56632d09ed20 -->
<g id="node3" class="node">
<title>node0x56632d09ed20</title>
<path fill="#a0a0a0" stroke="black" d="M1110.5,-811.5C1110.5,-811.5 1346.5,-811.5 1346.5,-811.5 1352.5,-811.5 1358.5,-817.5 1358.5,-823.5 1358.5,-823.5 1358.5,-845.5 1358.5,-845.5 1358.5,-851.5 1352.5,-857.5 1346.5,-857.5 1346.5,-857.5 1110.5,-857.5 1110.5,-857.5 1104.5,-857.5 1098.5,-851.5 1098.5,-845.5 1098.5,-845.5 1098.5,-823.5 1098.5,-823.5 1098.5,-817.5 1104.5,-811.5 1110.5,-811.5"/>
<text text-anchor="middle" x="1228.5" y="-842.3" font-family="Times,serif" font-size="14.00">type = 4 (FUNC)</text>
<polyline fill="none" stroke="black" points="1098.5,-834.5 1358.5,-834.5 "/>
<text text-anchor="middle" x="1228.5" y="-819.3" font-family="Times,serif" font-size="14.00">value = &#39;&#39; NEXT FUNCTION &#39;&#39; (64)</text>
</g>
<!-- node0x56632d09eb40&#45;&gt;node0x56632d09ed20 -->
<g id="edge2" class="edge">
<title>node0x56632d09eb40&#45;&gt;node0x56632d09ed20</title>
<path fill="none" stroke="black" d="M1010.08,-894.47C1049.35,-883.87 1096.59,-871.12 1137.07,-860.19"/>
<polygon fill="black" stroke="black" points="1138.19,-863.51 1146.94,-857.52 1136.37,-856.75 1138.19,-863.51"/>
</g>
<!-- node0x56632d09e750 -->
<g id="node4" class="node">
<title>node0x56632d09e750</title>
<path fill="#f069f5" stroke="black" d="M250,-728.5C250,-728.5 397,-728.5 397,-728.5 403,-728.5 409,-734.5 409,-740.5 409,-740.5 409,-762.5 409,-762.5 409,-768.5 403,-774.5 397,-774.5 397,-774.5 250,-774.5 250,-774.5 244,-774.5 238,-768.5 238,-762.5 238,-762.5 238,-740.5 238,-740.5 238,-734.5 244,-728.5 250,-728.5"/>
<text text-anchor="middle" x="323.5" y="-759.3" font-family="Times,serif" font-size="14.00">type = 4 (FUNC)</text>
<polyline fill="none" stroke="black" points="238,-751.5 409,-751.5 "/>
<text text-anchor="middle" x="323.5" y="-736.3" font-family="Times,serif" font-size="14.00">value = &#39;&#39; CALL &#39;&#39; (67)</text>
</g>
<!-- node0x56632d09eb10&#45;&gt;node0x56632d09e750 -->
<g id="edge3" class="edge">
<title>node0x56632d09eb10&#45;&gt;node0x56632d09e750</title>
<path fill="none" stroke="black" d="M686.23,-814.36C605.11,-800.52 496.69,-782.03 419.57,-768.88"/>
<polygon fill="black" stroke="black" points="419.82,-765.37 409.37,-767.14 418.64,-772.28 419.82,-765.37"/>
</g>
<!-- node0x56632d09e810 -->
<g id="node5" class="node">
<title>node0x56632d09e810</title>
<path fill="#e0e0e0" stroke="black" d="M712,-728.5C712,-728.5 885,-728.5 885,-728.5 891,-728.5 897,-734.5 897,-740.5 897,-740.5 897,-762.5 897,-762.5 897,-768.5 891,-774.5 885,-774.5 885,-774.5 712,-774.5 712,-774.5 706,-774.5 700,-768.5 700,-762.5 700,-762.5 700,-740.5 700,-740.5 700,-734.5 706,-728.5 712,-728.5"/>
<text text-anchor="middle" x="798.5" y="-759.3" font-family="Times,serif" font-size="14.00">type = 2 (OP)</text>
<polyline fill="none" stroke="black" points="700,-751.5 897,-751.5 "/>
<text text-anchor="middle" x="798.5" y="-736.3" font-family="Times,serif" font-size="14.00">value = &#39;&#39; SHUTUP &#39;&#39; (59)</text>
</g>
<!-- node0x56632d09eb10&#45;&gt;node0x56632d09e810 -->
<g id="edge4" class="edge">
<title>node0x56632d09eb10&#45;&gt;node0x56632d09e810</title>
<path fill="none" stroke="black" d="M798.5,-811.37C798.5,-803.15 798.5,-793.66 798.5,-784.73"/>
<polygon fill="black" stroke="black" points="802,-784.61 798.5,-774.61 795,-784.61 802,-784.61"/>
</g>
<!-- node0x56632d09ecf0 -->
<g id="node29" class="node">
<title>node0x56632d09ecf0</title>
<path fill="#755cf7" stroke="black" d="M1253.5,-728.5C1253.5,-728.5 1453.5,-728.5 1453.5,-728.5 1459.5,-728.5 1465.5,-734.5 1465.5,-740.5 1465.5,-740.5 1465.5,-762.5 1465.5,-762.5 1465.5,-768.5 1459.5,-774.5 1453.5,-774.5 1453.5,-774.5 1253.5,-774.5 1253.5,-774.5 1247.5,-774.5 1241.5,-768.5 1241.5,-762.5 1241.5,-762.5 1241.5,-740.5 1241.5,-740.5 1241.5,-734.5 1247.5,-728.5 1253.5,-728.5"/>
<text text-anchor="middle" x="1353.5" y="-759.3" font-family="Times,serif" font-size="14.00">type = 4 (FUNC)</text>
<polyline fill="none" stroke="black" points="1241.5,-751.5 1465.5,-751.5 "/>
<text text-anchor="middle" x="1353.5" y="-736.3" font-family="Times,serif" font-size="14.00">value = &#39;&#39; DEFINITION &#39;&#39; (68)</text>
</g>
<!-- node0x56632d09ed20&#45;&gt;node0x56632d09ecf0 -->
<g id="edge28" class="edge">
<title>node0x56632d09ed20&#45;&gt;node0x56632d09ecf0</title>
<path fill="none" stroke="black" d="M1262.66,-811.37C1277.54,-801.72 1295.14,-790.32 1310.87,-780.13"/>
<polygon fill="black" stroke="black" points="1312.9,-782.98 1319.38,-774.61 1309.09,-777.11 1312.9,-782.98"/>
</g>
<!-- node0x56632d09e660 -->
<g id="node6" class="node">
<title>node0x56632d09e660</title>
<path fill="#2ee31e" stroke="black" d="M82.5,-645.5C82.5,-645.5 224.5,-645.5 224.5,-645.5 230.5,-645.5 236.5,-651.5 236.5,-657.5 236.5,-657.5 236.5,-679.5 236.5,-679.5 236.5,-685.5 230.5,-691.5 224.5,-691.5 224.5,-691.5 82.5,-691.5 82.5,-691.5 76.5,-691.5 70.5,-685.5 70.5,-679.5 70.5,-679.5 70.5,-657.5 70.5,-657.5 70.5,-651.5 76.5,-645.5 82.5,-645.5"/>
<text text-anchor="middle" x="153.5" y="-676.3" font-family="Times,serif" font-size="14.00">type = 4 (FUNC)</text>
<polyline fill="none" stroke="black" points="70.5,-668.5 236.5,-668.5 "/>
<text text-anchor="middle" x="153.5" y="-653.3" font-family="Times,serif" font-size="14.00">value = &#39;&#39; carti &#39;&#39; (20)</text>
</g>
<!-- node0x56632d09e750&#45;&gt;node0x56632d09e660 -->
<g id="edge5" class="edge">
<title>node0x56632d09e750&#45;&gt;node0x56632d09e660</title>
<path fill="none" stroke="black" d="M277.05,-728.37C256.06,-718.37 231.09,-706.47 209.11,-696"/>
<polygon fill="black" stroke="black" points="210.43,-692.75 199.9,-691.61 207.42,-699.07 210.43,-692.75"/>
</g>
<!-- node0x56632d09e6c0 -->
<g id="node7" class="node">
<title>node0x56632d09e6c0</title>
<path fill="#feaadf" stroke="black" d="M267,-645.5C267,-645.5 380,-645.5 380,-645.5 386,-645.5 392,-651.5 392,-657.5 392,-657.5 392,-679.5 392,-679.5 392,-685.5 386,-691.5 380,-691.5 380,-691.5 267,-691.5 267,-691.5 261,-691.5 255,-685.5 255,-679.5 255,-679.5 255,-657.5 255,-657.5 255,-651.5 261,-645.5 267,-645.5"/>
<text text-anchor="middle" x="323.5" y="-676.3" font-family="Times,serif" font-size="14.00">type = 4 (FUNC)</text>
<polyline fill="none" stroke="black" points="255,-668.5 392,-668.5 "/>
<text text-anchor="middle" x="323.5" y="-653.3" font-family="Times,serif" font-size="14.00">value = &#39;&#39; , &#39;&#39; (44)</text>
</g>
<!-- node0x56632d09e750&#45;&gt;node0x56632d09e6c0 -->
<g id="edge6" class="edge">
<title>node0x56632d09e750&#45;&gt;node0x56632d09e6c0</title>
<path fill="none" stroke="black" d="M323.5,-728.37C323.5,-720.15 323.5,-710.66 323.5,-701.73"/>
<polygon fill="black" stroke="black" points="327,-701.61 323.5,-691.61 320,-701.61 327,-701.61"/>
</g>
<!-- node0x56632d09e7e0 -->
<g id="node11" class="node">
<title>node0x56632d09e7e0</title>
<path fill="#00ffdd" stroke="black" d="M653,-645.5C653,-645.5 774,-645.5 774,-645.5 780,-645.5 786,-651.5 786,-657.5 786,-657.5 786,-679.5 786,-679.5 786,-685.5 780,-691.5 774,-691.5 774,-691.5 653,-691.5 653,-691.5 647,-691.5 641,-685.5 641,-679.5 641,-679.5 641,-657.5 641,-657.5 641,-651.5 647,-645.5 653,-645.5"/>
<text text-anchor="middle" x="713.5" y="-676.3" font-family="Times,serif" font-size="14.00">type = 2 (OP)</text>
<polyline fill="none" stroke="black" points="641,-668.5 786,-668.5 "/>
<text text-anchor="middle" x="713.5" y="-653.3" font-family="Times,serif" font-size="14.00">value = &#39;&#39; = &#39;&#39; (61)</text>
</g>
<!-- node0x56632d09e810&#45;&gt;node0x56632d09e7e0 -->
<g id="edge10" class="edge">
<title>node0x56632d09e810&#45;&gt;node0x56632d09e7e0</title>
<path fill="none" stroke="black" d="M775.27,-728.37C765.62,-719.17 754.29,-708.37 743.98,-698.55"/>
<polygon fill="black" stroke="black" points="746.35,-695.97 736.7,-691.61 741.52,-701.04 746.35,-695.97"/>
</g>
<!-- node0x56632d09e8d0 -->
<g id="node12" class="node">
<title>node0x56632d09e8d0</title>
<path fill="#e0e0e0" stroke="black" d="M816,-645.5C816,-645.5 989,-645.5 989,-645.5 995,-645.5 1001,-651.5 1001,-657.5 1001,-657.5 1001,-679.5 1001,-679.5 1001,-685.5 995,-691.5 989,-691.5 989,-691.5 816,-691.5 816,-691.5 810,-691.5 804,-685.5 804,-679.5 804,-679.5 804,-657.5 804,-657.5 804,-651.5 810,-645.5 816,-645.5"/>
<text text-anchor="middle" x="902.5" y="-676.3" font-family="Times,serif" font-size="14.00">type = 2 (OP)</text>
<polyline fill="none" stroke="black" points="804,-668.5 1001,-668.5 "/>
<text text-anchor="middle" x="902.5" y="-653.3" font-family="Times,serif" font-size="14.00">value = &#39;&#39; SHUTUP &#39;&#39; (59)</text>
</g>
<!-- node0x56632d09e810&#45;&gt;node0x56632d09e8d0 -->
<g id="edge11" class="edge">
<title>node0x56632d09e810&#45;&gt;node0x56632d09e8d0</title>
<path fill="none" stroke="black" d="M826.92,-728.37C838.96,-718.99 853.13,-707.95 865.94,-697.98"/>
<polygon fill="black" stroke="black" points="868.38,-700.51 874.12,-691.61 864.08,-694.99 868.38,-700.51"/>
</g>
<!-- node0x56632d09e690 -->
<g id="node8" class="node">
<title>node0x56632d09e690</title>
<path fill="#ff5050" stroke="black" d="M12,-516.5C12,-516.5 225,-516.5 225,-516.5 231,-516.5 237,-522.5 237,-528.5 237,-528.5 237,-596.5 237,-596.5 237,-602.5 231,-608.5 225,-608.5 225,-608.5 12,-608.5 12,-608.5 6,-608.5 0,-602.5 0,-596.5 0,-596.5 0,-528.5 0,-528.5 0,-522.5 6,-516.5 12,-516.5"/>
<text text-anchor="middle" x="118.5" y="-593.3" font-family="Times,serif" font-size="14.00">type = 3 (ID)</text>
<polyline fill="none" stroke="black" points="0,-585.5 237,-585.5 "/>
<text text-anchor="middle" x="118.5" y="-570.3" font-family="Times,serif" font-size="14.00">name = &#39;&#39; void &#39;&#39;</text>
<polyline fill="none" stroke="black" points="0,-562.5 237,-562.5 "/>
<text text-anchor="middle" x="118.5" y="-547.3" font-family="Times,serif" font-size="14.00">number in name table = &#39;&#39; 21 &#39;&#39;</text>
<polyline fill="none" stroke="black" points="0,-539.5 237,-539.5 "/>
<text text-anchor="middle" x="118.5" y="-524.3" font-family="Times,serif" font-size="14.00">id_type = PARM</text>
</g>
<!-- node0x56632d09e6c0&#45;&gt;node0x56632d09e690 -->
<g id="edge7" class="edge">
<title>node0x56632d09e6c0&#45;&gt;node0x56632d09e690</title>
<path fill="none" stroke="black" d="M280.02,-645.44C261.43,-636.01 238.91,-624.58 216.65,-613.3"/>
<polygon fill="black" stroke="black" points="217.99,-610.05 207.48,-608.64 214.82,-616.29 217.99,-610.05"/>
</g>
<!-- node0x56632d09e720 -->
<g id="node9" class="node">
<title>node0x56632d09e720</title>
<path fill="#feaadf" stroke="black" d="M267,-539.5C267,-539.5 380,-539.5 380,-539.5 386,-539.5 392,-545.5 392,-551.5 392,-551.5 392,-573.5 392,-573.5 392,-579.5 386,-585.5 380,-585.5 380,-585.5 267,-585.5 267,-585.5 261,-585.5 255,-579.5 255,-573.5 255,-573.5 255,-551.5 255,-551.5 255,-545.5 261,-539.5 267,-539.5"/>
<text text-anchor="middle" x="323.5" y="-570.3" font-family="Times,serif" font-size="14.00">type = 4 (FUNC)</text>
<polyline fill="none" stroke="black" points="255,-562.5 392,-562.5 "/>
<text text-anchor="middle" x="323.5" y="-547.3" font-family="Times,serif" font-size="14.00">value = &#39;&#39; , &#39;&#39; (44)</text>
</g>
<!-- node0x56632d09e6c0&#45;&gt;node0x56632d09e720 -->
<g id="edge8" class="edge">
<title>node0x56632d09e6c0&#45;&gt;node0x56632d09e720</title>
<path fill="none" stroke="black" d="M323.5,-645.44C323.5,-630.97 323.5,-611.79 323.5,-595.63"/>
<polygon fill="black" stroke="black" points="327,-595.52 323.5,-585.52 320,-595.52 327,-595.52"/>
</g>
<!-- node0x56632d09e6f0 -->
<g id="node10" class="node">
<title>node0x56632d09e6f0</title>
<path fill="#ff5050" stroke="black" d="M217,-387.5C217,-387.5 430,-387.5 430,-387.5 436,-387.5 442,-393.5 442,-399.5 442,-399.5 442,-467.5 442,-467.5 442,-473.5 436,-479.5 430,-479.5 430,-479.5 217,-479.5 217,-479.5 211,-479.5 205,-473.5 205,-467.5 205,-467.5 205,-399.5 205,-399.5 205,-393.5 211,-387.5 217,-387.5"/>
<text text-anchor="middle" x="323.5" y="-464.3" font-family="Times,serif" font-size="14.00">type = 3 (ID)</text>
<polyline fill="none" stroke="black" points="205,-456.5 442,-456.5 "/>
<text text-anchor="middle" x="323.5" y="-441.3" font-family="Times,serif" font-size="14.00">name = &#39;&#39; loh &#39;&#39;</text>
<polyline fill="none" stroke="black" points="205,-433.5 442,-433.5 "/>
<text text-anchor="middle" x="323.5" y="-418.3" font-family="Times,serif" font-size="14.00">number in name table = &#39;&#39; 22 &#39;&#39;</text>
<polyline fill="none" stroke="black" points="205,-410.5 442,-410.5 "/>
<text text-anchor="middle" x="323.5" y="-395.3" font-family="Times,serif" font-size="14.00">id_type = PARM</text>
</g>
<!-- node0x56632d09e720&#45;&gt;node0x56632d09e6f0 -->
<g id="edge9" class="edge">
<title>node0x56632d09e720&#45;&gt;node0x56632d09e6f0</title>
<path fill="none" stroke="black" d="M323.5,-539.38C323.5,-525.66 323.5,-507.37 323.5,-489.91"/>
<polygon fill="black" stroke="black" points="327,-489.76 323.5,-479.76 320,-489.76 327,-489.76"/>
</g>
<!-- node0x56632d09e780 -->
<g id="node13" class="node">
<title>node0x56632d09e780</title>
<path fill="#ff5050" stroke="black" d="M422,-516.5C422,-516.5 635,-516.5 635,-516.5 641,-516.5 647,-522.5 647,-528.5 647,-528.5 647,-596.5 647,-596.5 647,-602.5 641,-608.5 635,-608.5 635,-608.5 422,-608.5 422,-608.5 416,-608.5 410,-602.5 410,-596.5 410,-596.5 410,-528.5 410,-528.5 410,-522.5 416,-516.5 422,-516.5"/>
<text text-anchor="middle" x="528.5" y="-593.3" font-family="Times,serif" font-size="14.00">type = 3 (ID)</text>
<polyline fill="none" stroke="black" points="410,-585.5 647,-585.5 "/>
<text text-anchor="middle" x="528.5" y="-570.3" font-family="Times,serif" font-size="14.00">name = &#39;&#39; bro &#39;&#39;</text>
<polyline fill="none" stroke="black" points="410,-562.5 647,-562.5 "/>
<text text-anchor="middle" x="528.5" y="-547.3" font-family="Times,serif" font-size="14.00">number in name table = &#39;&#39; 23 &#39;&#39;</text>
<polyline fill="none" stroke="black" points="410,-539.5 647,-539.5 "/>
<text text-anchor="middle" x="528.5" y="-524.3" font-family="Times,serif" font-size="14.00">id_type = LOCL</text>
</g>
<!-- node0x56632d09e7e0&#45;&gt;node0x56632d09e780 -->
<g id="edge12" class="edge">
<title>node0x56632d09e7e0&#45;&gt;node0x56632d09e780</title>
<path fill="none" stroke="black" d="M674.27,-645.44C657.64,-636.1 637.52,-624.79 617.61,-613.6"/>
<polygon fill="black" stroke="black" points="619.24,-610.49 608.8,-608.64 615.8,-616.59 619.24,-610.49"/>
</g>
<!-- node0x56632d09e7b0 -->
<g id="node14" class="node">
<title>node0x56632d09e7b0</title>
<path fill="#ffd700" stroke="black" d="M677,-539.5C677,-539.5 784,-539.5 784,-539.5 790,-539.5 796,-545.5 796,-551.5 796,-551.5 796,-573.5 796,-573.5 796,-579.5 790,-585.5 784,-585.5 784,-585.5 677,-585.5 677,-585.5 671,-585.5 665,-579.5 665,-573.5 665,-573.5 665,-551.5 665,-551.5 665,-545.5 671,-539.5 677,-539.5"/>
<text text-anchor="middle" x="730.5" y="-570.3" font-family="Times,serif" font-size="14.00">type = 1 (NUM)</text>
<polyline fill="none" stroke="black" points="665,-562.5 796,-562.5 "/>
<text text-anchor="middle" x="730.5" y="-547.3" font-family="Times,serif" font-size="14.00">value = &#39;&#39; 25 &#39;&#39;</text>
</g>
<!-- node0x56632d09e7e0&#45;&gt;node0x56632d09e7b0 -->
<g id="edge13" class="edge">
<title>node0x56632d09e7e0&#45;&gt;node0x56632d09e7b0</title>
<path fill="none" stroke="black" d="M717.11,-645.44C719.47,-630.97 722.61,-611.79 725.25,-595.63"/>
<polygon fill="black" stroke="black" points="728.74,-595.96 726.9,-585.52 721.83,-594.83 728.74,-595.96"/>
</g>
<!-- node0x56632d09e8a0 -->
<g id="node15" class="node">
<title>node0x56632d09e8a0</title>
<path fill="#00ffdd" stroke="black" d="M826,-539.5C826,-539.5 947,-539.5 947,-539.5 953,-539.5 959,-545.5 959,-551.5 959,-551.5 959,-573.5 959,-573.5 959,-579.5 953,-585.5 947,-585.5 947,-585.5 826,-585.5 826,-585.5 820,-585.5 814,-579.5 814,-573.5 814,-573.5 814,-551.5 814,-551.5 814,-545.5 820,-539.5 826,-539.5"/>
<text text-anchor="middle" x="886.5" y="-570.3" font-family="Times,serif" font-size="14.00">type = 2 (OP)</text>
<polyline fill="none" stroke="black" points="814,-562.5 959,-562.5 "/>
<text text-anchor="middle" x="886.5" y="-547.3" font-family="Times,serif" font-size="14.00">value = &#39;&#39; = &#39;&#39; (61)</text>
</g>
<!-- node0x56632d09e8d0&#45;&gt;node0x56632d09e8a0 -->
<g id="edge14" class="edge">
<title>node0x56632d09e8d0&#45;&gt;node0x56632d09e8a0</title>
<path fill="none" stroke="black" d="M899.11,-645.44C896.88,-630.97 893.93,-611.79 891.44,-595.63"/>
<polygon fill="black" stroke="black" points="894.87,-594.88 889.89,-585.52 887.95,-595.94 894.87,-594.88"/>
</g>
<!-- node0x56632d09ea20 -->
<g id="node16" class="node">
<title>node0x56632d09ea20</title>
<path fill="#e0e0e0" stroke="black" d="M989,-539.5C989,-539.5 1162,-539.5 1162,-539.5 1168,-539.5 1174,-545.5 1174,-551.5 1174,-551.5 1174,-573.5 1174,-573.5 1174,-579.5 1168,-585.5 1162,-585.5 1162,-585.5 989,-585.5 989,-585.5 983,-585.5 977,-579.5 977,-573.5 977,-573.5 977,-551.5 977,-551.5 977,-545.5 983,-539.5 989,-539.5"/>
<text text-anchor="middle" x="1075.5" y="-570.3" font-family="Times,serif" font-size="14.00">type = 2 (OP)</text>
<polyline fill="none" stroke="black" points="977,-562.5 1174,-562.5 "/>
<text text-anchor="middle" x="1075.5" y="-547.3" font-family="Times,serif" font-size="14.00">value = &#39;&#39; SHUTUP &#39;&#39; (59)</text>
</g>
<!-- node0x56632d09e8d0&#45;&gt;node0x56632d09ea20 -->
<g id="edge15" class="edge">
<title>node0x56632d09e8d0&#45;&gt;node0x56632d09ea20</title>
<path fill="none" stroke="black" d="M939.19,-645.44C965.68,-629.52 1001.63,-607.91 1029.96,-590.88"/>
<polygon fill="black" stroke="black" points="1032.1,-593.68 1038.86,-585.52 1028.49,-587.68 1032.1,-593.68"/>
</g>
<!-- node0x56632d09e840 -->
<g id="node17" class="node">
<title>node0x56632d09e840</title>
<path fill="#ff5050" stroke="black" d="M578,-387.5C578,-387.5 791,-387.5 791,-387.5 797,-387.5 803,-393.5 803,-399.5 803,-399.5 803,-467.5 803,-467.5 803,-473.5 797,-479.5 791,-479.5 791,-479.5 578,-479.5 578,-479.5 572,-479.5 566,-473.5 566,-467.5 566,-467.5 566,-399.5 566,-399.5 566,-393.5 572,-387.5 578,-387.5"/>
<text text-anchor="middle" x="684.5" y="-464.3" font-family="Times,serif" font-size="14.00">type = 3 (ID)</text>
<polyline fill="none" stroke="black" points="566,-456.5 803,-456.5 "/>
<text text-anchor="middle" x="684.5" y="-441.3" font-family="Times,serif" font-size="14.00">name = &#39;&#39; dude &#39;&#39;</text>
<polyline fill="none" stroke="black" points="566,-433.5 803,-433.5 "/>
<text text-anchor="middle" x="684.5" y="-418.3" font-family="Times,serif" font-size="14.00">number in name table = &#39;&#39; 24 &#39;&#39;</text>
<polyline fill="none" stroke="black" points="566,-410.5 803,-410.5 "/>
<text text-anchor="middle" x="684.5" y="-395.3" font-family="Times,serif" font-size="14.00">id_type = PARM</text>
</g>
<!-- node0x56632d09e8a0&#45;&gt;node0x56632d09e840 -->
<g id="edge16" class="edge">
<title>node0x56632d09e8a0&#45;&gt;node0x56632d09e840</title>
<path fill="none" stroke="black" d="M851.31,-539.38C827.55,-524.44 795.17,-504.08 765.27,-485.28"/>
<polygon fill="black" stroke="black" points="766.82,-482.12 756.49,-479.76 763.09,-488.05 766.82,-482.12"/>
</g>
<!-- node0x56632d09e870 -->
<g id="node18" class="node">
<title>node0x56632d09e870</title>
<path fill="#ffd700" stroke="black" d="M833,-410.5C833,-410.5 940,-410.5 940,-410.5 946,-410.5 952,-416.5 952,-422.5 952,-422.5 952,-444.5 952,-444.5 952,-450.5 946,-456.5 940,-456.5 940,-456.5 833,-456.5 833,-456.5 827,-456.5 821,-450.5 821,-444.5 821,-444.5 821,-422.5 821,-422.5 821,-416.5 827,-410.5 833,-410.5"/>
<text text-anchor="middle" x="886.5" y="-441.3" font-family="Times,serif" font-size="14.00">type = 1 (NUM)</text>
<polyline fill="none" stroke="black" points="821,-433.5 952,-433.5 "/>
<text text-anchor="middle" x="886.5" y="-418.3" font-family="Times,serif" font-size="14.00">value = &#39;&#39; 10 &#39;&#39;</text>
</g>
<!-- node0x56632d09e8a0&#45;&gt;node0x56632d09e870 -->
<g id="edge17" class="edge">
<title>node0x56632d09e8a0&#45;&gt;node0x56632d09e870</title>
<path fill="none" stroke="black" d="M886.5,-539.38C886.5,-519.38 886.5,-489.68 886.5,-466.98"/>
<polygon fill="black" stroke="black" points="890,-466.79 886.5,-456.79 883,-466.79 890,-466.79"/>
</g>
<!-- node0x56632d09e9f0 -->
<g id="node19" class="node">
<title>node0x56632d09e9f0</title>
<path fill="#00ffdd" stroke="black" d="M982,-410.5C982,-410.5 1103,-410.5 1103,-410.5 1109,-410.5 1115,-416.5 1115,-422.5 1115,-422.5 1115,-444.5 1115,-444.5 1115,-450.5 1109,-456.5 1103,-456.5 1103,-456.5 982,-456.5 982,-456.5 976,-456.5 970,-450.5 970,-444.5 970,-444.5 970,-422.5 970,-422.5 970,-416.5 976,-410.5 982,-410.5"/>
<text text-anchor="middle" x="1042.5" y="-441.3" font-family="Times,serif" font-size="14.00">type = 2 (OP)</text>
<polyline fill="none" stroke="black" points="970,-433.5 1115,-433.5 "/>
<text text-anchor="middle" x="1042.5" y="-418.3" font-family="Times,serif" font-size="14.00">value = &#39;&#39; = &#39;&#39; (61)</text>
</g>
<!-- node0x56632d09ea20&#45;&gt;node0x56632d09e9f0 -->
<g id="edge18" class="edge">
<title>node0x56632d09ea20&#45;&gt;node0x56632d09e9f0</title>
<path fill="none" stroke="black" d="M1069.75,-539.38C1064.53,-519.29 1056.77,-489.41 1050.86,-466.68"/>
<polygon fill="black" stroke="black" points="1054.2,-465.59 1048.29,-456.79 1047.42,-467.35 1054.2,-465.59"/>
</g>
<!-- node0x56632d09eae0 -->
<g id="node20" class="node">
<title>node0x56632d09eae0</title>
<path fill="#e0e0e0" stroke="black" d="M1145,-410.5C1145,-410.5 1318,-410.5 1318,-410.5 1324,-410.5 1330,-416.5 1330,-422.5 1330,-422.5 1330,-444.5 1330,-444.5 1330,-450.5 1324,-456.5 1318,-456.5 1318,-456.5 1145,-456.5 1145,-456.5 1139,-456.5 1133,-450.5 1133,-444.5 1133,-444.5 1133,-422.5 1133,-422.5 1133,-416.5 1139,-410.5 1145,-410.5"/>
<text text-anchor="middle" x="1231.5" y="-441.3" font-family="Times,serif" font-size="14.00">type = 2 (OP)</text>
<polyline fill="none" stroke="black" points="1133,-433.5 1330,-433.5 "/>
<text text-anchor="middle" x="1231.5" y="-418.3" font-family="Times,serif" font-size="14.00">value = &#39;&#39; SHUTUP &#39;&#39; (59)</text>
</g>
<!-- node0x56632d09ea20&#45;&gt;node0x56632d09eae0 -->
<g id="edge19" class="edge">
<title>node0x56632d09ea20&#45;&gt;node0x56632d09eae0</title>
<path fill="none" stroke="black" d="M1102.67,-539.38C1128.65,-518.23 1167.96,-486.23 1196.32,-463.14"/>
<polygon fill="black" stroke="black" points="1198.83,-465.61 1204.38,-456.58 1194.41,-460.18 1198.83,-465.61"/>
</g>
<!-- node0x56632d09e900 -->
<g id="node21" class="node">
<title>node0x56632d09e900</title>
<path fill="#ff5050" stroke="black" d="M714,-258.5C714,-258.5 927,-258.5 927,-258.5 933,-258.5 939,-264.5 939,-270.5 939,-270.5 939,-338.5 939,-338.5 939,-344.5 933,-350.5 927,-350.5 927,-350.5 714,-350.5 714,-350.5 708,-350.5 702,-344.5 702,-338.5 702,-338.5 702,-270.5 702,-270.5 702,-264.5 708,-258.5 714,-258.5"/>
<text text-anchor="middle" x="820.5" y="-335.3" font-family="Times,serif" font-size="14.00">type = 3 (ID)</text>
<polyline fill="none" stroke="black" points="702,-327.5 939,-327.5 "/>
<text text-anchor="middle" x="820.5" y="-312.3" font-family="Times,serif" font-size="14.00">name = &#39;&#39; bro &#39;&#39;</text>
<polyline fill="none" stroke="black" points="702,-304.5 939,-304.5 "/>
<text text-anchor="middle" x="820.5" y="-289.3" font-family="Times,serif" font-size="14.00">number in name table = &#39;&#39; 23 &#39;&#39;</text>
<polyline fill="none" stroke="black" points="702,-281.5 939,-281.5 "/>
<text text-anchor="middle" x="820.5" y="-266.3" font-family="Times,serif" font-size="14.00">id_type = LOCL</text>
</g>
<!-- node0x56632d09e9f0&#45;&gt;node0x56632d09e900 -->
<g id="edge20" class="edge">
<title>node0x56632d09e9f0&#45;&gt;node0x56632d09e900</title>
<path fill="none" stroke="black" d="M1003.83,-410.38C977.49,-395.31 941.52,-374.73 908.42,-355.79"/>
<polygon fill="black" stroke="black" points="910.04,-352.69 899.62,-350.76 906.56,-358.77 910.04,-352.69"/>
</g>
<!-- node0x56632d09e9c0 -->
<g id="node22" class="node">
<title>node0x56632d09e9c0</title>
<path fill="#f069f5" stroke="black" d="M969,-281.5C969,-281.5 1116,-281.5 1116,-281.5 1122,-281.5 1128,-287.5 1128,-293.5 1128,-293.5 1128,-315.5 1128,-315.5 1128,-321.5 1122,-327.5 1116,-327.5 1116,-327.5 969,-327.5 969,-327.5 963,-327.5 957,-321.5 957,-315.5 957,-315.5 957,-293.5 957,-293.5 957,-287.5 963,-281.5 969,-281.5"/>
<text text-anchor="middle" x="1042.5" y="-312.3" font-family="Times,serif" font-size="14.00">type = 4 (FUNC)</text>
<polyline fill="none" stroke="black" points="957,-304.5 1128,-304.5 "/>
<text text-anchor="middle" x="1042.5" y="-289.3" font-family="Times,serif" font-size="14.00">value = &#39;&#39; CALL &#39;&#39; (67)</text>
</g>
<!-- node0x56632d09e9f0&#45;&gt;node0x56632d09e9c0 -->
<g id="edge21" class="edge">
<title>node0x56632d09e9f0&#45;&gt;node0x56632d09e9c0</title>
<path fill="none" stroke="black" d="M1042.5,-410.38C1042.5,-390.38 1042.5,-360.68 1042.5,-337.98"/>
<polygon fill="black" stroke="black" points="1046,-337.79 1042.5,-327.79 1039,-337.79 1046,-337.79"/>
</g>
<!-- node0x56632d09eab0 -->
<g id="node26" class="node">
<title>node0x56632d09eab0</title>
<path fill="#00ffdd" stroke="black" d="M1187,-281.5C1187,-281.5 1308,-281.5 1308,-281.5 1314,-281.5 1320,-287.5 1320,-293.5 1320,-293.5 1320,-315.5 1320,-315.5 1320,-321.5 1314,-327.5 1308,-327.5 1308,-327.5 1187,-327.5 1187,-327.5 1181,-327.5 1175,-321.5 1175,-315.5 1175,-315.5 1175,-293.5 1175,-293.5 1175,-287.5 1181,-281.5 1187,-281.5"/>
<text text-anchor="middle" x="1247.5" y="-312.3" font-family="Times,serif" font-size="14.00">type = 2 (OP)</text>
<polyline fill="none" stroke="black" points="1175,-304.5 1320,-304.5 "/>
<text text-anchor="middle" x="1247.5" y="-289.3" font-family="Times,serif" font-size="14.00">value = &#39;&#39; = &#39;&#39; (61)</text>
</g>
<!-- node0x56632d09eae0&#45;&gt;node0x56632d09eab0 -->
<g id="edge25" class="edge">
<title>node0x56632d09eae0&#45;&gt;node0x56632d09eab0</title>
<path fill="none" stroke="black" d="M1234.29,-410.38C1236.81,-390.38 1240.55,-360.68 1243.41,-337.98"/>
<polygon fill="black" stroke="black" points="1246.91,-338.15 1244.69,-327.79 1239.97,-337.28 1246.91,-338.15"/>
</g>
<!-- node0x56632d09e930 -->
<g id="node23" class="node">
<title>node0x56632d09e930</title>
<path fill="#2ee31e" stroke="black" d="M805.5,-152.5C805.5,-152.5 943.5,-152.5 943.5,-152.5 949.5,-152.5 955.5,-158.5 955.5,-164.5 955.5,-164.5 955.5,-186.5 955.5,-186.5 955.5,-192.5 949.5,-198.5 943.5,-198.5 943.5,-198.5 805.5,-198.5 805.5,-198.5 799.5,-198.5 793.5,-192.5 793.5,-186.5 793.5,-186.5 793.5,-164.5 793.5,-164.5 793.5,-158.5 799.5,-152.5 805.5,-152.5"/>
<text text-anchor="middle" x="874.5" y="-183.3" font-family="Times,serif" font-size="14.00">type = 4 (FUNC)</text>
<polyline fill="none" stroke="black" points="793.5,-175.5 955.5,-175.5 "/>
<text text-anchor="middle" x="874.5" y="-160.3" font-family="Times,serif" font-size="14.00">value = &#39;&#39; eval &#39;&#39; (25)</text>
</g>
<!-- node0x56632d09e9c0&#45;&gt;node0x56632d09e930 -->
<g id="edge22" class="edge">
<title>node0x56632d09e9c0&#45;&gt;node0x56632d09e930</title>
<path fill="none" stroke="black" d="M1013.24,-281.38C985.14,-260.14 942.56,-227.95 911.99,-204.84"/>
<polygon fill="black" stroke="black" points="913.8,-201.82 903.71,-198.58 909.58,-207.4 913.8,-201.82"/>
</g>
<!-- node0x56632d09e990 -->
<g id="node24" class="node">
<title>node0x56632d09e990</title>
<path fill="#feaadf" stroke="black" d="M986,-152.5C986,-152.5 1099,-152.5 1099,-152.5 1105,-152.5 1111,-158.5 1111,-164.5 1111,-164.5 1111,-186.5 1111,-186.5 1111,-192.5 1105,-198.5 1099,-198.5 1099,-198.5 986,-198.5 986,-198.5 980,-198.5 974,-192.5 974,-186.5 974,-186.5 974,-164.5 974,-164.5 974,-158.5 980,-152.5 986,-152.5"/>
<text text-anchor="middle" x="1042.5" y="-183.3" font-family="Times,serif" font-size="14.00">type = 4 (FUNC)</text>
<polyline fill="none" stroke="black" points="974,-175.5 1111,-175.5 "/>
<text text-anchor="middle" x="1042.5" y="-160.3" font-family="Times,serif" font-size="14.00">value = &#39;&#39; , &#39;&#39; (44)</text>
</g>
<!-- node0x56632d09e9c0&#45;&gt;node0x56632d09e990 -->
<g id="edge23" class="edge">
<title>node0x56632d09e9c0&#45;&gt;node0x56632d09e990</title>
<path fill="none" stroke="black" d="M1042.5,-281.38C1042.5,-261.38 1042.5,-231.68 1042.5,-208.98"/>
<polygon fill="black" stroke="black" points="1046,-208.79 1042.5,-198.79 1039,-208.79 1046,-208.79"/>
</g>
<!-- node0x56632d09e960 -->
<g id="node25" class="node">
<title>node0x56632d09e960</title>
<path fill="#ff5050" stroke="black" d="M936,-0.5C936,-0.5 1149,-0.5 1149,-0.5 1155,-0.5 1161,-6.5 1161,-12.5 1161,-12.5 1161,-80.5 1161,-80.5 1161,-86.5 1155,-92.5 1149,-92.5 1149,-92.5 936,-92.5 936,-92.5 930,-92.5 924,-86.5 924,-80.5 924,-80.5 924,-12.5 924,-12.5 924,-6.5 930,-0.5 936,-0.5"/>
<text text-anchor="middle" x="1042.5" y="-77.3" font-family="Times,serif" font-size="14.00">type = 3 (ID)</text>
<polyline fill="none" stroke="black" points="924,-69.5 1161,-69.5 "/>
<text text-anchor="middle" x="1042.5" y="-54.3" font-family="Times,serif" font-size="14.00">name = &#39;&#39; dude &#39;&#39;</text>
<polyline fill="none" stroke="black" points="924,-46.5 1161,-46.5 "/>
<text text-anchor="middle" x="1042.5" y="-31.3" font-family="Times,serif" font-size="14.00">number in name table = &#39;&#39; 24 &#39;&#39;</text>
<polyline fill="none" stroke="black" points="924,-23.5 1161,-23.5 "/>
<text text-anchor="middle" x="1042.5" y="-8.3" font-family="Times,serif" font-size="14.00">id_type = PARM</text>
</g>
<!-- node0x56632d09e990&#45;&gt;node0x56632d09e960 -->
<g id="edge24" class="edge">
<title>node0x56632d09e990&#45;&gt;node0x56632d09e960</title>
<path fill="none" stroke="black" d="M1042.5,-152.38C1042.5,-138.66 1042.5,-120.37 1042.5,-102.91"/>
<polygon fill="black" stroke="black" points="1046,-102.76 1042.5,-92.76 1039,-102.76 1046,-102.76"/>
</g>
<!-- node0x56632d09ea50 -->
<g id="node27" class="node">
<title>node0x56632d09ea50</title>
<path fill="#ff5050" stroke="black" d="M1141,-129.5C1141,-129.5 1354,-129.5 1354,-129.5 1360,-129.5 1366,-135.5 1366,-141.5 1366,-141.5 1366,-209.5 1366,-209.5 1366,-215.5 1360,-221.5 1354,-221.5 1354,-221.5 1141,-221.5 1141,-221.5 1135,-221.5 1129,-215.5 1129,-209.5 1129,-209.5 1129,-141.5 1129,-141.5 1129,-135.5 1135,-129.5 1141,-129.5"/>
<text text-anchor="middle" x="1247.5" y="-206.3" font-family="Times,serif" font-size="14.00">type = 3 (ID)</text>
<polyline fill="none" stroke="black" points="1129,-198.5 1366,-198.5 "/>
<text text-anchor="middle" x="1247.5" y="-183.3" font-family="Times,serif" font-size="14.00">name = &#39;&#39; bro &#39;&#39;</text>
<polyline fill="none" stroke="black" points="1129,-175.5 1366,-175.5 "/>
<text text-anchor="middle" x="1247.5" y="-160.3" font-family="Times,serif" font-size="14.00">number in name table = &#39;&#39; 23 &#39;&#39;</text>
<polyline fill="none" stroke="black" points="1129,-152.5 1366,-152.5 "/>
<text text-anchor="middle" x="1247.5" y="-137.3" font-family="Times,serif" font-size="14.00">id_type = LOCL</text>
</g>
<!-- node0x56632d09eab0&#45;&gt;node0x56632d09ea50 -->
<g id="edge26" class="edge">
<title>node0x56632d09eab0&#45;&gt;node0x56632d09ea50</title>
<path fill="none" stroke="black" d="M1247.5,-281.38C1247.5,-267.66 1247.5,-249.37 1247.5,-231.91"/>
<polygon fill="black" stroke="black" points="1251,-231.76 1247.5,-221.76 1244,-231.76 1251,-231.76"/>
</g>
<!-- node0x56632d09ea80 -->
<g id="node28" class="node">
<title>node0x56632d09ea80</title>
<path fill="#ff5050" stroke="black" d="M1396,-129.5C1396,-129.5 1609,-129.5 1609,-129.5 1615,-129.5 1621,-135.5 1621,-141.5 1621,-141.5 1621,-209.5 1621,-209.5 1621,-215.5 1615,-221.5 1609,-221.5 1609,-221.5 1396,-221.5 1396,-221.5 1390,-221.5 1384,-215.5 1384,-209.5 1384,-209.5 1384,-141.5 1384,-141.5 1384,-135.5 1390,-129.5 1396,-129.5"/>
<text text-anchor="middle" x="1502.5" y="-206.3" font-family="Times,serif" font-size="14.00">type = 3 (ID)</text>
<polyline fill="none" stroke="black" points="1384,-198.5 1621,-198.5 "/>
<text text-anchor="middle" x="1502.5" y="-183.3" font-family="Times,serif" font-size="14.00">name = &#39;&#39; bro &#39;&#39;</text>
<polyline fill="none" stroke="black" points="1384,-175.5 1621,-175.5 "/>
<text text-anchor="middle" x="1502.5" y="-160.3" font-family="Times,serif" font-size="14.00">number in name table = &#39;&#39; 23 &#39;&#39;</text>
<polyline fill="none" stroke="black" points="1384,-152.5 1621,-152.5 "/>
<text text-anchor="middle" x="1502.5" y="-137.3" font-family="Times,serif" font-size="14.00">id_type = LOCL</text>
</g>
<!-- node0x56632d09eab0&#45;&gt;node0x56632d09ea80 -->
<g id="edge27" class="edge">
<title>node0x56632d09eab0&#45;&gt;node0x56632d09ea80</title>
<path fill="none" stroke="black" d="M1291.92,-281.38C1322.5,-266.15 1364.38,-245.29 1402.73,-226.19"/>
<polygon fill="black" stroke="black" points="1404.49,-229.22 1411.88,-221.63 1401.37,-222.96 1404.49,-229.22"/>
</g>
<!-- node0x56632d09ec00 -->
<g id="node30" class="node">
<title>node0x56632d09ec00</title>
<path fill="#f069f5" stroke="black" d="M1280,-645.5C1280,-645.5 1427,-645.5 1427,-645.5 1433,-645.5 1439,-651.5 1439,-657.5 1439,-657.5 1439,-679.5 1439,-679.5 1439,-685.5 1433,-691.5 1427,-691.5 1427,-691.5 1280,-691.5 1280,-691.5 1274,-691.5 1268,-685.5 1268,-679.5 1268,-679.5 1268,-657.5 1268,-657.5 1268,-651.5 1274,-645.5 1280,-645.5"/>
<text text-anchor="middle" x="1353.5" y="-676.3" font-family="Times,serif" font-size="14.00">type = 4 (FUNC)</text>
<polyline fill="none" stroke="black" points="1268,-668.5 1439,-668.5 "/>
<text text-anchor="middle" x="1353.5" y="-653.3" font-family="Times,serif" font-size="14.00">value = &#39;&#39; CALL &#39;&#39; (67)</text>
</g>
<!-- node0x56632d09ecf0&#45;&gt;node0x56632d09ec00 -->
<g id="edge29" class="edge">
<title>node0x56632d09ecf0&#45;&gt;node0x56632d09ec00</title>
<path fill="none" stroke="black" d="M1353.5,-728.37C1353.5,-720.15 1353.5,-710.66 1353.5,-701.73"/>
<polygon fill="black" stroke="black" points="1357,-701.61 1353.5,-691.61 1350,-701.61 1357,-701.61"/>
</g>
<!-- node0x56632d09ecc0 -->
<g id="node31" class="node">
<title>node0x56632d09ecc0</title>
<path fill="#e0e0e0" stroke="black" d="M1579,-645.5C1579,-645.5 1752,-645.5 1752,-645.5 1758,-645.5 1764,-651.5 1764,-657.5 1764,-657.5 1764,-679.5 1764,-679.5 1764,-685.5 1758,-691.5 1752,-691.5 1752,-691.5 1579,-691.5 1579,-691.5 1573,-691.5 1567,-685.5 1567,-679.5 1567,-679.5 1567,-657.5 1567,-657.5 1567,-651.5 1573,-645.5 1579,-645.5"/>
<text text-anchor="middle" x="1665.5" y="-676.3" font-family="Times,serif" font-size="14.00">type = 2 (OP)</text>
<polyline fill="none" stroke="black" points="1567,-668.5 1764,-668.5 "/>
<text text-anchor="middle" x="1665.5" y="-653.3" font-family="Times,serif" font-size="14.00">value = &#39;&#39; SHUTUP &#39;&#39; (59)</text>
</g>
<!-- node0x56632d09ecf0&#45;&gt;node0x56632d09ecc0 -->
<g id="edge30" class="edge">
<title>node0x56632d09ecf0&#45;&gt;node0x56632d09ecc0</title>
<path fill="none" stroke="black" d="M1438.34,-728.47C1479.36,-717.83 1528.72,-705.01 1570.94,-694.05"/>
<polygon fill="black" stroke="black" points="1571.87,-697.42 1580.67,-691.52 1570.11,-690.65 1571.87,-697.42"/>
</g>
<!-- node0x56632d09eb70 -->
<g id="node32" class="node">
<title>node0x56632d09eb70</title>
<path fill="#2ee31e" stroke="black" d="M1229.5,-539.5C1229.5,-539.5 1367.5,-539.5 1367.5,-539.5 1373.5,-539.5 1379.5,-545.5 1379.5,-551.5 1379.5,-551.5 1379.5,-573.5 1379.5,-573.5 1379.5,-579.5 1373.5,-585.5 1367.5,-585.5 1367.5,-585.5 1229.5,-585.5 1229.5,-585.5 1223.5,-585.5 1217.5,-579.5 1217.5,-573.5 1217.5,-573.5 1217.5,-551.5 1217.5,-551.5 1217.5,-545.5 1223.5,-539.5 1229.5,-539.5"/>
<text text-anchor="middle" x="1298.5" y="-570.3" font-family="Times,serif" font-size="14.00">type = 4 (FUNC)</text>
<polyline fill="none" stroke="black" points="1217.5,-562.5 1379.5,-562.5 "/>
<text text-anchor="middle" x="1298.5" y="-547.3" font-family="Times,serif" font-size="14.00">value = &#39;&#39; eval &#39;&#39; (25)</text>
</g>
<!-- node0x56632d09ec00&#45;&gt;node0x56632d09eb70 -->
<g id="edge31" class="edge">
<title>node0x56632d09ec00&#45;&gt;node0x56632d09eb70</title>
<path fill="none" stroke="black" d="M1341.84,-645.44C1334.03,-630.69 1323.65,-611.06 1315,-594.71"/>
<polygon fill="black" stroke="black" points="1317.92,-592.73 1310.15,-585.52 1311.73,-596 1317.92,-592.73"/>
</g>
<!-- node0x56632d09ebd0 -->
<g id="node33" class="node">
<title>node0x56632d09ebd0</title>
<path fill="#feaadf" stroke="black" d="M1410,-539.5C1410,-539.5 1523,-539.5 1523,-539.5 1529,-539.5 1535,-545.5 1535,-551.5 1535,-551.5 1535,-573.5 1535,-573.5 1535,-579.5 1529,-585.5 1523,-585.5 1523,-585.5 1410,-585.5 1410,-585.5 1404,-585.5 1398,-579.5 1398,-573.5 1398,-573.5 1398,-551.5 1398,-551.5 1398,-545.5 1404,-539.5 1410,-539.5"/>
<text text-anchor="middle" x="1466.5" y="-570.3" font-family="Times,serif" font-size="14.00">type = 4 (FUNC)</text>
<polyline fill="none" stroke="black" points="1398,-562.5 1535,-562.5 "/>
<text text-anchor="middle" x="1466.5" y="-547.3" font-family="Times,serif" font-size="14.00">value = &#39;&#39; , &#39;&#39; (44)</text>
</g>
<!-- node0x56632d09ec00&#45;&gt;node0x56632d09ebd0 -->
<g id="edge32" class="edge">
<title>node0x56632d09ec00&#45;&gt;node0x56632d09ebd0</title>
<path fill="none" stroke="black" d="M1377.46,-645.44C1394.24,-630 1416.83,-609.21 1435.06,-592.44"/>
<polygon fill="black" stroke="black" points="1437.58,-594.87 1442.57,-585.52 1432.84,-589.72 1437.58,-594.87"/>
</g>
<!-- node0x56632d09ec90 -->
<g id="node35" class="node">
<title>node0x56632d09ec90</title>
<path fill="#00ffdd" stroke="black" d="M1661,-539.5C1661,-539.5 1782,-539.5 1782,-539.5 1788,-539.5 1794,-545.5 1794,-551.5 1794,-551.5 1794,-573.5 1794,-573.5 1794,-579.5 1788,-585.5 1782,-585.5 1782,-585.5 1661,-585.5 1661,-585.5 1655,-585.5 1649,-579.5 1649,-573.5 1649,-573.5 1649,-551.5 1649,-551.5 1649,-545.5 1655,-539.5 1661,-539.5"/>
<text text-anchor="middle" x="1721.5" y="-570.3" font-family="Times,serif" font-size="14.00">type = 2 (OP)</text>
<polyline fill="none" stroke="black" points="1649,-562.5 1794,-562.5 "/>
<text text-anchor="middle" x="1721.5" y="-547.3" font-family="Times,serif" font-size="14.00">value = &#39;&#39; = &#39;&#39; (61)</text>
</g>
<!-- node0x56632d09ecc0&#45;&gt;node0x56632d09ec90 -->
<g id="edge34" class="edge">
<title>node0x56632d09ecc0&#45;&gt;node0x56632d09ec90</title>
<path fill="none" stroke="black" d="M1677.38,-645.44C1685.32,-630.69 1695.89,-611.06 1704.7,-594.71"/>
<polygon fill="black" stroke="black" points="1707.98,-595.99 1709.64,-585.52 1701.82,-592.67 1707.98,-595.99"/>
</g>
<!-- node0x56632d09eba0 -->
<g id="node34" class="node">
<title>node0x56632d09eba0</title>
<path fill="#ff5050" stroke="black" d="M1360,-387.5C1360,-387.5 1573,-387.5 1573,-387.5 1579,-387.5 1585,-393.5 1585,-399.5 1585,-399.5 1585,-467.5 1585,-467.5 1585,-473.5 1579,-479.5 1573,-479.5 1573,-479.5 1360,-479.5 1360,-479.5 1354,-479.5 1348,-473.5 1348,-467.5 1348,-467.5 1348,-399.5 1348,-399.5 1348,-393.5 1354,-387.5 1360,-387.5"/>
<text text-anchor="middle" x="1466.5" y="-464.3" font-family="Times,serif" font-size="14.00">type = 3 (ID)</text>
<polyline fill="none" stroke="black" points="1348,-456.5 1585,-456.5 "/>
<text text-anchor="middle" x="1466.5" y="-441.3" font-family="Times,serif" font-size="14.00">name = &#39;&#39; dude &#39;&#39;</text>
<polyline fill="none" stroke="black" points="1348,-433.5 1585,-433.5 "/>
<text text-anchor="middle" x="1466.5" y="-418.3" font-family="Times,serif" font-size="14.00">number in name table = &#39;&#39; 24 &#39;&#39;</text>
<polyline fill="none" stroke="black" points="1348,-410.5 1585,-410.5 "/>
<text text-anchor="middle" x="1466.5" y="-395.3" font-family="Times,serif" font-size="14.00">id_type = PARM</text>
</g>
<!-- node0x56632d09ebd0&#45;&gt;node0x56632d09eba0 -->
<g id="edge33" class="edge">
<title>node0x56632d09ebd0&#45;&gt;node0x56632d09eba0</title>
<path fill="none" stroke="black" d="M1466.5,-539.38C1466.5,-525.66 1466.5,-507.37 1466.5,-489.91"/>
<polygon fill="black" stroke="black" points="1470,-489.76 1466.5,-479.76 1463,-489.76 1470,-489.76"/>
</g>
<!-- node0x56632d09ec30 -->
<g id="node36" class="node">
<title>node0x56632d09ec30</title>
<path fill="#ff5050" stroke="black" d="M1615,-387.5C1615,-387.5 1828,-387.5 1828,-387.5 1834,-387.5 1840,-393.5 1840,-399.5 1840,-399.5 1840,-467.5 1840,-467.5 1840,-473.5 1834,-479.5 1828,-479.5 1828,-479.5 1615,-479.5 1615,-479.5 1609,-479.5 1603,-473.5 1603,-467.5 1603,-467.5 1603,-399.5 1603,-399.5 1603,-393.5 1609,-387.5 1615,-387.5"/>
<text text-anchor="middle" x="1721.5" y="-464.3" font-family="Times,serif" font-size="14.00">type = 3 (ID)</text>
<polyline fill="none" stroke="black" points="1603,-456.5 1840,-456.5 "/>
<text text-anchor="middle" x="1721.5" y="-441.3" font-family="Times,serif" font-size="14.00">name = &#39;&#39; dude &#39;&#39;</text>
<polyline fill="none" stroke="black" points="1603,-433.5 1840,-433.5 "/>
<text text-anchor="middle" x="1721.5" y="-418.3" font-family="Times,serif" font-size="14.00">number in name table = &#39;&#39; 24 &#39;&#39;</text>
<polyline fill="none" stroke="black" points="1603,-410.5 1840,-410.5 "/>
<text text-anchor="middle" x="1721.5" y="-395.3" font-family="Times,serif" font-size="14.00">id_type = PARM</text>
</g>
<!-- node0x56632d09ec90&#45;&gt;node0x56632d09ec30 -->
<g id="edge35" class="edge">
<title>node0x56632d09ec90&#45;&gt;node0x56632d09ec30</title>
<path fill="none" stroke="black" d="M1721.5,-539.38C1721.5,-525.66 1721.5,-507.37 1721.5,-489.91"/>
<polygon fill="black" stroke="black" points="1725,-489.76 1721.5,-479.76 1718,-489.76 1725,-489.76"/>
</g>
<!-- node0x56632d09ec60 -->
<g id="node37" class="node">
<title>node0x56632d09ec60</title>
<path fill="#ffd700" stroke="black" d="M1870,-410.5C1870,-410.5 1977,-410.5 1977,-410.5 1983,-410.5 1989,-416.5 1989,-422.5 1989,-422.5 1989,-444.5 1989,-444.5 1989,-450.5 1983,-456.5 1977,-456.5 1977,-456.5 1870,-456.5 1870,-456.5 1864,-456.5 1858,-450.5 1858,-444.5 1858,-444.5 1858,-422.5 1858,-422.5 1858,-416.5 1864,-410.5 1870,-410.5"/>
<text text-anchor="middle" x="1923.5" y="-441.3" font-family="Times,serif" font-size="14.00">type = 1 (NUM)</text>
<polyline fill="none" stroke="black" points="1858,-433.5 1989,-433.5 "/>
<text text-anchor="middle" x="1923.5" y="-418.3" font-family="Times,serif" font-size="14.00">value = &#39;&#39; 9 &#39;&#39;</text>
</g>
<!-- node0x56632d09ec90&#45;&gt;node0x56632d09ec60 -->
<g id="edge36" class="edge">
<title>node0x56632d09ec90&#45;&gt;node0x56632d09ec60</title>
<path fill="none" stroke="black" d="M1756.69,-539.38C1790.91,-517.86 1842.98,-485.13 1879.83,-461.96"/>
<polygon fill="black" stroke="black" points="1881.78,-464.87 1888.38,-456.58 1878.05,-458.94 1881.78,-464.87"/>
</g>
</g>
</svg>
