<?xml version="1.0" encoding="UTF-8" standalone="no"?>
<!DOCTYPE svg PUBLIC "-//W3C//DTD SVG 1.1//EN"
 "http://www.w3.org/Graphics/SVG/1.1/DTD/svg11.dtd">
<!-- Generated by graphviz version 2.43.0 (0)
 -->
<!-- Title: %3 Pages: 1 -->
<svg width="2193pt" height="1594pt"
 viewBox="0.00 0.00 2192.50 1594.00" xmlns="http://www.w3.org/2000/svg" xmlns:xlink="http://www.w3.org/1999/xlink">
<g id="graph0" class="graph" transform="scale(1 1) rotate(0) translate(4 1590)">
<title>%3</title>
<!-- node0x5030000008e0 -->
<g id="node1" class="node">
<title>node0x5030000008e0</title>
<path fill="#a0a0a0" stroke="black" d="M236,-1539.5C236,-1539.5 472,-1539.5 472,-1539.5 478,-1539.5 484,-1545.5 484,-1551.5 484,-1551.5 484,-1573.5 484,-1573.5 484,-1579.5 478,-1585.5 472,-1585.5 472,-1585.5 236,-1585.5 236,-1585.5 230,-1585.5 224,-1579.5 224,-1573.5 224,-1573.5 224,-1551.5 224,-1551.5 224,-1545.5 230,-1539.5 236,-1539.5"/>
<text text-anchor="middle" x="354" y="-1570.3" font-family="Times,serif" font-size="14.00">type = 4 (FUNC)</text>
<polyline fill="none" stroke="black" points="224,-1562.5 484,-1562.5 "/>
<text text-anchor="middle" x="354" y="-1547.3" font-family="Times,serif" font-size="14.00">value = &#39;&#39; NEXT FUNCTION &#39;&#39; (64)</text>
</g>
<!-- node0x5030000008b0 -->
<g id="node2" class="node">
<title>node0x5030000008b0</title>
<path fill="#755cf7" stroke="black" d="M254,-1456.5C254,-1456.5 454,-1456.5 454,-1456.5 460,-1456.5 466,-1462.5 466,-1468.5 466,-1468.5 466,-1490.5 466,-1490.5 466,-1496.5 460,-1502.5 454,-1502.5 454,-1502.5 254,-1502.5 254,-1502.5 248,-1502.5 242,-1496.5 242,-1490.5 242,-1490.5 242,-1468.5 242,-1468.5 242,-1462.5 248,-1456.5 254,-1456.5"/>
<text text-anchor="middle" x="354" y="-1487.3" font-family="Times,serif" font-size="14.00">type = 4 (FUNC)</text>
<polyline fill="none" stroke="black" points="242,-1479.5 466,-1479.5 "/>
<text text-anchor="middle" x="354" y="-1464.3" font-family="Times,serif" font-size="14.00">value = &#39;&#39; DEFINITION &#39;&#39; (68)</text>
</g>
<!-- node0x5030000008e0&#45;&gt;node0x5030000008b0 -->
<g id="edge1" class="edge">
<title>node0x5030000008e0&#45;&gt;node0x5030000008b0</title>
<path fill="none" stroke="black" d="M354,-1539.37C354,-1531.15 354,-1521.66 354,-1512.73"/>
<polygon fill="black" stroke="black" points="357.5,-1512.61 354,-1502.61 350.5,-1512.61 357.5,-1512.61"/>
</g>
<!-- node0x5030000000d0 -->
<g id="node3" class="node">
<title>node0x5030000000d0</title>
<path fill="#f069f5" stroke="black" d="M179.5,-1373.5C179.5,-1373.5 326.5,-1373.5 326.5,-1373.5 332.5,-1373.5 338.5,-1379.5 338.5,-1385.5 338.5,-1385.5 338.5,-1407.5 338.5,-1407.5 338.5,-1413.5 332.5,-1419.5 326.5,-1419.5 326.5,-1419.5 179.5,-1419.5 179.5,-1419.5 173.5,-1419.5 167.5,-1413.5 167.5,-1407.5 167.5,-1407.5 167.5,-1385.5 167.5,-1385.5 167.5,-1379.5 173.5,-1373.5 179.5,-1373.5"/>
<text text-anchor="middle" x="253" y="-1404.3" font-family="Times,serif" font-size="14.00">type = 4 (FUNC)</text>
<polyline fill="none" stroke="black" points="167.5,-1396.5 338.5,-1396.5 "/>
<text text-anchor="middle" x="253" y="-1381.3" font-family="Times,serif" font-size="14.00">value = &#39;&#39; CALL &#39;&#39; (67)</text>
</g>
<!-- node0x5030000008b0&#45;&gt;node0x5030000000d0 -->
<g id="edge2" class="edge">
<title>node0x5030000008b0&#45;&gt;node0x5030000000d0</title>
<path fill="none" stroke="black" d="M326.4,-1456.37C314.71,-1446.99 300.94,-1435.95 288.51,-1425.98"/>
<polygon fill="black" stroke="black" points="290.56,-1423.13 280.57,-1419.61 286.18,-1428.59 290.56,-1423.13"/>
</g>
<!-- node0x503000000190 -->
<g id="node4" class="node">
<title>node0x503000000190</title>
<path fill="#e0e0e0" stroke="black" d="M394.5,-1373.5C394.5,-1373.5 567.5,-1373.5 567.5,-1373.5 573.5,-1373.5 579.5,-1379.5 579.5,-1385.5 579.5,-1385.5 579.5,-1407.5 579.5,-1407.5 579.5,-1413.5 573.5,-1419.5 567.5,-1419.5 567.5,-1419.5 394.5,-1419.5 394.5,-1419.5 388.5,-1419.5 382.5,-1413.5 382.5,-1407.5 382.5,-1407.5 382.5,-1385.5 382.5,-1385.5 382.5,-1379.5 388.5,-1373.5 394.5,-1373.5"/>
<text text-anchor="middle" x="481" y="-1404.3" font-family="Times,serif" font-size="14.00">type = 2 (OP)</text>
<polyline fill="none" stroke="black" points="382.5,-1396.5 579.5,-1396.5 "/>
<text text-anchor="middle" x="481" y="-1381.3" font-family="Times,serif" font-size="14.00">value = &#39;&#39; SHUTUP &#39;&#39; (59)</text>
</g>
<!-- node0x5030000008b0&#45;&gt;node0x503000000190 -->
<g id="edge3" class="edge">
<title>node0x5030000008b0&#45;&gt;node0x503000000190</title>
<path fill="none" stroke="black" d="M388.7,-1456.37C403.82,-1446.72 421.71,-1435.32 437.69,-1425.13"/>
<polygon fill="black" stroke="black" points="439.79,-1427.94 446.34,-1419.61 436.03,-1422.03 439.79,-1427.94"/>
</g>
<!-- node0x503000000040 -->
<g id="node5" class="node">
<title>node0x503000000040</title>
<path fill="#2ee31e" stroke="black" d="M12,-1290.5C12,-1290.5 154,-1290.5 154,-1290.5 160,-1290.5 166,-1296.5 166,-1302.5 166,-1302.5 166,-1324.5 166,-1324.5 166,-1330.5 160,-1336.5 154,-1336.5 154,-1336.5 12,-1336.5 12,-1336.5 6,-1336.5 0,-1330.5 0,-1324.5 0,-1324.5 0,-1302.5 0,-1302.5 0,-1296.5 6,-1290.5 12,-1290.5"/>
<text text-anchor="middle" x="83" y="-1321.3" font-family="Times,serif" font-size="14.00">type = 4 (FUNC)</text>
<polyline fill="none" stroke="black" points="0,-1313.5 166,-1313.5 "/>
<text text-anchor="middle" x="83" y="-1298.3" font-family="Times,serif" font-size="14.00">value = &#39;&#39; carti &#39;&#39; (20)</text>
</g>
<!-- node0x5030000000d0&#45;&gt;node0x503000000040 -->
<g id="edge4" class="edge">
<title>node0x5030000000d0&#45;&gt;node0x503000000040</title>
<path fill="none" stroke="black" d="M206.55,-1373.37C185.56,-1363.37 160.59,-1351.47 138.61,-1341"/>
<polygon fill="black" stroke="black" points="139.93,-1337.75 129.4,-1336.61 136.92,-1344.07 139.93,-1337.75"/>
</g>
<!-- node0x5030000000a0 -->
<g id="node6" class="node">
<title>node0x5030000000a0</title>
<path fill="#feaadf" stroke="black" d="M196.5,-1290.5C196.5,-1290.5 309.5,-1290.5 309.5,-1290.5 315.5,-1290.5 321.5,-1296.5 321.5,-1302.5 321.5,-1302.5 321.5,-1324.5 321.5,-1324.5 321.5,-1330.5 315.5,-1336.5 309.5,-1336.5 309.5,-1336.5 196.5,-1336.5 196.5,-1336.5 190.5,-1336.5 184.5,-1330.5 184.5,-1324.5 184.5,-1324.5 184.5,-1302.5 184.5,-1302.5 184.5,-1296.5 190.5,-1290.5 196.5,-1290.5"/>
<text text-anchor="middle" x="253" y="-1321.3" font-family="Times,serif" font-size="14.00">type = 4 (FUNC)</text>
<polyline fill="none" stroke="black" points="184.5,-1313.5 321.5,-1313.5 "/>
<text text-anchor="middle" x="253" y="-1298.3" font-family="Times,serif" font-size="14.00">value = &#39;&#39; , &#39;&#39; (44)</text>
</g>
<!-- node0x5030000000d0&#45;&gt;node0x5030000000a0 -->
<g id="edge5" class="edge">
<title>node0x5030000000d0&#45;&gt;node0x5030000000a0</title>
<path fill="none" stroke="black" d="M253,-1373.37C253,-1365.15 253,-1355.66 253,-1346.73"/>
<polygon fill="black" stroke="black" points="256.5,-1346.61 253,-1336.61 249.5,-1346.61 256.5,-1346.61"/>
</g>
<!-- node0x503000000160 -->
<g id="node8" class="node">
<title>node0x503000000160</title>
<path fill="#00ffdd" stroke="black" d="M420.5,-1290.5C420.5,-1290.5 541.5,-1290.5 541.5,-1290.5 547.5,-1290.5 553.5,-1296.5 553.5,-1302.5 553.5,-1302.5 553.5,-1324.5 553.5,-1324.5 553.5,-1330.5 547.5,-1336.5 541.5,-1336.5 541.5,-1336.5 420.5,-1336.5 420.5,-1336.5 414.5,-1336.5 408.5,-1330.5 408.5,-1324.5 408.5,-1324.5 408.5,-1302.5 408.5,-1302.5 408.5,-1296.5 414.5,-1290.5 420.5,-1290.5"/>
<text text-anchor="middle" x="481" y="-1321.3" font-family="Times,serif" font-size="14.00">type = 2 (OP)</text>
<polyline fill="none" stroke="black" points="408.5,-1313.5 553.5,-1313.5 "/>
<text text-anchor="middle" x="481" y="-1298.3" font-family="Times,serif" font-size="14.00">value = &#39;&#39; = &#39;&#39; (61)</text>
</g>
<!-- node0x503000000190&#45;&gt;node0x503000000160 -->
<g id="edge7" class="edge">
<title>node0x503000000190&#45;&gt;node0x503000000160</title>
<path fill="none" stroke="black" d="M481,-1373.37C481,-1365.15 481,-1355.66 481,-1346.73"/>
<polygon fill="black" stroke="black" points="484.5,-1346.61 481,-1336.61 477.5,-1346.61 484.5,-1346.61"/>
</g>
<!-- node0x503000000250 -->
<g id="node9" class="node">
<title>node0x503000000250</title>
<path fill="#e0e0e0" stroke="black" d="M668.5,-1290.5C668.5,-1290.5 841.5,-1290.5 841.5,-1290.5 847.5,-1290.5 853.5,-1296.5 853.5,-1302.5 853.5,-1302.5 853.5,-1324.5 853.5,-1324.5 853.5,-1330.5 847.5,-1336.5 841.5,-1336.5 841.5,-1336.5 668.5,-1336.5 668.5,-1336.5 662.5,-1336.5 656.5,-1330.5 656.5,-1324.5 656.5,-1324.5 656.5,-1302.5 656.5,-1302.5 656.5,-1296.5 662.5,-1290.5 668.5,-1290.5"/>
<text text-anchor="middle" x="755" y="-1321.3" font-family="Times,serif" font-size="14.00">type = 2 (OP)</text>
<polyline fill="none" stroke="black" points="656.5,-1313.5 853.5,-1313.5 "/>
<text text-anchor="middle" x="755" y="-1298.3" font-family="Times,serif" font-size="14.00">value = &#39;&#39; SHUTUP &#39;&#39; (59)</text>
</g>
<!-- node0x503000000190&#45;&gt;node0x503000000250 -->
<g id="edge8" class="edge">
<title>node0x503000000190&#45;&gt;node0x503000000250</title>
<path fill="none" stroke="black" d="M555.51,-1373.47C591.15,-1362.94 633.97,-1350.28 670.79,-1339.39"/>
<polygon fill="black" stroke="black" points="671.91,-1342.71 680.51,-1336.52 669.92,-1336 671.91,-1342.71"/>
</g>
<!-- node0x503000000070 -->
<g id="node7" class="node">
<title>node0x503000000070</title>
<path fill="#ff5050" stroke="black" d="M35.5,-1161.5C35.5,-1161.5 248.5,-1161.5 248.5,-1161.5 254.5,-1161.5 260.5,-1167.5 260.5,-1173.5 260.5,-1173.5 260.5,-1241.5 260.5,-1241.5 260.5,-1247.5 254.5,-1253.5 248.5,-1253.5 248.5,-1253.5 35.5,-1253.5 35.5,-1253.5 29.5,-1253.5 23.5,-1247.5 23.5,-1241.5 23.5,-1241.5 23.5,-1173.5 23.5,-1173.5 23.5,-1167.5 29.5,-1161.5 35.5,-1161.5"/>
<text text-anchor="middle" x="142" y="-1238.3" font-family="Times,serif" font-size="14.00">type = 3 (ID)</text>
<polyline fill="none" stroke="black" points="23.5,-1230.5 260.5,-1230.5 "/>
<text text-anchor="middle" x="142" y="-1215.3" font-family="Times,serif" font-size="14.00">name = &#39;&#39; argc &#39;&#39;</text>
<polyline fill="none" stroke="black" points="23.5,-1207.5 260.5,-1207.5 "/>
<text text-anchor="middle" x="142" y="-1192.3" font-family="Times,serif" font-size="14.00">number in name table = &#39;&#39; 21 &#39;&#39;</text>
<polyline fill="none" stroke="black" points="23.5,-1184.5 260.5,-1184.5 "/>
<text text-anchor="middle" x="142" y="-1169.3" font-family="Times,serif" font-size="14.00">id_type = PARM</text>
</g>
<!-- node0x5030000000a0&#45;&gt;node0x503000000070 -->
<g id="edge6" class="edge">
<title>node0x5030000000a0&#45;&gt;node0x503000000070</title>
<path fill="none" stroke="black" d="M229.46,-1290.44C220.06,-1281.64 208.81,-1271.1 197.56,-1260.55"/>
<polygon fill="black" stroke="black" points="199.87,-1257.93 190.18,-1253.64 195.09,-1263.03 199.87,-1257.93"/>
</g>
<!-- node0x503000000100 -->
<g id="node10" class="node">
<title>node0x503000000100</title>
<path fill="#ff5050" stroke="black" d="M290.5,-1161.5C290.5,-1161.5 503.5,-1161.5 503.5,-1161.5 509.5,-1161.5 515.5,-1167.5 515.5,-1173.5 515.5,-1173.5 515.5,-1241.5 515.5,-1241.5 515.5,-1247.5 509.5,-1253.5 503.5,-1253.5 503.5,-1253.5 290.5,-1253.5 290.5,-1253.5 284.5,-1253.5 278.5,-1247.5 278.5,-1241.5 278.5,-1241.5 278.5,-1173.5 278.5,-1173.5 278.5,-1167.5 284.5,-1161.5 290.5,-1161.5"/>
<text text-anchor="middle" x="397" y="-1238.3" font-family="Times,serif" font-size="14.00">type = 3 (ID)</text>
<polyline fill="none" stroke="black" points="278.5,-1230.5 515.5,-1230.5 "/>
<text text-anchor="middle" x="397" y="-1215.3" font-family="Times,serif" font-size="14.00">name = &#39;&#39; numb &#39;&#39;</text>
<polyline fill="none" stroke="black" points="278.5,-1207.5 515.5,-1207.5 "/>
<text text-anchor="middle" x="397" y="-1192.3" font-family="Times,serif" font-size="14.00">number in name table = &#39;&#39; 22 &#39;&#39;</text>
<polyline fill="none" stroke="black" points="278.5,-1184.5 515.5,-1184.5 "/>
<text text-anchor="middle" x="397" y="-1169.3" font-family="Times,serif" font-size="14.00">id_type = LOCL</text>
</g>
<!-- node0x503000000160&#45;&gt;node0x503000000100 -->
<g id="edge9" class="edge">
<title>node0x503000000160&#45;&gt;node0x503000000100</title>
<path fill="none" stroke="black" d="M463.19,-1290.44C456.28,-1281.89 448.05,-1271.7 439.77,-1261.46"/>
<polygon fill="black" stroke="black" points="442.47,-1259.22 433.46,-1253.64 437.02,-1263.62 442.47,-1259.22"/>
</g>
<!-- node0x503000000130 -->
<g id="node11" class="node">
<title>node0x503000000130</title>
<path fill="#ffd700" stroke="black" d="M545.5,-1184.5C545.5,-1184.5 652.5,-1184.5 652.5,-1184.5 658.5,-1184.5 664.5,-1190.5 664.5,-1196.5 664.5,-1196.5 664.5,-1218.5 664.5,-1218.5 664.5,-1224.5 658.5,-1230.5 652.5,-1230.5 652.5,-1230.5 545.5,-1230.5 545.5,-1230.5 539.5,-1230.5 533.5,-1224.5 533.5,-1218.5 533.5,-1218.5 533.5,-1196.5 533.5,-1196.5 533.5,-1190.5 539.5,-1184.5 545.5,-1184.5"/>
<text text-anchor="middle" x="599" y="-1215.3" font-family="Times,serif" font-size="14.00">type = 1 (NUM)</text>
<polyline fill="none" stroke="black" points="533.5,-1207.5 664.5,-1207.5 "/>
<text text-anchor="middle" x="599" y="-1192.3" font-family="Times,serif" font-size="14.00">value = &#39;&#39; 5 &#39;&#39;</text>
</g>
<!-- node0x503000000160&#45;&gt;node0x503000000130 -->
<g id="edge10" class="edge">
<title>node0x503000000160&#45;&gt;node0x503000000130</title>
<path fill="none" stroke="black" d="M506.02,-1290.44C523.62,-1274.93 547.34,-1254.03 566.42,-1237.22"/>
<polygon fill="black" stroke="black" points="568.82,-1239.76 574.01,-1230.52 564.19,-1234.51 568.82,-1239.76"/>
</g>
<!-- node0x503000000220 -->
<g id="node12" class="node">
<title>node0x503000000220</title>
<path fill="#00ffdd" stroke="black" d="M694.5,-1184.5C694.5,-1184.5 815.5,-1184.5 815.5,-1184.5 821.5,-1184.5 827.5,-1190.5 827.5,-1196.5 827.5,-1196.5 827.5,-1218.5 827.5,-1218.5 827.5,-1224.5 821.5,-1230.5 815.5,-1230.5 815.5,-1230.5 694.5,-1230.5 694.5,-1230.5 688.5,-1230.5 682.5,-1224.5 682.5,-1218.5 682.5,-1218.5 682.5,-1196.5 682.5,-1196.5 682.5,-1190.5 688.5,-1184.5 694.5,-1184.5"/>
<text text-anchor="middle" x="755" y="-1215.3" font-family="Times,serif" font-size="14.00">type = 2 (OP)</text>
<polyline fill="none" stroke="black" points="682.5,-1207.5 827.5,-1207.5 "/>
<text text-anchor="middle" x="755" y="-1192.3" font-family="Times,serif" font-size="14.00">value = &#39;&#39; = &#39;&#39; (61)</text>
</g>
<!-- node0x503000000250&#45;&gt;node0x503000000220 -->
<g id="edge11" class="edge">
<title>node0x503000000250&#45;&gt;node0x503000000220</title>
<path fill="none" stroke="black" d="M755,-1290.44C755,-1275.97 755,-1256.79 755,-1240.63"/>
<polygon fill="black" stroke="black" points="758.5,-1240.52 755,-1230.52 751.5,-1240.52 758.5,-1240.52"/>
</g>
<!-- node0x503000000310 -->
<g id="node13" class="node">
<title>node0x503000000310</title>
<path fill="#e0e0e0" stroke="black" d="M857.5,-1184.5C857.5,-1184.5 1030.5,-1184.5 1030.5,-1184.5 1036.5,-1184.5 1042.5,-1190.5 1042.5,-1196.5 1042.5,-1196.5 1042.5,-1218.5 1042.5,-1218.5 1042.5,-1224.5 1036.5,-1230.5 1030.5,-1230.5 1030.5,-1230.5 857.5,-1230.5 857.5,-1230.5 851.5,-1230.5 845.5,-1224.5 845.5,-1218.5 845.5,-1218.5 845.5,-1196.5 845.5,-1196.5 845.5,-1190.5 851.5,-1184.5 857.5,-1184.5"/>
<text text-anchor="middle" x="944" y="-1215.3" font-family="Times,serif" font-size="14.00">type = 2 (OP)</text>
<polyline fill="none" stroke="black" points="845.5,-1207.5 1042.5,-1207.5 "/>
<text text-anchor="middle" x="944" y="-1192.3" font-family="Times,serif" font-size="14.00">value = &#39;&#39; SHUTUP &#39;&#39; (59)</text>
</g>
<!-- node0x503000000250&#45;&gt;node0x503000000310 -->
<g id="edge12" class="edge">
<title>node0x503000000250&#45;&gt;node0x503000000310</title>
<path fill="none" stroke="black" d="M795.08,-1290.44C824.27,-1274.38 863.98,-1252.53 895.05,-1235.44"/>
<polygon fill="black" stroke="black" points="896.9,-1238.41 903.98,-1230.52 893.53,-1232.28 896.9,-1238.41"/>
</g>
<!-- node0x5030000001c0 -->
<g id="node14" class="node">
<title>node0x5030000001c0</title>
<path fill="#ff5050" stroke="black" d="M454.5,-1032.5C454.5,-1032.5 667.5,-1032.5 667.5,-1032.5 673.5,-1032.5 679.5,-1038.5 679.5,-1044.5 679.5,-1044.5 679.5,-1112.5 679.5,-1112.5 679.5,-1118.5 673.5,-1124.5 667.5,-1124.5 667.5,-1124.5 454.5,-1124.5 454.5,-1124.5 448.5,-1124.5 442.5,-1118.5 442.5,-1112.5 442.5,-1112.5 442.5,-1044.5 442.5,-1044.5 442.5,-1038.5 448.5,-1032.5 454.5,-1032.5"/>
<text text-anchor="middle" x="561" y="-1109.3" font-family="Times,serif" font-size="14.00">type = 3 (ID)</text>
<polyline fill="none" stroke="black" points="442.5,-1101.5 679.5,-1101.5 "/>
<text text-anchor="middle" x="561" y="-1086.3" font-family="Times,serif" font-size="14.00">name = &#39;&#39; result &#39;&#39;</text>
<polyline fill="none" stroke="black" points="442.5,-1078.5 679.5,-1078.5 "/>
<text text-anchor="middle" x="561" y="-1063.3" font-family="Times,serif" font-size="14.00">number in name table = &#39;&#39; 23 &#39;&#39;</text>
<polyline fill="none" stroke="black" points="442.5,-1055.5 679.5,-1055.5 "/>
<text text-anchor="middle" x="561" y="-1040.3" font-family="Times,serif" font-size="14.00">id_type = LOCL</text>
</g>
<!-- node0x503000000220&#45;&gt;node0x5030000001c0 -->
<g id="edge13" class="edge">
<title>node0x503000000220&#45;&gt;node0x5030000001c0</title>
<path fill="none" stroke="black" d="M721.21,-1184.38C698.38,-1169.44 667.29,-1149.08 638.57,-1130.28"/>
<polygon fill="black" stroke="black" points="640.42,-1127.31 630.14,-1124.76 636.59,-1133.17 640.42,-1127.31"/>
</g>
<!-- node0x5030000001f0 -->
<g id="node15" class="node">
<title>node0x5030000001f0</title>
<path fill="#ffd700" stroke="black" d="M709.5,-1055.5C709.5,-1055.5 816.5,-1055.5 816.5,-1055.5 822.5,-1055.5 828.5,-1061.5 828.5,-1067.5 828.5,-1067.5 828.5,-1089.5 828.5,-1089.5 828.5,-1095.5 822.5,-1101.5 816.5,-1101.5 816.5,-1101.5 709.5,-1101.5 709.5,-1101.5 703.5,-1101.5 697.5,-1095.5 697.5,-1089.5 697.5,-1089.5 697.5,-1067.5 697.5,-1067.5 697.5,-1061.5 703.5,-1055.5 709.5,-1055.5"/>
<text text-anchor="middle" x="763" y="-1086.3" font-family="Times,serif" font-size="14.00">type = 1 (NUM)</text>
<polyline fill="none" stroke="black" points="697.5,-1078.5 828.5,-1078.5 "/>
<text text-anchor="middle" x="763" y="-1063.3" font-family="Times,serif" font-size="14.00">value = &#39;&#39; 1 &#39;&#39;</text>
</g>
<!-- node0x503000000220&#45;&gt;node0x5030000001f0 -->
<g id="edge14" class="edge">
<title>node0x503000000220&#45;&gt;node0x5030000001f0</title>
<path fill="none" stroke="black" d="M756.39,-1184.38C757.65,-1164.38 759.52,-1134.68 760.95,-1111.98"/>
<polygon fill="black" stroke="black" points="764.46,-1111.99 761.6,-1101.79 757.47,-1111.55 764.46,-1111.99"/>
</g>
<!-- node0x5030000002e0 -->
<g id="node16" class="node">
<title>node0x5030000002e0</title>
<path fill="#00ffdd" stroke="black" d="M874.5,-1055.5C874.5,-1055.5 995.5,-1055.5 995.5,-1055.5 1001.5,-1055.5 1007.5,-1061.5 1007.5,-1067.5 1007.5,-1067.5 1007.5,-1089.5 1007.5,-1089.5 1007.5,-1095.5 1001.5,-1101.5 995.5,-1101.5 995.5,-1101.5 874.5,-1101.5 874.5,-1101.5 868.5,-1101.5 862.5,-1095.5 862.5,-1089.5 862.5,-1089.5 862.5,-1067.5 862.5,-1067.5 862.5,-1061.5 868.5,-1055.5 874.5,-1055.5"/>
<text text-anchor="middle" x="935" y="-1086.3" font-family="Times,serif" font-size="14.00">type = 2 (OP)</text>
<polyline fill="none" stroke="black" points="862.5,-1078.5 1007.5,-1078.5 "/>
<text text-anchor="middle" x="935" y="-1063.3" font-family="Times,serif" font-size="14.00">value = &#39;&#39; = &#39;&#39; (61)</text>
</g>
<!-- node0x503000000310&#45;&gt;node0x5030000002e0 -->
<g id="edge15" class="edge">
<title>node0x503000000310&#45;&gt;node0x5030000002e0</title>
<path fill="none" stroke="black" d="M942.43,-1184.38C941.01,-1164.38 938.91,-1134.68 937.3,-1111.98"/>
<polygon fill="black" stroke="black" points="940.78,-1111.52 936.58,-1101.79 933.8,-1112.02 940.78,-1111.52"/>
</g>
<!-- node0x5030000007c0 -->
<g id="node17" class="node">
<title>node0x5030000007c0</title>
<path fill="#e0e0e0" stroke="black" d="M1037.5,-1055.5C1037.5,-1055.5 1210.5,-1055.5 1210.5,-1055.5 1216.5,-1055.5 1222.5,-1061.5 1222.5,-1067.5 1222.5,-1067.5 1222.5,-1089.5 1222.5,-1089.5 1222.5,-1095.5 1216.5,-1101.5 1210.5,-1101.5 1210.5,-1101.5 1037.5,-1101.5 1037.5,-1101.5 1031.5,-1101.5 1025.5,-1095.5 1025.5,-1089.5 1025.5,-1089.5 1025.5,-1067.5 1025.5,-1067.5 1025.5,-1061.5 1031.5,-1055.5 1037.5,-1055.5"/>
<text text-anchor="middle" x="1124" y="-1086.3" font-family="Times,serif" font-size="14.00">type = 2 (OP)</text>
<polyline fill="none" stroke="black" points="1025.5,-1078.5 1222.5,-1078.5 "/>
<text text-anchor="middle" x="1124" y="-1063.3" font-family="Times,serif" font-size="14.00">value = &#39;&#39; SHUTUP &#39;&#39; (59)</text>
</g>
<!-- node0x503000000310&#45;&gt;node0x5030000007c0 -->
<g id="edge16" class="edge">
<title>node0x503000000310&#45;&gt;node0x5030000007c0</title>
<path fill="none" stroke="black" d="M975.35,-1184.38C1005.59,-1163.05 1051.46,-1130.68 1084.25,-1107.55"/>
<polygon fill="black" stroke="black" points="1086.55,-1110.21 1092.7,-1101.58 1082.52,-1104.49 1086.55,-1110.21"/>
</g>
<!-- node0x503000000280 -->
<g id="node18" class="node">
<title>node0x503000000280</title>
<path fill="#ff5050" stroke="black" d="M628.5,-903.5C628.5,-903.5 841.5,-903.5 841.5,-903.5 847.5,-903.5 853.5,-909.5 853.5,-915.5 853.5,-915.5 853.5,-983.5 853.5,-983.5 853.5,-989.5 847.5,-995.5 841.5,-995.5 841.5,-995.5 628.5,-995.5 628.5,-995.5 622.5,-995.5 616.5,-989.5 616.5,-983.5 616.5,-983.5 616.5,-915.5 616.5,-915.5 616.5,-909.5 622.5,-903.5 628.5,-903.5"/>
<text text-anchor="middle" x="735" y="-980.3" font-family="Times,serif" font-size="14.00">type = 3 (ID)</text>
<polyline fill="none" stroke="black" points="616.5,-972.5 853.5,-972.5 "/>
<text text-anchor="middle" x="735" y="-957.3" font-family="Times,serif" font-size="14.00">name = &#39;&#39; old &#39;&#39;</text>
<polyline fill="none" stroke="black" points="616.5,-949.5 853.5,-949.5 "/>
<text text-anchor="middle" x="735" y="-934.3" font-family="Times,serif" font-size="14.00">number in name table = &#39;&#39; 24 &#39;&#39;</text>
<polyline fill="none" stroke="black" points="616.5,-926.5 853.5,-926.5 "/>
<text text-anchor="middle" x="735" y="-911.3" font-family="Times,serif" font-size="14.00">id_type = LOCL</text>
</g>
<!-- node0x5030000002e0&#45;&gt;node0x503000000280 -->
<g id="edge17" class="edge">
<title>node0x5030000002e0&#45;&gt;node0x503000000280</title>
<path fill="none" stroke="black" d="M900.16,-1055.38C876.63,-1040.44 844.58,-1020.08 814.97,-1001.28"/>
<polygon fill="black" stroke="black" points="816.6,-998.17 806.28,-995.76 812.84,-1004.08 816.6,-998.17"/>
</g>
<!-- node0x5030000002b0 -->
<g id="node19" class="node">
<title>node0x5030000002b0</title>
<path fill="#ffd700" stroke="black" d="M883.5,-926.5C883.5,-926.5 990.5,-926.5 990.5,-926.5 996.5,-926.5 1002.5,-932.5 1002.5,-938.5 1002.5,-938.5 1002.5,-960.5 1002.5,-960.5 1002.5,-966.5 996.5,-972.5 990.5,-972.5 990.5,-972.5 883.5,-972.5 883.5,-972.5 877.5,-972.5 871.5,-966.5 871.5,-960.5 871.5,-960.5 871.5,-938.5 871.5,-938.5 871.5,-932.5 877.5,-926.5 883.5,-926.5"/>
<text text-anchor="middle" x="937" y="-957.3" font-family="Times,serif" font-size="14.00">type = 1 (NUM)</text>
<polyline fill="none" stroke="black" points="871.5,-949.5 1002.5,-949.5 "/>
<text text-anchor="middle" x="937" y="-934.3" font-family="Times,serif" font-size="14.00">value = &#39;&#39; 1 &#39;&#39;</text>
</g>
<!-- node0x5030000002e0&#45;&gt;node0x5030000002b0 -->
<g id="edge18" class="edge">
<title>node0x5030000002e0&#45;&gt;node0x5030000002b0</title>
<path fill="none" stroke="black" d="M935.35,-1055.38C935.66,-1035.38 936.13,-1005.68 936.49,-982.98"/>
<polygon fill="black" stroke="black" points="939.99,-982.85 936.65,-972.79 932.99,-982.74 939.99,-982.85"/>
</g>
<!-- node0x503000000790 -->
<g id="node20" class="node">
<title>node0x503000000790</title>
<path fill="#df73df" stroke="black" d="M1035.5,-926.5C1035.5,-926.5 1210.5,-926.5 1210.5,-926.5 1216.5,-926.5 1222.5,-932.5 1222.5,-938.5 1222.5,-938.5 1222.5,-960.5 1222.5,-960.5 1222.5,-966.5 1216.5,-972.5 1210.5,-972.5 1210.5,-972.5 1035.5,-972.5 1035.5,-972.5 1029.5,-972.5 1023.5,-966.5 1023.5,-960.5 1023.5,-960.5 1023.5,-938.5 1023.5,-938.5 1023.5,-932.5 1029.5,-926.5 1035.5,-926.5"/>
<text text-anchor="middle" x="1123" y="-957.3" font-family="Times,serif" font-size="14.00">type = 2 (OP)</text>
<polyline fill="none" stroke="black" points="1023.5,-949.5 1222.5,-949.5 "/>
<text text-anchor="middle" x="1123" y="-934.3" font-family="Times,serif" font-size="14.00">value = &#39;&#39; MONEY &#39;&#39; (119)</text>
</g>
<!-- node0x5030000007c0&#45;&gt;node0x503000000790 -->
<g id="edge19" class="edge">
<title>node0x5030000007c0&#45;&gt;node0x503000000790</title>
<path fill="none" stroke="black" d="M1123.83,-1055.38C1123.67,-1035.38 1123.43,-1005.68 1123.26,-982.98"/>
<polygon fill="black" stroke="black" points="1126.75,-982.77 1123.18,-972.79 1119.75,-982.82 1126.75,-982.77"/>
</g>
<!-- node0x503000000880 -->
<g id="node21" class="node">
<title>node0x503000000880</title>
<path fill="#e0e0e0" stroke="black" d="M1261.5,-926.5C1261.5,-926.5 1434.5,-926.5 1434.5,-926.5 1440.5,-926.5 1446.5,-932.5 1446.5,-938.5 1446.5,-938.5 1446.5,-960.5 1446.5,-960.5 1446.5,-966.5 1440.5,-972.5 1434.5,-972.5 1434.5,-972.5 1261.5,-972.5 1261.5,-972.5 1255.5,-972.5 1249.5,-966.5 1249.5,-960.5 1249.5,-960.5 1249.5,-938.5 1249.5,-938.5 1249.5,-932.5 1255.5,-926.5 1261.5,-926.5"/>
<text text-anchor="middle" x="1348" y="-957.3" font-family="Times,serif" font-size="14.00">type = 2 (OP)</text>
<polyline fill="none" stroke="black" points="1249.5,-949.5 1446.5,-949.5 "/>
<text text-anchor="middle" x="1348" y="-934.3" font-family="Times,serif" font-size="14.00">value = &#39;&#39; SHUTUP &#39;&#39; (59)</text>
</g>
<!-- node0x5030000007c0&#45;&gt;node0x503000000880 -->
<g id="edge20" class="edge">
<title>node0x5030000007c0&#45;&gt;node0x503000000880</title>
<path fill="none" stroke="black" d="M1163.02,-1055.38C1201.2,-1033.73 1259.44,-1000.71 1300.34,-977.52"/>
<polygon fill="black" stroke="black" points="1302.08,-980.56 1309.05,-972.58 1298.63,-974.47 1302.08,-980.56"/>
</g>
<!-- node0x503000000340 -->
<g id="node22" class="node">
<title>node0x503000000340</title>
<path fill="#ff5050" stroke="black" d="M781.5,-774.5C781.5,-774.5 994.5,-774.5 994.5,-774.5 1000.5,-774.5 1006.5,-780.5 1006.5,-786.5 1006.5,-786.5 1006.5,-854.5 1006.5,-854.5 1006.5,-860.5 1000.5,-866.5 994.5,-866.5 994.5,-866.5 781.5,-866.5 781.5,-866.5 775.5,-866.5 769.5,-860.5 769.5,-854.5 769.5,-854.5 769.5,-786.5 769.5,-786.5 769.5,-780.5 775.5,-774.5 781.5,-774.5"/>
<text text-anchor="middle" x="888" y="-851.3" font-family="Times,serif" font-size="14.00">type = 3 (ID)</text>
<polyline fill="none" stroke="black" points="769.5,-843.5 1006.5,-843.5 "/>
<text text-anchor="middle" x="888" y="-828.3" font-family="Times,serif" font-size="14.00">name = &#39;&#39; numb &#39;&#39;</text>
<polyline fill="none" stroke="black" points="769.5,-820.5 1006.5,-820.5 "/>
<text text-anchor="middle" x="888" y="-805.3" font-family="Times,serif" font-size="14.00">number in name table = &#39;&#39; 22 &#39;&#39;</text>
<polyline fill="none" stroke="black" points="769.5,-797.5 1006.5,-797.5 "/>
<text text-anchor="middle" x="888" y="-782.3" font-family="Times,serif" font-size="14.00">id_type = LOCL</text>
</g>
<!-- node0x503000000790&#45;&gt;node0x503000000340 -->
<g id="edge21" class="edge">
<title>node0x503000000790&#45;&gt;node0x503000000340</title>
<path fill="none" stroke="black" d="M1082.07,-926.38C1054.06,-911.24 1015.78,-890.56 980.62,-871.55"/>
<polygon fill="black" stroke="black" points="982.21,-868.44 971.75,-866.76 978.89,-874.6 982.21,-868.44"/>
</g>
<!-- node0x503000000400 -->
<g id="node23" class="node">
<title>node0x503000000400</title>
<path fill="#e0e0e0" stroke="black" d="M1036.5,-797.5C1036.5,-797.5 1209.5,-797.5 1209.5,-797.5 1215.5,-797.5 1221.5,-803.5 1221.5,-809.5 1221.5,-809.5 1221.5,-831.5 1221.5,-831.5 1221.5,-837.5 1215.5,-843.5 1209.5,-843.5 1209.5,-843.5 1036.5,-843.5 1036.5,-843.5 1030.5,-843.5 1024.5,-837.5 1024.5,-831.5 1024.5,-831.5 1024.5,-809.5 1024.5,-809.5 1024.5,-803.5 1030.5,-797.5 1036.5,-797.5"/>
<text text-anchor="middle" x="1123" y="-828.3" font-family="Times,serif" font-size="14.00">type = 2 (OP)</text>
<polyline fill="none" stroke="black" points="1024.5,-820.5 1221.5,-820.5 "/>
<text text-anchor="middle" x="1123" y="-805.3" font-family="Times,serif" font-size="14.00">value = &#39;&#39; SHUTUP &#39;&#39; (59)</text>
</g>
<!-- node0x503000000790&#45;&gt;node0x503000000400 -->
<g id="edge22" class="edge">
<title>node0x503000000790&#45;&gt;node0x503000000400</title>
<path fill="none" stroke="black" d="M1123,-926.38C1123,-906.38 1123,-876.68 1123,-853.98"/>
<polygon fill="black" stroke="black" points="1126.5,-853.79 1123,-843.79 1119.5,-853.79 1126.5,-853.79"/>
</g>
<!-- node0x503000000850 -->
<g id="node45" class="node">
<title>node0x503000000850</title>
<path fill="#00ffdd" stroke="black" d="M1297.5,-797.5C1297.5,-797.5 1418.5,-797.5 1418.5,-797.5 1424.5,-797.5 1430.5,-803.5 1430.5,-809.5 1430.5,-809.5 1430.5,-831.5 1430.5,-831.5 1430.5,-837.5 1424.5,-843.5 1418.5,-843.5 1418.5,-843.5 1297.5,-843.5 1297.5,-843.5 1291.5,-843.5 1285.5,-837.5 1285.5,-831.5 1285.5,-831.5 1285.5,-809.5 1285.5,-809.5 1285.5,-803.5 1291.5,-797.5 1297.5,-797.5"/>
<text text-anchor="middle" x="1358" y="-828.3" font-family="Times,serif" font-size="14.00">type = 2 (OP)</text>
<polyline fill="none" stroke="black" points="1285.5,-820.5 1430.5,-820.5 "/>
<text text-anchor="middle" x="1358" y="-805.3" font-family="Times,serif" font-size="14.00">value = &#39;&#39; = &#39;&#39; (61)</text>
</g>
<!-- node0x503000000880&#45;&gt;node0x503000000850 -->
<g id="edge44" class="edge">
<title>node0x503000000880&#45;&gt;node0x503000000850</title>
<path fill="none" stroke="black" d="M1349.74,-926.38C1351.32,-906.38 1353.66,-876.68 1355.44,-853.98"/>
<polygon fill="black" stroke="black" points="1358.95,-854.04 1356.24,-843.79 1351.97,-853.49 1358.95,-854.04"/>
</g>
<!-- node0x5030000003d0 -->
<g id="node24" class="node">
<title>node0x5030000003d0</title>
<path fill="#00ffdd" stroke="black" d="M853.5,-668.5C853.5,-668.5 974.5,-668.5 974.5,-668.5 980.5,-668.5 986.5,-674.5 986.5,-680.5 986.5,-680.5 986.5,-702.5 986.5,-702.5 986.5,-708.5 980.5,-714.5 974.5,-714.5 974.5,-714.5 853.5,-714.5 853.5,-714.5 847.5,-714.5 841.5,-708.5 841.5,-702.5 841.5,-702.5 841.5,-680.5 841.5,-680.5 841.5,-674.5 847.5,-668.5 853.5,-668.5"/>
<text text-anchor="middle" x="914" y="-699.3" font-family="Times,serif" font-size="14.00">type = 2 (OP)</text>
<polyline fill="none" stroke="black" points="841.5,-691.5 986.5,-691.5 "/>
<text text-anchor="middle" x="914" y="-676.3" font-family="Times,serif" font-size="14.00">value = &#39;&#39; = &#39;&#39; (61)</text>
</g>
<!-- node0x503000000400&#45;&gt;node0x5030000003d0 -->
<g id="edge23" class="edge">
<title>node0x503000000400&#45;&gt;node0x5030000003d0</title>
<path fill="none" stroke="black" d="M1086.59,-797.38C1051.19,-775.86 997.31,-743.13 959.19,-719.96"/>
<polygon fill="black" stroke="black" points="960.7,-716.78 950.34,-714.58 957.07,-722.77 960.7,-716.78"/>
</g>
<!-- node0x503000000520 -->
<g id="node25" class="node">
<title>node0x503000000520</title>
<path fill="#e0e0e0" stroke="black" d="M1036.5,-668.5C1036.5,-668.5 1209.5,-668.5 1209.5,-668.5 1215.5,-668.5 1221.5,-674.5 1221.5,-680.5 1221.5,-680.5 1221.5,-702.5 1221.5,-702.5 1221.5,-708.5 1215.5,-714.5 1209.5,-714.5 1209.5,-714.5 1036.5,-714.5 1036.5,-714.5 1030.5,-714.5 1024.5,-708.5 1024.5,-702.5 1024.5,-702.5 1024.5,-680.5 1024.5,-680.5 1024.5,-674.5 1030.5,-668.5 1036.5,-668.5"/>
<text text-anchor="middle" x="1123" y="-699.3" font-family="Times,serif" font-size="14.00">type = 2 (OP)</text>
<polyline fill="none" stroke="black" points="1024.5,-691.5 1221.5,-691.5 "/>
<text text-anchor="middle" x="1123" y="-676.3" font-family="Times,serif" font-size="14.00">value = &#39;&#39; SHUTUP &#39;&#39; (59)</text>
</g>
<!-- node0x503000000400&#45;&gt;node0x503000000520 -->
<g id="edge24" class="edge">
<title>node0x503000000400&#45;&gt;node0x503000000520</title>
<path fill="none" stroke="black" d="M1123,-797.38C1123,-777.38 1123,-747.68 1123,-724.98"/>
<polygon fill="black" stroke="black" points="1126.5,-724.79 1123,-714.79 1119.5,-724.79 1126.5,-724.79"/>
</g>
<!-- node0x503000000370 -->
<g id="node26" class="node">
<title>node0x503000000370</title>
<path fill="#ff5050" stroke="black" d="M552.5,-516.5C552.5,-516.5 765.5,-516.5 765.5,-516.5 771.5,-516.5 777.5,-522.5 777.5,-528.5 777.5,-528.5 777.5,-596.5 777.5,-596.5 777.5,-602.5 771.5,-608.5 765.5,-608.5 765.5,-608.5 552.5,-608.5 552.5,-608.5 546.5,-608.5 540.5,-602.5 540.5,-596.5 540.5,-596.5 540.5,-528.5 540.5,-528.5 540.5,-522.5 546.5,-516.5 552.5,-516.5"/>
<text text-anchor="middle" x="659" y="-593.3" font-family="Times,serif" font-size="14.00">type = 3 (ID)</text>
<polyline fill="none" stroke="black" points="540.5,-585.5 777.5,-585.5 "/>
<text text-anchor="middle" x="659" y="-570.3" font-family="Times,serif" font-size="14.00">name = &#39;&#39; old &#39;&#39;</text>
<polyline fill="none" stroke="black" points="540.5,-562.5 777.5,-562.5 "/>
<text text-anchor="middle" x="659" y="-547.3" font-family="Times,serif" font-size="14.00">number in name table = &#39;&#39; 24 &#39;&#39;</text>
<polyline fill="none" stroke="black" points="540.5,-539.5 777.5,-539.5 "/>
<text text-anchor="middle" x="659" y="-524.3" font-family="Times,serif" font-size="14.00">id_type = LOCL</text>
</g>
<!-- node0x5030000003d0&#45;&gt;node0x503000000370 -->
<g id="edge25" class="edge">
<title>node0x5030000003d0&#45;&gt;node0x503000000370</title>
<path fill="none" stroke="black" d="M869.58,-668.38C839,-653.15 797.12,-632.29 758.77,-613.19"/>
<polygon fill="black" stroke="black" points="760.13,-609.96 749.62,-608.63 757.01,-616.22 760.13,-609.96"/>
</g>
<!-- node0x5030000003a0 -->
<g id="node27" class="node">
<title>node0x5030000003a0</title>
<path fill="#ff5050" stroke="black" d="M807.5,-516.5C807.5,-516.5 1020.5,-516.5 1020.5,-516.5 1026.5,-516.5 1032.5,-522.5 1032.5,-528.5 1032.5,-528.5 1032.5,-596.5 1032.5,-596.5 1032.5,-602.5 1026.5,-608.5 1020.5,-608.5 1020.5,-608.5 807.5,-608.5 807.5,-608.5 801.5,-608.5 795.5,-602.5 795.5,-596.5 795.5,-596.5 795.5,-528.5 795.5,-528.5 795.5,-522.5 801.5,-516.5 807.5,-516.5"/>
<text text-anchor="middle" x="914" y="-593.3" font-family="Times,serif" font-size="14.00">type = 3 (ID)</text>
<polyline fill="none" stroke="black" points="795.5,-585.5 1032.5,-585.5 "/>
<text text-anchor="middle" x="914" y="-570.3" font-family="Times,serif" font-size="14.00">name = &#39;&#39; numb &#39;&#39;</text>
<polyline fill="none" stroke="black" points="795.5,-562.5 1032.5,-562.5 "/>
<text text-anchor="middle" x="914" y="-547.3" font-family="Times,serif" font-size="14.00">number in name table = &#39;&#39; 22 &#39;&#39;</text>
<polyline fill="none" stroke="black" points="795.5,-539.5 1032.5,-539.5 "/>
<text text-anchor="middle" x="914" y="-524.3" font-family="Times,serif" font-size="14.00">id_type = LOCL</text>
</g>
<!-- node0x5030000003d0&#45;&gt;node0x5030000003a0 -->
<g id="edge26" class="edge">
<title>node0x5030000003d0&#45;&gt;node0x5030000003a0</title>
<path fill="none" stroke="black" d="M914,-668.38C914,-654.66 914,-636.37 914,-618.91"/>
<polygon fill="black" stroke="black" points="917.5,-618.76 914,-608.76 910.5,-618.76 917.5,-618.76"/>
</g>
<!-- node0x5030000004f0 -->
<g id="node28" class="node">
<title>node0x5030000004f0</title>
<path fill="#00ffdd" stroke="black" d="M1062.5,-539.5C1062.5,-539.5 1183.5,-539.5 1183.5,-539.5 1189.5,-539.5 1195.5,-545.5 1195.5,-551.5 1195.5,-551.5 1195.5,-573.5 1195.5,-573.5 1195.5,-579.5 1189.5,-585.5 1183.5,-585.5 1183.5,-585.5 1062.5,-585.5 1062.5,-585.5 1056.5,-585.5 1050.5,-579.5 1050.5,-573.5 1050.5,-573.5 1050.5,-551.5 1050.5,-551.5 1050.5,-545.5 1056.5,-539.5 1062.5,-539.5"/>
<text text-anchor="middle" x="1123" y="-570.3" font-family="Times,serif" font-size="14.00">type = 2 (OP)</text>
<polyline fill="none" stroke="black" points="1050.5,-562.5 1195.5,-562.5 "/>
<text text-anchor="middle" x="1123" y="-547.3" font-family="Times,serif" font-size="14.00">value = &#39;&#39; = &#39;&#39; (61)</text>
</g>
<!-- node0x503000000520&#45;&gt;node0x5030000004f0 -->
<g id="edge27" class="edge">
<title>node0x503000000520&#45;&gt;node0x5030000004f0</title>
<path fill="none" stroke="black" d="M1123,-668.38C1123,-648.38 1123,-618.68 1123,-595.98"/>
<polygon fill="black" stroke="black" points="1126.5,-595.79 1123,-585.79 1119.5,-595.79 1126.5,-595.79"/>
</g>
<!-- node0x503000000640 -->
<g id="node29" class="node">
<title>node0x503000000640</title>
<path fill="#e0e0e0" stroke="black" d="M1349.5,-539.5C1349.5,-539.5 1522.5,-539.5 1522.5,-539.5 1528.5,-539.5 1534.5,-545.5 1534.5,-551.5 1534.5,-551.5 1534.5,-573.5 1534.5,-573.5 1534.5,-579.5 1528.5,-585.5 1522.5,-585.5 1522.5,-585.5 1349.5,-585.5 1349.5,-585.5 1343.5,-585.5 1337.5,-579.5 1337.5,-573.5 1337.5,-573.5 1337.5,-551.5 1337.5,-551.5 1337.5,-545.5 1343.5,-539.5 1349.5,-539.5"/>
<text text-anchor="middle" x="1436" y="-570.3" font-family="Times,serif" font-size="14.00">type = 2 (OP)</text>
<polyline fill="none" stroke="black" points="1337.5,-562.5 1534.5,-562.5 "/>
<text text-anchor="middle" x="1436" y="-547.3" font-family="Times,serif" font-size="14.00">value = &#39;&#39; SHUTUP &#39;&#39; (59)</text>
</g>
<!-- node0x503000000520&#45;&gt;node0x503000000640 -->
<g id="edge28" class="edge">
<title>node0x503000000520&#45;&gt;node0x503000000640</title>
<path fill="none" stroke="black" d="M1174.05,-668.48C1191.73,-660.94 1211.7,-652.51 1230,-645 1276.45,-625.94 1329.09,-605.13 1369.53,-589.31"/>
<polygon fill="black" stroke="black" points="1370.97,-592.5 1379.01,-585.6 1368.42,-585.98 1370.97,-592.5"/>
</g>
<!-- node0x503000000430 -->
<g id="node30" class="node">
<title>node0x503000000430</title>
<path fill="#ff5050" stroke="black" d="M795.5,-387.5C795.5,-387.5 1008.5,-387.5 1008.5,-387.5 1014.5,-387.5 1020.5,-393.5 1020.5,-399.5 1020.5,-399.5 1020.5,-467.5 1020.5,-467.5 1020.5,-473.5 1014.5,-479.5 1008.5,-479.5 1008.5,-479.5 795.5,-479.5 795.5,-479.5 789.5,-479.5 783.5,-473.5 783.5,-467.5 783.5,-467.5 783.5,-399.5 783.5,-399.5 783.5,-393.5 789.5,-387.5 795.5,-387.5"/>
<text text-anchor="middle" x="902" y="-464.3" font-family="Times,serif" font-size="14.00">type = 3 (ID)</text>
<polyline fill="none" stroke="black" points="783.5,-456.5 1020.5,-456.5 "/>
<text text-anchor="middle" x="902" y="-441.3" font-family="Times,serif" font-size="14.00">name = &#39;&#39; result &#39;&#39;</text>
<polyline fill="none" stroke="black" points="783.5,-433.5 1020.5,-433.5 "/>
<text text-anchor="middle" x="902" y="-418.3" font-family="Times,serif" font-size="14.00">number in name table = &#39;&#39; 23 &#39;&#39;</text>
<polyline fill="none" stroke="black" points="783.5,-410.5 1020.5,-410.5 "/>
<text text-anchor="middle" x="902" y="-395.3" font-family="Times,serif" font-size="14.00">id_type = LOCL</text>
</g>
<!-- node0x5030000004f0&#45;&gt;node0x503000000430 -->
<g id="edge29" class="edge">
<title>node0x5030000004f0&#45;&gt;node0x503000000430</title>
<path fill="none" stroke="black" d="M1084.5,-539.38C1058.28,-524.31 1022.47,-503.73 989.52,-484.79"/>
<polygon fill="black" stroke="black" points="991.18,-481.71 980.76,-479.76 987.69,-487.78 991.18,-481.71"/>
</g>
<!-- node0x5030000004c0 -->
<g id="node31" class="node">
<title>node0x5030000004c0</title>
<path fill="#00ffdd" stroke="black" d="M1051,-410.5C1051,-410.5 1195,-410.5 1195,-410.5 1201,-410.5 1207,-416.5 1207,-422.5 1207,-422.5 1207,-444.5 1207,-444.5 1207,-450.5 1201,-456.5 1195,-456.5 1195,-456.5 1051,-456.5 1051,-456.5 1045,-456.5 1039,-450.5 1039,-444.5 1039,-444.5 1039,-422.5 1039,-422.5 1039,-416.5 1045,-410.5 1051,-410.5"/>
<text text-anchor="middle" x="1123" y="-441.3" font-family="Times,serif" font-size="14.00">type = 2 (OP)</text>
<polyline fill="none" stroke="black" points="1039,-433.5 1207,-433.5 "/>
<text text-anchor="middle" x="1123" y="-418.3" font-family="Times,serif" font-size="14.00">value = &#39;&#39; MUL &#39;&#39; (42)</text>
</g>
<!-- node0x5030000004f0&#45;&gt;node0x5030000004c0 -->
<g id="edge30" class="edge">
<title>node0x5030000004f0&#45;&gt;node0x5030000004c0</title>
<path fill="none" stroke="black" d="M1123,-539.38C1123,-519.38 1123,-489.68 1123,-466.98"/>
<polygon fill="black" stroke="black" points="1126.5,-466.79 1123,-456.79 1119.5,-466.79 1126.5,-466.79"/>
</g>
<!-- node0x503000000610 -->
<g id="node34" class="node">
<title>node0x503000000610</title>
<path fill="#00ffdd" stroke="black" d="M1375.5,-410.5C1375.5,-410.5 1496.5,-410.5 1496.5,-410.5 1502.5,-410.5 1508.5,-416.5 1508.5,-422.5 1508.5,-422.5 1508.5,-444.5 1508.5,-444.5 1508.5,-450.5 1502.5,-456.5 1496.5,-456.5 1496.5,-456.5 1375.5,-456.5 1375.5,-456.5 1369.5,-456.5 1363.5,-450.5 1363.5,-444.5 1363.5,-444.5 1363.5,-422.5 1363.5,-422.5 1363.5,-416.5 1369.5,-410.5 1375.5,-410.5"/>
<text text-anchor="middle" x="1436" y="-441.3" font-family="Times,serif" font-size="14.00">type = 2 (OP)</text>
<polyline fill="none" stroke="black" points="1363.5,-433.5 1508.5,-433.5 "/>
<text text-anchor="middle" x="1436" y="-418.3" font-family="Times,serif" font-size="14.00">value = &#39;&#39; = &#39;&#39; (61)</text>
</g>
<!-- node0x503000000640&#45;&gt;node0x503000000610 -->
<g id="edge33" class="edge">
<title>node0x503000000640&#45;&gt;node0x503000000610</title>
<path fill="none" stroke="black" d="M1436,-539.38C1436,-519.38 1436,-489.68 1436,-466.98"/>
<polygon fill="black" stroke="black" points="1439.5,-466.79 1436,-456.79 1432.5,-466.79 1439.5,-466.79"/>
</g>
<!-- node0x503000000760 -->
<g id="node35" class="node">
<title>node0x503000000760</title>
<path fill="#e0e0e0" stroke="black" d="M1654.5,-410.5C1654.5,-410.5 1827.5,-410.5 1827.5,-410.5 1833.5,-410.5 1839.5,-416.5 1839.5,-422.5 1839.5,-422.5 1839.5,-444.5 1839.5,-444.5 1839.5,-450.5 1833.5,-456.5 1827.5,-456.5 1827.5,-456.5 1654.5,-456.5 1654.5,-456.5 1648.5,-456.5 1642.5,-450.5 1642.5,-444.5 1642.5,-444.5 1642.5,-422.5 1642.5,-422.5 1642.5,-416.5 1648.5,-410.5 1654.5,-410.5"/>
<text text-anchor="middle" x="1741" y="-441.3" font-family="Times,serif" font-size="14.00">type = 2 (OP)</text>
<polyline fill="none" stroke="black" points="1642.5,-433.5 1839.5,-433.5 "/>
<text text-anchor="middle" x="1741" y="-418.3" font-family="Times,serif" font-size="14.00">value = &#39;&#39; SHUTUP &#39;&#39; (59)</text>
</g>
<!-- node0x503000000640&#45;&gt;node0x503000000760 -->
<g id="edge34" class="edge">
<title>node0x503000000640&#45;&gt;node0x503000000760</title>
<path fill="none" stroke="black" d="M1489.13,-539.38C1541.88,-517.41 1622.75,-483.74 1678.55,-460.5"/>
<polygon fill="black" stroke="black" points="1680.08,-463.66 1687.97,-456.58 1677.39,-457.19 1680.08,-463.66"/>
</g>
<!-- node0x503000000460 -->
<g id="node32" class="node">
<title>node0x503000000460</title>
<path fill="#ff5050" stroke="black" d="M761.5,-258.5C761.5,-258.5 974.5,-258.5 974.5,-258.5 980.5,-258.5 986.5,-264.5 986.5,-270.5 986.5,-270.5 986.5,-338.5 986.5,-338.5 986.5,-344.5 980.5,-350.5 974.5,-350.5 974.5,-350.5 761.5,-350.5 761.5,-350.5 755.5,-350.5 749.5,-344.5 749.5,-338.5 749.5,-338.5 749.5,-270.5 749.5,-270.5 749.5,-264.5 755.5,-258.5 761.5,-258.5"/>
<text text-anchor="middle" x="868" y="-335.3" font-family="Times,serif" font-size="14.00">type = 3 (ID)</text>
<polyline fill="none" stroke="black" points="749.5,-327.5 986.5,-327.5 "/>
<text text-anchor="middle" x="868" y="-312.3" font-family="Times,serif" font-size="14.00">name = &#39;&#39; result &#39;&#39;</text>
<polyline fill="none" stroke="black" points="749.5,-304.5 986.5,-304.5 "/>
<text text-anchor="middle" x="868" y="-289.3" font-family="Times,serif" font-size="14.00">number in name table = &#39;&#39; 23 &#39;&#39;</text>
<polyline fill="none" stroke="black" points="749.5,-281.5 986.5,-281.5 "/>
<text text-anchor="middle" x="868" y="-266.3" font-family="Times,serif" font-size="14.00">id_type = LOCL</text>
</g>
<!-- node0x5030000004c0&#45;&gt;node0x503000000460 -->
<g id="edge31" class="edge">
<title>node0x5030000004c0&#45;&gt;node0x503000000460</title>
<path fill="none" stroke="black" d="M1078.58,-410.38C1048,-395.15 1006.12,-374.29 967.77,-355.19"/>
<polygon fill="black" stroke="black" points="969.13,-351.96 958.62,-350.63 966.01,-358.22 969.13,-351.96"/>
</g>
<!-- node0x503000000490 -->
<g id="node33" class="node">
<title>node0x503000000490</title>
<path fill="#ff5050" stroke="black" d="M1016.5,-258.5C1016.5,-258.5 1229.5,-258.5 1229.5,-258.5 1235.5,-258.5 1241.5,-264.5 1241.5,-270.5 1241.5,-270.5 1241.5,-338.5 1241.5,-338.5 1241.5,-344.5 1235.5,-350.5 1229.5,-350.5 1229.5,-350.5 1016.5,-350.5 1016.5,-350.5 1010.5,-350.5 1004.5,-344.5 1004.5,-338.5 1004.5,-338.5 1004.5,-270.5 1004.5,-270.5 1004.5,-264.5 1010.5,-258.5 1016.5,-258.5"/>
<text text-anchor="middle" x="1123" y="-335.3" font-family="Times,serif" font-size="14.00">type = 3 (ID)</text>
<polyline fill="none" stroke="black" points="1004.5,-327.5 1241.5,-327.5 "/>
<text text-anchor="middle" x="1123" y="-312.3" font-family="Times,serif" font-size="14.00">name = &#39;&#39; old &#39;&#39;</text>
<polyline fill="none" stroke="black" points="1004.5,-304.5 1241.5,-304.5 "/>
<text text-anchor="middle" x="1123" y="-289.3" font-family="Times,serif" font-size="14.00">number in name table = &#39;&#39; 24 &#39;&#39;</text>
<polyline fill="none" stroke="black" points="1004.5,-281.5 1241.5,-281.5 "/>
<text text-anchor="middle" x="1123" y="-266.3" font-family="Times,serif" font-size="14.00">id_type = LOCL</text>
</g>
<!-- node0x5030000004c0&#45;&gt;node0x503000000490 -->
<g id="edge32" class="edge">
<title>node0x5030000004c0&#45;&gt;node0x503000000490</title>
<path fill="none" stroke="black" d="M1123,-410.38C1123,-396.66 1123,-378.37 1123,-360.91"/>
<polygon fill="black" stroke="black" points="1126.5,-360.76 1123,-350.76 1119.5,-360.76 1126.5,-360.76"/>
</g>
<!-- node0x503000000550 -->
<g id="node36" class="node">
<title>node0x503000000550</title>
<path fill="#ff5050" stroke="black" d="M1271.5,-258.5C1271.5,-258.5 1484.5,-258.5 1484.5,-258.5 1490.5,-258.5 1496.5,-264.5 1496.5,-270.5 1496.5,-270.5 1496.5,-338.5 1496.5,-338.5 1496.5,-344.5 1490.5,-350.5 1484.5,-350.5 1484.5,-350.5 1271.5,-350.5 1271.5,-350.5 1265.5,-350.5 1259.5,-344.5 1259.5,-338.5 1259.5,-338.5 1259.5,-270.5 1259.5,-270.5 1259.5,-264.5 1265.5,-258.5 1271.5,-258.5"/>
<text text-anchor="middle" x="1378" y="-335.3" font-family="Times,serif" font-size="14.00">type = 3 (ID)</text>
<polyline fill="none" stroke="black" points="1259.5,-327.5 1496.5,-327.5 "/>
<text text-anchor="middle" x="1378" y="-312.3" font-family="Times,serif" font-size="14.00">name = &#39;&#39; old &#39;&#39;</text>
<polyline fill="none" stroke="black" points="1259.5,-304.5 1496.5,-304.5 "/>
<text text-anchor="middle" x="1378" y="-289.3" font-family="Times,serif" font-size="14.00">number in name table = &#39;&#39; 24 &#39;&#39;</text>
<polyline fill="none" stroke="black" points="1259.5,-281.5 1496.5,-281.5 "/>
<text text-anchor="middle" x="1378" y="-266.3" font-family="Times,serif" font-size="14.00">id_type = LOCL</text>
</g>
<!-- node0x503000000610&#45;&gt;node0x503000000550 -->
<g id="edge35" class="edge">
<title>node0x503000000610&#45;&gt;node0x503000000550</title>
<path fill="none" stroke="black" d="M1425.9,-410.38C1419.51,-396.4 1410.96,-377.68 1402.86,-359.93"/>
<polygon fill="black" stroke="black" points="1406.01,-358.4 1398.67,-350.76 1399.64,-361.31 1406.01,-358.4"/>
</g>
<!-- node0x5030000005e0 -->
<g id="node37" class="node">
<title>node0x5030000005e0</title>
<path fill="#00ffdd" stroke="black" d="M1526.5,-281.5C1526.5,-281.5 1667.5,-281.5 1667.5,-281.5 1673.5,-281.5 1679.5,-287.5 1679.5,-293.5 1679.5,-293.5 1679.5,-315.5 1679.5,-315.5 1679.5,-321.5 1673.5,-327.5 1667.5,-327.5 1667.5,-327.5 1526.5,-327.5 1526.5,-327.5 1520.5,-327.5 1514.5,-321.5 1514.5,-315.5 1514.5,-315.5 1514.5,-293.5 1514.5,-293.5 1514.5,-287.5 1520.5,-281.5 1526.5,-281.5"/>
<text text-anchor="middle" x="1597" y="-312.3" font-family="Times,serif" font-size="14.00">type = 2 (OP)</text>
<polyline fill="none" stroke="black" points="1514.5,-304.5 1679.5,-304.5 "/>
<text text-anchor="middle" x="1597" y="-289.3" font-family="Times,serif" font-size="14.00">value = &#39;&#39; SUB &#39;&#39; (45)</text>
</g>
<!-- node0x503000000610&#45;&gt;node0x5030000005e0 -->
<g id="edge36" class="edge">
<title>node0x503000000610&#45;&gt;node0x5030000005e0</title>
<path fill="none" stroke="black" d="M1464.04,-410.38C1490.97,-389.14 1531.77,-356.95 1561.07,-333.84"/>
<polygon fill="black" stroke="black" points="1563.32,-336.52 1569.01,-327.58 1558.99,-331.03 1563.32,-336.52"/>
</g>
<!-- node0x503000000730 -->
<g id="node40" class="node">
<title>node0x503000000730</title>
<path fill="#00ffdd" stroke="black" d="M1738.5,-281.5C1738.5,-281.5 1859.5,-281.5 1859.5,-281.5 1865.5,-281.5 1871.5,-287.5 1871.5,-293.5 1871.5,-293.5 1871.5,-315.5 1871.5,-315.5 1871.5,-321.5 1865.5,-327.5 1859.5,-327.5 1859.5,-327.5 1738.5,-327.5 1738.5,-327.5 1732.5,-327.5 1726.5,-321.5 1726.5,-315.5 1726.5,-315.5 1726.5,-293.5 1726.5,-293.5 1726.5,-287.5 1732.5,-281.5 1738.5,-281.5"/>
<text text-anchor="middle" x="1799" y="-312.3" font-family="Times,serif" font-size="14.00">type = 2 (OP)</text>
<polyline fill="none" stroke="black" points="1726.5,-304.5 1871.5,-304.5 "/>
<text text-anchor="middle" x="1799" y="-289.3" font-family="Times,serif" font-size="14.00">value = &#39;&#39; = &#39;&#39; (61)</text>
</g>
<!-- node0x503000000760&#45;&gt;node0x503000000730 -->
<g id="edge39" class="edge">
<title>node0x503000000760&#45;&gt;node0x503000000730</title>
<path fill="none" stroke="black" d="M1751.1,-410.38C1760.36,-390.11 1774.17,-359.87 1784.59,-337.06"/>
<polygon fill="black" stroke="black" points="1787.85,-338.34 1788.82,-327.79 1781.48,-335.44 1787.85,-338.34"/>
</g>
<!-- node0x503000000580 -->
<g id="node38" class="node">
<title>node0x503000000580</title>
<path fill="#ff5050" stroke="black" d="M1288.5,-129.5C1288.5,-129.5 1501.5,-129.5 1501.5,-129.5 1507.5,-129.5 1513.5,-135.5 1513.5,-141.5 1513.5,-141.5 1513.5,-209.5 1513.5,-209.5 1513.5,-215.5 1507.5,-221.5 1501.5,-221.5 1501.5,-221.5 1288.5,-221.5 1288.5,-221.5 1282.5,-221.5 1276.5,-215.5 1276.5,-209.5 1276.5,-209.5 1276.5,-141.5 1276.5,-141.5 1276.5,-135.5 1282.5,-129.5 1288.5,-129.5"/>
<text text-anchor="middle" x="1395" y="-206.3" font-family="Times,serif" font-size="14.00">type = 3 (ID)</text>
<polyline fill="none" stroke="black" points="1276.5,-198.5 1513.5,-198.5 "/>
<text text-anchor="middle" x="1395" y="-183.3" font-family="Times,serif" font-size="14.00">name = &#39;&#39; numb &#39;&#39;</text>
<polyline fill="none" stroke="black" points="1276.5,-175.5 1513.5,-175.5 "/>
<text text-anchor="middle" x="1395" y="-160.3" font-family="Times,serif" font-size="14.00">number in name table = &#39;&#39; 22 &#39;&#39;</text>
<polyline fill="none" stroke="black" points="1276.5,-152.5 1513.5,-152.5 "/>
<text text-anchor="middle" x="1395" y="-137.3" font-family="Times,serif" font-size="14.00">id_type = LOCL</text>
</g>
<!-- node0x5030000005e0&#45;&gt;node0x503000000580 -->
<g id="edge37" class="edge">
<title>node0x5030000005e0&#45;&gt;node0x503000000580</title>
<path fill="none" stroke="black" d="M1561.81,-281.38C1538.05,-266.44 1505.67,-246.08 1475.77,-227.28"/>
<polygon fill="black" stroke="black" points="1477.32,-224.12 1466.99,-221.76 1473.59,-230.05 1477.32,-224.12"/>
</g>
<!-- node0x5030000005b0 -->
<g id="node39" class="node">
<title>node0x5030000005b0</title>
<path fill="#ffd700" stroke="black" d="M1543.5,-152.5C1543.5,-152.5 1650.5,-152.5 1650.5,-152.5 1656.5,-152.5 1662.5,-158.5 1662.5,-164.5 1662.5,-164.5 1662.5,-186.5 1662.5,-186.5 1662.5,-192.5 1656.5,-198.5 1650.5,-198.5 1650.5,-198.5 1543.5,-198.5 1543.5,-198.5 1537.5,-198.5 1531.5,-192.5 1531.5,-186.5 1531.5,-186.5 1531.5,-164.5 1531.5,-164.5 1531.5,-158.5 1537.5,-152.5 1543.5,-152.5"/>
<text text-anchor="middle" x="1597" y="-183.3" font-family="Times,serif" font-size="14.00">type = 1 (NUM)</text>
<polyline fill="none" stroke="black" points="1531.5,-175.5 1662.5,-175.5 "/>
<text text-anchor="middle" x="1597" y="-160.3" font-family="Times,serif" font-size="14.00">value = &#39;&#39; 1 &#39;&#39;</text>
</g>
<!-- node0x5030000005e0&#45;&gt;node0x5030000005b0 -->
<g id="edge38" class="edge">
<title>node0x5030000005e0&#45;&gt;node0x5030000005b0</title>
<path fill="none" stroke="black" d="M1597,-281.38C1597,-261.38 1597,-231.68 1597,-208.98"/>
<polygon fill="black" stroke="black" points="1600.5,-208.79 1597,-198.79 1593.5,-208.79 1600.5,-208.79"/>
</g>
<!-- node0x503000000670 -->
<g id="node41" class="node">
<title>node0x503000000670</title>
<path fill="#ff5050" stroke="black" d="M1692.5,-129.5C1692.5,-129.5 1905.5,-129.5 1905.5,-129.5 1911.5,-129.5 1917.5,-135.5 1917.5,-141.5 1917.5,-141.5 1917.5,-209.5 1917.5,-209.5 1917.5,-215.5 1911.5,-221.5 1905.5,-221.5 1905.5,-221.5 1692.5,-221.5 1692.5,-221.5 1686.5,-221.5 1680.5,-215.5 1680.5,-209.5 1680.5,-209.5 1680.5,-141.5 1680.5,-141.5 1680.5,-135.5 1686.5,-129.5 1692.5,-129.5"/>
<text text-anchor="middle" x="1799" y="-206.3" font-family="Times,serif" font-size="14.00">type = 3 (ID)</text>
<polyline fill="none" stroke="black" points="1680.5,-198.5 1917.5,-198.5 "/>
<text text-anchor="middle" x="1799" y="-183.3" font-family="Times,serif" font-size="14.00">name = &#39;&#39; numb &#39;&#39;</text>
<polyline fill="none" stroke="black" points="1680.5,-175.5 1917.5,-175.5 "/>
<text text-anchor="middle" x="1799" y="-160.3" font-family="Times,serif" font-size="14.00">number in name table = &#39;&#39; 22 &#39;&#39;</text>
<polyline fill="none" stroke="black" points="1680.5,-152.5 1917.5,-152.5 "/>
<text text-anchor="middle" x="1799" y="-137.3" font-family="Times,serif" font-size="14.00">id_type = LOCL</text>
</g>
<!-- node0x503000000730&#45;&gt;node0x503000000670 -->
<g id="edge40" class="edge">
<title>node0x503000000730&#45;&gt;node0x503000000670</title>
<path fill="none" stroke="black" d="M1799,-281.38C1799,-267.66 1799,-249.37 1799,-231.91"/>
<polygon fill="black" stroke="black" points="1802.5,-231.76 1799,-221.76 1795.5,-231.76 1802.5,-231.76"/>
</g>
<!-- node0x503000000700 -->
<g id="node42" class="node">
<title>node0x503000000700</title>
<path fill="#00ffdd" stroke="black" d="M1947.5,-152.5C1947.5,-152.5 2088.5,-152.5 2088.5,-152.5 2094.5,-152.5 2100.5,-158.5 2100.5,-164.5 2100.5,-164.5 2100.5,-186.5 2100.5,-186.5 2100.5,-192.5 2094.5,-198.5 2088.5,-198.5 2088.5,-198.5 1947.5,-198.5 1947.5,-198.5 1941.5,-198.5 1935.5,-192.5 1935.5,-186.5 1935.5,-186.5 1935.5,-164.5 1935.5,-164.5 1935.5,-158.5 1941.5,-152.5 1947.5,-152.5"/>
<text text-anchor="middle" x="2018" y="-183.3" font-family="Times,serif" font-size="14.00">type = 2 (OP)</text>
<polyline fill="none" stroke="black" points="1935.5,-175.5 2100.5,-175.5 "/>
<text text-anchor="middle" x="2018" y="-160.3" font-family="Times,serif" font-size="14.00">value = &#39;&#39; SUB &#39;&#39; (45)</text>
</g>
<!-- node0x503000000730&#45;&gt;node0x503000000700 -->
<g id="edge41" class="edge">
<title>node0x503000000730&#45;&gt;node0x503000000700</title>
<path fill="none" stroke="black" d="M1837.15,-281.38C1874.4,-259.77 1931.18,-226.85 1971.16,-203.66"/>
<polygon fill="black" stroke="black" points="1973.03,-206.63 1979.92,-198.58 1969.52,-200.57 1973.03,-206.63"/>
</g>
<!-- node0x5030000006a0 -->
<g id="node43" class="node">
<title>node0x5030000006a0</title>
<path fill="#ff5050" stroke="black" d="M1810.5,-0.5C1810.5,-0.5 2023.5,-0.5 2023.5,-0.5 2029.5,-0.5 2035.5,-6.5 2035.5,-12.5 2035.5,-12.5 2035.5,-80.5 2035.5,-80.5 2035.5,-86.5 2029.5,-92.5 2023.5,-92.5 2023.5,-92.5 1810.5,-92.5 1810.5,-92.5 1804.5,-92.5 1798.5,-86.5 1798.5,-80.5 1798.5,-80.5 1798.5,-12.5 1798.5,-12.5 1798.5,-6.5 1804.5,-0.5 1810.5,-0.5"/>
<text text-anchor="middle" x="1917" y="-77.3" font-family="Times,serif" font-size="14.00">type = 3 (ID)</text>
<polyline fill="none" stroke="black" points="1798.5,-69.5 2035.5,-69.5 "/>
<text text-anchor="middle" x="1917" y="-54.3" font-family="Times,serif" font-size="14.00">name = &#39;&#39; numb &#39;&#39;</text>
<polyline fill="none" stroke="black" points="1798.5,-46.5 2035.5,-46.5 "/>
<text text-anchor="middle" x="1917" y="-31.3" font-family="Times,serif" font-size="14.00">number in name table = &#39;&#39; 22 &#39;&#39;</text>
<polyline fill="none" stroke="black" points="1798.5,-23.5 2035.5,-23.5 "/>
<text text-anchor="middle" x="1917" y="-8.3" font-family="Times,serif" font-size="14.00">id_type = LOCL</text>
</g>
<!-- node0x503000000700&#45;&gt;node0x5030000006a0 -->
<g id="edge42" class="edge">
<title>node0x503000000700&#45;&gt;node0x5030000006a0</title>
<path fill="none" stroke="black" d="M2000.41,-152.38C1989.09,-138.14 1973.86,-118.99 1959.51,-100.95"/>
<polygon fill="black" stroke="black" points="1961.96,-98.41 1953,-92.76 1956.48,-102.77 1961.96,-98.41"/>
</g>
<!-- node0x5030000006d0 -->
<g id="node44" class="node">
<title>node0x5030000006d0</title>
<path fill="#ffd700" stroke="black" d="M2065.5,-23.5C2065.5,-23.5 2172.5,-23.5 2172.5,-23.5 2178.5,-23.5 2184.5,-29.5 2184.5,-35.5 2184.5,-35.5 2184.5,-57.5 2184.5,-57.5 2184.5,-63.5 2178.5,-69.5 2172.5,-69.5 2172.5,-69.5 2065.5,-69.5 2065.5,-69.5 2059.5,-69.5 2053.5,-63.5 2053.5,-57.5 2053.5,-57.5 2053.5,-35.5 2053.5,-35.5 2053.5,-29.5 2059.5,-23.5 2065.5,-23.5"/>
<text text-anchor="middle" x="2119" y="-54.3" font-family="Times,serif" font-size="14.00">type = 1 (NUM)</text>
<polyline fill="none" stroke="black" points="2053.5,-46.5 2184.5,-46.5 "/>
<text text-anchor="middle" x="2119" y="-31.3" font-family="Times,serif" font-size="14.00">value = &#39;&#39; 1 &#39;&#39;</text>
</g>
<!-- node0x503000000700&#45;&gt;node0x5030000006d0 -->
<g id="edge43" class="edge">
<title>node0x503000000700&#45;&gt;node0x5030000006d0</title>
<path fill="none" stroke="black" d="M2035.59,-152.38C2052,-131.74 2076.62,-100.79 2094.86,-77.85"/>
<polygon fill="black" stroke="black" points="2097.78,-79.8 2101.27,-69.79 2092.31,-75.44 2097.78,-79.8"/>
</g>
<!-- node0x5030000007f0 -->
<g id="node46" class="node">
<title>node0x5030000007f0</title>
<path fill="#ff5050" stroke="black" d="M1251.5,-645.5C1251.5,-645.5 1464.5,-645.5 1464.5,-645.5 1470.5,-645.5 1476.5,-651.5 1476.5,-657.5 1476.5,-657.5 1476.5,-725.5 1476.5,-725.5 1476.5,-731.5 1470.5,-737.5 1464.5,-737.5 1464.5,-737.5 1251.5,-737.5 1251.5,-737.5 1245.5,-737.5 1239.5,-731.5 1239.5,-725.5 1239.5,-725.5 1239.5,-657.5 1239.5,-657.5 1239.5,-651.5 1245.5,-645.5 1251.5,-645.5"/>
<text text-anchor="middle" x="1358" y="-722.3" font-family="Times,serif" font-size="14.00">type = 3 (ID)</text>
<polyline fill="none" stroke="black" points="1239.5,-714.5 1476.5,-714.5 "/>
<text text-anchor="middle" x="1358" y="-699.3" font-family="Times,serif" font-size="14.00">name = &#39;&#39; result &#39;&#39;</text>
<polyline fill="none" stroke="black" points="1239.5,-691.5 1476.5,-691.5 "/>
<text text-anchor="middle" x="1358" y="-676.3" font-family="Times,serif" font-size="14.00">number in name table = &#39;&#39; 23 &#39;&#39;</text>
<polyline fill="none" stroke="black" points="1239.5,-668.5 1476.5,-668.5 "/>
<text text-anchor="middle" x="1358" y="-653.3" font-family="Times,serif" font-size="14.00">id_type = LOCL</text>
</g>
<!-- node0x503000000850&#45;&gt;node0x5030000007f0 -->
<g id="edge45" class="edge">
<title>node0x503000000850&#45;&gt;node0x5030000007f0</title>
<path fill="none" stroke="black" d="M1358,-797.38C1358,-783.66 1358,-765.37 1358,-747.91"/>
<polygon fill="black" stroke="black" points="1361.5,-747.76 1358,-737.76 1354.5,-747.76 1361.5,-747.76"/>
</g>
<!-- node0x503000000820 -->
<g id="node47" class="node">
<title>node0x503000000820</title>
<path fill="#ff5050" stroke="black" d="M1506.5,-645.5C1506.5,-645.5 1719.5,-645.5 1719.5,-645.5 1725.5,-645.5 1731.5,-651.5 1731.5,-657.5 1731.5,-657.5 1731.5,-725.5 1731.5,-725.5 1731.5,-731.5 1725.5,-737.5 1719.5,-737.5 1719.5,-737.5 1506.5,-737.5 1506.5,-737.5 1500.5,-737.5 1494.5,-731.5 1494.5,-725.5 1494.5,-725.5 1494.5,-657.5 1494.5,-657.5 1494.5,-651.5 1500.5,-645.5 1506.5,-645.5"/>
<text text-anchor="middle" x="1613" y="-722.3" font-family="Times,serif" font-size="14.00">type = 3 (ID)</text>
<polyline fill="none" stroke="black" points="1494.5,-714.5 1731.5,-714.5 "/>
<text text-anchor="middle" x="1613" y="-699.3" font-family="Times,serif" font-size="14.00">name = &#39;&#39; result &#39;&#39;</text>
<polyline fill="none" stroke="black" points="1494.5,-691.5 1731.5,-691.5 "/>
<text text-anchor="middle" x="1613" y="-676.3" font-family="Times,serif" font-size="14.00">number in name table = &#39;&#39; 23 &#39;&#39;</text>
<polyline fill="none" stroke="black" points="1494.5,-668.5 1731.5,-668.5 "/>
<text text-anchor="middle" x="1613" y="-653.3" font-family="Times,serif" font-size="14.00">id_type = LOCL</text>
</g>
<!-- node0x503000000850&#45;&gt;node0x503000000820 -->
<g id="edge46" class="edge">
<title>node0x503000000850&#45;&gt;node0x503000000820</title>
<path fill="none" stroke="black" d="M1402.42,-797.38C1433,-782.15 1474.88,-761.29 1513.23,-742.19"/>
<polygon fill="black" stroke="black" points="1514.99,-745.22 1522.38,-737.63 1511.87,-738.96 1514.99,-745.22"/>
</g>
</g>
</svg>
