<?xml version="1.0" encoding="UTF-8" standalone="no"?>
<!DOCTYPE svg PUBLIC "-//W3C//DTD SVG 1.1//EN"
 "http://www.w3.org/Graphics/SVG/1.1/DTD/svg11.dtd">
<!-- Generated by graphviz version 2.43.0 (0)
 -->
<!-- Title: %3 Pages: 1 -->
<svg width="394pt" height="184pt"
 viewBox="0.00 0.00 394.00 184.00" xmlns="http://www.w3.org/2000/svg" xmlns:xlink="http://www.w3.org/1999/xlink">
<g id="graph0" class="graph" transform="scale(1 1) rotate(0) translate(4 180)">
<title>%3</title>
<!-- node0x5030000006a0 -->
<g id="node1" class="node">
<title>node0x5030000006a0</title>
<path fill="#00ffdd" stroke="black" d="M147.5,-129.5C147.5,-129.5 291.5,-129.5 291.5,-129.5 297.5,-129.5 303.5,-135.5 303.5,-141.5 303.5,-141.5 303.5,-163.5 303.5,-163.5 303.5,-169.5 297.5,-175.5 291.5,-175.5 291.5,-175.5 147.5,-175.5 147.5,-175.5 141.5,-175.5 135.5,-169.5 135.5,-163.5 135.5,-163.5 135.5,-141.5 135.5,-141.5 135.5,-135.5 141.5,-129.5 147.5,-129.5"/>
<text text-anchor="middle" x="219.5" y="-160.3" font-family="Times,serif" font-size="14.00">type = 2 (OP)</text>
<polyline fill="none" stroke="black" points="135.5,-152.5 303.5,-152.5 "/>
<text text-anchor="middle" x="219.5" y="-137.3" font-family="Times,serif" font-size="14.00">value = &#39;&#39; MUL &#39;&#39; (42)</text>
</g>
<!-- node0x503000000640 -->
<g id="node2" class="node">
<title>node0x503000000640</title>
<path fill="#ff5050" stroke="black" d="M12,-0.5C12,-0.5 225,-0.5 225,-0.5 231,-0.5 237,-6.5 237,-12.5 237,-12.5 237,-80.5 237,-80.5 237,-86.5 231,-92.5 225,-92.5 225,-92.5 12,-92.5 12,-92.5 6,-92.5 0,-86.5 0,-80.5 0,-80.5 0,-12.5 0,-12.5 0,-6.5 6,-0.5 12,-0.5"/>
<text text-anchor="middle" x="118.5" y="-77.3" font-family="Times,serif" font-size="14.00">type = 3 (ID)</text>
<polyline fill="none" stroke="black" points="0,-69.5 237,-69.5 "/>
<text text-anchor="middle" x="118.5" y="-54.3" font-family="Times,serif" font-size="14.00">name = &#39;&#39; result &#39;&#39;</text>
<polyline fill="none" stroke="black" points="0,-46.5 237,-46.5 "/>
<text text-anchor="middle" x="118.5" y="-31.3" font-family="Times,serif" font-size="14.00">number in name table = &#39;&#39; 23 &#39;&#39;</text>
<polyline fill="none" stroke="black" points="0,-23.5 237,-23.5 "/>
<text text-anchor="middle" x="118.5" y="-8.3" font-family="Times,serif" font-size="14.00">id_type = LOCL</text>
</g>
<!-- node0x5030000006a0&#45;&gt;node0x503000000640 -->
<g id="edge1" class="edge">
<title>node0x5030000006a0&#45;&gt;node0x503000000640</title>
<path fill="none" stroke="black" d="M198.08,-129.44C189.61,-120.72 179.49,-110.3 169.35,-99.86"/>
<polygon fill="black" stroke="black" points="171.82,-97.38 162.34,-92.64 166.8,-102.26 171.82,-97.38"/>
</g>
<!-- node0x503000000670 -->
<g id="node3" class="node">
<title>node0x503000000670</title>
<path fill="#ffd700" stroke="black" d="M267,-23.5C267,-23.5 374,-23.5 374,-23.5 380,-23.5 386,-29.5 386,-35.5 386,-35.5 386,-57.5 386,-57.5 386,-63.5 380,-69.5 374,-69.5 374,-69.5 267,-69.5 267,-69.5 261,-69.5 255,-63.5 255,-57.5 255,-57.5 255,-35.5 255,-35.5 255,-29.5 261,-23.5 267,-23.5"/>
<text text-anchor="middle" x="320.5" y="-54.3" font-family="Times,serif" font-size="14.00">type = 1 (NUM)</text>
<polyline fill="none" stroke="black" points="255,-46.5 386,-46.5 "/>
<text text-anchor="middle" x="320.5" y="-31.3" font-family="Times,serif" font-size="14.00">value = &#39;&#39; 1 &#39;&#39;</text>
</g>
<!-- node0x5030000006a0&#45;&gt;node0x503000000670 -->
<g id="edge2" class="edge">
<title>node0x5030000006a0&#45;&gt;node0x503000000670</title>
<path fill="none" stroke="black" d="M240.92,-129.44C255.78,-114.14 275.75,-93.58 291.96,-76.89"/>
<polygon fill="black" stroke="black" points="294.66,-79.14 299.11,-69.52 289.63,-74.26 294.66,-79.14"/>
</g>
</g>
</svg>
