<?xml version="1.0" encoding="UTF-8" standalone="no"?>
<!DOCTYPE svg PUBLIC "-//W3C//DTD SVG 1.1//EN"
 "http://www.w3.org/Graphics/SVG/1.1/DTD/svg11.dtd">
<!-- Generated by graphviz version 2.43.0 (0)
 -->
<!-- Title: %3 Pages: 1 -->
<svg width="500pt" height="184pt"
 viewBox="0.00 0.00 500.00 184.00" xmlns="http://www.w3.org/2000/svg" xmlns:xlink="http://www.w3.org/1999/xlink">
<g id="graph0" class="graph" transform="scale(1 1) rotate(0) translate(4 180)">
<title>%3</title>
<!-- node0x5030000004f0 -->
<g id="node1" class="node">
<title>node0x5030000004f0</title>
<path fill="#00ffdd" stroke="black" d="M173.5,-129.5C173.5,-129.5 317.5,-129.5 317.5,-129.5 323.5,-129.5 329.5,-135.5 329.5,-141.5 329.5,-141.5 329.5,-163.5 329.5,-163.5 329.5,-169.5 323.5,-175.5 317.5,-175.5 317.5,-175.5 173.5,-175.5 173.5,-175.5 167.5,-175.5 161.5,-169.5 161.5,-163.5 161.5,-163.5 161.5,-141.5 161.5,-141.5 161.5,-135.5 167.5,-129.5 173.5,-129.5"/>
<text text-anchor="middle" x="245.5" y="-160.3" font-family="Times,serif" font-size="14.00">type = 2 (OP)</text>
<polyline fill="none" stroke="black" points="161.5,-152.5 329.5,-152.5 "/>
<text text-anchor="middle" x="245.5" y="-137.3" font-family="Times,serif" font-size="14.00">value = &#39;&#39; MUL &#39;&#39; (42)</text>
</g>
<!-- node0x503000000490 -->
<g id="node2" class="node">
<title>node0x503000000490</title>
<path fill="#ff5050" stroke="black" d="M12,-0.5C12,-0.5 225,-0.5 225,-0.5 231,-0.5 237,-6.5 237,-12.5 237,-12.5 237,-80.5 237,-80.5 237,-86.5 231,-92.5 225,-92.5 225,-92.5 12,-92.5 12,-92.5 6,-92.5 0,-86.5 0,-80.5 0,-80.5 0,-12.5 0,-12.5 0,-6.5 6,-0.5 12,-0.5"/>
<text text-anchor="middle" x="118.5" y="-77.3" font-family="Times,serif" font-size="14.00">type = 3 (ID)</text>
<polyline fill="none" stroke="black" points="0,-69.5 237,-69.5 "/>
<text text-anchor="middle" x="118.5" y="-54.3" font-family="Times,serif" font-size="14.00">name = &#39;&#39; result &#39;&#39;</text>
<polyline fill="none" stroke="black" points="0,-46.5 237,-46.5 "/>
<text text-anchor="middle" x="118.5" y="-31.3" font-family="Times,serif" font-size="14.00">number in name table = &#39;&#39; 23 &#39;&#39;</text>
<polyline fill="none" stroke="black" points="0,-23.5 237,-23.5 "/>
<text text-anchor="middle" x="118.5" y="-8.3" font-family="Times,serif" font-size="14.00">id_type = LOCL</text>
</g>
<!-- node0x5030000004f0&#45;&gt;node0x503000000490 -->
<g id="edge1" class="edge">
<title>node0x5030000004f0&#45;&gt;node0x503000000490</title>
<path fill="none" stroke="black" d="M218.57,-129.44C207.71,-120.56 194.7,-109.9 181.7,-99.25"/>
<polygon fill="black" stroke="black" points="183.58,-96.27 173.63,-92.64 179.15,-101.69 183.58,-96.27"/>
</g>
<!-- node0x5030000004c0 -->
<g id="node3" class="node">
<title>node0x5030000004c0</title>
<path fill="#ff5050" stroke="black" d="M267,-0.5C267,-0.5 480,-0.5 480,-0.5 486,-0.5 492,-6.5 492,-12.5 492,-12.5 492,-80.5 492,-80.5 492,-86.5 486,-92.5 480,-92.5 480,-92.5 267,-92.5 267,-92.5 261,-92.5 255,-86.5 255,-80.5 255,-80.5 255,-12.5 255,-12.5 255,-6.5 261,-0.5 267,-0.5"/>
<text text-anchor="middle" x="373.5" y="-77.3" font-family="Times,serif" font-size="14.00">type = 3 (ID)</text>
<polyline fill="none" stroke="black" points="255,-69.5 492,-69.5 "/>
<text text-anchor="middle" x="373.5" y="-54.3" font-family="Times,serif" font-size="14.00">name = &#39;&#39; numb &#39;&#39;</text>
<polyline fill="none" stroke="black" points="255,-46.5 492,-46.5 "/>
<text text-anchor="middle" x="373.5" y="-31.3" font-family="Times,serif" font-size="14.00">number in name table = &#39;&#39; 22 &#39;&#39;</text>
<polyline fill="none" stroke="black" points="255,-23.5 492,-23.5 "/>
<text text-anchor="middle" x="373.5" y="-8.3" font-family="Times,serif" font-size="14.00">id_type = LOCL</text>
</g>
<!-- node0x5030000004f0&#45;&gt;node0x5030000004c0 -->
<g id="edge2" class="edge">
<title>node0x5030000004f0&#45;&gt;node0x5030000004c0</title>
<path fill="none" stroke="black" d="M272.65,-129.44C283.69,-120.47 296.95,-109.7 310.17,-98.95"/>
<polygon fill="black" stroke="black" points="312.38,-101.67 317.94,-92.64 307.97,-96.23 312.38,-101.67"/>
</g>
</g>
</svg>
