<?xml version="1.0" encoding="UTF-8" standalone="no"?>
<!DOCTYPE svg PUBLIC "-//W3C//DTD SVG 1.1//EN"
 "http://www.w3.org/Graphics/SVG/1.1/DTD/svg11.dtd">
<!-- Generated by graphviz version 13.1.0 (0)
 -->
<!-- Pages: 1 -->
<svg width="386pt" height="285pt"
 viewBox="0.00 0.00 386.00 285.00" xmlns="http://www.w3.org/2000/svg" xmlns:xlink="http://www.w3.org/1999/xlink">
<g id="graph0" class="graph" transform="scale(1 1) rotate(0) translate(4 281)">
<!-- node0x7bfdfe5e08b0 -->
<g id="node1" class="node">
<title>node0x7bfdfe5e08b0</title>
<path fill="#f069f5" stroke="black" d="M99.12,-226C99.12,-226 245.62,-226 245.62,-226 251.62,-226 257.62,-232 257.62,-238 257.62,-238 257.62,-264.5 257.62,-264.5 257.62,-270.5 251.62,-276.5 245.62,-276.5 245.62,-276.5 99.12,-276.5 99.12,-276.5 93.12,-276.5 87.12,-270.5 87.12,-264.5 87.12,-264.5 87.12,-238 87.12,-238 87.12,-232 93.12,-226 99.12,-226"/>
<text xml:space="preserve" text-anchor="middle" x="172.38" y="-259.2" font-family="Times,serif" font-size="14.00">type = 4 (FUNC)</text>
<polyline fill="none" stroke="black" points="87.12,-251.25 257.62,-251.25"/>
<text xml:space="preserve" text-anchor="middle" x="172.38" y="-233.95" font-family="Times,serif" font-size="14.00">value = &#39;&#39; CALL &#39;&#39; (67)</text>
</g>
<!-- node0x7bfdfe5e0820 -->
<g id="node2" class="node">
<title>node0x7bfdfe5e0820</title>
<path fill="#2ee31e" stroke="black" d="M12,-138.5C12,-138.5 160.75,-138.5 160.75,-138.5 166.75,-138.5 172.75,-144.5 172.75,-150.5 172.75,-150.5 172.75,-177 172.75,-177 172.75,-183 166.75,-189 160.75,-189 160.75,-189 12,-189 12,-189 6,-189 0,-183 0,-177 0,-177 0,-150.5 0,-150.5 0,-144.5 6,-138.5 12,-138.5"/>
<text xml:space="preserve" text-anchor="middle" x="86.38" y="-171.7" font-family="Times,serif" font-size="14.00">type = 4 (FUNC)</text>
<polyline fill="none" stroke="black" points="0,-163.75 172.75,-163.75"/>
<text xml:space="preserve" text-anchor="middle" x="86.38" y="-146.45" font-family="Times,serif" font-size="14.00">value = &#39;&#39; printf &#39;&#39; (26)</text>
</g>
<!-- node0x7bfdfe5e08b0&#45;&gt;node0x7bfdfe5e0820 -->
<g id="edge1" class="edge">
<title>node0x7bfdfe5e08b0&#45;&gt;node0x7bfdfe5e0820</title>
<path fill="none" stroke="black" d="M147.5,-225.52C138.68,-216.75 128.6,-206.73 119.22,-197.4"/>
<polygon fill="black" stroke="black" points="121.83,-195.06 112.27,-190.49 116.89,-200.02 121.83,-195.06"/>
</g>
<!-- node0x7bfdfe5e0880 -->
<g id="node3" class="node">
<title>node0x7bfdfe5e0880</title>
<path fill="#feaadf" stroke="black" d="M203,-138.5C203,-138.5 315.75,-138.5 315.75,-138.5 321.75,-138.5 327.75,-144.5 327.75,-150.5 327.75,-150.5 327.75,-177 327.75,-177 327.75,-183 321.75,-189 315.75,-189 315.75,-189 203,-189 203,-189 197,-189 191,-183 191,-177 191,-177 191,-150.5 191,-150.5 191,-144.5 197,-138.5 203,-138.5"/>
<text xml:space="preserve" text-anchor="middle" x="259.38" y="-171.7" font-family="Times,serif" font-size="14.00">type = 4 (FUNC)</text>
<polyline fill="none" stroke="black" points="191,-163.75 327.75,-163.75"/>
<text xml:space="preserve" text-anchor="middle" x="259.38" y="-146.45" font-family="Times,serif" font-size="14.00">value = &#39;&#39; , &#39;&#39; (44)</text>
</g>
<!-- node0x7bfdfe5e08b0&#45;&gt;node0x7bfdfe5e0880 -->
<g id="edge2" class="edge">
<title>node0x7bfdfe5e08b0&#45;&gt;node0x7bfdfe5e0880</title>
<path fill="none" stroke="black" d="M197.54,-225.52C206.47,-216.75 216.65,-206.73 226.15,-197.4"/>
<polygon fill="black" stroke="black" points="228.51,-199.99 233.19,-190.49 223.6,-195 228.51,-199.99"/>
</g>
<!-- node0x7bfdfe5e0850 -->
<g id="node4" class="node">
<title>node0x7bfdfe5e0850</title>
<path fill="#ff5050" stroke="black" d="M153.12,-0.5C153.12,-0.5 365.62,-0.5 365.62,-0.5 371.62,-0.5 377.62,-6.5 377.62,-12.5 377.62,-12.5 377.62,-89.5 377.62,-89.5 377.62,-95.5 371.62,-101.5 365.62,-101.5 365.62,-101.5 153.12,-101.5 153.12,-101.5 147.12,-101.5 141.12,-95.5 141.12,-89.5 141.12,-89.5 141.12,-12.5 141.12,-12.5 141.12,-6.5 147.12,-0.5 153.12,-0.5"/>
<text xml:space="preserve" text-anchor="middle" x="259.38" y="-84.2" font-family="Times,serif" font-size="14.00">type = 3 (ID)</text>
<polyline fill="none" stroke="black" points="141.12,-76.25 377.62,-76.25"/>
<text xml:space="preserve" text-anchor="middle" x="259.38" y="-58.95" font-family="Times,serif" font-size="14.00">name = &#39;&#39; result &#39;&#39;</text>
<polyline fill="none" stroke="black" points="141.12,-51 377.62,-51"/>
<text xml:space="preserve" text-anchor="middle" x="259.38" y="-33.7" font-family="Times,serif" font-size="14.00">number in name table = &#39;&#39; 23 &#39;&#39;</text>
<polyline fill="none" stroke="black" points="141.12,-25.75 377.62,-25.75"/>
<text xml:space="preserve" text-anchor="middle" x="259.38" y="-8.45" font-family="Times,serif" font-size="14.00">id_type = LOCL</text>
</g>
<!-- node0x7bfdfe5e0880&#45;&gt;node0x7bfdfe5e0850 -->
<g id="edge3" class="edge">
<title>node0x7bfdfe5e0880&#45;&gt;node0x7bfdfe5e0850</title>
<path fill="none" stroke="black" d="M259.38,-138.17C259.38,-130.64 259.38,-122 259.38,-113.16"/>
<polygon fill="black" stroke="black" points="262.88,-113.44 259.38,-103.44 255.88,-113.44 262.88,-113.44"/>
</g>
</g>
</svg>
