<?xml version="1.0" encoding="UTF-8" standalone="no"?>
<!DOCTYPE svg PUBLIC "-//W3C//DTD SVG 1.1//EN"
 "http://www.w3.org/Graphics/SVG/1.1/DTD/svg11.dtd">
<!-- Generated by graphviz version 2.43.0 (0)
 -->
<!-- Title: %3 Pages: 1 -->
<svg width="450pt" height="313pt"
 viewBox="0.00 0.00 450.00 313.00" xmlns="http://www.w3.org/2000/svg" xmlns:xlink="http://www.w3.org/1999/xlink">
<g id="graph0" class="graph" transform="scale(1 1) rotate(0) translate(4 309)">
<title>%3</title>
<!-- node0x63793336b6c0 -->
<g id="node1" class="node">
<title>node0x63793336b6c0</title>
<path fill="#feaadf" stroke="black" d="M164,-258.5C164,-258.5 277,-258.5 277,-258.5 283,-258.5 289,-264.5 289,-270.5 289,-270.5 289,-292.5 289,-292.5 289,-298.5 283,-304.5 277,-304.5 277,-304.5 164,-304.5 164,-304.5 158,-304.5 152,-298.5 152,-292.5 152,-292.5 152,-270.5 152,-270.5 152,-264.5 158,-258.5 164,-258.5"/>
<text text-anchor="middle" x="220.5" y="-289.3" font-family="Times,serif" font-size="14.00">type = 4 (FUNC)</text>
<polyline fill="none" stroke="black" points="152,-281.5 289,-281.5 "/>
<text text-anchor="middle" x="220.5" y="-266.3" font-family="Times,serif" font-size="14.00">value = &#39;&#39; , &#39;&#39; (44)</text>
</g>
<!-- node0x63793336b690 -->
<g id="node2" class="node">
<title>node0x63793336b690</title>
<path fill="#ff5050" stroke="black" d="M12,-129.5C12,-129.5 225,-129.5 225,-129.5 231,-129.5 237,-135.5 237,-141.5 237,-141.5 237,-209.5 237,-209.5 237,-215.5 231,-221.5 225,-221.5 225,-221.5 12,-221.5 12,-221.5 6,-221.5 0,-215.5 0,-209.5 0,-209.5 0,-141.5 0,-141.5 0,-135.5 6,-129.5 12,-129.5"/>
<text text-anchor="middle" x="118.5" y="-206.3" font-family="Times,serif" font-size="14.00">type = 3 (ID)</text>
<polyline fill="none" stroke="black" points="0,-198.5 237,-198.5 "/>
<text text-anchor="middle" x="118.5" y="-183.3" font-family="Times,serif" font-size="14.00">name = &#39;&#39; void &#39;&#39;</text>
<polyline fill="none" stroke="black" points="0,-175.5 237,-175.5 "/>
<text text-anchor="middle" x="118.5" y="-160.3" font-family="Times,serif" font-size="14.00">number in name table = &#39;&#39; 21 &#39;&#39;</text>
<polyline fill="none" stroke="black" points="0,-152.5 237,-152.5 "/>
<text text-anchor="middle" x="118.5" y="-137.3" font-family="Times,serif" font-size="14.00">id_type = PARM</text>
</g>
<!-- node0x63793336b6c0&#45;&gt;node0x63793336b690 -->
<g id="edge1" class="edge">
<title>node0x63793336b6c0&#45;&gt;node0x63793336b690</title>
<path fill="none" stroke="black" d="M198.87,-258.44C190.32,-249.72 180.09,-239.3 169.85,-228.86"/>
<polygon fill="black" stroke="black" points="172.28,-226.33 162.78,-221.64 167.28,-231.23 172.28,-226.33"/>
</g>
<!-- node0x63793336b720 -->
<g id="node3" class="node">
<title>node0x63793336b720</title>
<path fill="#feaadf" stroke="black" d="M267,-152.5C267,-152.5 380,-152.5 380,-152.5 386,-152.5 392,-158.5 392,-164.5 392,-164.5 392,-186.5 392,-186.5 392,-192.5 386,-198.5 380,-198.5 380,-198.5 267,-198.5 267,-198.5 261,-198.5 255,-192.5 255,-186.5 255,-186.5 255,-164.5 255,-164.5 255,-158.5 261,-152.5 267,-152.5"/>
<text text-anchor="middle" x="323.5" y="-183.3" font-family="Times,serif" font-size="14.00">type = 4 (FUNC)</text>
<polyline fill="none" stroke="black" points="255,-175.5 392,-175.5 "/>
<text text-anchor="middle" x="323.5" y="-160.3" font-family="Times,serif" font-size="14.00">value = &#39;&#39; , &#39;&#39; (44)</text>
</g>
<!-- node0x63793336b6c0&#45;&gt;node0x63793336b720 -->
<g id="edge2" class="edge">
<title>node0x63793336b6c0&#45;&gt;node0x63793336b720</title>
<path fill="none" stroke="black" d="M242.34,-258.44C257.5,-243.14 277.86,-222.58 294.39,-205.89"/>
<polygon fill="black" stroke="black" points="297.14,-208.09 301.69,-198.52 292.16,-203.17 297.14,-208.09"/>
</g>
<!-- node0x63793336b6f0 -->
<g id="node4" class="node">
<title>node0x63793336b6f0</title>
<path fill="#ff5050" stroke="black" d="M217,-0.5C217,-0.5 430,-0.5 430,-0.5 436,-0.5 442,-6.5 442,-12.5 442,-12.5 442,-80.5 442,-80.5 442,-86.5 436,-92.5 430,-92.5 430,-92.5 217,-92.5 217,-92.5 211,-92.5 205,-86.5 205,-80.5 205,-80.5 205,-12.5 205,-12.5 205,-6.5 211,-0.5 217,-0.5"/>
<text text-anchor="middle" x="323.5" y="-77.3" font-family="Times,serif" font-size="14.00">type = 3 (ID)</text>
<polyline fill="none" stroke="black" points="205,-69.5 442,-69.5 "/>
<text text-anchor="middle" x="323.5" y="-54.3" font-family="Times,serif" font-size="14.00">name = &#39;&#39; loh &#39;&#39;</text>
<polyline fill="none" stroke="black" points="205,-46.5 442,-46.5 "/>
<text text-anchor="middle" x="323.5" y="-31.3" font-family="Times,serif" font-size="14.00">number in name table = &#39;&#39; 22 &#39;&#39;</text>
<polyline fill="none" stroke="black" points="205,-23.5 442,-23.5 "/>
<text text-anchor="middle" x="323.5" y="-8.3" font-family="Times,serif" font-size="14.00">id_type = PARM</text>
</g>
<!-- node0x63793336b720&#45;&gt;node0x63793336b6f0 -->
<g id="edge3" class="edge">
<title>node0x63793336b720&#45;&gt;node0x63793336b6f0</title>
<path fill="none" stroke="black" d="M323.5,-152.38C323.5,-138.66 323.5,-120.37 323.5,-102.91"/>
<polygon fill="black" stroke="black" points="327,-102.76 323.5,-92.76 320,-102.76 327,-102.76"/>
</g>
</g>
</svg>
