<?xml version="1.0" encoding="UTF-8" standalone="no"?>
<!DOCTYPE svg PUBLIC "-//W3C//DTD SVG 1.1//EN"
 "http://www.w3.org/Graphics/SVG/1.1/DTD/svg11.dtd">
<!-- Generated by graphviz version 2.43.0 (0)
 -->
<!-- Title: %3 Pages: 1 -->
<svg width="394pt" height="184pt"
 viewBox="0.00 0.00 394.00 184.00" xmlns="http://www.w3.org/2000/svg" xmlns:xlink="http://www.w3.org/1999/xlink">
<g id="graph0" class="graph" transform="scale(1 1) rotate(0) translate(4 180)">
<title>%3</title>
<!-- node0x5030000012a0 -->
<g id="node1" class="node">
<title>node0x5030000012a0</title>
<path fill="#00ffdd" stroke="black" d="M94.5,-129.5C94.5,-129.5 238.5,-129.5 238.5,-129.5 244.5,-129.5 250.5,-135.5 250.5,-141.5 250.5,-141.5 250.5,-163.5 250.5,-163.5 250.5,-169.5 244.5,-175.5 238.5,-175.5 238.5,-175.5 94.5,-175.5 94.5,-175.5 88.5,-175.5 82.5,-169.5 82.5,-163.5 82.5,-163.5 82.5,-141.5 82.5,-141.5 82.5,-135.5 88.5,-129.5 94.5,-129.5"/>
<text text-anchor="middle" x="166.5" y="-160.3" font-family="Times,serif" font-size="14.00">type = 2 (OP)</text>
<polyline fill="none" stroke="black" points="82.5,-152.5 250.5,-152.5 "/>
<text text-anchor="middle" x="166.5" y="-137.3" font-family="Times,serif" font-size="14.00">value = &#39;&#39; MUL &#39;&#39; (42)</text>
</g>
<!-- node0x503000001240 -->
<g id="node2" class="node">
<title>node0x503000001240</title>
<path fill="#ffd700" stroke="black" d="M12,-23.5C12,-23.5 119,-23.5 119,-23.5 125,-23.5 131,-29.5 131,-35.5 131,-35.5 131,-57.5 131,-57.5 131,-63.5 125,-69.5 119,-69.5 119,-69.5 12,-69.5 12,-69.5 6,-69.5 0,-63.5 0,-57.5 0,-57.5 0,-35.5 0,-35.5 0,-29.5 6,-23.5 12,-23.5"/>
<text text-anchor="middle" x="65.5" y="-54.3" font-family="Times,serif" font-size="14.00">type = 1 (NUM)</text>
<polyline fill="none" stroke="black" points="0,-46.5 131,-46.5 "/>
<text text-anchor="middle" x="65.5" y="-31.3" font-family="Times,serif" font-size="14.00">value = &#39;&#39; 2 &#39;&#39;</text>
</g>
<!-- node0x5030000012a0&#45;&gt;node0x503000001240 -->
<g id="edge1" class="edge">
<title>node0x5030000012a0&#45;&gt;node0x503000001240</title>
<path fill="none" stroke="black" d="M145.08,-129.44C130.22,-114.14 110.25,-93.58 94.04,-76.89"/>
<polygon fill="black" stroke="black" points="96.37,-74.26 86.89,-69.52 91.34,-79.14 96.37,-74.26"/>
</g>
<!-- node0x503000001270 -->
<g id="node3" class="node">
<title>node0x503000001270</title>
<path fill="#ff5050" stroke="black" d="M161,-0.5C161,-0.5 374,-0.5 374,-0.5 380,-0.5 386,-6.5 386,-12.5 386,-12.5 386,-80.5 386,-80.5 386,-86.5 380,-92.5 374,-92.5 374,-92.5 161,-92.5 161,-92.5 155,-92.5 149,-86.5 149,-80.5 149,-80.5 149,-12.5 149,-12.5 149,-6.5 155,-0.5 161,-0.5"/>
<text text-anchor="middle" x="267.5" y="-77.3" font-family="Times,serif" font-size="14.00">type = 3 (ID)</text>
<polyline fill="none" stroke="black" points="149,-69.5 386,-69.5 "/>
<text text-anchor="middle" x="267.5" y="-54.3" font-family="Times,serif" font-size="14.00">name = &#39;&#39; aa &#39;&#39;</text>
<polyline fill="none" stroke="black" points="149,-46.5 386,-46.5 "/>
<text text-anchor="middle" x="267.5" y="-31.3" font-family="Times,serif" font-size="14.00">number in name table = &#39;&#39; 22 &#39;&#39;</text>
<polyline fill="none" stroke="black" points="149,-23.5 386,-23.5 "/>
<text text-anchor="middle" x="267.5" y="-8.3" font-family="Times,serif" font-size="14.00">id_type = LOCL</text>
</g>
<!-- node0x5030000012a0&#45;&gt;node0x503000001270 -->
<g id="edge2" class="edge">
<title>node0x5030000012a0&#45;&gt;node0x503000001270</title>
<path fill="none" stroke="black" d="M187.92,-129.44C196.39,-120.72 206.51,-110.3 216.65,-99.86"/>
<polygon fill="black" stroke="black" points="219.2,-102.26 223.66,-92.64 214.18,-97.38 219.2,-102.26"/>
</g>
</g>
</svg>
