<?xml version="1.0" encoding="UTF-8" standalone="no"?>
<!DOCTYPE svg PUBLIC "-//W3C//DTD SVG 1.1//EN"
 "http://www.w3.org/Graphics/SVG/1.1/DTD/svg11.dtd">
<!-- Generated by graphviz version 2.43.0 (0)
 -->
<!-- Title: %3 Pages: 1 -->
<svg width="245pt" height="184pt"
 viewBox="0.00 0.00 245.00 184.00" xmlns="http://www.w3.org/2000/svg" xmlns:xlink="http://www.w3.org/1999/xlink">
<g id="graph0" class="graph" transform="scale(1 1) rotate(0) translate(4 180)">
<title>%3</title>
<!-- node0x503000000670 -->
<g id="node1" class="node">
<title>node0x503000000670</title>
<path fill="#00ffdd" stroke="black" d="M44,-129.5C44,-129.5 193,-129.5 193,-129.5 199,-129.5 205,-135.5 205,-141.5 205,-141.5 205,-163.5 205,-163.5 205,-169.5 199,-175.5 193,-175.5 193,-175.5 44,-175.5 44,-175.5 38,-175.5 32,-169.5 32,-163.5 32,-163.5 32,-141.5 32,-141.5 32,-135.5 38,-129.5 44,-129.5"/>
<text text-anchor="middle" x="118.5" y="-160.3" font-family="Times,serif" font-size="14.00">type = 2 (OP)</text>
<polyline fill="none" stroke="black" points="32,-152.5 205,-152.5 "/>
<text text-anchor="middle" x="118.5" y="-137.3" font-family="Times,serif" font-size="14.00">value = &#39;&#39; SQRT &#39;&#39; (83)</text>
</g>
<!-- node0x503000000640 -->
<g id="node2" class="node">
<title>node0x503000000640</title>
<path fill="#ff5050" stroke="black" d="M12,-0.5C12,-0.5 225,-0.5 225,-0.5 231,-0.5 237,-6.5 237,-12.5 237,-12.5 237,-80.5 237,-80.5 237,-86.5 231,-92.5 225,-92.5 225,-92.5 12,-92.5 12,-92.5 6,-92.5 0,-86.5 0,-80.5 0,-80.5 0,-12.5 0,-12.5 0,-6.5 6,-0.5 12,-0.5"/>
<text text-anchor="middle" x="118.5" y="-77.3" font-family="Times,serif" font-size="14.00">type = 3 (ID)</text>
<polyline fill="none" stroke="black" points="0,-69.5 237,-69.5 "/>
<text text-anchor="middle" x="118.5" y="-54.3" font-family="Times,serif" font-size="14.00">name = &#39;&#39; result &#39;&#39;</text>
<polyline fill="none" stroke="black" points="0,-46.5 237,-46.5 "/>
<text text-anchor="middle" x="118.5" y="-31.3" font-family="Times,serif" font-size="14.00">number in name table = &#39;&#39; 23 &#39;&#39;</text>
<polyline fill="none" stroke="black" points="0,-23.5 237,-23.5 "/>
<text text-anchor="middle" x="118.5" y="-8.3" font-family="Times,serif" font-size="14.00">id_type = LOCL</text>
</g>
<!-- node0x503000000670&#45;&gt;node0x503000000640 -->
<g id="edge1" class="edge">
<title>node0x503000000670&#45;&gt;node0x503000000640</title>
<path fill="none" stroke="black" d="M118.5,-129.44C118.5,-121.56 118.5,-112.29 118.5,-102.87"/>
<polygon fill="black" stroke="black" points="122,-102.64 118.5,-92.64 115,-102.64 122,-102.64"/>
</g>
</g>
</svg>
