<?xml version="1.0" encoding="UTF-8" standalone="no"?>
<!DOCTYPE svg PUBLIC "-//W3C//DTD SVG 1.1//EN"
 "http://www.w3.org/Graphics/SVG/1.1/DTD/svg11.dtd">
<!-- Generated by graphviz version 2.43.0 (0)
 -->
<!-- Title: %3 Pages: 1 -->
<svg width="336pt" height="138pt"
 viewBox="0.00 0.00 336.00 138.00" xmlns="http://www.w3.org/2000/svg" xmlns:xlink="http://www.w3.org/1999/xlink">
<g id="graph0" class="graph" transform="scale(1 1) rotate(0) translate(4 134)">
<title>%3</title>
<!-- node0x5030000009d0 -->
<g id="node1" class="node">
<title>node0x5030000009d0</title>
<path fill="#f069f5" stroke="black" d="M99,-83.5C99,-83.5 246,-83.5 246,-83.5 252,-83.5 258,-89.5 258,-95.5 258,-95.5 258,-117.5 258,-117.5 258,-123.5 252,-129.5 246,-129.5 246,-129.5 99,-129.5 99,-129.5 93,-129.5 87,-123.5 87,-117.5 87,-117.5 87,-95.5 87,-95.5 87,-89.5 93,-83.5 99,-83.5"/>
<text text-anchor="middle" x="172.5" y="-114.3" font-family="Times,serif" font-size="14.00">type = 4 (FUNC)</text>
<polyline fill="none" stroke="black" points="87,-106.5 258,-106.5 "/>
<text text-anchor="middle" x="172.5" y="-91.3" font-family="Times,serif" font-size="14.00">value = &#39;&#39; CALL &#39;&#39; (67)</text>
</g>
<!-- node0x503000000970 -->
<g id="node2" class="node">
<title>node0x503000000970</title>
<path fill="#2ee31e" stroke="black" d="M12,-0.5C12,-0.5 161,-0.5 161,-0.5 167,-0.5 173,-6.5 173,-12.5 173,-12.5 173,-34.5 173,-34.5 173,-40.5 167,-46.5 161,-46.5 161,-46.5 12,-46.5 12,-46.5 6,-46.5 0,-40.5 0,-34.5 0,-34.5 0,-12.5 0,-12.5 0,-6.5 6,-0.5 12,-0.5"/>
<text text-anchor="middle" x="86.5" y="-31.3" font-family="Times,serif" font-size="14.00">type = 4 (FUNC)</text>
<polyline fill="none" stroke="black" points="0,-23.5 173,-23.5 "/>
<text text-anchor="middle" x="86.5" y="-8.3" font-family="Times,serif" font-size="14.00">value = &#39;&#39; printf &#39;&#39; (25)</text>
</g>
<!-- node0x5030000009d0&#45;&gt;node0x503000000970 -->
<g id="edge1" class="edge">
<title>node0x5030000009d0&#45;&gt;node0x503000000970</title>
<path fill="none" stroke="black" d="M149,-83.37C139.24,-74.17 127.77,-63.37 117.34,-53.55"/>
<polygon fill="black" stroke="black" points="119.65,-50.92 109.97,-46.61 114.85,-56.01 119.65,-50.92"/>
</g>
<!-- node0x5030000009a0 -->
<g id="node3" class="node">
<title>node0x5030000009a0</title>
<path fill="#feaadf" stroke="black" d="M203,-0.5C203,-0.5 316,-0.5 316,-0.5 322,-0.5 328,-6.5 328,-12.5 328,-12.5 328,-34.5 328,-34.5 328,-40.5 322,-46.5 316,-46.5 316,-46.5 203,-46.5 203,-46.5 197,-46.5 191,-40.5 191,-34.5 191,-34.5 191,-12.5 191,-12.5 191,-6.5 197,-0.5 203,-0.5"/>
<text text-anchor="middle" x="259.5" y="-31.3" font-family="Times,serif" font-size="14.00">type = 4 (FUNC)</text>
<polyline fill="none" stroke="black" points="191,-23.5 328,-23.5 "/>
<text text-anchor="middle" x="259.5" y="-8.3" font-family="Times,serif" font-size="14.00">value = &#39;&#39; , &#39;&#39; (44)</text>
</g>
<!-- node0x5030000009d0&#45;&gt;node0x5030000009a0 -->
<g id="edge2" class="edge">
<title>node0x5030000009d0&#45;&gt;node0x5030000009a0</title>
<path fill="none" stroke="black" d="M196.27,-83.37C206.15,-74.17 217.75,-63.37 228.3,-53.55"/>
<polygon fill="black" stroke="black" points="230.82,-55.98 235.76,-46.61 226.05,-50.86 230.82,-55.98"/>
</g>
</g>
</svg>
