<?xml version="1.0" encoding="UTF-8" standalone="no"?>
<!DOCTYPE svg PUBLIC "-//W3C//DTD SVG 1.1//EN"
 "http://www.w3.org/Graphics/SVG/1.1/DTD/svg11.dtd">
<!-- Generated by graphviz version 2.43.0 (0)
 -->
<!-- Title: %3 Pages: 1 -->
<svg width="2405pt" height="1419pt"
 viewBox="0.00 0.00 2404.50 1419.00" xmlns="http://www.w3.org/2000/svg" xmlns:xlink="http://www.w3.org/1999/xlink">
<g id="graph0" class="graph" transform="scale(1 1) rotate(0) translate(4 1415)">
<title>%3</title>
<!-- node0x503000000940 -->
<g id="node1" class="node">
<title>node0x503000000940</title>
<path fill="#a0a0a0" stroke="black" d="M236,-1364.5C236,-1364.5 472,-1364.5 472,-1364.5 478,-1364.5 484,-1370.5 484,-1376.5 484,-1376.5 484,-1398.5 484,-1398.5 484,-1404.5 478,-1410.5 472,-1410.5 472,-1410.5 236,-1410.5 236,-1410.5 230,-1410.5 224,-1404.5 224,-1398.5 224,-1398.5 224,-1376.5 224,-1376.5 224,-1370.5 230,-1364.5 236,-1364.5"/>
<text text-anchor="middle" x="354" y="-1395.3" font-family="Times,serif" font-size="14.00">type = 4 (FUNC)</text>
<polyline fill="none" stroke="black" points="224,-1387.5 484,-1387.5 "/>
<text text-anchor="middle" x="354" y="-1372.3" font-family="Times,serif" font-size="14.00">value = &#39;&#39; NEXT FUNCTION &#39;&#39; (64)</text>
</g>
<!-- node0x503000000910 -->
<g id="node2" class="node">
<title>node0x503000000910</title>
<path fill="#755cf7" stroke="black" d="M254,-1281.5C254,-1281.5 454,-1281.5 454,-1281.5 460,-1281.5 466,-1287.5 466,-1293.5 466,-1293.5 466,-1315.5 466,-1315.5 466,-1321.5 460,-1327.5 454,-1327.5 454,-1327.5 254,-1327.5 254,-1327.5 248,-1327.5 242,-1321.5 242,-1315.5 242,-1315.5 242,-1293.5 242,-1293.5 242,-1287.5 248,-1281.5 254,-1281.5"/>
<text text-anchor="middle" x="354" y="-1312.3" font-family="Times,serif" font-size="14.00">type = 4 (FUNC)</text>
<polyline fill="none" stroke="black" points="242,-1304.5 466,-1304.5 "/>
<text text-anchor="middle" x="354" y="-1289.3" font-family="Times,serif" font-size="14.00">value = &#39;&#39; DEFINITION &#39;&#39; (68)</text>
</g>
<!-- node0x503000000940&#45;&gt;node0x503000000910 -->
<g id="edge1" class="edge">
<title>node0x503000000940&#45;&gt;node0x503000000910</title>
<path fill="none" stroke="black" d="M354,-1364.37C354,-1356.15 354,-1346.66 354,-1337.73"/>
<polygon fill="black" stroke="black" points="357.5,-1337.61 354,-1327.61 350.5,-1337.61 357.5,-1337.61"/>
</g>
<!-- node0x5030000000d0 -->
<g id="node3" class="node">
<title>node0x5030000000d0</title>
<path fill="#f069f5" stroke="black" d="M179.5,-1198.5C179.5,-1198.5 326.5,-1198.5 326.5,-1198.5 332.5,-1198.5 338.5,-1204.5 338.5,-1210.5 338.5,-1210.5 338.5,-1232.5 338.5,-1232.5 338.5,-1238.5 332.5,-1244.5 326.5,-1244.5 326.5,-1244.5 179.5,-1244.5 179.5,-1244.5 173.5,-1244.5 167.5,-1238.5 167.5,-1232.5 167.5,-1232.5 167.5,-1210.5 167.5,-1210.5 167.5,-1204.5 173.5,-1198.5 179.5,-1198.5"/>
<text text-anchor="middle" x="253" y="-1229.3" font-family="Times,serif" font-size="14.00">type = 4 (FUNC)</text>
<polyline fill="none" stroke="black" points="167.5,-1221.5 338.5,-1221.5 "/>
<text text-anchor="middle" x="253" y="-1206.3" font-family="Times,serif" font-size="14.00">value = &#39;&#39; CALL &#39;&#39; (67)</text>
</g>
<!-- node0x503000000910&#45;&gt;node0x5030000000d0 -->
<g id="edge2" class="edge">
<title>node0x503000000910&#45;&gt;node0x5030000000d0</title>
<path fill="none" stroke="black" d="M326.4,-1281.37C314.71,-1271.99 300.94,-1260.95 288.51,-1250.98"/>
<polygon fill="black" stroke="black" points="290.56,-1248.13 280.57,-1244.61 286.18,-1253.59 290.56,-1248.13"/>
</g>
<!-- node0x503000000190 -->
<g id="node4" class="node">
<title>node0x503000000190</title>
<path fill="#e0e0e0" stroke="black" d="M394.5,-1198.5C394.5,-1198.5 567.5,-1198.5 567.5,-1198.5 573.5,-1198.5 579.5,-1204.5 579.5,-1210.5 579.5,-1210.5 579.5,-1232.5 579.5,-1232.5 579.5,-1238.5 573.5,-1244.5 567.5,-1244.5 567.5,-1244.5 394.5,-1244.5 394.5,-1244.5 388.5,-1244.5 382.5,-1238.5 382.5,-1232.5 382.5,-1232.5 382.5,-1210.5 382.5,-1210.5 382.5,-1204.5 388.5,-1198.5 394.5,-1198.5"/>
<text text-anchor="middle" x="481" y="-1229.3" font-family="Times,serif" font-size="14.00">type = 2 (OP)</text>
<polyline fill="none" stroke="black" points="382.5,-1221.5 579.5,-1221.5 "/>
<text text-anchor="middle" x="481" y="-1206.3" font-family="Times,serif" font-size="14.00">value = &#39;&#39; SHUTUP &#39;&#39; (59)</text>
</g>
<!-- node0x503000000910&#45;&gt;node0x503000000190 -->
<g id="edge3" class="edge">
<title>node0x503000000910&#45;&gt;node0x503000000190</title>
<path fill="none" stroke="black" d="M388.7,-1281.37C403.82,-1271.72 421.71,-1260.32 437.69,-1250.13"/>
<polygon fill="black" stroke="black" points="439.79,-1252.94 446.34,-1244.61 436.03,-1247.03 439.79,-1252.94"/>
</g>
<!-- node0x503000000040 -->
<g id="node5" class="node">
<title>node0x503000000040</title>
<path fill="#2ee31e" stroke="black" d="M12,-1115.5C12,-1115.5 154,-1115.5 154,-1115.5 160,-1115.5 166,-1121.5 166,-1127.5 166,-1127.5 166,-1149.5 166,-1149.5 166,-1155.5 160,-1161.5 154,-1161.5 154,-1161.5 12,-1161.5 12,-1161.5 6,-1161.5 0,-1155.5 0,-1149.5 0,-1149.5 0,-1127.5 0,-1127.5 0,-1121.5 6,-1115.5 12,-1115.5"/>
<text text-anchor="middle" x="83" y="-1146.3" font-family="Times,serif" font-size="14.00">type = 4 (FUNC)</text>
<polyline fill="none" stroke="black" points="0,-1138.5 166,-1138.5 "/>
<text text-anchor="middle" x="83" y="-1123.3" font-family="Times,serif" font-size="14.00">value = &#39;&#39; carti &#39;&#39; (20)</text>
</g>
<!-- node0x5030000000d0&#45;&gt;node0x503000000040 -->
<g id="edge4" class="edge">
<title>node0x5030000000d0&#45;&gt;node0x503000000040</title>
<path fill="none" stroke="black" d="M206.55,-1198.37C185.56,-1188.37 160.59,-1176.47 138.61,-1166"/>
<polygon fill="black" stroke="black" points="139.93,-1162.75 129.4,-1161.61 136.92,-1169.07 139.93,-1162.75"/>
</g>
<!-- node0x5030000000a0 -->
<g id="node6" class="node">
<title>node0x5030000000a0</title>
<path fill="#feaadf" stroke="black" d="M196.5,-1115.5C196.5,-1115.5 309.5,-1115.5 309.5,-1115.5 315.5,-1115.5 321.5,-1121.5 321.5,-1127.5 321.5,-1127.5 321.5,-1149.5 321.5,-1149.5 321.5,-1155.5 315.5,-1161.5 309.5,-1161.5 309.5,-1161.5 196.5,-1161.5 196.5,-1161.5 190.5,-1161.5 184.5,-1155.5 184.5,-1149.5 184.5,-1149.5 184.5,-1127.5 184.5,-1127.5 184.5,-1121.5 190.5,-1115.5 196.5,-1115.5"/>
<text text-anchor="middle" x="253" y="-1146.3" font-family="Times,serif" font-size="14.00">type = 4 (FUNC)</text>
<polyline fill="none" stroke="black" points="184.5,-1138.5 321.5,-1138.5 "/>
<text text-anchor="middle" x="253" y="-1123.3" font-family="Times,serif" font-size="14.00">value = &#39;&#39; , &#39;&#39; (44)</text>
</g>
<!-- node0x5030000000d0&#45;&gt;node0x5030000000a0 -->
<g id="edge5" class="edge">
<title>node0x5030000000d0&#45;&gt;node0x5030000000a0</title>
<path fill="none" stroke="black" d="M253,-1198.37C253,-1190.15 253,-1180.66 253,-1171.73"/>
<polygon fill="black" stroke="black" points="256.5,-1171.61 253,-1161.61 249.5,-1171.61 256.5,-1171.61"/>
</g>
<!-- node0x503000000160 -->
<g id="node8" class="node">
<title>node0x503000000160</title>
<path fill="#00ffdd" stroke="black" d="M420.5,-1115.5C420.5,-1115.5 541.5,-1115.5 541.5,-1115.5 547.5,-1115.5 553.5,-1121.5 553.5,-1127.5 553.5,-1127.5 553.5,-1149.5 553.5,-1149.5 553.5,-1155.5 547.5,-1161.5 541.5,-1161.5 541.5,-1161.5 420.5,-1161.5 420.5,-1161.5 414.5,-1161.5 408.5,-1155.5 408.5,-1149.5 408.5,-1149.5 408.5,-1127.5 408.5,-1127.5 408.5,-1121.5 414.5,-1115.5 420.5,-1115.5"/>
<text text-anchor="middle" x="481" y="-1146.3" font-family="Times,serif" font-size="14.00">type = 2 (OP)</text>
<polyline fill="none" stroke="black" points="408.5,-1138.5 553.5,-1138.5 "/>
<text text-anchor="middle" x="481" y="-1123.3" font-family="Times,serif" font-size="14.00">value = &#39;&#39; = &#39;&#39; (61)</text>
</g>
<!-- node0x503000000190&#45;&gt;node0x503000000160 -->
<g id="edge7" class="edge">
<title>node0x503000000190&#45;&gt;node0x503000000160</title>
<path fill="none" stroke="black" d="M481,-1198.37C481,-1190.15 481,-1180.66 481,-1171.73"/>
<polygon fill="black" stroke="black" points="484.5,-1171.61 481,-1161.61 477.5,-1171.61 484.5,-1171.61"/>
</g>
<!-- node0x503000000250 -->
<g id="node9" class="node">
<title>node0x503000000250</title>
<path fill="#e0e0e0" stroke="black" d="M668.5,-1115.5C668.5,-1115.5 841.5,-1115.5 841.5,-1115.5 847.5,-1115.5 853.5,-1121.5 853.5,-1127.5 853.5,-1127.5 853.5,-1149.5 853.5,-1149.5 853.5,-1155.5 847.5,-1161.5 841.5,-1161.5 841.5,-1161.5 668.5,-1161.5 668.5,-1161.5 662.5,-1161.5 656.5,-1155.5 656.5,-1149.5 656.5,-1149.5 656.5,-1127.5 656.5,-1127.5 656.5,-1121.5 662.5,-1115.5 668.5,-1115.5"/>
<text text-anchor="middle" x="755" y="-1146.3" font-family="Times,serif" font-size="14.00">type = 2 (OP)</text>
<polyline fill="none" stroke="black" points="656.5,-1138.5 853.5,-1138.5 "/>
<text text-anchor="middle" x="755" y="-1123.3" font-family="Times,serif" font-size="14.00">value = &#39;&#39; SHUTUP &#39;&#39; (59)</text>
</g>
<!-- node0x503000000190&#45;&gt;node0x503000000250 -->
<g id="edge8" class="edge">
<title>node0x503000000190&#45;&gt;node0x503000000250</title>
<path fill="none" stroke="black" d="M555.51,-1198.47C591.15,-1187.94 633.97,-1175.28 670.79,-1164.39"/>
<polygon fill="black" stroke="black" points="671.91,-1167.71 680.51,-1161.52 669.92,-1161 671.91,-1167.71"/>
</g>
<!-- node0x503000000070 -->
<g id="node7" class="node">
<title>node0x503000000070</title>
<path fill="#ff5050" stroke="black" d="M35.5,-986.5C35.5,-986.5 248.5,-986.5 248.5,-986.5 254.5,-986.5 260.5,-992.5 260.5,-998.5 260.5,-998.5 260.5,-1066.5 260.5,-1066.5 260.5,-1072.5 254.5,-1078.5 248.5,-1078.5 248.5,-1078.5 35.5,-1078.5 35.5,-1078.5 29.5,-1078.5 23.5,-1072.5 23.5,-1066.5 23.5,-1066.5 23.5,-998.5 23.5,-998.5 23.5,-992.5 29.5,-986.5 35.5,-986.5"/>
<text text-anchor="middle" x="142" y="-1063.3" font-family="Times,serif" font-size="14.00">type = 3 (ID)</text>
<polyline fill="none" stroke="black" points="23.5,-1055.5 260.5,-1055.5 "/>
<text text-anchor="middle" x="142" y="-1040.3" font-family="Times,serif" font-size="14.00">name = &#39;&#39; argc &#39;&#39;</text>
<polyline fill="none" stroke="black" points="23.5,-1032.5 260.5,-1032.5 "/>
<text text-anchor="middle" x="142" y="-1017.3" font-family="Times,serif" font-size="14.00">number in name table = &#39;&#39; 21 &#39;&#39;</text>
<polyline fill="none" stroke="black" points="23.5,-1009.5 260.5,-1009.5 "/>
<text text-anchor="middle" x="142" y="-994.3" font-family="Times,serif" font-size="14.00">id_type = PARM</text>
</g>
<!-- node0x5030000000a0&#45;&gt;node0x503000000070 -->
<g id="edge6" class="edge">
<title>node0x5030000000a0&#45;&gt;node0x503000000070</title>
<path fill="none" stroke="black" d="M229.46,-1115.44C220.06,-1106.64 208.81,-1096.1 197.56,-1085.55"/>
<polygon fill="black" stroke="black" points="199.87,-1082.93 190.18,-1078.64 195.09,-1088.03 199.87,-1082.93"/>
</g>
<!-- node0x503000000100 -->
<g id="node10" class="node">
<title>node0x503000000100</title>
<path fill="#ff5050" stroke="black" d="M290.5,-986.5C290.5,-986.5 503.5,-986.5 503.5,-986.5 509.5,-986.5 515.5,-992.5 515.5,-998.5 515.5,-998.5 515.5,-1066.5 515.5,-1066.5 515.5,-1072.5 509.5,-1078.5 503.5,-1078.5 503.5,-1078.5 290.5,-1078.5 290.5,-1078.5 284.5,-1078.5 278.5,-1072.5 278.5,-1066.5 278.5,-1066.5 278.5,-998.5 278.5,-998.5 278.5,-992.5 284.5,-986.5 290.5,-986.5"/>
<text text-anchor="middle" x="397" y="-1063.3" font-family="Times,serif" font-size="14.00">type = 3 (ID)</text>
<polyline fill="none" stroke="black" points="278.5,-1055.5 515.5,-1055.5 "/>
<text text-anchor="middle" x="397" y="-1040.3" font-family="Times,serif" font-size="14.00">name = &#39;&#39; numb &#39;&#39;</text>
<polyline fill="none" stroke="black" points="278.5,-1032.5 515.5,-1032.5 "/>
<text text-anchor="middle" x="397" y="-1017.3" font-family="Times,serif" font-size="14.00">number in name table = &#39;&#39; 22 &#39;&#39;</text>
<polyline fill="none" stroke="black" points="278.5,-1009.5 515.5,-1009.5 "/>
<text text-anchor="middle" x="397" y="-994.3" font-family="Times,serif" font-size="14.00">id_type = LOCL</text>
</g>
<!-- node0x503000000160&#45;&gt;node0x503000000100 -->
<g id="edge9" class="edge">
<title>node0x503000000160&#45;&gt;node0x503000000100</title>
<path fill="none" stroke="black" d="M463.19,-1115.44C456.28,-1106.89 448.05,-1096.7 439.77,-1086.46"/>
<polygon fill="black" stroke="black" points="442.47,-1084.22 433.46,-1078.64 437.02,-1088.62 442.47,-1084.22"/>
</g>
<!-- node0x503000000130 -->
<g id="node11" class="node">
<title>node0x503000000130</title>
<path fill="#ffd700" stroke="black" d="M545.5,-1009.5C545.5,-1009.5 652.5,-1009.5 652.5,-1009.5 658.5,-1009.5 664.5,-1015.5 664.5,-1021.5 664.5,-1021.5 664.5,-1043.5 664.5,-1043.5 664.5,-1049.5 658.5,-1055.5 652.5,-1055.5 652.5,-1055.5 545.5,-1055.5 545.5,-1055.5 539.5,-1055.5 533.5,-1049.5 533.5,-1043.5 533.5,-1043.5 533.5,-1021.5 533.5,-1021.5 533.5,-1015.5 539.5,-1009.5 545.5,-1009.5"/>
<text text-anchor="middle" x="599" y="-1040.3" font-family="Times,serif" font-size="14.00">type = 1 (NUM)</text>
<polyline fill="none" stroke="black" points="533.5,-1032.5 664.5,-1032.5 "/>
<text text-anchor="middle" x="599" y="-1017.3" font-family="Times,serif" font-size="14.00">value = &#39;&#39; 1 &#39;&#39;</text>
</g>
<!-- node0x503000000160&#45;&gt;node0x503000000130 -->
<g id="edge10" class="edge">
<title>node0x503000000160&#45;&gt;node0x503000000130</title>
<path fill="none" stroke="black" d="M506.02,-1115.44C523.62,-1099.93 547.34,-1079.03 566.42,-1062.22"/>
<polygon fill="black" stroke="black" points="568.82,-1064.76 574.01,-1055.52 564.19,-1059.51 568.82,-1064.76"/>
</g>
<!-- node0x503000000220 -->
<g id="node12" class="node">
<title>node0x503000000220</title>
<path fill="#00ffdd" stroke="black" d="M694.5,-1009.5C694.5,-1009.5 815.5,-1009.5 815.5,-1009.5 821.5,-1009.5 827.5,-1015.5 827.5,-1021.5 827.5,-1021.5 827.5,-1043.5 827.5,-1043.5 827.5,-1049.5 821.5,-1055.5 815.5,-1055.5 815.5,-1055.5 694.5,-1055.5 694.5,-1055.5 688.5,-1055.5 682.5,-1049.5 682.5,-1043.5 682.5,-1043.5 682.5,-1021.5 682.5,-1021.5 682.5,-1015.5 688.5,-1009.5 694.5,-1009.5"/>
<text text-anchor="middle" x="755" y="-1040.3" font-family="Times,serif" font-size="14.00">type = 2 (OP)</text>
<polyline fill="none" stroke="black" points="682.5,-1032.5 827.5,-1032.5 "/>
<text text-anchor="middle" x="755" y="-1017.3" font-family="Times,serif" font-size="14.00">value = &#39;&#39; = &#39;&#39; (61)</text>
</g>
<!-- node0x503000000250&#45;&gt;node0x503000000220 -->
<g id="edge11" class="edge">
<title>node0x503000000250&#45;&gt;node0x503000000220</title>
<path fill="none" stroke="black" d="M755,-1115.44C755,-1100.97 755,-1081.79 755,-1065.63"/>
<polygon fill="black" stroke="black" points="758.5,-1065.52 755,-1055.52 751.5,-1065.52 758.5,-1065.52"/>
</g>
<!-- node0x503000000310 -->
<g id="node13" class="node">
<title>node0x503000000310</title>
<path fill="#e0e0e0" stroke="black" d="M857.5,-1009.5C857.5,-1009.5 1030.5,-1009.5 1030.5,-1009.5 1036.5,-1009.5 1042.5,-1015.5 1042.5,-1021.5 1042.5,-1021.5 1042.5,-1043.5 1042.5,-1043.5 1042.5,-1049.5 1036.5,-1055.5 1030.5,-1055.5 1030.5,-1055.5 857.5,-1055.5 857.5,-1055.5 851.5,-1055.5 845.5,-1049.5 845.5,-1043.5 845.5,-1043.5 845.5,-1021.5 845.5,-1021.5 845.5,-1015.5 851.5,-1009.5 857.5,-1009.5"/>
<text text-anchor="middle" x="944" y="-1040.3" font-family="Times,serif" font-size="14.00">type = 2 (OP)</text>
<polyline fill="none" stroke="black" points="845.5,-1032.5 1042.5,-1032.5 "/>
<text text-anchor="middle" x="944" y="-1017.3" font-family="Times,serif" font-size="14.00">value = &#39;&#39; SHUTUP &#39;&#39; (59)</text>
</g>
<!-- node0x503000000250&#45;&gt;node0x503000000310 -->
<g id="edge12" class="edge">
<title>node0x503000000250&#45;&gt;node0x503000000310</title>
<path fill="none" stroke="black" d="M795.08,-1115.44C824.27,-1099.38 863.98,-1077.53 895.05,-1060.44"/>
<polygon fill="black" stroke="black" points="896.9,-1063.41 903.98,-1055.52 893.53,-1057.28 896.9,-1063.41"/>
</g>
<!-- node0x5030000001c0 -->
<g id="node14" class="node">
<title>node0x5030000001c0</title>
<path fill="#ff5050" stroke="black" d="M454.5,-857.5C454.5,-857.5 667.5,-857.5 667.5,-857.5 673.5,-857.5 679.5,-863.5 679.5,-869.5 679.5,-869.5 679.5,-937.5 679.5,-937.5 679.5,-943.5 673.5,-949.5 667.5,-949.5 667.5,-949.5 454.5,-949.5 454.5,-949.5 448.5,-949.5 442.5,-943.5 442.5,-937.5 442.5,-937.5 442.5,-869.5 442.5,-869.5 442.5,-863.5 448.5,-857.5 454.5,-857.5"/>
<text text-anchor="middle" x="561" y="-934.3" font-family="Times,serif" font-size="14.00">type = 3 (ID)</text>
<polyline fill="none" stroke="black" points="442.5,-926.5 679.5,-926.5 "/>
<text text-anchor="middle" x="561" y="-911.3" font-family="Times,serif" font-size="14.00">name = &#39;&#39; result &#39;&#39;</text>
<polyline fill="none" stroke="black" points="442.5,-903.5 679.5,-903.5 "/>
<text text-anchor="middle" x="561" y="-888.3" font-family="Times,serif" font-size="14.00">number in name table = &#39;&#39; 23 &#39;&#39;</text>
<polyline fill="none" stroke="black" points="442.5,-880.5 679.5,-880.5 "/>
<text text-anchor="middle" x="561" y="-865.3" font-family="Times,serif" font-size="14.00">id_type = LOCL</text>
</g>
<!-- node0x503000000220&#45;&gt;node0x5030000001c0 -->
<g id="edge13" class="edge">
<title>node0x503000000220&#45;&gt;node0x5030000001c0</title>
<path fill="none" stroke="black" d="M721.21,-1009.38C698.38,-994.44 667.29,-974.08 638.57,-955.28"/>
<polygon fill="black" stroke="black" points="640.42,-952.31 630.14,-949.76 636.59,-958.17 640.42,-952.31"/>
</g>
<!-- node0x5030000001f0 -->
<g id="node15" class="node">
<title>node0x5030000001f0</title>
<path fill="#ffd700" stroke="black" d="M709.5,-880.5C709.5,-880.5 816.5,-880.5 816.5,-880.5 822.5,-880.5 828.5,-886.5 828.5,-892.5 828.5,-892.5 828.5,-914.5 828.5,-914.5 828.5,-920.5 822.5,-926.5 816.5,-926.5 816.5,-926.5 709.5,-926.5 709.5,-926.5 703.5,-926.5 697.5,-920.5 697.5,-914.5 697.5,-914.5 697.5,-892.5 697.5,-892.5 697.5,-886.5 703.5,-880.5 709.5,-880.5"/>
<text text-anchor="middle" x="763" y="-911.3" font-family="Times,serif" font-size="14.00">type = 1 (NUM)</text>
<polyline fill="none" stroke="black" points="697.5,-903.5 828.5,-903.5 "/>
<text text-anchor="middle" x="763" y="-888.3" font-family="Times,serif" font-size="14.00">value = &#39;&#39; 1 &#39;&#39;</text>
</g>
<!-- node0x503000000220&#45;&gt;node0x5030000001f0 -->
<g id="edge14" class="edge">
<title>node0x503000000220&#45;&gt;node0x5030000001f0</title>
<path fill="none" stroke="black" d="M756.39,-1009.38C757.65,-989.38 759.52,-959.68 760.95,-936.98"/>
<polygon fill="black" stroke="black" points="764.46,-936.99 761.6,-926.79 757.47,-936.55 764.46,-936.99"/>
</g>
<!-- node0x5030000002e0 -->
<g id="node16" class="node">
<title>node0x5030000002e0</title>
<path fill="#00ffdd" stroke="black" d="M874.5,-880.5C874.5,-880.5 995.5,-880.5 995.5,-880.5 1001.5,-880.5 1007.5,-886.5 1007.5,-892.5 1007.5,-892.5 1007.5,-914.5 1007.5,-914.5 1007.5,-920.5 1001.5,-926.5 995.5,-926.5 995.5,-926.5 874.5,-926.5 874.5,-926.5 868.5,-926.5 862.5,-920.5 862.5,-914.5 862.5,-914.5 862.5,-892.5 862.5,-892.5 862.5,-886.5 868.5,-880.5 874.5,-880.5"/>
<text text-anchor="middle" x="935" y="-911.3" font-family="Times,serif" font-size="14.00">type = 2 (OP)</text>
<polyline fill="none" stroke="black" points="862.5,-903.5 1007.5,-903.5 "/>
<text text-anchor="middle" x="935" y="-888.3" font-family="Times,serif" font-size="14.00">value = &#39;&#39; = &#39;&#39; (61)</text>
</g>
<!-- node0x503000000310&#45;&gt;node0x5030000002e0 -->
<g id="edge15" class="edge">
<title>node0x503000000310&#45;&gt;node0x5030000002e0</title>
<path fill="none" stroke="black" d="M942.43,-1009.38C941.01,-989.38 938.91,-959.68 937.3,-936.98"/>
<polygon fill="black" stroke="black" points="940.78,-936.52 936.58,-926.79 933.8,-937.02 940.78,-936.52"/>
</g>
<!-- node0x503000000400 -->
<g id="node17" class="node">
<title>node0x503000000400</title>
<path fill="#e0e0e0" stroke="black" d="M1037.5,-880.5C1037.5,-880.5 1210.5,-880.5 1210.5,-880.5 1216.5,-880.5 1222.5,-886.5 1222.5,-892.5 1222.5,-892.5 1222.5,-914.5 1222.5,-914.5 1222.5,-920.5 1216.5,-926.5 1210.5,-926.5 1210.5,-926.5 1037.5,-926.5 1037.5,-926.5 1031.5,-926.5 1025.5,-920.5 1025.5,-914.5 1025.5,-914.5 1025.5,-892.5 1025.5,-892.5 1025.5,-886.5 1031.5,-880.5 1037.5,-880.5"/>
<text text-anchor="middle" x="1124" y="-911.3" font-family="Times,serif" font-size="14.00">type = 2 (OP)</text>
<polyline fill="none" stroke="black" points="1025.5,-903.5 1222.5,-903.5 "/>
<text text-anchor="middle" x="1124" y="-888.3" font-family="Times,serif" font-size="14.00">value = &#39;&#39; SHUTUP &#39;&#39; (59)</text>
</g>
<!-- node0x503000000310&#45;&gt;node0x503000000400 -->
<g id="edge16" class="edge">
<title>node0x503000000310&#45;&gt;node0x503000000400</title>
<path fill="none" stroke="black" d="M975.35,-1009.38C1005.59,-988.05 1051.46,-955.68 1084.25,-932.55"/>
<polygon fill="black" stroke="black" points="1086.55,-935.21 1092.7,-926.58 1082.52,-929.49 1086.55,-935.21"/>
</g>
<!-- node0x503000000280 -->
<g id="node18" class="node">
<title>node0x503000000280</title>
<path fill="#ff5050" stroke="black" d="M631.5,-728.5C631.5,-728.5 844.5,-728.5 844.5,-728.5 850.5,-728.5 856.5,-734.5 856.5,-740.5 856.5,-740.5 856.5,-808.5 856.5,-808.5 856.5,-814.5 850.5,-820.5 844.5,-820.5 844.5,-820.5 631.5,-820.5 631.5,-820.5 625.5,-820.5 619.5,-814.5 619.5,-808.5 619.5,-808.5 619.5,-740.5 619.5,-740.5 619.5,-734.5 625.5,-728.5 631.5,-728.5"/>
<text text-anchor="middle" x="738" y="-805.3" font-family="Times,serif" font-size="14.00">type = 3 (ID)</text>
<polyline fill="none" stroke="black" points="619.5,-797.5 856.5,-797.5 "/>
<text text-anchor="middle" x="738" y="-782.3" font-family="Times,serif" font-size="14.00">name = &#39;&#39; old &#39;&#39;</text>
<polyline fill="none" stroke="black" points="619.5,-774.5 856.5,-774.5 "/>
<text text-anchor="middle" x="738" y="-759.3" font-family="Times,serif" font-size="14.00">number in name table = &#39;&#39; 24 &#39;&#39;</text>
<polyline fill="none" stroke="black" points="619.5,-751.5 856.5,-751.5 "/>
<text text-anchor="middle" x="738" y="-736.3" font-family="Times,serif" font-size="14.00">id_type = LOCL</text>
</g>
<!-- node0x5030000002e0&#45;&gt;node0x503000000280 -->
<g id="edge17" class="edge">
<title>node0x5030000002e0&#45;&gt;node0x503000000280</title>
<path fill="none" stroke="black" d="M900.69,-880.38C877.51,-865.44 845.93,-845.08 816.77,-826.28"/>
<polygon fill="black" stroke="black" points="818.51,-823.24 808.21,-820.76 814.72,-829.12 818.51,-823.24"/>
</g>
<!-- node0x5030000002b0 -->
<g id="node19" class="node">
<title>node0x5030000002b0</title>
<path fill="#ffd700" stroke="black" d="M886.5,-751.5C886.5,-751.5 993.5,-751.5 993.5,-751.5 999.5,-751.5 1005.5,-757.5 1005.5,-763.5 1005.5,-763.5 1005.5,-785.5 1005.5,-785.5 1005.5,-791.5 999.5,-797.5 993.5,-797.5 993.5,-797.5 886.5,-797.5 886.5,-797.5 880.5,-797.5 874.5,-791.5 874.5,-785.5 874.5,-785.5 874.5,-763.5 874.5,-763.5 874.5,-757.5 880.5,-751.5 886.5,-751.5"/>
<text text-anchor="middle" x="940" y="-782.3" font-family="Times,serif" font-size="14.00">type = 1 (NUM)</text>
<polyline fill="none" stroke="black" points="874.5,-774.5 1005.5,-774.5 "/>
<text text-anchor="middle" x="940" y="-759.3" font-family="Times,serif" font-size="14.00">value = &#39;&#39; 1 &#39;&#39;</text>
</g>
<!-- node0x5030000002e0&#45;&gt;node0x5030000002b0 -->
<g id="edge18" class="edge">
<title>node0x5030000002e0&#45;&gt;node0x5030000002b0</title>
<path fill="none" stroke="black" d="M935.87,-880.38C936.66,-860.38 937.83,-830.68 938.72,-807.98"/>
<polygon fill="black" stroke="black" points="942.23,-807.92 939.12,-797.79 935.23,-807.65 942.23,-807.92"/>
</g>
<!-- node0x5030000003d0 -->
<g id="node20" class="node">
<title>node0x5030000003d0</title>
<path fill="#f069f5" stroke="black" d="M1045.5,-751.5C1045.5,-751.5 1192.5,-751.5 1192.5,-751.5 1198.5,-751.5 1204.5,-757.5 1204.5,-763.5 1204.5,-763.5 1204.5,-785.5 1204.5,-785.5 1204.5,-791.5 1198.5,-797.5 1192.5,-797.5 1192.5,-797.5 1045.5,-797.5 1045.5,-797.5 1039.5,-797.5 1033.5,-791.5 1033.5,-785.5 1033.5,-785.5 1033.5,-763.5 1033.5,-763.5 1033.5,-757.5 1039.5,-751.5 1045.5,-751.5"/>
<text text-anchor="middle" x="1119" y="-782.3" font-family="Times,serif" font-size="14.00">type = 4 (FUNC)</text>
<polyline fill="none" stroke="black" points="1033.5,-774.5 1204.5,-774.5 "/>
<text text-anchor="middle" x="1119" y="-759.3" font-family="Times,serif" font-size="14.00">value = &#39;&#39; CALL &#39;&#39; (67)</text>
</g>
<!-- node0x503000000400&#45;&gt;node0x5030000003d0 -->
<g id="edge19" class="edge">
<title>node0x503000000400&#45;&gt;node0x5030000003d0</title>
<path fill="none" stroke="black" d="M1123.13,-880.38C1122.34,-860.38 1121.17,-830.68 1120.28,-807.98"/>
<polygon fill="black" stroke="black" points="1123.77,-807.65 1119.88,-797.79 1116.77,-807.92 1123.77,-807.65"/>
</g>
<!-- node0x5030000006d0 -->
<g id="node21" class="node">
<title>node0x5030000006d0</title>
<path fill="#e0e0e0" stroke="black" d="M1260.5,-751.5C1260.5,-751.5 1433.5,-751.5 1433.5,-751.5 1439.5,-751.5 1445.5,-757.5 1445.5,-763.5 1445.5,-763.5 1445.5,-785.5 1445.5,-785.5 1445.5,-791.5 1439.5,-797.5 1433.5,-797.5 1433.5,-797.5 1260.5,-797.5 1260.5,-797.5 1254.5,-797.5 1248.5,-791.5 1248.5,-785.5 1248.5,-785.5 1248.5,-763.5 1248.5,-763.5 1248.5,-757.5 1254.5,-751.5 1260.5,-751.5"/>
<text text-anchor="middle" x="1347" y="-782.3" font-family="Times,serif" font-size="14.00">type = 2 (OP)</text>
<polyline fill="none" stroke="black" points="1248.5,-774.5 1445.5,-774.5 "/>
<text text-anchor="middle" x="1347" y="-759.3" font-family="Times,serif" font-size="14.00">value = &#39;&#39; SHUTUP &#39;&#39; (59)</text>
</g>
<!-- node0x503000000400&#45;&gt;node0x5030000006d0 -->
<g id="edge20" class="edge">
<title>node0x503000000400&#45;&gt;node0x5030000006d0</title>
<path fill="none" stroke="black" d="M1162.84,-880.38C1200.78,-858.77 1258.59,-825.85 1299.3,-802.66"/>
<polygon fill="black" stroke="black" points="1301.27,-805.57 1308.23,-797.58 1297.81,-799.49 1301.27,-805.57"/>
</g>
<!-- node0x503000000340 -->
<g id="node22" class="node">
<title>node0x503000000340</title>
<path fill="#2ee31e" stroke="black" d="M874,-645.5C874,-645.5 1020,-645.5 1020,-645.5 1026,-645.5 1032,-651.5 1032,-657.5 1032,-657.5 1032,-679.5 1032,-679.5 1032,-685.5 1026,-691.5 1020,-691.5 1020,-691.5 874,-691.5 874,-691.5 868,-691.5 862,-685.5 862,-679.5 862,-679.5 862,-657.5 862,-657.5 862,-651.5 868,-645.5 874,-645.5"/>
<text text-anchor="middle" x="947" y="-676.3" font-family="Times,serif" font-size="14.00">type = 4 (FUNC)</text>
<polyline fill="none" stroke="black" points="862,-668.5 1032,-668.5 "/>
<text text-anchor="middle" x="947" y="-653.3" font-family="Times,serif" font-size="14.00">value = &#39;&#39; scanf &#39;&#39; (25)</text>
</g>
<!-- node0x5030000003d0&#45;&gt;node0x503000000340 -->
<g id="edge21" class="edge">
<title>node0x5030000003d0&#45;&gt;node0x503000000340</title>
<path fill="none" stroke="black" d="M1082.52,-751.44C1056.18,-735.52 1020.45,-713.91 992.28,-696.88"/>
<polygon fill="black" stroke="black" points="993.79,-693.7 983.42,-691.52 990.17,-699.69 993.79,-693.7"/>
</g>
<!-- node0x5030000003a0 -->
<g id="node23" class="node">
<title>node0x5030000003a0</title>
<path fill="#feaadf" stroke="black" d="M1062.5,-645.5C1062.5,-645.5 1175.5,-645.5 1175.5,-645.5 1181.5,-645.5 1187.5,-651.5 1187.5,-657.5 1187.5,-657.5 1187.5,-679.5 1187.5,-679.5 1187.5,-685.5 1181.5,-691.5 1175.5,-691.5 1175.5,-691.5 1062.5,-691.5 1062.5,-691.5 1056.5,-691.5 1050.5,-685.5 1050.5,-679.5 1050.5,-679.5 1050.5,-657.5 1050.5,-657.5 1050.5,-651.5 1056.5,-645.5 1062.5,-645.5"/>
<text text-anchor="middle" x="1119" y="-676.3" font-family="Times,serif" font-size="14.00">type = 4 (FUNC)</text>
<polyline fill="none" stroke="black" points="1050.5,-668.5 1187.5,-668.5 "/>
<text text-anchor="middle" x="1119" y="-653.3" font-family="Times,serif" font-size="14.00">value = &#39;&#39; , &#39;&#39; (44)</text>
</g>
<!-- node0x5030000003d0&#45;&gt;node0x5030000003a0 -->
<g id="edge22" class="edge">
<title>node0x5030000003d0&#45;&gt;node0x5030000003a0</title>
<path fill="none" stroke="black" d="M1119,-751.44C1119,-736.97 1119,-717.79 1119,-701.63"/>
<polygon fill="black" stroke="black" points="1122.5,-701.52 1119,-691.52 1115.5,-701.52 1122.5,-701.52"/>
</g>
<!-- node0x5030000006a0 -->
<g id="node25" class="node">
<title>node0x5030000006a0</title>
<path fill="#df73df" stroke="black" d="M1259.5,-645.5C1259.5,-645.5 1434.5,-645.5 1434.5,-645.5 1440.5,-645.5 1446.5,-651.5 1446.5,-657.5 1446.5,-657.5 1446.5,-679.5 1446.5,-679.5 1446.5,-685.5 1440.5,-691.5 1434.5,-691.5 1434.5,-691.5 1259.5,-691.5 1259.5,-691.5 1253.5,-691.5 1247.5,-685.5 1247.5,-679.5 1247.5,-679.5 1247.5,-657.5 1247.5,-657.5 1247.5,-651.5 1253.5,-645.5 1259.5,-645.5"/>
<text text-anchor="middle" x="1347" y="-676.3" font-family="Times,serif" font-size="14.00">type = 2 (OP)</text>
<polyline fill="none" stroke="black" points="1247.5,-668.5 1446.5,-668.5 "/>
<text text-anchor="middle" x="1347" y="-653.3" font-family="Times,serif" font-size="14.00">value = &#39;&#39; MONEY &#39;&#39; (119)</text>
</g>
<!-- node0x5030000006d0&#45;&gt;node0x5030000006a0 -->
<g id="edge24" class="edge">
<title>node0x5030000006d0&#45;&gt;node0x5030000006a0</title>
<path fill="none" stroke="black" d="M1347,-751.44C1347,-736.97 1347,-717.79 1347,-701.63"/>
<polygon fill="black" stroke="black" points="1350.5,-701.52 1347,-691.52 1343.5,-701.52 1350.5,-701.52"/>
</g>
<!-- node0x5030000007f0 -->
<g id="node26" class="node">
<title>node0x5030000007f0</title>
<path fill="#e0e0e0" stroke="black" d="M1668.5,-645.5C1668.5,-645.5 1841.5,-645.5 1841.5,-645.5 1847.5,-645.5 1853.5,-651.5 1853.5,-657.5 1853.5,-657.5 1853.5,-679.5 1853.5,-679.5 1853.5,-685.5 1847.5,-691.5 1841.5,-691.5 1841.5,-691.5 1668.5,-691.5 1668.5,-691.5 1662.5,-691.5 1656.5,-685.5 1656.5,-679.5 1656.5,-679.5 1656.5,-657.5 1656.5,-657.5 1656.5,-651.5 1662.5,-645.5 1668.5,-645.5"/>
<text text-anchor="middle" x="1755" y="-676.3" font-family="Times,serif" font-size="14.00">type = 2 (OP)</text>
<polyline fill="none" stroke="black" points="1656.5,-668.5 1853.5,-668.5 "/>
<text text-anchor="middle" x="1755" y="-653.3" font-family="Times,serif" font-size="14.00">value = &#39;&#39; SHUTUP &#39;&#39; (59)</text>
</g>
<!-- node0x5030000006d0&#45;&gt;node0x5030000007f0 -->
<g id="edge25" class="edge">
<title>node0x5030000006d0&#45;&gt;node0x5030000007f0</title>
<path fill="none" stroke="black" d="M1433.53,-751.44C1499.52,-734.62 1590.39,-711.46 1658.69,-694.05"/>
<polygon fill="black" stroke="black" points="1659.77,-697.39 1668.6,-691.52 1658.04,-690.6 1659.77,-697.39"/>
</g>
<!-- node0x503000000370 -->
<g id="node24" class="node">
<title>node0x503000000370</title>
<path fill="#ff5050" stroke="black" d="M868.5,-516.5C868.5,-516.5 1081.5,-516.5 1081.5,-516.5 1087.5,-516.5 1093.5,-522.5 1093.5,-528.5 1093.5,-528.5 1093.5,-596.5 1093.5,-596.5 1093.5,-602.5 1087.5,-608.5 1081.5,-608.5 1081.5,-608.5 868.5,-608.5 868.5,-608.5 862.5,-608.5 856.5,-602.5 856.5,-596.5 856.5,-596.5 856.5,-528.5 856.5,-528.5 856.5,-522.5 862.5,-516.5 868.5,-516.5"/>
<text text-anchor="middle" x="975" y="-593.3" font-family="Times,serif" font-size="14.00">type = 3 (ID)</text>
<polyline fill="none" stroke="black" points="856.5,-585.5 1093.5,-585.5 "/>
<text text-anchor="middle" x="975" y="-570.3" font-family="Times,serif" font-size="14.00">name = &#39;&#39; numb &#39;&#39;</text>
<polyline fill="none" stroke="black" points="856.5,-562.5 1093.5,-562.5 "/>
<text text-anchor="middle" x="975" y="-547.3" font-family="Times,serif" font-size="14.00">number in name table = &#39;&#39; 22 &#39;&#39;</text>
<polyline fill="none" stroke="black" points="856.5,-539.5 1093.5,-539.5 "/>
<text text-anchor="middle" x="975" y="-524.3" font-family="Times,serif" font-size="14.00">id_type = LOCL</text>
</g>
<!-- node0x5030000003a0&#45;&gt;node0x503000000370 -->
<g id="edge23" class="edge">
<title>node0x5030000003a0&#45;&gt;node0x503000000370</title>
<path fill="none" stroke="black" d="M1088.46,-645.44C1075.92,-636.39 1060.84,-625.5 1045.82,-614.65"/>
<polygon fill="black" stroke="black" points="1047.66,-611.66 1037.51,-608.64 1043.56,-617.34 1047.66,-611.66"/>
</g>
<!-- node0x503000000430 -->
<g id="node27" class="node">
<title>node0x503000000430</title>
<path fill="#ff5050" stroke="black" d="M1123.5,-516.5C1123.5,-516.5 1336.5,-516.5 1336.5,-516.5 1342.5,-516.5 1348.5,-522.5 1348.5,-528.5 1348.5,-528.5 1348.5,-596.5 1348.5,-596.5 1348.5,-602.5 1342.5,-608.5 1336.5,-608.5 1336.5,-608.5 1123.5,-608.5 1123.5,-608.5 1117.5,-608.5 1111.5,-602.5 1111.5,-596.5 1111.5,-596.5 1111.5,-528.5 1111.5,-528.5 1111.5,-522.5 1117.5,-516.5 1123.5,-516.5"/>
<text text-anchor="middle" x="1230" y="-593.3" font-family="Times,serif" font-size="14.00">type = 3 (ID)</text>
<polyline fill="none" stroke="black" points="1111.5,-585.5 1348.5,-585.5 "/>
<text text-anchor="middle" x="1230" y="-570.3" font-family="Times,serif" font-size="14.00">name = &#39;&#39; numb &#39;&#39;</text>
<polyline fill="none" stroke="black" points="1111.5,-562.5 1348.5,-562.5 "/>
<text text-anchor="middle" x="1230" y="-547.3" font-family="Times,serif" font-size="14.00">number in name table = &#39;&#39; 22 &#39;&#39;</text>
<polyline fill="none" stroke="black" points="1111.5,-539.5 1348.5,-539.5 "/>
<text text-anchor="middle" x="1230" y="-524.3" font-family="Times,serif" font-size="14.00">id_type = LOCL</text>
</g>
<!-- node0x5030000006a0&#45;&gt;node0x503000000430 -->
<g id="edge26" class="edge">
<title>node0x5030000006a0&#45;&gt;node0x503000000430</title>
<path fill="none" stroke="black" d="M1322.19,-645.44C1312.28,-636.64 1300.42,-626.1 1288.56,-615.55"/>
<polygon fill="black" stroke="black" points="1290.59,-612.67 1280.79,-608.64 1285.94,-617.9 1290.59,-612.67"/>
</g>
<!-- node0x503000000550 -->
<g id="node28" class="node">
<title>node0x503000000550</title>
<path fill="#e0e0e0" stroke="black" d="M1378.5,-539.5C1378.5,-539.5 1551.5,-539.5 1551.5,-539.5 1557.5,-539.5 1563.5,-545.5 1563.5,-551.5 1563.5,-551.5 1563.5,-573.5 1563.5,-573.5 1563.5,-579.5 1557.5,-585.5 1551.5,-585.5 1551.5,-585.5 1378.5,-585.5 1378.5,-585.5 1372.5,-585.5 1366.5,-579.5 1366.5,-573.5 1366.5,-573.5 1366.5,-551.5 1366.5,-551.5 1366.5,-545.5 1372.5,-539.5 1378.5,-539.5"/>
<text text-anchor="middle" x="1465" y="-570.3" font-family="Times,serif" font-size="14.00">type = 2 (OP)</text>
<polyline fill="none" stroke="black" points="1366.5,-562.5 1563.5,-562.5 "/>
<text text-anchor="middle" x="1465" y="-547.3" font-family="Times,serif" font-size="14.00">value = &#39;&#39; SHUTUP &#39;&#39; (59)</text>
</g>
<!-- node0x5030000006a0&#45;&gt;node0x503000000550 -->
<g id="edge27" class="edge">
<title>node0x5030000006a0&#45;&gt;node0x503000000550</title>
<path fill="none" stroke="black" d="M1372.02,-645.44C1389.62,-629.93 1413.34,-609.03 1432.42,-592.22"/>
<polygon fill="black" stroke="black" points="1434.82,-594.76 1440.01,-585.52 1430.19,-589.51 1434.82,-594.76"/>
</g>
<!-- node0x5030000007c0 -->
<g id="node40" class="node">
<title>node0x5030000007c0</title>
<path fill="#00ffdd" stroke="black" d="M1694.5,-539.5C1694.5,-539.5 1815.5,-539.5 1815.5,-539.5 1821.5,-539.5 1827.5,-545.5 1827.5,-551.5 1827.5,-551.5 1827.5,-573.5 1827.5,-573.5 1827.5,-579.5 1821.5,-585.5 1815.5,-585.5 1815.5,-585.5 1694.5,-585.5 1694.5,-585.5 1688.5,-585.5 1682.5,-579.5 1682.5,-573.5 1682.5,-573.5 1682.5,-551.5 1682.5,-551.5 1682.5,-545.5 1688.5,-539.5 1694.5,-539.5"/>
<text text-anchor="middle" x="1755" y="-570.3" font-family="Times,serif" font-size="14.00">type = 2 (OP)</text>
<polyline fill="none" stroke="black" points="1682.5,-562.5 1827.5,-562.5 "/>
<text text-anchor="middle" x="1755" y="-547.3" font-family="Times,serif" font-size="14.00">value = &#39;&#39; = &#39;&#39; (61)</text>
</g>
<!-- node0x5030000007f0&#45;&gt;node0x5030000007c0 -->
<g id="edge39" class="edge">
<title>node0x5030000007f0&#45;&gt;node0x5030000007c0</title>
<path fill="none" stroke="black" d="M1755,-645.44C1755,-630.97 1755,-611.79 1755,-595.63"/>
<polygon fill="black" stroke="black" points="1758.5,-595.52 1755,-585.52 1751.5,-595.52 1758.5,-595.52"/>
</g>
<!-- node0x5030000008e0 -->
<g id="node41" class="node">
<title>node0x5030000008e0</title>
<path fill="#e0e0e0" stroke="black" d="M1967.5,-539.5C1967.5,-539.5 2140.5,-539.5 2140.5,-539.5 2146.5,-539.5 2152.5,-545.5 2152.5,-551.5 2152.5,-551.5 2152.5,-573.5 2152.5,-573.5 2152.5,-579.5 2146.5,-585.5 2140.5,-585.5 2140.5,-585.5 1967.5,-585.5 1967.5,-585.5 1961.5,-585.5 1955.5,-579.5 1955.5,-573.5 1955.5,-573.5 1955.5,-551.5 1955.5,-551.5 1955.5,-545.5 1961.5,-539.5 1967.5,-539.5"/>
<text text-anchor="middle" x="2054" y="-570.3" font-family="Times,serif" font-size="14.00">type = 2 (OP)</text>
<polyline fill="none" stroke="black" points="1955.5,-562.5 2152.5,-562.5 "/>
<text text-anchor="middle" x="2054" y="-547.3" font-family="Times,serif" font-size="14.00">value = &#39;&#39; SHUTUP &#39;&#39; (59)</text>
</g>
<!-- node0x5030000007f0&#45;&gt;node0x5030000008e0 -->
<g id="edge40" class="edge">
<title>node0x5030000007f0&#45;&gt;node0x5030000008e0</title>
<path fill="none" stroke="black" d="M1818.41,-645.44C1865.98,-628.9 1931.19,-606.22 1980.95,-588.91"/>
<polygon fill="black" stroke="black" points="1982.39,-592.11 1990.68,-585.52 1980.09,-585.5 1982.39,-592.11"/>
</g>
<!-- node0x503000000520 -->
<g id="node29" class="node">
<title>node0x503000000520</title>
<path fill="#00ffdd" stroke="black" d="M1168.5,-410.5C1168.5,-410.5 1289.5,-410.5 1289.5,-410.5 1295.5,-410.5 1301.5,-416.5 1301.5,-422.5 1301.5,-422.5 1301.5,-444.5 1301.5,-444.5 1301.5,-450.5 1295.5,-456.5 1289.5,-456.5 1289.5,-456.5 1168.5,-456.5 1168.5,-456.5 1162.5,-456.5 1156.5,-450.5 1156.5,-444.5 1156.5,-444.5 1156.5,-422.5 1156.5,-422.5 1156.5,-416.5 1162.5,-410.5 1168.5,-410.5"/>
<text text-anchor="middle" x="1229" y="-441.3" font-family="Times,serif" font-size="14.00">type = 2 (OP)</text>
<polyline fill="none" stroke="black" points="1156.5,-433.5 1301.5,-433.5 "/>
<text text-anchor="middle" x="1229" y="-418.3" font-family="Times,serif" font-size="14.00">value = &#39;&#39; = &#39;&#39; (61)</text>
</g>
<!-- node0x503000000550&#45;&gt;node0x503000000520 -->
<g id="edge28" class="edge">
<title>node0x503000000550&#45;&gt;node0x503000000520</title>
<path fill="none" stroke="black" d="M1423.89,-539.38C1383.58,-517.68 1322.05,-484.57 1278.94,-461.37"/>
<polygon fill="black" stroke="black" points="1280.5,-458.24 1270.03,-456.58 1277.18,-464.4 1280.5,-458.24"/>
</g>
<!-- node0x503000000670 -->
<g id="node30" class="node">
<title>node0x503000000670</title>
<path fill="#e0e0e0" stroke="black" d="M1378.5,-410.5C1378.5,-410.5 1551.5,-410.5 1551.5,-410.5 1557.5,-410.5 1563.5,-416.5 1563.5,-422.5 1563.5,-422.5 1563.5,-444.5 1563.5,-444.5 1563.5,-450.5 1557.5,-456.5 1551.5,-456.5 1551.5,-456.5 1378.5,-456.5 1378.5,-456.5 1372.5,-456.5 1366.5,-450.5 1366.5,-444.5 1366.5,-444.5 1366.5,-422.5 1366.5,-422.5 1366.5,-416.5 1372.5,-410.5 1378.5,-410.5"/>
<text text-anchor="middle" x="1465" y="-441.3" font-family="Times,serif" font-size="14.00">type = 2 (OP)</text>
<polyline fill="none" stroke="black" points="1366.5,-433.5 1563.5,-433.5 "/>
<text text-anchor="middle" x="1465" y="-418.3" font-family="Times,serif" font-size="14.00">value = &#39;&#39; SHUTUP &#39;&#39; (59)</text>
</g>
<!-- node0x503000000550&#45;&gt;node0x503000000670 -->
<g id="edge29" class="edge">
<title>node0x503000000550&#45;&gt;node0x503000000670</title>
<path fill="none" stroke="black" d="M1465,-539.38C1465,-519.38 1465,-489.68 1465,-466.98"/>
<polygon fill="black" stroke="black" points="1468.5,-466.79 1465,-456.79 1461.5,-466.79 1468.5,-466.79"/>
</g>
<!-- node0x503000000460 -->
<g id="node31" class="node">
<title>node0x503000000460</title>
<path fill="#ff5050" stroke="black" d="M901.5,-258.5C901.5,-258.5 1114.5,-258.5 1114.5,-258.5 1120.5,-258.5 1126.5,-264.5 1126.5,-270.5 1126.5,-270.5 1126.5,-338.5 1126.5,-338.5 1126.5,-344.5 1120.5,-350.5 1114.5,-350.5 1114.5,-350.5 901.5,-350.5 901.5,-350.5 895.5,-350.5 889.5,-344.5 889.5,-338.5 889.5,-338.5 889.5,-270.5 889.5,-270.5 889.5,-264.5 895.5,-258.5 901.5,-258.5"/>
<text text-anchor="middle" x="1008" y="-335.3" font-family="Times,serif" font-size="14.00">type = 3 (ID)</text>
<polyline fill="none" stroke="black" points="889.5,-327.5 1126.5,-327.5 "/>
<text text-anchor="middle" x="1008" y="-312.3" font-family="Times,serif" font-size="14.00">name = &#39;&#39; result &#39;&#39;</text>
<polyline fill="none" stroke="black" points="889.5,-304.5 1126.5,-304.5 "/>
<text text-anchor="middle" x="1008" y="-289.3" font-family="Times,serif" font-size="14.00">number in name table = &#39;&#39; 23 &#39;&#39;</text>
<polyline fill="none" stroke="black" points="889.5,-281.5 1126.5,-281.5 "/>
<text text-anchor="middle" x="1008" y="-266.3" font-family="Times,serif" font-size="14.00">id_type = LOCL</text>
</g>
<!-- node0x503000000520&#45;&gt;node0x503000000460 -->
<g id="edge30" class="edge">
<title>node0x503000000520&#45;&gt;node0x503000000460</title>
<path fill="none" stroke="black" d="M1190.5,-410.38C1164.28,-395.31 1128.47,-374.73 1095.52,-355.79"/>
<polygon fill="black" stroke="black" points="1097.18,-352.71 1086.76,-350.76 1093.69,-358.78 1097.18,-352.71"/>
</g>
<!-- node0x5030000004f0 -->
<g id="node32" class="node">
<title>node0x5030000004f0</title>
<path fill="#00ffdd" stroke="black" d="M1157,-281.5C1157,-281.5 1301,-281.5 1301,-281.5 1307,-281.5 1313,-287.5 1313,-293.5 1313,-293.5 1313,-315.5 1313,-315.5 1313,-321.5 1307,-327.5 1301,-327.5 1301,-327.5 1157,-327.5 1157,-327.5 1151,-327.5 1145,-321.5 1145,-315.5 1145,-315.5 1145,-293.5 1145,-293.5 1145,-287.5 1151,-281.5 1157,-281.5"/>
<text text-anchor="middle" x="1229" y="-312.3" font-family="Times,serif" font-size="14.00">type = 2 (OP)</text>
<polyline fill="none" stroke="black" points="1145,-304.5 1313,-304.5 "/>
<text text-anchor="middle" x="1229" y="-289.3" font-family="Times,serif" font-size="14.00">value = &#39;&#39; MUL &#39;&#39; (42)</text>
</g>
<!-- node0x503000000520&#45;&gt;node0x5030000004f0 -->
<g id="edge31" class="edge">
<title>node0x503000000520&#45;&gt;node0x5030000004f0</title>
<path fill="none" stroke="black" d="M1229,-410.38C1229,-390.38 1229,-360.68 1229,-337.98"/>
<polygon fill="black" stroke="black" points="1232.5,-337.79 1229,-327.79 1225.5,-337.79 1232.5,-337.79"/>
</g>
<!-- node0x503000000640 -->
<g id="node35" class="node">
<title>node0x503000000640</title>
<path fill="#00ffdd" stroke="black" d="M1423.5,-281.5C1423.5,-281.5 1544.5,-281.5 1544.5,-281.5 1550.5,-281.5 1556.5,-287.5 1556.5,-293.5 1556.5,-293.5 1556.5,-315.5 1556.5,-315.5 1556.5,-321.5 1550.5,-327.5 1544.5,-327.5 1544.5,-327.5 1423.5,-327.5 1423.5,-327.5 1417.5,-327.5 1411.5,-321.5 1411.5,-315.5 1411.5,-315.5 1411.5,-293.5 1411.5,-293.5 1411.5,-287.5 1417.5,-281.5 1423.5,-281.5"/>
<text text-anchor="middle" x="1484" y="-312.3" font-family="Times,serif" font-size="14.00">type = 2 (OP)</text>
<polyline fill="none" stroke="black" points="1411.5,-304.5 1556.5,-304.5 "/>
<text text-anchor="middle" x="1484" y="-289.3" font-family="Times,serif" font-size="14.00">value = &#39;&#39; = &#39;&#39; (61)</text>
</g>
<!-- node0x503000000670&#45;&gt;node0x503000000640 -->
<g id="edge34" class="edge">
<title>node0x503000000670&#45;&gt;node0x503000000640</title>
<path fill="none" stroke="black" d="M1468.31,-410.38C1471.3,-390.38 1475.75,-360.68 1479.14,-337.98"/>
<polygon fill="black" stroke="black" points="1482.65,-338.2 1480.66,-327.79 1475.72,-337.17 1482.65,-338.2"/>
</g>
<!-- node0x503000000490 -->
<g id="node33" class="node">
<title>node0x503000000490</title>
<path fill="#ff5050" stroke="black" d="M867.5,-129.5C867.5,-129.5 1080.5,-129.5 1080.5,-129.5 1086.5,-129.5 1092.5,-135.5 1092.5,-141.5 1092.5,-141.5 1092.5,-209.5 1092.5,-209.5 1092.5,-215.5 1086.5,-221.5 1080.5,-221.5 1080.5,-221.5 867.5,-221.5 867.5,-221.5 861.5,-221.5 855.5,-215.5 855.5,-209.5 855.5,-209.5 855.5,-141.5 855.5,-141.5 855.5,-135.5 861.5,-129.5 867.5,-129.5"/>
<text text-anchor="middle" x="974" y="-206.3" font-family="Times,serif" font-size="14.00">type = 3 (ID)</text>
<polyline fill="none" stroke="black" points="855.5,-198.5 1092.5,-198.5 "/>
<text text-anchor="middle" x="974" y="-183.3" font-family="Times,serif" font-size="14.00">name = &#39;&#39; result &#39;&#39;</text>
<polyline fill="none" stroke="black" points="855.5,-175.5 1092.5,-175.5 "/>
<text text-anchor="middle" x="974" y="-160.3" font-family="Times,serif" font-size="14.00">number in name table = &#39;&#39; 23 &#39;&#39;</text>
<polyline fill="none" stroke="black" points="855.5,-152.5 1092.5,-152.5 "/>
<text text-anchor="middle" x="974" y="-137.3" font-family="Times,serif" font-size="14.00">id_type = LOCL</text>
</g>
<!-- node0x5030000004f0&#45;&gt;node0x503000000490 -->
<g id="edge32" class="edge">
<title>node0x5030000004f0&#45;&gt;node0x503000000490</title>
<path fill="none" stroke="black" d="M1184.58,-281.38C1154,-266.15 1112.12,-245.29 1073.77,-226.19"/>
<polygon fill="black" stroke="black" points="1075.13,-222.96 1064.62,-221.63 1072.01,-229.22 1075.13,-222.96"/>
</g>
<!-- node0x5030000004c0 -->
<g id="node34" class="node">
<title>node0x5030000004c0</title>
<path fill="#ff5050" stroke="black" d="M1122.5,-129.5C1122.5,-129.5 1335.5,-129.5 1335.5,-129.5 1341.5,-129.5 1347.5,-135.5 1347.5,-141.5 1347.5,-141.5 1347.5,-209.5 1347.5,-209.5 1347.5,-215.5 1341.5,-221.5 1335.5,-221.5 1335.5,-221.5 1122.5,-221.5 1122.5,-221.5 1116.5,-221.5 1110.5,-215.5 1110.5,-209.5 1110.5,-209.5 1110.5,-141.5 1110.5,-141.5 1110.5,-135.5 1116.5,-129.5 1122.5,-129.5"/>
<text text-anchor="middle" x="1229" y="-206.3" font-family="Times,serif" font-size="14.00">type = 3 (ID)</text>
<polyline fill="none" stroke="black" points="1110.5,-198.5 1347.5,-198.5 "/>
<text text-anchor="middle" x="1229" y="-183.3" font-family="Times,serif" font-size="14.00">name = &#39;&#39; numb &#39;&#39;</text>
<polyline fill="none" stroke="black" points="1110.5,-175.5 1347.5,-175.5 "/>
<text text-anchor="middle" x="1229" y="-160.3" font-family="Times,serif" font-size="14.00">number in name table = &#39;&#39; 22 &#39;&#39;</text>
<polyline fill="none" stroke="black" points="1110.5,-152.5 1347.5,-152.5 "/>
<text text-anchor="middle" x="1229" y="-137.3" font-family="Times,serif" font-size="14.00">id_type = LOCL</text>
</g>
<!-- node0x5030000004f0&#45;&gt;node0x5030000004c0 -->
<g id="edge33" class="edge">
<title>node0x5030000004f0&#45;&gt;node0x5030000004c0</title>
<path fill="none" stroke="black" d="M1229,-281.38C1229,-267.66 1229,-249.37 1229,-231.91"/>
<polygon fill="black" stroke="black" points="1232.5,-231.76 1229,-221.76 1225.5,-231.76 1232.5,-231.76"/>
</g>
<!-- node0x503000000580 -->
<g id="node36" class="node">
<title>node0x503000000580</title>
<path fill="#ff5050" stroke="black" d="M1377.5,-129.5C1377.5,-129.5 1590.5,-129.5 1590.5,-129.5 1596.5,-129.5 1602.5,-135.5 1602.5,-141.5 1602.5,-141.5 1602.5,-209.5 1602.5,-209.5 1602.5,-215.5 1596.5,-221.5 1590.5,-221.5 1590.5,-221.5 1377.5,-221.5 1377.5,-221.5 1371.5,-221.5 1365.5,-215.5 1365.5,-209.5 1365.5,-209.5 1365.5,-141.5 1365.5,-141.5 1365.5,-135.5 1371.5,-129.5 1377.5,-129.5"/>
<text text-anchor="middle" x="1484" y="-206.3" font-family="Times,serif" font-size="14.00">type = 3 (ID)</text>
<polyline fill="none" stroke="black" points="1365.5,-198.5 1602.5,-198.5 "/>
<text text-anchor="middle" x="1484" y="-183.3" font-family="Times,serif" font-size="14.00">name = &#39;&#39; numb &#39;&#39;</text>
<polyline fill="none" stroke="black" points="1365.5,-175.5 1602.5,-175.5 "/>
<text text-anchor="middle" x="1484" y="-160.3" font-family="Times,serif" font-size="14.00">number in name table = &#39;&#39; 22 &#39;&#39;</text>
<polyline fill="none" stroke="black" points="1365.5,-152.5 1602.5,-152.5 "/>
<text text-anchor="middle" x="1484" y="-137.3" font-family="Times,serif" font-size="14.00">id_type = LOCL</text>
</g>
<!-- node0x503000000640&#45;&gt;node0x503000000580 -->
<g id="edge35" class="edge">
<title>node0x503000000640&#45;&gt;node0x503000000580</title>
<path fill="none" stroke="black" d="M1484,-281.38C1484,-267.66 1484,-249.37 1484,-231.91"/>
<polygon fill="black" stroke="black" points="1487.5,-231.76 1484,-221.76 1480.5,-231.76 1487.5,-231.76"/>
</g>
<!-- node0x503000000610 -->
<g id="node37" class="node">
<title>node0x503000000610</title>
<path fill="#00ffdd" stroke="black" d="M1632.5,-152.5C1632.5,-152.5 1773.5,-152.5 1773.5,-152.5 1779.5,-152.5 1785.5,-158.5 1785.5,-164.5 1785.5,-164.5 1785.5,-186.5 1785.5,-186.5 1785.5,-192.5 1779.5,-198.5 1773.5,-198.5 1773.5,-198.5 1632.5,-198.5 1632.5,-198.5 1626.5,-198.5 1620.5,-192.5 1620.5,-186.5 1620.5,-186.5 1620.5,-164.5 1620.5,-164.5 1620.5,-158.5 1626.5,-152.5 1632.5,-152.5"/>
<text text-anchor="middle" x="1703" y="-183.3" font-family="Times,serif" font-size="14.00">type = 2 (OP)</text>
<polyline fill="none" stroke="black" points="1620.5,-175.5 1785.5,-175.5 "/>
<text text-anchor="middle" x="1703" y="-160.3" font-family="Times,serif" font-size="14.00">value = &#39;&#39; SUB &#39;&#39; (45)</text>
</g>
<!-- node0x503000000640&#45;&gt;node0x503000000610 -->
<g id="edge36" class="edge">
<title>node0x503000000640&#45;&gt;node0x503000000610</title>
<path fill="none" stroke="black" d="M1522.15,-281.38C1559.4,-259.77 1616.18,-226.85 1656.16,-203.66"/>
<polygon fill="black" stroke="black" points="1658.03,-206.63 1664.92,-198.58 1654.52,-200.57 1658.03,-206.63"/>
</g>
<!-- node0x5030000005b0 -->
<g id="node38" class="node">
<title>node0x5030000005b0</title>
<path fill="#ff5050" stroke="black" d="M1495.5,-0.5C1495.5,-0.5 1708.5,-0.5 1708.5,-0.5 1714.5,-0.5 1720.5,-6.5 1720.5,-12.5 1720.5,-12.5 1720.5,-80.5 1720.5,-80.5 1720.5,-86.5 1714.5,-92.5 1708.5,-92.5 1708.5,-92.5 1495.5,-92.5 1495.5,-92.5 1489.5,-92.5 1483.5,-86.5 1483.5,-80.5 1483.5,-80.5 1483.5,-12.5 1483.5,-12.5 1483.5,-6.5 1489.5,-0.5 1495.5,-0.5"/>
<text text-anchor="middle" x="1602" y="-77.3" font-family="Times,serif" font-size="14.00">type = 3 (ID)</text>
<polyline fill="none" stroke="black" points="1483.5,-69.5 1720.5,-69.5 "/>
<text text-anchor="middle" x="1602" y="-54.3" font-family="Times,serif" font-size="14.00">name = &#39;&#39; numb &#39;&#39;</text>
<polyline fill="none" stroke="black" points="1483.5,-46.5 1720.5,-46.5 "/>
<text text-anchor="middle" x="1602" y="-31.3" font-family="Times,serif" font-size="14.00">number in name table = &#39;&#39; 22 &#39;&#39;</text>
<polyline fill="none" stroke="black" points="1483.5,-23.5 1720.5,-23.5 "/>
<text text-anchor="middle" x="1602" y="-8.3" font-family="Times,serif" font-size="14.00">id_type = LOCL</text>
</g>
<!-- node0x503000000610&#45;&gt;node0x5030000005b0 -->
<g id="edge37" class="edge">
<title>node0x503000000610&#45;&gt;node0x5030000005b0</title>
<path fill="none" stroke="black" d="M1685.41,-152.38C1674.09,-138.14 1658.86,-118.99 1644.51,-100.95"/>
<polygon fill="black" stroke="black" points="1646.96,-98.41 1638,-92.76 1641.48,-102.77 1646.96,-98.41"/>
</g>
<!-- node0x5030000005e0 -->
<g id="node39" class="node">
<title>node0x5030000005e0</title>
<path fill="#ffd700" stroke="black" d="M1750.5,-23.5C1750.5,-23.5 1857.5,-23.5 1857.5,-23.5 1863.5,-23.5 1869.5,-29.5 1869.5,-35.5 1869.5,-35.5 1869.5,-57.5 1869.5,-57.5 1869.5,-63.5 1863.5,-69.5 1857.5,-69.5 1857.5,-69.5 1750.5,-69.5 1750.5,-69.5 1744.5,-69.5 1738.5,-63.5 1738.5,-57.5 1738.5,-57.5 1738.5,-35.5 1738.5,-35.5 1738.5,-29.5 1744.5,-23.5 1750.5,-23.5"/>
<text text-anchor="middle" x="1804" y="-54.3" font-family="Times,serif" font-size="14.00">type = 1 (NUM)</text>
<polyline fill="none" stroke="black" points="1738.5,-46.5 1869.5,-46.5 "/>
<text text-anchor="middle" x="1804" y="-31.3" font-family="Times,serif" font-size="14.00">value = &#39;&#39; 1 &#39;&#39;</text>
</g>
<!-- node0x503000000610&#45;&gt;node0x5030000005e0 -->
<g id="edge38" class="edge">
<title>node0x503000000610&#45;&gt;node0x5030000005e0</title>
<path fill="none" stroke="black" d="M1720.59,-152.38C1737,-131.74 1761.62,-100.79 1779.86,-77.85"/>
<polygon fill="black" stroke="black" points="1782.78,-79.8 1786.27,-69.79 1777.31,-75.44 1782.78,-79.8"/>
</g>
<!-- node0x503000000700 -->
<g id="node42" class="node">
<title>node0x503000000700</title>
<path fill="#ff5050" stroke="black" d="M1593.5,-387.5C1593.5,-387.5 1806.5,-387.5 1806.5,-387.5 1812.5,-387.5 1818.5,-393.5 1818.5,-399.5 1818.5,-399.5 1818.5,-467.5 1818.5,-467.5 1818.5,-473.5 1812.5,-479.5 1806.5,-479.5 1806.5,-479.5 1593.5,-479.5 1593.5,-479.5 1587.5,-479.5 1581.5,-473.5 1581.5,-467.5 1581.5,-467.5 1581.5,-399.5 1581.5,-399.5 1581.5,-393.5 1587.5,-387.5 1593.5,-387.5"/>
<text text-anchor="middle" x="1700" y="-464.3" font-family="Times,serif" font-size="14.00">type = 3 (ID)</text>
<polyline fill="none" stroke="black" points="1581.5,-456.5 1818.5,-456.5 "/>
<text text-anchor="middle" x="1700" y="-441.3" font-family="Times,serif" font-size="14.00">name = &#39;&#39; result &#39;&#39;</text>
<polyline fill="none" stroke="black" points="1581.5,-433.5 1818.5,-433.5 "/>
<text text-anchor="middle" x="1700" y="-418.3" font-family="Times,serif" font-size="14.00">number in name table = &#39;&#39; 23 &#39;&#39;</text>
<polyline fill="none" stroke="black" points="1581.5,-410.5 1818.5,-410.5 "/>
<text text-anchor="middle" x="1700" y="-395.3" font-family="Times,serif" font-size="14.00">id_type = LOCL</text>
</g>
<!-- node0x5030000007c0&#45;&gt;node0x503000000700 -->
<g id="edge41" class="edge">
<title>node0x5030000007c0&#45;&gt;node0x503000000700</title>
<path fill="none" stroke="black" d="M1745.42,-539.38C1739.42,-525.53 1731.41,-507.02 1723.78,-489.42"/>
<polygon fill="black" stroke="black" points="1726.79,-487.55 1719.6,-479.76 1720.36,-490.33 1726.79,-487.55"/>
</g>
<!-- node0x503000000790 -->
<g id="node43" class="node">
<title>node0x503000000790</title>
<path fill="#00ffdd" stroke="black" d="M1849,-410.5C1849,-410.5 1993,-410.5 1993,-410.5 1999,-410.5 2005,-416.5 2005,-422.5 2005,-422.5 2005,-444.5 2005,-444.5 2005,-450.5 1999,-456.5 1993,-456.5 1993,-456.5 1849,-456.5 1849,-456.5 1843,-456.5 1837,-450.5 1837,-444.5 1837,-444.5 1837,-422.5 1837,-422.5 1837,-416.5 1843,-410.5 1849,-410.5"/>
<text text-anchor="middle" x="1921" y="-441.3" font-family="Times,serif" font-size="14.00">type = 2 (OP)</text>
<polyline fill="none" stroke="black" points="1837,-433.5 2005,-433.5 "/>
<text text-anchor="middle" x="1921" y="-418.3" font-family="Times,serif" font-size="14.00">value = &#39;&#39; MUL &#39;&#39; (42)</text>
</g>
<!-- node0x5030000007c0&#45;&gt;node0x503000000790 -->
<g id="edge42" class="edge">
<title>node0x5030000007c0&#45;&gt;node0x503000000790</title>
<path fill="none" stroke="black" d="M1783.91,-539.38C1811.68,-518.14 1853.75,-485.95 1883.95,-462.84"/>
<polygon fill="black" stroke="black" points="1886.32,-465.44 1892.14,-456.58 1882.07,-459.88 1886.32,-465.44"/>
</g>
<!-- node0x5030000008b0 -->
<g id="node46" class="node">
<title>node0x5030000008b0</title>
<path fill="#f069f5" stroke="black" d="M2035.5,-410.5C2035.5,-410.5 2182.5,-410.5 2182.5,-410.5 2188.5,-410.5 2194.5,-416.5 2194.5,-422.5 2194.5,-422.5 2194.5,-444.5 2194.5,-444.5 2194.5,-450.5 2188.5,-456.5 2182.5,-456.5 2182.5,-456.5 2035.5,-456.5 2035.5,-456.5 2029.5,-456.5 2023.5,-450.5 2023.5,-444.5 2023.5,-444.5 2023.5,-422.5 2023.5,-422.5 2023.5,-416.5 2029.5,-410.5 2035.5,-410.5"/>
<text text-anchor="middle" x="2109" y="-441.3" font-family="Times,serif" font-size="14.00">type = 4 (FUNC)</text>
<polyline fill="none" stroke="black" points="2023.5,-433.5 2194.5,-433.5 "/>
<text text-anchor="middle" x="2109" y="-418.3" font-family="Times,serif" font-size="14.00">value = &#39;&#39; CALL &#39;&#39; (67)</text>
</g>
<!-- node0x5030000008e0&#45;&gt;node0x5030000008b0 -->
<g id="edge45" class="edge">
<title>node0x5030000008e0&#45;&gt;node0x5030000008b0</title>
<path fill="none" stroke="black" d="M2063.58,-539.38C2072.36,-519.11 2085.45,-488.87 2095.33,-466.06"/>
<polygon fill="black" stroke="black" points="2098.58,-467.36 2099.34,-456.79 2092.16,-464.58 2098.58,-467.36"/>
</g>
<!-- node0x503000000730 -->
<g id="node44" class="node">
<title>node0x503000000730</title>
<path fill="#ff5050" stroke="black" d="M1617.5,-258.5C1617.5,-258.5 1830.5,-258.5 1830.5,-258.5 1836.5,-258.5 1842.5,-264.5 1842.5,-270.5 1842.5,-270.5 1842.5,-338.5 1842.5,-338.5 1842.5,-344.5 1836.5,-350.5 1830.5,-350.5 1830.5,-350.5 1617.5,-350.5 1617.5,-350.5 1611.5,-350.5 1605.5,-344.5 1605.5,-338.5 1605.5,-338.5 1605.5,-270.5 1605.5,-270.5 1605.5,-264.5 1611.5,-258.5 1617.5,-258.5"/>
<text text-anchor="middle" x="1724" y="-335.3" font-family="Times,serif" font-size="14.00">type = 3 (ID)</text>
<polyline fill="none" stroke="black" points="1605.5,-327.5 1842.5,-327.5 "/>
<text text-anchor="middle" x="1724" y="-312.3" font-family="Times,serif" font-size="14.00">name = &#39;&#39; result &#39;&#39;</text>
<polyline fill="none" stroke="black" points="1605.5,-304.5 1842.5,-304.5 "/>
<text text-anchor="middle" x="1724" y="-289.3" font-family="Times,serif" font-size="14.00">number in name table = &#39;&#39; 23 &#39;&#39;</text>
<polyline fill="none" stroke="black" points="1605.5,-281.5 1842.5,-281.5 "/>
<text text-anchor="middle" x="1724" y="-266.3" font-family="Times,serif" font-size="14.00">id_type = LOCL</text>
</g>
<!-- node0x503000000790&#45;&gt;node0x503000000730 -->
<g id="edge43" class="edge">
<title>node0x503000000790&#45;&gt;node0x503000000730</title>
<path fill="none" stroke="black" d="M1886.69,-410.38C1863.51,-395.44 1831.93,-375.08 1802.77,-356.28"/>
<polygon fill="black" stroke="black" points="1804.51,-353.24 1794.21,-350.76 1800.72,-359.12 1804.51,-353.24"/>
</g>
<!-- node0x503000000760 -->
<g id="node45" class="node">
<title>node0x503000000760</title>
<path fill="#ffd700" stroke="black" d="M1872.5,-281.5C1872.5,-281.5 1979.5,-281.5 1979.5,-281.5 1985.5,-281.5 1991.5,-287.5 1991.5,-293.5 1991.5,-293.5 1991.5,-315.5 1991.5,-315.5 1991.5,-321.5 1985.5,-327.5 1979.5,-327.5 1979.5,-327.5 1872.5,-327.5 1872.5,-327.5 1866.5,-327.5 1860.5,-321.5 1860.5,-315.5 1860.5,-315.5 1860.5,-293.5 1860.5,-293.5 1860.5,-287.5 1866.5,-281.5 1872.5,-281.5"/>
<text text-anchor="middle" x="1926" y="-312.3" font-family="Times,serif" font-size="14.00">type = 1 (NUM)</text>
<polyline fill="none" stroke="black" points="1860.5,-304.5 1991.5,-304.5 "/>
<text text-anchor="middle" x="1926" y="-289.3" font-family="Times,serif" font-size="14.00">value = &#39;&#39; 1 &#39;&#39;</text>
</g>
<!-- node0x503000000790&#45;&gt;node0x503000000760 -->
<g id="edge44" class="edge">
<title>node0x503000000790&#45;&gt;node0x503000000760</title>
<path fill="none" stroke="black" d="M1921.87,-410.38C1922.66,-390.38 1923.83,-360.68 1924.72,-337.98"/>
<polygon fill="black" stroke="black" points="1928.23,-337.92 1925.12,-327.79 1921.23,-337.65 1928.23,-337.92"/>
</g>
<!-- node0x503000000820 -->
<g id="node47" class="node">
<title>node0x503000000820</title>
<path fill="#2ee31e" stroke="black" d="M2030.5,-281.5C2030.5,-281.5 2179.5,-281.5 2179.5,-281.5 2185.5,-281.5 2191.5,-287.5 2191.5,-293.5 2191.5,-293.5 2191.5,-315.5 2191.5,-315.5 2191.5,-321.5 2185.5,-327.5 2179.5,-327.5 2179.5,-327.5 2030.5,-327.5 2030.5,-327.5 2024.5,-327.5 2018.5,-321.5 2018.5,-315.5 2018.5,-315.5 2018.5,-293.5 2018.5,-293.5 2018.5,-287.5 2024.5,-281.5 2030.5,-281.5"/>
<text text-anchor="middle" x="2105" y="-312.3" font-family="Times,serif" font-size="14.00">type = 4 (FUNC)</text>
<polyline fill="none" stroke="black" points="2018.5,-304.5 2191.5,-304.5 "/>
<text text-anchor="middle" x="2105" y="-289.3" font-family="Times,serif" font-size="14.00">value = &#39;&#39; printf &#39;&#39; (26)</text>
</g>
<!-- node0x5030000008b0&#45;&gt;node0x503000000820 -->
<g id="edge46" class="edge">
<title>node0x5030000008b0&#45;&gt;node0x503000000820</title>
<path fill="none" stroke="black" d="M2108.3,-410.38C2107.67,-390.38 2106.74,-360.68 2106.02,-337.98"/>
<polygon fill="black" stroke="black" points="2109.52,-337.68 2105.7,-327.79 2102.52,-337.9 2109.52,-337.68"/>
</g>
<!-- node0x503000000880 -->
<g id="node48" class="node">
<title>node0x503000000880</title>
<path fill="#feaadf" stroke="black" d="M2221.5,-281.5C2221.5,-281.5 2334.5,-281.5 2334.5,-281.5 2340.5,-281.5 2346.5,-287.5 2346.5,-293.5 2346.5,-293.5 2346.5,-315.5 2346.5,-315.5 2346.5,-321.5 2340.5,-327.5 2334.5,-327.5 2334.5,-327.5 2221.5,-327.5 2221.5,-327.5 2215.5,-327.5 2209.5,-321.5 2209.5,-315.5 2209.5,-315.5 2209.5,-293.5 2209.5,-293.5 2209.5,-287.5 2215.5,-281.5 2221.5,-281.5"/>
<text text-anchor="middle" x="2278" y="-312.3" font-family="Times,serif" font-size="14.00">type = 4 (FUNC)</text>
<polyline fill="none" stroke="black" points="2209.5,-304.5 2346.5,-304.5 "/>
<text text-anchor="middle" x="2278" y="-289.3" font-family="Times,serif" font-size="14.00">value = &#39;&#39; , &#39;&#39; (44)</text>
</g>
<!-- node0x5030000008b0&#45;&gt;node0x503000000880 -->
<g id="edge47" class="edge">
<title>node0x5030000008b0&#45;&gt;node0x503000000880</title>
<path fill="none" stroke="black" d="M2138.44,-410.38C2166.7,-389.14 2209.53,-356.95 2240.28,-333.84"/>
<polygon fill="black" stroke="black" points="2242.73,-336.39 2248.62,-327.58 2238.52,-330.79 2242.73,-336.39"/>
</g>
<!-- node0x503000000850 -->
<g id="node49" class="node">
<title>node0x503000000850</title>
<path fill="#ff5050" stroke="black" d="M2171.5,-129.5C2171.5,-129.5 2384.5,-129.5 2384.5,-129.5 2390.5,-129.5 2396.5,-135.5 2396.5,-141.5 2396.5,-141.5 2396.5,-209.5 2396.5,-209.5 2396.5,-215.5 2390.5,-221.5 2384.5,-221.5 2384.5,-221.5 2171.5,-221.5 2171.5,-221.5 2165.5,-221.5 2159.5,-215.5 2159.5,-209.5 2159.5,-209.5 2159.5,-141.5 2159.5,-141.5 2159.5,-135.5 2165.5,-129.5 2171.5,-129.5"/>
<text text-anchor="middle" x="2278" y="-206.3" font-family="Times,serif" font-size="14.00">type = 3 (ID)</text>
<polyline fill="none" stroke="black" points="2159.5,-198.5 2396.5,-198.5 "/>
<text text-anchor="middle" x="2278" y="-183.3" font-family="Times,serif" font-size="14.00">name = &#39;&#39; result &#39;&#39;</text>
<polyline fill="none" stroke="black" points="2159.5,-175.5 2396.5,-175.5 "/>
<text text-anchor="middle" x="2278" y="-160.3" font-family="Times,serif" font-size="14.00">number in name table = &#39;&#39; 23 &#39;&#39;</text>
<polyline fill="none" stroke="black" points="2159.5,-152.5 2396.5,-152.5 "/>
<text text-anchor="middle" x="2278" y="-137.3" font-family="Times,serif" font-size="14.00">id_type = LOCL</text>
</g>
<!-- node0x503000000880&#45;&gt;node0x503000000850 -->
<g id="edge48" class="edge">
<title>node0x503000000880&#45;&gt;node0x503000000850</title>
<path fill="none" stroke="black" d="M2278,-281.38C2278,-267.66 2278,-249.37 2278,-231.91"/>
<polygon fill="black" stroke="black" points="2281.5,-231.76 2278,-221.76 2274.5,-231.76 2281.5,-231.76"/>
</g>
</g>
</svg>
