<?xml version="1.0" encoding="UTF-8" standalone="no"?>
<!DOCTYPE svg PUBLIC "-//W3C//DTD SVG 1.1//EN"
 "http://www.w3.org/Graphics/SVG/1.1/DTD/svg11.dtd">
<!-- Generated by graphviz version 2.43.0 (0)
 -->
<!-- Title: %3 Pages: 1 -->
<svg width="400pt" height="184pt"
 viewBox="0.00 0.00 399.50 184.00" xmlns="http://www.w3.org/2000/svg" xmlns:xlink="http://www.w3.org/1999/xlink">
<g id="graph0" class="graph" transform="scale(1 1) rotate(0) translate(4 180)">
<title>%3</title>
<!-- node0x5030000006a0 -->
<g id="node1" class="node">
<title>node0x5030000006a0</title>
<path fill="#00ffdd" stroke="black" d="M146,-129.5C146,-129.5 295,-129.5 295,-129.5 301,-129.5 307,-135.5 307,-141.5 307,-141.5 307,-163.5 307,-163.5 307,-169.5 301,-175.5 295,-175.5 295,-175.5 146,-175.5 146,-175.5 140,-175.5 134,-169.5 134,-163.5 134,-163.5 134,-141.5 134,-141.5 134,-135.5 140,-129.5 146,-129.5"/>
<text text-anchor="middle" x="220.5" y="-160.3" font-family="Times,serif" font-size="14.00">type = 2 (OP)</text>
<polyline fill="none" stroke="black" points="134,-152.5 307,-152.5 "/>
<text text-anchor="middle" x="220.5" y="-137.3" font-family="Times,serif" font-size="14.00">value = &#39;&#39; PLUS &#39;&#39; (43)</text>
</g>
<!-- node0x503000000640 -->
<g id="node2" class="node">
<title>node0x503000000640</title>
<path fill="#ff5050" stroke="black" d="M12,-0.5C12,-0.5 225,-0.5 225,-0.5 231,-0.5 237,-6.5 237,-12.5 237,-12.5 237,-80.5 237,-80.5 237,-86.5 231,-92.5 225,-92.5 225,-92.5 12,-92.5 12,-92.5 6,-92.5 0,-86.5 0,-80.5 0,-80.5 0,-12.5 0,-12.5 0,-6.5 6,-0.5 12,-0.5"/>
<text text-anchor="middle" x="118.5" y="-77.3" font-family="Times,serif" font-size="14.00">type = 3 (ID)</text>
<polyline fill="none" stroke="black" points="0,-69.5 237,-69.5 "/>
<text text-anchor="middle" x="118.5" y="-54.3" font-family="Times,serif" font-size="14.00">name = &#39;&#39; result &#39;&#39;</text>
<polyline fill="none" stroke="black" points="0,-46.5 237,-46.5 "/>
<text text-anchor="middle" x="118.5" y="-31.3" font-family="Times,serif" font-size="14.00">number in name table = &#39;&#39; 23 &#39;&#39;</text>
<polyline fill="none" stroke="black" points="0,-23.5 237,-23.5 "/>
<text text-anchor="middle" x="118.5" y="-8.3" font-family="Times,serif" font-size="14.00">id_type = LOCL</text>
</g>
<!-- node0x5030000006a0&#45;&gt;node0x503000000640 -->
<g id="edge1" class="edge">
<title>node0x5030000006a0&#45;&gt;node0x503000000640</title>
<path fill="none" stroke="black" d="M198.87,-129.44C190.32,-120.72 180.09,-110.3 169.85,-99.86"/>
<polygon fill="black" stroke="black" points="172.28,-97.33 162.78,-92.64 167.28,-102.23 172.28,-97.33"/>
</g>
<!-- node0x503000000670 -->
<g id="node3" class="node">
<title>node0x503000000670</title>
<path fill="#ffd700" stroke="black" d="M267.5,-23.5C267.5,-23.5 379.5,-23.5 379.5,-23.5 385.5,-23.5 391.5,-29.5 391.5,-35.5 391.5,-35.5 391.5,-57.5 391.5,-57.5 391.5,-63.5 385.5,-69.5 379.5,-69.5 379.5,-69.5 267.5,-69.5 267.5,-69.5 261.5,-69.5 255.5,-63.5 255.5,-57.5 255.5,-57.5 255.5,-35.5 255.5,-35.5 255.5,-29.5 261.5,-23.5 267.5,-23.5"/>
<text text-anchor="middle" x="323.5" y="-54.3" font-family="Times,serif" font-size="14.00">type = 1 (NUM)</text>
<polyline fill="none" stroke="black" points="255.5,-46.5 391.5,-46.5 "/>
<text text-anchor="middle" x="323.5" y="-31.3" font-family="Times,serif" font-size="14.00">value = &#39;&#39; 1000 &#39;&#39;</text>
</g>
<!-- node0x5030000006a0&#45;&gt;node0x503000000670 -->
<g id="edge2" class="edge">
<title>node0x5030000006a0&#45;&gt;node0x503000000670</title>
<path fill="none" stroke="black" d="M242.34,-129.44C257.5,-114.14 277.86,-93.58 294.39,-76.89"/>
<polygon fill="black" stroke="black" points="297.14,-79.09 301.69,-69.52 292.16,-74.17 297.14,-79.09"/>
</g>
</g>
</svg>
