<?xml version="1.0" encoding="UTF-8" standalone="no"?>
<!DOCTYPE svg PUBLIC "-//W3C//DTD SVG 1.1//EN"
 "http://www.w3.org/Graphics/SVG/1.1/DTD/svg11.dtd">
<!-- Generated by graphviz version 2.43.0 (0)
 -->
<!-- Title: %3 Pages: 1 -->
<svg width="2064pt" height="1336pt"
 viewBox="0.00 0.00 2063.50 1336.00" xmlns="http://www.w3.org/2000/svg" xmlns:xlink="http://www.w3.org/1999/xlink">
<g id="graph0" class="graph" transform="scale(1 1) rotate(0) translate(4 1332)">
<title>%3</title>
<!-- node0x503000000850 -->
<g id="node1" class="node">
<title>node0x503000000850</title>
<path fill="#a0a0a0" stroke="black" d="M236,-1281.5C236,-1281.5 472,-1281.5 472,-1281.5 478,-1281.5 484,-1287.5 484,-1293.5 484,-1293.5 484,-1315.5 484,-1315.5 484,-1321.5 478,-1327.5 472,-1327.5 472,-1327.5 236,-1327.5 236,-1327.5 230,-1327.5 224,-1321.5 224,-1315.5 224,-1315.5 224,-1293.5 224,-1293.5 224,-1287.5 230,-1281.5 236,-1281.5"/>
<text text-anchor="middle" x="354" y="-1312.3" font-family="Times,serif" font-size="14.00">type = 4 (FUNC)</text>
<polyline fill="none" stroke="black" points="224,-1304.5 484,-1304.5 "/>
<text text-anchor="middle" x="354" y="-1289.3" font-family="Times,serif" font-size="14.00">value = &#39;&#39; NEXT FUNCTION &#39;&#39; (64)</text>
</g>
<!-- node0x503000000820 -->
<g id="node2" class="node">
<title>node0x503000000820</title>
<path fill="#755cf7" stroke="black" d="M254,-1198.5C254,-1198.5 454,-1198.5 454,-1198.5 460,-1198.5 466,-1204.5 466,-1210.5 466,-1210.5 466,-1232.5 466,-1232.5 466,-1238.5 460,-1244.5 454,-1244.5 454,-1244.5 254,-1244.5 254,-1244.5 248,-1244.5 242,-1238.5 242,-1232.5 242,-1232.5 242,-1210.5 242,-1210.5 242,-1204.5 248,-1198.5 254,-1198.5"/>
<text text-anchor="middle" x="354" y="-1229.3" font-family="Times,serif" font-size="14.00">type = 4 (FUNC)</text>
<polyline fill="none" stroke="black" points="242,-1221.5 466,-1221.5 "/>
<text text-anchor="middle" x="354" y="-1206.3" font-family="Times,serif" font-size="14.00">value = &#39;&#39; DEFINITION &#39;&#39; (68)</text>
</g>
<!-- node0x503000000850&#45;&gt;node0x503000000820 -->
<g id="edge1" class="edge">
<title>node0x503000000850&#45;&gt;node0x503000000820</title>
<path fill="none" stroke="black" d="M354,-1281.37C354,-1273.15 354,-1263.66 354,-1254.73"/>
<polygon fill="black" stroke="black" points="357.5,-1254.61 354,-1244.61 350.5,-1254.61 357.5,-1254.61"/>
</g>
<!-- node0x5030000000d0 -->
<g id="node3" class="node">
<title>node0x5030000000d0</title>
<path fill="#f069f5" stroke="black" d="M179.5,-1115.5C179.5,-1115.5 326.5,-1115.5 326.5,-1115.5 332.5,-1115.5 338.5,-1121.5 338.5,-1127.5 338.5,-1127.5 338.5,-1149.5 338.5,-1149.5 338.5,-1155.5 332.5,-1161.5 326.5,-1161.5 326.5,-1161.5 179.5,-1161.5 179.5,-1161.5 173.5,-1161.5 167.5,-1155.5 167.5,-1149.5 167.5,-1149.5 167.5,-1127.5 167.5,-1127.5 167.5,-1121.5 173.5,-1115.5 179.5,-1115.5"/>
<text text-anchor="middle" x="253" y="-1146.3" font-family="Times,serif" font-size="14.00">type = 4 (FUNC)</text>
<polyline fill="none" stroke="black" points="167.5,-1138.5 338.5,-1138.5 "/>
<text text-anchor="middle" x="253" y="-1123.3" font-family="Times,serif" font-size="14.00">value = &#39;&#39; CALL &#39;&#39; (67)</text>
</g>
<!-- node0x503000000820&#45;&gt;node0x5030000000d0 -->
<g id="edge2" class="edge">
<title>node0x503000000820&#45;&gt;node0x5030000000d0</title>
<path fill="none" stroke="black" d="M326.4,-1198.37C314.71,-1188.99 300.94,-1177.95 288.51,-1167.98"/>
<polygon fill="black" stroke="black" points="290.56,-1165.13 280.57,-1161.61 286.18,-1170.59 290.56,-1165.13"/>
</g>
<!-- node0x503000000190 -->
<g id="node4" class="node">
<title>node0x503000000190</title>
<path fill="#e0e0e0" stroke="black" d="M394.5,-1115.5C394.5,-1115.5 567.5,-1115.5 567.5,-1115.5 573.5,-1115.5 579.5,-1121.5 579.5,-1127.5 579.5,-1127.5 579.5,-1149.5 579.5,-1149.5 579.5,-1155.5 573.5,-1161.5 567.5,-1161.5 567.5,-1161.5 394.5,-1161.5 394.5,-1161.5 388.5,-1161.5 382.5,-1155.5 382.5,-1149.5 382.5,-1149.5 382.5,-1127.5 382.5,-1127.5 382.5,-1121.5 388.5,-1115.5 394.5,-1115.5"/>
<text text-anchor="middle" x="481" y="-1146.3" font-family="Times,serif" font-size="14.00">type = 2 (OP)</text>
<polyline fill="none" stroke="black" points="382.5,-1138.5 579.5,-1138.5 "/>
<text text-anchor="middle" x="481" y="-1123.3" font-family="Times,serif" font-size="14.00">value = &#39;&#39; SHUTUP &#39;&#39; (59)</text>
</g>
<!-- node0x503000000820&#45;&gt;node0x503000000190 -->
<g id="edge3" class="edge">
<title>node0x503000000820&#45;&gt;node0x503000000190</title>
<path fill="none" stroke="black" d="M388.7,-1198.37C403.82,-1188.72 421.71,-1177.32 437.69,-1167.13"/>
<polygon fill="black" stroke="black" points="439.79,-1169.94 446.34,-1161.61 436.03,-1164.03 439.79,-1169.94"/>
</g>
<!-- node0x503000000040 -->
<g id="node5" class="node">
<title>node0x503000000040</title>
<path fill="#2ee31e" stroke="black" d="M12,-1032.5C12,-1032.5 154,-1032.5 154,-1032.5 160,-1032.5 166,-1038.5 166,-1044.5 166,-1044.5 166,-1066.5 166,-1066.5 166,-1072.5 160,-1078.5 154,-1078.5 154,-1078.5 12,-1078.5 12,-1078.5 6,-1078.5 0,-1072.5 0,-1066.5 0,-1066.5 0,-1044.5 0,-1044.5 0,-1038.5 6,-1032.5 12,-1032.5"/>
<text text-anchor="middle" x="83" y="-1063.3" font-family="Times,serif" font-size="14.00">type = 4 (FUNC)</text>
<polyline fill="none" stroke="black" points="0,-1055.5 166,-1055.5 "/>
<text text-anchor="middle" x="83" y="-1040.3" font-family="Times,serif" font-size="14.00">value = &#39;&#39; carti &#39;&#39; (20)</text>
</g>
<!-- node0x5030000000d0&#45;&gt;node0x503000000040 -->
<g id="edge4" class="edge">
<title>node0x5030000000d0&#45;&gt;node0x503000000040</title>
<path fill="none" stroke="black" d="M206.55,-1115.37C185.56,-1105.37 160.59,-1093.47 138.61,-1083"/>
<polygon fill="black" stroke="black" points="139.93,-1079.75 129.4,-1078.61 136.92,-1086.07 139.93,-1079.75"/>
</g>
<!-- node0x5030000000a0 -->
<g id="node6" class="node">
<title>node0x5030000000a0</title>
<path fill="#feaadf" stroke="black" d="M196.5,-1032.5C196.5,-1032.5 309.5,-1032.5 309.5,-1032.5 315.5,-1032.5 321.5,-1038.5 321.5,-1044.5 321.5,-1044.5 321.5,-1066.5 321.5,-1066.5 321.5,-1072.5 315.5,-1078.5 309.5,-1078.5 309.5,-1078.5 196.5,-1078.5 196.5,-1078.5 190.5,-1078.5 184.5,-1072.5 184.5,-1066.5 184.5,-1066.5 184.5,-1044.5 184.5,-1044.5 184.5,-1038.5 190.5,-1032.5 196.5,-1032.5"/>
<text text-anchor="middle" x="253" y="-1063.3" font-family="Times,serif" font-size="14.00">type = 4 (FUNC)</text>
<polyline fill="none" stroke="black" points="184.5,-1055.5 321.5,-1055.5 "/>
<text text-anchor="middle" x="253" y="-1040.3" font-family="Times,serif" font-size="14.00">value = &#39;&#39; , &#39;&#39; (44)</text>
</g>
<!-- node0x5030000000d0&#45;&gt;node0x5030000000a0 -->
<g id="edge5" class="edge">
<title>node0x5030000000d0&#45;&gt;node0x5030000000a0</title>
<path fill="none" stroke="black" d="M253,-1115.37C253,-1107.15 253,-1097.66 253,-1088.73"/>
<polygon fill="black" stroke="black" points="256.5,-1088.61 253,-1078.61 249.5,-1088.61 256.5,-1088.61"/>
</g>
<!-- node0x503000000160 -->
<g id="node8" class="node">
<title>node0x503000000160</title>
<path fill="#00ffdd" stroke="black" d="M420.5,-1032.5C420.5,-1032.5 541.5,-1032.5 541.5,-1032.5 547.5,-1032.5 553.5,-1038.5 553.5,-1044.5 553.5,-1044.5 553.5,-1066.5 553.5,-1066.5 553.5,-1072.5 547.5,-1078.5 541.5,-1078.5 541.5,-1078.5 420.5,-1078.5 420.5,-1078.5 414.5,-1078.5 408.5,-1072.5 408.5,-1066.5 408.5,-1066.5 408.5,-1044.5 408.5,-1044.5 408.5,-1038.5 414.5,-1032.5 420.5,-1032.5"/>
<text text-anchor="middle" x="481" y="-1063.3" font-family="Times,serif" font-size="14.00">type = 2 (OP)</text>
<polyline fill="none" stroke="black" points="408.5,-1055.5 553.5,-1055.5 "/>
<text text-anchor="middle" x="481" y="-1040.3" font-family="Times,serif" font-size="14.00">value = &#39;&#39; = &#39;&#39; (61)</text>
</g>
<!-- node0x503000000190&#45;&gt;node0x503000000160 -->
<g id="edge7" class="edge">
<title>node0x503000000190&#45;&gt;node0x503000000160</title>
<path fill="none" stroke="black" d="M481,-1115.37C481,-1107.15 481,-1097.66 481,-1088.73"/>
<polygon fill="black" stroke="black" points="484.5,-1088.61 481,-1078.61 477.5,-1088.61 484.5,-1088.61"/>
</g>
<!-- node0x503000000250 -->
<g id="node9" class="node">
<title>node0x503000000250</title>
<path fill="#e0e0e0" stroke="black" d="M668.5,-1032.5C668.5,-1032.5 841.5,-1032.5 841.5,-1032.5 847.5,-1032.5 853.5,-1038.5 853.5,-1044.5 853.5,-1044.5 853.5,-1066.5 853.5,-1066.5 853.5,-1072.5 847.5,-1078.5 841.5,-1078.5 841.5,-1078.5 668.5,-1078.5 668.5,-1078.5 662.5,-1078.5 656.5,-1072.5 656.5,-1066.5 656.5,-1066.5 656.5,-1044.5 656.5,-1044.5 656.5,-1038.5 662.5,-1032.5 668.5,-1032.5"/>
<text text-anchor="middle" x="755" y="-1063.3" font-family="Times,serif" font-size="14.00">type = 2 (OP)</text>
<polyline fill="none" stroke="black" points="656.5,-1055.5 853.5,-1055.5 "/>
<text text-anchor="middle" x="755" y="-1040.3" font-family="Times,serif" font-size="14.00">value = &#39;&#39; SHUTUP &#39;&#39; (59)</text>
</g>
<!-- node0x503000000190&#45;&gt;node0x503000000250 -->
<g id="edge8" class="edge">
<title>node0x503000000190&#45;&gt;node0x503000000250</title>
<path fill="none" stroke="black" d="M555.51,-1115.47C591.15,-1104.94 633.97,-1092.28 670.79,-1081.39"/>
<polygon fill="black" stroke="black" points="671.91,-1084.71 680.51,-1078.52 669.92,-1078 671.91,-1084.71"/>
</g>
<!-- node0x503000000070 -->
<g id="node7" class="node">
<title>node0x503000000070</title>
<path fill="#ff5050" stroke="black" d="M35.5,-903.5C35.5,-903.5 248.5,-903.5 248.5,-903.5 254.5,-903.5 260.5,-909.5 260.5,-915.5 260.5,-915.5 260.5,-983.5 260.5,-983.5 260.5,-989.5 254.5,-995.5 248.5,-995.5 248.5,-995.5 35.5,-995.5 35.5,-995.5 29.5,-995.5 23.5,-989.5 23.5,-983.5 23.5,-983.5 23.5,-915.5 23.5,-915.5 23.5,-909.5 29.5,-903.5 35.5,-903.5"/>
<text text-anchor="middle" x="142" y="-980.3" font-family="Times,serif" font-size="14.00">type = 3 (ID)</text>
<polyline fill="none" stroke="black" points="23.5,-972.5 260.5,-972.5 "/>
<text text-anchor="middle" x="142" y="-957.3" font-family="Times,serif" font-size="14.00">name = &#39;&#39; argc &#39;&#39;</text>
<polyline fill="none" stroke="black" points="23.5,-949.5 260.5,-949.5 "/>
<text text-anchor="middle" x="142" y="-934.3" font-family="Times,serif" font-size="14.00">number in name table = &#39;&#39; 21 &#39;&#39;</text>
<polyline fill="none" stroke="black" points="23.5,-926.5 260.5,-926.5 "/>
<text text-anchor="middle" x="142" y="-911.3" font-family="Times,serif" font-size="14.00">id_type = PARM</text>
</g>
<!-- node0x5030000000a0&#45;&gt;node0x503000000070 -->
<g id="edge6" class="edge">
<title>node0x5030000000a0&#45;&gt;node0x503000000070</title>
<path fill="none" stroke="black" d="M229.46,-1032.44C220.06,-1023.64 208.81,-1013.1 197.56,-1002.55"/>
<polygon fill="black" stroke="black" points="199.87,-999.93 190.18,-995.64 195.09,-1005.03 199.87,-999.93"/>
</g>
<!-- node0x503000000100 -->
<g id="node10" class="node">
<title>node0x503000000100</title>
<path fill="#ff5050" stroke="black" d="M290.5,-903.5C290.5,-903.5 503.5,-903.5 503.5,-903.5 509.5,-903.5 515.5,-909.5 515.5,-915.5 515.5,-915.5 515.5,-983.5 515.5,-983.5 515.5,-989.5 509.5,-995.5 503.5,-995.5 503.5,-995.5 290.5,-995.5 290.5,-995.5 284.5,-995.5 278.5,-989.5 278.5,-983.5 278.5,-983.5 278.5,-915.5 278.5,-915.5 278.5,-909.5 284.5,-903.5 290.5,-903.5"/>
<text text-anchor="middle" x="397" y="-980.3" font-family="Times,serif" font-size="14.00">type = 3 (ID)</text>
<polyline fill="none" stroke="black" points="278.5,-972.5 515.5,-972.5 "/>
<text text-anchor="middle" x="397" y="-957.3" font-family="Times,serif" font-size="14.00">name = &#39;&#39; numb &#39;&#39;</text>
<polyline fill="none" stroke="black" points="278.5,-949.5 515.5,-949.5 "/>
<text text-anchor="middle" x="397" y="-934.3" font-family="Times,serif" font-size="14.00">number in name table = &#39;&#39; 22 &#39;&#39;</text>
<polyline fill="none" stroke="black" points="278.5,-926.5 515.5,-926.5 "/>
<text text-anchor="middle" x="397" y="-911.3" font-family="Times,serif" font-size="14.00">id_type = LOCL</text>
</g>
<!-- node0x503000000160&#45;&gt;node0x503000000100 -->
<g id="edge9" class="edge">
<title>node0x503000000160&#45;&gt;node0x503000000100</title>
<path fill="none" stroke="black" d="M463.19,-1032.44C456.28,-1023.89 448.05,-1013.7 439.77,-1003.46"/>
<polygon fill="black" stroke="black" points="442.47,-1001.22 433.46,-995.64 437.02,-1005.62 442.47,-1001.22"/>
</g>
<!-- node0x503000000130 -->
<g id="node11" class="node">
<title>node0x503000000130</title>
<path fill="#ffd700" stroke="black" d="M545.5,-926.5C545.5,-926.5 652.5,-926.5 652.5,-926.5 658.5,-926.5 664.5,-932.5 664.5,-938.5 664.5,-938.5 664.5,-960.5 664.5,-960.5 664.5,-966.5 658.5,-972.5 652.5,-972.5 652.5,-972.5 545.5,-972.5 545.5,-972.5 539.5,-972.5 533.5,-966.5 533.5,-960.5 533.5,-960.5 533.5,-938.5 533.5,-938.5 533.5,-932.5 539.5,-926.5 545.5,-926.5"/>
<text text-anchor="middle" x="599" y="-957.3" font-family="Times,serif" font-size="14.00">type = 1 (NUM)</text>
<polyline fill="none" stroke="black" points="533.5,-949.5 664.5,-949.5 "/>
<text text-anchor="middle" x="599" y="-934.3" font-family="Times,serif" font-size="14.00">value = &#39;&#39; 5 &#39;&#39;</text>
</g>
<!-- node0x503000000160&#45;&gt;node0x503000000130 -->
<g id="edge10" class="edge">
<title>node0x503000000160&#45;&gt;node0x503000000130</title>
<path fill="none" stroke="black" d="M506.02,-1032.44C523.62,-1016.93 547.34,-996.03 566.42,-979.22"/>
<polygon fill="black" stroke="black" points="568.82,-981.76 574.01,-972.52 564.19,-976.51 568.82,-981.76"/>
</g>
<!-- node0x503000000220 -->
<g id="node12" class="node">
<title>node0x503000000220</title>
<path fill="#00ffdd" stroke="black" d="M694.5,-926.5C694.5,-926.5 815.5,-926.5 815.5,-926.5 821.5,-926.5 827.5,-932.5 827.5,-938.5 827.5,-938.5 827.5,-960.5 827.5,-960.5 827.5,-966.5 821.5,-972.5 815.5,-972.5 815.5,-972.5 694.5,-972.5 694.5,-972.5 688.5,-972.5 682.5,-966.5 682.5,-960.5 682.5,-960.5 682.5,-938.5 682.5,-938.5 682.5,-932.5 688.5,-926.5 694.5,-926.5"/>
<text text-anchor="middle" x="755" y="-957.3" font-family="Times,serif" font-size="14.00">type = 2 (OP)</text>
<polyline fill="none" stroke="black" points="682.5,-949.5 827.5,-949.5 "/>
<text text-anchor="middle" x="755" y="-934.3" font-family="Times,serif" font-size="14.00">value = &#39;&#39; = &#39;&#39; (61)</text>
</g>
<!-- node0x503000000250&#45;&gt;node0x503000000220 -->
<g id="edge11" class="edge">
<title>node0x503000000250&#45;&gt;node0x503000000220</title>
<path fill="none" stroke="black" d="M755,-1032.44C755,-1017.97 755,-998.79 755,-982.63"/>
<polygon fill="black" stroke="black" points="758.5,-982.52 755,-972.52 751.5,-982.52 758.5,-982.52"/>
</g>
<!-- node0x503000000310 -->
<g id="node13" class="node">
<title>node0x503000000310</title>
<path fill="#e0e0e0" stroke="black" d="M857.5,-926.5C857.5,-926.5 1030.5,-926.5 1030.5,-926.5 1036.5,-926.5 1042.5,-932.5 1042.5,-938.5 1042.5,-938.5 1042.5,-960.5 1042.5,-960.5 1042.5,-966.5 1036.5,-972.5 1030.5,-972.5 1030.5,-972.5 857.5,-972.5 857.5,-972.5 851.5,-972.5 845.5,-966.5 845.5,-960.5 845.5,-960.5 845.5,-938.5 845.5,-938.5 845.5,-932.5 851.5,-926.5 857.5,-926.5"/>
<text text-anchor="middle" x="944" y="-957.3" font-family="Times,serif" font-size="14.00">type = 2 (OP)</text>
<polyline fill="none" stroke="black" points="845.5,-949.5 1042.5,-949.5 "/>
<text text-anchor="middle" x="944" y="-934.3" font-family="Times,serif" font-size="14.00">value = &#39;&#39; SHUTUP &#39;&#39; (59)</text>
</g>
<!-- node0x503000000250&#45;&gt;node0x503000000310 -->
<g id="edge12" class="edge">
<title>node0x503000000250&#45;&gt;node0x503000000310</title>
<path fill="none" stroke="black" d="M795.08,-1032.44C824.27,-1016.38 863.98,-994.53 895.05,-977.44"/>
<polygon fill="black" stroke="black" points="896.9,-980.41 903.98,-972.52 893.53,-974.28 896.9,-980.41"/>
</g>
<!-- node0x5030000001c0 -->
<g id="node14" class="node">
<title>node0x5030000001c0</title>
<path fill="#ff5050" stroke="black" d="M455.5,-774.5C455.5,-774.5 668.5,-774.5 668.5,-774.5 674.5,-774.5 680.5,-780.5 680.5,-786.5 680.5,-786.5 680.5,-854.5 680.5,-854.5 680.5,-860.5 674.5,-866.5 668.5,-866.5 668.5,-866.5 455.5,-866.5 455.5,-866.5 449.5,-866.5 443.5,-860.5 443.5,-854.5 443.5,-854.5 443.5,-786.5 443.5,-786.5 443.5,-780.5 449.5,-774.5 455.5,-774.5"/>
<text text-anchor="middle" x="562" y="-851.3" font-family="Times,serif" font-size="14.00">type = 3 (ID)</text>
<polyline fill="none" stroke="black" points="443.5,-843.5 680.5,-843.5 "/>
<text text-anchor="middle" x="562" y="-828.3" font-family="Times,serif" font-size="14.00">name = &#39;&#39; result &#39;&#39;</text>
<polyline fill="none" stroke="black" points="443.5,-820.5 680.5,-820.5 "/>
<text text-anchor="middle" x="562" y="-805.3" font-family="Times,serif" font-size="14.00">number in name table = &#39;&#39; 23 &#39;&#39;</text>
<polyline fill="none" stroke="black" points="443.5,-797.5 680.5,-797.5 "/>
<text text-anchor="middle" x="562" y="-782.3" font-family="Times,serif" font-size="14.00">id_type = LOCL</text>
</g>
<!-- node0x503000000220&#45;&gt;node0x5030000001c0 -->
<g id="edge13" class="edge">
<title>node0x503000000220&#45;&gt;node0x5030000001c0</title>
<path fill="none" stroke="black" d="M721.38,-926.38C698.68,-911.44 667.74,-891.08 639.17,-872.28"/>
<polygon fill="black" stroke="black" points="641.06,-869.33 630.78,-866.76 637.21,-875.18 641.06,-869.33"/>
</g>
<!-- node0x5030000001f0 -->
<g id="node15" class="node">
<title>node0x5030000001f0</title>
<path fill="#ffd700" stroke="black" d="M710.5,-797.5C710.5,-797.5 817.5,-797.5 817.5,-797.5 823.5,-797.5 829.5,-803.5 829.5,-809.5 829.5,-809.5 829.5,-831.5 829.5,-831.5 829.5,-837.5 823.5,-843.5 817.5,-843.5 817.5,-843.5 710.5,-843.5 710.5,-843.5 704.5,-843.5 698.5,-837.5 698.5,-831.5 698.5,-831.5 698.5,-809.5 698.5,-809.5 698.5,-803.5 704.5,-797.5 710.5,-797.5"/>
<text text-anchor="middle" x="764" y="-828.3" font-family="Times,serif" font-size="14.00">type = 1 (NUM)</text>
<polyline fill="none" stroke="black" points="698.5,-820.5 829.5,-820.5 "/>
<text text-anchor="middle" x="764" y="-805.3" font-family="Times,serif" font-size="14.00">value = &#39;&#39; 1 &#39;&#39;</text>
</g>
<!-- node0x503000000220&#45;&gt;node0x5030000001f0 -->
<g id="edge14" class="edge">
<title>node0x503000000220&#45;&gt;node0x5030000001f0</title>
<path fill="none" stroke="black" d="M756.57,-926.38C757.99,-906.38 760.09,-876.68 761.7,-853.98"/>
<polygon fill="black" stroke="black" points="765.2,-854.02 762.42,-843.79 758.22,-853.52 765.2,-854.02"/>
</g>
<!-- node0x5030000002e0 -->
<g id="node16" class="node">
<title>node0x5030000002e0</title>
<path fill="#00ffdd" stroke="black" d="M875.5,-797.5C875.5,-797.5 996.5,-797.5 996.5,-797.5 1002.5,-797.5 1008.5,-803.5 1008.5,-809.5 1008.5,-809.5 1008.5,-831.5 1008.5,-831.5 1008.5,-837.5 1002.5,-843.5 996.5,-843.5 996.5,-843.5 875.5,-843.5 875.5,-843.5 869.5,-843.5 863.5,-837.5 863.5,-831.5 863.5,-831.5 863.5,-809.5 863.5,-809.5 863.5,-803.5 869.5,-797.5 875.5,-797.5"/>
<text text-anchor="middle" x="936" y="-828.3" font-family="Times,serif" font-size="14.00">type = 2 (OP)</text>
<polyline fill="none" stroke="black" points="863.5,-820.5 1008.5,-820.5 "/>
<text text-anchor="middle" x="936" y="-805.3" font-family="Times,serif" font-size="14.00">value = &#39;&#39; = &#39;&#39; (61)</text>
</g>
<!-- node0x503000000310&#45;&gt;node0x5030000002e0 -->
<g id="edge15" class="edge">
<title>node0x503000000310&#45;&gt;node0x5030000002e0</title>
<path fill="none" stroke="black" d="M942.61,-926.38C941.35,-906.38 939.48,-876.68 938.05,-853.98"/>
<polygon fill="black" stroke="black" points="941.53,-853.55 937.4,-843.79 934.54,-853.99 941.53,-853.55"/>
</g>
<!-- node0x5030000005e0 -->
<g id="node17" class="node">
<title>node0x5030000005e0</title>
<path fill="#e0e0e0" stroke="black" d="M1038.5,-797.5C1038.5,-797.5 1211.5,-797.5 1211.5,-797.5 1217.5,-797.5 1223.5,-803.5 1223.5,-809.5 1223.5,-809.5 1223.5,-831.5 1223.5,-831.5 1223.5,-837.5 1217.5,-843.5 1211.5,-843.5 1211.5,-843.5 1038.5,-843.5 1038.5,-843.5 1032.5,-843.5 1026.5,-837.5 1026.5,-831.5 1026.5,-831.5 1026.5,-809.5 1026.5,-809.5 1026.5,-803.5 1032.5,-797.5 1038.5,-797.5"/>
<text text-anchor="middle" x="1125" y="-828.3" font-family="Times,serif" font-size="14.00">type = 2 (OP)</text>
<polyline fill="none" stroke="black" points="1026.5,-820.5 1223.5,-820.5 "/>
<text text-anchor="middle" x="1125" y="-805.3" font-family="Times,serif" font-size="14.00">value = &#39;&#39; SHUTUP &#39;&#39; (59)</text>
</g>
<!-- node0x503000000310&#45;&gt;node0x5030000005e0 -->
<g id="edge16" class="edge">
<title>node0x503000000310&#45;&gt;node0x5030000005e0</title>
<path fill="none" stroke="black" d="M975.53,-926.38C1005.93,-905.05 1052.06,-872.68 1085.03,-849.55"/>
<polygon fill="black" stroke="black" points="1087.35,-852.19 1093.53,-843.58 1083.33,-846.46 1087.35,-852.19"/>
</g>
<!-- node0x503000000280 -->
<g id="node18" class="node">
<title>node0x503000000280</title>
<path fill="#ff5050" stroke="black" d="M629.5,-645.5C629.5,-645.5 842.5,-645.5 842.5,-645.5 848.5,-645.5 854.5,-651.5 854.5,-657.5 854.5,-657.5 854.5,-725.5 854.5,-725.5 854.5,-731.5 848.5,-737.5 842.5,-737.5 842.5,-737.5 629.5,-737.5 629.5,-737.5 623.5,-737.5 617.5,-731.5 617.5,-725.5 617.5,-725.5 617.5,-657.5 617.5,-657.5 617.5,-651.5 623.5,-645.5 629.5,-645.5"/>
<text text-anchor="middle" x="736" y="-722.3" font-family="Times,serif" font-size="14.00">type = 3 (ID)</text>
<polyline fill="none" stroke="black" points="617.5,-714.5 854.5,-714.5 "/>
<text text-anchor="middle" x="736" y="-699.3" font-family="Times,serif" font-size="14.00">name = &#39;&#39; old &#39;&#39;</text>
<polyline fill="none" stroke="black" points="617.5,-691.5 854.5,-691.5 "/>
<text text-anchor="middle" x="736" y="-676.3" font-family="Times,serif" font-size="14.00">number in name table = &#39;&#39; 24 &#39;&#39;</text>
<polyline fill="none" stroke="black" points="617.5,-668.5 854.5,-668.5 "/>
<text text-anchor="middle" x="736" y="-653.3" font-family="Times,serif" font-size="14.00">id_type = LOCL</text>
</g>
<!-- node0x5030000002e0&#45;&gt;node0x503000000280 -->
<g id="edge17" class="edge">
<title>node0x5030000002e0&#45;&gt;node0x503000000280</title>
<path fill="none" stroke="black" d="M901.16,-797.38C877.63,-782.44 845.58,-762.08 815.97,-743.28"/>
<polygon fill="black" stroke="black" points="817.6,-740.17 807.28,-737.76 813.84,-746.08 817.6,-740.17"/>
</g>
<!-- node0x5030000002b0 -->
<g id="node19" class="node">
<title>node0x5030000002b0</title>
<path fill="#ffd700" stroke="black" d="M884.5,-668.5C884.5,-668.5 991.5,-668.5 991.5,-668.5 997.5,-668.5 1003.5,-674.5 1003.5,-680.5 1003.5,-680.5 1003.5,-702.5 1003.5,-702.5 1003.5,-708.5 997.5,-714.5 991.5,-714.5 991.5,-714.5 884.5,-714.5 884.5,-714.5 878.5,-714.5 872.5,-708.5 872.5,-702.5 872.5,-702.5 872.5,-680.5 872.5,-680.5 872.5,-674.5 878.5,-668.5 884.5,-668.5"/>
<text text-anchor="middle" x="938" y="-699.3" font-family="Times,serif" font-size="14.00">type = 1 (NUM)</text>
<polyline fill="none" stroke="black" points="872.5,-691.5 1003.5,-691.5 "/>
<text text-anchor="middle" x="938" y="-676.3" font-family="Times,serif" font-size="14.00">value = &#39;&#39; 1 &#39;&#39;</text>
</g>
<!-- node0x5030000002e0&#45;&gt;node0x5030000002b0 -->
<g id="edge18" class="edge">
<title>node0x5030000002e0&#45;&gt;node0x5030000002b0</title>
<path fill="none" stroke="black" d="M936.35,-797.38C936.66,-777.38 937.13,-747.68 937.49,-724.98"/>
<polygon fill="black" stroke="black" points="940.99,-724.85 937.65,-714.79 933.99,-724.74 940.99,-724.85"/>
</g>
<!-- node0x5030000005b0 -->
<g id="node20" class="node">
<title>node0x5030000005b0</title>
<path fill="#df73df" stroke="black" d="M1036.5,-668.5C1036.5,-668.5 1211.5,-668.5 1211.5,-668.5 1217.5,-668.5 1223.5,-674.5 1223.5,-680.5 1223.5,-680.5 1223.5,-702.5 1223.5,-702.5 1223.5,-708.5 1217.5,-714.5 1211.5,-714.5 1211.5,-714.5 1036.5,-714.5 1036.5,-714.5 1030.5,-714.5 1024.5,-708.5 1024.5,-702.5 1024.5,-702.5 1024.5,-680.5 1024.5,-680.5 1024.5,-674.5 1030.5,-668.5 1036.5,-668.5"/>
<text text-anchor="middle" x="1124" y="-699.3" font-family="Times,serif" font-size="14.00">type = 2 (OP)</text>
<polyline fill="none" stroke="black" points="1024.5,-691.5 1223.5,-691.5 "/>
<text text-anchor="middle" x="1124" y="-676.3" font-family="Times,serif" font-size="14.00">value = &#39;&#39; MONEY &#39;&#39; (119)</text>
</g>
<!-- node0x5030000005e0&#45;&gt;node0x5030000005b0 -->
<g id="edge19" class="edge">
<title>node0x5030000005e0&#45;&gt;node0x5030000005b0</title>
<path fill="none" stroke="black" d="M1124.83,-797.38C1124.67,-777.38 1124.43,-747.68 1124.26,-724.98"/>
<polygon fill="black" stroke="black" points="1127.75,-724.77 1124.18,-714.79 1120.75,-724.82 1127.75,-724.77"/>
</g>
<!-- node0x503000000700 -->
<g id="node21" class="node">
<title>node0x503000000700</title>
<path fill="#e0e0e0" stroke="black" d="M1327.5,-668.5C1327.5,-668.5 1500.5,-668.5 1500.5,-668.5 1506.5,-668.5 1512.5,-674.5 1512.5,-680.5 1512.5,-680.5 1512.5,-702.5 1512.5,-702.5 1512.5,-708.5 1506.5,-714.5 1500.5,-714.5 1500.5,-714.5 1327.5,-714.5 1327.5,-714.5 1321.5,-714.5 1315.5,-708.5 1315.5,-702.5 1315.5,-702.5 1315.5,-680.5 1315.5,-680.5 1315.5,-674.5 1321.5,-668.5 1327.5,-668.5"/>
<text text-anchor="middle" x="1414" y="-699.3" font-family="Times,serif" font-size="14.00">type = 2 (OP)</text>
<polyline fill="none" stroke="black" points="1315.5,-691.5 1512.5,-691.5 "/>
<text text-anchor="middle" x="1414" y="-676.3" font-family="Times,serif" font-size="14.00">value = &#39;&#39; SHUTUP &#39;&#39; (59)</text>
</g>
<!-- node0x5030000005e0&#45;&gt;node0x503000000700 -->
<g id="edge20" class="edge">
<title>node0x5030000005e0&#45;&gt;node0x503000000700</title>
<path fill="none" stroke="black" d="M1175.34,-797.38C1225.23,-775.46 1301.63,-741.88 1354.5,-718.65"/>
<polygon fill="black" stroke="black" points="1356.01,-721.81 1363.75,-714.58 1353.19,-715.4 1356.01,-721.81"/>
</g>
<!-- node0x503000000340 -->
<g id="node22" class="node">
<title>node0x503000000340</title>
<path fill="#ff5050" stroke="black" d="M782.5,-516.5C782.5,-516.5 995.5,-516.5 995.5,-516.5 1001.5,-516.5 1007.5,-522.5 1007.5,-528.5 1007.5,-528.5 1007.5,-596.5 1007.5,-596.5 1007.5,-602.5 1001.5,-608.5 995.5,-608.5 995.5,-608.5 782.5,-608.5 782.5,-608.5 776.5,-608.5 770.5,-602.5 770.5,-596.5 770.5,-596.5 770.5,-528.5 770.5,-528.5 770.5,-522.5 776.5,-516.5 782.5,-516.5"/>
<text text-anchor="middle" x="889" y="-593.3" font-family="Times,serif" font-size="14.00">type = 3 (ID)</text>
<polyline fill="none" stroke="black" points="770.5,-585.5 1007.5,-585.5 "/>
<text text-anchor="middle" x="889" y="-570.3" font-family="Times,serif" font-size="14.00">name = &#39;&#39; numb &#39;&#39;</text>
<polyline fill="none" stroke="black" points="770.5,-562.5 1007.5,-562.5 "/>
<text text-anchor="middle" x="889" y="-547.3" font-family="Times,serif" font-size="14.00">number in name table = &#39;&#39; 22 &#39;&#39;</text>
<polyline fill="none" stroke="black" points="770.5,-539.5 1007.5,-539.5 "/>
<text text-anchor="middle" x="889" y="-524.3" font-family="Times,serif" font-size="14.00">id_type = LOCL</text>
</g>
<!-- node0x5030000005b0&#45;&gt;node0x503000000340 -->
<g id="edge21" class="edge">
<title>node0x5030000005b0&#45;&gt;node0x503000000340</title>
<path fill="none" stroke="black" d="M1083.07,-668.38C1055.06,-653.24 1016.78,-632.56 981.62,-613.55"/>
<polygon fill="black" stroke="black" points="983.21,-610.44 972.75,-608.76 979.89,-616.6 983.21,-610.44"/>
</g>
<!-- node0x503000000460 -->
<g id="node23" class="node">
<title>node0x503000000460</title>
<path fill="#e0e0e0" stroke="black" d="M1037.5,-539.5C1037.5,-539.5 1210.5,-539.5 1210.5,-539.5 1216.5,-539.5 1222.5,-545.5 1222.5,-551.5 1222.5,-551.5 1222.5,-573.5 1222.5,-573.5 1222.5,-579.5 1216.5,-585.5 1210.5,-585.5 1210.5,-585.5 1037.5,-585.5 1037.5,-585.5 1031.5,-585.5 1025.5,-579.5 1025.5,-573.5 1025.5,-573.5 1025.5,-551.5 1025.5,-551.5 1025.5,-545.5 1031.5,-539.5 1037.5,-539.5"/>
<text text-anchor="middle" x="1124" y="-570.3" font-family="Times,serif" font-size="14.00">type = 2 (OP)</text>
<polyline fill="none" stroke="black" points="1025.5,-562.5 1222.5,-562.5 "/>
<text text-anchor="middle" x="1124" y="-547.3" font-family="Times,serif" font-size="14.00">value = &#39;&#39; SHUTUP &#39;&#39; (59)</text>
</g>
<!-- node0x5030000005b0&#45;&gt;node0x503000000460 -->
<g id="edge22" class="edge">
<title>node0x5030000005b0&#45;&gt;node0x503000000460</title>
<path fill="none" stroke="black" d="M1124,-668.38C1124,-648.38 1124,-618.68 1124,-595.98"/>
<polygon fill="black" stroke="black" points="1127.5,-595.79 1124,-585.79 1120.5,-595.79 1127.5,-595.79"/>
</g>
<!-- node0x5030000006d0 -->
<g id="node35" class="node">
<title>node0x5030000006d0</title>
<path fill="#00ffdd" stroke="black" d="M1353.5,-539.5C1353.5,-539.5 1474.5,-539.5 1474.5,-539.5 1480.5,-539.5 1486.5,-545.5 1486.5,-551.5 1486.5,-551.5 1486.5,-573.5 1486.5,-573.5 1486.5,-579.5 1480.5,-585.5 1474.5,-585.5 1474.5,-585.5 1353.5,-585.5 1353.5,-585.5 1347.5,-585.5 1341.5,-579.5 1341.5,-573.5 1341.5,-573.5 1341.5,-551.5 1341.5,-551.5 1341.5,-545.5 1347.5,-539.5 1353.5,-539.5"/>
<text text-anchor="middle" x="1414" y="-570.3" font-family="Times,serif" font-size="14.00">type = 2 (OP)</text>
<polyline fill="none" stroke="black" points="1341.5,-562.5 1486.5,-562.5 "/>
<text text-anchor="middle" x="1414" y="-547.3" font-family="Times,serif" font-size="14.00">value = &#39;&#39; = &#39;&#39; (61)</text>
</g>
<!-- node0x503000000700&#45;&gt;node0x5030000006d0 -->
<g id="edge34" class="edge">
<title>node0x503000000700&#45;&gt;node0x5030000006d0</title>
<path fill="none" stroke="black" d="M1414,-668.38C1414,-648.38 1414,-618.68 1414,-595.98"/>
<polygon fill="black" stroke="black" points="1417.5,-595.79 1414,-585.79 1410.5,-595.79 1417.5,-595.79"/>
</g>
<!-- node0x5030000007f0 -->
<g id="node36" class="node">
<title>node0x5030000007f0</title>
<path fill="#e0e0e0" stroke="black" d="M1626.5,-539.5C1626.5,-539.5 1799.5,-539.5 1799.5,-539.5 1805.5,-539.5 1811.5,-545.5 1811.5,-551.5 1811.5,-551.5 1811.5,-573.5 1811.5,-573.5 1811.5,-579.5 1805.5,-585.5 1799.5,-585.5 1799.5,-585.5 1626.5,-585.5 1626.5,-585.5 1620.5,-585.5 1614.5,-579.5 1614.5,-573.5 1614.5,-573.5 1614.5,-551.5 1614.5,-551.5 1614.5,-545.5 1620.5,-539.5 1626.5,-539.5"/>
<text text-anchor="middle" x="1713" y="-570.3" font-family="Times,serif" font-size="14.00">type = 2 (OP)</text>
<polyline fill="none" stroke="black" points="1614.5,-562.5 1811.5,-562.5 "/>
<text text-anchor="middle" x="1713" y="-547.3" font-family="Times,serif" font-size="14.00">value = &#39;&#39; SHUTUP &#39;&#39; (59)</text>
</g>
<!-- node0x503000000700&#45;&gt;node0x5030000007f0 -->
<g id="edge35" class="edge">
<title>node0x503000000700&#45;&gt;node0x5030000007f0</title>
<path fill="none" stroke="black" d="M1466.08,-668.38C1517.8,-646.41 1597.07,-612.74 1651.78,-589.5"/>
<polygon fill="black" stroke="black" points="1653.18,-592.71 1661.01,-585.58 1650.44,-586.27 1653.18,-592.71"/>
</g>
<!-- node0x503000000430 -->
<g id="node24" class="node">
<title>node0x503000000430</title>
<path fill="#00ffdd" stroke="black" d="M827.5,-410.5C827.5,-410.5 948.5,-410.5 948.5,-410.5 954.5,-410.5 960.5,-416.5 960.5,-422.5 960.5,-422.5 960.5,-444.5 960.5,-444.5 960.5,-450.5 954.5,-456.5 948.5,-456.5 948.5,-456.5 827.5,-456.5 827.5,-456.5 821.5,-456.5 815.5,-450.5 815.5,-444.5 815.5,-444.5 815.5,-422.5 815.5,-422.5 815.5,-416.5 821.5,-410.5 827.5,-410.5"/>
<text text-anchor="middle" x="888" y="-441.3" font-family="Times,serif" font-size="14.00">type = 2 (OP)</text>
<polyline fill="none" stroke="black" points="815.5,-433.5 960.5,-433.5 "/>
<text text-anchor="middle" x="888" y="-418.3" font-family="Times,serif" font-size="14.00">value = &#39;&#39; = &#39;&#39; (61)</text>
</g>
<!-- node0x503000000460&#45;&gt;node0x503000000430 -->
<g id="edge23" class="edge">
<title>node0x503000000460&#45;&gt;node0x503000000430</title>
<path fill="none" stroke="black" d="M1082.89,-539.38C1042.58,-517.68 981.05,-484.57 937.94,-461.37"/>
<polygon fill="black" stroke="black" points="939.5,-458.24 929.03,-456.58 936.18,-464.4 939.5,-458.24"/>
</g>
<!-- node0x503000000580 -->
<g id="node25" class="node">
<title>node0x503000000580</title>
<path fill="#e0e0e0" stroke="black" d="M1037.5,-410.5C1037.5,-410.5 1210.5,-410.5 1210.5,-410.5 1216.5,-410.5 1222.5,-416.5 1222.5,-422.5 1222.5,-422.5 1222.5,-444.5 1222.5,-444.5 1222.5,-450.5 1216.5,-456.5 1210.5,-456.5 1210.5,-456.5 1037.5,-456.5 1037.5,-456.5 1031.5,-456.5 1025.5,-450.5 1025.5,-444.5 1025.5,-444.5 1025.5,-422.5 1025.5,-422.5 1025.5,-416.5 1031.5,-410.5 1037.5,-410.5"/>
<text text-anchor="middle" x="1124" y="-441.3" font-family="Times,serif" font-size="14.00">type = 2 (OP)</text>
<polyline fill="none" stroke="black" points="1025.5,-433.5 1222.5,-433.5 "/>
<text text-anchor="middle" x="1124" y="-418.3" font-family="Times,serif" font-size="14.00">value = &#39;&#39; SHUTUP &#39;&#39; (59)</text>
</g>
<!-- node0x503000000460&#45;&gt;node0x503000000580 -->
<g id="edge24" class="edge">
<title>node0x503000000460&#45;&gt;node0x503000000580</title>
<path fill="none" stroke="black" d="M1124,-539.38C1124,-519.38 1124,-489.68 1124,-466.98"/>
<polygon fill="black" stroke="black" points="1127.5,-466.79 1124,-456.79 1120.5,-466.79 1127.5,-466.79"/>
</g>
<!-- node0x503000000370 -->
<g id="node26" class="node">
<title>node0x503000000370</title>
<path fill="#ff5050" stroke="black" d="M560.5,-258.5C560.5,-258.5 773.5,-258.5 773.5,-258.5 779.5,-258.5 785.5,-264.5 785.5,-270.5 785.5,-270.5 785.5,-338.5 785.5,-338.5 785.5,-344.5 779.5,-350.5 773.5,-350.5 773.5,-350.5 560.5,-350.5 560.5,-350.5 554.5,-350.5 548.5,-344.5 548.5,-338.5 548.5,-338.5 548.5,-270.5 548.5,-270.5 548.5,-264.5 554.5,-258.5 560.5,-258.5"/>
<text text-anchor="middle" x="667" y="-335.3" font-family="Times,serif" font-size="14.00">type = 3 (ID)</text>
<polyline fill="none" stroke="black" points="548.5,-327.5 785.5,-327.5 "/>
<text text-anchor="middle" x="667" y="-312.3" font-family="Times,serif" font-size="14.00">name = &#39;&#39; result &#39;&#39;</text>
<polyline fill="none" stroke="black" points="548.5,-304.5 785.5,-304.5 "/>
<text text-anchor="middle" x="667" y="-289.3" font-family="Times,serif" font-size="14.00">number in name table = &#39;&#39; 23 &#39;&#39;</text>
<polyline fill="none" stroke="black" points="548.5,-281.5 785.5,-281.5 "/>
<text text-anchor="middle" x="667" y="-266.3" font-family="Times,serif" font-size="14.00">id_type = LOCL</text>
</g>
<!-- node0x503000000430&#45;&gt;node0x503000000370 -->
<g id="edge25" class="edge">
<title>node0x503000000430&#45;&gt;node0x503000000370</title>
<path fill="none" stroke="black" d="M849.5,-410.38C823.28,-395.31 787.47,-374.73 754.52,-355.79"/>
<polygon fill="black" stroke="black" points="756.18,-352.71 745.76,-350.76 752.69,-358.78 756.18,-352.71"/>
</g>
<!-- node0x503000000400 -->
<g id="node27" class="node">
<title>node0x503000000400</title>
<path fill="#00ffdd" stroke="black" d="M816,-281.5C816,-281.5 960,-281.5 960,-281.5 966,-281.5 972,-287.5 972,-293.5 972,-293.5 972,-315.5 972,-315.5 972,-321.5 966,-327.5 960,-327.5 960,-327.5 816,-327.5 816,-327.5 810,-327.5 804,-321.5 804,-315.5 804,-315.5 804,-293.5 804,-293.5 804,-287.5 810,-281.5 816,-281.5"/>
<text text-anchor="middle" x="888" y="-312.3" font-family="Times,serif" font-size="14.00">type = 2 (OP)</text>
<polyline fill="none" stroke="black" points="804,-304.5 972,-304.5 "/>
<text text-anchor="middle" x="888" y="-289.3" font-family="Times,serif" font-size="14.00">value = &#39;&#39; MUL &#39;&#39; (42)</text>
</g>
<!-- node0x503000000430&#45;&gt;node0x503000000400 -->
<g id="edge26" class="edge">
<title>node0x503000000430&#45;&gt;node0x503000000400</title>
<path fill="none" stroke="black" d="M888,-410.38C888,-390.38 888,-360.68 888,-337.98"/>
<polygon fill="black" stroke="black" points="891.5,-337.79 888,-327.79 884.5,-337.79 891.5,-337.79"/>
</g>
<!-- node0x503000000550 -->
<g id="node30" class="node">
<title>node0x503000000550</title>
<path fill="#00ffdd" stroke="black" d="M1082.5,-281.5C1082.5,-281.5 1203.5,-281.5 1203.5,-281.5 1209.5,-281.5 1215.5,-287.5 1215.5,-293.5 1215.5,-293.5 1215.5,-315.5 1215.5,-315.5 1215.5,-321.5 1209.5,-327.5 1203.5,-327.5 1203.5,-327.5 1082.5,-327.5 1082.5,-327.5 1076.5,-327.5 1070.5,-321.5 1070.5,-315.5 1070.5,-315.5 1070.5,-293.5 1070.5,-293.5 1070.5,-287.5 1076.5,-281.5 1082.5,-281.5"/>
<text text-anchor="middle" x="1143" y="-312.3" font-family="Times,serif" font-size="14.00">type = 2 (OP)</text>
<polyline fill="none" stroke="black" points="1070.5,-304.5 1215.5,-304.5 "/>
<text text-anchor="middle" x="1143" y="-289.3" font-family="Times,serif" font-size="14.00">value = &#39;&#39; = &#39;&#39; (61)</text>
</g>
<!-- node0x503000000580&#45;&gt;node0x503000000550 -->
<g id="edge29" class="edge">
<title>node0x503000000580&#45;&gt;node0x503000000550</title>
<path fill="none" stroke="black" d="M1127.31,-410.38C1130.3,-390.38 1134.75,-360.68 1138.14,-337.98"/>
<polygon fill="black" stroke="black" points="1141.65,-338.2 1139.66,-327.79 1134.72,-337.17 1141.65,-338.2"/>
</g>
<!-- node0x5030000003a0 -->
<g id="node28" class="node">
<title>node0x5030000003a0</title>
<path fill="#ff5050" stroke="black" d="M526.5,-129.5C526.5,-129.5 739.5,-129.5 739.5,-129.5 745.5,-129.5 751.5,-135.5 751.5,-141.5 751.5,-141.5 751.5,-209.5 751.5,-209.5 751.5,-215.5 745.5,-221.5 739.5,-221.5 739.5,-221.5 526.5,-221.5 526.5,-221.5 520.5,-221.5 514.5,-215.5 514.5,-209.5 514.5,-209.5 514.5,-141.5 514.5,-141.5 514.5,-135.5 520.5,-129.5 526.5,-129.5"/>
<text text-anchor="middle" x="633" y="-206.3" font-family="Times,serif" font-size="14.00">type = 3 (ID)</text>
<polyline fill="none" stroke="black" points="514.5,-198.5 751.5,-198.5 "/>
<text text-anchor="middle" x="633" y="-183.3" font-family="Times,serif" font-size="14.00">name = &#39;&#39; result &#39;&#39;</text>
<polyline fill="none" stroke="black" points="514.5,-175.5 751.5,-175.5 "/>
<text text-anchor="middle" x="633" y="-160.3" font-family="Times,serif" font-size="14.00">number in name table = &#39;&#39; 23 &#39;&#39;</text>
<polyline fill="none" stroke="black" points="514.5,-152.5 751.5,-152.5 "/>
<text text-anchor="middle" x="633" y="-137.3" font-family="Times,serif" font-size="14.00">id_type = LOCL</text>
</g>
<!-- node0x503000000400&#45;&gt;node0x5030000003a0 -->
<g id="edge27" class="edge">
<title>node0x503000000400&#45;&gt;node0x5030000003a0</title>
<path fill="none" stroke="black" d="M843.58,-281.38C813,-266.15 771.12,-245.29 732.77,-226.19"/>
<polygon fill="black" stroke="black" points="734.13,-222.96 723.62,-221.63 731.01,-229.22 734.13,-222.96"/>
</g>
<!-- node0x5030000003d0 -->
<g id="node29" class="node">
<title>node0x5030000003d0</title>
<path fill="#ff5050" stroke="black" d="M781.5,-129.5C781.5,-129.5 994.5,-129.5 994.5,-129.5 1000.5,-129.5 1006.5,-135.5 1006.5,-141.5 1006.5,-141.5 1006.5,-209.5 1006.5,-209.5 1006.5,-215.5 1000.5,-221.5 994.5,-221.5 994.5,-221.5 781.5,-221.5 781.5,-221.5 775.5,-221.5 769.5,-215.5 769.5,-209.5 769.5,-209.5 769.5,-141.5 769.5,-141.5 769.5,-135.5 775.5,-129.5 781.5,-129.5"/>
<text text-anchor="middle" x="888" y="-206.3" font-family="Times,serif" font-size="14.00">type = 3 (ID)</text>
<polyline fill="none" stroke="black" points="769.5,-198.5 1006.5,-198.5 "/>
<text text-anchor="middle" x="888" y="-183.3" font-family="Times,serif" font-size="14.00">name = &#39;&#39; numb &#39;&#39;</text>
<polyline fill="none" stroke="black" points="769.5,-175.5 1006.5,-175.5 "/>
<text text-anchor="middle" x="888" y="-160.3" font-family="Times,serif" font-size="14.00">number in name table = &#39;&#39; 22 &#39;&#39;</text>
<polyline fill="none" stroke="black" points="769.5,-152.5 1006.5,-152.5 "/>
<text text-anchor="middle" x="888" y="-137.3" font-family="Times,serif" font-size="14.00">id_type = LOCL</text>
</g>
<!-- node0x503000000400&#45;&gt;node0x5030000003d0 -->
<g id="edge28" class="edge">
<title>node0x503000000400&#45;&gt;node0x5030000003d0</title>
<path fill="none" stroke="black" d="M888,-281.38C888,-267.66 888,-249.37 888,-231.91"/>
<polygon fill="black" stroke="black" points="891.5,-231.76 888,-221.76 884.5,-231.76 891.5,-231.76"/>
</g>
<!-- node0x503000000490 -->
<g id="node31" class="node">
<title>node0x503000000490</title>
<path fill="#ff5050" stroke="black" d="M1036.5,-129.5C1036.5,-129.5 1249.5,-129.5 1249.5,-129.5 1255.5,-129.5 1261.5,-135.5 1261.5,-141.5 1261.5,-141.5 1261.5,-209.5 1261.5,-209.5 1261.5,-215.5 1255.5,-221.5 1249.5,-221.5 1249.5,-221.5 1036.5,-221.5 1036.5,-221.5 1030.5,-221.5 1024.5,-215.5 1024.5,-209.5 1024.5,-209.5 1024.5,-141.5 1024.5,-141.5 1024.5,-135.5 1030.5,-129.5 1036.5,-129.5"/>
<text text-anchor="middle" x="1143" y="-206.3" font-family="Times,serif" font-size="14.00">type = 3 (ID)</text>
<polyline fill="none" stroke="black" points="1024.5,-198.5 1261.5,-198.5 "/>
<text text-anchor="middle" x="1143" y="-183.3" font-family="Times,serif" font-size="14.00">name = &#39;&#39; numb &#39;&#39;</text>
<polyline fill="none" stroke="black" points="1024.5,-175.5 1261.5,-175.5 "/>
<text text-anchor="middle" x="1143" y="-160.3" font-family="Times,serif" font-size="14.00">number in name table = &#39;&#39; 22 &#39;&#39;</text>
<polyline fill="none" stroke="black" points="1024.5,-152.5 1261.5,-152.5 "/>
<text text-anchor="middle" x="1143" y="-137.3" font-family="Times,serif" font-size="14.00">id_type = LOCL</text>
</g>
<!-- node0x503000000550&#45;&gt;node0x503000000490 -->
<g id="edge30" class="edge">
<title>node0x503000000550&#45;&gt;node0x503000000490</title>
<path fill="none" stroke="black" d="M1143,-281.38C1143,-267.66 1143,-249.37 1143,-231.91"/>
<polygon fill="black" stroke="black" points="1146.5,-231.76 1143,-221.76 1139.5,-231.76 1146.5,-231.76"/>
</g>
<!-- node0x503000000520 -->
<g id="node32" class="node">
<title>node0x503000000520</title>
<path fill="#00ffdd" stroke="black" d="M1291.5,-152.5C1291.5,-152.5 1432.5,-152.5 1432.5,-152.5 1438.5,-152.5 1444.5,-158.5 1444.5,-164.5 1444.5,-164.5 1444.5,-186.5 1444.5,-186.5 1444.5,-192.5 1438.5,-198.5 1432.5,-198.5 1432.5,-198.5 1291.5,-198.5 1291.5,-198.5 1285.5,-198.5 1279.5,-192.5 1279.5,-186.5 1279.5,-186.5 1279.5,-164.5 1279.5,-164.5 1279.5,-158.5 1285.5,-152.5 1291.5,-152.5"/>
<text text-anchor="middle" x="1362" y="-183.3" font-family="Times,serif" font-size="14.00">type = 2 (OP)</text>
<polyline fill="none" stroke="black" points="1279.5,-175.5 1444.5,-175.5 "/>
<text text-anchor="middle" x="1362" y="-160.3" font-family="Times,serif" font-size="14.00">value = &#39;&#39; SUB &#39;&#39; (45)</text>
</g>
<!-- node0x503000000550&#45;&gt;node0x503000000520 -->
<g id="edge31" class="edge">
<title>node0x503000000550&#45;&gt;node0x503000000520</title>
<path fill="none" stroke="black" d="M1181.15,-281.38C1218.4,-259.77 1275.18,-226.85 1315.16,-203.66"/>
<polygon fill="black" stroke="black" points="1317.03,-206.63 1323.92,-198.58 1313.52,-200.57 1317.03,-206.63"/>
</g>
<!-- node0x5030000004c0 -->
<g id="node33" class="node">
<title>node0x5030000004c0</title>
<path fill="#ff5050" stroke="black" d="M1154.5,-0.5C1154.5,-0.5 1367.5,-0.5 1367.5,-0.5 1373.5,-0.5 1379.5,-6.5 1379.5,-12.5 1379.5,-12.5 1379.5,-80.5 1379.5,-80.5 1379.5,-86.5 1373.5,-92.5 1367.5,-92.5 1367.5,-92.5 1154.5,-92.5 1154.5,-92.5 1148.5,-92.5 1142.5,-86.5 1142.5,-80.5 1142.5,-80.5 1142.5,-12.5 1142.5,-12.5 1142.5,-6.5 1148.5,-0.5 1154.5,-0.5"/>
<text text-anchor="middle" x="1261" y="-77.3" font-family="Times,serif" font-size="14.00">type = 3 (ID)</text>
<polyline fill="none" stroke="black" points="1142.5,-69.5 1379.5,-69.5 "/>
<text text-anchor="middle" x="1261" y="-54.3" font-family="Times,serif" font-size="14.00">name = &#39;&#39; numb &#39;&#39;</text>
<polyline fill="none" stroke="black" points="1142.5,-46.5 1379.5,-46.5 "/>
<text text-anchor="middle" x="1261" y="-31.3" font-family="Times,serif" font-size="14.00">number in name table = &#39;&#39; 22 &#39;&#39;</text>
<polyline fill="none" stroke="black" points="1142.5,-23.5 1379.5,-23.5 "/>
<text text-anchor="middle" x="1261" y="-8.3" font-family="Times,serif" font-size="14.00">id_type = LOCL</text>
</g>
<!-- node0x503000000520&#45;&gt;node0x5030000004c0 -->
<g id="edge32" class="edge">
<title>node0x503000000520&#45;&gt;node0x5030000004c0</title>
<path fill="none" stroke="black" d="M1344.41,-152.38C1333.09,-138.14 1317.86,-118.99 1303.51,-100.95"/>
<polygon fill="black" stroke="black" points="1305.96,-98.41 1297,-92.76 1300.48,-102.77 1305.96,-98.41"/>
</g>
<!-- node0x5030000004f0 -->
<g id="node34" class="node">
<title>node0x5030000004f0</title>
<path fill="#ffd700" stroke="black" d="M1409.5,-23.5C1409.5,-23.5 1516.5,-23.5 1516.5,-23.5 1522.5,-23.5 1528.5,-29.5 1528.5,-35.5 1528.5,-35.5 1528.5,-57.5 1528.5,-57.5 1528.5,-63.5 1522.5,-69.5 1516.5,-69.5 1516.5,-69.5 1409.5,-69.5 1409.5,-69.5 1403.5,-69.5 1397.5,-63.5 1397.5,-57.5 1397.5,-57.5 1397.5,-35.5 1397.5,-35.5 1397.5,-29.5 1403.5,-23.5 1409.5,-23.5"/>
<text text-anchor="middle" x="1463" y="-54.3" font-family="Times,serif" font-size="14.00">type = 1 (NUM)</text>
<polyline fill="none" stroke="black" points="1397.5,-46.5 1528.5,-46.5 "/>
<text text-anchor="middle" x="1463" y="-31.3" font-family="Times,serif" font-size="14.00">value = &#39;&#39; 1 &#39;&#39;</text>
</g>
<!-- node0x503000000520&#45;&gt;node0x5030000004f0 -->
<g id="edge33" class="edge">
<title>node0x503000000520&#45;&gt;node0x5030000004f0</title>
<path fill="none" stroke="black" d="M1379.59,-152.38C1396,-131.74 1420.62,-100.79 1438.86,-77.85"/>
<polygon fill="black" stroke="black" points="1441.78,-79.8 1445.27,-69.79 1436.31,-75.44 1441.78,-79.8"/>
</g>
<!-- node0x503000000610 -->
<g id="node37" class="node">
<title>node0x503000000610</title>
<path fill="#ff5050" stroke="black" d="M1252.5,-387.5C1252.5,-387.5 1465.5,-387.5 1465.5,-387.5 1471.5,-387.5 1477.5,-393.5 1477.5,-399.5 1477.5,-399.5 1477.5,-467.5 1477.5,-467.5 1477.5,-473.5 1471.5,-479.5 1465.5,-479.5 1465.5,-479.5 1252.5,-479.5 1252.5,-479.5 1246.5,-479.5 1240.5,-473.5 1240.5,-467.5 1240.5,-467.5 1240.5,-399.5 1240.5,-399.5 1240.5,-393.5 1246.5,-387.5 1252.5,-387.5"/>
<text text-anchor="middle" x="1359" y="-464.3" font-family="Times,serif" font-size="14.00">type = 3 (ID)</text>
<polyline fill="none" stroke="black" points="1240.5,-456.5 1477.5,-456.5 "/>
<text text-anchor="middle" x="1359" y="-441.3" font-family="Times,serif" font-size="14.00">name = &#39;&#39; result &#39;&#39;</text>
<polyline fill="none" stroke="black" points="1240.5,-433.5 1477.5,-433.5 "/>
<text text-anchor="middle" x="1359" y="-418.3" font-family="Times,serif" font-size="14.00">number in name table = &#39;&#39; 23 &#39;&#39;</text>
<polyline fill="none" stroke="black" points="1240.5,-410.5 1477.5,-410.5 "/>
<text text-anchor="middle" x="1359" y="-395.3" font-family="Times,serif" font-size="14.00">id_type = LOCL</text>
</g>
<!-- node0x5030000006d0&#45;&gt;node0x503000000610 -->
<g id="edge36" class="edge">
<title>node0x5030000006d0&#45;&gt;node0x503000000610</title>
<path fill="none" stroke="black" d="M1404.42,-539.38C1398.42,-525.53 1390.41,-507.02 1382.78,-489.42"/>
<polygon fill="black" stroke="black" points="1385.79,-487.55 1378.6,-479.76 1379.36,-490.33 1385.79,-487.55"/>
</g>
<!-- node0x5030000006a0 -->
<g id="node38" class="node">
<title>node0x5030000006a0</title>
<path fill="#00ffdd" stroke="black" d="M1508,-410.5C1508,-410.5 1652,-410.5 1652,-410.5 1658,-410.5 1664,-416.5 1664,-422.5 1664,-422.5 1664,-444.5 1664,-444.5 1664,-450.5 1658,-456.5 1652,-456.5 1652,-456.5 1508,-456.5 1508,-456.5 1502,-456.5 1496,-450.5 1496,-444.5 1496,-444.5 1496,-422.5 1496,-422.5 1496,-416.5 1502,-410.5 1508,-410.5"/>
<text text-anchor="middle" x="1580" y="-441.3" font-family="Times,serif" font-size="14.00">type = 2 (OP)</text>
<polyline fill="none" stroke="black" points="1496,-433.5 1664,-433.5 "/>
<text text-anchor="middle" x="1580" y="-418.3" font-family="Times,serif" font-size="14.00">value = &#39;&#39; MUL &#39;&#39; (42)</text>
</g>
<!-- node0x5030000006d0&#45;&gt;node0x5030000006a0 -->
<g id="edge37" class="edge">
<title>node0x5030000006d0&#45;&gt;node0x5030000006a0</title>
<path fill="none" stroke="black" d="M1442.91,-539.38C1470.68,-518.14 1512.75,-485.95 1542.95,-462.84"/>
<polygon fill="black" stroke="black" points="1545.32,-465.44 1551.14,-456.58 1541.07,-459.88 1545.32,-465.44"/>
</g>
<!-- node0x5030000007c0 -->
<g id="node41" class="node">
<title>node0x5030000007c0</title>
<path fill="#f069f5" stroke="black" d="M1694.5,-410.5C1694.5,-410.5 1841.5,-410.5 1841.5,-410.5 1847.5,-410.5 1853.5,-416.5 1853.5,-422.5 1853.5,-422.5 1853.5,-444.5 1853.5,-444.5 1853.5,-450.5 1847.5,-456.5 1841.5,-456.5 1841.5,-456.5 1694.5,-456.5 1694.5,-456.5 1688.5,-456.5 1682.5,-450.5 1682.5,-444.5 1682.5,-444.5 1682.5,-422.5 1682.5,-422.5 1682.5,-416.5 1688.5,-410.5 1694.5,-410.5"/>
<text text-anchor="middle" x="1768" y="-441.3" font-family="Times,serif" font-size="14.00">type = 4 (FUNC)</text>
<polyline fill="none" stroke="black" points="1682.5,-433.5 1853.5,-433.5 "/>
<text text-anchor="middle" x="1768" y="-418.3" font-family="Times,serif" font-size="14.00">value = &#39;&#39; CALL &#39;&#39; (67)</text>
</g>
<!-- node0x5030000007f0&#45;&gt;node0x5030000007c0 -->
<g id="edge40" class="edge">
<title>node0x5030000007f0&#45;&gt;node0x5030000007c0</title>
<path fill="none" stroke="black" d="M1722.58,-539.38C1731.36,-519.11 1744.45,-488.87 1754.33,-466.06"/>
<polygon fill="black" stroke="black" points="1757.58,-467.36 1758.34,-456.79 1751.16,-464.58 1757.58,-467.36"/>
</g>
<!-- node0x503000000640 -->
<g id="node39" class="node">
<title>node0x503000000640</title>
<path fill="#ff5050" stroke="black" d="M1276.5,-258.5C1276.5,-258.5 1489.5,-258.5 1489.5,-258.5 1495.5,-258.5 1501.5,-264.5 1501.5,-270.5 1501.5,-270.5 1501.5,-338.5 1501.5,-338.5 1501.5,-344.5 1495.5,-350.5 1489.5,-350.5 1489.5,-350.5 1276.5,-350.5 1276.5,-350.5 1270.5,-350.5 1264.5,-344.5 1264.5,-338.5 1264.5,-338.5 1264.5,-270.5 1264.5,-270.5 1264.5,-264.5 1270.5,-258.5 1276.5,-258.5"/>
<text text-anchor="middle" x="1383" y="-335.3" font-family="Times,serif" font-size="14.00">type = 3 (ID)</text>
<polyline fill="none" stroke="black" points="1264.5,-327.5 1501.5,-327.5 "/>
<text text-anchor="middle" x="1383" y="-312.3" font-family="Times,serif" font-size="14.00">name = &#39;&#39; result &#39;&#39;</text>
<polyline fill="none" stroke="black" points="1264.5,-304.5 1501.5,-304.5 "/>
<text text-anchor="middle" x="1383" y="-289.3" font-family="Times,serif" font-size="14.00">number in name table = &#39;&#39; 23 &#39;&#39;</text>
<polyline fill="none" stroke="black" points="1264.5,-281.5 1501.5,-281.5 "/>
<text text-anchor="middle" x="1383" y="-266.3" font-family="Times,serif" font-size="14.00">id_type = LOCL</text>
</g>
<!-- node0x5030000006a0&#45;&gt;node0x503000000640 -->
<g id="edge38" class="edge">
<title>node0x5030000006a0&#45;&gt;node0x503000000640</title>
<path fill="none" stroke="black" d="M1545.69,-410.38C1522.51,-395.44 1490.93,-375.08 1461.77,-356.28"/>
<polygon fill="black" stroke="black" points="1463.51,-353.24 1453.21,-350.76 1459.72,-359.12 1463.51,-353.24"/>
</g>
<!-- node0x503000000670 -->
<g id="node40" class="node">
<title>node0x503000000670</title>
<path fill="#ffd700" stroke="black" d="M1531.5,-281.5C1531.5,-281.5 1638.5,-281.5 1638.5,-281.5 1644.5,-281.5 1650.5,-287.5 1650.5,-293.5 1650.5,-293.5 1650.5,-315.5 1650.5,-315.5 1650.5,-321.5 1644.5,-327.5 1638.5,-327.5 1638.5,-327.5 1531.5,-327.5 1531.5,-327.5 1525.5,-327.5 1519.5,-321.5 1519.5,-315.5 1519.5,-315.5 1519.5,-293.5 1519.5,-293.5 1519.5,-287.5 1525.5,-281.5 1531.5,-281.5"/>
<text text-anchor="middle" x="1585" y="-312.3" font-family="Times,serif" font-size="14.00">type = 1 (NUM)</text>
<polyline fill="none" stroke="black" points="1519.5,-304.5 1650.5,-304.5 "/>
<text text-anchor="middle" x="1585" y="-289.3" font-family="Times,serif" font-size="14.00">value = &#39;&#39; 1 &#39;&#39;</text>
</g>
<!-- node0x5030000006a0&#45;&gt;node0x503000000670 -->
<g id="edge39" class="edge">
<title>node0x5030000006a0&#45;&gt;node0x503000000670</title>
<path fill="none" stroke="black" d="M1580.87,-410.38C1581.66,-390.38 1582.83,-360.68 1583.72,-337.98"/>
<polygon fill="black" stroke="black" points="1587.23,-337.92 1584.12,-327.79 1580.23,-337.65 1587.23,-337.92"/>
</g>
<!-- node0x503000000730 -->
<g id="node42" class="node">
<title>node0x503000000730</title>
<path fill="#2ee31e" stroke="black" d="M1689.5,-281.5C1689.5,-281.5 1838.5,-281.5 1838.5,-281.5 1844.5,-281.5 1850.5,-287.5 1850.5,-293.5 1850.5,-293.5 1850.5,-315.5 1850.5,-315.5 1850.5,-321.5 1844.5,-327.5 1838.5,-327.5 1838.5,-327.5 1689.5,-327.5 1689.5,-327.5 1683.5,-327.5 1677.5,-321.5 1677.5,-315.5 1677.5,-315.5 1677.5,-293.5 1677.5,-293.5 1677.5,-287.5 1683.5,-281.5 1689.5,-281.5"/>
<text text-anchor="middle" x="1764" y="-312.3" font-family="Times,serif" font-size="14.00">type = 4 (FUNC)</text>
<polyline fill="none" stroke="black" points="1677.5,-304.5 1850.5,-304.5 "/>
<text text-anchor="middle" x="1764" y="-289.3" font-family="Times,serif" font-size="14.00">value = &#39;&#39; printf &#39;&#39; (25)</text>
</g>
<!-- node0x5030000007c0&#45;&gt;node0x503000000730 -->
<g id="edge41" class="edge">
<title>node0x5030000007c0&#45;&gt;node0x503000000730</title>
<path fill="none" stroke="black" d="M1767.3,-410.38C1766.67,-390.38 1765.74,-360.68 1765.02,-337.98"/>
<polygon fill="black" stroke="black" points="1768.52,-337.68 1764.7,-327.79 1761.52,-337.9 1768.52,-337.68"/>
</g>
<!-- node0x503000000790 -->
<g id="node43" class="node">
<title>node0x503000000790</title>
<path fill="#feaadf" stroke="black" d="M1880.5,-281.5C1880.5,-281.5 1993.5,-281.5 1993.5,-281.5 1999.5,-281.5 2005.5,-287.5 2005.5,-293.5 2005.5,-293.5 2005.5,-315.5 2005.5,-315.5 2005.5,-321.5 1999.5,-327.5 1993.5,-327.5 1993.5,-327.5 1880.5,-327.5 1880.5,-327.5 1874.5,-327.5 1868.5,-321.5 1868.5,-315.5 1868.5,-315.5 1868.5,-293.5 1868.5,-293.5 1868.5,-287.5 1874.5,-281.5 1880.5,-281.5"/>
<text text-anchor="middle" x="1937" y="-312.3" font-family="Times,serif" font-size="14.00">type = 4 (FUNC)</text>
<polyline fill="none" stroke="black" points="1868.5,-304.5 2005.5,-304.5 "/>
<text text-anchor="middle" x="1937" y="-289.3" font-family="Times,serif" font-size="14.00">value = &#39;&#39; , &#39;&#39; (44)</text>
</g>
<!-- node0x5030000007c0&#45;&gt;node0x503000000790 -->
<g id="edge42" class="edge">
<title>node0x5030000007c0&#45;&gt;node0x503000000790</title>
<path fill="none" stroke="black" d="M1797.44,-410.38C1825.7,-389.14 1868.53,-356.95 1899.28,-333.84"/>
<polygon fill="black" stroke="black" points="1901.73,-336.39 1907.62,-327.58 1897.52,-330.79 1901.73,-336.39"/>
</g>
<!-- node0x503000000760 -->
<g id="node44" class="node">
<title>node0x503000000760</title>
<path fill="#ff5050" stroke="black" d="M1830.5,-129.5C1830.5,-129.5 2043.5,-129.5 2043.5,-129.5 2049.5,-129.5 2055.5,-135.5 2055.5,-141.5 2055.5,-141.5 2055.5,-209.5 2055.5,-209.5 2055.5,-215.5 2049.5,-221.5 2043.5,-221.5 2043.5,-221.5 1830.5,-221.5 1830.5,-221.5 1824.5,-221.5 1818.5,-215.5 1818.5,-209.5 1818.5,-209.5 1818.5,-141.5 1818.5,-141.5 1818.5,-135.5 1824.5,-129.5 1830.5,-129.5"/>
<text text-anchor="middle" x="1937" y="-206.3" font-family="Times,serif" font-size="14.00">type = 3 (ID)</text>
<polyline fill="none" stroke="black" points="1818.5,-198.5 2055.5,-198.5 "/>
<text text-anchor="middle" x="1937" y="-183.3" font-family="Times,serif" font-size="14.00">name = &#39;&#39; result &#39;&#39;</text>
<polyline fill="none" stroke="black" points="1818.5,-175.5 2055.5,-175.5 "/>
<text text-anchor="middle" x="1937" y="-160.3" font-family="Times,serif" font-size="14.00">number in name table = &#39;&#39; 23 &#39;&#39;</text>
<polyline fill="none" stroke="black" points="1818.5,-152.5 2055.5,-152.5 "/>
<text text-anchor="middle" x="1937" y="-137.3" font-family="Times,serif" font-size="14.00">id_type = LOCL</text>
</g>
<!-- node0x503000000790&#45;&gt;node0x503000000760 -->
<g id="edge43" class="edge">
<title>node0x503000000790&#45;&gt;node0x503000000760</title>
<path fill="none" stroke="black" d="M1937,-281.38C1937,-267.66 1937,-249.37 1937,-231.91"/>
<polygon fill="black" stroke="black" points="1940.5,-231.76 1937,-221.76 1933.5,-231.76 1940.5,-231.76"/>
</g>
</g>
</svg>
