<?xml version="1.0" encoding="UTF-8" standalone="no"?>
<!DOCTYPE svg PUBLIC "-//W3C//DTD SVG 1.1//EN"
 "http://www.w3.org/Graphics/SVG/1.1/DTD/svg11.dtd">
<!-- Generated by graphviz version 2.43.0 (0)
 -->
<!-- Title: %3 Pages: 1 -->
<svg width="482pt" height="267pt"
 viewBox="0.00 0.00 482.00 267.00" xmlns="http://www.w3.org/2000/svg" xmlns:xlink="http://www.w3.org/1999/xlink">
<g id="graph0" class="graph" transform="scale(1 1) rotate(0) translate(4 263)">
<title>%3</title>
<!-- node0x503000000940 -->
<g id="node1" class="node">
<title>node0x503000000940</title>
<path fill="#00ffdd" stroke="black" d="M166,-212.5C166,-212.5 287,-212.5 287,-212.5 293,-212.5 299,-218.5 299,-224.5 299,-224.5 299,-246.5 299,-246.5 299,-252.5 293,-258.5 287,-258.5 287,-258.5 166,-258.5 166,-258.5 160,-258.5 154,-252.5 154,-246.5 154,-246.5 154,-224.5 154,-224.5 154,-218.5 160,-212.5 166,-212.5"/>
<text text-anchor="middle" x="226.5" y="-243.3" font-family="Times,serif" font-size="14.00">type = 2 (OP)</text>
<polyline fill="none" stroke="black" points="154,-235.5 299,-235.5 "/>
<text text-anchor="middle" x="226.5" y="-220.3" font-family="Times,serif" font-size="14.00">value = &#39;&#39; ^ &#39;&#39; (94)</text>
</g>
<!-- node0x503000000880 -->
<g id="node2" class="node">
<title>node0x503000000880</title>
<path fill="#ff5050" stroke="black" d="M12,-83.5C12,-83.5 225,-83.5 225,-83.5 231,-83.5 237,-89.5 237,-95.5 237,-95.5 237,-163.5 237,-163.5 237,-169.5 231,-175.5 225,-175.5 225,-175.5 12,-175.5 12,-175.5 6,-175.5 0,-169.5 0,-163.5 0,-163.5 0,-95.5 0,-95.5 0,-89.5 6,-83.5 12,-83.5"/>
<text text-anchor="middle" x="118.5" y="-160.3" font-family="Times,serif" font-size="14.00">type = 3 (ID)</text>
<polyline fill="none" stroke="black" points="0,-152.5 237,-152.5 "/>
<text text-anchor="middle" x="118.5" y="-137.3" font-family="Times,serif" font-size="14.00">name = &#39;&#39; numc &#39;&#39;</text>
<polyline fill="none" stroke="black" points="0,-129.5 237,-129.5 "/>
<text text-anchor="middle" x="118.5" y="-114.3" font-family="Times,serif" font-size="14.00">number in name table = &#39;&#39; 27 &#39;&#39;</text>
<polyline fill="none" stroke="black" points="0,-106.5 237,-106.5 "/>
<text text-anchor="middle" x="118.5" y="-91.3" font-family="Times,serif" font-size="14.00">id_type = LOCL</text>
</g>
<!-- node0x503000000940&#45;&gt;node0x503000000880 -->
<g id="edge1" class="edge">
<title>node0x503000000940&#45;&gt;node0x503000000880</title>
<path fill="none" stroke="black" d="M203.6,-212.44C194.54,-203.72 183.71,-193.3 172.87,-182.86"/>
<polygon fill="black" stroke="black" points="175.01,-180.06 165.38,-175.64 170.16,-185.1 175.01,-180.06"/>
</g>
<!-- node0x503000000910 -->
<g id="node3" class="node">
<title>node0x503000000910</title>
<path fill="#00ffdd" stroke="black" d="M267,-106.5C267,-106.5 402,-106.5 402,-106.5 408,-106.5 414,-112.5 414,-118.5 414,-118.5 414,-140.5 414,-140.5 414,-146.5 408,-152.5 402,-152.5 402,-152.5 267,-152.5 267,-152.5 261,-152.5 255,-146.5 255,-140.5 255,-140.5 255,-118.5 255,-118.5 255,-112.5 261,-106.5 267,-106.5"/>
<text text-anchor="middle" x="334.5" y="-137.3" font-family="Times,serif" font-size="14.00">type = 2 (OP)</text>
<polyline fill="none" stroke="black" points="255,-129.5 414,-129.5 "/>
<text text-anchor="middle" x="334.5" y="-114.3" font-family="Times,serif" font-size="14.00">value = &#39;&#39; DIV &#39;&#39; (47)</text>
</g>
<!-- node0x503000000940&#45;&gt;node0x503000000910 -->
<g id="edge2" class="edge">
<title>node0x503000000940&#45;&gt;node0x503000000910</title>
<path fill="none" stroke="black" d="M249.4,-212.44C265.3,-197.14 286.64,-176.58 303.98,-159.89"/>
<polygon fill="black" stroke="black" points="306.85,-161.98 311.63,-152.52 302,-156.94 306.85,-161.98"/>
</g>
<!-- node0x5030000008b0 -->
<g id="node4" class="node">
<title>node0x5030000008b0</title>
<path fill="#ffd700" stroke="black" d="M206,-0.5C206,-0.5 313,-0.5 313,-0.5 319,-0.5 325,-6.5 325,-12.5 325,-12.5 325,-34.5 325,-34.5 325,-40.5 319,-46.5 313,-46.5 313,-46.5 206,-46.5 206,-46.5 200,-46.5 194,-40.5 194,-34.5 194,-34.5 194,-12.5 194,-12.5 194,-6.5 200,-0.5 206,-0.5"/>
<text text-anchor="middle" x="259.5" y="-31.3" font-family="Times,serif" font-size="14.00">type = 1 (NUM)</text>
<polyline fill="none" stroke="black" points="194,-23.5 325,-23.5 "/>
<text text-anchor="middle" x="259.5" y="-8.3" font-family="Times,serif" font-size="14.00">value = &#39;&#39; 1 &#39;&#39;</text>
</g>
<!-- node0x503000000910&#45;&gt;node0x5030000008b0 -->
<g id="edge3" class="edge">
<title>node0x503000000910&#45;&gt;node0x5030000008b0</title>
<path fill="none" stroke="black" d="M318.59,-106.44C307.76,-91.41 293.27,-71.32 281.35,-54.8"/>
<polygon fill="black" stroke="black" points="284.07,-52.59 275.38,-46.52 278.39,-56.68 284.07,-52.59"/>
</g>
<!-- node0x5030000008e0 -->
<g id="node5" class="node">
<title>node0x5030000008e0</title>
<path fill="#ffd700" stroke="black" d="M355,-0.5C355,-0.5 462,-0.5 462,-0.5 468,-0.5 474,-6.5 474,-12.5 474,-12.5 474,-34.5 474,-34.5 474,-40.5 468,-46.5 462,-46.5 462,-46.5 355,-46.5 355,-46.5 349,-46.5 343,-40.5 343,-34.5 343,-34.5 343,-12.5 343,-12.5 343,-6.5 349,-0.5 355,-0.5"/>
<text text-anchor="middle" x="408.5" y="-31.3" font-family="Times,serif" font-size="14.00">type = 1 (NUM)</text>
<polyline fill="none" stroke="black" points="343,-23.5 474,-23.5 "/>
<text text-anchor="middle" x="408.5" y="-8.3" font-family="Times,serif" font-size="14.00">value = &#39;&#39; 2 &#39;&#39;</text>
</g>
<!-- node0x503000000910&#45;&gt;node0x5030000008e0 -->
<g id="edge4" class="edge">
<title>node0x503000000910&#45;&gt;node0x5030000008e0</title>
<path fill="none" stroke="black" d="M350.19,-106.44C360.89,-91.41 375.18,-71.32 386.94,-54.8"/>
<polygon fill="black" stroke="black" points="389.88,-56.7 392.83,-46.52 384.18,-52.64 389.88,-56.7"/>
</g>
</g>
</svg>
