<?xml version="1.0" encoding="UTF-8" standalone="no"?>
<!DOCTYPE svg PUBLIC "-//W3C//DTD SVG 1.1//EN"
 "http://www.w3.org/Graphics/SVG/1.1/DTD/svg11.dtd">
<!-- Generated by graphviz version 13.1.0 (0)
 -->
<!-- Pages: 1 -->
<svg width="394pt" height="198pt"
 viewBox="0.00 0.00 394.00 198.00" xmlns="http://www.w3.org/2000/svg" xmlns:xlink="http://www.w3.org/1999/xlink">
<g id="graph0" class="graph" transform="scale(1 1) rotate(0) translate(4 193.5)">
<!-- node0x7bfdfe5e0790 -->
<g id="node1" class="node">
<title>node0x7bfdfe5e0790</title>
<path fill="#00ffdd" stroke="black" d="M147.5,-138.5C147.5,-138.5 291,-138.5 291,-138.5 297,-138.5 303,-144.5 303,-150.5 303,-150.5 303,-177 303,-177 303,-183 297,-189 291,-189 291,-189 147.5,-189 147.5,-189 141.5,-189 135.5,-183 135.5,-177 135.5,-177 135.5,-150.5 135.5,-150.5 135.5,-144.5 141.5,-138.5 147.5,-138.5"/>
<text xml:space="preserve" text-anchor="middle" x="219.25" y="-171.7" font-family="Times,serif" font-size="14.00">type = 2 (OP)</text>
<polyline fill="none" stroke="black" points="135.5,-163.75 303,-163.75"/>
<text xml:space="preserve" text-anchor="middle" x="219.25" y="-146.45" font-family="Times,serif" font-size="14.00">value = &#39;&#39; MUL &#39;&#39; (42)</text>
</g>
<!-- node0x7bfdfe5e0730 -->
<g id="node2" class="node">
<title>node0x7bfdfe5e0730</title>
<path fill="#ff5050" stroke="black" d="M12,-0.5C12,-0.5 224.5,-0.5 224.5,-0.5 230.5,-0.5 236.5,-6.5 236.5,-12.5 236.5,-12.5 236.5,-89.5 236.5,-89.5 236.5,-95.5 230.5,-101.5 224.5,-101.5 224.5,-101.5 12,-101.5 12,-101.5 6,-101.5 0,-95.5 0,-89.5 0,-89.5 0,-12.5 0,-12.5 0,-6.5 6,-0.5 12,-0.5"/>
<text xml:space="preserve" text-anchor="middle" x="118.25" y="-84.2" font-family="Times,serif" font-size="14.00">type = 3 (ID)</text>
<polyline fill="none" stroke="black" points="0,-76.25 236.5,-76.25"/>
<text xml:space="preserve" text-anchor="middle" x="118.25" y="-58.95" font-family="Times,serif" font-size="14.00">name = &#39;&#39; result &#39;&#39;</text>
<polyline fill="none" stroke="black" points="0,-51 236.5,-51"/>
<text xml:space="preserve" text-anchor="middle" x="118.25" y="-33.7" font-family="Times,serif" font-size="14.00">number in name table = &#39;&#39; 23 &#39;&#39;</text>
<polyline fill="none" stroke="black" points="0,-25.75 236.5,-25.75"/>
<text xml:space="preserve" text-anchor="middle" x="118.25" y="-8.45" font-family="Times,serif" font-size="14.00">id_type = LOCL</text>
</g>
<!-- node0x7bfdfe5e0790&#45;&gt;node0x7bfdfe5e0730 -->
<g id="edge1" class="edge">
<title>node0x7bfdfe5e0790&#45;&gt;node0x7bfdfe5e0730</title>
<path fill="none" stroke="black" d="M196.83,-138.17C189.21,-129.81 180.33,-120.07 171.34,-110.21"/>
<polygon fill="black" stroke="black" points="174.13,-108.08 164.8,-103.05 168.95,-112.79 174.13,-108.08"/>
</g>
<!-- node0x7bfdfe5e0760 -->
<g id="node3" class="node">
<title>node0x7bfdfe5e0760</title>
<path fill="#ffd700" stroke="black" d="M266.88,-25.75C266.88,-25.75 373.62,-25.75 373.62,-25.75 379.62,-25.75 385.62,-31.75 385.62,-37.75 385.62,-37.75 385.62,-64.25 385.62,-64.25 385.62,-70.25 379.62,-76.25 373.62,-76.25 373.62,-76.25 266.88,-76.25 266.88,-76.25 260.88,-76.25 254.88,-70.25 254.88,-64.25 254.88,-64.25 254.88,-37.75 254.88,-37.75 254.88,-31.75 260.88,-25.75 266.88,-25.75"/>
<text xml:space="preserve" text-anchor="middle" x="320.25" y="-58.95" font-family="Times,serif" font-size="14.00">type = 1 (NUM)</text>
<polyline fill="none" stroke="black" points="254.88,-51 385.62,-51"/>
<text xml:space="preserve" text-anchor="middle" x="320.25" y="-33.7" font-family="Times,serif" font-size="14.00">value = &#39;&#39; 1 &#39;&#39;</text>
</g>
<!-- node0x7bfdfe5e0790&#45;&gt;node0x7bfdfe5e0760 -->
<g id="edge2" class="edge">
<title>node0x7bfdfe5e0790&#45;&gt;node0x7bfdfe5e0760</title>
<path fill="none" stroke="black" d="M241.67,-138.17C256.05,-122.4 274.89,-101.74 290.52,-84.6"/>
<polygon fill="black" stroke="black" points="292.73,-87.38 296.88,-77.63 287.55,-82.66 292.73,-87.38"/>
</g>
</g>
</svg>
