<?xml version="1.0" encoding="UTF-8" standalone="no"?>
<!DOCTYPE svg PUBLIC "-//W3C//DTD SVG 1.1//EN"
 "http://www.w3.org/Graphics/SVG/1.1/DTD/svg11.dtd">
<!-- Generated by graphviz version 2.43.0 (0)
 -->
<!-- Title: %3 Pages: 1 -->
<svg width="1709pt" height="1336pt"
 viewBox="0.00 0.00 1708.50 1336.00" xmlns="http://www.w3.org/2000/svg" xmlns:xlink="http://www.w3.org/1999/xlink">
<g id="graph0" class="graph" transform="scale(1 1) rotate(0) translate(4 1332)">
<title>%3</title>
<!-- node0x503000000730 -->
<g id="node1" class="node">
<title>node0x503000000730</title>
<path fill="#a0a0a0" stroke="black" d="M236,-1281.5C236,-1281.5 472,-1281.5 472,-1281.5 478,-1281.5 484,-1287.5 484,-1293.5 484,-1293.5 484,-1315.5 484,-1315.5 484,-1321.5 478,-1327.5 472,-1327.5 472,-1327.5 236,-1327.5 236,-1327.5 230,-1327.5 224,-1321.5 224,-1315.5 224,-1315.5 224,-1293.5 224,-1293.5 224,-1287.5 230,-1281.5 236,-1281.5"/>
<text text-anchor="middle" x="354" y="-1312.3" font-family="Times,serif" font-size="14.00">type = 4 (FUNC)</text>
<polyline fill="none" stroke="black" points="224,-1304.5 484,-1304.5 "/>
<text text-anchor="middle" x="354" y="-1289.3" font-family="Times,serif" font-size="14.00">value = &#39;&#39; NEXT FUNCTION &#39;&#39; (64)</text>
</g>
<!-- node0x503000000700 -->
<g id="node2" class="node">
<title>node0x503000000700</title>
<path fill="#755cf7" stroke="black" d="M254,-1198.5C254,-1198.5 454,-1198.5 454,-1198.5 460,-1198.5 466,-1204.5 466,-1210.5 466,-1210.5 466,-1232.5 466,-1232.5 466,-1238.5 460,-1244.5 454,-1244.5 454,-1244.5 254,-1244.5 254,-1244.5 248,-1244.5 242,-1238.5 242,-1232.5 242,-1232.5 242,-1210.5 242,-1210.5 242,-1204.5 248,-1198.5 254,-1198.5"/>
<text text-anchor="middle" x="354" y="-1229.3" font-family="Times,serif" font-size="14.00">type = 4 (FUNC)</text>
<polyline fill="none" stroke="black" points="242,-1221.5 466,-1221.5 "/>
<text text-anchor="middle" x="354" y="-1206.3" font-family="Times,serif" font-size="14.00">value = &#39;&#39; DEFINITION &#39;&#39; (68)</text>
</g>
<!-- node0x503000000730&#45;&gt;node0x503000000700 -->
<g id="edge1" class="edge">
<title>node0x503000000730&#45;&gt;node0x503000000700</title>
<path fill="none" stroke="black" d="M354,-1281.37C354,-1273.15 354,-1263.66 354,-1254.73"/>
<polygon fill="black" stroke="black" points="357.5,-1254.61 354,-1244.61 350.5,-1254.61 357.5,-1254.61"/>
</g>
<!-- node0x5030000000d0 -->
<g id="node3" class="node">
<title>node0x5030000000d0</title>
<path fill="#f069f5" stroke="black" d="M179.5,-1115.5C179.5,-1115.5 326.5,-1115.5 326.5,-1115.5 332.5,-1115.5 338.5,-1121.5 338.5,-1127.5 338.5,-1127.5 338.5,-1149.5 338.5,-1149.5 338.5,-1155.5 332.5,-1161.5 326.5,-1161.5 326.5,-1161.5 179.5,-1161.5 179.5,-1161.5 173.5,-1161.5 167.5,-1155.5 167.5,-1149.5 167.5,-1149.5 167.5,-1127.5 167.5,-1127.5 167.5,-1121.5 173.5,-1115.5 179.5,-1115.5"/>
<text text-anchor="middle" x="253" y="-1146.3" font-family="Times,serif" font-size="14.00">type = 4 (FUNC)</text>
<polyline fill="none" stroke="black" points="167.5,-1138.5 338.5,-1138.5 "/>
<text text-anchor="middle" x="253" y="-1123.3" font-family="Times,serif" font-size="14.00">value = &#39;&#39; CALL &#39;&#39; (67)</text>
</g>
<!-- node0x503000000700&#45;&gt;node0x5030000000d0 -->
<g id="edge2" class="edge">
<title>node0x503000000700&#45;&gt;node0x5030000000d0</title>
<path fill="none" stroke="black" d="M326.4,-1198.37C314.71,-1188.99 300.94,-1177.95 288.51,-1167.98"/>
<polygon fill="black" stroke="black" points="290.56,-1165.13 280.57,-1161.61 286.18,-1170.59 290.56,-1165.13"/>
</g>
<!-- node0x503000000190 -->
<g id="node4" class="node">
<title>node0x503000000190</title>
<path fill="#e0e0e0" stroke="black" d="M394.5,-1115.5C394.5,-1115.5 567.5,-1115.5 567.5,-1115.5 573.5,-1115.5 579.5,-1121.5 579.5,-1127.5 579.5,-1127.5 579.5,-1149.5 579.5,-1149.5 579.5,-1155.5 573.5,-1161.5 567.5,-1161.5 567.5,-1161.5 394.5,-1161.5 394.5,-1161.5 388.5,-1161.5 382.5,-1155.5 382.5,-1149.5 382.5,-1149.5 382.5,-1127.5 382.5,-1127.5 382.5,-1121.5 388.5,-1115.5 394.5,-1115.5"/>
<text text-anchor="middle" x="481" y="-1146.3" font-family="Times,serif" font-size="14.00">type = 2 (OP)</text>
<polyline fill="none" stroke="black" points="382.5,-1138.5 579.5,-1138.5 "/>
<text text-anchor="middle" x="481" y="-1123.3" font-family="Times,serif" font-size="14.00">value = &#39;&#39; SHUTUP &#39;&#39; (59)</text>
</g>
<!-- node0x503000000700&#45;&gt;node0x503000000190 -->
<g id="edge3" class="edge">
<title>node0x503000000700&#45;&gt;node0x503000000190</title>
<path fill="none" stroke="black" d="M388.7,-1198.37C403.82,-1188.72 421.71,-1177.32 437.69,-1167.13"/>
<polygon fill="black" stroke="black" points="439.79,-1169.94 446.34,-1161.61 436.03,-1164.03 439.79,-1169.94"/>
</g>
<!-- node0x503000000040 -->
<g id="node5" class="node">
<title>node0x503000000040</title>
<path fill="#2ee31e" stroke="black" d="M12,-1032.5C12,-1032.5 154,-1032.5 154,-1032.5 160,-1032.5 166,-1038.5 166,-1044.5 166,-1044.5 166,-1066.5 166,-1066.5 166,-1072.5 160,-1078.5 154,-1078.5 154,-1078.5 12,-1078.5 12,-1078.5 6,-1078.5 0,-1072.5 0,-1066.5 0,-1066.5 0,-1044.5 0,-1044.5 0,-1038.5 6,-1032.5 12,-1032.5"/>
<text text-anchor="middle" x="83" y="-1063.3" font-family="Times,serif" font-size="14.00">type = 4 (FUNC)</text>
<polyline fill="none" stroke="black" points="0,-1055.5 166,-1055.5 "/>
<text text-anchor="middle" x="83" y="-1040.3" font-family="Times,serif" font-size="14.00">value = &#39;&#39; carti &#39;&#39; (20)</text>
</g>
<!-- node0x5030000000d0&#45;&gt;node0x503000000040 -->
<g id="edge4" class="edge">
<title>node0x5030000000d0&#45;&gt;node0x503000000040</title>
<path fill="none" stroke="black" d="M206.55,-1115.37C185.56,-1105.37 160.59,-1093.47 138.61,-1083"/>
<polygon fill="black" stroke="black" points="139.93,-1079.75 129.4,-1078.61 136.92,-1086.07 139.93,-1079.75"/>
</g>
<!-- node0x5030000000a0 -->
<g id="node6" class="node">
<title>node0x5030000000a0</title>
<path fill="#feaadf" stroke="black" d="M196.5,-1032.5C196.5,-1032.5 309.5,-1032.5 309.5,-1032.5 315.5,-1032.5 321.5,-1038.5 321.5,-1044.5 321.5,-1044.5 321.5,-1066.5 321.5,-1066.5 321.5,-1072.5 315.5,-1078.5 309.5,-1078.5 309.5,-1078.5 196.5,-1078.5 196.5,-1078.5 190.5,-1078.5 184.5,-1072.5 184.5,-1066.5 184.5,-1066.5 184.5,-1044.5 184.5,-1044.5 184.5,-1038.5 190.5,-1032.5 196.5,-1032.5"/>
<text text-anchor="middle" x="253" y="-1063.3" font-family="Times,serif" font-size="14.00">type = 4 (FUNC)</text>
<polyline fill="none" stroke="black" points="184.5,-1055.5 321.5,-1055.5 "/>
<text text-anchor="middle" x="253" y="-1040.3" font-family="Times,serif" font-size="14.00">value = &#39;&#39; , &#39;&#39; (44)</text>
</g>
<!-- node0x5030000000d0&#45;&gt;node0x5030000000a0 -->
<g id="edge5" class="edge">
<title>node0x5030000000d0&#45;&gt;node0x5030000000a0</title>
<path fill="none" stroke="black" d="M253,-1115.37C253,-1107.15 253,-1097.66 253,-1088.73"/>
<polygon fill="black" stroke="black" points="256.5,-1088.61 253,-1078.61 249.5,-1088.61 256.5,-1088.61"/>
</g>
<!-- node0x503000000160 -->
<g id="node8" class="node">
<title>node0x503000000160</title>
<path fill="#00ffdd" stroke="black" d="M420.5,-1032.5C420.5,-1032.5 541.5,-1032.5 541.5,-1032.5 547.5,-1032.5 553.5,-1038.5 553.5,-1044.5 553.5,-1044.5 553.5,-1066.5 553.5,-1066.5 553.5,-1072.5 547.5,-1078.5 541.5,-1078.5 541.5,-1078.5 420.5,-1078.5 420.5,-1078.5 414.5,-1078.5 408.5,-1072.5 408.5,-1066.5 408.5,-1066.5 408.5,-1044.5 408.5,-1044.5 408.5,-1038.5 414.5,-1032.5 420.5,-1032.5"/>
<text text-anchor="middle" x="481" y="-1063.3" font-family="Times,serif" font-size="14.00">type = 2 (OP)</text>
<polyline fill="none" stroke="black" points="408.5,-1055.5 553.5,-1055.5 "/>
<text text-anchor="middle" x="481" y="-1040.3" font-family="Times,serif" font-size="14.00">value = &#39;&#39; = &#39;&#39; (61)</text>
</g>
<!-- node0x503000000190&#45;&gt;node0x503000000160 -->
<g id="edge7" class="edge">
<title>node0x503000000190&#45;&gt;node0x503000000160</title>
<path fill="none" stroke="black" d="M481,-1115.37C481,-1107.15 481,-1097.66 481,-1088.73"/>
<polygon fill="black" stroke="black" points="484.5,-1088.61 481,-1078.61 477.5,-1088.61 484.5,-1088.61"/>
</g>
<!-- node0x503000000250 -->
<g id="node9" class="node">
<title>node0x503000000250</title>
<path fill="#e0e0e0" stroke="black" d="M668.5,-1032.5C668.5,-1032.5 841.5,-1032.5 841.5,-1032.5 847.5,-1032.5 853.5,-1038.5 853.5,-1044.5 853.5,-1044.5 853.5,-1066.5 853.5,-1066.5 853.5,-1072.5 847.5,-1078.5 841.5,-1078.5 841.5,-1078.5 668.5,-1078.5 668.5,-1078.5 662.5,-1078.5 656.5,-1072.5 656.5,-1066.5 656.5,-1066.5 656.5,-1044.5 656.5,-1044.5 656.5,-1038.5 662.5,-1032.5 668.5,-1032.5"/>
<text text-anchor="middle" x="755" y="-1063.3" font-family="Times,serif" font-size="14.00">type = 2 (OP)</text>
<polyline fill="none" stroke="black" points="656.5,-1055.5 853.5,-1055.5 "/>
<text text-anchor="middle" x="755" y="-1040.3" font-family="Times,serif" font-size="14.00">value = &#39;&#39; SHUTUP &#39;&#39; (59)</text>
</g>
<!-- node0x503000000190&#45;&gt;node0x503000000250 -->
<g id="edge8" class="edge">
<title>node0x503000000190&#45;&gt;node0x503000000250</title>
<path fill="none" stroke="black" d="M555.51,-1115.47C591.15,-1104.94 633.97,-1092.28 670.79,-1081.39"/>
<polygon fill="black" stroke="black" points="671.91,-1084.71 680.51,-1078.52 669.92,-1078 671.91,-1084.71"/>
</g>
<!-- node0x503000000070 -->
<g id="node7" class="node">
<title>node0x503000000070</title>
<path fill="#ff5050" stroke="black" d="M35.5,-903.5C35.5,-903.5 248.5,-903.5 248.5,-903.5 254.5,-903.5 260.5,-909.5 260.5,-915.5 260.5,-915.5 260.5,-983.5 260.5,-983.5 260.5,-989.5 254.5,-995.5 248.5,-995.5 248.5,-995.5 35.5,-995.5 35.5,-995.5 29.5,-995.5 23.5,-989.5 23.5,-983.5 23.5,-983.5 23.5,-915.5 23.5,-915.5 23.5,-909.5 29.5,-903.5 35.5,-903.5"/>
<text text-anchor="middle" x="142" y="-980.3" font-family="Times,serif" font-size="14.00">type = 3 (ID)</text>
<polyline fill="none" stroke="black" points="23.5,-972.5 260.5,-972.5 "/>
<text text-anchor="middle" x="142" y="-957.3" font-family="Times,serif" font-size="14.00">name = &#39;&#39; argc &#39;&#39;</text>
<polyline fill="none" stroke="black" points="23.5,-949.5 260.5,-949.5 "/>
<text text-anchor="middle" x="142" y="-934.3" font-family="Times,serif" font-size="14.00">number in name table = &#39;&#39; 21 &#39;&#39;</text>
<polyline fill="none" stroke="black" points="23.5,-926.5 260.5,-926.5 "/>
<text text-anchor="middle" x="142" y="-911.3" font-family="Times,serif" font-size="14.00">id_type = PARM</text>
</g>
<!-- node0x5030000000a0&#45;&gt;node0x503000000070 -->
<g id="edge6" class="edge">
<title>node0x5030000000a0&#45;&gt;node0x503000000070</title>
<path fill="none" stroke="black" d="M229.46,-1032.44C220.06,-1023.64 208.81,-1013.1 197.56,-1002.55"/>
<polygon fill="black" stroke="black" points="199.87,-999.93 190.18,-995.64 195.09,-1005.03 199.87,-999.93"/>
</g>
<!-- node0x503000000100 -->
<g id="node10" class="node">
<title>node0x503000000100</title>
<path fill="#ff5050" stroke="black" d="M290.5,-903.5C290.5,-903.5 503.5,-903.5 503.5,-903.5 509.5,-903.5 515.5,-909.5 515.5,-915.5 515.5,-915.5 515.5,-983.5 515.5,-983.5 515.5,-989.5 509.5,-995.5 503.5,-995.5 503.5,-995.5 290.5,-995.5 290.5,-995.5 284.5,-995.5 278.5,-989.5 278.5,-983.5 278.5,-983.5 278.5,-915.5 278.5,-915.5 278.5,-909.5 284.5,-903.5 290.5,-903.5"/>
<text text-anchor="middle" x="397" y="-980.3" font-family="Times,serif" font-size="14.00">type = 3 (ID)</text>
<polyline fill="none" stroke="black" points="278.5,-972.5 515.5,-972.5 "/>
<text text-anchor="middle" x="397" y="-957.3" font-family="Times,serif" font-size="14.00">name = &#39;&#39; numb &#39;&#39;</text>
<polyline fill="none" stroke="black" points="278.5,-949.5 515.5,-949.5 "/>
<text text-anchor="middle" x="397" y="-934.3" font-family="Times,serif" font-size="14.00">number in name table = &#39;&#39; 22 &#39;&#39;</text>
<polyline fill="none" stroke="black" points="278.5,-926.5 515.5,-926.5 "/>
<text text-anchor="middle" x="397" y="-911.3" font-family="Times,serif" font-size="14.00">id_type = LOCL</text>
</g>
<!-- node0x503000000160&#45;&gt;node0x503000000100 -->
<g id="edge9" class="edge">
<title>node0x503000000160&#45;&gt;node0x503000000100</title>
<path fill="none" stroke="black" d="M463.19,-1032.44C456.28,-1023.89 448.05,-1013.7 439.77,-1003.46"/>
<polygon fill="black" stroke="black" points="442.47,-1001.22 433.46,-995.64 437.02,-1005.62 442.47,-1001.22"/>
</g>
<!-- node0x503000000130 -->
<g id="node11" class="node">
<title>node0x503000000130</title>
<path fill="#ffd700" stroke="black" d="M545.5,-926.5C545.5,-926.5 652.5,-926.5 652.5,-926.5 658.5,-926.5 664.5,-932.5 664.5,-938.5 664.5,-938.5 664.5,-960.5 664.5,-960.5 664.5,-966.5 658.5,-972.5 652.5,-972.5 652.5,-972.5 545.5,-972.5 545.5,-972.5 539.5,-972.5 533.5,-966.5 533.5,-960.5 533.5,-960.5 533.5,-938.5 533.5,-938.5 533.5,-932.5 539.5,-926.5 545.5,-926.5"/>
<text text-anchor="middle" x="599" y="-957.3" font-family="Times,serif" font-size="14.00">type = 1 (NUM)</text>
<polyline fill="none" stroke="black" points="533.5,-949.5 664.5,-949.5 "/>
<text text-anchor="middle" x="599" y="-934.3" font-family="Times,serif" font-size="14.00">value = &#39;&#39; 5 &#39;&#39;</text>
</g>
<!-- node0x503000000160&#45;&gt;node0x503000000130 -->
<g id="edge10" class="edge">
<title>node0x503000000160&#45;&gt;node0x503000000130</title>
<path fill="none" stroke="black" d="M506.02,-1032.44C523.62,-1016.93 547.34,-996.03 566.42,-979.22"/>
<polygon fill="black" stroke="black" points="568.82,-981.76 574.01,-972.52 564.19,-976.51 568.82,-981.76"/>
</g>
<!-- node0x503000000220 -->
<g id="node12" class="node">
<title>node0x503000000220</title>
<path fill="#00ffdd" stroke="black" d="M694.5,-926.5C694.5,-926.5 815.5,-926.5 815.5,-926.5 821.5,-926.5 827.5,-932.5 827.5,-938.5 827.5,-938.5 827.5,-960.5 827.5,-960.5 827.5,-966.5 821.5,-972.5 815.5,-972.5 815.5,-972.5 694.5,-972.5 694.5,-972.5 688.5,-972.5 682.5,-966.5 682.5,-960.5 682.5,-960.5 682.5,-938.5 682.5,-938.5 682.5,-932.5 688.5,-926.5 694.5,-926.5"/>
<text text-anchor="middle" x="755" y="-957.3" font-family="Times,serif" font-size="14.00">type = 2 (OP)</text>
<polyline fill="none" stroke="black" points="682.5,-949.5 827.5,-949.5 "/>
<text text-anchor="middle" x="755" y="-934.3" font-family="Times,serif" font-size="14.00">value = &#39;&#39; = &#39;&#39; (61)</text>
</g>
<!-- node0x503000000250&#45;&gt;node0x503000000220 -->
<g id="edge11" class="edge">
<title>node0x503000000250&#45;&gt;node0x503000000220</title>
<path fill="none" stroke="black" d="M755,-1032.44C755,-1017.97 755,-998.79 755,-982.63"/>
<polygon fill="black" stroke="black" points="758.5,-982.52 755,-972.52 751.5,-982.52 758.5,-982.52"/>
</g>
<!-- node0x503000000310 -->
<g id="node13" class="node">
<title>node0x503000000310</title>
<path fill="#e0e0e0" stroke="black" d="M857.5,-926.5C857.5,-926.5 1030.5,-926.5 1030.5,-926.5 1036.5,-926.5 1042.5,-932.5 1042.5,-938.5 1042.5,-938.5 1042.5,-960.5 1042.5,-960.5 1042.5,-966.5 1036.5,-972.5 1030.5,-972.5 1030.5,-972.5 857.5,-972.5 857.5,-972.5 851.5,-972.5 845.5,-966.5 845.5,-960.5 845.5,-960.5 845.5,-938.5 845.5,-938.5 845.5,-932.5 851.5,-926.5 857.5,-926.5"/>
<text text-anchor="middle" x="944" y="-957.3" font-family="Times,serif" font-size="14.00">type = 2 (OP)</text>
<polyline fill="none" stroke="black" points="845.5,-949.5 1042.5,-949.5 "/>
<text text-anchor="middle" x="944" y="-934.3" font-family="Times,serif" font-size="14.00">value = &#39;&#39; SHUTUP &#39;&#39; (59)</text>
</g>
<!-- node0x503000000250&#45;&gt;node0x503000000310 -->
<g id="edge12" class="edge">
<title>node0x503000000250&#45;&gt;node0x503000000310</title>
<path fill="none" stroke="black" d="M795.08,-1032.44C824.27,-1016.38 863.98,-994.53 895.05,-977.44"/>
<polygon fill="black" stroke="black" points="896.9,-980.41 903.98,-972.52 893.53,-974.28 896.9,-980.41"/>
</g>
<!-- node0x5030000001c0 -->
<g id="node14" class="node">
<title>node0x5030000001c0</title>
<path fill="#ff5050" stroke="black" d="M455.5,-774.5C455.5,-774.5 668.5,-774.5 668.5,-774.5 674.5,-774.5 680.5,-780.5 680.5,-786.5 680.5,-786.5 680.5,-854.5 680.5,-854.5 680.5,-860.5 674.5,-866.5 668.5,-866.5 668.5,-866.5 455.5,-866.5 455.5,-866.5 449.5,-866.5 443.5,-860.5 443.5,-854.5 443.5,-854.5 443.5,-786.5 443.5,-786.5 443.5,-780.5 449.5,-774.5 455.5,-774.5"/>
<text text-anchor="middle" x="562" y="-851.3" font-family="Times,serif" font-size="14.00">type = 3 (ID)</text>
<polyline fill="none" stroke="black" points="443.5,-843.5 680.5,-843.5 "/>
<text text-anchor="middle" x="562" y="-828.3" font-family="Times,serif" font-size="14.00">name = &#39;&#39; result &#39;&#39;</text>
<polyline fill="none" stroke="black" points="443.5,-820.5 680.5,-820.5 "/>
<text text-anchor="middle" x="562" y="-805.3" font-family="Times,serif" font-size="14.00">number in name table = &#39;&#39; 23 &#39;&#39;</text>
<polyline fill="none" stroke="black" points="443.5,-797.5 680.5,-797.5 "/>
<text text-anchor="middle" x="562" y="-782.3" font-family="Times,serif" font-size="14.00">id_type = LOCL</text>
</g>
<!-- node0x503000000220&#45;&gt;node0x5030000001c0 -->
<g id="edge13" class="edge">
<title>node0x503000000220&#45;&gt;node0x5030000001c0</title>
<path fill="none" stroke="black" d="M721.38,-926.38C698.68,-911.44 667.74,-891.08 639.17,-872.28"/>
<polygon fill="black" stroke="black" points="641.06,-869.33 630.78,-866.76 637.21,-875.18 641.06,-869.33"/>
</g>
<!-- node0x5030000001f0 -->
<g id="node15" class="node">
<title>node0x5030000001f0</title>
<path fill="#ffd700" stroke="black" d="M710.5,-797.5C710.5,-797.5 817.5,-797.5 817.5,-797.5 823.5,-797.5 829.5,-803.5 829.5,-809.5 829.5,-809.5 829.5,-831.5 829.5,-831.5 829.5,-837.5 823.5,-843.5 817.5,-843.5 817.5,-843.5 710.5,-843.5 710.5,-843.5 704.5,-843.5 698.5,-837.5 698.5,-831.5 698.5,-831.5 698.5,-809.5 698.5,-809.5 698.5,-803.5 704.5,-797.5 710.5,-797.5"/>
<text text-anchor="middle" x="764" y="-828.3" font-family="Times,serif" font-size="14.00">type = 1 (NUM)</text>
<polyline fill="none" stroke="black" points="698.5,-820.5 829.5,-820.5 "/>
<text text-anchor="middle" x="764" y="-805.3" font-family="Times,serif" font-size="14.00">value = &#39;&#39; 1 &#39;&#39;</text>
</g>
<!-- node0x503000000220&#45;&gt;node0x5030000001f0 -->
<g id="edge14" class="edge">
<title>node0x503000000220&#45;&gt;node0x5030000001f0</title>
<path fill="none" stroke="black" d="M756.57,-926.38C757.99,-906.38 760.09,-876.68 761.7,-853.98"/>
<polygon fill="black" stroke="black" points="765.2,-854.02 762.42,-843.79 758.22,-853.52 765.2,-854.02"/>
</g>
<!-- node0x5030000002e0 -->
<g id="node16" class="node">
<title>node0x5030000002e0</title>
<path fill="#00ffdd" stroke="black" d="M875.5,-797.5C875.5,-797.5 996.5,-797.5 996.5,-797.5 1002.5,-797.5 1008.5,-803.5 1008.5,-809.5 1008.5,-809.5 1008.5,-831.5 1008.5,-831.5 1008.5,-837.5 1002.5,-843.5 996.5,-843.5 996.5,-843.5 875.5,-843.5 875.5,-843.5 869.5,-843.5 863.5,-837.5 863.5,-831.5 863.5,-831.5 863.5,-809.5 863.5,-809.5 863.5,-803.5 869.5,-797.5 875.5,-797.5"/>
<text text-anchor="middle" x="936" y="-828.3" font-family="Times,serif" font-size="14.00">type = 2 (OP)</text>
<polyline fill="none" stroke="black" points="863.5,-820.5 1008.5,-820.5 "/>
<text text-anchor="middle" x="936" y="-805.3" font-family="Times,serif" font-size="14.00">value = &#39;&#39; = &#39;&#39; (61)</text>
</g>
<!-- node0x503000000310&#45;&gt;node0x5030000002e0 -->
<g id="edge15" class="edge">
<title>node0x503000000310&#45;&gt;node0x5030000002e0</title>
<path fill="none" stroke="black" d="M942.61,-926.38C941.35,-906.38 939.48,-876.68 938.05,-853.98"/>
<polygon fill="black" stroke="black" points="941.53,-853.55 937.4,-843.79 934.54,-853.99 941.53,-853.55"/>
</g>
<!-- node0x5030000005e0 -->
<g id="node17" class="node">
<title>node0x5030000005e0</title>
<path fill="#e0e0e0" stroke="black" d="M1038.5,-797.5C1038.5,-797.5 1211.5,-797.5 1211.5,-797.5 1217.5,-797.5 1223.5,-803.5 1223.5,-809.5 1223.5,-809.5 1223.5,-831.5 1223.5,-831.5 1223.5,-837.5 1217.5,-843.5 1211.5,-843.5 1211.5,-843.5 1038.5,-843.5 1038.5,-843.5 1032.5,-843.5 1026.5,-837.5 1026.5,-831.5 1026.5,-831.5 1026.5,-809.5 1026.5,-809.5 1026.5,-803.5 1032.5,-797.5 1038.5,-797.5"/>
<text text-anchor="middle" x="1125" y="-828.3" font-family="Times,serif" font-size="14.00">type = 2 (OP)</text>
<polyline fill="none" stroke="black" points="1026.5,-820.5 1223.5,-820.5 "/>
<text text-anchor="middle" x="1125" y="-805.3" font-family="Times,serif" font-size="14.00">value = &#39;&#39; SHUTUP &#39;&#39; (59)</text>
</g>
<!-- node0x503000000310&#45;&gt;node0x5030000005e0 -->
<g id="edge16" class="edge">
<title>node0x503000000310&#45;&gt;node0x5030000005e0</title>
<path fill="none" stroke="black" d="M975.53,-926.38C1005.93,-905.05 1052.06,-872.68 1085.03,-849.55"/>
<polygon fill="black" stroke="black" points="1087.35,-852.19 1093.53,-843.58 1083.33,-846.46 1087.35,-852.19"/>
</g>
<!-- node0x503000000280 -->
<g id="node18" class="node">
<title>node0x503000000280</title>
<path fill="#ff5050" stroke="black" d="M629.5,-645.5C629.5,-645.5 842.5,-645.5 842.5,-645.5 848.5,-645.5 854.5,-651.5 854.5,-657.5 854.5,-657.5 854.5,-725.5 854.5,-725.5 854.5,-731.5 848.5,-737.5 842.5,-737.5 842.5,-737.5 629.5,-737.5 629.5,-737.5 623.5,-737.5 617.5,-731.5 617.5,-725.5 617.5,-725.5 617.5,-657.5 617.5,-657.5 617.5,-651.5 623.5,-645.5 629.5,-645.5"/>
<text text-anchor="middle" x="736" y="-722.3" font-family="Times,serif" font-size="14.00">type = 3 (ID)</text>
<polyline fill="none" stroke="black" points="617.5,-714.5 854.5,-714.5 "/>
<text text-anchor="middle" x="736" y="-699.3" font-family="Times,serif" font-size="14.00">name = &#39;&#39; old &#39;&#39;</text>
<polyline fill="none" stroke="black" points="617.5,-691.5 854.5,-691.5 "/>
<text text-anchor="middle" x="736" y="-676.3" font-family="Times,serif" font-size="14.00">number in name table = &#39;&#39; 24 &#39;&#39;</text>
<polyline fill="none" stroke="black" points="617.5,-668.5 854.5,-668.5 "/>
<text text-anchor="middle" x="736" y="-653.3" font-family="Times,serif" font-size="14.00">id_type = LOCL</text>
</g>
<!-- node0x5030000002e0&#45;&gt;node0x503000000280 -->
<g id="edge17" class="edge">
<title>node0x5030000002e0&#45;&gt;node0x503000000280</title>
<path fill="none" stroke="black" d="M901.16,-797.38C877.63,-782.44 845.58,-762.08 815.97,-743.28"/>
<polygon fill="black" stroke="black" points="817.6,-740.17 807.28,-737.76 813.84,-746.08 817.6,-740.17"/>
</g>
<!-- node0x5030000002b0 -->
<g id="node19" class="node">
<title>node0x5030000002b0</title>
<path fill="#ffd700" stroke="black" d="M884.5,-668.5C884.5,-668.5 991.5,-668.5 991.5,-668.5 997.5,-668.5 1003.5,-674.5 1003.5,-680.5 1003.5,-680.5 1003.5,-702.5 1003.5,-702.5 1003.5,-708.5 997.5,-714.5 991.5,-714.5 991.5,-714.5 884.5,-714.5 884.5,-714.5 878.5,-714.5 872.5,-708.5 872.5,-702.5 872.5,-702.5 872.5,-680.5 872.5,-680.5 872.5,-674.5 878.5,-668.5 884.5,-668.5"/>
<text text-anchor="middle" x="938" y="-699.3" font-family="Times,serif" font-size="14.00">type = 1 (NUM)</text>
<polyline fill="none" stroke="black" points="872.5,-691.5 1003.5,-691.5 "/>
<text text-anchor="middle" x="938" y="-676.3" font-family="Times,serif" font-size="14.00">value = &#39;&#39; 1 &#39;&#39;</text>
</g>
<!-- node0x5030000002e0&#45;&gt;node0x5030000002b0 -->
<g id="edge18" class="edge">
<title>node0x5030000002e0&#45;&gt;node0x5030000002b0</title>
<path fill="none" stroke="black" d="M936.35,-797.38C936.66,-777.38 937.13,-747.68 937.49,-724.98"/>
<polygon fill="black" stroke="black" points="940.99,-724.85 937.65,-714.79 933.99,-724.74 940.99,-724.85"/>
</g>
<!-- node0x5030000005b0 -->
<g id="node20" class="node">
<title>node0x5030000005b0</title>
<path fill="#df73df" stroke="black" d="M1036.5,-668.5C1036.5,-668.5 1211.5,-668.5 1211.5,-668.5 1217.5,-668.5 1223.5,-674.5 1223.5,-680.5 1223.5,-680.5 1223.5,-702.5 1223.5,-702.5 1223.5,-708.5 1217.5,-714.5 1211.5,-714.5 1211.5,-714.5 1036.5,-714.5 1036.5,-714.5 1030.5,-714.5 1024.5,-708.5 1024.5,-702.5 1024.5,-702.5 1024.5,-680.5 1024.5,-680.5 1024.5,-674.5 1030.5,-668.5 1036.5,-668.5"/>
<text text-anchor="middle" x="1124" y="-699.3" font-family="Times,serif" font-size="14.00">type = 2 (OP)</text>
<polyline fill="none" stroke="black" points="1024.5,-691.5 1223.5,-691.5 "/>
<text text-anchor="middle" x="1124" y="-676.3" font-family="Times,serif" font-size="14.00">value = &#39;&#39; MONEY &#39;&#39; (119)</text>
</g>
<!-- node0x5030000005e0&#45;&gt;node0x5030000005b0 -->
<g id="edge19" class="edge">
<title>node0x5030000005e0&#45;&gt;node0x5030000005b0</title>
<path fill="none" stroke="black" d="M1124.83,-797.38C1124.67,-777.38 1124.43,-747.68 1124.26,-724.98"/>
<polygon fill="black" stroke="black" points="1127.75,-724.77 1124.18,-714.79 1120.75,-724.82 1127.75,-724.77"/>
</g>
<!-- node0x5030000006d0 -->
<g id="node21" class="node">
<title>node0x5030000006d0</title>
<path fill="#e0e0e0" stroke="black" d="M1262.5,-668.5C1262.5,-668.5 1435.5,-668.5 1435.5,-668.5 1441.5,-668.5 1447.5,-674.5 1447.5,-680.5 1447.5,-680.5 1447.5,-702.5 1447.5,-702.5 1447.5,-708.5 1441.5,-714.5 1435.5,-714.5 1435.5,-714.5 1262.5,-714.5 1262.5,-714.5 1256.5,-714.5 1250.5,-708.5 1250.5,-702.5 1250.5,-702.5 1250.5,-680.5 1250.5,-680.5 1250.5,-674.5 1256.5,-668.5 1262.5,-668.5"/>
<text text-anchor="middle" x="1349" y="-699.3" font-family="Times,serif" font-size="14.00">type = 2 (OP)</text>
<polyline fill="none" stroke="black" points="1250.5,-691.5 1447.5,-691.5 "/>
<text text-anchor="middle" x="1349" y="-676.3" font-family="Times,serif" font-size="14.00">value = &#39;&#39; SHUTUP &#39;&#39; (59)</text>
</g>
<!-- node0x5030000005e0&#45;&gt;node0x5030000006d0 -->
<g id="edge20" class="edge">
<title>node0x5030000005e0&#45;&gt;node0x5030000006d0</title>
<path fill="none" stroke="black" d="M1164.02,-797.38C1202.2,-775.73 1260.44,-742.71 1301.34,-719.52"/>
<polygon fill="black" stroke="black" points="1303.08,-722.56 1310.05,-714.58 1299.63,-716.47 1303.08,-722.56"/>
</g>
<!-- node0x503000000340 -->
<g id="node22" class="node">
<title>node0x503000000340</title>
<path fill="#ff5050" stroke="black" d="M782.5,-516.5C782.5,-516.5 995.5,-516.5 995.5,-516.5 1001.5,-516.5 1007.5,-522.5 1007.5,-528.5 1007.5,-528.5 1007.5,-596.5 1007.5,-596.5 1007.5,-602.5 1001.5,-608.5 995.5,-608.5 995.5,-608.5 782.5,-608.5 782.5,-608.5 776.5,-608.5 770.5,-602.5 770.5,-596.5 770.5,-596.5 770.5,-528.5 770.5,-528.5 770.5,-522.5 776.5,-516.5 782.5,-516.5"/>
<text text-anchor="middle" x="889" y="-593.3" font-family="Times,serif" font-size="14.00">type = 3 (ID)</text>
<polyline fill="none" stroke="black" points="770.5,-585.5 1007.5,-585.5 "/>
<text text-anchor="middle" x="889" y="-570.3" font-family="Times,serif" font-size="14.00">name = &#39;&#39; numb &#39;&#39;</text>
<polyline fill="none" stroke="black" points="770.5,-562.5 1007.5,-562.5 "/>
<text text-anchor="middle" x="889" y="-547.3" font-family="Times,serif" font-size="14.00">number in name table = &#39;&#39; 22 &#39;&#39;</text>
<polyline fill="none" stroke="black" points="770.5,-539.5 1007.5,-539.5 "/>
<text text-anchor="middle" x="889" y="-524.3" font-family="Times,serif" font-size="14.00">id_type = LOCL</text>
</g>
<!-- node0x5030000005b0&#45;&gt;node0x503000000340 -->
<g id="edge21" class="edge">
<title>node0x5030000005b0&#45;&gt;node0x503000000340</title>
<path fill="none" stroke="black" d="M1083.07,-668.38C1055.06,-653.24 1016.78,-632.56 981.62,-613.55"/>
<polygon fill="black" stroke="black" points="983.21,-610.44 972.75,-608.76 979.89,-616.6 983.21,-610.44"/>
</g>
<!-- node0x503000000460 -->
<g id="node23" class="node">
<title>node0x503000000460</title>
<path fill="#e0e0e0" stroke="black" d="M1037.5,-539.5C1037.5,-539.5 1210.5,-539.5 1210.5,-539.5 1216.5,-539.5 1222.5,-545.5 1222.5,-551.5 1222.5,-551.5 1222.5,-573.5 1222.5,-573.5 1222.5,-579.5 1216.5,-585.5 1210.5,-585.5 1210.5,-585.5 1037.5,-585.5 1037.5,-585.5 1031.5,-585.5 1025.5,-579.5 1025.5,-573.5 1025.5,-573.5 1025.5,-551.5 1025.5,-551.5 1025.5,-545.5 1031.5,-539.5 1037.5,-539.5"/>
<text text-anchor="middle" x="1124" y="-570.3" font-family="Times,serif" font-size="14.00">type = 2 (OP)</text>
<polyline fill="none" stroke="black" points="1025.5,-562.5 1222.5,-562.5 "/>
<text text-anchor="middle" x="1124" y="-547.3" font-family="Times,serif" font-size="14.00">value = &#39;&#39; SHUTUP &#39;&#39; (59)</text>
</g>
<!-- node0x5030000005b0&#45;&gt;node0x503000000460 -->
<g id="edge22" class="edge">
<title>node0x5030000005b0&#45;&gt;node0x503000000460</title>
<path fill="none" stroke="black" d="M1124,-668.38C1124,-648.38 1124,-618.68 1124,-595.98"/>
<polygon fill="black" stroke="black" points="1127.5,-595.79 1124,-585.79 1120.5,-595.79 1127.5,-595.79"/>
</g>
<!-- node0x5030000006a0 -->
<g id="node35" class="node">
<title>node0x5030000006a0</title>
<path fill="#00ffdd" stroke="black" d="M1298.5,-539.5C1298.5,-539.5 1419.5,-539.5 1419.5,-539.5 1425.5,-539.5 1431.5,-545.5 1431.5,-551.5 1431.5,-551.5 1431.5,-573.5 1431.5,-573.5 1431.5,-579.5 1425.5,-585.5 1419.5,-585.5 1419.5,-585.5 1298.5,-585.5 1298.5,-585.5 1292.5,-585.5 1286.5,-579.5 1286.5,-573.5 1286.5,-573.5 1286.5,-551.5 1286.5,-551.5 1286.5,-545.5 1292.5,-539.5 1298.5,-539.5"/>
<text text-anchor="middle" x="1359" y="-570.3" font-family="Times,serif" font-size="14.00">type = 2 (OP)</text>
<polyline fill="none" stroke="black" points="1286.5,-562.5 1431.5,-562.5 "/>
<text text-anchor="middle" x="1359" y="-547.3" font-family="Times,serif" font-size="14.00">value = &#39;&#39; = &#39;&#39; (61)</text>
</g>
<!-- node0x5030000006d0&#45;&gt;node0x5030000006a0 -->
<g id="edge34" class="edge">
<title>node0x5030000006d0&#45;&gt;node0x5030000006a0</title>
<path fill="none" stroke="black" d="M1350.74,-668.38C1352.32,-648.38 1354.66,-618.68 1356.44,-595.98"/>
<polygon fill="black" stroke="black" points="1359.95,-596.04 1357.24,-585.79 1352.97,-595.49 1359.95,-596.04"/>
</g>
<!-- node0x503000000430 -->
<g id="node24" class="node">
<title>node0x503000000430</title>
<path fill="#00ffdd" stroke="black" d="M841.5,-410.5C841.5,-410.5 962.5,-410.5 962.5,-410.5 968.5,-410.5 974.5,-416.5 974.5,-422.5 974.5,-422.5 974.5,-444.5 974.5,-444.5 974.5,-450.5 968.5,-456.5 962.5,-456.5 962.5,-456.5 841.5,-456.5 841.5,-456.5 835.5,-456.5 829.5,-450.5 829.5,-444.5 829.5,-444.5 829.5,-422.5 829.5,-422.5 829.5,-416.5 835.5,-410.5 841.5,-410.5"/>
<text text-anchor="middle" x="902" y="-441.3" font-family="Times,serif" font-size="14.00">type = 2 (OP)</text>
<polyline fill="none" stroke="black" points="829.5,-433.5 974.5,-433.5 "/>
<text text-anchor="middle" x="902" y="-418.3" font-family="Times,serif" font-size="14.00">value = &#39;&#39; = &#39;&#39; (61)</text>
</g>
<!-- node0x503000000460&#45;&gt;node0x503000000430 -->
<g id="edge23" class="edge">
<title>node0x503000000460&#45;&gt;node0x503000000430</title>
<path fill="none" stroke="black" d="M1085.33,-539.38C1047.56,-517.77 990.01,-484.85 949.49,-461.66"/>
<polygon fill="black" stroke="black" points="951.02,-458.51 940.6,-456.58 947.54,-464.58 951.02,-458.51"/>
</g>
<!-- node0x503000000580 -->
<g id="node25" class="node">
<title>node0x503000000580</title>
<path fill="#e0e0e0" stroke="black" d="M1037.5,-410.5C1037.5,-410.5 1210.5,-410.5 1210.5,-410.5 1216.5,-410.5 1222.5,-416.5 1222.5,-422.5 1222.5,-422.5 1222.5,-444.5 1222.5,-444.5 1222.5,-450.5 1216.5,-456.5 1210.5,-456.5 1210.5,-456.5 1037.5,-456.5 1037.5,-456.5 1031.5,-456.5 1025.5,-450.5 1025.5,-444.5 1025.5,-444.5 1025.5,-422.5 1025.5,-422.5 1025.5,-416.5 1031.5,-410.5 1037.5,-410.5"/>
<text text-anchor="middle" x="1124" y="-441.3" font-family="Times,serif" font-size="14.00">type = 2 (OP)</text>
<polyline fill="none" stroke="black" points="1025.5,-433.5 1222.5,-433.5 "/>
<text text-anchor="middle" x="1124" y="-418.3" font-family="Times,serif" font-size="14.00">value = &#39;&#39; SHUTUP &#39;&#39; (59)</text>
</g>
<!-- node0x503000000460&#45;&gt;node0x503000000580 -->
<g id="edge24" class="edge">
<title>node0x503000000460&#45;&gt;node0x503000000580</title>
<path fill="none" stroke="black" d="M1124,-539.38C1124,-519.38 1124,-489.68 1124,-466.98"/>
<polygon fill="black" stroke="black" points="1127.5,-466.79 1124,-456.79 1120.5,-466.79 1127.5,-466.79"/>
</g>
<!-- node0x503000000370 -->
<g id="node26" class="node">
<title>node0x503000000370</title>
<path fill="#ff5050" stroke="black" d="M574.5,-258.5C574.5,-258.5 787.5,-258.5 787.5,-258.5 793.5,-258.5 799.5,-264.5 799.5,-270.5 799.5,-270.5 799.5,-338.5 799.5,-338.5 799.5,-344.5 793.5,-350.5 787.5,-350.5 787.5,-350.5 574.5,-350.5 574.5,-350.5 568.5,-350.5 562.5,-344.5 562.5,-338.5 562.5,-338.5 562.5,-270.5 562.5,-270.5 562.5,-264.5 568.5,-258.5 574.5,-258.5"/>
<text text-anchor="middle" x="681" y="-335.3" font-family="Times,serif" font-size="14.00">type = 3 (ID)</text>
<polyline fill="none" stroke="black" points="562.5,-327.5 799.5,-327.5 "/>
<text text-anchor="middle" x="681" y="-312.3" font-family="Times,serif" font-size="14.00">name = &#39;&#39; result &#39;&#39;</text>
<polyline fill="none" stroke="black" points="562.5,-304.5 799.5,-304.5 "/>
<text text-anchor="middle" x="681" y="-289.3" font-family="Times,serif" font-size="14.00">number in name table = &#39;&#39; 23 &#39;&#39;</text>
<polyline fill="none" stroke="black" points="562.5,-281.5 799.5,-281.5 "/>
<text text-anchor="middle" x="681" y="-266.3" font-family="Times,serif" font-size="14.00">id_type = LOCL</text>
</g>
<!-- node0x503000000430&#45;&gt;node0x503000000370 -->
<g id="edge25" class="edge">
<title>node0x503000000430&#45;&gt;node0x503000000370</title>
<path fill="none" stroke="black" d="M863.5,-410.38C837.28,-395.31 801.47,-374.73 768.52,-355.79"/>
<polygon fill="black" stroke="black" points="770.18,-352.71 759.76,-350.76 766.69,-358.78 770.18,-352.71"/>
</g>
<!-- node0x503000000400 -->
<g id="node27" class="node">
<title>node0x503000000400</title>
<path fill="#00ffdd" stroke="black" d="M830,-281.5C830,-281.5 974,-281.5 974,-281.5 980,-281.5 986,-287.5 986,-293.5 986,-293.5 986,-315.5 986,-315.5 986,-321.5 980,-327.5 974,-327.5 974,-327.5 830,-327.5 830,-327.5 824,-327.5 818,-321.5 818,-315.5 818,-315.5 818,-293.5 818,-293.5 818,-287.5 824,-281.5 830,-281.5"/>
<text text-anchor="middle" x="902" y="-312.3" font-family="Times,serif" font-size="14.00">type = 2 (OP)</text>
<polyline fill="none" stroke="black" points="818,-304.5 986,-304.5 "/>
<text text-anchor="middle" x="902" y="-289.3" font-family="Times,serif" font-size="14.00">value = &#39;&#39; MUL &#39;&#39; (42)</text>
</g>
<!-- node0x503000000430&#45;&gt;node0x503000000400 -->
<g id="edge26" class="edge">
<title>node0x503000000430&#45;&gt;node0x503000000400</title>
<path fill="none" stroke="black" d="M902,-410.38C902,-390.38 902,-360.68 902,-337.98"/>
<polygon fill="black" stroke="black" points="905.5,-337.79 902,-327.79 898.5,-337.79 905.5,-337.79"/>
</g>
<!-- node0x503000000550 -->
<g id="node30" class="node">
<title>node0x503000000550</title>
<path fill="#00ffdd" stroke="black" d="M1096.5,-281.5C1096.5,-281.5 1217.5,-281.5 1217.5,-281.5 1223.5,-281.5 1229.5,-287.5 1229.5,-293.5 1229.5,-293.5 1229.5,-315.5 1229.5,-315.5 1229.5,-321.5 1223.5,-327.5 1217.5,-327.5 1217.5,-327.5 1096.5,-327.5 1096.5,-327.5 1090.5,-327.5 1084.5,-321.5 1084.5,-315.5 1084.5,-315.5 1084.5,-293.5 1084.5,-293.5 1084.5,-287.5 1090.5,-281.5 1096.5,-281.5"/>
<text text-anchor="middle" x="1157" y="-312.3" font-family="Times,serif" font-size="14.00">type = 2 (OP)</text>
<polyline fill="none" stroke="black" points="1084.5,-304.5 1229.5,-304.5 "/>
<text text-anchor="middle" x="1157" y="-289.3" font-family="Times,serif" font-size="14.00">value = &#39;&#39; = &#39;&#39; (61)</text>
</g>
<!-- node0x503000000580&#45;&gt;node0x503000000550 -->
<g id="edge29" class="edge">
<title>node0x503000000580&#45;&gt;node0x503000000550</title>
<path fill="none" stroke="black" d="M1129.75,-410.38C1134.97,-390.29 1142.73,-360.41 1148.64,-337.68"/>
<polygon fill="black" stroke="black" points="1152.08,-338.35 1151.21,-327.79 1145.3,-336.59 1152.08,-338.35"/>
</g>
<!-- node0x5030000003a0 -->
<g id="node28" class="node">
<title>node0x5030000003a0</title>
<path fill="#ff5050" stroke="black" d="M540.5,-129.5C540.5,-129.5 753.5,-129.5 753.5,-129.5 759.5,-129.5 765.5,-135.5 765.5,-141.5 765.5,-141.5 765.5,-209.5 765.5,-209.5 765.5,-215.5 759.5,-221.5 753.5,-221.5 753.5,-221.5 540.5,-221.5 540.5,-221.5 534.5,-221.5 528.5,-215.5 528.5,-209.5 528.5,-209.5 528.5,-141.5 528.5,-141.5 528.5,-135.5 534.5,-129.5 540.5,-129.5"/>
<text text-anchor="middle" x="647" y="-206.3" font-family="Times,serif" font-size="14.00">type = 3 (ID)</text>
<polyline fill="none" stroke="black" points="528.5,-198.5 765.5,-198.5 "/>
<text text-anchor="middle" x="647" y="-183.3" font-family="Times,serif" font-size="14.00">name = &#39;&#39; result &#39;&#39;</text>
<polyline fill="none" stroke="black" points="528.5,-175.5 765.5,-175.5 "/>
<text text-anchor="middle" x="647" y="-160.3" font-family="Times,serif" font-size="14.00">number in name table = &#39;&#39; 23 &#39;&#39;</text>
<polyline fill="none" stroke="black" points="528.5,-152.5 765.5,-152.5 "/>
<text text-anchor="middle" x="647" y="-137.3" font-family="Times,serif" font-size="14.00">id_type = LOCL</text>
</g>
<!-- node0x503000000400&#45;&gt;node0x5030000003a0 -->
<g id="edge27" class="edge">
<title>node0x503000000400&#45;&gt;node0x5030000003a0</title>
<path fill="none" stroke="black" d="M857.58,-281.38C827,-266.15 785.12,-245.29 746.77,-226.19"/>
<polygon fill="black" stroke="black" points="748.13,-222.96 737.62,-221.63 745.01,-229.22 748.13,-222.96"/>
</g>
<!-- node0x5030000003d0 -->
<g id="node29" class="node">
<title>node0x5030000003d0</title>
<path fill="#ff5050" stroke="black" d="M795.5,-129.5C795.5,-129.5 1008.5,-129.5 1008.5,-129.5 1014.5,-129.5 1020.5,-135.5 1020.5,-141.5 1020.5,-141.5 1020.5,-209.5 1020.5,-209.5 1020.5,-215.5 1014.5,-221.5 1008.5,-221.5 1008.5,-221.5 795.5,-221.5 795.5,-221.5 789.5,-221.5 783.5,-215.5 783.5,-209.5 783.5,-209.5 783.5,-141.5 783.5,-141.5 783.5,-135.5 789.5,-129.5 795.5,-129.5"/>
<text text-anchor="middle" x="902" y="-206.3" font-family="Times,serif" font-size="14.00">type = 3 (ID)</text>
<polyline fill="none" stroke="black" points="783.5,-198.5 1020.5,-198.5 "/>
<text text-anchor="middle" x="902" y="-183.3" font-family="Times,serif" font-size="14.00">name = &#39;&#39; numb &#39;&#39;</text>
<polyline fill="none" stroke="black" points="783.5,-175.5 1020.5,-175.5 "/>
<text text-anchor="middle" x="902" y="-160.3" font-family="Times,serif" font-size="14.00">number in name table = &#39;&#39; 22 &#39;&#39;</text>
<polyline fill="none" stroke="black" points="783.5,-152.5 1020.5,-152.5 "/>
<text text-anchor="middle" x="902" y="-137.3" font-family="Times,serif" font-size="14.00">id_type = LOCL</text>
</g>
<!-- node0x503000000400&#45;&gt;node0x5030000003d0 -->
<g id="edge28" class="edge">
<title>node0x503000000400&#45;&gt;node0x5030000003d0</title>
<path fill="none" stroke="black" d="M902,-281.38C902,-267.66 902,-249.37 902,-231.91"/>
<polygon fill="black" stroke="black" points="905.5,-231.76 902,-221.76 898.5,-231.76 905.5,-231.76"/>
</g>
<!-- node0x503000000490 -->
<g id="node31" class="node">
<title>node0x503000000490</title>
<path fill="#ff5050" stroke="black" d="M1050.5,-129.5C1050.5,-129.5 1263.5,-129.5 1263.5,-129.5 1269.5,-129.5 1275.5,-135.5 1275.5,-141.5 1275.5,-141.5 1275.5,-209.5 1275.5,-209.5 1275.5,-215.5 1269.5,-221.5 1263.5,-221.5 1263.5,-221.5 1050.5,-221.5 1050.5,-221.5 1044.5,-221.5 1038.5,-215.5 1038.5,-209.5 1038.5,-209.5 1038.5,-141.5 1038.5,-141.5 1038.5,-135.5 1044.5,-129.5 1050.5,-129.5"/>
<text text-anchor="middle" x="1157" y="-206.3" font-family="Times,serif" font-size="14.00">type = 3 (ID)</text>
<polyline fill="none" stroke="black" points="1038.5,-198.5 1275.5,-198.5 "/>
<text text-anchor="middle" x="1157" y="-183.3" font-family="Times,serif" font-size="14.00">name = &#39;&#39; numb &#39;&#39;</text>
<polyline fill="none" stroke="black" points="1038.5,-175.5 1275.5,-175.5 "/>
<text text-anchor="middle" x="1157" y="-160.3" font-family="Times,serif" font-size="14.00">number in name table = &#39;&#39; 22 &#39;&#39;</text>
<polyline fill="none" stroke="black" points="1038.5,-152.5 1275.5,-152.5 "/>
<text text-anchor="middle" x="1157" y="-137.3" font-family="Times,serif" font-size="14.00">id_type = LOCL</text>
</g>
<!-- node0x503000000550&#45;&gt;node0x503000000490 -->
<g id="edge30" class="edge">
<title>node0x503000000550&#45;&gt;node0x503000000490</title>
<path fill="none" stroke="black" d="M1157,-281.38C1157,-267.66 1157,-249.37 1157,-231.91"/>
<polygon fill="black" stroke="black" points="1160.5,-231.76 1157,-221.76 1153.5,-231.76 1160.5,-231.76"/>
</g>
<!-- node0x503000000520 -->
<g id="node32" class="node">
<title>node0x503000000520</title>
<path fill="#00ffdd" stroke="black" d="M1305.5,-152.5C1305.5,-152.5 1446.5,-152.5 1446.5,-152.5 1452.5,-152.5 1458.5,-158.5 1458.5,-164.5 1458.5,-164.5 1458.5,-186.5 1458.5,-186.5 1458.5,-192.5 1452.5,-198.5 1446.5,-198.5 1446.5,-198.5 1305.5,-198.5 1305.5,-198.5 1299.5,-198.5 1293.5,-192.5 1293.5,-186.5 1293.5,-186.5 1293.5,-164.5 1293.5,-164.5 1293.5,-158.5 1299.5,-152.5 1305.5,-152.5"/>
<text text-anchor="middle" x="1376" y="-183.3" font-family="Times,serif" font-size="14.00">type = 2 (OP)</text>
<polyline fill="none" stroke="black" points="1293.5,-175.5 1458.5,-175.5 "/>
<text text-anchor="middle" x="1376" y="-160.3" font-family="Times,serif" font-size="14.00">value = &#39;&#39; SUB &#39;&#39; (45)</text>
</g>
<!-- node0x503000000550&#45;&gt;node0x503000000520 -->
<g id="edge31" class="edge">
<title>node0x503000000550&#45;&gt;node0x503000000520</title>
<path fill="none" stroke="black" d="M1195.15,-281.38C1232.4,-259.77 1289.18,-226.85 1329.16,-203.66"/>
<polygon fill="black" stroke="black" points="1331.03,-206.63 1337.92,-198.58 1327.52,-200.57 1331.03,-206.63"/>
</g>
<!-- node0x5030000004c0 -->
<g id="node33" class="node">
<title>node0x5030000004c0</title>
<path fill="#ff5050" stroke="black" d="M1168.5,-0.5C1168.5,-0.5 1381.5,-0.5 1381.5,-0.5 1387.5,-0.5 1393.5,-6.5 1393.5,-12.5 1393.5,-12.5 1393.5,-80.5 1393.5,-80.5 1393.5,-86.5 1387.5,-92.5 1381.5,-92.5 1381.5,-92.5 1168.5,-92.5 1168.5,-92.5 1162.5,-92.5 1156.5,-86.5 1156.5,-80.5 1156.5,-80.5 1156.5,-12.5 1156.5,-12.5 1156.5,-6.5 1162.5,-0.5 1168.5,-0.5"/>
<text text-anchor="middle" x="1275" y="-77.3" font-family="Times,serif" font-size="14.00">type = 3 (ID)</text>
<polyline fill="none" stroke="black" points="1156.5,-69.5 1393.5,-69.5 "/>
<text text-anchor="middle" x="1275" y="-54.3" font-family="Times,serif" font-size="14.00">name = &#39;&#39; numb &#39;&#39;</text>
<polyline fill="none" stroke="black" points="1156.5,-46.5 1393.5,-46.5 "/>
<text text-anchor="middle" x="1275" y="-31.3" font-family="Times,serif" font-size="14.00">number in name table = &#39;&#39; 22 &#39;&#39;</text>
<polyline fill="none" stroke="black" points="1156.5,-23.5 1393.5,-23.5 "/>
<text text-anchor="middle" x="1275" y="-8.3" font-family="Times,serif" font-size="14.00">id_type = LOCL</text>
</g>
<!-- node0x503000000520&#45;&gt;node0x5030000004c0 -->
<g id="edge32" class="edge">
<title>node0x503000000520&#45;&gt;node0x5030000004c0</title>
<path fill="none" stroke="black" d="M1358.41,-152.38C1347.09,-138.14 1331.86,-118.99 1317.51,-100.95"/>
<polygon fill="black" stroke="black" points="1319.96,-98.41 1311,-92.76 1314.48,-102.77 1319.96,-98.41"/>
</g>
<!-- node0x5030000004f0 -->
<g id="node34" class="node">
<title>node0x5030000004f0</title>
<path fill="#ffd700" stroke="black" d="M1423.5,-23.5C1423.5,-23.5 1530.5,-23.5 1530.5,-23.5 1536.5,-23.5 1542.5,-29.5 1542.5,-35.5 1542.5,-35.5 1542.5,-57.5 1542.5,-57.5 1542.5,-63.5 1536.5,-69.5 1530.5,-69.5 1530.5,-69.5 1423.5,-69.5 1423.5,-69.5 1417.5,-69.5 1411.5,-63.5 1411.5,-57.5 1411.5,-57.5 1411.5,-35.5 1411.5,-35.5 1411.5,-29.5 1417.5,-23.5 1423.5,-23.5"/>
<text text-anchor="middle" x="1477" y="-54.3" font-family="Times,serif" font-size="14.00">type = 1 (NUM)</text>
<polyline fill="none" stroke="black" points="1411.5,-46.5 1542.5,-46.5 "/>
<text text-anchor="middle" x="1477" y="-31.3" font-family="Times,serif" font-size="14.00">value = &#39;&#39; 1 &#39;&#39;</text>
</g>
<!-- node0x503000000520&#45;&gt;node0x5030000004f0 -->
<g id="edge33" class="edge">
<title>node0x503000000520&#45;&gt;node0x5030000004f0</title>
<path fill="none" stroke="black" d="M1393.59,-152.38C1410,-131.74 1434.62,-100.79 1452.86,-77.85"/>
<polygon fill="black" stroke="black" points="1455.78,-79.8 1459.27,-69.79 1450.31,-75.44 1455.78,-79.8"/>
</g>
<!-- node0x503000000610 -->
<g id="node36" class="node">
<title>node0x503000000610</title>
<path fill="#ff5050" stroke="black" d="M1252.5,-387.5C1252.5,-387.5 1465.5,-387.5 1465.5,-387.5 1471.5,-387.5 1477.5,-393.5 1477.5,-399.5 1477.5,-399.5 1477.5,-467.5 1477.5,-467.5 1477.5,-473.5 1471.5,-479.5 1465.5,-479.5 1465.5,-479.5 1252.5,-479.5 1252.5,-479.5 1246.5,-479.5 1240.5,-473.5 1240.5,-467.5 1240.5,-467.5 1240.5,-399.5 1240.5,-399.5 1240.5,-393.5 1246.5,-387.5 1252.5,-387.5"/>
<text text-anchor="middle" x="1359" y="-464.3" font-family="Times,serif" font-size="14.00">type = 3 (ID)</text>
<polyline fill="none" stroke="black" points="1240.5,-456.5 1477.5,-456.5 "/>
<text text-anchor="middle" x="1359" y="-441.3" font-family="Times,serif" font-size="14.00">name = &#39;&#39; result &#39;&#39;</text>
<polyline fill="none" stroke="black" points="1240.5,-433.5 1477.5,-433.5 "/>
<text text-anchor="middle" x="1359" y="-418.3" font-family="Times,serif" font-size="14.00">number in name table = &#39;&#39; 23 &#39;&#39;</text>
<polyline fill="none" stroke="black" points="1240.5,-410.5 1477.5,-410.5 "/>
<text text-anchor="middle" x="1359" y="-395.3" font-family="Times,serif" font-size="14.00">id_type = LOCL</text>
</g>
<!-- node0x5030000006a0&#45;&gt;node0x503000000610 -->
<g id="edge35" class="edge">
<title>node0x5030000006a0&#45;&gt;node0x503000000610</title>
<path fill="none" stroke="black" d="M1359,-539.38C1359,-525.66 1359,-507.37 1359,-489.91"/>
<polygon fill="black" stroke="black" points="1362.5,-489.76 1359,-479.76 1355.5,-489.76 1362.5,-489.76"/>
</g>
<!-- node0x503000000670 -->
<g id="node37" class="node">
<title>node0x503000000670</title>
<path fill="#00ffdd" stroke="black" d="M1507.5,-410.5C1507.5,-410.5 1656.5,-410.5 1656.5,-410.5 1662.5,-410.5 1668.5,-416.5 1668.5,-422.5 1668.5,-422.5 1668.5,-444.5 1668.5,-444.5 1668.5,-450.5 1662.5,-456.5 1656.5,-456.5 1656.5,-456.5 1507.5,-456.5 1507.5,-456.5 1501.5,-456.5 1495.5,-450.5 1495.5,-444.5 1495.5,-444.5 1495.5,-422.5 1495.5,-422.5 1495.5,-416.5 1501.5,-410.5 1507.5,-410.5"/>
<text text-anchor="middle" x="1582" y="-441.3" font-family="Times,serif" font-size="14.00">type = 2 (OP)</text>
<polyline fill="none" stroke="black" points="1495.5,-433.5 1668.5,-433.5 "/>
<text text-anchor="middle" x="1582" y="-418.3" font-family="Times,serif" font-size="14.00">value = &#39;&#39; SQRT &#39;&#39; (83)</text>
</g>
<!-- node0x5030000006a0&#45;&gt;node0x503000000670 -->
<g id="edge36" class="edge">
<title>node0x5030000006a0&#45;&gt;node0x503000000670</title>
<path fill="none" stroke="black" d="M1397.84,-539.38C1435.78,-517.77 1493.59,-484.85 1534.3,-461.66"/>
<polygon fill="black" stroke="black" points="1536.27,-464.57 1543.23,-456.58 1532.81,-458.49 1536.27,-464.57"/>
</g>
<!-- node0x503000000640 -->
<g id="node38" class="node">
<title>node0x503000000640</title>
<path fill="#ff5050" stroke="black" d="M1475.5,-258.5C1475.5,-258.5 1688.5,-258.5 1688.5,-258.5 1694.5,-258.5 1700.5,-264.5 1700.5,-270.5 1700.5,-270.5 1700.5,-338.5 1700.5,-338.5 1700.5,-344.5 1694.5,-350.5 1688.5,-350.5 1688.5,-350.5 1475.5,-350.5 1475.5,-350.5 1469.5,-350.5 1463.5,-344.5 1463.5,-338.5 1463.5,-338.5 1463.5,-270.5 1463.5,-270.5 1463.5,-264.5 1469.5,-258.5 1475.5,-258.5"/>
<text text-anchor="middle" x="1582" y="-335.3" font-family="Times,serif" font-size="14.00">type = 3 (ID)</text>
<polyline fill="none" stroke="black" points="1463.5,-327.5 1700.5,-327.5 "/>
<text text-anchor="middle" x="1582" y="-312.3" font-family="Times,serif" font-size="14.00">name = &#39;&#39; result &#39;&#39;</text>
<polyline fill="none" stroke="black" points="1463.5,-304.5 1700.5,-304.5 "/>
<text text-anchor="middle" x="1582" y="-289.3" font-family="Times,serif" font-size="14.00">number in name table = &#39;&#39; 23 &#39;&#39;</text>
<polyline fill="none" stroke="black" points="1463.5,-281.5 1700.5,-281.5 "/>
<text text-anchor="middle" x="1582" y="-266.3" font-family="Times,serif" font-size="14.00">id_type = LOCL</text>
</g>
<!-- node0x503000000670&#45;&gt;node0x503000000640 -->
<g id="edge37" class="edge">
<title>node0x503000000670&#45;&gt;node0x503000000640</title>
<path fill="none" stroke="black" d="M1582,-410.38C1582,-396.66 1582,-378.37 1582,-360.91"/>
<polygon fill="black" stroke="black" points="1585.5,-360.76 1582,-350.76 1578.5,-360.76 1585.5,-360.76"/>
</g>
</g>
</svg>
