<?xml version="1.0" encoding="UTF-8" standalone="no"?>
<!DOCTYPE svg PUBLIC "-//W3C//DTD SVG 1.1//EN"
 "http://www.w3.org/Graphics/SVG/1.1/DTD/svg11.dtd">
<!-- Generated by graphviz version 2.43.0 (0)
 -->
<!-- Title: %3 Pages: 1 -->
<svg width="386pt" height="267pt"
 viewBox="0.00 0.00 386.00 267.00" xmlns="http://www.w3.org/2000/svg" xmlns:xlink="http://www.w3.org/1999/xlink">
<g id="graph0" class="graph" transform="scale(1 1) rotate(0) translate(4 263)">
<title>%3</title>
<!-- node0x5030000008b0 -->
<g id="node1" class="node">
<title>node0x5030000008b0</title>
<path fill="#f069f5" stroke="black" d="M99,-212.5C99,-212.5 246,-212.5 246,-212.5 252,-212.5 258,-218.5 258,-224.5 258,-224.5 258,-246.5 258,-246.5 258,-252.5 252,-258.5 246,-258.5 246,-258.5 99,-258.5 99,-258.5 93,-258.5 87,-252.5 87,-246.5 87,-246.5 87,-224.5 87,-224.5 87,-218.5 93,-212.5 99,-212.5"/>
<text text-anchor="middle" x="172.5" y="-243.3" font-family="Times,serif" font-size="14.00">type = 4 (FUNC)</text>
<polyline fill="none" stroke="black" points="87,-235.5 258,-235.5 "/>
<text text-anchor="middle" x="172.5" y="-220.3" font-family="Times,serif" font-size="14.00">value = &#39;&#39; CALL &#39;&#39; (67)</text>
</g>
<!-- node0x503000000820 -->
<g id="node2" class="node">
<title>node0x503000000820</title>
<path fill="#2ee31e" stroke="black" d="M12,-129.5C12,-129.5 161,-129.5 161,-129.5 167,-129.5 173,-135.5 173,-141.5 173,-141.5 173,-163.5 173,-163.5 173,-169.5 167,-175.5 161,-175.5 161,-175.5 12,-175.5 12,-175.5 6,-175.5 0,-169.5 0,-163.5 0,-163.5 0,-141.5 0,-141.5 0,-135.5 6,-129.5 12,-129.5"/>
<text text-anchor="middle" x="86.5" y="-160.3" font-family="Times,serif" font-size="14.00">type = 4 (FUNC)</text>
<polyline fill="none" stroke="black" points="0,-152.5 173,-152.5 "/>
<text text-anchor="middle" x="86.5" y="-137.3" font-family="Times,serif" font-size="14.00">value = &#39;&#39; printf &#39;&#39; (26)</text>
</g>
<!-- node0x5030000008b0&#45;&gt;node0x503000000820 -->
<g id="edge1" class="edge">
<title>node0x5030000008b0&#45;&gt;node0x503000000820</title>
<path fill="none" stroke="black" d="M149,-212.37C139.24,-203.17 127.77,-192.37 117.34,-182.55"/>
<polygon fill="black" stroke="black" points="119.65,-179.92 109.97,-175.61 114.85,-185.01 119.65,-179.92"/>
</g>
<!-- node0x503000000880 -->
<g id="node3" class="node">
<title>node0x503000000880</title>
<path fill="#feaadf" stroke="black" d="M203,-129.5C203,-129.5 316,-129.5 316,-129.5 322,-129.5 328,-135.5 328,-141.5 328,-141.5 328,-163.5 328,-163.5 328,-169.5 322,-175.5 316,-175.5 316,-175.5 203,-175.5 203,-175.5 197,-175.5 191,-169.5 191,-163.5 191,-163.5 191,-141.5 191,-141.5 191,-135.5 197,-129.5 203,-129.5"/>
<text text-anchor="middle" x="259.5" y="-160.3" font-family="Times,serif" font-size="14.00">type = 4 (FUNC)</text>
<polyline fill="none" stroke="black" points="191,-152.5 328,-152.5 "/>
<text text-anchor="middle" x="259.5" y="-137.3" font-family="Times,serif" font-size="14.00">value = &#39;&#39; , &#39;&#39; (44)</text>
</g>
<!-- node0x5030000008b0&#45;&gt;node0x503000000880 -->
<g id="edge2" class="edge">
<title>node0x5030000008b0&#45;&gt;node0x503000000880</title>
<path fill="none" stroke="black" d="M196.27,-212.37C206.15,-203.17 217.75,-192.37 228.3,-182.55"/>
<polygon fill="black" stroke="black" points="230.82,-184.98 235.76,-175.61 226.05,-179.86 230.82,-184.98"/>
</g>
<!-- node0x503000000850 -->
<g id="node4" class="node">
<title>node0x503000000850</title>
<path fill="#ff5050" stroke="black" d="M153,-0.5C153,-0.5 366,-0.5 366,-0.5 372,-0.5 378,-6.5 378,-12.5 378,-12.5 378,-80.5 378,-80.5 378,-86.5 372,-92.5 366,-92.5 366,-92.5 153,-92.5 153,-92.5 147,-92.5 141,-86.5 141,-80.5 141,-80.5 141,-12.5 141,-12.5 141,-6.5 147,-0.5 153,-0.5"/>
<text text-anchor="middle" x="259.5" y="-77.3" font-family="Times,serif" font-size="14.00">type = 3 (ID)</text>
<polyline fill="none" stroke="black" points="141,-69.5 378,-69.5 "/>
<text text-anchor="middle" x="259.5" y="-54.3" font-family="Times,serif" font-size="14.00">name = &#39;&#39; result &#39;&#39;</text>
<polyline fill="none" stroke="black" points="141,-46.5 378,-46.5 "/>
<text text-anchor="middle" x="259.5" y="-31.3" font-family="Times,serif" font-size="14.00">number in name table = &#39;&#39; 23 &#39;&#39;</text>
<polyline fill="none" stroke="black" points="141,-23.5 378,-23.5 "/>
<text text-anchor="middle" x="259.5" y="-8.3" font-family="Times,serif" font-size="14.00">id_type = LOCL</text>
</g>
<!-- node0x503000000880&#45;&gt;node0x503000000850 -->
<g id="edge3" class="edge">
<title>node0x503000000880&#45;&gt;node0x503000000850</title>
<path fill="none" stroke="black" d="M259.5,-129.44C259.5,-121.56 259.5,-112.29 259.5,-102.87"/>
<polygon fill="black" stroke="black" points="263,-102.64 259.5,-92.64 256,-102.64 263,-102.64"/>
</g>
</g>
</svg>
