<?xml version="1.0" encoding="UTF-8" standalone="no"?>
<!DOCTYPE svg PUBLIC "-//W3C//DTD SVG 1.1//EN"
 "http://www.w3.org/Graphics/SVG/1.1/DTD/svg11.dtd">
<!-- Generated by graphviz version 2.43.0 (0)
 -->
<!-- Title: %3 Pages: 1 -->
<svg width="288pt" height="138pt"
 viewBox="0.00 0.00 288.00 138.00" xmlns="http://www.w3.org/2000/svg" xmlns:xlink="http://www.w3.org/1999/xlink">
<g id="graph0" class="graph" transform="scale(1 1) rotate(0) translate(4 134)">
<title>%3</title>
<!-- node0x5030000007c0 -->
<g id="node1" class="node">
<title>node0x5030000007c0</title>
<path fill="#00ffdd" stroke="black" d="M67.5,-83.5C67.5,-83.5 211.5,-83.5 211.5,-83.5 217.5,-83.5 223.5,-89.5 223.5,-95.5 223.5,-95.5 223.5,-117.5 223.5,-117.5 223.5,-123.5 217.5,-129.5 211.5,-129.5 211.5,-129.5 67.5,-129.5 67.5,-129.5 61.5,-129.5 55.5,-123.5 55.5,-117.5 55.5,-117.5 55.5,-95.5 55.5,-95.5 55.5,-89.5 61.5,-83.5 67.5,-83.5"/>
<text text-anchor="middle" x="139.5" y="-114.3" font-family="Times,serif" font-size="14.00">type = 2 (OP)</text>
<polyline fill="none" stroke="black" points="55.5,-106.5 223.5,-106.5 "/>
<text text-anchor="middle" x="139.5" y="-91.3" font-family="Times,serif" font-size="14.00">value = &#39;&#39; MUL &#39;&#39; (42)</text>
</g>
<!-- node0x503000000760 -->
<g id="node2" class="node">
<title>node0x503000000760</title>
<path fill="#ffd700" stroke="black" d="M12,-0.5C12,-0.5 119,-0.5 119,-0.5 125,-0.5 131,-6.5 131,-12.5 131,-12.5 131,-34.5 131,-34.5 131,-40.5 125,-46.5 119,-46.5 119,-46.5 12,-46.5 12,-46.5 6,-46.5 0,-40.5 0,-34.5 0,-34.5 0,-12.5 0,-12.5 0,-6.5 6,-0.5 12,-0.5"/>
<text text-anchor="middle" x="65.5" y="-31.3" font-family="Times,serif" font-size="14.00">type = 1 (NUM)</text>
<polyline fill="none" stroke="black" points="0,-23.5 131,-23.5 "/>
<text text-anchor="middle" x="65.5" y="-8.3" font-family="Times,serif" font-size="14.00">value = &#39;&#39; 3 &#39;&#39;</text>
</g>
<!-- node0x5030000007c0&#45;&gt;node0x503000000760 -->
<g id="edge1" class="edge">
<title>node0x5030000007c0&#45;&gt;node0x503000000760</title>
<path fill="none" stroke="black" d="M119.28,-83.37C111.04,-74.35 101.39,-63.79 92.56,-54.12"/>
<polygon fill="black" stroke="black" points="95.03,-51.63 85.7,-46.61 89.86,-56.35 95.03,-51.63"/>
</g>
<!-- node0x503000000790 -->
<g id="node3" class="node">
<title>node0x503000000790</title>
<path fill="#ffd700" stroke="black" d="M161,-0.5C161,-0.5 268,-0.5 268,-0.5 274,-0.5 280,-6.5 280,-12.5 280,-12.5 280,-34.5 280,-34.5 280,-40.5 274,-46.5 268,-46.5 268,-46.5 161,-46.5 161,-46.5 155,-46.5 149,-40.5 149,-34.5 149,-34.5 149,-12.5 149,-12.5 149,-6.5 155,-0.5 161,-0.5"/>
<text text-anchor="middle" x="214.5" y="-31.3" font-family="Times,serif" font-size="14.00">type = 1 (NUM)</text>
<polyline fill="none" stroke="black" points="149,-23.5 280,-23.5 "/>
<text text-anchor="middle" x="214.5" y="-8.3" font-family="Times,serif" font-size="14.00">value = &#39;&#39; 5 &#39;&#39;</text>
</g>
<!-- node0x5030000007c0&#45;&gt;node0x503000000790 -->
<g id="edge2" class="edge">
<title>node0x5030000007c0&#45;&gt;node0x503000000790</title>
<path fill="none" stroke="black" d="M159.99,-83.37C168.34,-74.35 178.12,-63.79 187.07,-54.12"/>
<polygon fill="black" stroke="black" points="189.8,-56.32 194.03,-46.61 184.67,-51.57 189.8,-56.32"/>
</g>
</g>
</svg>
