<?xml version="1.0" encoding="UTF-8" standalone="no"?>
<!DOCTYPE svg PUBLIC "-//W3C//DTD SVG 1.1//EN"
 "http://www.w3.org/Graphics/SVG/1.1/DTD/svg11.dtd">
<!-- Generated by graphviz version 13.1.0 (0)
 -->
<!-- Pages: 1 -->
<svg width="2459pt" height="1514pt"
 viewBox="0.00 0.00 2459.00 1514.00" xmlns="http://www.w3.org/2000/svg" xmlns:xlink="http://www.w3.org/1999/xlink">
<g id="graph0" class="graph" transform="scale(1 1) rotate(0) translate(4 1509.5)">
<!-- node0x7bfdfe5e0940 -->
<g id="node1" class="node">
<title>node0x7bfdfe5e0940</title>
<path fill="#a0a0a0" stroke="black" d="M234.75,-1454.5C234.75,-1454.5 470.5,-1454.5 470.5,-1454.5 476.5,-1454.5 482.5,-1460.5 482.5,-1466.5 482.5,-1466.5 482.5,-1493 482.5,-1493 482.5,-1499 476.5,-1505 470.5,-1505 470.5,-1505 234.75,-1505 234.75,-1505 228.75,-1505 222.75,-1499 222.75,-1493 222.75,-1493 222.75,-1466.5 222.75,-1466.5 222.75,-1460.5 228.75,-1454.5 234.75,-1454.5"/>
<text xml:space="preserve" text-anchor="middle" x="352.62" y="-1487.7" font-family="Times,serif" font-size="14.00">type = 4 (FUNC)</text>
<polyline fill="none" stroke="black" points="222.75,-1479.75 482.5,-1479.75"/>
<text xml:space="preserve" text-anchor="middle" x="352.62" y="-1462.45" font-family="Times,serif" font-size="14.00">value = &#39;&#39; NEXT FUNCTION &#39;&#39; (64)</text>
</g>
<!-- node0x7bfdfe5e0910 -->
<g id="node2" class="node">
<title>node0x7bfdfe5e0910</title>
<path fill="#755cf7" stroke="black" d="M252.75,-1367C252.75,-1367 452.5,-1367 452.5,-1367 458.5,-1367 464.5,-1373 464.5,-1379 464.5,-1379 464.5,-1405.5 464.5,-1405.5 464.5,-1411.5 458.5,-1417.5 452.5,-1417.5 452.5,-1417.5 252.75,-1417.5 252.75,-1417.5 246.75,-1417.5 240.75,-1411.5 240.75,-1405.5 240.75,-1405.5 240.75,-1379 240.75,-1379 240.75,-1373 246.75,-1367 252.75,-1367"/>
<text xml:space="preserve" text-anchor="middle" x="352.62" y="-1400.2" font-family="Times,serif" font-size="14.00">type = 4 (FUNC)</text>
<polyline fill="none" stroke="black" points="240.75,-1392.25 464.5,-1392.25"/>
<text xml:space="preserve" text-anchor="middle" x="352.62" y="-1374.95" font-family="Times,serif" font-size="14.00">value = &#39;&#39; DEFINITION &#39;&#39; (68)</text>
</g>
<!-- node0x7bfdfe5e0940&#45;&gt;node0x7bfdfe5e0910 -->
<g id="edge1" class="edge">
<title>node0x7bfdfe5e0940&#45;&gt;node0x7bfdfe5e0910</title>
<path fill="none" stroke="black" d="M352.62,-1454.02C352.62,-1446.31 352.62,-1437.64 352.62,-1429.32"/>
<polygon fill="black" stroke="black" points="356.13,-1429.44 352.63,-1419.44 349.13,-1429.44 356.13,-1429.44"/>
</g>
<!-- node0x7bfdfe5e00d0 -->
<g id="node3" class="node">
<title>node0x7bfdfe5e00d0</title>
<path fill="#f069f5" stroke="black" d="M178.38,-1279.5C178.38,-1279.5 324.88,-1279.5 324.88,-1279.5 330.88,-1279.5 336.88,-1285.5 336.88,-1291.5 336.88,-1291.5 336.88,-1318 336.88,-1318 336.88,-1324 330.88,-1330 324.88,-1330 324.88,-1330 178.38,-1330 178.38,-1330 172.38,-1330 166.38,-1324 166.38,-1318 166.38,-1318 166.38,-1291.5 166.38,-1291.5 166.38,-1285.5 172.38,-1279.5 178.38,-1279.5"/>
<text xml:space="preserve" text-anchor="middle" x="251.62" y="-1312.7" font-family="Times,serif" font-size="14.00">type = 4 (FUNC)</text>
<polyline fill="none" stroke="black" points="166.38,-1304.75 336.88,-1304.75"/>
<text xml:space="preserve" text-anchor="middle" x="251.62" y="-1287.45" font-family="Times,serif" font-size="14.00">value = &#39;&#39; CALL &#39;&#39; (67)</text>
</g>
<!-- node0x7bfdfe5e0910&#45;&gt;node0x7bfdfe5e00d0 -->
<g id="edge2" class="edge">
<title>node0x7bfdfe5e0910&#45;&gt;node0x7bfdfe5e00d0</title>
<path fill="none" stroke="black" d="M323.41,-1366.52C312.84,-1357.57 300.74,-1347.33 289.53,-1337.84"/>
<polygon fill="black" stroke="black" points="291.82,-1335.19 281.93,-1331.4 287.3,-1340.53 291.82,-1335.19"/>
</g>
<!-- node0x7bfdfe5e0190 -->
<g id="node4" class="node">
<title>node0x7bfdfe5e0190</title>
<path fill="#e0e0e0" stroke="black" d="M393.25,-1279.5C393.25,-1279.5 566,-1279.5 566,-1279.5 572,-1279.5 578,-1285.5 578,-1291.5 578,-1291.5 578,-1318 578,-1318 578,-1324 572,-1330 566,-1330 566,-1330 393.25,-1330 393.25,-1330 387.25,-1330 381.25,-1324 381.25,-1318 381.25,-1318 381.25,-1291.5 381.25,-1291.5 381.25,-1285.5 387.25,-1279.5 393.25,-1279.5"/>
<text xml:space="preserve" text-anchor="middle" x="479.62" y="-1312.7" font-family="Times,serif" font-size="14.00">type = 2 (OP)</text>
<polyline fill="none" stroke="black" points="381.25,-1304.75 578,-1304.75"/>
<text xml:space="preserve" text-anchor="middle" x="479.62" y="-1287.45" font-family="Times,serif" font-size="14.00">value = &#39;&#39; SHUTUP &#39;&#39; (59)</text>
</g>
<!-- node0x7bfdfe5e0910&#45;&gt;node0x7bfdfe5e0190 -->
<g id="edge3" class="edge">
<title>node0x7bfdfe5e0910&#45;&gt;node0x7bfdfe5e0190</title>
<path fill="none" stroke="black" d="M389.36,-1366.52C403.18,-1357.21 419.07,-1346.52 433.63,-1336.71"/>
<polygon fill="black" stroke="black" points="435.38,-1339.76 441.72,-1331.27 431.47,-1333.95 435.38,-1339.76"/>
</g>
<!-- node0x7bfdfe5e0040 -->
<g id="node5" class="node">
<title>node0x7bfdfe5e0040</title>
<path fill="#2ee31e" stroke="black" d="M12,-1192C12,-1192 153.25,-1192 153.25,-1192 159.25,-1192 165.25,-1198 165.25,-1204 165.25,-1204 165.25,-1230.5 165.25,-1230.5 165.25,-1236.5 159.25,-1242.5 153.25,-1242.5 153.25,-1242.5 12,-1242.5 12,-1242.5 6,-1242.5 0,-1236.5 0,-1230.5 0,-1230.5 0,-1204 0,-1204 0,-1198 6,-1192 12,-1192"/>
<text xml:space="preserve" text-anchor="middle" x="82.62" y="-1225.2" font-family="Times,serif" font-size="14.00">type = 4 (FUNC)</text>
<polyline fill="none" stroke="black" points="0,-1217.25 165.25,-1217.25"/>
<text xml:space="preserve" text-anchor="middle" x="82.62" y="-1199.95" font-family="Times,serif" font-size="14.00">value = &#39;&#39; carti &#39;&#39; (20)</text>
</g>
<!-- node0x7bfdfe5e00d0&#45;&gt;node0x7bfdfe5e0040 -->
<g id="edge4" class="edge">
<title>node0x7bfdfe5e00d0&#45;&gt;node0x7bfdfe5e0040</title>
<path fill="none" stroke="black" d="M202.74,-1279.02C183.65,-1269.36 161.59,-1258.2 141.62,-1248.1"/>
<polygon fill="black" stroke="black" points="143.25,-1245 132.75,-1243.61 140.09,-1251.25 143.25,-1245"/>
</g>
<!-- node0x7bfdfe5e00a0 -->
<g id="node6" class="node">
<title>node0x7bfdfe5e00a0</title>
<path fill="#feaadf" stroke="black" d="M195.25,-1192C195.25,-1192 308,-1192 308,-1192 314,-1192 320,-1198 320,-1204 320,-1204 320,-1230.5 320,-1230.5 320,-1236.5 314,-1242.5 308,-1242.5 308,-1242.5 195.25,-1242.5 195.25,-1242.5 189.25,-1242.5 183.25,-1236.5 183.25,-1230.5 183.25,-1230.5 183.25,-1204 183.25,-1204 183.25,-1198 189.25,-1192 195.25,-1192"/>
<text xml:space="preserve" text-anchor="middle" x="251.62" y="-1225.2" font-family="Times,serif" font-size="14.00">type = 4 (FUNC)</text>
<polyline fill="none" stroke="black" points="183.25,-1217.25 320,-1217.25"/>
<text xml:space="preserve" text-anchor="middle" x="251.62" y="-1199.95" font-family="Times,serif" font-size="14.00">value = &#39;&#39; , &#39;&#39; (44)</text>
</g>
<!-- node0x7bfdfe5e00d0&#45;&gt;node0x7bfdfe5e00a0 -->
<g id="edge5" class="edge">
<title>node0x7bfdfe5e00d0&#45;&gt;node0x7bfdfe5e00a0</title>
<path fill="none" stroke="black" d="M251.62,-1279.02C251.62,-1271.31 251.62,-1262.64 251.62,-1254.32"/>
<polygon fill="black" stroke="black" points="255.13,-1254.44 251.63,-1244.44 248.13,-1254.44 255.13,-1254.44"/>
</g>
<!-- node0x7bfdfe5e0160 -->
<g id="node8" class="node">
<title>node0x7bfdfe5e0160</title>
<path fill="#00ffdd" stroke="black" d="M419.5,-1192C419.5,-1192 539.75,-1192 539.75,-1192 545.75,-1192 551.75,-1198 551.75,-1204 551.75,-1204 551.75,-1230.5 551.75,-1230.5 551.75,-1236.5 545.75,-1242.5 539.75,-1242.5 539.75,-1242.5 419.5,-1242.5 419.5,-1242.5 413.5,-1242.5 407.5,-1236.5 407.5,-1230.5 407.5,-1230.5 407.5,-1204 407.5,-1204 407.5,-1198 413.5,-1192 419.5,-1192"/>
<text xml:space="preserve" text-anchor="middle" x="479.62" y="-1225.2" font-family="Times,serif" font-size="14.00">type = 2 (OP)</text>
<polyline fill="none" stroke="black" points="407.5,-1217.25 551.75,-1217.25"/>
<text xml:space="preserve" text-anchor="middle" x="479.62" y="-1199.95" font-family="Times,serif" font-size="14.00">value = &#39;&#39; = &#39;&#39; (61)</text>
</g>
<!-- node0x7bfdfe5e0190&#45;&gt;node0x7bfdfe5e0160 -->
<g id="edge7" class="edge">
<title>node0x7bfdfe5e0190&#45;&gt;node0x7bfdfe5e0160</title>
<path fill="none" stroke="black" d="M479.62,-1279.02C479.62,-1271.31 479.62,-1262.64 479.62,-1254.32"/>
<polygon fill="black" stroke="black" points="483.13,-1254.44 479.63,-1244.44 476.13,-1254.44 483.13,-1254.44"/>
</g>
<!-- node0x7bfdfe5e0250 -->
<g id="node9" class="node">
<title>node0x7bfdfe5e0250</title>
<path fill="#e0e0e0" stroke="black" d="M667.25,-1192C667.25,-1192 840,-1192 840,-1192 846,-1192 852,-1198 852,-1204 852,-1204 852,-1230.5 852,-1230.5 852,-1236.5 846,-1242.5 840,-1242.5 840,-1242.5 667.25,-1242.5 667.25,-1242.5 661.25,-1242.5 655.25,-1236.5 655.25,-1230.5 655.25,-1230.5 655.25,-1204 655.25,-1204 655.25,-1198 661.25,-1192 667.25,-1192"/>
<text xml:space="preserve" text-anchor="middle" x="753.62" y="-1225.2" font-family="Times,serif" font-size="14.00">type = 2 (OP)</text>
<polyline fill="none" stroke="black" points="655.25,-1217.25 852,-1217.25"/>
<text xml:space="preserve" text-anchor="middle" x="753.62" y="-1199.95" font-family="Times,serif" font-size="14.00">value = &#39;&#39; SHUTUP &#39;&#39; (59)</text>
</g>
<!-- node0x7bfdfe5e0190&#45;&gt;node0x7bfdfe5e0250 -->
<g id="edge8" class="edge">
<title>node0x7bfdfe5e0190&#45;&gt;node0x7bfdfe5e0250</title>
<path fill="none" stroke="black" d="M558.88,-1279.02C591.68,-1268.78 629.89,-1256.86 663.73,-1246.3"/>
<polygon fill="black" stroke="black" points="664.6,-1249.7 673.11,-1243.38 662.52,-1243.01 664.6,-1249.7"/>
</g>
<!-- node0x7bfdfe5e0070 -->
<g id="node7" class="node">
<title>node0x7bfdfe5e0070</title>
<path fill="#ff5050" stroke="black" d="M34.38,-1054C34.38,-1054 246.88,-1054 246.88,-1054 252.88,-1054 258.88,-1060 258.88,-1066 258.88,-1066 258.88,-1143 258.88,-1143 258.88,-1149 252.88,-1155 246.88,-1155 246.88,-1155 34.38,-1155 34.38,-1155 28.38,-1155 22.38,-1149 22.38,-1143 22.38,-1143 22.38,-1066 22.38,-1066 22.38,-1060 28.38,-1054 34.38,-1054"/>
<text xml:space="preserve" text-anchor="middle" x="140.62" y="-1137.7" font-family="Times,serif" font-size="14.00">type = 3 (ID)</text>
<polyline fill="none" stroke="black" points="22.38,-1129.75 258.88,-1129.75"/>
<text xml:space="preserve" text-anchor="middle" x="140.62" y="-1112.45" font-family="Times,serif" font-size="14.00">name = &#39;&#39; argc &#39;&#39;</text>
<polyline fill="none" stroke="black" points="22.38,-1104.5 258.88,-1104.5"/>
<text xml:space="preserve" text-anchor="middle" x="140.62" y="-1087.2" font-family="Times,serif" font-size="14.00">number in name table = &#39;&#39; 21 &#39;&#39;</text>
<polyline fill="none" stroke="black" points="22.38,-1079.25 258.88,-1079.25"/>
<text xml:space="preserve" text-anchor="middle" x="140.62" y="-1061.95" font-family="Times,serif" font-size="14.00">id_type = PARM</text>
</g>
<!-- node0x7bfdfe5e00a0&#45;&gt;node0x7bfdfe5e0070 -->
<g id="edge6" class="edge">
<title>node0x7bfdfe5e00a0&#45;&gt;node0x7bfdfe5e0070</title>
<path fill="none" stroke="black" d="M226.99,-1191.67C218.52,-1183.22 208.65,-1173.37 198.67,-1163.41"/>
<polygon fill="black" stroke="black" points="201.29,-1161.08 191.74,-1156.5 196.34,-1166.04 201.29,-1161.08"/>
</g>
<!-- node0x7bfdfe5e0100 -->
<g id="node10" class="node">
<title>node0x7bfdfe5e0100</title>
<path fill="#ff5050" stroke="black" d="M289.38,-1054C289.38,-1054 501.88,-1054 501.88,-1054 507.88,-1054 513.88,-1060 513.88,-1066 513.88,-1066 513.88,-1143 513.88,-1143 513.88,-1149 507.88,-1155 501.88,-1155 501.88,-1155 289.38,-1155 289.38,-1155 283.38,-1155 277.38,-1149 277.38,-1143 277.38,-1143 277.38,-1066 277.38,-1066 277.38,-1060 283.38,-1054 289.38,-1054"/>
<text xml:space="preserve" text-anchor="middle" x="395.62" y="-1137.7" font-family="Times,serif" font-size="14.00">type = 3 (ID)</text>
<polyline fill="none" stroke="black" points="277.38,-1129.75 513.88,-1129.75"/>
<text xml:space="preserve" text-anchor="middle" x="395.62" y="-1112.45" font-family="Times,serif" font-size="14.00">name = &#39;&#39; numb &#39;&#39;</text>
<polyline fill="none" stroke="black" points="277.38,-1104.5 513.88,-1104.5"/>
<text xml:space="preserve" text-anchor="middle" x="395.62" y="-1087.2" font-family="Times,serif" font-size="14.00">number in name table = &#39;&#39; 22 &#39;&#39;</text>
<polyline fill="none" stroke="black" points="277.38,-1079.25 513.88,-1079.25"/>
<text xml:space="preserve" text-anchor="middle" x="395.62" y="-1061.95" font-family="Times,serif" font-size="14.00">id_type = LOCL</text>
</g>
<!-- node0x7bfdfe5e0160&#45;&gt;node0x7bfdfe5e0100 -->
<g id="edge9" class="edge">
<title>node0x7bfdfe5e0160&#45;&gt;node0x7bfdfe5e0100</title>
<path fill="none" stroke="black" d="M460.98,-1191.67C454.83,-1183.56 447.69,-1174.15 440.45,-1164.6"/>
<polygon fill="black" stroke="black" points="443.24,-1162.49 434.41,-1156.63 437.66,-1166.72 443.24,-1162.49"/>
</g>
<!-- node0x7bfdfe5e0130 -->
<g id="node11" class="node">
<title>node0x7bfdfe5e0130</title>
<path fill="#ffd700" stroke="black" d="M544.25,-1079.25C544.25,-1079.25 651,-1079.25 651,-1079.25 657,-1079.25 663,-1085.25 663,-1091.25 663,-1091.25 663,-1117.75 663,-1117.75 663,-1123.75 657,-1129.75 651,-1129.75 651,-1129.75 544.25,-1129.75 544.25,-1129.75 538.25,-1129.75 532.25,-1123.75 532.25,-1117.75 532.25,-1117.75 532.25,-1091.25 532.25,-1091.25 532.25,-1085.25 538.25,-1079.25 544.25,-1079.25"/>
<text xml:space="preserve" text-anchor="middle" x="597.62" y="-1112.45" font-family="Times,serif" font-size="14.00">type = 1 (NUM)</text>
<polyline fill="none" stroke="black" points="532.25,-1104.5 663,-1104.5"/>
<text xml:space="preserve" text-anchor="middle" x="597.62" y="-1087.2" font-family="Times,serif" font-size="14.00">value = &#39;&#39; 1 &#39;&#39;</text>
</g>
<!-- node0x7bfdfe5e0160&#45;&gt;node0x7bfdfe5e0130 -->
<g id="edge10" class="edge">
<title>node0x7bfdfe5e0160&#45;&gt;node0x7bfdfe5e0130</title>
<path fill="none" stroke="black" d="M505.81,-1191.67C522.77,-1175.76 545.03,-1154.86 563.38,-1137.64"/>
<polygon fill="black" stroke="black" points="565.51,-1140.44 570.41,-1131.05 560.72,-1135.34 565.51,-1140.44"/>
</g>
<!-- node0x7bfdfe5e0220 -->
<g id="node12" class="node">
<title>node0x7bfdfe5e0220</title>
<path fill="#00ffdd" stroke="black" d="M693.5,-1079.25C693.5,-1079.25 813.75,-1079.25 813.75,-1079.25 819.75,-1079.25 825.75,-1085.25 825.75,-1091.25 825.75,-1091.25 825.75,-1117.75 825.75,-1117.75 825.75,-1123.75 819.75,-1129.75 813.75,-1129.75 813.75,-1129.75 693.5,-1129.75 693.5,-1129.75 687.5,-1129.75 681.5,-1123.75 681.5,-1117.75 681.5,-1117.75 681.5,-1091.25 681.5,-1091.25 681.5,-1085.25 687.5,-1079.25 693.5,-1079.25"/>
<text xml:space="preserve" text-anchor="middle" x="753.62" y="-1112.45" font-family="Times,serif" font-size="14.00">type = 2 (OP)</text>
<polyline fill="none" stroke="black" points="681.5,-1104.5 825.75,-1104.5"/>
<text xml:space="preserve" text-anchor="middle" x="753.62" y="-1087.2" font-family="Times,serif" font-size="14.00">value = &#39;&#39; = &#39;&#39; (61)</text>
</g>
<!-- node0x7bfdfe5e0250&#45;&gt;node0x7bfdfe5e0220 -->
<g id="edge11" class="edge">
<title>node0x7bfdfe5e0250&#45;&gt;node0x7bfdfe5e0220</title>
<path fill="none" stroke="black" d="M753.62,-1191.67C753.62,-1176.9 753.62,-1157.85 753.62,-1141.41"/>
<polygon fill="black" stroke="black" points="757.13,-1141.52 753.63,-1131.52 750.13,-1141.52 757.13,-1141.52"/>
</g>
<!-- node0x7bfdfe5e0310 -->
<g id="node13" class="node">
<title>node0x7bfdfe5e0310</title>
<path fill="#e0e0e0" stroke="black" d="M856.25,-1079.25C856.25,-1079.25 1029,-1079.25 1029,-1079.25 1035,-1079.25 1041,-1085.25 1041,-1091.25 1041,-1091.25 1041,-1117.75 1041,-1117.75 1041,-1123.75 1035,-1129.75 1029,-1129.75 1029,-1129.75 856.25,-1129.75 856.25,-1129.75 850.25,-1129.75 844.25,-1123.75 844.25,-1117.75 844.25,-1117.75 844.25,-1091.25 844.25,-1091.25 844.25,-1085.25 850.25,-1079.25 856.25,-1079.25"/>
<text xml:space="preserve" text-anchor="middle" x="942.62" y="-1112.45" font-family="Times,serif" font-size="14.00">type = 2 (OP)</text>
<polyline fill="none" stroke="black" points="844.25,-1104.5 1041,-1104.5"/>
<text xml:space="preserve" text-anchor="middle" x="942.62" y="-1087.2" font-family="Times,serif" font-size="14.00">value = &#39;&#39; SHUTUP &#39;&#39; (59)</text>
</g>
<!-- node0x7bfdfe5e0250&#45;&gt;node0x7bfdfe5e0310 -->
<g id="edge12" class="edge">
<title>node0x7bfdfe5e0250&#45;&gt;node0x7bfdfe5e0310</title>
<path fill="none" stroke="black" d="M795.57,-1191.67C823.61,-1175.24 860.71,-1153.5 890.62,-1135.97"/>
<polygon fill="black" stroke="black" points="892.31,-1139.04 899.16,-1130.97 888.77,-1133 892.31,-1139.04"/>
</g>
<!-- node0x7bfdfe5e01c0 -->
<g id="node14" class="node">
<title>node0x7bfdfe5e01c0</title>
<path fill="#ff5050" stroke="black" d="M453.38,-916C453.38,-916 665.88,-916 665.88,-916 671.88,-916 677.88,-922 677.88,-928 677.88,-928 677.88,-1005 677.88,-1005 677.88,-1011 671.88,-1017 665.88,-1017 665.88,-1017 453.38,-1017 453.38,-1017 447.38,-1017 441.38,-1011 441.38,-1005 441.38,-1005 441.38,-928 441.38,-928 441.38,-922 447.38,-916 453.38,-916"/>
<text xml:space="preserve" text-anchor="middle" x="559.62" y="-999.7" font-family="Times,serif" font-size="14.00">type = 3 (ID)</text>
<polyline fill="none" stroke="black" points="441.38,-991.75 677.88,-991.75"/>
<text xml:space="preserve" text-anchor="middle" x="559.62" y="-974.45" font-family="Times,serif" font-size="14.00">name = &#39;&#39; result &#39;&#39;</text>
<polyline fill="none" stroke="black" points="441.38,-966.5 677.88,-966.5"/>
<text xml:space="preserve" text-anchor="middle" x="559.62" y="-949.2" font-family="Times,serif" font-size="14.00">number in name table = &#39;&#39; 23 &#39;&#39;</text>
<polyline fill="none" stroke="black" points="441.38,-941.25 677.88,-941.25"/>
<text xml:space="preserve" text-anchor="middle" x="559.62" y="-923.95" font-family="Times,serif" font-size="14.00">id_type = LOCL</text>
</g>
<!-- node0x7bfdfe5e0220&#45;&gt;node0x7bfdfe5e01c0 -->
<g id="edge13" class="edge">
<title>node0x7bfdfe5e0220&#45;&gt;node0x7bfdfe5e01c0</title>
<path fill="none" stroke="black" d="M718.49,-1078.87C696.52,-1063.47 667.27,-1042.96 639.87,-1023.75"/>
<polygon fill="black" stroke="black" points="642.1,-1021.04 631.9,-1018.17 638.08,-1026.77 642.1,-1021.04"/>
</g>
<!-- node0x7bfdfe5e01f0 -->
<g id="node15" class="node">
<title>node0x7bfdfe5e01f0</title>
<path fill="#ffd700" stroke="black" d="M708.25,-941.25C708.25,-941.25 815,-941.25 815,-941.25 821,-941.25 827,-947.25 827,-953.25 827,-953.25 827,-979.75 827,-979.75 827,-985.75 821,-991.75 815,-991.75 815,-991.75 708.25,-991.75 708.25,-991.75 702.25,-991.75 696.25,-985.75 696.25,-979.75 696.25,-979.75 696.25,-953.25 696.25,-953.25 696.25,-947.25 702.25,-941.25 708.25,-941.25"/>
<text xml:space="preserve" text-anchor="middle" x="761.62" y="-974.45" font-family="Times,serif" font-size="14.00">type = 1 (NUM)</text>
<polyline fill="none" stroke="black" points="696.25,-966.5 827,-966.5"/>
<text xml:space="preserve" text-anchor="middle" x="761.62" y="-949.2" font-family="Times,serif" font-size="14.00">value = &#39;&#39; 1 &#39;&#39;</text>
</g>
<!-- node0x7bfdfe5e0220&#45;&gt;node0x7bfdfe5e01f0 -->
<g id="edge14" class="edge">
<title>node0x7bfdfe5e0220&#45;&gt;node0x7bfdfe5e01f0</title>
<path fill="none" stroke="black" d="M755.07,-1078.87C756.31,-1057.79 758.12,-1027.15 759.52,-1003.35"/>
<polygon fill="black" stroke="black" points="763,-1003.64 760.1,-993.46 756.02,-1003.23 763,-1003.64"/>
</g>
<!-- node0x7bfdfe5e02e0 -->
<g id="node16" class="node">
<title>node0x7bfdfe5e02e0</title>
<path fill="#00ffdd" stroke="black" d="M873.5,-941.25C873.5,-941.25 993.75,-941.25 993.75,-941.25 999.75,-941.25 1005.75,-947.25 1005.75,-953.25 1005.75,-953.25 1005.75,-979.75 1005.75,-979.75 1005.75,-985.75 999.75,-991.75 993.75,-991.75 993.75,-991.75 873.5,-991.75 873.5,-991.75 867.5,-991.75 861.5,-985.75 861.5,-979.75 861.5,-979.75 861.5,-953.25 861.5,-953.25 861.5,-947.25 867.5,-941.25 873.5,-941.25"/>
<text xml:space="preserve" text-anchor="middle" x="933.62" y="-974.45" font-family="Times,serif" font-size="14.00">type = 2 (OP)</text>
<polyline fill="none" stroke="black" points="861.5,-966.5 1005.75,-966.5"/>
<text xml:space="preserve" text-anchor="middle" x="933.62" y="-949.2" font-family="Times,serif" font-size="14.00">value = &#39;&#39; = &#39;&#39; (61)</text>
</g>
<!-- node0x7bfdfe5e0310&#45;&gt;node0x7bfdfe5e02e0 -->
<g id="edge15" class="edge">
<title>node0x7bfdfe5e0310&#45;&gt;node0x7bfdfe5e02e0</title>
<path fill="none" stroke="black" d="M941,-1078.87C939.6,-1057.79 937.57,-1027.15 936,-1003.35"/>
<polygon fill="black" stroke="black" points="939.5,-1003.2 935.34,-993.46 932.51,-1003.66 939.5,-1003.2"/>
</g>
<!-- node0x7bfdfe5e0400 -->
<g id="node17" class="node">
<title>node0x7bfdfe5e0400</title>
<path fill="#e0e0e0" stroke="black" d="M1036.25,-941.25C1036.25,-941.25 1209,-941.25 1209,-941.25 1215,-941.25 1221,-947.25 1221,-953.25 1221,-953.25 1221,-979.75 1221,-979.75 1221,-985.75 1215,-991.75 1209,-991.75 1209,-991.75 1036.25,-991.75 1036.25,-991.75 1030.25,-991.75 1024.25,-985.75 1024.25,-979.75 1024.25,-979.75 1024.25,-953.25 1024.25,-953.25 1024.25,-947.25 1030.25,-941.25 1036.25,-941.25"/>
<text xml:space="preserve" text-anchor="middle" x="1122.62" y="-974.45" font-family="Times,serif" font-size="14.00">type = 2 (OP)</text>
<polyline fill="none" stroke="black" points="1024.25,-966.5 1221,-966.5"/>
<text xml:space="preserve" text-anchor="middle" x="1122.62" y="-949.2" font-family="Times,serif" font-size="14.00">value = &#39;&#39; SHUTUP &#39;&#39; (59)</text>
</g>
<!-- node0x7bfdfe5e0310&#45;&gt;node0x7bfdfe5e0400 -->
<g id="edge16" class="edge">
<title>node0x7bfdfe5e0310&#45;&gt;node0x7bfdfe5e0400</title>
<path fill="none" stroke="black" d="M975.22,-1078.87C1004.82,-1056.51 1048.64,-1023.4 1080.81,-999.1"/>
<polygon fill="black" stroke="black" points="1082.89,-1001.91 1088.76,-993.09 1078.67,-996.32 1082.89,-1001.91"/>
</g>
<!-- node0x7bfdfe5e0280 -->
<g id="node18" class="node">
<title>node0x7bfdfe5e0280</title>
<path fill="#ff5050" stroke="black" d="M630.38,-778C630.38,-778 842.88,-778 842.88,-778 848.88,-778 854.88,-784 854.88,-790 854.88,-790 854.88,-867 854.88,-867 854.88,-873 848.88,-879 842.88,-879 842.88,-879 630.38,-879 630.38,-879 624.38,-879 618.38,-873 618.38,-867 618.38,-867 618.38,-790 618.38,-790 618.38,-784 624.38,-778 630.38,-778"/>
<text xml:space="preserve" text-anchor="middle" x="736.62" y="-861.7" font-family="Times,serif" font-size="14.00">type = 3 (ID)</text>
<polyline fill="none" stroke="black" points="618.38,-853.75 854.88,-853.75"/>
<text xml:space="preserve" text-anchor="middle" x="736.62" y="-836.45" font-family="Times,serif" font-size="14.00">name = &#39;&#39; old &#39;&#39;</text>
<polyline fill="none" stroke="black" points="618.38,-828.5 854.88,-828.5"/>
<text xml:space="preserve" text-anchor="middle" x="736.62" y="-811.2" font-family="Times,serif" font-size="14.00">number in name table = &#39;&#39; 24 &#39;&#39;</text>
<polyline fill="none" stroke="black" points="618.38,-803.25 854.88,-803.25"/>
<text xml:space="preserve" text-anchor="middle" x="736.62" y="-785.95" font-family="Times,serif" font-size="14.00">id_type = LOCL</text>
</g>
<!-- node0x7bfdfe5e02e0&#45;&gt;node0x7bfdfe5e0280 -->
<g id="edge17" class="edge">
<title>node0x7bfdfe5e02e0&#45;&gt;node0x7bfdfe5e0280</title>
<path fill="none" stroke="black" d="M897.95,-940.87C875.64,-925.47 845.94,-904.96 818.11,-885.75"/>
<polygon fill="black" stroke="black" points="820.22,-882.96 810,-880.16 816.24,-888.72 820.22,-882.96"/>
</g>
<!-- node0x7bfdfe5e02b0 -->
<g id="node19" class="node">
<title>node0x7bfdfe5e02b0</title>
<path fill="#ffd700" stroke="black" d="M885.25,-803.25C885.25,-803.25 992,-803.25 992,-803.25 998,-803.25 1004,-809.25 1004,-815.25 1004,-815.25 1004,-841.75 1004,-841.75 1004,-847.75 998,-853.75 992,-853.75 992,-853.75 885.25,-853.75 885.25,-853.75 879.25,-853.75 873.25,-847.75 873.25,-841.75 873.25,-841.75 873.25,-815.25 873.25,-815.25 873.25,-809.25 879.25,-803.25 885.25,-803.25"/>
<text xml:space="preserve" text-anchor="middle" x="938.62" y="-836.45" font-family="Times,serif" font-size="14.00">type = 1 (NUM)</text>
<polyline fill="none" stroke="black" points="873.25,-828.5 1004,-828.5"/>
<text xml:space="preserve" text-anchor="middle" x="938.62" y="-811.2" font-family="Times,serif" font-size="14.00">value = &#39;&#39; 1 &#39;&#39;</text>
</g>
<!-- node0x7bfdfe5e02e0&#45;&gt;node0x7bfdfe5e02b0 -->
<g id="edge18" class="edge">
<title>node0x7bfdfe5e02e0&#45;&gt;node0x7bfdfe5e02b0</title>
<path fill="none" stroke="black" d="M934.53,-940.87C935.31,-919.79 936.43,-889.15 937.31,-865.35"/>
<polygon fill="black" stroke="black" points="940.8,-865.58 937.67,-855.46 933.81,-865.32 940.8,-865.58"/>
</g>
<!-- node0x7bfdfe5e03d0 -->
<g id="node20" class="node">
<title>node0x7bfdfe5e03d0</title>
<path fill="#f069f5" stroke="black" d="M1044.38,-803.25C1044.38,-803.25 1190.88,-803.25 1190.88,-803.25 1196.88,-803.25 1202.88,-809.25 1202.88,-815.25 1202.88,-815.25 1202.88,-841.75 1202.88,-841.75 1202.88,-847.75 1196.88,-853.75 1190.88,-853.75 1190.88,-853.75 1044.38,-853.75 1044.38,-853.75 1038.38,-853.75 1032.38,-847.75 1032.38,-841.75 1032.38,-841.75 1032.38,-815.25 1032.38,-815.25 1032.38,-809.25 1038.38,-803.25 1044.38,-803.25"/>
<text xml:space="preserve" text-anchor="middle" x="1117.62" y="-836.45" font-family="Times,serif" font-size="14.00">type = 4 (FUNC)</text>
<polyline fill="none" stroke="black" points="1032.38,-828.5 1202.88,-828.5"/>
<text xml:space="preserve" text-anchor="middle" x="1117.62" y="-811.2" font-family="Times,serif" font-size="14.00">value = &#39;&#39; CALL &#39;&#39; (67)</text>
</g>
<!-- node0x7bfdfe5e0400&#45;&gt;node0x7bfdfe5e03d0 -->
<g id="edge19" class="edge">
<title>node0x7bfdfe5e0400&#45;&gt;node0x7bfdfe5e03d0</title>
<path fill="none" stroke="black" d="M1121.72,-940.87C1120.94,-919.79 1119.82,-889.15 1118.94,-865.35"/>
<polygon fill="black" stroke="black" points="1122.44,-865.32 1118.58,-855.46 1115.45,-865.58 1122.44,-865.32"/>
</g>
<!-- node0x7bfdfe5e06d0 -->
<g id="node21" class="node">
<title>node0x7bfdfe5e06d0</title>
<path fill="#e0e0e0" stroke="black" d="M1318.25,-803.25C1318.25,-803.25 1491,-803.25 1491,-803.25 1497,-803.25 1503,-809.25 1503,-815.25 1503,-815.25 1503,-841.75 1503,-841.75 1503,-847.75 1497,-853.75 1491,-853.75 1491,-853.75 1318.25,-853.75 1318.25,-853.75 1312.25,-853.75 1306.25,-847.75 1306.25,-841.75 1306.25,-841.75 1306.25,-815.25 1306.25,-815.25 1306.25,-809.25 1312.25,-803.25 1318.25,-803.25"/>
<text xml:space="preserve" text-anchor="middle" x="1404.62" y="-836.45" font-family="Times,serif" font-size="14.00">type = 2 (OP)</text>
<polyline fill="none" stroke="black" points="1306.25,-828.5 1503,-828.5"/>
<text xml:space="preserve" text-anchor="middle" x="1404.62" y="-811.2" font-family="Times,serif" font-size="14.00">value = &#39;&#39; SHUTUP &#39;&#39; (59)</text>
</g>
<!-- node0x7bfdfe5e0400&#45;&gt;node0x7bfdfe5e06d0 -->
<g id="edge20" class="edge">
<title>node0x7bfdfe5e0400&#45;&gt;node0x7bfdfe5e06d0</title>
<path fill="none" stroke="black" d="M1173.69,-940.87C1221.36,-917.88 1292.56,-883.55 1343.28,-859.08"/>
<polygon fill="black" stroke="black" points="1344.61,-862.33 1352.1,-854.83 1341.57,-856.02 1344.61,-862.33"/>
</g>
<!-- node0x7bfdfe5e0340 -->
<g id="node22" class="node">
<title>node0x7bfdfe5e0340</title>
<path fill="#2ee31e" stroke="black" d="M873.75,-690.5C873.75,-690.5 1019.5,-690.5 1019.5,-690.5 1025.5,-690.5 1031.5,-696.5 1031.5,-702.5 1031.5,-702.5 1031.5,-729 1031.5,-729 1031.5,-735 1025.5,-741 1019.5,-741 1019.5,-741 873.75,-741 873.75,-741 867.75,-741 861.75,-735 861.75,-729 861.75,-729 861.75,-702.5 861.75,-702.5 861.75,-696.5 867.75,-690.5 873.75,-690.5"/>
<text xml:space="preserve" text-anchor="middle" x="946.62" y="-723.7" font-family="Times,serif" font-size="14.00">type = 4 (FUNC)</text>
<polyline fill="none" stroke="black" points="861.75,-715.75 1031.5,-715.75"/>
<text xml:space="preserve" text-anchor="middle" x="946.62" y="-698.45" font-family="Times,serif" font-size="14.00">value = &#39;&#39; scanf &#39;&#39; (25)</text>
</g>
<!-- node0x7bfdfe5e03d0&#45;&gt;node0x7bfdfe5e0340 -->
<g id="edge21" class="edge">
<title>node0x7bfdfe5e03d0&#45;&gt;node0x7bfdfe5e0340</title>
<path fill="none" stroke="black" d="M1079.67,-802.92C1054.52,-786.63 1021.32,-765.13 994.38,-747.68"/>
<polygon fill="black" stroke="black" points="996.33,-744.77 986.04,-742.27 992.53,-750.65 996.33,-744.77"/>
</g>
<!-- node0x7bfdfe5e03a0 -->
<g id="node23" class="node">
<title>node0x7bfdfe5e03a0</title>
<path fill="#feaadf" stroke="black" d="M1061.25,-690.5C1061.25,-690.5 1174,-690.5 1174,-690.5 1180,-690.5 1186,-696.5 1186,-702.5 1186,-702.5 1186,-729 1186,-729 1186,-735 1180,-741 1174,-741 1174,-741 1061.25,-741 1061.25,-741 1055.25,-741 1049.25,-735 1049.25,-729 1049.25,-729 1049.25,-702.5 1049.25,-702.5 1049.25,-696.5 1055.25,-690.5 1061.25,-690.5"/>
<text xml:space="preserve" text-anchor="middle" x="1117.62" y="-723.7" font-family="Times,serif" font-size="14.00">type = 4 (FUNC)</text>
<polyline fill="none" stroke="black" points="1049.25,-715.75 1186,-715.75"/>
<text xml:space="preserve" text-anchor="middle" x="1117.62" y="-698.45" font-family="Times,serif" font-size="14.00">value = &#39;&#39; , &#39;&#39; (44)</text>
</g>
<!-- node0x7bfdfe5e03d0&#45;&gt;node0x7bfdfe5e03a0 -->
<g id="edge22" class="edge">
<title>node0x7bfdfe5e03d0&#45;&gt;node0x7bfdfe5e03a0</title>
<path fill="none" stroke="black" d="M1117.62,-802.92C1117.62,-788.15 1117.62,-769.1 1117.62,-752.66"/>
<polygon fill="black" stroke="black" points="1121.13,-752.77 1117.63,-742.77 1114.13,-752.77 1121.13,-752.77"/>
</g>
<!-- node0x7bfdfe5e06a0 -->
<g id="node25" class="node">
<title>node0x7bfdfe5e06a0</title>
<path fill="#df73df" stroke="black" d="M1317.5,-690.5C1317.5,-690.5 1491.75,-690.5 1491.75,-690.5 1497.75,-690.5 1503.75,-696.5 1503.75,-702.5 1503.75,-702.5 1503.75,-729 1503.75,-729 1503.75,-735 1497.75,-741 1491.75,-741 1491.75,-741 1317.5,-741 1317.5,-741 1311.5,-741 1305.5,-735 1305.5,-729 1305.5,-729 1305.5,-702.5 1305.5,-702.5 1305.5,-696.5 1311.5,-690.5 1317.5,-690.5"/>
<text xml:space="preserve" text-anchor="middle" x="1404.62" y="-723.7" font-family="Times,serif" font-size="14.00">type = 2 (OP)</text>
<polyline fill="none" stroke="black" points="1305.5,-715.75 1503.75,-715.75"/>
<text xml:space="preserve" text-anchor="middle" x="1404.62" y="-698.45" font-family="Times,serif" font-size="14.00">value = &#39;&#39; MONEY &#39;&#39; (119)</text>
</g>
<!-- node0x7bfdfe5e06d0&#45;&gt;node0x7bfdfe5e06a0 -->
<g id="edge24" class="edge">
<title>node0x7bfdfe5e06d0&#45;&gt;node0x7bfdfe5e06a0</title>
<path fill="none" stroke="black" d="M1404.62,-802.92C1404.62,-788.15 1404.62,-769.1 1404.62,-752.66"/>
<polygon fill="black" stroke="black" points="1408.13,-752.77 1404.63,-742.77 1401.13,-752.77 1408.13,-752.77"/>
</g>
<!-- node0x7bfdfe5e07f0 -->
<g id="node26" class="node">
<title>node0x7bfdfe5e07f0</title>
<path fill="#e0e0e0" stroke="black" d="M1779.25,-690.5C1779.25,-690.5 1952,-690.5 1952,-690.5 1958,-690.5 1964,-696.5 1964,-702.5 1964,-702.5 1964,-729 1964,-729 1964,-735 1958,-741 1952,-741 1952,-741 1779.25,-741 1779.25,-741 1773.25,-741 1767.25,-735 1767.25,-729 1767.25,-729 1767.25,-702.5 1767.25,-702.5 1767.25,-696.5 1773.25,-690.5 1779.25,-690.5"/>
<text xml:space="preserve" text-anchor="middle" x="1865.62" y="-723.7" font-family="Times,serif" font-size="14.00">type = 2 (OP)</text>
<polyline fill="none" stroke="black" points="1767.25,-715.75 1964,-715.75"/>
<text xml:space="preserve" text-anchor="middle" x="1865.62" y="-698.45" font-family="Times,serif" font-size="14.00">value = &#39;&#39; SHUTUP &#39;&#39; (59)</text>
</g>
<!-- node0x7bfdfe5e06d0&#45;&gt;node0x7bfdfe5e07f0 -->
<g id="edge25" class="edge">
<title>node0x7bfdfe5e06d0&#45;&gt;node0x7bfdfe5e07f0</title>
<path fill="none" stroke="black" d="M1503.24,-803.81C1577.36,-786 1678.89,-761.61 1755.64,-743.17"/>
<polygon fill="black" stroke="black" points="1756.39,-746.59 1765.3,-740.85 1754.76,-739.78 1756.39,-746.59"/>
</g>
<!-- node0x7bfdfe5e0370 -->
<g id="node24" class="node">
<title>node0x7bfdfe5e0370</title>
<path fill="#ff5050" stroke="black" d="M925.38,-552.5C925.38,-552.5 1137.88,-552.5 1137.88,-552.5 1143.88,-552.5 1149.88,-558.5 1149.88,-564.5 1149.88,-564.5 1149.88,-641.5 1149.88,-641.5 1149.88,-647.5 1143.88,-653.5 1137.88,-653.5 1137.88,-653.5 925.38,-653.5 925.38,-653.5 919.38,-653.5 913.38,-647.5 913.38,-641.5 913.38,-641.5 913.38,-564.5 913.38,-564.5 913.38,-558.5 919.38,-552.5 925.38,-552.5"/>
<text xml:space="preserve" text-anchor="middle" x="1031.62" y="-636.2" font-family="Times,serif" font-size="14.00">type = 3 (ID)</text>
<polyline fill="none" stroke="black" points="913.38,-628.25 1149.88,-628.25"/>
<text xml:space="preserve" text-anchor="middle" x="1031.62" y="-610.95" font-family="Times,serif" font-size="14.00">name = &#39;&#39; numb &#39;&#39;</text>
<polyline fill="none" stroke="black" points="913.38,-603 1149.88,-603"/>
<text xml:space="preserve" text-anchor="middle" x="1031.62" y="-585.7" font-family="Times,serif" font-size="14.00">number in name table = &#39;&#39; 22 &#39;&#39;</text>
<polyline fill="none" stroke="black" points="913.38,-577.75 1149.88,-577.75"/>
<text xml:space="preserve" text-anchor="middle" x="1031.62" y="-560.45" font-family="Times,serif" font-size="14.00">id_type = LOCL</text>
</g>
<!-- node0x7bfdfe5e03a0&#45;&gt;node0x7bfdfe5e0370 -->
<g id="edge23" class="edge">
<title>node0x7bfdfe5e03a0&#45;&gt;node0x7bfdfe5e0370</title>
<path fill="none" stroke="black" d="M1098.54,-690.17C1092.17,-681.97 1084.78,-672.46 1077.29,-662.8"/>
<polygon fill="black" stroke="black" points="1080.22,-660.87 1071.32,-655.12 1074.69,-665.17 1080.22,-660.87"/>
</g>
<!-- node0x7bfdfe5e0430 -->
<g id="node27" class="node">
<title>node0x7bfdfe5e0430</title>
<path fill="#ff5050" stroke="black" d="M1180.38,-552.5C1180.38,-552.5 1392.88,-552.5 1392.88,-552.5 1398.88,-552.5 1404.88,-558.5 1404.88,-564.5 1404.88,-564.5 1404.88,-641.5 1404.88,-641.5 1404.88,-647.5 1398.88,-653.5 1392.88,-653.5 1392.88,-653.5 1180.38,-653.5 1180.38,-653.5 1174.38,-653.5 1168.38,-647.5 1168.38,-641.5 1168.38,-641.5 1168.38,-564.5 1168.38,-564.5 1168.38,-558.5 1174.38,-552.5 1180.38,-552.5"/>
<text xml:space="preserve" text-anchor="middle" x="1286.62" y="-636.2" font-family="Times,serif" font-size="14.00">type = 3 (ID)</text>
<polyline fill="none" stroke="black" points="1168.38,-628.25 1404.88,-628.25"/>
<text xml:space="preserve" text-anchor="middle" x="1286.62" y="-610.95" font-family="Times,serif" font-size="14.00">name = &#39;&#39; numb &#39;&#39;</text>
<polyline fill="none" stroke="black" points="1168.38,-603 1404.88,-603"/>
<text xml:space="preserve" text-anchor="middle" x="1286.62" y="-585.7" font-family="Times,serif" font-size="14.00">number in name table = &#39;&#39; 22 &#39;&#39;</text>
<polyline fill="none" stroke="black" points="1168.38,-577.75 1404.88,-577.75"/>
<text xml:space="preserve" text-anchor="middle" x="1286.62" y="-560.45" font-family="Times,serif" font-size="14.00">id_type = LOCL</text>
</g>
<!-- node0x7bfdfe5e06a0&#45;&gt;node0x7bfdfe5e0430 -->
<g id="edge26" class="edge">
<title>node0x7bfdfe5e06a0&#45;&gt;node0x7bfdfe5e0430</title>
<path fill="none" stroke="black" d="M1378.44,-690.17C1369.35,-681.64 1358.73,-671.68 1348.01,-661.62"/>
<polygon fill="black" stroke="black" points="1350.61,-659.26 1340.92,-654.96 1345.82,-664.36 1350.61,-659.26"/>
</g>
<!-- node0x7bfdfe5e0550 -->
<g id="node28" class="node">
<title>node0x7bfdfe5e0550</title>
<path fill="#e0e0e0" stroke="black" d="M1435.25,-577.75C1435.25,-577.75 1608,-577.75 1608,-577.75 1614,-577.75 1620,-583.75 1620,-589.75 1620,-589.75 1620,-616.25 1620,-616.25 1620,-622.25 1614,-628.25 1608,-628.25 1608,-628.25 1435.25,-628.25 1435.25,-628.25 1429.25,-628.25 1423.25,-622.25 1423.25,-616.25 1423.25,-616.25 1423.25,-589.75 1423.25,-589.75 1423.25,-583.75 1429.25,-577.75 1435.25,-577.75"/>
<text xml:space="preserve" text-anchor="middle" x="1521.62" y="-610.95" font-family="Times,serif" font-size="14.00">type = 2 (OP)</text>
<polyline fill="none" stroke="black" points="1423.25,-603 1620,-603"/>
<text xml:space="preserve" text-anchor="middle" x="1521.62" y="-585.7" font-family="Times,serif" font-size="14.00">value = &#39;&#39; SHUTUP &#39;&#39; (59)</text>
</g>
<!-- node0x7bfdfe5e06a0&#45;&gt;node0x7bfdfe5e0550 -->
<g id="edge27" class="edge">
<title>node0x7bfdfe5e06a0&#45;&gt;node0x7bfdfe5e0550</title>
<path fill="none" stroke="black" d="M1430.59,-690.17C1447.4,-674.26 1469.48,-653.36 1487.68,-636.14"/>
<polygon fill="black" stroke="black" points="1489.78,-638.97 1494.63,-629.55 1484.96,-633.88 1489.78,-638.97"/>
</g>
<!-- node0x7bfdfe5e07c0 -->
<g id="node40" class="node">
<title>node0x7bfdfe5e07c0</title>
<path fill="#00ffdd" stroke="black" d="M1805.5,-577.75C1805.5,-577.75 1925.75,-577.75 1925.75,-577.75 1931.75,-577.75 1937.75,-583.75 1937.75,-589.75 1937.75,-589.75 1937.75,-616.25 1937.75,-616.25 1937.75,-622.25 1931.75,-628.25 1925.75,-628.25 1925.75,-628.25 1805.5,-628.25 1805.5,-628.25 1799.5,-628.25 1793.5,-622.25 1793.5,-616.25 1793.5,-616.25 1793.5,-589.75 1793.5,-589.75 1793.5,-583.75 1799.5,-577.75 1805.5,-577.75"/>
<text xml:space="preserve" text-anchor="middle" x="1865.62" y="-610.95" font-family="Times,serif" font-size="14.00">type = 2 (OP)</text>
<polyline fill="none" stroke="black" points="1793.5,-603 1937.75,-603"/>
<text xml:space="preserve" text-anchor="middle" x="1865.62" y="-585.7" font-family="Times,serif" font-size="14.00">value = &#39;&#39; = &#39;&#39; (61)</text>
</g>
<!-- node0x7bfdfe5e07f0&#45;&gt;node0x7bfdfe5e07c0 -->
<g id="edge39" class="edge">
<title>node0x7bfdfe5e07f0&#45;&gt;node0x7bfdfe5e07c0</title>
<path fill="none" stroke="black" d="M1865.62,-690.17C1865.62,-675.4 1865.62,-656.35 1865.62,-639.91"/>
<polygon fill="black" stroke="black" points="1869.13,-640.02 1865.63,-630.02 1862.13,-640.02 1869.13,-640.02"/>
</g>
<!-- node0x7bfdfe5e08e0 -->
<g id="node41" class="node">
<title>node0x7bfdfe5e08e0</title>
<path fill="#e0e0e0" stroke="black" d="M2023.25,-577.75C2023.25,-577.75 2196,-577.75 2196,-577.75 2202,-577.75 2208,-583.75 2208,-589.75 2208,-589.75 2208,-616.25 2208,-616.25 2208,-622.25 2202,-628.25 2196,-628.25 2196,-628.25 2023.25,-628.25 2023.25,-628.25 2017.25,-628.25 2011.25,-622.25 2011.25,-616.25 2011.25,-616.25 2011.25,-589.75 2011.25,-589.75 2011.25,-583.75 2017.25,-577.75 2023.25,-577.75"/>
<text xml:space="preserve" text-anchor="middle" x="2109.62" y="-610.95" font-family="Times,serif" font-size="14.00">type = 2 (OP)</text>
<polyline fill="none" stroke="black" points="2011.25,-603 2208,-603"/>
<text xml:space="preserve" text-anchor="middle" x="2109.62" y="-585.7" font-family="Times,serif" font-size="14.00">value = &#39;&#39; SHUTUP &#39;&#39; (59)</text>
</g>
<!-- node0x7bfdfe5e07f0&#45;&gt;node0x7bfdfe5e08e0 -->
<g id="edge40" class="edge">
<title>node0x7bfdfe5e07f0&#45;&gt;node0x7bfdfe5e08e0</title>
<path fill="none" stroke="black" d="M1920.08,-690.03C1957.08,-673.24 2006.19,-650.95 2045.15,-633.26"/>
<polygon fill="black" stroke="black" points="2046.3,-636.59 2053.96,-629.27 2043.41,-630.21 2046.3,-636.59"/>
</g>
<!-- node0x7bfdfe5e0520 -->
<g id="node29" class="node">
<title>node0x7bfdfe5e0520</title>
<path fill="#00ffdd" stroke="black" d="M1225.5,-439.75C1225.5,-439.75 1345.75,-439.75 1345.75,-439.75 1351.75,-439.75 1357.75,-445.75 1357.75,-451.75 1357.75,-451.75 1357.75,-478.25 1357.75,-478.25 1357.75,-484.25 1351.75,-490.25 1345.75,-490.25 1345.75,-490.25 1225.5,-490.25 1225.5,-490.25 1219.5,-490.25 1213.5,-484.25 1213.5,-478.25 1213.5,-478.25 1213.5,-451.75 1213.5,-451.75 1213.5,-445.75 1219.5,-439.75 1225.5,-439.75"/>
<text xml:space="preserve" text-anchor="middle" x="1285.62" y="-472.95" font-family="Times,serif" font-size="14.00">type = 2 (OP)</text>
<polyline fill="none" stroke="black" points="1213.5,-465 1357.75,-465"/>
<text xml:space="preserve" text-anchor="middle" x="1285.62" y="-447.7" font-family="Times,serif" font-size="14.00">value = &#39;&#39; = &#39;&#39; (61)</text>
</g>
<!-- node0x7bfdfe5e0550&#45;&gt;node0x7bfdfe5e0520 -->
<g id="edge28" class="edge">
<title>node0x7bfdfe5e0550&#45;&gt;node0x7bfdfe5e0520</title>
<path fill="none" stroke="black" d="M1478.89,-577.37C1439.41,-554.62 1380.65,-520.76 1338.3,-496.35"/>
<polygon fill="black" stroke="black" points="1340.17,-493.39 1329.75,-491.43 1336.67,-499.46 1340.17,-493.39"/>
</g>
<!-- node0x7bfdfe5e0670 -->
<g id="node30" class="node">
<title>node0x7bfdfe5e0670</title>
<path fill="#e0e0e0" stroke="black" d="M1435.25,-439.75C1435.25,-439.75 1608,-439.75 1608,-439.75 1614,-439.75 1620,-445.75 1620,-451.75 1620,-451.75 1620,-478.25 1620,-478.25 1620,-484.25 1614,-490.25 1608,-490.25 1608,-490.25 1435.25,-490.25 1435.25,-490.25 1429.25,-490.25 1423.25,-484.25 1423.25,-478.25 1423.25,-478.25 1423.25,-451.75 1423.25,-451.75 1423.25,-445.75 1429.25,-439.75 1435.25,-439.75"/>
<text xml:space="preserve" text-anchor="middle" x="1521.62" y="-472.95" font-family="Times,serif" font-size="14.00">type = 2 (OP)</text>
<polyline fill="none" stroke="black" points="1423.25,-465 1620,-465"/>
<text xml:space="preserve" text-anchor="middle" x="1521.62" y="-447.7" font-family="Times,serif" font-size="14.00">value = &#39;&#39; SHUTUP &#39;&#39; (59)</text>
</g>
<!-- node0x7bfdfe5e0550&#45;&gt;node0x7bfdfe5e0670 -->
<g id="edge29" class="edge">
<title>node0x7bfdfe5e0550&#45;&gt;node0x7bfdfe5e0670</title>
<path fill="none" stroke="black" d="M1521.62,-577.37C1521.62,-556.29 1521.62,-525.65 1521.62,-501.85"/>
<polygon fill="black" stroke="black" points="1525.13,-501.96 1521.63,-491.96 1518.13,-501.96 1525.13,-501.96"/>
</g>
<!-- node0x7bfdfe5e0460 -->
<g id="node31" class="node">
<title>node0x7bfdfe5e0460</title>
<path fill="#ff5050" stroke="black" d="M959.38,-276.5C959.38,-276.5 1171.88,-276.5 1171.88,-276.5 1177.88,-276.5 1183.88,-282.5 1183.88,-288.5 1183.88,-288.5 1183.88,-365.5 1183.88,-365.5 1183.88,-371.5 1177.88,-377.5 1171.88,-377.5 1171.88,-377.5 959.38,-377.5 959.38,-377.5 953.38,-377.5 947.38,-371.5 947.38,-365.5 947.38,-365.5 947.38,-288.5 947.38,-288.5 947.38,-282.5 953.38,-276.5 959.38,-276.5"/>
<text xml:space="preserve" text-anchor="middle" x="1065.62" y="-360.2" font-family="Times,serif" font-size="14.00">type = 3 (ID)</text>
<polyline fill="none" stroke="black" points="947.38,-352.25 1183.88,-352.25"/>
<text xml:space="preserve" text-anchor="middle" x="1065.62" y="-334.95" font-family="Times,serif" font-size="14.00">name = &#39;&#39; result &#39;&#39;</text>
<polyline fill="none" stroke="black" points="947.38,-327 1183.88,-327"/>
<text xml:space="preserve" text-anchor="middle" x="1065.62" y="-309.7" font-family="Times,serif" font-size="14.00">number in name table = &#39;&#39; 23 &#39;&#39;</text>
<polyline fill="none" stroke="black" points="947.38,-301.75 1183.88,-301.75"/>
<text xml:space="preserve" text-anchor="middle" x="1065.62" y="-284.45" font-family="Times,serif" font-size="14.00">id_type = LOCL</text>
</g>
<!-- node0x7bfdfe5e0520&#45;&gt;node0x7bfdfe5e0460 -->
<g id="edge30" class="edge">
<title>node0x7bfdfe5e0520&#45;&gt;node0x7bfdfe5e0460</title>
<path fill="none" stroke="black" d="M1245.78,-439.37C1220.65,-423.83 1187.12,-403.11 1155.81,-383.75"/>
<polygon fill="black" stroke="black" points="1157.81,-380.87 1147.47,-378.59 1154.13,-386.83 1157.81,-380.87"/>
</g>
<!-- node0x7bfdfe5e04f0 -->
<g id="node32" class="node">
<title>node0x7bfdfe5e04f0</title>
<path fill="#00ffdd" stroke="black" d="M1213.88,-301.75C1213.88,-301.75 1357.38,-301.75 1357.38,-301.75 1363.38,-301.75 1369.38,-307.75 1369.38,-313.75 1369.38,-313.75 1369.38,-340.25 1369.38,-340.25 1369.38,-346.25 1363.38,-352.25 1357.38,-352.25 1357.38,-352.25 1213.88,-352.25 1213.88,-352.25 1207.88,-352.25 1201.88,-346.25 1201.88,-340.25 1201.88,-340.25 1201.88,-313.75 1201.88,-313.75 1201.88,-307.75 1207.88,-301.75 1213.88,-301.75"/>
<text xml:space="preserve" text-anchor="middle" x="1285.62" y="-334.95" font-family="Times,serif" font-size="14.00">type = 2 (OP)</text>
<polyline fill="none" stroke="black" points="1201.88,-327 1369.38,-327"/>
<text xml:space="preserve" text-anchor="middle" x="1285.62" y="-309.7" font-family="Times,serif" font-size="14.00">value = &#39;&#39; MUL &#39;&#39; (42)</text>
</g>
<!-- node0x7bfdfe5e0520&#45;&gt;node0x7bfdfe5e04f0 -->
<g id="edge31" class="edge">
<title>node0x7bfdfe5e0520&#45;&gt;node0x7bfdfe5e04f0</title>
<path fill="none" stroke="black" d="M1285.62,-439.37C1285.62,-418.29 1285.62,-387.65 1285.62,-363.85"/>
<polygon fill="black" stroke="black" points="1289.13,-363.96 1285.63,-353.96 1282.13,-363.96 1289.13,-363.96"/>
</g>
<!-- node0x7bfdfe5e0640 -->
<g id="node35" class="node">
<title>node0x7bfdfe5e0640</title>
<path fill="#00ffdd" stroke="black" d="M1480.5,-301.75C1480.5,-301.75 1600.75,-301.75 1600.75,-301.75 1606.75,-301.75 1612.75,-307.75 1612.75,-313.75 1612.75,-313.75 1612.75,-340.25 1612.75,-340.25 1612.75,-346.25 1606.75,-352.25 1600.75,-352.25 1600.75,-352.25 1480.5,-352.25 1480.5,-352.25 1474.5,-352.25 1468.5,-346.25 1468.5,-340.25 1468.5,-340.25 1468.5,-313.75 1468.5,-313.75 1468.5,-307.75 1474.5,-301.75 1480.5,-301.75"/>
<text xml:space="preserve" text-anchor="middle" x="1540.62" y="-334.95" font-family="Times,serif" font-size="14.00">type = 2 (OP)</text>
<polyline fill="none" stroke="black" points="1468.5,-327 1612.75,-327"/>
<text xml:space="preserve" text-anchor="middle" x="1540.62" y="-309.7" font-family="Times,serif" font-size="14.00">value = &#39;&#39; = &#39;&#39; (61)</text>
</g>
<!-- node0x7bfdfe5e0670&#45;&gt;node0x7bfdfe5e0640 -->
<g id="edge34" class="edge">
<title>node0x7bfdfe5e0670&#45;&gt;node0x7bfdfe5e0640</title>
<path fill="none" stroke="black" d="M1525.07,-439.37C1528.01,-418.29 1532.29,-387.65 1535.62,-363.85"/>
<polygon fill="black" stroke="black" points="1539.08,-364.33 1537,-353.94 1532.15,-363.36 1539.08,-364.33"/>
</g>
<!-- node0x7bfdfe5e0490 -->
<g id="node33" class="node">
<title>node0x7bfdfe5e0490</title>
<path fill="#ff5050" stroke="black" d="M924.38,-138.5C924.38,-138.5 1136.88,-138.5 1136.88,-138.5 1142.88,-138.5 1148.88,-144.5 1148.88,-150.5 1148.88,-150.5 1148.88,-227.5 1148.88,-227.5 1148.88,-233.5 1142.88,-239.5 1136.88,-239.5 1136.88,-239.5 924.38,-239.5 924.38,-239.5 918.38,-239.5 912.38,-233.5 912.38,-227.5 912.38,-227.5 912.38,-150.5 912.38,-150.5 912.38,-144.5 918.38,-138.5 924.38,-138.5"/>
<text xml:space="preserve" text-anchor="middle" x="1030.62" y="-222.2" font-family="Times,serif" font-size="14.00">type = 3 (ID)</text>
<polyline fill="none" stroke="black" points="912.38,-214.25 1148.88,-214.25"/>
<text xml:space="preserve" text-anchor="middle" x="1030.62" y="-196.95" font-family="Times,serif" font-size="14.00">name = &#39;&#39; result &#39;&#39;</text>
<polyline fill="none" stroke="black" points="912.38,-189 1148.88,-189"/>
<text xml:space="preserve" text-anchor="middle" x="1030.62" y="-171.7" font-family="Times,serif" font-size="14.00">number in name table = &#39;&#39; 23 &#39;&#39;</text>
<polyline fill="none" stroke="black" points="912.38,-163.75 1148.88,-163.75"/>
<text xml:space="preserve" text-anchor="middle" x="1030.62" y="-146.45" font-family="Times,serif" font-size="14.00">id_type = LOCL</text>
</g>
<!-- node0x7bfdfe5e04f0&#45;&gt;node0x7bfdfe5e0490 -->
<g id="edge32" class="edge">
<title>node0x7bfdfe5e04f0&#45;&gt;node0x7bfdfe5e0490</title>
<path fill="none" stroke="black" d="M1239.77,-301.28C1224.75,-293.21 1207.99,-284.21 1192.62,-276 1173.97,-266.03 1154.09,-255.45 1134.88,-245.24"/>
<polygon fill="black" stroke="black" points="1136.71,-242.25 1126.24,-240.65 1133.42,-248.43 1136.71,-242.25"/>
</g>
<!-- node0x7bfdfe5e04c0 -->
<g id="node34" class="node">
<title>node0x7bfdfe5e04c0</title>
<path fill="#ff5050" stroke="black" d="M1179.38,-138.5C1179.38,-138.5 1391.88,-138.5 1391.88,-138.5 1397.88,-138.5 1403.88,-144.5 1403.88,-150.5 1403.88,-150.5 1403.88,-227.5 1403.88,-227.5 1403.88,-233.5 1397.88,-239.5 1391.88,-239.5 1391.88,-239.5 1179.38,-239.5 1179.38,-239.5 1173.38,-239.5 1167.38,-233.5 1167.38,-227.5 1167.38,-227.5 1167.38,-150.5 1167.38,-150.5 1167.38,-144.5 1173.38,-138.5 1179.38,-138.5"/>
<text xml:space="preserve" text-anchor="middle" x="1285.62" y="-222.2" font-family="Times,serif" font-size="14.00">type = 3 (ID)</text>
<polyline fill="none" stroke="black" points="1167.38,-214.25 1403.88,-214.25"/>
<text xml:space="preserve" text-anchor="middle" x="1285.62" y="-196.95" font-family="Times,serif" font-size="14.00">name = &#39;&#39; numb &#39;&#39;</text>
<polyline fill="none" stroke="black" points="1167.38,-189 1403.88,-189"/>
<text xml:space="preserve" text-anchor="middle" x="1285.62" y="-171.7" font-family="Times,serif" font-size="14.00">number in name table = &#39;&#39; 22 &#39;&#39;</text>
<polyline fill="none" stroke="black" points="1167.38,-163.75 1403.88,-163.75"/>
<text xml:space="preserve" text-anchor="middle" x="1285.62" y="-146.45" font-family="Times,serif" font-size="14.00">id_type = LOCL</text>
</g>
<!-- node0x7bfdfe5e04f0&#45;&gt;node0x7bfdfe5e04c0 -->
<g id="edge33" class="edge">
<title>node0x7bfdfe5e04f0&#45;&gt;node0x7bfdfe5e04c0</title>
<path fill="none" stroke="black" d="M1285.62,-301.37C1285.62,-287.31 1285.62,-268.99 1285.62,-251.29"/>
<polygon fill="black" stroke="black" points="1289.13,-251.31 1285.63,-241.31 1282.13,-251.31 1289.13,-251.31"/>
</g>
<!-- node0x7bfdfe5e0580 -->
<g id="node36" class="node">
<title>node0x7bfdfe5e0580</title>
<path fill="#ff5050" stroke="black" d="M1434.38,-138.5C1434.38,-138.5 1646.88,-138.5 1646.88,-138.5 1652.88,-138.5 1658.88,-144.5 1658.88,-150.5 1658.88,-150.5 1658.88,-227.5 1658.88,-227.5 1658.88,-233.5 1652.88,-239.5 1646.88,-239.5 1646.88,-239.5 1434.38,-239.5 1434.38,-239.5 1428.38,-239.5 1422.38,-233.5 1422.38,-227.5 1422.38,-227.5 1422.38,-150.5 1422.38,-150.5 1422.38,-144.5 1428.38,-138.5 1434.38,-138.5"/>
<text xml:space="preserve" text-anchor="middle" x="1540.62" y="-222.2" font-family="Times,serif" font-size="14.00">type = 3 (ID)</text>
<polyline fill="none" stroke="black" points="1422.38,-214.25 1658.88,-214.25"/>
<text xml:space="preserve" text-anchor="middle" x="1540.62" y="-196.95" font-family="Times,serif" font-size="14.00">name = &#39;&#39; numb &#39;&#39;</text>
<polyline fill="none" stroke="black" points="1422.38,-189 1658.88,-189"/>
<text xml:space="preserve" text-anchor="middle" x="1540.62" y="-171.7" font-family="Times,serif" font-size="14.00">number in name table = &#39;&#39; 22 &#39;&#39;</text>
<polyline fill="none" stroke="black" points="1422.38,-163.75 1658.88,-163.75"/>
<text xml:space="preserve" text-anchor="middle" x="1540.62" y="-146.45" font-family="Times,serif" font-size="14.00">id_type = LOCL</text>
</g>
<!-- node0x7bfdfe5e0640&#45;&gt;node0x7bfdfe5e0580 -->
<g id="edge35" class="edge">
<title>node0x7bfdfe5e0640&#45;&gt;node0x7bfdfe5e0580</title>
<path fill="none" stroke="black" d="M1540.62,-301.37C1540.62,-287.31 1540.62,-268.99 1540.62,-251.29"/>
<polygon fill="black" stroke="black" points="1544.13,-251.31 1540.63,-241.31 1537.13,-251.31 1544.13,-251.31"/>
</g>
<!-- node0x7bfdfe5e0610 -->
<g id="node37" class="node">
<title>node0x7bfdfe5e0610</title>
<path fill="#00ffdd" stroke="black" d="M1689.38,-163.75C1689.38,-163.75 1829.88,-163.75 1829.88,-163.75 1835.88,-163.75 1841.88,-169.75 1841.88,-175.75 1841.88,-175.75 1841.88,-202.25 1841.88,-202.25 1841.88,-208.25 1835.88,-214.25 1829.88,-214.25 1829.88,-214.25 1689.38,-214.25 1689.38,-214.25 1683.38,-214.25 1677.38,-208.25 1677.38,-202.25 1677.38,-202.25 1677.38,-175.75 1677.38,-175.75 1677.38,-169.75 1683.38,-163.75 1689.38,-163.75"/>
<text xml:space="preserve" text-anchor="middle" x="1759.62" y="-196.95" font-family="Times,serif" font-size="14.00">type = 2 (OP)</text>
<polyline fill="none" stroke="black" points="1677.38,-189 1841.88,-189"/>
<text xml:space="preserve" text-anchor="middle" x="1759.62" y="-171.7" font-family="Times,serif" font-size="14.00">value = &#39;&#39; SUB &#39;&#39; (45)</text>
</g>
<!-- node0x7bfdfe5e0640&#45;&gt;node0x7bfdfe5e0610 -->
<g id="edge36" class="edge">
<title>node0x7bfdfe5e0640&#45;&gt;node0x7bfdfe5e0610</title>
<path fill="none" stroke="black" d="M1580.28,-301.37C1616.76,-278.72 1670.98,-245.05 1710.25,-220.66"/>
<polygon fill="black" stroke="black" points="1711.96,-223.72 1718.61,-215.47 1708.26,-217.78 1711.96,-223.72"/>
</g>
<!-- node0x7bfdfe5e05b0 -->
<g id="node38" class="node">
<title>node0x7bfdfe5e05b0</title>
<path fill="#ff5050" stroke="black" d="M1552.38,-0.5C1552.38,-0.5 1764.88,-0.5 1764.88,-0.5 1770.88,-0.5 1776.88,-6.5 1776.88,-12.5 1776.88,-12.5 1776.88,-89.5 1776.88,-89.5 1776.88,-95.5 1770.88,-101.5 1764.88,-101.5 1764.88,-101.5 1552.38,-101.5 1552.38,-101.5 1546.38,-101.5 1540.38,-95.5 1540.38,-89.5 1540.38,-89.5 1540.38,-12.5 1540.38,-12.5 1540.38,-6.5 1546.38,-0.5 1552.38,-0.5"/>
<text xml:space="preserve" text-anchor="middle" x="1658.62" y="-84.2" font-family="Times,serif" font-size="14.00">type = 3 (ID)</text>
<polyline fill="none" stroke="black" points="1540.38,-76.25 1776.88,-76.25"/>
<text xml:space="preserve" text-anchor="middle" x="1658.62" y="-58.95" font-family="Times,serif" font-size="14.00">name = &#39;&#39; numb &#39;&#39;</text>
<polyline fill="none" stroke="black" points="1540.38,-51 1776.88,-51"/>
<text xml:space="preserve" text-anchor="middle" x="1658.62" y="-33.7" font-family="Times,serif" font-size="14.00">number in name table = &#39;&#39; 22 &#39;&#39;</text>
<polyline fill="none" stroke="black" points="1540.38,-25.75 1776.88,-25.75"/>
<text xml:space="preserve" text-anchor="middle" x="1658.62" y="-8.45" font-family="Times,serif" font-size="14.00">id_type = LOCL</text>
</g>
<!-- node0x7bfdfe5e0610&#45;&gt;node0x7bfdfe5e05b0 -->
<g id="edge37" class="edge">
<title>node0x7bfdfe5e0610&#45;&gt;node0x7bfdfe5e05b0</title>
<path fill="none" stroke="black" d="M1741.33,-163.37C1730.44,-148.7 1716.12,-129.41 1702.45,-111.02"/>
<polygon fill="black" stroke="black" points="1705.28,-108.95 1696.51,-103.01 1699.66,-113.13 1705.28,-108.95"/>
</g>
<!-- node0x7bfdfe5e05e0 -->
<g id="node39" class="node">
<title>node0x7bfdfe5e05e0</title>
<path fill="#ffd700" stroke="black" d="M1807.25,-25.75C1807.25,-25.75 1914,-25.75 1914,-25.75 1920,-25.75 1926,-31.75 1926,-37.75 1926,-37.75 1926,-64.25 1926,-64.25 1926,-70.25 1920,-76.25 1914,-76.25 1914,-76.25 1807.25,-76.25 1807.25,-76.25 1801.25,-76.25 1795.25,-70.25 1795.25,-64.25 1795.25,-64.25 1795.25,-37.75 1795.25,-37.75 1795.25,-31.75 1801.25,-25.75 1807.25,-25.75"/>
<text xml:space="preserve" text-anchor="middle" x="1860.62" y="-58.95" font-family="Times,serif" font-size="14.00">type = 1 (NUM)</text>
<polyline fill="none" stroke="black" points="1795.25,-51 1926,-51"/>
<text xml:space="preserve" text-anchor="middle" x="1860.62" y="-33.7" font-family="Times,serif" font-size="14.00">value = &#39;&#39; 1 &#39;&#39;</text>
</g>
<!-- node0x7bfdfe5e0610&#45;&gt;node0x7bfdfe5e05e0 -->
<g id="edge38" class="edge">
<title>node0x7bfdfe5e0610&#45;&gt;node0x7bfdfe5e05e0</title>
<path fill="none" stroke="black" d="M1777.92,-163.37C1794.07,-141.61 1817.79,-109.68 1835.68,-85.59"/>
<polygon fill="black" stroke="black" points="1838.42,-87.78 1841.57,-77.66 1832.8,-83.6 1838.42,-87.78"/>
</g>
<!-- node0x7bfdfe5e0700 -->
<g id="node42" class="node">
<title>node0x7bfdfe5e0700</title>
<path fill="#ff5050" stroke="black" d="M1650.38,-414.5C1650.38,-414.5 1862.88,-414.5 1862.88,-414.5 1868.88,-414.5 1874.88,-420.5 1874.88,-426.5 1874.88,-426.5 1874.88,-503.5 1874.88,-503.5 1874.88,-509.5 1868.88,-515.5 1862.88,-515.5 1862.88,-515.5 1650.38,-515.5 1650.38,-515.5 1644.38,-515.5 1638.38,-509.5 1638.38,-503.5 1638.38,-503.5 1638.38,-426.5 1638.38,-426.5 1638.38,-420.5 1644.38,-414.5 1650.38,-414.5"/>
<text xml:space="preserve" text-anchor="middle" x="1756.62" y="-498.2" font-family="Times,serif" font-size="14.00">type = 3 (ID)</text>
<polyline fill="none" stroke="black" points="1638.38,-490.25 1874.88,-490.25"/>
<text xml:space="preserve" text-anchor="middle" x="1756.62" y="-472.95" font-family="Times,serif" font-size="14.00">name = &#39;&#39; result &#39;&#39;</text>
<polyline fill="none" stroke="black" points="1638.38,-465 1874.88,-465"/>
<text xml:space="preserve" text-anchor="middle" x="1756.62" y="-447.7" font-family="Times,serif" font-size="14.00">number in name table = &#39;&#39; 23 &#39;&#39;</text>
<polyline fill="none" stroke="black" points="1638.38,-439.75 1874.88,-439.75"/>
<text xml:space="preserve" text-anchor="middle" x="1756.62" y="-422.45" font-family="Times,serif" font-size="14.00">id_type = LOCL</text>
</g>
<!-- node0x7bfdfe5e07c0&#45;&gt;node0x7bfdfe5e0700 -->
<g id="edge41" class="edge">
<title>node0x7bfdfe5e07c0&#45;&gt;node0x7bfdfe5e0700</title>
<path fill="none" stroke="black" d="M1845.89,-577.37C1834.08,-562.64 1818.53,-543.24 1803.72,-524.77"/>
<polygon fill="black" stroke="black" points="1806.47,-522.59 1797.48,-516.98 1801.01,-526.97 1806.47,-522.59"/>
</g>
<!-- node0x7bfdfe5e0790 -->
<g id="node43" class="node">
<title>node0x7bfdfe5e0790</title>
<path fill="#00ffdd" stroke="black" d="M1904.88,-439.75C1904.88,-439.75 2048.38,-439.75 2048.38,-439.75 2054.38,-439.75 2060.38,-445.75 2060.38,-451.75 2060.38,-451.75 2060.38,-478.25 2060.38,-478.25 2060.38,-484.25 2054.38,-490.25 2048.38,-490.25 2048.38,-490.25 1904.88,-490.25 1904.88,-490.25 1898.88,-490.25 1892.88,-484.25 1892.88,-478.25 1892.88,-478.25 1892.88,-451.75 1892.88,-451.75 1892.88,-445.75 1898.88,-439.75 1904.88,-439.75"/>
<text xml:space="preserve" text-anchor="middle" x="1976.62" y="-472.95" font-family="Times,serif" font-size="14.00">type = 2 (OP)</text>
<polyline fill="none" stroke="black" points="1892.88,-465 2060.38,-465"/>
<text xml:space="preserve" text-anchor="middle" x="1976.62" y="-447.7" font-family="Times,serif" font-size="14.00">value = &#39;&#39; MUL &#39;&#39; (42)</text>
</g>
<!-- node0x7bfdfe5e07c0&#45;&gt;node0x7bfdfe5e0790 -->
<g id="edge42" class="edge">
<title>node0x7bfdfe5e07c0&#45;&gt;node0x7bfdfe5e0790</title>
<path fill="none" stroke="black" d="M1885.73,-577.37C1903.56,-555.52 1929.78,-523.4 1949.47,-499.27"/>
<polygon fill="black" stroke="black" points="1952.1,-501.58 1955.72,-491.62 1946.68,-497.15 1952.1,-501.58"/>
</g>
<!-- node0x7bfdfe5e08b0 -->
<g id="node46" class="node">
<title>node0x7bfdfe5e08b0</title>
<path fill="#f069f5" stroke="black" d="M2090.38,-439.75C2090.38,-439.75 2236.88,-439.75 2236.88,-439.75 2242.88,-439.75 2248.88,-445.75 2248.88,-451.75 2248.88,-451.75 2248.88,-478.25 2248.88,-478.25 2248.88,-484.25 2242.88,-490.25 2236.88,-490.25 2236.88,-490.25 2090.38,-490.25 2090.38,-490.25 2084.38,-490.25 2078.38,-484.25 2078.38,-478.25 2078.38,-478.25 2078.38,-451.75 2078.38,-451.75 2078.38,-445.75 2084.38,-439.75 2090.38,-439.75"/>
<text xml:space="preserve" text-anchor="middle" x="2163.62" y="-472.95" font-family="Times,serif" font-size="14.00">type = 4 (FUNC)</text>
<polyline fill="none" stroke="black" points="2078.38,-465 2248.88,-465"/>
<text xml:space="preserve" text-anchor="middle" x="2163.62" y="-447.7" font-family="Times,serif" font-size="14.00">value = &#39;&#39; CALL &#39;&#39; (67)</text>
</g>
<!-- node0x7bfdfe5e08e0&#45;&gt;node0x7bfdfe5e08b0 -->
<g id="edge45" class="edge">
<title>node0x7bfdfe5e08e0&#45;&gt;node0x7bfdfe5e08b0</title>
<path fill="none" stroke="black" d="M2119.4,-577.37C2127.89,-556 2140.27,-524.81 2149.78,-500.87"/>
<polygon fill="black" stroke="black" points="2152.92,-502.44 2153.36,-491.85 2146.42,-499.85 2152.92,-502.44"/>
</g>
<!-- node0x7bfdfe5e0730 -->
<g id="node44" class="node">
<title>node0x7bfdfe5e0730</title>
<path fill="#ff5050" stroke="black" d="M1673.38,-276.5C1673.38,-276.5 1885.88,-276.5 1885.88,-276.5 1891.88,-276.5 1897.88,-282.5 1897.88,-288.5 1897.88,-288.5 1897.88,-365.5 1897.88,-365.5 1897.88,-371.5 1891.88,-377.5 1885.88,-377.5 1885.88,-377.5 1673.38,-377.5 1673.38,-377.5 1667.38,-377.5 1661.38,-371.5 1661.38,-365.5 1661.38,-365.5 1661.38,-288.5 1661.38,-288.5 1661.38,-282.5 1667.38,-276.5 1673.38,-276.5"/>
<text xml:space="preserve" text-anchor="middle" x="1779.62" y="-360.2" font-family="Times,serif" font-size="14.00">type = 3 (ID)</text>
<polyline fill="none" stroke="black" points="1661.38,-352.25 1897.88,-352.25"/>
<text xml:space="preserve" text-anchor="middle" x="1779.62" y="-334.95" font-family="Times,serif" font-size="14.00">name = &#39;&#39; result &#39;&#39;</text>
<polyline fill="none" stroke="black" points="1661.38,-327 1897.88,-327"/>
<text xml:space="preserve" text-anchor="middle" x="1779.62" y="-309.7" font-family="Times,serif" font-size="14.00">number in name table = &#39;&#39; 23 &#39;&#39;</text>
<polyline fill="none" stroke="black" points="1661.38,-301.75 1897.88,-301.75"/>
<text xml:space="preserve" text-anchor="middle" x="1779.62" y="-284.45" font-family="Times,serif" font-size="14.00">id_type = LOCL</text>
</g>
<!-- node0x7bfdfe5e0790&#45;&gt;node0x7bfdfe5e0730 -->
<g id="edge43" class="edge">
<title>node0x7bfdfe5e0790&#45;&gt;node0x7bfdfe5e0730</title>
<path fill="none" stroke="black" d="M1940.95,-439.37C1918.64,-423.97 1888.94,-403.46 1861.11,-384.25"/>
<polygon fill="black" stroke="black" points="1863.22,-381.46 1853,-378.66 1859.24,-387.22 1863.22,-381.46"/>
</g>
<!-- node0x7bfdfe5e0760 -->
<g id="node45" class="node">
<title>node0x7bfdfe5e0760</title>
<path fill="#ffd700" stroke="black" d="M1928.25,-301.75C1928.25,-301.75 2035,-301.75 2035,-301.75 2041,-301.75 2047,-307.75 2047,-313.75 2047,-313.75 2047,-340.25 2047,-340.25 2047,-346.25 2041,-352.25 2035,-352.25 2035,-352.25 1928.25,-352.25 1928.25,-352.25 1922.25,-352.25 1916.25,-346.25 1916.25,-340.25 1916.25,-340.25 1916.25,-313.75 1916.25,-313.75 1916.25,-307.75 1922.25,-301.75 1928.25,-301.75"/>
<text xml:space="preserve" text-anchor="middle" x="1981.62" y="-334.95" font-family="Times,serif" font-size="14.00">type = 1 (NUM)</text>
<polyline fill="none" stroke="black" points="1916.25,-327 2047,-327"/>
<text xml:space="preserve" text-anchor="middle" x="1981.62" y="-309.7" font-family="Times,serif" font-size="14.00">value = &#39;&#39; 1 &#39;&#39;</text>
</g>
<!-- node0x7bfdfe5e0790&#45;&gt;node0x7bfdfe5e0760 -->
<g id="edge44" class="edge">
<title>node0x7bfdfe5e0790&#45;&gt;node0x7bfdfe5e0760</title>
<path fill="none" stroke="black" d="M1977.53,-439.37C1978.31,-418.29 1979.43,-387.65 1980.31,-363.85"/>
<polygon fill="black" stroke="black" points="1983.8,-364.08 1980.67,-353.96 1976.81,-363.82 1983.8,-364.08"/>
</g>
<!-- node0x7bfdfe5e0820 -->
<g id="node47" class="node">
<title>node0x7bfdfe5e0820</title>
<path fill="#2ee31e" stroke="black" d="M2085.25,-301.75C2085.25,-301.75 2234,-301.75 2234,-301.75 2240,-301.75 2246,-307.75 2246,-313.75 2246,-313.75 2246,-340.25 2246,-340.25 2246,-346.25 2240,-352.25 2234,-352.25 2234,-352.25 2085.25,-352.25 2085.25,-352.25 2079.25,-352.25 2073.25,-346.25 2073.25,-340.25 2073.25,-340.25 2073.25,-313.75 2073.25,-313.75 2073.25,-307.75 2079.25,-301.75 2085.25,-301.75"/>
<text xml:space="preserve" text-anchor="middle" x="2159.62" y="-334.95" font-family="Times,serif" font-size="14.00">type = 4 (FUNC)</text>
<polyline fill="none" stroke="black" points="2073.25,-327 2246,-327"/>
<text xml:space="preserve" text-anchor="middle" x="2159.62" y="-309.7" font-family="Times,serif" font-size="14.00">value = &#39;&#39; printf &#39;&#39; (26)</text>
</g>
<!-- node0x7bfdfe5e08b0&#45;&gt;node0x7bfdfe5e0820 -->
<g id="edge46" class="edge">
<title>node0x7bfdfe5e08b0&#45;&gt;node0x7bfdfe5e0820</title>
<path fill="none" stroke="black" d="M2162.9,-439.37C2162.28,-418.29 2161.38,-387.65 2160.68,-363.85"/>
<polygon fill="black" stroke="black" points="2164.18,-363.85 2160.39,-353.96 2157.18,-364.06 2164.18,-363.85"/>
</g>
<!-- node0x7bfdfe5e0880 -->
<g id="node48" class="node">
<title>node0x7bfdfe5e0880</title>
<path fill="#feaadf" stroke="black" d="M2276.25,-301.75C2276.25,-301.75 2389,-301.75 2389,-301.75 2395,-301.75 2401,-307.75 2401,-313.75 2401,-313.75 2401,-340.25 2401,-340.25 2401,-346.25 2395,-352.25 2389,-352.25 2389,-352.25 2276.25,-352.25 2276.25,-352.25 2270.25,-352.25 2264.25,-346.25 2264.25,-340.25 2264.25,-340.25 2264.25,-313.75 2264.25,-313.75 2264.25,-307.75 2270.25,-301.75 2276.25,-301.75"/>
<text xml:space="preserve" text-anchor="middle" x="2332.62" y="-334.95" font-family="Times,serif" font-size="14.00">type = 4 (FUNC)</text>
<polyline fill="none" stroke="black" points="2264.25,-327 2401,-327"/>
<text xml:space="preserve" text-anchor="middle" x="2332.62" y="-309.7" font-family="Times,serif" font-size="14.00">value = &#39;&#39; , &#39;&#39; (44)</text>
</g>
<!-- node0x7bfdfe5e08b0&#45;&gt;node0x7bfdfe5e0880 -->
<g id="edge47" class="edge">
<title>node0x7bfdfe5e08b0&#45;&gt;node0x7bfdfe5e0880</title>
<path fill="none" stroke="black" d="M2194.23,-439.37C2222.02,-417.01 2263.16,-383.9 2293.36,-359.6"/>
<polygon fill="black" stroke="black" points="2295.19,-362.62 2300.78,-353.62 2290.8,-357.17 2295.19,-362.62"/>
</g>
<!-- node0x7bfdfe5e0850 -->
<g id="node49" class="node">
<title>node0x7bfdfe5e0850</title>
<path fill="#ff5050" stroke="black" d="M2226.38,-138.5C2226.38,-138.5 2438.88,-138.5 2438.88,-138.5 2444.88,-138.5 2450.88,-144.5 2450.88,-150.5 2450.88,-150.5 2450.88,-227.5 2450.88,-227.5 2450.88,-233.5 2444.88,-239.5 2438.88,-239.5 2438.88,-239.5 2226.38,-239.5 2226.38,-239.5 2220.38,-239.5 2214.38,-233.5 2214.38,-227.5 2214.38,-227.5 2214.38,-150.5 2214.38,-150.5 2214.38,-144.5 2220.38,-138.5 2226.38,-138.5"/>
<text xml:space="preserve" text-anchor="middle" x="2332.62" y="-222.2" font-family="Times,serif" font-size="14.00">type = 3 (ID)</text>
<polyline fill="none" stroke="black" points="2214.38,-214.25 2450.88,-214.25"/>
<text xml:space="preserve" text-anchor="middle" x="2332.62" y="-196.95" font-family="Times,serif" font-size="14.00">name = &#39;&#39; result &#39;&#39;</text>
<polyline fill="none" stroke="black" points="2214.38,-189 2450.88,-189"/>
<text xml:space="preserve" text-anchor="middle" x="2332.62" y="-171.7" font-family="Times,serif" font-size="14.00">number in name table = &#39;&#39; 23 &#39;&#39;</text>
<polyline fill="none" stroke="black" points="2214.38,-163.75 2450.88,-163.75"/>
<text xml:space="preserve" text-anchor="middle" x="2332.62" y="-146.45" font-family="Times,serif" font-size="14.00">id_type = LOCL</text>
</g>
<!-- node0x7bfdfe5e0880&#45;&gt;node0x7bfdfe5e0850 -->
<g id="edge48" class="edge">
<title>node0x7bfdfe5e0880&#45;&gt;node0x7bfdfe5e0850</title>
<path fill="none" stroke="black" d="M2332.62,-301.37C2332.62,-287.31 2332.62,-268.99 2332.62,-251.29"/>
<polygon fill="black" stroke="black" points="2336.13,-251.31 2332.63,-241.31 2329.13,-251.31 2336.13,-251.31"/>
</g>
</g>
</svg>
