<?xml version="1.0" encoding="UTF-8" standalone="no"?>
<!DOCTYPE svg PUBLIC "-//W3C//DTD SVG 1.1//EN"
 "http://www.w3.org/Graphics/SVG/1.1/DTD/svg11.dtd">
<!-- Generated by graphviz version 2.43.0 (0)
 -->
<!-- Title: %3 Pages: 1 -->
<svg width="1740pt" height="1336pt"
 viewBox="0.00 0.00 1739.50 1336.00" xmlns="http://www.w3.org/2000/svg" xmlns:xlink="http://www.w3.org/1999/xlink">
<g id="graph0" class="graph" transform="scale(1 1) rotate(0) translate(4 1332)">
<title>%3</title>
<!-- node0x503000000700 -->
<g id="node1" class="node">
<title>node0x503000000700</title>
<path fill="#a0a0a0" stroke="black" d="M236,-1281.5C236,-1281.5 472,-1281.5 472,-1281.5 478,-1281.5 484,-1287.5 484,-1293.5 484,-1293.5 484,-1315.5 484,-1315.5 484,-1321.5 478,-1327.5 472,-1327.5 472,-1327.5 236,-1327.5 236,-1327.5 230,-1327.5 224,-1321.5 224,-1315.5 224,-1315.5 224,-1293.5 224,-1293.5 224,-1287.5 230,-1281.5 236,-1281.5"/>
<text text-anchor="middle" x="354" y="-1312.3" font-family="Times,serif" font-size="14.00">type = 4 (FUNC)</text>
<polyline fill="none" stroke="black" points="224,-1304.5 484,-1304.5 "/>
<text text-anchor="middle" x="354" y="-1289.3" font-family="Times,serif" font-size="14.00">value = &#39;&#39; NEXT FUNCTION &#39;&#39; (64)</text>
</g>
<!-- node0x5030000006d0 -->
<g id="node2" class="node">
<title>node0x5030000006d0</title>
<path fill="#755cf7" stroke="black" d="M254,-1198.5C254,-1198.5 454,-1198.5 454,-1198.5 460,-1198.5 466,-1204.5 466,-1210.5 466,-1210.5 466,-1232.5 466,-1232.5 466,-1238.5 460,-1244.5 454,-1244.5 454,-1244.5 254,-1244.5 254,-1244.5 248,-1244.5 242,-1238.5 242,-1232.5 242,-1232.5 242,-1210.5 242,-1210.5 242,-1204.5 248,-1198.5 254,-1198.5"/>
<text text-anchor="middle" x="354" y="-1229.3" font-family="Times,serif" font-size="14.00">type = 4 (FUNC)</text>
<polyline fill="none" stroke="black" points="242,-1221.5 466,-1221.5 "/>
<text text-anchor="middle" x="354" y="-1206.3" font-family="Times,serif" font-size="14.00">value = &#39;&#39; DEFINITION &#39;&#39; (68)</text>
</g>
<!-- node0x503000000700&#45;&gt;node0x5030000006d0 -->
<g id="edge1" class="edge">
<title>node0x503000000700&#45;&gt;node0x5030000006d0</title>
<path fill="none" stroke="black" d="M354,-1281.37C354,-1273.15 354,-1263.66 354,-1254.73"/>
<polygon fill="black" stroke="black" points="357.5,-1254.61 354,-1244.61 350.5,-1254.61 357.5,-1254.61"/>
</g>
<!-- node0x5030000000d0 -->
<g id="node3" class="node">
<title>node0x5030000000d0</title>
<path fill="#f069f5" stroke="black" d="M179.5,-1115.5C179.5,-1115.5 326.5,-1115.5 326.5,-1115.5 332.5,-1115.5 338.5,-1121.5 338.5,-1127.5 338.5,-1127.5 338.5,-1149.5 338.5,-1149.5 338.5,-1155.5 332.5,-1161.5 326.5,-1161.5 326.5,-1161.5 179.5,-1161.5 179.5,-1161.5 173.5,-1161.5 167.5,-1155.5 167.5,-1149.5 167.5,-1149.5 167.5,-1127.5 167.5,-1127.5 167.5,-1121.5 173.5,-1115.5 179.5,-1115.5"/>
<text text-anchor="middle" x="253" y="-1146.3" font-family="Times,serif" font-size="14.00">type = 4 (FUNC)</text>
<polyline fill="none" stroke="black" points="167.5,-1138.5 338.5,-1138.5 "/>
<text text-anchor="middle" x="253" y="-1123.3" font-family="Times,serif" font-size="14.00">value = &#39;&#39; CALL &#39;&#39; (67)</text>
</g>
<!-- node0x5030000006d0&#45;&gt;node0x5030000000d0 -->
<g id="edge2" class="edge">
<title>node0x5030000006d0&#45;&gt;node0x5030000000d0</title>
<path fill="none" stroke="black" d="M326.4,-1198.37C314.71,-1188.99 300.94,-1177.95 288.51,-1167.98"/>
<polygon fill="black" stroke="black" points="290.56,-1165.13 280.57,-1161.61 286.18,-1170.59 290.56,-1165.13"/>
</g>
<!-- node0x503000000190 -->
<g id="node4" class="node">
<title>node0x503000000190</title>
<path fill="#e0e0e0" stroke="black" d="M394.5,-1115.5C394.5,-1115.5 567.5,-1115.5 567.5,-1115.5 573.5,-1115.5 579.5,-1121.5 579.5,-1127.5 579.5,-1127.5 579.5,-1149.5 579.5,-1149.5 579.5,-1155.5 573.5,-1161.5 567.5,-1161.5 567.5,-1161.5 394.5,-1161.5 394.5,-1161.5 388.5,-1161.5 382.5,-1155.5 382.5,-1149.5 382.5,-1149.5 382.5,-1127.5 382.5,-1127.5 382.5,-1121.5 388.5,-1115.5 394.5,-1115.5"/>
<text text-anchor="middle" x="481" y="-1146.3" font-family="Times,serif" font-size="14.00">type = 2 (OP)</text>
<polyline fill="none" stroke="black" points="382.5,-1138.5 579.5,-1138.5 "/>
<text text-anchor="middle" x="481" y="-1123.3" font-family="Times,serif" font-size="14.00">value = &#39;&#39; SHUTUP &#39;&#39; (59)</text>
</g>
<!-- node0x5030000006d0&#45;&gt;node0x503000000190 -->
<g id="edge3" class="edge">
<title>node0x5030000006d0&#45;&gt;node0x503000000190</title>
<path fill="none" stroke="black" d="M388.7,-1198.37C403.82,-1188.72 421.71,-1177.32 437.69,-1167.13"/>
<polygon fill="black" stroke="black" points="439.79,-1169.94 446.34,-1161.61 436.03,-1164.03 439.79,-1169.94"/>
</g>
<!-- node0x503000000040 -->
<g id="node5" class="node">
<title>node0x503000000040</title>
<path fill="#2ee31e" stroke="black" d="M12,-1032.5C12,-1032.5 154,-1032.5 154,-1032.5 160,-1032.5 166,-1038.5 166,-1044.5 166,-1044.5 166,-1066.5 166,-1066.5 166,-1072.5 160,-1078.5 154,-1078.5 154,-1078.5 12,-1078.5 12,-1078.5 6,-1078.5 0,-1072.5 0,-1066.5 0,-1066.5 0,-1044.5 0,-1044.5 0,-1038.5 6,-1032.5 12,-1032.5"/>
<text text-anchor="middle" x="83" y="-1063.3" font-family="Times,serif" font-size="14.00">type = 4 (FUNC)</text>
<polyline fill="none" stroke="black" points="0,-1055.5 166,-1055.5 "/>
<text text-anchor="middle" x="83" y="-1040.3" font-family="Times,serif" font-size="14.00">value = &#39;&#39; carti &#39;&#39; (20)</text>
</g>
<!-- node0x5030000000d0&#45;&gt;node0x503000000040 -->
<g id="edge4" class="edge">
<title>node0x5030000000d0&#45;&gt;node0x503000000040</title>
<path fill="none" stroke="black" d="M206.55,-1115.37C185.56,-1105.37 160.59,-1093.47 138.61,-1083"/>
<polygon fill="black" stroke="black" points="139.93,-1079.75 129.4,-1078.61 136.92,-1086.07 139.93,-1079.75"/>
</g>
<!-- node0x5030000000a0 -->
<g id="node6" class="node">
<title>node0x5030000000a0</title>
<path fill="#feaadf" stroke="black" d="M196.5,-1032.5C196.5,-1032.5 309.5,-1032.5 309.5,-1032.5 315.5,-1032.5 321.5,-1038.5 321.5,-1044.5 321.5,-1044.5 321.5,-1066.5 321.5,-1066.5 321.5,-1072.5 315.5,-1078.5 309.5,-1078.5 309.5,-1078.5 196.5,-1078.5 196.5,-1078.5 190.5,-1078.5 184.5,-1072.5 184.5,-1066.5 184.5,-1066.5 184.5,-1044.5 184.5,-1044.5 184.5,-1038.5 190.5,-1032.5 196.5,-1032.5"/>
<text text-anchor="middle" x="253" y="-1063.3" font-family="Times,serif" font-size="14.00">type = 4 (FUNC)</text>
<polyline fill="none" stroke="black" points="184.5,-1055.5 321.5,-1055.5 "/>
<text text-anchor="middle" x="253" y="-1040.3" font-family="Times,serif" font-size="14.00">value = &#39;&#39; , &#39;&#39; (44)</text>
</g>
<!-- node0x5030000000d0&#45;&gt;node0x5030000000a0 -->
<g id="edge5" class="edge">
<title>node0x5030000000d0&#45;&gt;node0x5030000000a0</title>
<path fill="none" stroke="black" d="M253,-1115.37C253,-1107.15 253,-1097.66 253,-1088.73"/>
<polygon fill="black" stroke="black" points="256.5,-1088.61 253,-1078.61 249.5,-1088.61 256.5,-1088.61"/>
</g>
<!-- node0x503000000160 -->
<g id="node8" class="node">
<title>node0x503000000160</title>
<path fill="#00ffdd" stroke="black" d="M420.5,-1032.5C420.5,-1032.5 541.5,-1032.5 541.5,-1032.5 547.5,-1032.5 553.5,-1038.5 553.5,-1044.5 553.5,-1044.5 553.5,-1066.5 553.5,-1066.5 553.5,-1072.5 547.5,-1078.5 541.5,-1078.5 541.5,-1078.5 420.5,-1078.5 420.5,-1078.5 414.5,-1078.5 408.5,-1072.5 408.5,-1066.5 408.5,-1066.5 408.5,-1044.5 408.5,-1044.5 408.5,-1038.5 414.5,-1032.5 420.5,-1032.5"/>
<text text-anchor="middle" x="481" y="-1063.3" font-family="Times,serif" font-size="14.00">type = 2 (OP)</text>
<polyline fill="none" stroke="black" points="408.5,-1055.5 553.5,-1055.5 "/>
<text text-anchor="middle" x="481" y="-1040.3" font-family="Times,serif" font-size="14.00">value = &#39;&#39; = &#39;&#39; (61)</text>
</g>
<!-- node0x503000000190&#45;&gt;node0x503000000160 -->
<g id="edge7" class="edge">
<title>node0x503000000190&#45;&gt;node0x503000000160</title>
<path fill="none" stroke="black" d="M481,-1115.37C481,-1107.15 481,-1097.66 481,-1088.73"/>
<polygon fill="black" stroke="black" points="484.5,-1088.61 481,-1078.61 477.5,-1088.61 484.5,-1088.61"/>
</g>
<!-- node0x503000000250 -->
<g id="node9" class="node">
<title>node0x503000000250</title>
<path fill="#e0e0e0" stroke="black" d="M668.5,-1032.5C668.5,-1032.5 841.5,-1032.5 841.5,-1032.5 847.5,-1032.5 853.5,-1038.5 853.5,-1044.5 853.5,-1044.5 853.5,-1066.5 853.5,-1066.5 853.5,-1072.5 847.5,-1078.5 841.5,-1078.5 841.5,-1078.5 668.5,-1078.5 668.5,-1078.5 662.5,-1078.5 656.5,-1072.5 656.5,-1066.5 656.5,-1066.5 656.5,-1044.5 656.5,-1044.5 656.5,-1038.5 662.5,-1032.5 668.5,-1032.5"/>
<text text-anchor="middle" x="755" y="-1063.3" font-family="Times,serif" font-size="14.00">type = 2 (OP)</text>
<polyline fill="none" stroke="black" points="656.5,-1055.5 853.5,-1055.5 "/>
<text text-anchor="middle" x="755" y="-1040.3" font-family="Times,serif" font-size="14.00">value = &#39;&#39; SHUTUP &#39;&#39; (59)</text>
</g>
<!-- node0x503000000190&#45;&gt;node0x503000000250 -->
<g id="edge8" class="edge">
<title>node0x503000000190&#45;&gt;node0x503000000250</title>
<path fill="none" stroke="black" d="M555.51,-1115.47C591.15,-1104.94 633.97,-1092.28 670.79,-1081.39"/>
<polygon fill="black" stroke="black" points="671.91,-1084.71 680.51,-1078.52 669.92,-1078 671.91,-1084.71"/>
</g>
<!-- node0x503000000070 -->
<g id="node7" class="node">
<title>node0x503000000070</title>
<path fill="#ff5050" stroke="black" d="M35.5,-903.5C35.5,-903.5 248.5,-903.5 248.5,-903.5 254.5,-903.5 260.5,-909.5 260.5,-915.5 260.5,-915.5 260.5,-983.5 260.5,-983.5 260.5,-989.5 254.5,-995.5 248.5,-995.5 248.5,-995.5 35.5,-995.5 35.5,-995.5 29.5,-995.5 23.5,-989.5 23.5,-983.5 23.5,-983.5 23.5,-915.5 23.5,-915.5 23.5,-909.5 29.5,-903.5 35.5,-903.5"/>
<text text-anchor="middle" x="142" y="-980.3" font-family="Times,serif" font-size="14.00">type = 3 (ID)</text>
<polyline fill="none" stroke="black" points="23.5,-972.5 260.5,-972.5 "/>
<text text-anchor="middle" x="142" y="-957.3" font-family="Times,serif" font-size="14.00">name = &#39;&#39; argc &#39;&#39;</text>
<polyline fill="none" stroke="black" points="23.5,-949.5 260.5,-949.5 "/>
<text text-anchor="middle" x="142" y="-934.3" font-family="Times,serif" font-size="14.00">number in name table = &#39;&#39; 21 &#39;&#39;</text>
<polyline fill="none" stroke="black" points="23.5,-926.5 260.5,-926.5 "/>
<text text-anchor="middle" x="142" y="-911.3" font-family="Times,serif" font-size="14.00">id_type = PARM</text>
</g>
<!-- node0x5030000000a0&#45;&gt;node0x503000000070 -->
<g id="edge6" class="edge">
<title>node0x5030000000a0&#45;&gt;node0x503000000070</title>
<path fill="none" stroke="black" d="M229.46,-1032.44C220.06,-1023.64 208.81,-1013.1 197.56,-1002.55"/>
<polygon fill="black" stroke="black" points="199.87,-999.93 190.18,-995.64 195.09,-1005.03 199.87,-999.93"/>
</g>
<!-- node0x503000000100 -->
<g id="node10" class="node">
<title>node0x503000000100</title>
<path fill="#ff5050" stroke="black" d="M290.5,-903.5C290.5,-903.5 503.5,-903.5 503.5,-903.5 509.5,-903.5 515.5,-909.5 515.5,-915.5 515.5,-915.5 515.5,-983.5 515.5,-983.5 515.5,-989.5 509.5,-995.5 503.5,-995.5 503.5,-995.5 290.5,-995.5 290.5,-995.5 284.5,-995.5 278.5,-989.5 278.5,-983.5 278.5,-983.5 278.5,-915.5 278.5,-915.5 278.5,-909.5 284.5,-903.5 290.5,-903.5"/>
<text text-anchor="middle" x="397" y="-980.3" font-family="Times,serif" font-size="14.00">type = 3 (ID)</text>
<polyline fill="none" stroke="black" points="278.5,-972.5 515.5,-972.5 "/>
<text text-anchor="middle" x="397" y="-957.3" font-family="Times,serif" font-size="14.00">name = &#39;&#39; numb &#39;&#39;</text>
<polyline fill="none" stroke="black" points="278.5,-949.5 515.5,-949.5 "/>
<text text-anchor="middle" x="397" y="-934.3" font-family="Times,serif" font-size="14.00">number in name table = &#39;&#39; 22 &#39;&#39;</text>
<polyline fill="none" stroke="black" points="278.5,-926.5 515.5,-926.5 "/>
<text text-anchor="middle" x="397" y="-911.3" font-family="Times,serif" font-size="14.00">id_type = LOCL</text>
</g>
<!-- node0x503000000160&#45;&gt;node0x503000000100 -->
<g id="edge9" class="edge">
<title>node0x503000000160&#45;&gt;node0x503000000100</title>
<path fill="none" stroke="black" d="M463.19,-1032.44C456.28,-1023.89 448.05,-1013.7 439.77,-1003.46"/>
<polygon fill="black" stroke="black" points="442.47,-1001.22 433.46,-995.64 437.02,-1005.62 442.47,-1001.22"/>
</g>
<!-- node0x503000000130 -->
<g id="node11" class="node">
<title>node0x503000000130</title>
<path fill="#ffd700" stroke="black" d="M545.5,-926.5C545.5,-926.5 652.5,-926.5 652.5,-926.5 658.5,-926.5 664.5,-932.5 664.5,-938.5 664.5,-938.5 664.5,-960.5 664.5,-960.5 664.5,-966.5 658.5,-972.5 652.5,-972.5 652.5,-972.5 545.5,-972.5 545.5,-972.5 539.5,-972.5 533.5,-966.5 533.5,-960.5 533.5,-960.5 533.5,-938.5 533.5,-938.5 533.5,-932.5 539.5,-926.5 545.5,-926.5"/>
<text text-anchor="middle" x="599" y="-957.3" font-family="Times,serif" font-size="14.00">type = 1 (NUM)</text>
<polyline fill="none" stroke="black" points="533.5,-949.5 664.5,-949.5 "/>
<text text-anchor="middle" x="599" y="-934.3" font-family="Times,serif" font-size="14.00">value = &#39;&#39; 5 &#39;&#39;</text>
</g>
<!-- node0x503000000160&#45;&gt;node0x503000000130 -->
<g id="edge10" class="edge">
<title>node0x503000000160&#45;&gt;node0x503000000130</title>
<path fill="none" stroke="black" d="M506.02,-1032.44C523.62,-1016.93 547.34,-996.03 566.42,-979.22"/>
<polygon fill="black" stroke="black" points="568.82,-981.76 574.01,-972.52 564.19,-976.51 568.82,-981.76"/>
</g>
<!-- node0x503000000220 -->
<g id="node12" class="node">
<title>node0x503000000220</title>
<path fill="#00ffdd" stroke="black" d="M694.5,-926.5C694.5,-926.5 815.5,-926.5 815.5,-926.5 821.5,-926.5 827.5,-932.5 827.5,-938.5 827.5,-938.5 827.5,-960.5 827.5,-960.5 827.5,-966.5 821.5,-972.5 815.5,-972.5 815.5,-972.5 694.5,-972.5 694.5,-972.5 688.5,-972.5 682.5,-966.5 682.5,-960.5 682.5,-960.5 682.5,-938.5 682.5,-938.5 682.5,-932.5 688.5,-926.5 694.5,-926.5"/>
<text text-anchor="middle" x="755" y="-957.3" font-family="Times,serif" font-size="14.00">type = 2 (OP)</text>
<polyline fill="none" stroke="black" points="682.5,-949.5 827.5,-949.5 "/>
<text text-anchor="middle" x="755" y="-934.3" font-family="Times,serif" font-size="14.00">value = &#39;&#39; = &#39;&#39; (61)</text>
</g>
<!-- node0x503000000250&#45;&gt;node0x503000000220 -->
<g id="edge11" class="edge">
<title>node0x503000000250&#45;&gt;node0x503000000220</title>
<path fill="none" stroke="black" d="M755,-1032.44C755,-1017.97 755,-998.79 755,-982.63"/>
<polygon fill="black" stroke="black" points="758.5,-982.52 755,-972.52 751.5,-982.52 758.5,-982.52"/>
</g>
<!-- node0x503000000310 -->
<g id="node13" class="node">
<title>node0x503000000310</title>
<path fill="#e0e0e0" stroke="black" d="M857.5,-926.5C857.5,-926.5 1030.5,-926.5 1030.5,-926.5 1036.5,-926.5 1042.5,-932.5 1042.5,-938.5 1042.5,-938.5 1042.5,-960.5 1042.5,-960.5 1042.5,-966.5 1036.5,-972.5 1030.5,-972.5 1030.5,-972.5 857.5,-972.5 857.5,-972.5 851.5,-972.5 845.5,-966.5 845.5,-960.5 845.5,-960.5 845.5,-938.5 845.5,-938.5 845.5,-932.5 851.5,-926.5 857.5,-926.5"/>
<text text-anchor="middle" x="944" y="-957.3" font-family="Times,serif" font-size="14.00">type = 2 (OP)</text>
<polyline fill="none" stroke="black" points="845.5,-949.5 1042.5,-949.5 "/>
<text text-anchor="middle" x="944" y="-934.3" font-family="Times,serif" font-size="14.00">value = &#39;&#39; SHUTUP &#39;&#39; (59)</text>
</g>
<!-- node0x503000000250&#45;&gt;node0x503000000310 -->
<g id="edge12" class="edge">
<title>node0x503000000250&#45;&gt;node0x503000000310</title>
<path fill="none" stroke="black" d="M795.08,-1032.44C824.27,-1016.38 863.98,-994.53 895.05,-977.44"/>
<polygon fill="black" stroke="black" points="896.9,-980.41 903.98,-972.52 893.53,-974.28 896.9,-980.41"/>
</g>
<!-- node0x5030000001c0 -->
<g id="node14" class="node">
<title>node0x5030000001c0</title>
<path fill="#ff5050" stroke="black" d="M454.5,-774.5C454.5,-774.5 667.5,-774.5 667.5,-774.5 673.5,-774.5 679.5,-780.5 679.5,-786.5 679.5,-786.5 679.5,-854.5 679.5,-854.5 679.5,-860.5 673.5,-866.5 667.5,-866.5 667.5,-866.5 454.5,-866.5 454.5,-866.5 448.5,-866.5 442.5,-860.5 442.5,-854.5 442.5,-854.5 442.5,-786.5 442.5,-786.5 442.5,-780.5 448.5,-774.5 454.5,-774.5"/>
<text text-anchor="middle" x="561" y="-851.3" font-family="Times,serif" font-size="14.00">type = 3 (ID)</text>
<polyline fill="none" stroke="black" points="442.5,-843.5 679.5,-843.5 "/>
<text text-anchor="middle" x="561" y="-828.3" font-family="Times,serif" font-size="14.00">name = &#39;&#39; result &#39;&#39;</text>
<polyline fill="none" stroke="black" points="442.5,-820.5 679.5,-820.5 "/>
<text text-anchor="middle" x="561" y="-805.3" font-family="Times,serif" font-size="14.00">number in name table = &#39;&#39; 23 &#39;&#39;</text>
<polyline fill="none" stroke="black" points="442.5,-797.5 679.5,-797.5 "/>
<text text-anchor="middle" x="561" y="-782.3" font-family="Times,serif" font-size="14.00">id_type = LOCL</text>
</g>
<!-- node0x503000000220&#45;&gt;node0x5030000001c0 -->
<g id="edge13" class="edge">
<title>node0x503000000220&#45;&gt;node0x5030000001c0</title>
<path fill="none" stroke="black" d="M721.21,-926.38C698.38,-911.44 667.29,-891.08 638.57,-872.28"/>
<polygon fill="black" stroke="black" points="640.42,-869.31 630.14,-866.76 636.59,-875.17 640.42,-869.31"/>
</g>
<!-- node0x5030000001f0 -->
<g id="node15" class="node">
<title>node0x5030000001f0</title>
<path fill="#ffd700" stroke="black" d="M709.5,-797.5C709.5,-797.5 816.5,-797.5 816.5,-797.5 822.5,-797.5 828.5,-803.5 828.5,-809.5 828.5,-809.5 828.5,-831.5 828.5,-831.5 828.5,-837.5 822.5,-843.5 816.5,-843.5 816.5,-843.5 709.5,-843.5 709.5,-843.5 703.5,-843.5 697.5,-837.5 697.5,-831.5 697.5,-831.5 697.5,-809.5 697.5,-809.5 697.5,-803.5 703.5,-797.5 709.5,-797.5"/>
<text text-anchor="middle" x="763" y="-828.3" font-family="Times,serif" font-size="14.00">type = 1 (NUM)</text>
<polyline fill="none" stroke="black" points="697.5,-820.5 828.5,-820.5 "/>
<text text-anchor="middle" x="763" y="-805.3" font-family="Times,serif" font-size="14.00">value = &#39;&#39; 1 &#39;&#39;</text>
</g>
<!-- node0x503000000220&#45;&gt;node0x5030000001f0 -->
<g id="edge14" class="edge">
<title>node0x503000000220&#45;&gt;node0x5030000001f0</title>
<path fill="none" stroke="black" d="M756.39,-926.38C757.65,-906.38 759.52,-876.68 760.95,-853.98"/>
<polygon fill="black" stroke="black" points="764.46,-853.99 761.6,-843.79 757.47,-853.55 764.46,-853.99"/>
</g>
<!-- node0x5030000002e0 -->
<g id="node16" class="node">
<title>node0x5030000002e0</title>
<path fill="#00ffdd" stroke="black" d="M874.5,-797.5C874.5,-797.5 995.5,-797.5 995.5,-797.5 1001.5,-797.5 1007.5,-803.5 1007.5,-809.5 1007.5,-809.5 1007.5,-831.5 1007.5,-831.5 1007.5,-837.5 1001.5,-843.5 995.5,-843.5 995.5,-843.5 874.5,-843.5 874.5,-843.5 868.5,-843.5 862.5,-837.5 862.5,-831.5 862.5,-831.5 862.5,-809.5 862.5,-809.5 862.5,-803.5 868.5,-797.5 874.5,-797.5"/>
<text text-anchor="middle" x="935" y="-828.3" font-family="Times,serif" font-size="14.00">type = 2 (OP)</text>
<polyline fill="none" stroke="black" points="862.5,-820.5 1007.5,-820.5 "/>
<text text-anchor="middle" x="935" y="-805.3" font-family="Times,serif" font-size="14.00">value = &#39;&#39; = &#39;&#39; (61)</text>
</g>
<!-- node0x503000000310&#45;&gt;node0x5030000002e0 -->
<g id="edge15" class="edge">
<title>node0x503000000310&#45;&gt;node0x5030000002e0</title>
<path fill="none" stroke="black" d="M942.43,-926.38C941.01,-906.38 938.91,-876.68 937.3,-853.98"/>
<polygon fill="black" stroke="black" points="940.78,-853.52 936.58,-843.79 933.8,-854.02 940.78,-853.52"/>
</g>
<!-- node0x5030000005e0 -->
<g id="node17" class="node">
<title>node0x5030000005e0</title>
<path fill="#e0e0e0" stroke="black" d="M1037.5,-797.5C1037.5,-797.5 1210.5,-797.5 1210.5,-797.5 1216.5,-797.5 1222.5,-803.5 1222.5,-809.5 1222.5,-809.5 1222.5,-831.5 1222.5,-831.5 1222.5,-837.5 1216.5,-843.5 1210.5,-843.5 1210.5,-843.5 1037.5,-843.5 1037.5,-843.5 1031.5,-843.5 1025.5,-837.5 1025.5,-831.5 1025.5,-831.5 1025.5,-809.5 1025.5,-809.5 1025.5,-803.5 1031.5,-797.5 1037.5,-797.5"/>
<text text-anchor="middle" x="1124" y="-828.3" font-family="Times,serif" font-size="14.00">type = 2 (OP)</text>
<polyline fill="none" stroke="black" points="1025.5,-820.5 1222.5,-820.5 "/>
<text text-anchor="middle" x="1124" y="-805.3" font-family="Times,serif" font-size="14.00">value = &#39;&#39; SHUTUP &#39;&#39; (59)</text>
</g>
<!-- node0x503000000310&#45;&gt;node0x5030000005e0 -->
<g id="edge16" class="edge">
<title>node0x503000000310&#45;&gt;node0x5030000005e0</title>
<path fill="none" stroke="black" d="M975.35,-926.38C1005.59,-905.05 1051.46,-872.68 1084.25,-849.55"/>
<polygon fill="black" stroke="black" points="1086.55,-852.21 1092.7,-843.58 1082.52,-846.49 1086.55,-852.21"/>
</g>
<!-- node0x503000000280 -->
<g id="node18" class="node">
<title>node0x503000000280</title>
<path fill="#ff5050" stroke="black" d="M628.5,-645.5C628.5,-645.5 841.5,-645.5 841.5,-645.5 847.5,-645.5 853.5,-651.5 853.5,-657.5 853.5,-657.5 853.5,-725.5 853.5,-725.5 853.5,-731.5 847.5,-737.5 841.5,-737.5 841.5,-737.5 628.5,-737.5 628.5,-737.5 622.5,-737.5 616.5,-731.5 616.5,-725.5 616.5,-725.5 616.5,-657.5 616.5,-657.5 616.5,-651.5 622.5,-645.5 628.5,-645.5"/>
<text text-anchor="middle" x="735" y="-722.3" font-family="Times,serif" font-size="14.00">type = 3 (ID)</text>
<polyline fill="none" stroke="black" points="616.5,-714.5 853.5,-714.5 "/>
<text text-anchor="middle" x="735" y="-699.3" font-family="Times,serif" font-size="14.00">name = &#39;&#39; old &#39;&#39;</text>
<polyline fill="none" stroke="black" points="616.5,-691.5 853.5,-691.5 "/>
<text text-anchor="middle" x="735" y="-676.3" font-family="Times,serif" font-size="14.00">number in name table = &#39;&#39; 24 &#39;&#39;</text>
<polyline fill="none" stroke="black" points="616.5,-668.5 853.5,-668.5 "/>
<text text-anchor="middle" x="735" y="-653.3" font-family="Times,serif" font-size="14.00">id_type = LOCL</text>
</g>
<!-- node0x5030000002e0&#45;&gt;node0x503000000280 -->
<g id="edge17" class="edge">
<title>node0x5030000002e0&#45;&gt;node0x503000000280</title>
<path fill="none" stroke="black" d="M900.16,-797.38C876.63,-782.44 844.58,-762.08 814.97,-743.28"/>
<polygon fill="black" stroke="black" points="816.6,-740.17 806.28,-737.76 812.84,-746.08 816.6,-740.17"/>
</g>
<!-- node0x5030000002b0 -->
<g id="node19" class="node">
<title>node0x5030000002b0</title>
<path fill="#ffd700" stroke="black" d="M883.5,-668.5C883.5,-668.5 990.5,-668.5 990.5,-668.5 996.5,-668.5 1002.5,-674.5 1002.5,-680.5 1002.5,-680.5 1002.5,-702.5 1002.5,-702.5 1002.5,-708.5 996.5,-714.5 990.5,-714.5 990.5,-714.5 883.5,-714.5 883.5,-714.5 877.5,-714.5 871.5,-708.5 871.5,-702.5 871.5,-702.5 871.5,-680.5 871.5,-680.5 871.5,-674.5 877.5,-668.5 883.5,-668.5"/>
<text text-anchor="middle" x="937" y="-699.3" font-family="Times,serif" font-size="14.00">type = 1 (NUM)</text>
<polyline fill="none" stroke="black" points="871.5,-691.5 1002.5,-691.5 "/>
<text text-anchor="middle" x="937" y="-676.3" font-family="Times,serif" font-size="14.00">value = &#39;&#39; 1 &#39;&#39;</text>
</g>
<!-- node0x5030000002e0&#45;&gt;node0x5030000002b0 -->
<g id="edge18" class="edge">
<title>node0x5030000002e0&#45;&gt;node0x5030000002b0</title>
<path fill="none" stroke="black" d="M935.35,-797.38C935.66,-777.38 936.13,-747.68 936.49,-724.98"/>
<polygon fill="black" stroke="black" points="939.99,-724.85 936.65,-714.79 932.99,-724.74 939.99,-724.85"/>
</g>
<!-- node0x5030000005b0 -->
<g id="node20" class="node">
<title>node0x5030000005b0</title>
<path fill="#df73df" stroke="black" d="M1035.5,-668.5C1035.5,-668.5 1210.5,-668.5 1210.5,-668.5 1216.5,-668.5 1222.5,-674.5 1222.5,-680.5 1222.5,-680.5 1222.5,-702.5 1222.5,-702.5 1222.5,-708.5 1216.5,-714.5 1210.5,-714.5 1210.5,-714.5 1035.5,-714.5 1035.5,-714.5 1029.5,-714.5 1023.5,-708.5 1023.5,-702.5 1023.5,-702.5 1023.5,-680.5 1023.5,-680.5 1023.5,-674.5 1029.5,-668.5 1035.5,-668.5"/>
<text text-anchor="middle" x="1123" y="-699.3" font-family="Times,serif" font-size="14.00">type = 2 (OP)</text>
<polyline fill="none" stroke="black" points="1023.5,-691.5 1222.5,-691.5 "/>
<text text-anchor="middle" x="1123" y="-676.3" font-family="Times,serif" font-size="14.00">value = &#39;&#39; MONEY &#39;&#39; (119)</text>
</g>
<!-- node0x5030000005e0&#45;&gt;node0x5030000005b0 -->
<g id="edge19" class="edge">
<title>node0x5030000005e0&#45;&gt;node0x5030000005b0</title>
<path fill="none" stroke="black" d="M1123.83,-797.38C1123.67,-777.38 1123.43,-747.68 1123.26,-724.98"/>
<polygon fill="black" stroke="black" points="1126.75,-724.77 1123.18,-714.79 1119.75,-724.82 1126.75,-724.77"/>
</g>
<!-- node0x5030000006a0 -->
<g id="node21" class="node">
<title>node0x5030000006a0</title>
<path fill="#e0e0e0" stroke="black" d="M1261.5,-668.5C1261.5,-668.5 1434.5,-668.5 1434.5,-668.5 1440.5,-668.5 1446.5,-674.5 1446.5,-680.5 1446.5,-680.5 1446.5,-702.5 1446.5,-702.5 1446.5,-708.5 1440.5,-714.5 1434.5,-714.5 1434.5,-714.5 1261.5,-714.5 1261.5,-714.5 1255.5,-714.5 1249.5,-708.5 1249.5,-702.5 1249.5,-702.5 1249.5,-680.5 1249.5,-680.5 1249.5,-674.5 1255.5,-668.5 1261.5,-668.5"/>
<text text-anchor="middle" x="1348" y="-699.3" font-family="Times,serif" font-size="14.00">type = 2 (OP)</text>
<polyline fill="none" stroke="black" points="1249.5,-691.5 1446.5,-691.5 "/>
<text text-anchor="middle" x="1348" y="-676.3" font-family="Times,serif" font-size="14.00">value = &#39;&#39; SHUTUP &#39;&#39; (59)</text>
</g>
<!-- node0x5030000005e0&#45;&gt;node0x5030000006a0 -->
<g id="edge20" class="edge">
<title>node0x5030000005e0&#45;&gt;node0x5030000006a0</title>
<path fill="none" stroke="black" d="M1163.02,-797.38C1201.2,-775.73 1259.44,-742.71 1300.34,-719.52"/>
<polygon fill="black" stroke="black" points="1302.08,-722.56 1309.05,-714.58 1298.63,-716.47 1302.08,-722.56"/>
</g>
<!-- node0x503000000340 -->
<g id="node22" class="node">
<title>node0x503000000340</title>
<path fill="#ff5050" stroke="black" d="M781.5,-516.5C781.5,-516.5 994.5,-516.5 994.5,-516.5 1000.5,-516.5 1006.5,-522.5 1006.5,-528.5 1006.5,-528.5 1006.5,-596.5 1006.5,-596.5 1006.5,-602.5 1000.5,-608.5 994.5,-608.5 994.5,-608.5 781.5,-608.5 781.5,-608.5 775.5,-608.5 769.5,-602.5 769.5,-596.5 769.5,-596.5 769.5,-528.5 769.5,-528.5 769.5,-522.5 775.5,-516.5 781.5,-516.5"/>
<text text-anchor="middle" x="888" y="-593.3" font-family="Times,serif" font-size="14.00">type = 3 (ID)</text>
<polyline fill="none" stroke="black" points="769.5,-585.5 1006.5,-585.5 "/>
<text text-anchor="middle" x="888" y="-570.3" font-family="Times,serif" font-size="14.00">name = &#39;&#39; numb &#39;&#39;</text>
<polyline fill="none" stroke="black" points="769.5,-562.5 1006.5,-562.5 "/>
<text text-anchor="middle" x="888" y="-547.3" font-family="Times,serif" font-size="14.00">number in name table = &#39;&#39; 22 &#39;&#39;</text>
<polyline fill="none" stroke="black" points="769.5,-539.5 1006.5,-539.5 "/>
<text text-anchor="middle" x="888" y="-524.3" font-family="Times,serif" font-size="14.00">id_type = LOCL</text>
</g>
<!-- node0x5030000005b0&#45;&gt;node0x503000000340 -->
<g id="edge21" class="edge">
<title>node0x5030000005b0&#45;&gt;node0x503000000340</title>
<path fill="none" stroke="black" d="M1082.07,-668.38C1054.06,-653.24 1015.78,-632.56 980.62,-613.55"/>
<polygon fill="black" stroke="black" points="982.21,-610.44 971.75,-608.76 978.89,-616.6 982.21,-610.44"/>
</g>
<!-- node0x503000000460 -->
<g id="node23" class="node">
<title>node0x503000000460</title>
<path fill="#e0e0e0" stroke="black" d="M1036.5,-539.5C1036.5,-539.5 1209.5,-539.5 1209.5,-539.5 1215.5,-539.5 1221.5,-545.5 1221.5,-551.5 1221.5,-551.5 1221.5,-573.5 1221.5,-573.5 1221.5,-579.5 1215.5,-585.5 1209.5,-585.5 1209.5,-585.5 1036.5,-585.5 1036.5,-585.5 1030.5,-585.5 1024.5,-579.5 1024.5,-573.5 1024.5,-573.5 1024.5,-551.5 1024.5,-551.5 1024.5,-545.5 1030.5,-539.5 1036.5,-539.5"/>
<text text-anchor="middle" x="1123" y="-570.3" font-family="Times,serif" font-size="14.00">type = 2 (OP)</text>
<polyline fill="none" stroke="black" points="1024.5,-562.5 1221.5,-562.5 "/>
<text text-anchor="middle" x="1123" y="-547.3" font-family="Times,serif" font-size="14.00">value = &#39;&#39; SHUTUP &#39;&#39; (59)</text>
</g>
<!-- node0x5030000005b0&#45;&gt;node0x503000000460 -->
<g id="edge22" class="edge">
<title>node0x5030000005b0&#45;&gt;node0x503000000460</title>
<path fill="none" stroke="black" d="M1123,-668.38C1123,-648.38 1123,-618.68 1123,-595.98"/>
<polygon fill="black" stroke="black" points="1126.5,-595.79 1123,-585.79 1119.5,-595.79 1126.5,-595.79"/>
</g>
<!-- node0x503000000670 -->
<g id="node35" class="node">
<title>node0x503000000670</title>
<path fill="#00ffdd" stroke="black" d="M1297.5,-539.5C1297.5,-539.5 1418.5,-539.5 1418.5,-539.5 1424.5,-539.5 1430.5,-545.5 1430.5,-551.5 1430.5,-551.5 1430.5,-573.5 1430.5,-573.5 1430.5,-579.5 1424.5,-585.5 1418.5,-585.5 1418.5,-585.5 1297.5,-585.5 1297.5,-585.5 1291.5,-585.5 1285.5,-579.5 1285.5,-573.5 1285.5,-573.5 1285.5,-551.5 1285.5,-551.5 1285.5,-545.5 1291.5,-539.5 1297.5,-539.5"/>
<text text-anchor="middle" x="1358" y="-570.3" font-family="Times,serif" font-size="14.00">type = 2 (OP)</text>
<polyline fill="none" stroke="black" points="1285.5,-562.5 1430.5,-562.5 "/>
<text text-anchor="middle" x="1358" y="-547.3" font-family="Times,serif" font-size="14.00">value = &#39;&#39; = &#39;&#39; (61)</text>
</g>
<!-- node0x5030000006a0&#45;&gt;node0x503000000670 -->
<g id="edge34" class="edge">
<title>node0x5030000006a0&#45;&gt;node0x503000000670</title>
<path fill="none" stroke="black" d="M1349.74,-668.38C1351.32,-648.38 1353.66,-618.68 1355.44,-595.98"/>
<polygon fill="black" stroke="black" points="1358.95,-596.04 1356.24,-585.79 1351.97,-595.49 1358.95,-596.04"/>
</g>
<!-- node0x503000000430 -->
<g id="node24" class="node">
<title>node0x503000000430</title>
<path fill="#00ffdd" stroke="black" d="M840.5,-410.5C840.5,-410.5 961.5,-410.5 961.5,-410.5 967.5,-410.5 973.5,-416.5 973.5,-422.5 973.5,-422.5 973.5,-444.5 973.5,-444.5 973.5,-450.5 967.5,-456.5 961.5,-456.5 961.5,-456.5 840.5,-456.5 840.5,-456.5 834.5,-456.5 828.5,-450.5 828.5,-444.5 828.5,-444.5 828.5,-422.5 828.5,-422.5 828.5,-416.5 834.5,-410.5 840.5,-410.5"/>
<text text-anchor="middle" x="901" y="-441.3" font-family="Times,serif" font-size="14.00">type = 2 (OP)</text>
<polyline fill="none" stroke="black" points="828.5,-433.5 973.5,-433.5 "/>
<text text-anchor="middle" x="901" y="-418.3" font-family="Times,serif" font-size="14.00">value = &#39;&#39; = &#39;&#39; (61)</text>
</g>
<!-- node0x503000000460&#45;&gt;node0x503000000430 -->
<g id="edge23" class="edge">
<title>node0x503000000460&#45;&gt;node0x503000000430</title>
<path fill="none" stroke="black" d="M1084.33,-539.38C1046.56,-517.77 989.01,-484.85 948.49,-461.66"/>
<polygon fill="black" stroke="black" points="950.02,-458.51 939.6,-456.58 946.54,-464.58 950.02,-458.51"/>
</g>
<!-- node0x503000000580 -->
<g id="node25" class="node">
<title>node0x503000000580</title>
<path fill="#e0e0e0" stroke="black" d="M1036.5,-410.5C1036.5,-410.5 1209.5,-410.5 1209.5,-410.5 1215.5,-410.5 1221.5,-416.5 1221.5,-422.5 1221.5,-422.5 1221.5,-444.5 1221.5,-444.5 1221.5,-450.5 1215.5,-456.5 1209.5,-456.5 1209.5,-456.5 1036.5,-456.5 1036.5,-456.5 1030.5,-456.5 1024.5,-450.5 1024.5,-444.5 1024.5,-444.5 1024.5,-422.5 1024.5,-422.5 1024.5,-416.5 1030.5,-410.5 1036.5,-410.5"/>
<text text-anchor="middle" x="1123" y="-441.3" font-family="Times,serif" font-size="14.00">type = 2 (OP)</text>
<polyline fill="none" stroke="black" points="1024.5,-433.5 1221.5,-433.5 "/>
<text text-anchor="middle" x="1123" y="-418.3" font-family="Times,serif" font-size="14.00">value = &#39;&#39; SHUTUP &#39;&#39; (59)</text>
</g>
<!-- node0x503000000460&#45;&gt;node0x503000000580 -->
<g id="edge24" class="edge">
<title>node0x503000000460&#45;&gt;node0x503000000580</title>
<path fill="none" stroke="black" d="M1123,-539.38C1123,-519.38 1123,-489.68 1123,-466.98"/>
<polygon fill="black" stroke="black" points="1126.5,-466.79 1123,-456.79 1119.5,-466.79 1126.5,-466.79"/>
</g>
<!-- node0x503000000370 -->
<g id="node26" class="node">
<title>node0x503000000370</title>
<path fill="#ff5050" stroke="black" d="M573.5,-258.5C573.5,-258.5 786.5,-258.5 786.5,-258.5 792.5,-258.5 798.5,-264.5 798.5,-270.5 798.5,-270.5 798.5,-338.5 798.5,-338.5 798.5,-344.5 792.5,-350.5 786.5,-350.5 786.5,-350.5 573.5,-350.5 573.5,-350.5 567.5,-350.5 561.5,-344.5 561.5,-338.5 561.5,-338.5 561.5,-270.5 561.5,-270.5 561.5,-264.5 567.5,-258.5 573.5,-258.5"/>
<text text-anchor="middle" x="680" y="-335.3" font-family="Times,serif" font-size="14.00">type = 3 (ID)</text>
<polyline fill="none" stroke="black" points="561.5,-327.5 798.5,-327.5 "/>
<text text-anchor="middle" x="680" y="-312.3" font-family="Times,serif" font-size="14.00">name = &#39;&#39; result &#39;&#39;</text>
<polyline fill="none" stroke="black" points="561.5,-304.5 798.5,-304.5 "/>
<text text-anchor="middle" x="680" y="-289.3" font-family="Times,serif" font-size="14.00">number in name table = &#39;&#39; 23 &#39;&#39;</text>
<polyline fill="none" stroke="black" points="561.5,-281.5 798.5,-281.5 "/>
<text text-anchor="middle" x="680" y="-266.3" font-family="Times,serif" font-size="14.00">id_type = LOCL</text>
</g>
<!-- node0x503000000430&#45;&gt;node0x503000000370 -->
<g id="edge25" class="edge">
<title>node0x503000000430&#45;&gt;node0x503000000370</title>
<path fill="none" stroke="black" d="M862.5,-410.38C836.28,-395.31 800.47,-374.73 767.52,-355.79"/>
<polygon fill="black" stroke="black" points="769.18,-352.71 758.76,-350.76 765.69,-358.78 769.18,-352.71"/>
</g>
<!-- node0x503000000400 -->
<g id="node27" class="node">
<title>node0x503000000400</title>
<path fill="#00ffdd" stroke="black" d="M829,-281.5C829,-281.5 973,-281.5 973,-281.5 979,-281.5 985,-287.5 985,-293.5 985,-293.5 985,-315.5 985,-315.5 985,-321.5 979,-327.5 973,-327.5 973,-327.5 829,-327.5 829,-327.5 823,-327.5 817,-321.5 817,-315.5 817,-315.5 817,-293.5 817,-293.5 817,-287.5 823,-281.5 829,-281.5"/>
<text text-anchor="middle" x="901" y="-312.3" font-family="Times,serif" font-size="14.00">type = 2 (OP)</text>
<polyline fill="none" stroke="black" points="817,-304.5 985,-304.5 "/>
<text text-anchor="middle" x="901" y="-289.3" font-family="Times,serif" font-size="14.00">value = &#39;&#39; MUL &#39;&#39; (42)</text>
</g>
<!-- node0x503000000430&#45;&gt;node0x503000000400 -->
<g id="edge26" class="edge">
<title>node0x503000000430&#45;&gt;node0x503000000400</title>
<path fill="none" stroke="black" d="M901,-410.38C901,-390.38 901,-360.68 901,-337.98"/>
<polygon fill="black" stroke="black" points="904.5,-337.79 901,-327.79 897.5,-337.79 904.5,-337.79"/>
</g>
<!-- node0x503000000550 -->
<g id="node30" class="node">
<title>node0x503000000550</title>
<path fill="#00ffdd" stroke="black" d="M1095.5,-281.5C1095.5,-281.5 1216.5,-281.5 1216.5,-281.5 1222.5,-281.5 1228.5,-287.5 1228.5,-293.5 1228.5,-293.5 1228.5,-315.5 1228.5,-315.5 1228.5,-321.5 1222.5,-327.5 1216.5,-327.5 1216.5,-327.5 1095.5,-327.5 1095.5,-327.5 1089.5,-327.5 1083.5,-321.5 1083.5,-315.5 1083.5,-315.5 1083.5,-293.5 1083.5,-293.5 1083.5,-287.5 1089.5,-281.5 1095.5,-281.5"/>
<text text-anchor="middle" x="1156" y="-312.3" font-family="Times,serif" font-size="14.00">type = 2 (OP)</text>
<polyline fill="none" stroke="black" points="1083.5,-304.5 1228.5,-304.5 "/>
<text text-anchor="middle" x="1156" y="-289.3" font-family="Times,serif" font-size="14.00">value = &#39;&#39; = &#39;&#39; (61)</text>
</g>
<!-- node0x503000000580&#45;&gt;node0x503000000550 -->
<g id="edge29" class="edge">
<title>node0x503000000580&#45;&gt;node0x503000000550</title>
<path fill="none" stroke="black" d="M1128.75,-410.38C1133.97,-390.29 1141.73,-360.41 1147.64,-337.68"/>
<polygon fill="black" stroke="black" points="1151.08,-338.35 1150.21,-327.79 1144.3,-336.59 1151.08,-338.35"/>
</g>
<!-- node0x5030000003a0 -->
<g id="node28" class="node">
<title>node0x5030000003a0</title>
<path fill="#ff5050" stroke="black" d="M539.5,-129.5C539.5,-129.5 752.5,-129.5 752.5,-129.5 758.5,-129.5 764.5,-135.5 764.5,-141.5 764.5,-141.5 764.5,-209.5 764.5,-209.5 764.5,-215.5 758.5,-221.5 752.5,-221.5 752.5,-221.5 539.5,-221.5 539.5,-221.5 533.5,-221.5 527.5,-215.5 527.5,-209.5 527.5,-209.5 527.5,-141.5 527.5,-141.5 527.5,-135.5 533.5,-129.5 539.5,-129.5"/>
<text text-anchor="middle" x="646" y="-206.3" font-family="Times,serif" font-size="14.00">type = 3 (ID)</text>
<polyline fill="none" stroke="black" points="527.5,-198.5 764.5,-198.5 "/>
<text text-anchor="middle" x="646" y="-183.3" font-family="Times,serif" font-size="14.00">name = &#39;&#39; result &#39;&#39;</text>
<polyline fill="none" stroke="black" points="527.5,-175.5 764.5,-175.5 "/>
<text text-anchor="middle" x="646" y="-160.3" font-family="Times,serif" font-size="14.00">number in name table = &#39;&#39; 23 &#39;&#39;</text>
<polyline fill="none" stroke="black" points="527.5,-152.5 764.5,-152.5 "/>
<text text-anchor="middle" x="646" y="-137.3" font-family="Times,serif" font-size="14.00">id_type = LOCL</text>
</g>
<!-- node0x503000000400&#45;&gt;node0x5030000003a0 -->
<g id="edge27" class="edge">
<title>node0x503000000400&#45;&gt;node0x5030000003a0</title>
<path fill="none" stroke="black" d="M856.58,-281.38C826,-266.15 784.12,-245.29 745.77,-226.19"/>
<polygon fill="black" stroke="black" points="747.13,-222.96 736.62,-221.63 744.01,-229.22 747.13,-222.96"/>
</g>
<!-- node0x5030000003d0 -->
<g id="node29" class="node">
<title>node0x5030000003d0</title>
<path fill="#ff5050" stroke="black" d="M794.5,-129.5C794.5,-129.5 1007.5,-129.5 1007.5,-129.5 1013.5,-129.5 1019.5,-135.5 1019.5,-141.5 1019.5,-141.5 1019.5,-209.5 1019.5,-209.5 1019.5,-215.5 1013.5,-221.5 1007.5,-221.5 1007.5,-221.5 794.5,-221.5 794.5,-221.5 788.5,-221.5 782.5,-215.5 782.5,-209.5 782.5,-209.5 782.5,-141.5 782.5,-141.5 782.5,-135.5 788.5,-129.5 794.5,-129.5"/>
<text text-anchor="middle" x="901" y="-206.3" font-family="Times,serif" font-size="14.00">type = 3 (ID)</text>
<polyline fill="none" stroke="black" points="782.5,-198.5 1019.5,-198.5 "/>
<text text-anchor="middle" x="901" y="-183.3" font-family="Times,serif" font-size="14.00">name = &#39;&#39; numb &#39;&#39;</text>
<polyline fill="none" stroke="black" points="782.5,-175.5 1019.5,-175.5 "/>
<text text-anchor="middle" x="901" y="-160.3" font-family="Times,serif" font-size="14.00">number in name table = &#39;&#39; 22 &#39;&#39;</text>
<polyline fill="none" stroke="black" points="782.5,-152.5 1019.5,-152.5 "/>
<text text-anchor="middle" x="901" y="-137.3" font-family="Times,serif" font-size="14.00">id_type = LOCL</text>
</g>
<!-- node0x503000000400&#45;&gt;node0x5030000003d0 -->
<g id="edge28" class="edge">
<title>node0x503000000400&#45;&gt;node0x5030000003d0</title>
<path fill="none" stroke="black" d="M901,-281.38C901,-267.66 901,-249.37 901,-231.91"/>
<polygon fill="black" stroke="black" points="904.5,-231.76 901,-221.76 897.5,-231.76 904.5,-231.76"/>
</g>
<!-- node0x503000000490 -->
<g id="node31" class="node">
<title>node0x503000000490</title>
<path fill="#ff5050" stroke="black" d="M1049.5,-129.5C1049.5,-129.5 1262.5,-129.5 1262.5,-129.5 1268.5,-129.5 1274.5,-135.5 1274.5,-141.5 1274.5,-141.5 1274.5,-209.5 1274.5,-209.5 1274.5,-215.5 1268.5,-221.5 1262.5,-221.5 1262.5,-221.5 1049.5,-221.5 1049.5,-221.5 1043.5,-221.5 1037.5,-215.5 1037.5,-209.5 1037.5,-209.5 1037.5,-141.5 1037.5,-141.5 1037.5,-135.5 1043.5,-129.5 1049.5,-129.5"/>
<text text-anchor="middle" x="1156" y="-206.3" font-family="Times,serif" font-size="14.00">type = 3 (ID)</text>
<polyline fill="none" stroke="black" points="1037.5,-198.5 1274.5,-198.5 "/>
<text text-anchor="middle" x="1156" y="-183.3" font-family="Times,serif" font-size="14.00">name = &#39;&#39; numb &#39;&#39;</text>
<polyline fill="none" stroke="black" points="1037.5,-175.5 1274.5,-175.5 "/>
<text text-anchor="middle" x="1156" y="-160.3" font-family="Times,serif" font-size="14.00">number in name table = &#39;&#39; 22 &#39;&#39;</text>
<polyline fill="none" stroke="black" points="1037.5,-152.5 1274.5,-152.5 "/>
<text text-anchor="middle" x="1156" y="-137.3" font-family="Times,serif" font-size="14.00">id_type = LOCL</text>
</g>
<!-- node0x503000000550&#45;&gt;node0x503000000490 -->
<g id="edge30" class="edge">
<title>node0x503000000550&#45;&gt;node0x503000000490</title>
<path fill="none" stroke="black" d="M1156,-281.38C1156,-267.66 1156,-249.37 1156,-231.91"/>
<polygon fill="black" stroke="black" points="1159.5,-231.76 1156,-221.76 1152.5,-231.76 1159.5,-231.76"/>
</g>
<!-- node0x503000000520 -->
<g id="node32" class="node">
<title>node0x503000000520</title>
<path fill="#00ffdd" stroke="black" d="M1304.5,-152.5C1304.5,-152.5 1445.5,-152.5 1445.5,-152.5 1451.5,-152.5 1457.5,-158.5 1457.5,-164.5 1457.5,-164.5 1457.5,-186.5 1457.5,-186.5 1457.5,-192.5 1451.5,-198.5 1445.5,-198.5 1445.5,-198.5 1304.5,-198.5 1304.5,-198.5 1298.5,-198.5 1292.5,-192.5 1292.5,-186.5 1292.5,-186.5 1292.5,-164.5 1292.5,-164.5 1292.5,-158.5 1298.5,-152.5 1304.5,-152.5"/>
<text text-anchor="middle" x="1375" y="-183.3" font-family="Times,serif" font-size="14.00">type = 2 (OP)</text>
<polyline fill="none" stroke="black" points="1292.5,-175.5 1457.5,-175.5 "/>
<text text-anchor="middle" x="1375" y="-160.3" font-family="Times,serif" font-size="14.00">value = &#39;&#39; SUB &#39;&#39; (45)</text>
</g>
<!-- node0x503000000550&#45;&gt;node0x503000000520 -->
<g id="edge31" class="edge">
<title>node0x503000000550&#45;&gt;node0x503000000520</title>
<path fill="none" stroke="black" d="M1194.15,-281.38C1231.4,-259.77 1288.18,-226.85 1328.16,-203.66"/>
<polygon fill="black" stroke="black" points="1330.03,-206.63 1336.92,-198.58 1326.52,-200.57 1330.03,-206.63"/>
</g>
<!-- node0x5030000004c0 -->
<g id="node33" class="node">
<title>node0x5030000004c0</title>
<path fill="#ff5050" stroke="black" d="M1167.5,-0.5C1167.5,-0.5 1380.5,-0.5 1380.5,-0.5 1386.5,-0.5 1392.5,-6.5 1392.5,-12.5 1392.5,-12.5 1392.5,-80.5 1392.5,-80.5 1392.5,-86.5 1386.5,-92.5 1380.5,-92.5 1380.5,-92.5 1167.5,-92.5 1167.5,-92.5 1161.5,-92.5 1155.5,-86.5 1155.5,-80.5 1155.5,-80.5 1155.5,-12.5 1155.5,-12.5 1155.5,-6.5 1161.5,-0.5 1167.5,-0.5"/>
<text text-anchor="middle" x="1274" y="-77.3" font-family="Times,serif" font-size="14.00">type = 3 (ID)</text>
<polyline fill="none" stroke="black" points="1155.5,-69.5 1392.5,-69.5 "/>
<text text-anchor="middle" x="1274" y="-54.3" font-family="Times,serif" font-size="14.00">name = &#39;&#39; numb &#39;&#39;</text>
<polyline fill="none" stroke="black" points="1155.5,-46.5 1392.5,-46.5 "/>
<text text-anchor="middle" x="1274" y="-31.3" font-family="Times,serif" font-size="14.00">number in name table = &#39;&#39; 22 &#39;&#39;</text>
<polyline fill="none" stroke="black" points="1155.5,-23.5 1392.5,-23.5 "/>
<text text-anchor="middle" x="1274" y="-8.3" font-family="Times,serif" font-size="14.00">id_type = LOCL</text>
</g>
<!-- node0x503000000520&#45;&gt;node0x5030000004c0 -->
<g id="edge32" class="edge">
<title>node0x503000000520&#45;&gt;node0x5030000004c0</title>
<path fill="none" stroke="black" d="M1357.41,-152.38C1346.09,-138.14 1330.86,-118.99 1316.51,-100.95"/>
<polygon fill="black" stroke="black" points="1318.96,-98.41 1310,-92.76 1313.48,-102.77 1318.96,-98.41"/>
</g>
<!-- node0x5030000004f0 -->
<g id="node34" class="node">
<title>node0x5030000004f0</title>
<path fill="#ffd700" stroke="black" d="M1422.5,-23.5C1422.5,-23.5 1529.5,-23.5 1529.5,-23.5 1535.5,-23.5 1541.5,-29.5 1541.5,-35.5 1541.5,-35.5 1541.5,-57.5 1541.5,-57.5 1541.5,-63.5 1535.5,-69.5 1529.5,-69.5 1529.5,-69.5 1422.5,-69.5 1422.5,-69.5 1416.5,-69.5 1410.5,-63.5 1410.5,-57.5 1410.5,-57.5 1410.5,-35.5 1410.5,-35.5 1410.5,-29.5 1416.5,-23.5 1422.5,-23.5"/>
<text text-anchor="middle" x="1476" y="-54.3" font-family="Times,serif" font-size="14.00">type = 1 (NUM)</text>
<polyline fill="none" stroke="black" points="1410.5,-46.5 1541.5,-46.5 "/>
<text text-anchor="middle" x="1476" y="-31.3" font-family="Times,serif" font-size="14.00">value = &#39;&#39; 1 &#39;&#39;</text>
</g>
<!-- node0x503000000520&#45;&gt;node0x5030000004f0 -->
<g id="edge33" class="edge">
<title>node0x503000000520&#45;&gt;node0x5030000004f0</title>
<path fill="none" stroke="black" d="M1392.59,-152.38C1409,-131.74 1433.62,-100.79 1451.86,-77.85"/>
<polygon fill="black" stroke="black" points="1454.78,-79.8 1458.27,-69.79 1449.31,-75.44 1454.78,-79.8"/>
</g>
<!-- node0x503000000610 -->
<g id="node36" class="node">
<title>node0x503000000610</title>
<path fill="#ff5050" stroke="black" d="M1251.5,-387.5C1251.5,-387.5 1464.5,-387.5 1464.5,-387.5 1470.5,-387.5 1476.5,-393.5 1476.5,-399.5 1476.5,-399.5 1476.5,-467.5 1476.5,-467.5 1476.5,-473.5 1470.5,-479.5 1464.5,-479.5 1464.5,-479.5 1251.5,-479.5 1251.5,-479.5 1245.5,-479.5 1239.5,-473.5 1239.5,-467.5 1239.5,-467.5 1239.5,-399.5 1239.5,-399.5 1239.5,-393.5 1245.5,-387.5 1251.5,-387.5"/>
<text text-anchor="middle" x="1358" y="-464.3" font-family="Times,serif" font-size="14.00">type = 3 (ID)</text>
<polyline fill="none" stroke="black" points="1239.5,-456.5 1476.5,-456.5 "/>
<text text-anchor="middle" x="1358" y="-441.3" font-family="Times,serif" font-size="14.00">name = &#39;&#39; result &#39;&#39;</text>
<polyline fill="none" stroke="black" points="1239.5,-433.5 1476.5,-433.5 "/>
<text text-anchor="middle" x="1358" y="-418.3" font-family="Times,serif" font-size="14.00">number in name table = &#39;&#39; 23 &#39;&#39;</text>
<polyline fill="none" stroke="black" points="1239.5,-410.5 1476.5,-410.5 "/>
<text text-anchor="middle" x="1358" y="-395.3" font-family="Times,serif" font-size="14.00">id_type = LOCL</text>
</g>
<!-- node0x503000000670&#45;&gt;node0x503000000610 -->
<g id="edge35" class="edge">
<title>node0x503000000670&#45;&gt;node0x503000000610</title>
<path fill="none" stroke="black" d="M1358,-539.38C1358,-525.66 1358,-507.37 1358,-489.91"/>
<polygon fill="black" stroke="black" points="1361.5,-489.76 1358,-479.76 1354.5,-489.76 1361.5,-489.76"/>
</g>
<!-- node0x503000000640 -->
<g id="node37" class="node">
<title>node0x503000000640</title>
<path fill="#ff5050" stroke="black" d="M1506.5,-387.5C1506.5,-387.5 1719.5,-387.5 1719.5,-387.5 1725.5,-387.5 1731.5,-393.5 1731.5,-399.5 1731.5,-399.5 1731.5,-467.5 1731.5,-467.5 1731.5,-473.5 1725.5,-479.5 1719.5,-479.5 1719.5,-479.5 1506.5,-479.5 1506.5,-479.5 1500.5,-479.5 1494.5,-473.5 1494.5,-467.5 1494.5,-467.5 1494.5,-399.5 1494.5,-399.5 1494.5,-393.5 1500.5,-387.5 1506.5,-387.5"/>
<text text-anchor="middle" x="1613" y="-464.3" font-family="Times,serif" font-size="14.00">type = 3 (ID)</text>
<polyline fill="none" stroke="black" points="1494.5,-456.5 1731.5,-456.5 "/>
<text text-anchor="middle" x="1613" y="-441.3" font-family="Times,serif" font-size="14.00">name = &#39;&#39; result &#39;&#39;</text>
<polyline fill="none" stroke="black" points="1494.5,-433.5 1731.5,-433.5 "/>
<text text-anchor="middle" x="1613" y="-418.3" font-family="Times,serif" font-size="14.00">number in name table = &#39;&#39; 23 &#39;&#39;</text>
<polyline fill="none" stroke="black" points="1494.5,-410.5 1731.5,-410.5 "/>
<text text-anchor="middle" x="1613" y="-395.3" font-family="Times,serif" font-size="14.00">id_type = LOCL</text>
</g>
<!-- node0x503000000670&#45;&gt;node0x503000000640 -->
<g id="edge36" class="edge">
<title>node0x503000000670&#45;&gt;node0x503000000640</title>
<path fill="none" stroke="black" d="M1402.42,-539.38C1433,-524.15 1474.88,-503.29 1513.23,-484.19"/>
<polygon fill="black" stroke="black" points="1514.99,-487.22 1522.38,-479.63 1511.87,-480.96 1514.99,-487.22"/>
</g>
</g>
</svg>
