<?xml version="1.0" encoding="UTF-8" standalone="no"?>
<!DOCTYPE svg PUBLIC "-//W3C//DTD SVG 1.1//EN"
 "http://www.w3.org/Graphics/SVG/1.1/DTD/svg11.dtd">
<!-- Generated by graphviz version 13.1.0 (0)
 -->
<!-- Pages: 1 -->
<svg width="245pt" height="198pt"
 viewBox="0.00 0.00 245.00 198.00" xmlns="http://www.w3.org/2000/svg" xmlns:xlink="http://www.w3.org/1999/xlink">
<g id="graph0" class="graph" transform="scale(1 1) rotate(0) translate(4 193.5)">
<!-- node0x7bfdfe5e00a0 -->
<g id="node1" class="node">
<title>node0x7bfdfe5e00a0</title>
<path fill="#feaadf" stroke="black" d="M61.88,-138.5C61.88,-138.5 174.62,-138.5 174.62,-138.5 180.62,-138.5 186.62,-144.5 186.62,-150.5 186.62,-150.5 186.62,-177 186.62,-177 186.62,-183 180.62,-189 174.62,-189 174.62,-189 61.87,-189 61.87,-189 55.88,-189 49.88,-183 49.88,-177 49.88,-177 49.88,-150.5 49.88,-150.5 49.88,-144.5 55.88,-138.5 61.88,-138.5"/>
<text xml:space="preserve" text-anchor="middle" x="118.25" y="-171.7" font-family="Times,serif" font-size="14.00">type = 4 (FUNC)</text>
<polyline fill="none" stroke="black" points="49.88,-163.75 186.62,-163.75"/>
<text xml:space="preserve" text-anchor="middle" x="118.25" y="-146.45" font-family="Times,serif" font-size="14.00">value = &#39;&#39; , &#39;&#39; (44)</text>
</g>
<!-- node0x7bfdfe5e0070 -->
<g id="node2" class="node">
<title>node0x7bfdfe5e0070</title>
<path fill="#ff5050" stroke="black" d="M12,-0.5C12,-0.5 224.5,-0.5 224.5,-0.5 230.5,-0.5 236.5,-6.5 236.5,-12.5 236.5,-12.5 236.5,-89.5 236.5,-89.5 236.5,-95.5 230.5,-101.5 224.5,-101.5 224.5,-101.5 12,-101.5 12,-101.5 6,-101.5 0,-95.5 0,-89.5 0,-89.5 0,-12.5 0,-12.5 0,-6.5 6,-0.5 12,-0.5"/>
<text xml:space="preserve" text-anchor="middle" x="118.25" y="-84.2" font-family="Times,serif" font-size="14.00">type = 3 (ID)</text>
<polyline fill="none" stroke="black" points="0,-76.25 236.5,-76.25"/>
<text xml:space="preserve" text-anchor="middle" x="118.25" y="-58.95" font-family="Times,serif" font-size="14.00">name = &#39;&#39; argc &#39;&#39;</text>
<polyline fill="none" stroke="black" points="0,-51 236.5,-51"/>
<text xml:space="preserve" text-anchor="middle" x="118.25" y="-33.7" font-family="Times,serif" font-size="14.00">number in name table = &#39;&#39; 21 &#39;&#39;</text>
<polyline fill="none" stroke="black" points="0,-25.75 236.5,-25.75"/>
<text xml:space="preserve" text-anchor="middle" x="118.25" y="-8.45" font-family="Times,serif" font-size="14.00">id_type = PARM</text>
</g>
<!-- node0x7bfdfe5e00a0&#45;&gt;node0x7bfdfe5e0070 -->
<g id="edge1" class="edge">
<title>node0x7bfdfe5e00a0&#45;&gt;node0x7bfdfe5e0070</title>
<path fill="none" stroke="black" d="M118.25,-138.17C118.25,-130.64 118.25,-122 118.25,-113.16"/>
<polygon fill="black" stroke="black" points="121.75,-113.44 118.25,-103.44 114.75,-113.44 121.75,-113.44"/>
</g>
</g>
</svg>
