<?xml version="1.0" encoding="UTF-8" standalone="no"?>
<!DOCTYPE svg PUBLIC "-//W3C//DTD SVG 1.1//EN"
 "http://www.w3.org/Graphics/SVG/1.1/DTD/svg11.dtd">
<!-- Generated by graphviz version 2.43.0 (0)
 -->
<!-- Title: %3 Pages: 1 -->
<svg width="2151pt" height="1336pt"
 viewBox="0.00 0.00 2150.50 1336.00" xmlns="http://www.w3.org/2000/svg" xmlns:xlink="http://www.w3.org/1999/xlink">
<g id="graph0" class="graph" transform="scale(1 1) rotate(0) translate(4 1332)">
<title>%3</title>
<!-- node0x503000000880 -->
<g id="node1" class="node">
<title>node0x503000000880</title>
<path fill="#a0a0a0" stroke="black" d="M236,-1281.5C236,-1281.5 472,-1281.5 472,-1281.5 478,-1281.5 484,-1287.5 484,-1293.5 484,-1293.5 484,-1315.5 484,-1315.5 484,-1321.5 478,-1327.5 472,-1327.5 472,-1327.5 236,-1327.5 236,-1327.5 230,-1327.5 224,-1321.5 224,-1315.5 224,-1315.5 224,-1293.5 224,-1293.5 224,-1287.5 230,-1281.5 236,-1281.5"/>
<text text-anchor="middle" x="354" y="-1312.3" font-family="Times,serif" font-size="14.00">type = 4 (FUNC)</text>
<polyline fill="none" stroke="black" points="224,-1304.5 484,-1304.5 "/>
<text text-anchor="middle" x="354" y="-1289.3" font-family="Times,serif" font-size="14.00">value = &#39;&#39; NEXT FUNCTION &#39;&#39; (64)</text>
</g>
<!-- node0x503000000850 -->
<g id="node2" class="node">
<title>node0x503000000850</title>
<path fill="#755cf7" stroke="black" d="M254,-1198.5C254,-1198.5 454,-1198.5 454,-1198.5 460,-1198.5 466,-1204.5 466,-1210.5 466,-1210.5 466,-1232.5 466,-1232.5 466,-1238.5 460,-1244.5 454,-1244.5 454,-1244.5 254,-1244.5 254,-1244.5 248,-1244.5 242,-1238.5 242,-1232.5 242,-1232.5 242,-1210.5 242,-1210.5 242,-1204.5 248,-1198.5 254,-1198.5"/>
<text text-anchor="middle" x="354" y="-1229.3" font-family="Times,serif" font-size="14.00">type = 4 (FUNC)</text>
<polyline fill="none" stroke="black" points="242,-1221.5 466,-1221.5 "/>
<text text-anchor="middle" x="354" y="-1206.3" font-family="Times,serif" font-size="14.00">value = &#39;&#39; DEFINITION &#39;&#39; (68)</text>
</g>
<!-- node0x503000000880&#45;&gt;node0x503000000850 -->
<g id="edge1" class="edge">
<title>node0x503000000880&#45;&gt;node0x503000000850</title>
<path fill="none" stroke="black" d="M354,-1281.37C354,-1273.15 354,-1263.66 354,-1254.73"/>
<polygon fill="black" stroke="black" points="357.5,-1254.61 354,-1244.61 350.5,-1254.61 357.5,-1254.61"/>
</g>
<!-- node0x5030000000d0 -->
<g id="node3" class="node">
<title>node0x5030000000d0</title>
<path fill="#f069f5" stroke="black" d="M179.5,-1115.5C179.5,-1115.5 326.5,-1115.5 326.5,-1115.5 332.5,-1115.5 338.5,-1121.5 338.5,-1127.5 338.5,-1127.5 338.5,-1149.5 338.5,-1149.5 338.5,-1155.5 332.5,-1161.5 326.5,-1161.5 326.5,-1161.5 179.5,-1161.5 179.5,-1161.5 173.5,-1161.5 167.5,-1155.5 167.5,-1149.5 167.5,-1149.5 167.5,-1127.5 167.5,-1127.5 167.5,-1121.5 173.5,-1115.5 179.5,-1115.5"/>
<text text-anchor="middle" x="253" y="-1146.3" font-family="Times,serif" font-size="14.00">type = 4 (FUNC)</text>
<polyline fill="none" stroke="black" points="167.5,-1138.5 338.5,-1138.5 "/>
<text text-anchor="middle" x="253" y="-1123.3" font-family="Times,serif" font-size="14.00">value = &#39;&#39; CALL &#39;&#39; (67)</text>
</g>
<!-- node0x503000000850&#45;&gt;node0x5030000000d0 -->
<g id="edge2" class="edge">
<title>node0x503000000850&#45;&gt;node0x5030000000d0</title>
<path fill="none" stroke="black" d="M326.4,-1198.37C314.71,-1188.99 300.94,-1177.95 288.51,-1167.98"/>
<polygon fill="black" stroke="black" points="290.56,-1165.13 280.57,-1161.61 286.18,-1170.59 290.56,-1165.13"/>
</g>
<!-- node0x503000000190 -->
<g id="node4" class="node">
<title>node0x503000000190</title>
<path fill="#e0e0e0" stroke="black" d="M394.5,-1115.5C394.5,-1115.5 567.5,-1115.5 567.5,-1115.5 573.5,-1115.5 579.5,-1121.5 579.5,-1127.5 579.5,-1127.5 579.5,-1149.5 579.5,-1149.5 579.5,-1155.5 573.5,-1161.5 567.5,-1161.5 567.5,-1161.5 394.5,-1161.5 394.5,-1161.5 388.5,-1161.5 382.5,-1155.5 382.5,-1149.5 382.5,-1149.5 382.5,-1127.5 382.5,-1127.5 382.5,-1121.5 388.5,-1115.5 394.5,-1115.5"/>
<text text-anchor="middle" x="481" y="-1146.3" font-family="Times,serif" font-size="14.00">type = 2 (OP)</text>
<polyline fill="none" stroke="black" points="382.5,-1138.5 579.5,-1138.5 "/>
<text text-anchor="middle" x="481" y="-1123.3" font-family="Times,serif" font-size="14.00">value = &#39;&#39; SHUTUP &#39;&#39; (59)</text>
</g>
<!-- node0x503000000850&#45;&gt;node0x503000000190 -->
<g id="edge3" class="edge">
<title>node0x503000000850&#45;&gt;node0x503000000190</title>
<path fill="none" stroke="black" d="M388.7,-1198.37C403.82,-1188.72 421.71,-1177.32 437.69,-1167.13"/>
<polygon fill="black" stroke="black" points="439.79,-1169.94 446.34,-1161.61 436.03,-1164.03 439.79,-1169.94"/>
</g>
<!-- node0x503000000040 -->
<g id="node5" class="node">
<title>node0x503000000040</title>
<path fill="#2ee31e" stroke="black" d="M12,-1032.5C12,-1032.5 154,-1032.5 154,-1032.5 160,-1032.5 166,-1038.5 166,-1044.5 166,-1044.5 166,-1066.5 166,-1066.5 166,-1072.5 160,-1078.5 154,-1078.5 154,-1078.5 12,-1078.5 12,-1078.5 6,-1078.5 0,-1072.5 0,-1066.5 0,-1066.5 0,-1044.5 0,-1044.5 0,-1038.5 6,-1032.5 12,-1032.5"/>
<text text-anchor="middle" x="83" y="-1063.3" font-family="Times,serif" font-size="14.00">type = 4 (FUNC)</text>
<polyline fill="none" stroke="black" points="0,-1055.5 166,-1055.5 "/>
<text text-anchor="middle" x="83" y="-1040.3" font-family="Times,serif" font-size="14.00">value = &#39;&#39; carti &#39;&#39; (20)</text>
</g>
<!-- node0x5030000000d0&#45;&gt;node0x503000000040 -->
<g id="edge4" class="edge">
<title>node0x5030000000d0&#45;&gt;node0x503000000040</title>
<path fill="none" stroke="black" d="M206.55,-1115.37C185.56,-1105.37 160.59,-1093.47 138.61,-1083"/>
<polygon fill="black" stroke="black" points="139.93,-1079.75 129.4,-1078.61 136.92,-1086.07 139.93,-1079.75"/>
</g>
<!-- node0x5030000000a0 -->
<g id="node6" class="node">
<title>node0x5030000000a0</title>
<path fill="#feaadf" stroke="black" d="M196.5,-1032.5C196.5,-1032.5 309.5,-1032.5 309.5,-1032.5 315.5,-1032.5 321.5,-1038.5 321.5,-1044.5 321.5,-1044.5 321.5,-1066.5 321.5,-1066.5 321.5,-1072.5 315.5,-1078.5 309.5,-1078.5 309.5,-1078.5 196.5,-1078.5 196.5,-1078.5 190.5,-1078.5 184.5,-1072.5 184.5,-1066.5 184.5,-1066.5 184.5,-1044.5 184.5,-1044.5 184.5,-1038.5 190.5,-1032.5 196.5,-1032.5"/>
<text text-anchor="middle" x="253" y="-1063.3" font-family="Times,serif" font-size="14.00">type = 4 (FUNC)</text>
<polyline fill="none" stroke="black" points="184.5,-1055.5 321.5,-1055.5 "/>
<text text-anchor="middle" x="253" y="-1040.3" font-family="Times,serif" font-size="14.00">value = &#39;&#39; , &#39;&#39; (44)</text>
</g>
<!-- node0x5030000000d0&#45;&gt;node0x5030000000a0 -->
<g id="edge5" class="edge">
<title>node0x5030000000d0&#45;&gt;node0x5030000000a0</title>
<path fill="none" stroke="black" d="M253,-1115.37C253,-1107.15 253,-1097.66 253,-1088.73"/>
<polygon fill="black" stroke="black" points="256.5,-1088.61 253,-1078.61 249.5,-1088.61 256.5,-1088.61"/>
</g>
<!-- node0x503000000160 -->
<g id="node8" class="node">
<title>node0x503000000160</title>
<path fill="#00ffdd" stroke="black" d="M420.5,-1032.5C420.5,-1032.5 541.5,-1032.5 541.5,-1032.5 547.5,-1032.5 553.5,-1038.5 553.5,-1044.5 553.5,-1044.5 553.5,-1066.5 553.5,-1066.5 553.5,-1072.5 547.5,-1078.5 541.5,-1078.5 541.5,-1078.5 420.5,-1078.5 420.5,-1078.5 414.5,-1078.5 408.5,-1072.5 408.5,-1066.5 408.5,-1066.5 408.5,-1044.5 408.5,-1044.5 408.5,-1038.5 414.5,-1032.5 420.5,-1032.5"/>
<text text-anchor="middle" x="481" y="-1063.3" font-family="Times,serif" font-size="14.00">type = 2 (OP)</text>
<polyline fill="none" stroke="black" points="408.5,-1055.5 553.5,-1055.5 "/>
<text text-anchor="middle" x="481" y="-1040.3" font-family="Times,serif" font-size="14.00">value = &#39;&#39; = &#39;&#39; (61)</text>
</g>
<!-- node0x503000000190&#45;&gt;node0x503000000160 -->
<g id="edge7" class="edge">
<title>node0x503000000190&#45;&gt;node0x503000000160</title>
<path fill="none" stroke="black" d="M481,-1115.37C481,-1107.15 481,-1097.66 481,-1088.73"/>
<polygon fill="black" stroke="black" points="484.5,-1088.61 481,-1078.61 477.5,-1088.61 484.5,-1088.61"/>
</g>
<!-- node0x503000000250 -->
<g id="node9" class="node">
<title>node0x503000000250</title>
<path fill="#e0e0e0" stroke="black" d="M668.5,-1032.5C668.5,-1032.5 841.5,-1032.5 841.5,-1032.5 847.5,-1032.5 853.5,-1038.5 853.5,-1044.5 853.5,-1044.5 853.5,-1066.5 853.5,-1066.5 853.5,-1072.5 847.5,-1078.5 841.5,-1078.5 841.5,-1078.5 668.5,-1078.5 668.5,-1078.5 662.5,-1078.5 656.5,-1072.5 656.5,-1066.5 656.5,-1066.5 656.5,-1044.5 656.5,-1044.5 656.5,-1038.5 662.5,-1032.5 668.5,-1032.5"/>
<text text-anchor="middle" x="755" y="-1063.3" font-family="Times,serif" font-size="14.00">type = 2 (OP)</text>
<polyline fill="none" stroke="black" points="656.5,-1055.5 853.5,-1055.5 "/>
<text text-anchor="middle" x="755" y="-1040.3" font-family="Times,serif" font-size="14.00">value = &#39;&#39; SHUTUP &#39;&#39; (59)</text>
</g>
<!-- node0x503000000190&#45;&gt;node0x503000000250 -->
<g id="edge8" class="edge">
<title>node0x503000000190&#45;&gt;node0x503000000250</title>
<path fill="none" stroke="black" d="M555.51,-1115.47C591.15,-1104.94 633.97,-1092.28 670.79,-1081.39"/>
<polygon fill="black" stroke="black" points="671.91,-1084.71 680.51,-1078.52 669.92,-1078 671.91,-1084.71"/>
</g>
<!-- node0x503000000070 -->
<g id="node7" class="node">
<title>node0x503000000070</title>
<path fill="#ff5050" stroke="black" d="M35.5,-903.5C35.5,-903.5 248.5,-903.5 248.5,-903.5 254.5,-903.5 260.5,-909.5 260.5,-915.5 260.5,-915.5 260.5,-983.5 260.5,-983.5 260.5,-989.5 254.5,-995.5 248.5,-995.5 248.5,-995.5 35.5,-995.5 35.5,-995.5 29.5,-995.5 23.5,-989.5 23.5,-983.5 23.5,-983.5 23.5,-915.5 23.5,-915.5 23.5,-909.5 29.5,-903.5 35.5,-903.5"/>
<text text-anchor="middle" x="142" y="-980.3" font-family="Times,serif" font-size="14.00">type = 3 (ID)</text>
<polyline fill="none" stroke="black" points="23.5,-972.5 260.5,-972.5 "/>
<text text-anchor="middle" x="142" y="-957.3" font-family="Times,serif" font-size="14.00">name = &#39;&#39; argc &#39;&#39;</text>
<polyline fill="none" stroke="black" points="23.5,-949.5 260.5,-949.5 "/>
<text text-anchor="middle" x="142" y="-934.3" font-family="Times,serif" font-size="14.00">number in name table = &#39;&#39; 21 &#39;&#39;</text>
<polyline fill="none" stroke="black" points="23.5,-926.5 260.5,-926.5 "/>
<text text-anchor="middle" x="142" y="-911.3" font-family="Times,serif" font-size="14.00">id_type = PARM</text>
</g>
<!-- node0x5030000000a0&#45;&gt;node0x503000000070 -->
<g id="edge6" class="edge">
<title>node0x5030000000a0&#45;&gt;node0x503000000070</title>
<path fill="none" stroke="black" d="M229.46,-1032.44C220.06,-1023.64 208.81,-1013.1 197.56,-1002.55"/>
<polygon fill="black" stroke="black" points="199.87,-999.93 190.18,-995.64 195.09,-1005.03 199.87,-999.93"/>
</g>
<!-- node0x503000000100 -->
<g id="node10" class="node">
<title>node0x503000000100</title>
<path fill="#ff5050" stroke="black" d="M290.5,-903.5C290.5,-903.5 503.5,-903.5 503.5,-903.5 509.5,-903.5 515.5,-909.5 515.5,-915.5 515.5,-915.5 515.5,-983.5 515.5,-983.5 515.5,-989.5 509.5,-995.5 503.5,-995.5 503.5,-995.5 290.5,-995.5 290.5,-995.5 284.5,-995.5 278.5,-989.5 278.5,-983.5 278.5,-983.5 278.5,-915.5 278.5,-915.5 278.5,-909.5 284.5,-903.5 290.5,-903.5"/>
<text text-anchor="middle" x="397" y="-980.3" font-family="Times,serif" font-size="14.00">type = 3 (ID)</text>
<polyline fill="none" stroke="black" points="278.5,-972.5 515.5,-972.5 "/>
<text text-anchor="middle" x="397" y="-957.3" font-family="Times,serif" font-size="14.00">name = &#39;&#39; numb &#39;&#39;</text>
<polyline fill="none" stroke="black" points="278.5,-949.5 515.5,-949.5 "/>
<text text-anchor="middle" x="397" y="-934.3" font-family="Times,serif" font-size="14.00">number in name table = &#39;&#39; 22 &#39;&#39;</text>
<polyline fill="none" stroke="black" points="278.5,-926.5 515.5,-926.5 "/>
<text text-anchor="middle" x="397" y="-911.3" font-family="Times,serif" font-size="14.00">id_type = LOCL</text>
</g>
<!-- node0x503000000160&#45;&gt;node0x503000000100 -->
<g id="edge9" class="edge">
<title>node0x503000000160&#45;&gt;node0x503000000100</title>
<path fill="none" stroke="black" d="M463.19,-1032.44C456.28,-1023.89 448.05,-1013.7 439.77,-1003.46"/>
<polygon fill="black" stroke="black" points="442.47,-1001.22 433.46,-995.64 437.02,-1005.62 442.47,-1001.22"/>
</g>
<!-- node0x503000000130 -->
<g id="node11" class="node">
<title>node0x503000000130</title>
<path fill="#ffd700" stroke="black" d="M545.5,-926.5C545.5,-926.5 652.5,-926.5 652.5,-926.5 658.5,-926.5 664.5,-932.5 664.5,-938.5 664.5,-938.5 664.5,-960.5 664.5,-960.5 664.5,-966.5 658.5,-972.5 652.5,-972.5 652.5,-972.5 545.5,-972.5 545.5,-972.5 539.5,-972.5 533.5,-966.5 533.5,-960.5 533.5,-960.5 533.5,-938.5 533.5,-938.5 533.5,-932.5 539.5,-926.5 545.5,-926.5"/>
<text text-anchor="middle" x="599" y="-957.3" font-family="Times,serif" font-size="14.00">type = 1 (NUM)</text>
<polyline fill="none" stroke="black" points="533.5,-949.5 664.5,-949.5 "/>
<text text-anchor="middle" x="599" y="-934.3" font-family="Times,serif" font-size="14.00">value = &#39;&#39; 5 &#39;&#39;</text>
</g>
<!-- node0x503000000160&#45;&gt;node0x503000000130 -->
<g id="edge10" class="edge">
<title>node0x503000000160&#45;&gt;node0x503000000130</title>
<path fill="none" stroke="black" d="M506.02,-1032.44C523.62,-1016.93 547.34,-996.03 566.42,-979.22"/>
<polygon fill="black" stroke="black" points="568.82,-981.76 574.01,-972.52 564.19,-976.51 568.82,-981.76"/>
</g>
<!-- node0x503000000220 -->
<g id="node12" class="node">
<title>node0x503000000220</title>
<path fill="#00ffdd" stroke="black" d="M694.5,-926.5C694.5,-926.5 815.5,-926.5 815.5,-926.5 821.5,-926.5 827.5,-932.5 827.5,-938.5 827.5,-938.5 827.5,-960.5 827.5,-960.5 827.5,-966.5 821.5,-972.5 815.5,-972.5 815.5,-972.5 694.5,-972.5 694.5,-972.5 688.5,-972.5 682.5,-966.5 682.5,-960.5 682.5,-960.5 682.5,-938.5 682.5,-938.5 682.5,-932.5 688.5,-926.5 694.5,-926.5"/>
<text text-anchor="middle" x="755" y="-957.3" font-family="Times,serif" font-size="14.00">type = 2 (OP)</text>
<polyline fill="none" stroke="black" points="682.5,-949.5 827.5,-949.5 "/>
<text text-anchor="middle" x="755" y="-934.3" font-family="Times,serif" font-size="14.00">value = &#39;&#39; = &#39;&#39; (61)</text>
</g>
<!-- node0x503000000250&#45;&gt;node0x503000000220 -->
<g id="edge11" class="edge">
<title>node0x503000000250&#45;&gt;node0x503000000220</title>
<path fill="none" stroke="black" d="M755,-1032.44C755,-1017.97 755,-998.79 755,-982.63"/>
<polygon fill="black" stroke="black" points="758.5,-982.52 755,-972.52 751.5,-982.52 758.5,-982.52"/>
</g>
<!-- node0x503000000310 -->
<g id="node13" class="node">
<title>node0x503000000310</title>
<path fill="#e0e0e0" stroke="black" d="M857.5,-926.5C857.5,-926.5 1030.5,-926.5 1030.5,-926.5 1036.5,-926.5 1042.5,-932.5 1042.5,-938.5 1042.5,-938.5 1042.5,-960.5 1042.5,-960.5 1042.5,-966.5 1036.5,-972.5 1030.5,-972.5 1030.5,-972.5 857.5,-972.5 857.5,-972.5 851.5,-972.5 845.5,-966.5 845.5,-960.5 845.5,-960.5 845.5,-938.5 845.5,-938.5 845.5,-932.5 851.5,-926.5 857.5,-926.5"/>
<text text-anchor="middle" x="944" y="-957.3" font-family="Times,serif" font-size="14.00">type = 2 (OP)</text>
<polyline fill="none" stroke="black" points="845.5,-949.5 1042.5,-949.5 "/>
<text text-anchor="middle" x="944" y="-934.3" font-family="Times,serif" font-size="14.00">value = &#39;&#39; SHUTUP &#39;&#39; (59)</text>
</g>
<!-- node0x503000000250&#45;&gt;node0x503000000310 -->
<g id="edge12" class="edge">
<title>node0x503000000250&#45;&gt;node0x503000000310</title>
<path fill="none" stroke="black" d="M795.08,-1032.44C824.27,-1016.38 863.98,-994.53 895.05,-977.44"/>
<polygon fill="black" stroke="black" points="896.9,-980.41 903.98,-972.52 893.53,-974.28 896.9,-980.41"/>
</g>
<!-- node0x5030000001c0 -->
<g id="node14" class="node">
<title>node0x5030000001c0</title>
<path fill="#ff5050" stroke="black" d="M455.5,-774.5C455.5,-774.5 668.5,-774.5 668.5,-774.5 674.5,-774.5 680.5,-780.5 680.5,-786.5 680.5,-786.5 680.5,-854.5 680.5,-854.5 680.5,-860.5 674.5,-866.5 668.5,-866.5 668.5,-866.5 455.5,-866.5 455.5,-866.5 449.5,-866.5 443.5,-860.5 443.5,-854.5 443.5,-854.5 443.5,-786.5 443.5,-786.5 443.5,-780.5 449.5,-774.5 455.5,-774.5"/>
<text text-anchor="middle" x="562" y="-851.3" font-family="Times,serif" font-size="14.00">type = 3 (ID)</text>
<polyline fill="none" stroke="black" points="443.5,-843.5 680.5,-843.5 "/>
<text text-anchor="middle" x="562" y="-828.3" font-family="Times,serif" font-size="14.00">name = &#39;&#39; result &#39;&#39;</text>
<polyline fill="none" stroke="black" points="443.5,-820.5 680.5,-820.5 "/>
<text text-anchor="middle" x="562" y="-805.3" font-family="Times,serif" font-size="14.00">number in name table = &#39;&#39; 23 &#39;&#39;</text>
<polyline fill="none" stroke="black" points="443.5,-797.5 680.5,-797.5 "/>
<text text-anchor="middle" x="562" y="-782.3" font-family="Times,serif" font-size="14.00">id_type = LOCL</text>
</g>
<!-- node0x503000000220&#45;&gt;node0x5030000001c0 -->
<g id="edge13" class="edge">
<title>node0x503000000220&#45;&gt;node0x5030000001c0</title>
<path fill="none" stroke="black" d="M721.38,-926.38C698.68,-911.44 667.74,-891.08 639.17,-872.28"/>
<polygon fill="black" stroke="black" points="641.06,-869.33 630.78,-866.76 637.21,-875.18 641.06,-869.33"/>
</g>
<!-- node0x5030000001f0 -->
<g id="node15" class="node">
<title>node0x5030000001f0</title>
<path fill="#ffd700" stroke="black" d="M710.5,-797.5C710.5,-797.5 817.5,-797.5 817.5,-797.5 823.5,-797.5 829.5,-803.5 829.5,-809.5 829.5,-809.5 829.5,-831.5 829.5,-831.5 829.5,-837.5 823.5,-843.5 817.5,-843.5 817.5,-843.5 710.5,-843.5 710.5,-843.5 704.5,-843.5 698.5,-837.5 698.5,-831.5 698.5,-831.5 698.5,-809.5 698.5,-809.5 698.5,-803.5 704.5,-797.5 710.5,-797.5"/>
<text text-anchor="middle" x="764" y="-828.3" font-family="Times,serif" font-size="14.00">type = 1 (NUM)</text>
<polyline fill="none" stroke="black" points="698.5,-820.5 829.5,-820.5 "/>
<text text-anchor="middle" x="764" y="-805.3" font-family="Times,serif" font-size="14.00">value = &#39;&#39; 1 &#39;&#39;</text>
</g>
<!-- node0x503000000220&#45;&gt;node0x5030000001f0 -->
<g id="edge14" class="edge">
<title>node0x503000000220&#45;&gt;node0x5030000001f0</title>
<path fill="none" stroke="black" d="M756.57,-926.38C757.99,-906.38 760.09,-876.68 761.7,-853.98"/>
<polygon fill="black" stroke="black" points="765.2,-854.02 762.42,-843.79 758.22,-853.52 765.2,-854.02"/>
</g>
<!-- node0x5030000002e0 -->
<g id="node16" class="node">
<title>node0x5030000002e0</title>
<path fill="#00ffdd" stroke="black" d="M875.5,-797.5C875.5,-797.5 996.5,-797.5 996.5,-797.5 1002.5,-797.5 1008.5,-803.5 1008.5,-809.5 1008.5,-809.5 1008.5,-831.5 1008.5,-831.5 1008.5,-837.5 1002.5,-843.5 996.5,-843.5 996.5,-843.5 875.5,-843.5 875.5,-843.5 869.5,-843.5 863.5,-837.5 863.5,-831.5 863.5,-831.5 863.5,-809.5 863.5,-809.5 863.5,-803.5 869.5,-797.5 875.5,-797.5"/>
<text text-anchor="middle" x="936" y="-828.3" font-family="Times,serif" font-size="14.00">type = 2 (OP)</text>
<polyline fill="none" stroke="black" points="863.5,-820.5 1008.5,-820.5 "/>
<text text-anchor="middle" x="936" y="-805.3" font-family="Times,serif" font-size="14.00">value = &#39;&#39; = &#39;&#39; (61)</text>
</g>
<!-- node0x503000000310&#45;&gt;node0x5030000002e0 -->
<g id="edge15" class="edge">
<title>node0x503000000310&#45;&gt;node0x5030000002e0</title>
<path fill="none" stroke="black" d="M942.61,-926.38C941.35,-906.38 939.48,-876.68 938.05,-853.98"/>
<polygon fill="black" stroke="black" points="941.53,-853.55 937.4,-843.79 934.54,-853.99 941.53,-853.55"/>
</g>
<!-- node0x5030000005e0 -->
<g id="node17" class="node">
<title>node0x5030000005e0</title>
<path fill="#e0e0e0" stroke="black" d="M1038.5,-797.5C1038.5,-797.5 1211.5,-797.5 1211.5,-797.5 1217.5,-797.5 1223.5,-803.5 1223.5,-809.5 1223.5,-809.5 1223.5,-831.5 1223.5,-831.5 1223.5,-837.5 1217.5,-843.5 1211.5,-843.5 1211.5,-843.5 1038.5,-843.5 1038.5,-843.5 1032.5,-843.5 1026.5,-837.5 1026.5,-831.5 1026.5,-831.5 1026.5,-809.5 1026.5,-809.5 1026.5,-803.5 1032.5,-797.5 1038.5,-797.5"/>
<text text-anchor="middle" x="1125" y="-828.3" font-family="Times,serif" font-size="14.00">type = 2 (OP)</text>
<polyline fill="none" stroke="black" points="1026.5,-820.5 1223.5,-820.5 "/>
<text text-anchor="middle" x="1125" y="-805.3" font-family="Times,serif" font-size="14.00">value = &#39;&#39; SHUTUP &#39;&#39; (59)</text>
</g>
<!-- node0x503000000310&#45;&gt;node0x5030000005e0 -->
<g id="edge16" class="edge">
<title>node0x503000000310&#45;&gt;node0x5030000005e0</title>
<path fill="none" stroke="black" d="M975.53,-926.38C1005.93,-905.05 1052.06,-872.68 1085.03,-849.55"/>
<polygon fill="black" stroke="black" points="1087.35,-852.19 1093.53,-843.58 1083.33,-846.46 1087.35,-852.19"/>
</g>
<!-- node0x503000000280 -->
<g id="node18" class="node">
<title>node0x503000000280</title>
<path fill="#ff5050" stroke="black" d="M629.5,-645.5C629.5,-645.5 842.5,-645.5 842.5,-645.5 848.5,-645.5 854.5,-651.5 854.5,-657.5 854.5,-657.5 854.5,-725.5 854.5,-725.5 854.5,-731.5 848.5,-737.5 842.5,-737.5 842.5,-737.5 629.5,-737.5 629.5,-737.5 623.5,-737.5 617.5,-731.5 617.5,-725.5 617.5,-725.5 617.5,-657.5 617.5,-657.5 617.5,-651.5 623.5,-645.5 629.5,-645.5"/>
<text text-anchor="middle" x="736" y="-722.3" font-family="Times,serif" font-size="14.00">type = 3 (ID)</text>
<polyline fill="none" stroke="black" points="617.5,-714.5 854.5,-714.5 "/>
<text text-anchor="middle" x="736" y="-699.3" font-family="Times,serif" font-size="14.00">name = &#39;&#39; old &#39;&#39;</text>
<polyline fill="none" stroke="black" points="617.5,-691.5 854.5,-691.5 "/>
<text text-anchor="middle" x="736" y="-676.3" font-family="Times,serif" font-size="14.00">number in name table = &#39;&#39; 24 &#39;&#39;</text>
<polyline fill="none" stroke="black" points="617.5,-668.5 854.5,-668.5 "/>
<text text-anchor="middle" x="736" y="-653.3" font-family="Times,serif" font-size="14.00">id_type = LOCL</text>
</g>
<!-- node0x5030000002e0&#45;&gt;node0x503000000280 -->
<g id="edge17" class="edge">
<title>node0x5030000002e0&#45;&gt;node0x503000000280</title>
<path fill="none" stroke="black" d="M901.16,-797.38C877.63,-782.44 845.58,-762.08 815.97,-743.28"/>
<polygon fill="black" stroke="black" points="817.6,-740.17 807.28,-737.76 813.84,-746.08 817.6,-740.17"/>
</g>
<!-- node0x5030000002b0 -->
<g id="node19" class="node">
<title>node0x5030000002b0</title>
<path fill="#ffd700" stroke="black" d="M884.5,-668.5C884.5,-668.5 991.5,-668.5 991.5,-668.5 997.5,-668.5 1003.5,-674.5 1003.5,-680.5 1003.5,-680.5 1003.5,-702.5 1003.5,-702.5 1003.5,-708.5 997.5,-714.5 991.5,-714.5 991.5,-714.5 884.5,-714.5 884.5,-714.5 878.5,-714.5 872.5,-708.5 872.5,-702.5 872.5,-702.5 872.5,-680.5 872.5,-680.5 872.5,-674.5 878.5,-668.5 884.5,-668.5"/>
<text text-anchor="middle" x="938" y="-699.3" font-family="Times,serif" font-size="14.00">type = 1 (NUM)</text>
<polyline fill="none" stroke="black" points="872.5,-691.5 1003.5,-691.5 "/>
<text text-anchor="middle" x="938" y="-676.3" font-family="Times,serif" font-size="14.00">value = &#39;&#39; 1 &#39;&#39;</text>
</g>
<!-- node0x5030000002e0&#45;&gt;node0x5030000002b0 -->
<g id="edge18" class="edge">
<title>node0x5030000002e0&#45;&gt;node0x5030000002b0</title>
<path fill="none" stroke="black" d="M936.35,-797.38C936.66,-777.38 937.13,-747.68 937.49,-724.98"/>
<polygon fill="black" stroke="black" points="940.99,-724.85 937.65,-714.79 933.99,-724.74 940.99,-724.85"/>
</g>
<!-- node0x5030000005b0 -->
<g id="node20" class="node">
<title>node0x5030000005b0</title>
<path fill="#df73df" stroke="black" d="M1036.5,-668.5C1036.5,-668.5 1211.5,-668.5 1211.5,-668.5 1217.5,-668.5 1223.5,-674.5 1223.5,-680.5 1223.5,-680.5 1223.5,-702.5 1223.5,-702.5 1223.5,-708.5 1217.5,-714.5 1211.5,-714.5 1211.5,-714.5 1036.5,-714.5 1036.5,-714.5 1030.5,-714.5 1024.5,-708.5 1024.5,-702.5 1024.5,-702.5 1024.5,-680.5 1024.5,-680.5 1024.5,-674.5 1030.5,-668.5 1036.5,-668.5"/>
<text text-anchor="middle" x="1124" y="-699.3" font-family="Times,serif" font-size="14.00">type = 2 (OP)</text>
<polyline fill="none" stroke="black" points="1024.5,-691.5 1223.5,-691.5 "/>
<text text-anchor="middle" x="1124" y="-676.3" font-family="Times,serif" font-size="14.00">value = &#39;&#39; MONEY &#39;&#39; (119)</text>
</g>
<!-- node0x5030000005e0&#45;&gt;node0x5030000005b0 -->
<g id="edge19" class="edge">
<title>node0x5030000005e0&#45;&gt;node0x5030000005b0</title>
<path fill="none" stroke="black" d="M1124.83,-797.38C1124.67,-777.38 1124.43,-747.68 1124.26,-724.98"/>
<polygon fill="black" stroke="black" points="1127.75,-724.77 1124.18,-714.79 1120.75,-724.82 1127.75,-724.77"/>
</g>
<!-- node0x503000000700 -->
<g id="node21" class="node">
<title>node0x503000000700</title>
<path fill="#e0e0e0" stroke="black" d="M1330.5,-668.5C1330.5,-668.5 1503.5,-668.5 1503.5,-668.5 1509.5,-668.5 1515.5,-674.5 1515.5,-680.5 1515.5,-680.5 1515.5,-702.5 1515.5,-702.5 1515.5,-708.5 1509.5,-714.5 1503.5,-714.5 1503.5,-714.5 1330.5,-714.5 1330.5,-714.5 1324.5,-714.5 1318.5,-708.5 1318.5,-702.5 1318.5,-702.5 1318.5,-680.5 1318.5,-680.5 1318.5,-674.5 1324.5,-668.5 1330.5,-668.5"/>
<text text-anchor="middle" x="1417" y="-699.3" font-family="Times,serif" font-size="14.00">type = 2 (OP)</text>
<polyline fill="none" stroke="black" points="1318.5,-691.5 1515.5,-691.5 "/>
<text text-anchor="middle" x="1417" y="-676.3" font-family="Times,serif" font-size="14.00">value = &#39;&#39; SHUTUP &#39;&#39; (59)</text>
</g>
<!-- node0x5030000005e0&#45;&gt;node0x503000000700 -->
<g id="edge20" class="edge">
<title>node0x5030000005e0&#45;&gt;node0x503000000700</title>
<path fill="none" stroke="black" d="M1175.86,-797.38C1226.27,-775.46 1303.47,-741.88 1356.88,-718.65"/>
<polygon fill="black" stroke="black" points="1358.46,-721.78 1366.23,-714.58 1355.67,-715.36 1358.46,-721.78"/>
</g>
<!-- node0x503000000340 -->
<g id="node22" class="node">
<title>node0x503000000340</title>
<path fill="#ff5050" stroke="black" d="M782.5,-516.5C782.5,-516.5 995.5,-516.5 995.5,-516.5 1001.5,-516.5 1007.5,-522.5 1007.5,-528.5 1007.5,-528.5 1007.5,-596.5 1007.5,-596.5 1007.5,-602.5 1001.5,-608.5 995.5,-608.5 995.5,-608.5 782.5,-608.5 782.5,-608.5 776.5,-608.5 770.5,-602.5 770.5,-596.5 770.5,-596.5 770.5,-528.5 770.5,-528.5 770.5,-522.5 776.5,-516.5 782.5,-516.5"/>
<text text-anchor="middle" x="889" y="-593.3" font-family="Times,serif" font-size="14.00">type = 3 (ID)</text>
<polyline fill="none" stroke="black" points="770.5,-585.5 1007.5,-585.5 "/>
<text text-anchor="middle" x="889" y="-570.3" font-family="Times,serif" font-size="14.00">name = &#39;&#39; numb &#39;&#39;</text>
<polyline fill="none" stroke="black" points="770.5,-562.5 1007.5,-562.5 "/>
<text text-anchor="middle" x="889" y="-547.3" font-family="Times,serif" font-size="14.00">number in name table = &#39;&#39; 22 &#39;&#39;</text>
<polyline fill="none" stroke="black" points="770.5,-539.5 1007.5,-539.5 "/>
<text text-anchor="middle" x="889" y="-524.3" font-family="Times,serif" font-size="14.00">id_type = LOCL</text>
</g>
<!-- node0x5030000005b0&#45;&gt;node0x503000000340 -->
<g id="edge21" class="edge">
<title>node0x5030000005b0&#45;&gt;node0x503000000340</title>
<path fill="none" stroke="black" d="M1083.07,-668.38C1055.06,-653.24 1016.78,-632.56 981.62,-613.55"/>
<polygon fill="black" stroke="black" points="983.21,-610.44 972.75,-608.76 979.89,-616.6 983.21,-610.44"/>
</g>
<!-- node0x503000000460 -->
<g id="node23" class="node">
<title>node0x503000000460</title>
<path fill="#e0e0e0" stroke="black" d="M1037.5,-539.5C1037.5,-539.5 1210.5,-539.5 1210.5,-539.5 1216.5,-539.5 1222.5,-545.5 1222.5,-551.5 1222.5,-551.5 1222.5,-573.5 1222.5,-573.5 1222.5,-579.5 1216.5,-585.5 1210.5,-585.5 1210.5,-585.5 1037.5,-585.5 1037.5,-585.5 1031.5,-585.5 1025.5,-579.5 1025.5,-573.5 1025.5,-573.5 1025.5,-551.5 1025.5,-551.5 1025.5,-545.5 1031.5,-539.5 1037.5,-539.5"/>
<text text-anchor="middle" x="1124" y="-570.3" font-family="Times,serif" font-size="14.00">type = 2 (OP)</text>
<polyline fill="none" stroke="black" points="1025.5,-562.5 1222.5,-562.5 "/>
<text text-anchor="middle" x="1124" y="-547.3" font-family="Times,serif" font-size="14.00">value = &#39;&#39; SHUTUP &#39;&#39; (59)</text>
</g>
<!-- node0x5030000005b0&#45;&gt;node0x503000000460 -->
<g id="edge22" class="edge">
<title>node0x5030000005b0&#45;&gt;node0x503000000460</title>
<path fill="none" stroke="black" d="M1124,-668.38C1124,-648.38 1124,-618.68 1124,-595.98"/>
<polygon fill="black" stroke="black" points="1127.5,-595.79 1124,-585.79 1120.5,-595.79 1127.5,-595.79"/>
</g>
<!-- node0x5030000006d0 -->
<g id="node35" class="node">
<title>node0x5030000006d0</title>
<path fill="#00ffdd" stroke="black" d="M1356.5,-539.5C1356.5,-539.5 1477.5,-539.5 1477.5,-539.5 1483.5,-539.5 1489.5,-545.5 1489.5,-551.5 1489.5,-551.5 1489.5,-573.5 1489.5,-573.5 1489.5,-579.5 1483.5,-585.5 1477.5,-585.5 1477.5,-585.5 1356.5,-585.5 1356.5,-585.5 1350.5,-585.5 1344.5,-579.5 1344.5,-573.5 1344.5,-573.5 1344.5,-551.5 1344.5,-551.5 1344.5,-545.5 1350.5,-539.5 1356.5,-539.5"/>
<text text-anchor="middle" x="1417" y="-570.3" font-family="Times,serif" font-size="14.00">type = 2 (OP)</text>
<polyline fill="none" stroke="black" points="1344.5,-562.5 1489.5,-562.5 "/>
<text text-anchor="middle" x="1417" y="-547.3" font-family="Times,serif" font-size="14.00">value = &#39;&#39; = &#39;&#39; (61)</text>
</g>
<!-- node0x503000000700&#45;&gt;node0x5030000006d0 -->
<g id="edge34" class="edge">
<title>node0x503000000700&#45;&gt;node0x5030000006d0</title>
<path fill="none" stroke="black" d="M1417,-668.38C1417,-648.38 1417,-618.68 1417,-595.98"/>
<polygon fill="black" stroke="black" points="1420.5,-595.79 1417,-585.79 1413.5,-595.79 1420.5,-595.79"/>
</g>
<!-- node0x503000000820 -->
<g id="node36" class="node">
<title>node0x503000000820</title>
<path fill="#e0e0e0" stroke="black" d="M1636.5,-539.5C1636.5,-539.5 1809.5,-539.5 1809.5,-539.5 1815.5,-539.5 1821.5,-545.5 1821.5,-551.5 1821.5,-551.5 1821.5,-573.5 1821.5,-573.5 1821.5,-579.5 1815.5,-585.5 1809.5,-585.5 1809.5,-585.5 1636.5,-585.5 1636.5,-585.5 1630.5,-585.5 1624.5,-579.5 1624.5,-573.5 1624.5,-573.5 1624.5,-551.5 1624.5,-551.5 1624.5,-545.5 1630.5,-539.5 1636.5,-539.5"/>
<text text-anchor="middle" x="1723" y="-570.3" font-family="Times,serif" font-size="14.00">type = 2 (OP)</text>
<polyline fill="none" stroke="black" points="1624.5,-562.5 1821.5,-562.5 "/>
<text text-anchor="middle" x="1723" y="-547.3" font-family="Times,serif" font-size="14.00">value = &#39;&#39; SHUTUP &#39;&#39; (59)</text>
</g>
<!-- node0x503000000700&#45;&gt;node0x503000000820 -->
<g id="edge35" class="edge">
<title>node0x503000000700&#45;&gt;node0x503000000820</title>
<path fill="none" stroke="black" d="M1470.3,-668.38C1523.23,-646.41 1604.36,-612.74 1660.34,-589.5"/>
<polygon fill="black" stroke="black" points="1661.9,-592.65 1669.8,-585.58 1659.22,-586.18 1661.9,-592.65"/>
</g>
<!-- node0x503000000430 -->
<g id="node24" class="node">
<title>node0x503000000430</title>
<path fill="#00ffdd" stroke="black" d="M831.5,-410.5C831.5,-410.5 952.5,-410.5 952.5,-410.5 958.5,-410.5 964.5,-416.5 964.5,-422.5 964.5,-422.5 964.5,-444.5 964.5,-444.5 964.5,-450.5 958.5,-456.5 952.5,-456.5 952.5,-456.5 831.5,-456.5 831.5,-456.5 825.5,-456.5 819.5,-450.5 819.5,-444.5 819.5,-444.5 819.5,-422.5 819.5,-422.5 819.5,-416.5 825.5,-410.5 831.5,-410.5"/>
<text text-anchor="middle" x="892" y="-441.3" font-family="Times,serif" font-size="14.00">type = 2 (OP)</text>
<polyline fill="none" stroke="black" points="819.5,-433.5 964.5,-433.5 "/>
<text text-anchor="middle" x="892" y="-418.3" font-family="Times,serif" font-size="14.00">value = &#39;&#39; = &#39;&#39; (61)</text>
</g>
<!-- node0x503000000460&#45;&gt;node0x503000000430 -->
<g id="edge23" class="edge">
<title>node0x503000000460&#45;&gt;node0x503000000430</title>
<path fill="none" stroke="black" d="M1083.59,-539.38C1044.04,-517.73 983.72,-484.71 941.36,-461.52"/>
<polygon fill="black" stroke="black" points="942.79,-458.31 932.34,-456.58 939.43,-464.45 942.79,-458.31"/>
</g>
<!-- node0x503000000580 -->
<g id="node25" class="node">
<title>node0x503000000580</title>
<path fill="#e0e0e0" stroke="black" d="M1037.5,-410.5C1037.5,-410.5 1210.5,-410.5 1210.5,-410.5 1216.5,-410.5 1222.5,-416.5 1222.5,-422.5 1222.5,-422.5 1222.5,-444.5 1222.5,-444.5 1222.5,-450.5 1216.5,-456.5 1210.5,-456.5 1210.5,-456.5 1037.5,-456.5 1037.5,-456.5 1031.5,-456.5 1025.5,-450.5 1025.5,-444.5 1025.5,-444.5 1025.5,-422.5 1025.5,-422.5 1025.5,-416.5 1031.5,-410.5 1037.5,-410.5"/>
<text text-anchor="middle" x="1124" y="-441.3" font-family="Times,serif" font-size="14.00">type = 2 (OP)</text>
<polyline fill="none" stroke="black" points="1025.5,-433.5 1222.5,-433.5 "/>
<text text-anchor="middle" x="1124" y="-418.3" font-family="Times,serif" font-size="14.00">value = &#39;&#39; SHUTUP &#39;&#39; (59)</text>
</g>
<!-- node0x503000000460&#45;&gt;node0x503000000580 -->
<g id="edge24" class="edge">
<title>node0x503000000460&#45;&gt;node0x503000000580</title>
<path fill="none" stroke="black" d="M1124,-539.38C1124,-519.38 1124,-489.68 1124,-466.98"/>
<polygon fill="black" stroke="black" points="1127.5,-466.79 1124,-456.79 1120.5,-466.79 1127.5,-466.79"/>
</g>
<!-- node0x503000000370 -->
<g id="node26" class="node">
<title>node0x503000000370</title>
<path fill="#ff5050" stroke="black" d="M564.5,-258.5C564.5,-258.5 777.5,-258.5 777.5,-258.5 783.5,-258.5 789.5,-264.5 789.5,-270.5 789.5,-270.5 789.5,-338.5 789.5,-338.5 789.5,-344.5 783.5,-350.5 777.5,-350.5 777.5,-350.5 564.5,-350.5 564.5,-350.5 558.5,-350.5 552.5,-344.5 552.5,-338.5 552.5,-338.5 552.5,-270.5 552.5,-270.5 552.5,-264.5 558.5,-258.5 564.5,-258.5"/>
<text text-anchor="middle" x="671" y="-335.3" font-family="Times,serif" font-size="14.00">type = 3 (ID)</text>
<polyline fill="none" stroke="black" points="552.5,-327.5 789.5,-327.5 "/>
<text text-anchor="middle" x="671" y="-312.3" font-family="Times,serif" font-size="14.00">name = &#39;&#39; result &#39;&#39;</text>
<polyline fill="none" stroke="black" points="552.5,-304.5 789.5,-304.5 "/>
<text text-anchor="middle" x="671" y="-289.3" font-family="Times,serif" font-size="14.00">number in name table = &#39;&#39; 23 &#39;&#39;</text>
<polyline fill="none" stroke="black" points="552.5,-281.5 789.5,-281.5 "/>
<text text-anchor="middle" x="671" y="-266.3" font-family="Times,serif" font-size="14.00">id_type = LOCL</text>
</g>
<!-- node0x503000000430&#45;&gt;node0x503000000370 -->
<g id="edge25" class="edge">
<title>node0x503000000430&#45;&gt;node0x503000000370</title>
<path fill="none" stroke="black" d="M853.5,-410.38C827.28,-395.31 791.47,-374.73 758.52,-355.79"/>
<polygon fill="black" stroke="black" points="760.18,-352.71 749.76,-350.76 756.69,-358.78 760.18,-352.71"/>
</g>
<!-- node0x503000000400 -->
<g id="node27" class="node">
<title>node0x503000000400</title>
<path fill="#00ffdd" stroke="black" d="M820,-281.5C820,-281.5 964,-281.5 964,-281.5 970,-281.5 976,-287.5 976,-293.5 976,-293.5 976,-315.5 976,-315.5 976,-321.5 970,-327.5 964,-327.5 964,-327.5 820,-327.5 820,-327.5 814,-327.5 808,-321.5 808,-315.5 808,-315.5 808,-293.5 808,-293.5 808,-287.5 814,-281.5 820,-281.5"/>
<text text-anchor="middle" x="892" y="-312.3" font-family="Times,serif" font-size="14.00">type = 2 (OP)</text>
<polyline fill="none" stroke="black" points="808,-304.5 976,-304.5 "/>
<text text-anchor="middle" x="892" y="-289.3" font-family="Times,serif" font-size="14.00">value = &#39;&#39; MUL &#39;&#39; (42)</text>
</g>
<!-- node0x503000000430&#45;&gt;node0x503000000400 -->
<g id="edge26" class="edge">
<title>node0x503000000430&#45;&gt;node0x503000000400</title>
<path fill="none" stroke="black" d="M892,-410.38C892,-390.38 892,-360.68 892,-337.98"/>
<polygon fill="black" stroke="black" points="895.5,-337.79 892,-327.79 888.5,-337.79 895.5,-337.79"/>
</g>
<!-- node0x503000000550 -->
<g id="node30" class="node">
<title>node0x503000000550</title>
<path fill="#00ffdd" stroke="black" d="M1086.5,-281.5C1086.5,-281.5 1207.5,-281.5 1207.5,-281.5 1213.5,-281.5 1219.5,-287.5 1219.5,-293.5 1219.5,-293.5 1219.5,-315.5 1219.5,-315.5 1219.5,-321.5 1213.5,-327.5 1207.5,-327.5 1207.5,-327.5 1086.5,-327.5 1086.5,-327.5 1080.5,-327.5 1074.5,-321.5 1074.5,-315.5 1074.5,-315.5 1074.5,-293.5 1074.5,-293.5 1074.5,-287.5 1080.5,-281.5 1086.5,-281.5"/>
<text text-anchor="middle" x="1147" y="-312.3" font-family="Times,serif" font-size="14.00">type = 2 (OP)</text>
<polyline fill="none" stroke="black" points="1074.5,-304.5 1219.5,-304.5 "/>
<text text-anchor="middle" x="1147" y="-289.3" font-family="Times,serif" font-size="14.00">value = &#39;&#39; = &#39;&#39; (61)</text>
</g>
<!-- node0x503000000580&#45;&gt;node0x503000000550 -->
<g id="edge29" class="edge">
<title>node0x503000000580&#45;&gt;node0x503000000550</title>
<path fill="none" stroke="black" d="M1128.01,-410.38C1131.64,-390.29 1137.06,-360.41 1141.17,-337.68"/>
<polygon fill="black" stroke="black" points="1144.62,-338.26 1142.96,-327.79 1137.74,-337.01 1144.62,-338.26"/>
</g>
<!-- node0x5030000003a0 -->
<g id="node28" class="node">
<title>node0x5030000003a0</title>
<path fill="#ff5050" stroke="black" d="M530.5,-129.5C530.5,-129.5 743.5,-129.5 743.5,-129.5 749.5,-129.5 755.5,-135.5 755.5,-141.5 755.5,-141.5 755.5,-209.5 755.5,-209.5 755.5,-215.5 749.5,-221.5 743.5,-221.5 743.5,-221.5 530.5,-221.5 530.5,-221.5 524.5,-221.5 518.5,-215.5 518.5,-209.5 518.5,-209.5 518.5,-141.5 518.5,-141.5 518.5,-135.5 524.5,-129.5 530.5,-129.5"/>
<text text-anchor="middle" x="637" y="-206.3" font-family="Times,serif" font-size="14.00">type = 3 (ID)</text>
<polyline fill="none" stroke="black" points="518.5,-198.5 755.5,-198.5 "/>
<text text-anchor="middle" x="637" y="-183.3" font-family="Times,serif" font-size="14.00">name = &#39;&#39; result &#39;&#39;</text>
<polyline fill="none" stroke="black" points="518.5,-175.5 755.5,-175.5 "/>
<text text-anchor="middle" x="637" y="-160.3" font-family="Times,serif" font-size="14.00">number in name table = &#39;&#39; 23 &#39;&#39;</text>
<polyline fill="none" stroke="black" points="518.5,-152.5 755.5,-152.5 "/>
<text text-anchor="middle" x="637" y="-137.3" font-family="Times,serif" font-size="14.00">id_type = LOCL</text>
</g>
<!-- node0x503000000400&#45;&gt;node0x5030000003a0 -->
<g id="edge27" class="edge">
<title>node0x503000000400&#45;&gt;node0x5030000003a0</title>
<path fill="none" stroke="black" d="M847.58,-281.38C817,-266.15 775.12,-245.29 736.77,-226.19"/>
<polygon fill="black" stroke="black" points="738.13,-222.96 727.62,-221.63 735.01,-229.22 738.13,-222.96"/>
</g>
<!-- node0x5030000003d0 -->
<g id="node29" class="node">
<title>node0x5030000003d0</title>
<path fill="#ff5050" stroke="black" d="M785.5,-129.5C785.5,-129.5 998.5,-129.5 998.5,-129.5 1004.5,-129.5 1010.5,-135.5 1010.5,-141.5 1010.5,-141.5 1010.5,-209.5 1010.5,-209.5 1010.5,-215.5 1004.5,-221.5 998.5,-221.5 998.5,-221.5 785.5,-221.5 785.5,-221.5 779.5,-221.5 773.5,-215.5 773.5,-209.5 773.5,-209.5 773.5,-141.5 773.5,-141.5 773.5,-135.5 779.5,-129.5 785.5,-129.5"/>
<text text-anchor="middle" x="892" y="-206.3" font-family="Times,serif" font-size="14.00">type = 3 (ID)</text>
<polyline fill="none" stroke="black" points="773.5,-198.5 1010.5,-198.5 "/>
<text text-anchor="middle" x="892" y="-183.3" font-family="Times,serif" font-size="14.00">name = &#39;&#39; numb &#39;&#39;</text>
<polyline fill="none" stroke="black" points="773.5,-175.5 1010.5,-175.5 "/>
<text text-anchor="middle" x="892" y="-160.3" font-family="Times,serif" font-size="14.00">number in name table = &#39;&#39; 22 &#39;&#39;</text>
<polyline fill="none" stroke="black" points="773.5,-152.5 1010.5,-152.5 "/>
<text text-anchor="middle" x="892" y="-137.3" font-family="Times,serif" font-size="14.00">id_type = LOCL</text>
</g>
<!-- node0x503000000400&#45;&gt;node0x5030000003d0 -->
<g id="edge28" class="edge">
<title>node0x503000000400&#45;&gt;node0x5030000003d0</title>
<path fill="none" stroke="black" d="M892,-281.38C892,-267.66 892,-249.37 892,-231.91"/>
<polygon fill="black" stroke="black" points="895.5,-231.76 892,-221.76 888.5,-231.76 895.5,-231.76"/>
</g>
<!-- node0x503000000490 -->
<g id="node31" class="node">
<title>node0x503000000490</title>
<path fill="#ff5050" stroke="black" d="M1040.5,-129.5C1040.5,-129.5 1253.5,-129.5 1253.5,-129.5 1259.5,-129.5 1265.5,-135.5 1265.5,-141.5 1265.5,-141.5 1265.5,-209.5 1265.5,-209.5 1265.5,-215.5 1259.5,-221.5 1253.5,-221.5 1253.5,-221.5 1040.5,-221.5 1040.5,-221.5 1034.5,-221.5 1028.5,-215.5 1028.5,-209.5 1028.5,-209.5 1028.5,-141.5 1028.5,-141.5 1028.5,-135.5 1034.5,-129.5 1040.5,-129.5"/>
<text text-anchor="middle" x="1147" y="-206.3" font-family="Times,serif" font-size="14.00">type = 3 (ID)</text>
<polyline fill="none" stroke="black" points="1028.5,-198.5 1265.5,-198.5 "/>
<text text-anchor="middle" x="1147" y="-183.3" font-family="Times,serif" font-size="14.00">name = &#39;&#39; numb &#39;&#39;</text>
<polyline fill="none" stroke="black" points="1028.5,-175.5 1265.5,-175.5 "/>
<text text-anchor="middle" x="1147" y="-160.3" font-family="Times,serif" font-size="14.00">number in name table = &#39;&#39; 22 &#39;&#39;</text>
<polyline fill="none" stroke="black" points="1028.5,-152.5 1265.5,-152.5 "/>
<text text-anchor="middle" x="1147" y="-137.3" font-family="Times,serif" font-size="14.00">id_type = LOCL</text>
</g>
<!-- node0x503000000550&#45;&gt;node0x503000000490 -->
<g id="edge30" class="edge">
<title>node0x503000000550&#45;&gt;node0x503000000490</title>
<path fill="none" stroke="black" d="M1147,-281.38C1147,-267.66 1147,-249.37 1147,-231.91"/>
<polygon fill="black" stroke="black" points="1150.5,-231.76 1147,-221.76 1143.5,-231.76 1150.5,-231.76"/>
</g>
<!-- node0x503000000520 -->
<g id="node32" class="node">
<title>node0x503000000520</title>
<path fill="#00ffdd" stroke="black" d="M1295.5,-152.5C1295.5,-152.5 1436.5,-152.5 1436.5,-152.5 1442.5,-152.5 1448.5,-158.5 1448.5,-164.5 1448.5,-164.5 1448.5,-186.5 1448.5,-186.5 1448.5,-192.5 1442.5,-198.5 1436.5,-198.5 1436.5,-198.5 1295.5,-198.5 1295.5,-198.5 1289.5,-198.5 1283.5,-192.5 1283.5,-186.5 1283.5,-186.5 1283.5,-164.5 1283.5,-164.5 1283.5,-158.5 1289.5,-152.5 1295.5,-152.5"/>
<text text-anchor="middle" x="1366" y="-183.3" font-family="Times,serif" font-size="14.00">type = 2 (OP)</text>
<polyline fill="none" stroke="black" points="1283.5,-175.5 1448.5,-175.5 "/>
<text text-anchor="middle" x="1366" y="-160.3" font-family="Times,serif" font-size="14.00">value = &#39;&#39; SUB &#39;&#39; (45)</text>
</g>
<!-- node0x503000000550&#45;&gt;node0x503000000520 -->
<g id="edge31" class="edge">
<title>node0x503000000550&#45;&gt;node0x503000000520</title>
<path fill="none" stroke="black" d="M1185.15,-281.38C1222.4,-259.77 1279.18,-226.85 1319.16,-203.66"/>
<polygon fill="black" stroke="black" points="1321.03,-206.63 1327.92,-198.58 1317.52,-200.57 1321.03,-206.63"/>
</g>
<!-- node0x5030000004c0 -->
<g id="node33" class="node">
<title>node0x5030000004c0</title>
<path fill="#ff5050" stroke="black" d="M1158.5,-0.5C1158.5,-0.5 1371.5,-0.5 1371.5,-0.5 1377.5,-0.5 1383.5,-6.5 1383.5,-12.5 1383.5,-12.5 1383.5,-80.5 1383.5,-80.5 1383.5,-86.5 1377.5,-92.5 1371.5,-92.5 1371.5,-92.5 1158.5,-92.5 1158.5,-92.5 1152.5,-92.5 1146.5,-86.5 1146.5,-80.5 1146.5,-80.5 1146.5,-12.5 1146.5,-12.5 1146.5,-6.5 1152.5,-0.5 1158.5,-0.5"/>
<text text-anchor="middle" x="1265" y="-77.3" font-family="Times,serif" font-size="14.00">type = 3 (ID)</text>
<polyline fill="none" stroke="black" points="1146.5,-69.5 1383.5,-69.5 "/>
<text text-anchor="middle" x="1265" y="-54.3" font-family="Times,serif" font-size="14.00">name = &#39;&#39; numb &#39;&#39;</text>
<polyline fill="none" stroke="black" points="1146.5,-46.5 1383.5,-46.5 "/>
<text text-anchor="middle" x="1265" y="-31.3" font-family="Times,serif" font-size="14.00">number in name table = &#39;&#39; 22 &#39;&#39;</text>
<polyline fill="none" stroke="black" points="1146.5,-23.5 1383.5,-23.5 "/>
<text text-anchor="middle" x="1265" y="-8.3" font-family="Times,serif" font-size="14.00">id_type = LOCL</text>
</g>
<!-- node0x503000000520&#45;&gt;node0x5030000004c0 -->
<g id="edge32" class="edge">
<title>node0x503000000520&#45;&gt;node0x5030000004c0</title>
<path fill="none" stroke="black" d="M1348.41,-152.38C1337.09,-138.14 1321.86,-118.99 1307.51,-100.95"/>
<polygon fill="black" stroke="black" points="1309.96,-98.41 1301,-92.76 1304.48,-102.77 1309.96,-98.41"/>
</g>
<!-- node0x5030000004f0 -->
<g id="node34" class="node">
<title>node0x5030000004f0</title>
<path fill="#ffd700" stroke="black" d="M1413.5,-23.5C1413.5,-23.5 1520.5,-23.5 1520.5,-23.5 1526.5,-23.5 1532.5,-29.5 1532.5,-35.5 1532.5,-35.5 1532.5,-57.5 1532.5,-57.5 1532.5,-63.5 1526.5,-69.5 1520.5,-69.5 1520.5,-69.5 1413.5,-69.5 1413.5,-69.5 1407.5,-69.5 1401.5,-63.5 1401.5,-57.5 1401.5,-57.5 1401.5,-35.5 1401.5,-35.5 1401.5,-29.5 1407.5,-23.5 1413.5,-23.5"/>
<text text-anchor="middle" x="1467" y="-54.3" font-family="Times,serif" font-size="14.00">type = 1 (NUM)</text>
<polyline fill="none" stroke="black" points="1401.5,-46.5 1532.5,-46.5 "/>
<text text-anchor="middle" x="1467" y="-31.3" font-family="Times,serif" font-size="14.00">value = &#39;&#39; 1 &#39;&#39;</text>
</g>
<!-- node0x503000000520&#45;&gt;node0x5030000004f0 -->
<g id="edge33" class="edge">
<title>node0x503000000520&#45;&gt;node0x5030000004f0</title>
<path fill="none" stroke="black" d="M1383.59,-152.38C1400,-131.74 1424.62,-100.79 1442.86,-77.85"/>
<polygon fill="black" stroke="black" points="1445.78,-79.8 1449.27,-69.79 1440.31,-75.44 1445.78,-79.8"/>
</g>
<!-- node0x503000000610 -->
<g id="node37" class="node">
<title>node0x503000000610</title>
<path fill="#ff5050" stroke="black" d="M1252.5,-387.5C1252.5,-387.5 1465.5,-387.5 1465.5,-387.5 1471.5,-387.5 1477.5,-393.5 1477.5,-399.5 1477.5,-399.5 1477.5,-467.5 1477.5,-467.5 1477.5,-473.5 1471.5,-479.5 1465.5,-479.5 1465.5,-479.5 1252.5,-479.5 1252.5,-479.5 1246.5,-479.5 1240.5,-473.5 1240.5,-467.5 1240.5,-467.5 1240.5,-399.5 1240.5,-399.5 1240.5,-393.5 1246.5,-387.5 1252.5,-387.5"/>
<text text-anchor="middle" x="1359" y="-464.3" font-family="Times,serif" font-size="14.00">type = 3 (ID)</text>
<polyline fill="none" stroke="black" points="1240.5,-456.5 1477.5,-456.5 "/>
<text text-anchor="middle" x="1359" y="-441.3" font-family="Times,serif" font-size="14.00">name = &#39;&#39; result &#39;&#39;</text>
<polyline fill="none" stroke="black" points="1240.5,-433.5 1477.5,-433.5 "/>
<text text-anchor="middle" x="1359" y="-418.3" font-family="Times,serif" font-size="14.00">number in name table = &#39;&#39; 23 &#39;&#39;</text>
<polyline fill="none" stroke="black" points="1240.5,-410.5 1477.5,-410.5 "/>
<text text-anchor="middle" x="1359" y="-395.3" font-family="Times,serif" font-size="14.00">id_type = LOCL</text>
</g>
<!-- node0x5030000006d0&#45;&gt;node0x503000000610 -->
<g id="edge36" class="edge">
<title>node0x5030000006d0&#45;&gt;node0x503000000610</title>
<path fill="none" stroke="black" d="M1406.9,-539.38C1400.51,-525.4 1391.96,-506.68 1383.86,-488.93"/>
<polygon fill="black" stroke="black" points="1387.01,-487.4 1379.67,-479.76 1380.64,-490.31 1387.01,-487.4"/>
</g>
<!-- node0x5030000006a0 -->
<g id="node38" class="node">
<title>node0x5030000006a0</title>
<path fill="#00ffdd" stroke="black" d="M1508,-410.5C1508,-410.5 1652,-410.5 1652,-410.5 1658,-410.5 1664,-416.5 1664,-422.5 1664,-422.5 1664,-444.5 1664,-444.5 1664,-450.5 1658,-456.5 1652,-456.5 1652,-456.5 1508,-456.5 1508,-456.5 1502,-456.5 1496,-450.5 1496,-444.5 1496,-444.5 1496,-422.5 1496,-422.5 1496,-416.5 1502,-410.5 1508,-410.5"/>
<text text-anchor="middle" x="1580" y="-441.3" font-family="Times,serif" font-size="14.00">type = 2 (OP)</text>
<polyline fill="none" stroke="black" points="1496,-433.5 1664,-433.5 "/>
<text text-anchor="middle" x="1580" y="-418.3" font-family="Times,serif" font-size="14.00">value = &#39;&#39; MUL &#39;&#39; (42)</text>
</g>
<!-- node0x5030000006d0&#45;&gt;node0x5030000006a0 -->
<g id="edge37" class="edge">
<title>node0x5030000006d0&#45;&gt;node0x5030000006a0</title>
<path fill="none" stroke="black" d="M1445.39,-539.38C1472.66,-518.14 1513.96,-485.95 1543.62,-462.84"/>
<polygon fill="black" stroke="black" points="1545.92,-465.49 1551.66,-456.58 1541.62,-459.97 1545.92,-465.49"/>
</g>
<!-- node0x5030000007f0 -->
<g id="node41" class="node">
<title>node0x5030000007f0</title>
<path fill="#00ffdd" stroke="black" d="M1721.5,-410.5C1721.5,-410.5 1842.5,-410.5 1842.5,-410.5 1848.5,-410.5 1854.5,-416.5 1854.5,-422.5 1854.5,-422.5 1854.5,-444.5 1854.5,-444.5 1854.5,-450.5 1848.5,-456.5 1842.5,-456.5 1842.5,-456.5 1721.5,-456.5 1721.5,-456.5 1715.5,-456.5 1709.5,-450.5 1709.5,-444.5 1709.5,-444.5 1709.5,-422.5 1709.5,-422.5 1709.5,-416.5 1715.5,-410.5 1721.5,-410.5"/>
<text text-anchor="middle" x="1782" y="-441.3" font-family="Times,serif" font-size="14.00">type = 2 (OP)</text>
<polyline fill="none" stroke="black" points="1709.5,-433.5 1854.5,-433.5 "/>
<text text-anchor="middle" x="1782" y="-418.3" font-family="Times,serif" font-size="14.00">value = &#39;&#39; = &#39;&#39; (61)</text>
</g>
<!-- node0x503000000820&#45;&gt;node0x5030000007f0 -->
<g id="edge40" class="edge">
<title>node0x503000000820&#45;&gt;node0x5030000007f0</title>
<path fill="none" stroke="black" d="M1733.28,-539.38C1742.69,-519.11 1756.74,-488.87 1767.34,-466.06"/>
<polygon fill="black" stroke="black" points="1770.6,-467.34 1771.64,-456.79 1764.26,-464.39 1770.6,-467.34"/>
</g>
<!-- node0x503000000640 -->
<g id="node39" class="node">
<title>node0x503000000640</title>
<path fill="#ff5050" stroke="black" d="M1271.5,-258.5C1271.5,-258.5 1484.5,-258.5 1484.5,-258.5 1490.5,-258.5 1496.5,-264.5 1496.5,-270.5 1496.5,-270.5 1496.5,-338.5 1496.5,-338.5 1496.5,-344.5 1490.5,-350.5 1484.5,-350.5 1484.5,-350.5 1271.5,-350.5 1271.5,-350.5 1265.5,-350.5 1259.5,-344.5 1259.5,-338.5 1259.5,-338.5 1259.5,-270.5 1259.5,-270.5 1259.5,-264.5 1265.5,-258.5 1271.5,-258.5"/>
<text text-anchor="middle" x="1378" y="-335.3" font-family="Times,serif" font-size="14.00">type = 3 (ID)</text>
<polyline fill="none" stroke="black" points="1259.5,-327.5 1496.5,-327.5 "/>
<text text-anchor="middle" x="1378" y="-312.3" font-family="Times,serif" font-size="14.00">name = &#39;&#39; result &#39;&#39;</text>
<polyline fill="none" stroke="black" points="1259.5,-304.5 1496.5,-304.5 "/>
<text text-anchor="middle" x="1378" y="-289.3" font-family="Times,serif" font-size="14.00">number in name table = &#39;&#39; 23 &#39;&#39;</text>
<polyline fill="none" stroke="black" points="1259.5,-281.5 1496.5,-281.5 "/>
<text text-anchor="middle" x="1378" y="-266.3" font-family="Times,serif" font-size="14.00">id_type = LOCL</text>
</g>
<!-- node0x5030000006a0&#45;&gt;node0x503000000640 -->
<g id="edge38" class="edge">
<title>node0x5030000006a0&#45;&gt;node0x503000000640</title>
<path fill="none" stroke="black" d="M1544.81,-410.38C1521.05,-395.44 1488.67,-375.08 1458.77,-356.28"/>
<polygon fill="black" stroke="black" points="1460.32,-353.12 1449.99,-350.76 1456.59,-359.05 1460.32,-353.12"/>
</g>
<!-- node0x503000000670 -->
<g id="node40" class="node">
<title>node0x503000000670</title>
<path fill="#ffd700" stroke="black" d="M1526.5,-281.5C1526.5,-281.5 1633.5,-281.5 1633.5,-281.5 1639.5,-281.5 1645.5,-287.5 1645.5,-293.5 1645.5,-293.5 1645.5,-315.5 1645.5,-315.5 1645.5,-321.5 1639.5,-327.5 1633.5,-327.5 1633.5,-327.5 1526.5,-327.5 1526.5,-327.5 1520.5,-327.5 1514.5,-321.5 1514.5,-315.5 1514.5,-315.5 1514.5,-293.5 1514.5,-293.5 1514.5,-287.5 1520.5,-281.5 1526.5,-281.5"/>
<text text-anchor="middle" x="1580" y="-312.3" font-family="Times,serif" font-size="14.00">type = 1 (NUM)</text>
<polyline fill="none" stroke="black" points="1514.5,-304.5 1645.5,-304.5 "/>
<text text-anchor="middle" x="1580" y="-289.3" font-family="Times,serif" font-size="14.00">value = &#39;&#39; 1 &#39;&#39;</text>
</g>
<!-- node0x5030000006a0&#45;&gt;node0x503000000670 -->
<g id="edge39" class="edge">
<title>node0x5030000006a0&#45;&gt;node0x503000000670</title>
<path fill="none" stroke="black" d="M1580,-410.38C1580,-390.38 1580,-360.68 1580,-337.98"/>
<polygon fill="black" stroke="black" points="1583.5,-337.79 1580,-327.79 1576.5,-337.79 1583.5,-337.79"/>
</g>
<!-- node0x503000000730 -->
<g id="node42" class="node">
<title>node0x503000000730</title>
<path fill="#ff5050" stroke="black" d="M1675.5,-258.5C1675.5,-258.5 1888.5,-258.5 1888.5,-258.5 1894.5,-258.5 1900.5,-264.5 1900.5,-270.5 1900.5,-270.5 1900.5,-338.5 1900.5,-338.5 1900.5,-344.5 1894.5,-350.5 1888.5,-350.5 1888.5,-350.5 1675.5,-350.5 1675.5,-350.5 1669.5,-350.5 1663.5,-344.5 1663.5,-338.5 1663.5,-338.5 1663.5,-270.5 1663.5,-270.5 1663.5,-264.5 1669.5,-258.5 1675.5,-258.5"/>
<text text-anchor="middle" x="1782" y="-335.3" font-family="Times,serif" font-size="14.00">type = 3 (ID)</text>
<polyline fill="none" stroke="black" points="1663.5,-327.5 1900.5,-327.5 "/>
<text text-anchor="middle" x="1782" y="-312.3" font-family="Times,serif" font-size="14.00">name = &#39;&#39; old &#39;&#39;</text>
<polyline fill="none" stroke="black" points="1663.5,-304.5 1900.5,-304.5 "/>
<text text-anchor="middle" x="1782" y="-289.3" font-family="Times,serif" font-size="14.00">number in name table = &#39;&#39; 24 &#39;&#39;</text>
<polyline fill="none" stroke="black" points="1663.5,-281.5 1900.5,-281.5 "/>
<text text-anchor="middle" x="1782" y="-266.3" font-family="Times,serif" font-size="14.00">id_type = LOCL</text>
</g>
<!-- node0x5030000007f0&#45;&gt;node0x503000000730 -->
<g id="edge41" class="edge">
<title>node0x5030000007f0&#45;&gt;node0x503000000730</title>
<path fill="none" stroke="black" d="M1782,-410.38C1782,-396.66 1782,-378.37 1782,-360.91"/>
<polygon fill="black" stroke="black" points="1785.5,-360.76 1782,-350.76 1778.5,-360.76 1785.5,-360.76"/>
</g>
<!-- node0x5030000007c0 -->
<g id="node43" class="node">
<title>node0x5030000007c0</title>
<path fill="#00ffdd" stroke="black" d="M1931,-281.5C1931,-281.5 2075,-281.5 2075,-281.5 2081,-281.5 2087,-287.5 2087,-293.5 2087,-293.5 2087,-315.5 2087,-315.5 2087,-321.5 2081,-327.5 2075,-327.5 2075,-327.5 1931,-327.5 1931,-327.5 1925,-327.5 1919,-321.5 1919,-315.5 1919,-315.5 1919,-293.5 1919,-293.5 1919,-287.5 1925,-281.5 1931,-281.5"/>
<text text-anchor="middle" x="2003" y="-312.3" font-family="Times,serif" font-size="14.00">type = 2 (OP)</text>
<polyline fill="none" stroke="black" points="1919,-304.5 2087,-304.5 "/>
<text text-anchor="middle" x="2003" y="-289.3" font-family="Times,serif" font-size="14.00">value = &#39;&#39; MUL &#39;&#39; (42)</text>
</g>
<!-- node0x5030000007f0&#45;&gt;node0x5030000007c0 -->
<g id="edge42" class="edge">
<title>node0x5030000007f0&#45;&gt;node0x5030000007c0</title>
<path fill="none" stroke="black" d="M1820.5,-410.38C1858.09,-388.77 1915.38,-355.85 1955.73,-332.66"/>
<polygon fill="black" stroke="black" points="1957.65,-335.6 1964.58,-327.58 1954.16,-329.53 1957.65,-335.6"/>
</g>
<!-- node0x503000000760 -->
<g id="node44" class="node">
<title>node0x503000000760</title>
<path fill="#ffd700" stroke="black" d="M1874.5,-152.5C1874.5,-152.5 1981.5,-152.5 1981.5,-152.5 1987.5,-152.5 1993.5,-158.5 1993.5,-164.5 1993.5,-164.5 1993.5,-186.5 1993.5,-186.5 1993.5,-192.5 1987.5,-198.5 1981.5,-198.5 1981.5,-198.5 1874.5,-198.5 1874.5,-198.5 1868.5,-198.5 1862.5,-192.5 1862.5,-186.5 1862.5,-186.5 1862.5,-164.5 1862.5,-164.5 1862.5,-158.5 1868.5,-152.5 1874.5,-152.5"/>
<text text-anchor="middle" x="1928" y="-183.3" font-family="Times,serif" font-size="14.00">type = 1 (NUM)</text>
<polyline fill="none" stroke="black" points="1862.5,-175.5 1993.5,-175.5 "/>
<text text-anchor="middle" x="1928" y="-160.3" font-family="Times,serif" font-size="14.00">value = &#39;&#39; 3 &#39;&#39;</text>
</g>
<!-- node0x5030000007c0&#45;&gt;node0x503000000760 -->
<g id="edge43" class="edge">
<title>node0x5030000007c0&#45;&gt;node0x503000000760</title>
<path fill="none" stroke="black" d="M1989.94,-281.38C1977.86,-260.93 1959.79,-230.33 1946.28,-207.45"/>
<polygon fill="black" stroke="black" points="1949.26,-205.63 1941.17,-198.79 1943.24,-209.18 1949.26,-205.63"/>
</g>
<!-- node0x503000000790 -->
<g id="node45" class="node">
<title>node0x503000000790</title>
<path fill="#ffd700" stroke="black" d="M2023.5,-152.5C2023.5,-152.5 2130.5,-152.5 2130.5,-152.5 2136.5,-152.5 2142.5,-158.5 2142.5,-164.5 2142.5,-164.5 2142.5,-186.5 2142.5,-186.5 2142.5,-192.5 2136.5,-198.5 2130.5,-198.5 2130.5,-198.5 2023.5,-198.5 2023.5,-198.5 2017.5,-198.5 2011.5,-192.5 2011.5,-186.5 2011.5,-186.5 2011.5,-164.5 2011.5,-164.5 2011.5,-158.5 2017.5,-152.5 2023.5,-152.5"/>
<text text-anchor="middle" x="2077" y="-183.3" font-family="Times,serif" font-size="14.00">type = 1 (NUM)</text>
<polyline fill="none" stroke="black" points="2011.5,-175.5 2142.5,-175.5 "/>
<text text-anchor="middle" x="2077" y="-160.3" font-family="Times,serif" font-size="14.00">value = &#39;&#39; 5 &#39;&#39;</text>
</g>
<!-- node0x5030000007c0&#45;&gt;node0x503000000790 -->
<g id="edge44" class="edge">
<title>node0x5030000007c0&#45;&gt;node0x503000000790</title>
<path fill="none" stroke="black" d="M2015.89,-281.38C2027.81,-260.93 2045.64,-230.33 2058.96,-207.45"/>
<polygon fill="black" stroke="black" points="2062,-209.2 2064.01,-198.79 2055.95,-205.67 2062,-209.2"/>
</g>
</g>
</svg>
