<?xml version="1.0" encoding="UTF-8" standalone="no"?>
<!DOCTYPE svg PUBLIC "-//W3C//DTD SVG 1.1//EN"
 "http://www.w3.org/Graphics/SVG/1.1/DTD/svg11.dtd">
<!-- Generated by graphviz version 13.1.0 (0)
 -->
<!-- Pages: 1 -->
<svg width="500pt" height="198pt"
 viewBox="0.00 0.00 500.00 198.00" xmlns="http://www.w3.org/2000/svg" xmlns:xlink="http://www.w3.org/1999/xlink">
<g id="graph0" class="graph" transform="scale(1 1) rotate(0) translate(4 193.5)">
<!-- node0x7bfdfe5e04f0 -->
<g id="node1" class="node">
<title>node0x7bfdfe5e04f0</title>
<path fill="#00ffdd" stroke="black" d="M173.5,-138.5C173.5,-138.5 317,-138.5 317,-138.5 323,-138.5 329,-144.5 329,-150.5 329,-150.5 329,-177 329,-177 329,-183 323,-189 317,-189 317,-189 173.5,-189 173.5,-189 167.5,-189 161.5,-183 161.5,-177 161.5,-177 161.5,-150.5 161.5,-150.5 161.5,-144.5 167.5,-138.5 173.5,-138.5"/>
<text xml:space="preserve" text-anchor="middle" x="245.25" y="-171.7" font-family="Times,serif" font-size="14.00">type = 2 (OP)</text>
<polyline fill="none" stroke="black" points="161.5,-163.75 329,-163.75"/>
<text xml:space="preserve" text-anchor="middle" x="245.25" y="-146.45" font-family="Times,serif" font-size="14.00">value = &#39;&#39; MUL &#39;&#39; (42)</text>
</g>
<!-- node0x7bfdfe5e0490 -->
<g id="node2" class="node">
<title>node0x7bfdfe5e0490</title>
<path fill="#ff5050" stroke="black" d="M12,-0.5C12,-0.5 224.5,-0.5 224.5,-0.5 230.5,-0.5 236.5,-6.5 236.5,-12.5 236.5,-12.5 236.5,-89.5 236.5,-89.5 236.5,-95.5 230.5,-101.5 224.5,-101.5 224.5,-101.5 12,-101.5 12,-101.5 6,-101.5 0,-95.5 0,-89.5 0,-89.5 0,-12.5 0,-12.5 0,-6.5 6,-0.5 12,-0.5"/>
<text xml:space="preserve" text-anchor="middle" x="118.25" y="-84.2" font-family="Times,serif" font-size="14.00">type = 3 (ID)</text>
<polyline fill="none" stroke="black" points="0,-76.25 236.5,-76.25"/>
<text xml:space="preserve" text-anchor="middle" x="118.25" y="-58.95" font-family="Times,serif" font-size="14.00">name = &#39;&#39; result &#39;&#39;</text>
<polyline fill="none" stroke="black" points="0,-51 236.5,-51"/>
<text xml:space="preserve" text-anchor="middle" x="118.25" y="-33.7" font-family="Times,serif" font-size="14.00">number in name table = &#39;&#39; 23 &#39;&#39;</text>
<polyline fill="none" stroke="black" points="0,-25.75 236.5,-25.75"/>
<text xml:space="preserve" text-anchor="middle" x="118.25" y="-8.45" font-family="Times,serif" font-size="14.00">id_type = LOCL</text>
</g>
<!-- node0x7bfdfe5e04f0&#45;&gt;node0x7bfdfe5e0490 -->
<g id="edge1" class="edge">
<title>node0x7bfdfe5e04f0&#45;&gt;node0x7bfdfe5e0490</title>
<path fill="none" stroke="black" d="M217.06,-138.17C207.19,-129.56 195.63,-119.48 183.98,-109.32"/>
<polygon fill="black" stroke="black" points="186.48,-106.86 176.64,-102.92 181.88,-112.13 186.48,-106.86"/>
</g>
<!-- node0x7bfdfe5e04c0 -->
<g id="node3" class="node">
<title>node0x7bfdfe5e04c0</title>
<path fill="#ff5050" stroke="black" d="M267,-0.5C267,-0.5 479.5,-0.5 479.5,-0.5 485.5,-0.5 491.5,-6.5 491.5,-12.5 491.5,-12.5 491.5,-89.5 491.5,-89.5 491.5,-95.5 485.5,-101.5 479.5,-101.5 479.5,-101.5 267,-101.5 267,-101.5 261,-101.5 255,-95.5 255,-89.5 255,-89.5 255,-12.5 255,-12.5 255,-6.5 261,-0.5 267,-0.5"/>
<text xml:space="preserve" text-anchor="middle" x="373.25" y="-84.2" font-family="Times,serif" font-size="14.00">type = 3 (ID)</text>
<polyline fill="none" stroke="black" points="255,-76.25 491.5,-76.25"/>
<text xml:space="preserve" text-anchor="middle" x="373.25" y="-58.95" font-family="Times,serif" font-size="14.00">name = &#39;&#39; numb &#39;&#39;</text>
<polyline fill="none" stroke="black" points="255,-51 491.5,-51"/>
<text xml:space="preserve" text-anchor="middle" x="373.25" y="-33.7" font-family="Times,serif" font-size="14.00">number in name table = &#39;&#39; 22 &#39;&#39;</text>
<polyline fill="none" stroke="black" points="255,-25.75 491.5,-25.75"/>
<text xml:space="preserve" text-anchor="middle" x="373.25" y="-8.45" font-family="Times,serif" font-size="14.00">id_type = LOCL</text>
</g>
<!-- node0x7bfdfe5e04f0&#45;&gt;node0x7bfdfe5e04c0 -->
<g id="edge2" class="edge">
<title>node0x7bfdfe5e04f0&#45;&gt;node0x7bfdfe5e04c0</title>
<path fill="none" stroke="black" d="M273.66,-138.17C283.61,-129.56 295.26,-119.48 307,-109.32"/>
<polygon fill="black" stroke="black" points="309.13,-112.11 314.4,-102.92 304.55,-106.81 309.13,-112.11"/>
</g>
</g>
</svg>
