<?xml version="1.0" encoding="UTF-8" standalone="no"?>
<!DOCTYPE svg PUBLIC "-//W3C//DTD SVG 1.1//EN"
 "http://www.w3.org/Graphics/SVG/1.1/DTD/svg11.dtd">
<!-- Generated by graphviz version 13.1.0 (0)
 -->
<!-- Pages: 1 -->
<svg width="245pt" height="110pt"
 viewBox="0.00 0.00 245.00 110.00" xmlns="http://www.w3.org/2000/svg" xmlns:xlink="http://www.w3.org/1999/xlink">
<g id="graph0" class="graph" transform="scale(1 1) rotate(0) translate(4 106)">
<!-- node0x7bfdfe5e0370 -->
<g id="node1" class="node">
<title>node0x7bfdfe5e0370</title>
<path fill="#ff5050" stroke="black" d="M12,-0.5C12,-0.5 224.5,-0.5 224.5,-0.5 230.5,-0.5 236.5,-6.5 236.5,-12.5 236.5,-12.5 236.5,-89.5 236.5,-89.5 236.5,-95.5 230.5,-101.5 224.5,-101.5 224.5,-101.5 12,-101.5 12,-101.5 6,-101.5 0,-95.5 0,-89.5 0,-89.5 0,-12.5 0,-12.5 0,-6.5 6,-0.5 12,-0.5"/>
<text xml:space="preserve" text-anchor="middle" x="118.25" y="-84.2" font-family="Times,serif" font-size="14.00">type = 3 (ID)</text>
<polyline fill="none" stroke="black" points="0,-76.25 236.5,-76.25"/>
<text xml:space="preserve" text-anchor="middle" x="118.25" y="-58.95" font-family="Times,serif" font-size="14.00">name = &#39;&#39; numb &#39;&#39;</text>
<polyline fill="none" stroke="black" points="0,-51 236.5,-51"/>
<text xml:space="preserve" text-anchor="middle" x="118.25" y="-33.7" font-family="Times,serif" font-size="14.00">number in name table = &#39;&#39; 22 &#39;&#39;</text>
<polyline fill="none" stroke="black" points="0,-25.75 236.5,-25.75"/>
<text xml:space="preserve" text-anchor="middle" x="118.25" y="-8.45" font-family="Times,serif" font-size="14.00">id_type = LOCL</text>
</g>
</g>
</svg>
