<?xml version="1.0" encoding="UTF-8" standalone="no"?>
<!DOCTYPE svg PUBLIC "-//W3C//DTD SVG 1.1//EN"
 "http://www.w3.org/Graphics/SVG/1.1/DTD/svg11.dtd">
<!-- Generated by graphviz version 13.1.0 (0)
 -->
<!-- Pages: 1 -->
<svg width="139pt" height="60pt"
 viewBox="0.00 0.00 139.00 60.00" xmlns="http://www.w3.org/2000/svg" xmlns:xlink="http://www.w3.org/1999/xlink">
<g id="graph0" class="graph" transform="scale(1 1) rotate(0) translate(4 55.5)">
<!-- node0x7bfdfe5e02b0 -->
<g id="node1" class="node">
<title>node0x7bfdfe5e02b0</title>
<path fill="#ffd700" stroke="black" d="M12,-0.5C12,-0.5 118.75,-0.5 118.75,-0.5 124.75,-0.5 130.75,-6.5 130.75,-12.5 130.75,-12.5 130.75,-39 130.75,-39 130.75,-45 124.75,-51 118.75,-51 118.75,-51 12,-51 12,-51 6,-51 0,-45 0,-39 0,-39 0,-12.5 0,-12.5 0,-6.5 6,-0.5 12,-0.5"/>
<text xml:space="preserve" text-anchor="middle" x="65.38" y="-33.7" font-family="Times,serif" font-size="14.00">type = 1 (NUM)</text>
<polyline fill="none" stroke="black" points="0,-25.75 130.75,-25.75"/>
<text xml:space="preserve" text-anchor="middle" x="65.38" y="-8.45" font-family="Times,serif" font-size="14.00">value = &#39;&#39; 1 &#39;&#39;</text>
</g>
</g>
</svg>
