<?xml version="1.0" encoding="UTF-8" standalone="no"?>
<!DOCTYPE svg PUBLIC "-//W3C//DTD SVG 1.1//EN"
 "http://www.w3.org/Graphics/SVG/1.1/DTD/svg11.dtd">
<!-- Generated by graphviz version 2.43.0 (0)
 -->
<!-- Title: %3 Pages: 1 -->
<svg width="1777pt" height="875pt"
 viewBox="0.00 0.00 1777.00 875.00" xmlns="http://www.w3.org/2000/svg" xmlns:xlink="http://www.w3.org/1999/xlink">
<g id="graph0" class="graph" transform="scale(1 1) rotate(0) translate(4 871)">
<title>%3</title>
<!-- node0x5030000000d0 -->
<g id="node1" class="node">
<title>node0x5030000000d0</title>
<path fill="#e0e0e0" stroke="black" d="M379.5,-774.5C379.5,-774.5 760.5,-774.5 760.5,-774.5 766.5,-774.5 772.5,-780.5 772.5,-786.5 772.5,-786.5 772.5,-854.5 772.5,-854.5 772.5,-860.5 766.5,-866.5 760.5,-866.5 760.5,-866.5 379.5,-866.5 379.5,-866.5 373.5,-866.5 367.5,-860.5 367.5,-854.5 367.5,-854.5 367.5,-786.5 367.5,-786.5 367.5,-780.5 373.5,-774.5 379.5,-774.5"/>
<text text-anchor="middle" x="570" y="-851.3" font-family="Times,serif" font-size="14.00">[0x5030000000d0]</text>
<polyline fill="none" stroke="black" points="367.5,-843.5 772.5,-843.5 "/>
<text text-anchor="middle" x="570" y="-828.3" font-family="Times,serif" font-size="14.00">type = 2 (OP)</text>
<polyline fill="none" stroke="black" points="367.5,-820.5 772.5,-820.5 "/>
<text text-anchor="middle" x="570" y="-805.3" font-family="Times,serif" font-size="14.00">value = &#39;&#39; GLUE &#39;&#39;</text>
<polyline fill="none" stroke="black" points="367.5,-797.5 772.5,-797.5 "/>
<text text-anchor="middle" x="466" y="-782.3" font-family="Times,serif" font-size="14.00">left = [0x5030000000a0]</text>
<polyline fill="none" stroke="black" points="564.5,-774.5 564.5,-797.5 "/>
<text text-anchor="middle" x="668.5" y="-782.3" font-family="Times,serif" font-size="14.00">right = [0x5030000003a0]</text>
</g>
<!-- node0x5030000000a0 -->
<g id="node2" class="node">
<title>node0x5030000000a0</title>
<path fill="#50b2aa" stroke="black" d="M192,-645.5C192,-645.5 574,-645.5 574,-645.5 580,-645.5 586,-651.5 586,-657.5 586,-657.5 586,-725.5 586,-725.5 586,-731.5 580,-737.5 574,-737.5 574,-737.5 192,-737.5 192,-737.5 186,-737.5 180,-731.5 180,-725.5 180,-725.5 180,-657.5 180,-657.5 180,-651.5 186,-645.5 192,-645.5"/>
<text text-anchor="middle" x="383" y="-722.3" font-family="Times,serif" font-size="14.00">[0x5030000000a0]</text>
<polyline fill="none" stroke="black" points="180,-714.5 586,-714.5 "/>
<text text-anchor="middle" x="383" y="-699.3" font-family="Times,serif" font-size="14.00">type = 2 (OP)</text>
<polyline fill="none" stroke="black" points="180,-691.5 586,-691.5 "/>
<text text-anchor="middle" x="383" y="-676.3" font-family="Times,serif" font-size="14.00">value = &#39;&#39; = &#39;&#39; (61)</text>
<polyline fill="none" stroke="black" points="180,-668.5 586,-668.5 "/>
<text text-anchor="middle" x="278.5" y="-653.3" font-family="Times,serif" font-size="14.00">left = [0x503000000040]</text>
<polyline fill="none" stroke="black" points="377,-645.5 377,-668.5 "/>
<text text-anchor="middle" x="481.5" y="-653.3" font-family="Times,serif" font-size="14.00">right = [0x503000000070]</text>
</g>
<!-- node0x5030000000d0&#45;&gt;node0x5030000000a0 -->
<g id="edge1" class="edge">
<title>node0x5030000000d0&#45;&gt;node0x5030000000a0</title>
<path fill="none" stroke="black" d="M503.54,-774.37C488.75,-764.32 472.97,-753.6 457.87,-743.35"/>
<polygon fill="black" stroke="black" points="459.8,-740.42 449.56,-737.7 455.86,-746.22 459.8,-740.42"/>
</g>
<!-- node0x5030000003a0 -->
<g id="node3" class="node">
<title>node0x5030000003a0</title>
<path fill="#e0e0e0" stroke="black" d="M615.5,-645.5C615.5,-645.5 900.5,-645.5 900.5,-645.5 906.5,-645.5 912.5,-651.5 912.5,-657.5 912.5,-657.5 912.5,-725.5 912.5,-725.5 912.5,-731.5 906.5,-737.5 900.5,-737.5 900.5,-737.5 615.5,-737.5 615.5,-737.5 609.5,-737.5 603.5,-731.5 603.5,-725.5 603.5,-725.5 603.5,-657.5 603.5,-657.5 603.5,-651.5 609.5,-645.5 615.5,-645.5"/>
<text text-anchor="middle" x="758" y="-722.3" font-family="Times,serif" font-size="14.00">[0x5030000003a0]</text>
<polyline fill="none" stroke="black" points="603.5,-714.5 912.5,-714.5 "/>
<text text-anchor="middle" x="758" y="-699.3" font-family="Times,serif" font-size="14.00">type = 2 (OP)</text>
<polyline fill="none" stroke="black" points="603.5,-691.5 912.5,-691.5 "/>
<text text-anchor="middle" x="758" y="-676.3" font-family="Times,serif" font-size="14.00">value = &#39;&#39; GLUE &#39;&#39;</text>
<polyline fill="none" stroke="black" points="603.5,-668.5 912.5,-668.5 "/>
<text text-anchor="middle" x="702" y="-653.3" font-family="Times,serif" font-size="14.00">left = [0x503000000370]</text>
<polyline fill="none" stroke="black" points="800.5,-645.5 800.5,-668.5 "/>
<text text-anchor="middle" x="856.5" y="-653.3" font-family="Times,serif" font-size="14.00">right = [(nil)]</text>
</g>
<!-- node0x5030000000d0&#45;&gt;node0x5030000003a0 -->
<g id="edge2" class="edge">
<title>node0x5030000000d0&#45;&gt;node0x5030000003a0</title>
<path fill="none" stroke="black" d="M636.81,-774.37C651.68,-764.32 667.55,-753.6 682.73,-743.35"/>
<polygon fill="black" stroke="black" points="684.76,-746.2 691.09,-737.7 680.84,-740.4 684.76,-746.2"/>
</g>
<!-- node0x503000000040 -->
<g id="node4" class="node">
<title>node0x503000000040</title>
<path fill="#ff5050" stroke="black" d="M12,-516.5C12,-516.5 270,-516.5 270,-516.5 276,-516.5 282,-522.5 282,-528.5 282,-528.5 282,-596.5 282,-596.5 282,-602.5 276,-608.5 270,-608.5 270,-608.5 12,-608.5 12,-608.5 6,-608.5 0,-602.5 0,-596.5 0,-596.5 0,-528.5 0,-528.5 0,-522.5 6,-516.5 12,-516.5"/>
<text text-anchor="middle" x="141" y="-593.3" font-family="Times,serif" font-size="14.00">[0x503000000040]</text>
<polyline fill="none" stroke="black" points="0,-585.5 282,-585.5 "/>
<text text-anchor="middle" x="141" y="-570.3" font-family="Times,serif" font-size="14.00">type = 4 (ID)</text>
<polyline fill="none" stroke="black" points="0,-562.5 282,-562.5 "/>
<text text-anchor="middle" x="141" y="-547.3" font-family="Times,serif" font-size="14.00">number of name in name table = &#39;16&#39;</text>
<polyline fill="none" stroke="black" points="0,-539.5 282,-539.5 "/>
<text text-anchor="middle" x="67.5" y="-524.3" font-family="Times,serif" font-size="14.00">left = [(nil)]</text>
<polyline fill="none" stroke="black" points="135,-516.5 135,-539.5 "/>
<text text-anchor="middle" x="208.5" y="-524.3" font-family="Times,serif" font-size="14.00">right = [(nil)]</text>
</g>
<!-- node0x5030000000a0&#45;&gt;node0x503000000040 -->
<g id="edge3" class="edge">
<title>node0x5030000000a0&#45;&gt;node0x503000000040</title>
<path fill="none" stroke="black" d="M297,-645.37C277.24,-635 256.11,-623.91 235.99,-613.35"/>
<polygon fill="black" stroke="black" points="237.61,-610.25 227.13,-608.7 234.36,-616.45 237.61,-610.25"/>
</g>
<!-- node0x503000000070 -->
<g id="node5" class="node">
<title>node0x503000000070</title>
<path fill="#ffd700" stroke="black" d="M312.5,-516.5C312.5,-516.5 501.5,-516.5 501.5,-516.5 507.5,-516.5 513.5,-522.5 513.5,-528.5 513.5,-528.5 513.5,-596.5 513.5,-596.5 513.5,-602.5 507.5,-608.5 501.5,-608.5 501.5,-608.5 312.5,-608.5 312.5,-608.5 306.5,-608.5 300.5,-602.5 300.5,-596.5 300.5,-596.5 300.5,-528.5 300.5,-528.5 300.5,-522.5 306.5,-516.5 312.5,-516.5"/>
<text text-anchor="middle" x="407" y="-593.3" font-family="Times,serif" font-size="14.00">[0x503000000070]</text>
<polyline fill="none" stroke="black" points="300.5,-585.5 513.5,-585.5 "/>
<text text-anchor="middle" x="407" y="-570.3" font-family="Times,serif" font-size="14.00">type = 1 (NUM)</text>
<polyline fill="none" stroke="black" points="300.5,-562.5 513.5,-562.5 "/>
<text text-anchor="middle" x="407" y="-547.3" font-family="Times,serif" font-size="14.00">value = 11111</text>
<polyline fill="none" stroke="black" points="300.5,-539.5 513.5,-539.5 "/>
<text text-anchor="middle" x="351" y="-524.3" font-family="Times,serif" font-size="14.00">left = [(nil)]</text>
<polyline fill="none" stroke="black" points="401.5,-516.5 401.5,-539.5 "/>
<text text-anchor="middle" x="457.5" y="-524.3" font-family="Times,serif" font-size="14.00">right = [(nil)]</text>
</g>
<!-- node0x5030000000a0&#45;&gt;node0x503000000070 -->
<g id="edge4" class="edge">
<title>node0x5030000000a0&#45;&gt;node0x503000000070</title>
<path fill="none" stroke="black" d="M391.53,-645.37C393.15,-636.77 394.87,-627.68 396.55,-618.8"/>
<polygon fill="black" stroke="black" points="400,-619.39 398.42,-608.92 393.12,-618.09 400,-619.39"/>
</g>
<!-- node0x503000000370 -->
<g id="node6" class="node">
<title>node0x503000000370</title>
<path fill="#00801a" stroke="black" d="M567,-516.5C567,-516.5 949,-516.5 949,-516.5 955,-516.5 961,-522.5 961,-528.5 961,-528.5 961,-596.5 961,-596.5 961,-602.5 955,-608.5 949,-608.5 949,-608.5 567,-608.5 567,-608.5 561,-608.5 555,-602.5 555,-596.5 555,-596.5 555,-528.5 555,-528.5 555,-522.5 561,-516.5 567,-516.5"/>
<text text-anchor="middle" x="758" y="-593.3" font-family="Times,serif" font-size="14.00">[0x503000000370]</text>
<polyline fill="none" stroke="black" points="555,-585.5 961,-585.5 "/>
<text text-anchor="middle" x="758" y="-570.3" font-family="Times,serif" font-size="14.00">type = 2 (OP)</text>
<polyline fill="none" stroke="black" points="555,-562.5 961,-562.5 "/>
<text text-anchor="middle" x="758" y="-547.3" font-family="Times,serif" font-size="14.00">value = &#39;&#39; FORREAL &#39;&#39;</text>
<polyline fill="none" stroke="black" points="555,-539.5 961,-539.5 "/>
<text text-anchor="middle" x="653.5" y="-524.3" font-family="Times,serif" font-size="14.00">left = [0x503000000160]</text>
<polyline fill="none" stroke="black" points="752,-516.5 752,-539.5 "/>
<text text-anchor="middle" x="856.5" y="-524.3" font-family="Times,serif" font-size="14.00">right = [0x503000000280]</text>
</g>
<!-- node0x5030000003a0&#45;&gt;node0x503000000370 -->
<g id="edge5" class="edge">
<title>node0x5030000003a0&#45;&gt;node0x503000000370</title>
<path fill="none" stroke="black" d="M758,-645.37C758,-636.86 758,-627.87 758,-619.09"/>
<polygon fill="black" stroke="black" points="761.5,-618.92 758,-608.92 754.5,-618.92 761.5,-618.92"/>
</g>
<!-- node0x503000000160 -->
<g id="node7" class="node">
<title>node0x503000000160</title>
<path fill="#50b2aa" stroke="black" d="M355,-387.5C355,-387.5 737,-387.5 737,-387.5 743,-387.5 749,-393.5 749,-399.5 749,-399.5 749,-467.5 749,-467.5 749,-473.5 743,-479.5 737,-479.5 737,-479.5 355,-479.5 355,-479.5 349,-479.5 343,-473.5 343,-467.5 343,-467.5 343,-399.5 343,-399.5 343,-393.5 349,-387.5 355,-387.5"/>
<text text-anchor="middle" x="546" y="-464.3" font-family="Times,serif" font-size="14.00">[0x503000000160]</text>
<polyline fill="none" stroke="black" points="343,-456.5 749,-456.5 "/>
<text text-anchor="middle" x="546" y="-441.3" font-family="Times,serif" font-size="14.00">type = 2 (OP)</text>
<polyline fill="none" stroke="black" points="343,-433.5 749,-433.5 "/>
<text text-anchor="middle" x="546" y="-418.3" font-family="Times,serif" font-size="14.00">value = &#39;&#39; PLUS &#39;&#39; (43)</text>
<polyline fill="none" stroke="black" points="343,-410.5 749,-410.5 "/>
<text text-anchor="middle" x="441.5" y="-395.3" font-family="Times,serif" font-size="14.00">left = [0x503000000100]</text>
<polyline fill="none" stroke="black" points="540,-387.5 540,-410.5 "/>
<text text-anchor="middle" x="644.5" y="-395.3" font-family="Times,serif" font-size="14.00">right = [0x503000000130]</text>
</g>
<!-- node0x503000000370&#45;&gt;node0x503000000160 -->
<g id="edge6" class="edge">
<title>node0x503000000370&#45;&gt;node0x503000000160</title>
<path fill="none" stroke="black" d="M682.66,-516.37C665.73,-506.23 647.67,-495.41 630.4,-485.06"/>
<polygon fill="black" stroke="black" points="631.83,-481.84 621.45,-479.7 628.23,-487.84 631.83,-481.84"/>
</g>
<!-- node0x503000000280 -->
<g id="node8" class="node">
<title>node0x503000000280</title>
<path fill="#e0e0e0" stroke="black" d="M779,-387.5C779,-387.5 1161,-387.5 1161,-387.5 1167,-387.5 1173,-393.5 1173,-399.5 1173,-399.5 1173,-467.5 1173,-467.5 1173,-473.5 1167,-479.5 1161,-479.5 1161,-479.5 779,-479.5 779,-479.5 773,-479.5 767,-473.5 767,-467.5 767,-467.5 767,-399.5 767,-399.5 767,-393.5 773,-387.5 779,-387.5"/>
<text text-anchor="middle" x="970" y="-464.3" font-family="Times,serif" font-size="14.00">[0x503000000280]</text>
<polyline fill="none" stroke="black" points="767,-456.5 1173,-456.5 "/>
<text text-anchor="middle" x="970" y="-441.3" font-family="Times,serif" font-size="14.00">type = 2 (OP)</text>
<polyline fill="none" stroke="black" points="767,-433.5 1173,-433.5 "/>
<text text-anchor="middle" x="970" y="-418.3" font-family="Times,serif" font-size="14.00">value = &#39;&#39; GLUE &#39;&#39;</text>
<polyline fill="none" stroke="black" points="767,-410.5 1173,-410.5 "/>
<text text-anchor="middle" x="865.5" y="-395.3" font-family="Times,serif" font-size="14.00">left = [0x503000000250]</text>
<polyline fill="none" stroke="black" points="964,-387.5 964,-410.5 "/>
<text text-anchor="middle" x="1068.5" y="-395.3" font-family="Times,serif" font-size="14.00">right = [0x503000000340]</text>
</g>
<!-- node0x503000000370&#45;&gt;node0x503000000280 -->
<g id="edge7" class="edge">
<title>node0x503000000370&#45;&gt;node0x503000000280</title>
<path fill="none" stroke="black" d="M833.34,-516.37C850.27,-506.23 868.33,-495.41 885.6,-485.06"/>
<polygon fill="black" stroke="black" points="887.77,-487.84 894.55,-479.7 884.17,-481.84 887.77,-487.84"/>
</g>
<!-- node0x503000000100 -->
<g id="node9" class="node">
<title>node0x503000000100</title>
<path fill="#ff5050" stroke="black" d="M176,-258.5C176,-258.5 434,-258.5 434,-258.5 440,-258.5 446,-264.5 446,-270.5 446,-270.5 446,-338.5 446,-338.5 446,-344.5 440,-350.5 434,-350.5 434,-350.5 176,-350.5 176,-350.5 170,-350.5 164,-344.5 164,-338.5 164,-338.5 164,-270.5 164,-270.5 164,-264.5 170,-258.5 176,-258.5"/>
<text text-anchor="middle" x="305" y="-335.3" font-family="Times,serif" font-size="14.00">[0x503000000100]</text>
<polyline fill="none" stroke="black" points="164,-327.5 446,-327.5 "/>
<text text-anchor="middle" x="305" y="-312.3" font-family="Times,serif" font-size="14.00">type = 4 (ID)</text>
<polyline fill="none" stroke="black" points="164,-304.5 446,-304.5 "/>
<text text-anchor="middle" x="305" y="-289.3" font-family="Times,serif" font-size="14.00">number of name in name table = &#39;17&#39;</text>
<polyline fill="none" stroke="black" points="164,-281.5 446,-281.5 "/>
<text text-anchor="middle" x="231.5" y="-266.3" font-family="Times,serif" font-size="14.00">left = [(nil)]</text>
<polyline fill="none" stroke="black" points="299,-258.5 299,-281.5 "/>
<text text-anchor="middle" x="372.5" y="-266.3" font-family="Times,serif" font-size="14.00">right = [(nil)]</text>
</g>
<!-- node0x503000000160&#45;&gt;node0x503000000100 -->
<g id="edge8" class="edge">
<title>node0x503000000160&#45;&gt;node0x503000000100</title>
<path fill="none" stroke="black" d="M460.35,-387.37C440.76,-377.04 419.82,-366.01 399.87,-355.49"/>
<polygon fill="black" stroke="black" points="401.25,-352.27 390.78,-350.7 397.99,-358.46 401.25,-352.27"/>
</g>
<!-- node0x503000000130 -->
<g id="node10" class="node">
<title>node0x503000000130</title>
<path fill="#ffd700" stroke="black" d="M476.5,-258.5C476.5,-258.5 665.5,-258.5 665.5,-258.5 671.5,-258.5 677.5,-264.5 677.5,-270.5 677.5,-270.5 677.5,-338.5 677.5,-338.5 677.5,-344.5 671.5,-350.5 665.5,-350.5 665.5,-350.5 476.5,-350.5 476.5,-350.5 470.5,-350.5 464.5,-344.5 464.5,-338.5 464.5,-338.5 464.5,-270.5 464.5,-270.5 464.5,-264.5 470.5,-258.5 476.5,-258.5"/>
<text text-anchor="middle" x="571" y="-335.3" font-family="Times,serif" font-size="14.00">[0x503000000130]</text>
<polyline fill="none" stroke="black" points="464.5,-327.5 677.5,-327.5 "/>
<text text-anchor="middle" x="571" y="-312.3" font-family="Times,serif" font-size="14.00">type = 1 (NUM)</text>
<polyline fill="none" stroke="black" points="464.5,-304.5 677.5,-304.5 "/>
<text text-anchor="middle" x="571" y="-289.3" font-family="Times,serif" font-size="14.00">value = 44444</text>
<polyline fill="none" stroke="black" points="464.5,-281.5 677.5,-281.5 "/>
<text text-anchor="middle" x="515" y="-266.3" font-family="Times,serif" font-size="14.00">left = [(nil)]</text>
<polyline fill="none" stroke="black" points="565.5,-258.5 565.5,-281.5 "/>
<text text-anchor="middle" x="621.5" y="-266.3" font-family="Times,serif" font-size="14.00">right = [(nil)]</text>
</g>
<!-- node0x503000000160&#45;&gt;node0x503000000130 -->
<g id="edge9" class="edge">
<title>node0x503000000160&#45;&gt;node0x503000000130</title>
<path fill="none" stroke="black" d="M554.88,-387.37C556.58,-378.77 558.37,-369.68 560.11,-360.8"/>
<polygon fill="black" stroke="black" points="563.56,-361.4 562.06,-350.92 556.69,-360.05 563.56,-361.4"/>
</g>
<!-- node0x503000000250 -->
<g id="node11" class="node">
<title>node0x503000000250</title>
<path fill="#50b2aa" stroke="black" d="M755,-258.5C755,-258.5 1137,-258.5 1137,-258.5 1143,-258.5 1149,-264.5 1149,-270.5 1149,-270.5 1149,-338.5 1149,-338.5 1149,-344.5 1143,-350.5 1137,-350.5 1137,-350.5 755,-350.5 755,-350.5 749,-350.5 743,-344.5 743,-338.5 743,-338.5 743,-270.5 743,-270.5 743,-264.5 749,-258.5 755,-258.5"/>
<text text-anchor="middle" x="946" y="-335.3" font-family="Times,serif" font-size="14.00">[0x503000000250]</text>
<polyline fill="none" stroke="black" points="743,-327.5 1149,-327.5 "/>
<text text-anchor="middle" x="946" y="-312.3" font-family="Times,serif" font-size="14.00">type = 2 (OP)</text>
<polyline fill="none" stroke="black" points="743,-304.5 1149,-304.5 "/>
<text text-anchor="middle" x="946" y="-289.3" font-family="Times,serif" font-size="14.00">value = &#39;&#39; = &#39;&#39; (61)</text>
<polyline fill="none" stroke="black" points="743,-281.5 1149,-281.5 "/>
<text text-anchor="middle" x="841.5" y="-266.3" font-family="Times,serif" font-size="14.00">left = [0x503000000190]</text>
<polyline fill="none" stroke="black" points="940,-258.5 940,-281.5 "/>
<text text-anchor="middle" x="1044.5" y="-266.3" font-family="Times,serif" font-size="14.00">right = [0x503000000220]</text>
</g>
<!-- node0x503000000280&#45;&gt;node0x503000000250 -->
<g id="edge10" class="edge">
<title>node0x503000000280&#45;&gt;node0x503000000250</title>
<path fill="none" stroke="black" d="M961.47,-387.37C959.85,-378.77 958.13,-369.68 956.45,-360.8"/>
<polygon fill="black" stroke="black" points="959.88,-360.09 954.58,-350.92 953,-361.39 959.88,-360.09"/>
</g>
<!-- node0x503000000340 -->
<g id="node12" class="node">
<title>node0x503000000340</title>
<path fill="#e0e0e0" stroke="black" d="M1201.5,-258.5C1201.5,-258.5 1486.5,-258.5 1486.5,-258.5 1492.5,-258.5 1498.5,-264.5 1498.5,-270.5 1498.5,-270.5 1498.5,-338.5 1498.5,-338.5 1498.5,-344.5 1492.5,-350.5 1486.5,-350.5 1486.5,-350.5 1201.5,-350.5 1201.5,-350.5 1195.5,-350.5 1189.5,-344.5 1189.5,-338.5 1189.5,-338.5 1189.5,-270.5 1189.5,-270.5 1189.5,-264.5 1195.5,-258.5 1201.5,-258.5"/>
<text text-anchor="middle" x="1344" y="-335.3" font-family="Times,serif" font-size="14.00">[0x503000000340]</text>
<polyline fill="none" stroke="black" points="1189.5,-327.5 1498.5,-327.5 "/>
<text text-anchor="middle" x="1344" y="-312.3" font-family="Times,serif" font-size="14.00">type = 2 (OP)</text>
<polyline fill="none" stroke="black" points="1189.5,-304.5 1498.5,-304.5 "/>
<text text-anchor="middle" x="1344" y="-289.3" font-family="Times,serif" font-size="14.00">value = &#39;&#39; GLUE &#39;&#39;</text>
<polyline fill="none" stroke="black" points="1189.5,-281.5 1498.5,-281.5 "/>
<text text-anchor="middle" x="1288" y="-266.3" font-family="Times,serif" font-size="14.00">left = [0x503000000310]</text>
<polyline fill="none" stroke="black" points="1386.5,-258.5 1386.5,-281.5 "/>
<text text-anchor="middle" x="1442.5" y="-266.3" font-family="Times,serif" font-size="14.00">right = [(nil)]</text>
</g>
<!-- node0x503000000280&#45;&gt;node0x503000000340 -->
<g id="edge11" class="edge">
<title>node0x503000000280&#45;&gt;node0x503000000340</title>
<path fill="none" stroke="black" d="M1102.65,-387.46C1134.77,-376.55 1169.23,-364.85 1201.76,-353.8"/>
<polygon fill="black" stroke="black" points="1203,-357.08 1211.34,-350.55 1200.75,-350.45 1203,-357.08"/>
</g>
<!-- node0x503000000190 -->
<g id="node13" class="node">
<title>node0x503000000190</title>
<path fill="#ff5050" stroke="black" d="M457,-129.5C457,-129.5 715,-129.5 715,-129.5 721,-129.5 727,-135.5 727,-141.5 727,-141.5 727,-209.5 727,-209.5 727,-215.5 721,-221.5 715,-221.5 715,-221.5 457,-221.5 457,-221.5 451,-221.5 445,-215.5 445,-209.5 445,-209.5 445,-141.5 445,-141.5 445,-135.5 451,-129.5 457,-129.5"/>
<text text-anchor="middle" x="586" y="-206.3" font-family="Times,serif" font-size="14.00">[0x503000000190]</text>
<polyline fill="none" stroke="black" points="445,-198.5 727,-198.5 "/>
<text text-anchor="middle" x="586" y="-183.3" font-family="Times,serif" font-size="14.00">type = 4 (ID)</text>
<polyline fill="none" stroke="black" points="445,-175.5 727,-175.5 "/>
<text text-anchor="middle" x="586" y="-160.3" font-family="Times,serif" font-size="14.00">number of name in name table = &#39;18&#39;</text>
<polyline fill="none" stroke="black" points="445,-152.5 727,-152.5 "/>
<text text-anchor="middle" x="512.5" y="-137.3" font-family="Times,serif" font-size="14.00">left = [(nil)]</text>
<polyline fill="none" stroke="black" points="580,-129.5 580,-152.5 "/>
<text text-anchor="middle" x="653.5" y="-137.3" font-family="Times,serif" font-size="14.00">right = [(nil)]</text>
</g>
<!-- node0x503000000250&#45;&gt;node0x503000000190 -->
<g id="edge12" class="edge">
<title>node0x503000000250&#45;&gt;node0x503000000190</title>
<path fill="none" stroke="black" d="M818.32,-258.46C787.54,-247.6 754.52,-235.95 723.32,-224.94"/>
<polygon fill="black" stroke="black" points="724.29,-221.57 713.69,-221.55 721.96,-228.18 724.29,-221.57"/>
</g>
<!-- node0x503000000220 -->
<g id="node14" class="node">
<title>node0x503000000220</title>
<path fill="#50b2aa" stroke="black" d="M757.5,-129.5C757.5,-129.5 1134.5,-129.5 1134.5,-129.5 1140.5,-129.5 1146.5,-135.5 1146.5,-141.5 1146.5,-141.5 1146.5,-209.5 1146.5,-209.5 1146.5,-215.5 1140.5,-221.5 1134.5,-221.5 1134.5,-221.5 757.5,-221.5 757.5,-221.5 751.5,-221.5 745.5,-215.5 745.5,-209.5 745.5,-209.5 745.5,-141.5 745.5,-141.5 745.5,-135.5 751.5,-129.5 757.5,-129.5"/>
<text text-anchor="middle" x="946" y="-206.3" font-family="Times,serif" font-size="14.00">[0x503000000220]</text>
<polyline fill="none" stroke="black" points="745.5,-198.5 1146.5,-198.5 "/>
<text text-anchor="middle" x="946" y="-183.3" font-family="Times,serif" font-size="14.00">type = 2 (OP)</text>
<polyline fill="none" stroke="black" points="745.5,-175.5 1146.5,-175.5 "/>
<text text-anchor="middle" x="946" y="-160.3" font-family="Times,serif" font-size="14.00">value = &#39;&#39; PLUS &#39;&#39; (43)</text>
<polyline fill="none" stroke="black" points="745.5,-152.5 1146.5,-152.5 "/>
<text text-anchor="middle" x="843.5" y="-137.3" font-family="Times,serif" font-size="14.00">left = [0x5030000001c0]</text>
<polyline fill="none" stroke="black" points="941.5,-129.5 941.5,-152.5 "/>
<text text-anchor="middle" x="1044" y="-137.3" font-family="Times,serif" font-size="14.00">right = [0x5030000001f0]</text>
</g>
<!-- node0x503000000250&#45;&gt;node0x503000000220 -->
<g id="edge13" class="edge">
<title>node0x503000000250&#45;&gt;node0x503000000220</title>
<path fill="none" stroke="black" d="M946,-258.37C946,-249.86 946,-240.87 946,-232.09"/>
<polygon fill="black" stroke="black" points="949.5,-231.92 946,-221.92 942.5,-231.92 949.5,-231.92"/>
</g>
<!-- node0x503000000310 -->
<g id="node17" class="node">
<title>node0x503000000310</title>
<path fill="#50b2aa" stroke="black" d="M1176.5,-129.5C1176.5,-129.5 1557.5,-129.5 1557.5,-129.5 1563.5,-129.5 1569.5,-135.5 1569.5,-141.5 1569.5,-141.5 1569.5,-209.5 1569.5,-209.5 1569.5,-215.5 1563.5,-221.5 1557.5,-221.5 1557.5,-221.5 1176.5,-221.5 1176.5,-221.5 1170.5,-221.5 1164.5,-215.5 1164.5,-209.5 1164.5,-209.5 1164.5,-141.5 1164.5,-141.5 1164.5,-135.5 1170.5,-129.5 1176.5,-129.5"/>
<text text-anchor="middle" x="1367" y="-206.3" font-family="Times,serif" font-size="14.00">[0x503000000310]</text>
<polyline fill="none" stroke="black" points="1164.5,-198.5 1569.5,-198.5 "/>
<text text-anchor="middle" x="1367" y="-183.3" font-family="Times,serif" font-size="14.00">type = 2 (OP)</text>
<polyline fill="none" stroke="black" points="1164.5,-175.5 1569.5,-175.5 "/>
<text text-anchor="middle" x="1367" y="-160.3" font-family="Times,serif" font-size="14.00">value = &#39;&#39; = &#39;&#39; (61)</text>
<polyline fill="none" stroke="black" points="1164.5,-152.5 1569.5,-152.5 "/>
<text text-anchor="middle" x="1263" y="-137.3" font-family="Times,serif" font-size="14.00">left = [0x5030000002b0]</text>
<polyline fill="none" stroke="black" points="1361.5,-129.5 1361.5,-152.5 "/>
<text text-anchor="middle" x="1465.5" y="-137.3" font-family="Times,serif" font-size="14.00">right = [0x5030000002e0]</text>
</g>
<!-- node0x503000000340&#45;&gt;node0x503000000310 -->
<g id="edge16" class="edge">
<title>node0x503000000340&#45;&gt;node0x503000000310</title>
<path fill="none" stroke="black" d="M1352.17,-258.37C1353.73,-249.77 1355.38,-240.68 1356.98,-231.8"/>
<polygon fill="black" stroke="black" points="1360.44,-232.38 1358.78,-221.92 1353.55,-231.13 1360.44,-232.38"/>
</g>
<!-- node0x5030000001c0 -->
<g id="node15" class="node">
<title>node0x5030000001c0</title>
<path fill="#ffd700" stroke="black" d="M659.5,-0.5C659.5,-0.5 848.5,-0.5 848.5,-0.5 854.5,-0.5 860.5,-6.5 860.5,-12.5 860.5,-12.5 860.5,-80.5 860.5,-80.5 860.5,-86.5 854.5,-92.5 848.5,-92.5 848.5,-92.5 659.5,-92.5 659.5,-92.5 653.5,-92.5 647.5,-86.5 647.5,-80.5 647.5,-80.5 647.5,-12.5 647.5,-12.5 647.5,-6.5 653.5,-0.5 659.5,-0.5"/>
<text text-anchor="middle" x="754" y="-77.3" font-family="Times,serif" font-size="14.00">[0x5030000001c0]</text>
<polyline fill="none" stroke="black" points="647.5,-69.5 860.5,-69.5 "/>
<text text-anchor="middle" x="754" y="-54.3" font-family="Times,serif" font-size="14.00">type = 1 (NUM)</text>
<polyline fill="none" stroke="black" points="647.5,-46.5 860.5,-46.5 "/>
<text text-anchor="middle" x="754" y="-31.3" font-family="Times,serif" font-size="14.00">value = 55555</text>
<polyline fill="none" stroke="black" points="647.5,-23.5 860.5,-23.5 "/>
<text text-anchor="middle" x="698" y="-8.3" font-family="Times,serif" font-size="14.00">left = [(nil)]</text>
<polyline fill="none" stroke="black" points="748.5,-0.5 748.5,-23.5 "/>
<text text-anchor="middle" x="804.5" y="-8.3" font-family="Times,serif" font-size="14.00">right = [(nil)]</text>
</g>
<!-- node0x503000000220&#45;&gt;node0x5030000001c0 -->
<g id="edge14" class="edge">
<title>node0x503000000220&#45;&gt;node0x5030000001c0</title>
<path fill="none" stroke="black" d="M877.77,-129.37C862.58,-119.32 846.38,-108.6 830.87,-98.35"/>
<polygon fill="black" stroke="black" points="832.61,-95.3 822.34,-92.7 828.75,-101.14 832.61,-95.3"/>
</g>
<!-- node0x5030000001f0 -->
<g id="node16" class="node">
<title>node0x5030000001f0</title>
<path fill="#ffd700" stroke="black" d="M890.5,-0.5C890.5,-0.5 1079.5,-0.5 1079.5,-0.5 1085.5,-0.5 1091.5,-6.5 1091.5,-12.5 1091.5,-12.5 1091.5,-80.5 1091.5,-80.5 1091.5,-86.5 1085.5,-92.5 1079.5,-92.5 1079.5,-92.5 890.5,-92.5 890.5,-92.5 884.5,-92.5 878.5,-86.5 878.5,-80.5 878.5,-80.5 878.5,-12.5 878.5,-12.5 878.5,-6.5 884.5,-0.5 890.5,-0.5"/>
<text text-anchor="middle" x="985" y="-77.3" font-family="Times,serif" font-size="14.00">[0x5030000001f0]</text>
<polyline fill="none" stroke="black" points="878.5,-69.5 1091.5,-69.5 "/>
<text text-anchor="middle" x="985" y="-54.3" font-family="Times,serif" font-size="14.00">type = 1 (NUM)</text>
<polyline fill="none" stroke="black" points="878.5,-46.5 1091.5,-46.5 "/>
<text text-anchor="middle" x="985" y="-31.3" font-family="Times,serif" font-size="14.00">value = 66666</text>
<polyline fill="none" stroke="black" points="878.5,-23.5 1091.5,-23.5 "/>
<text text-anchor="middle" x="929" y="-8.3" font-family="Times,serif" font-size="14.00">left = [(nil)]</text>
<polyline fill="none" stroke="black" points="979.5,-0.5 979.5,-23.5 "/>
<text text-anchor="middle" x="1035.5" y="-8.3" font-family="Times,serif" font-size="14.00">right = [(nil)]</text>
</g>
<!-- node0x503000000220&#45;&gt;node0x5030000001f0 -->
<g id="edge15" class="edge">
<title>node0x503000000220&#45;&gt;node0x5030000001f0</title>
<path fill="none" stroke="black" d="M959.86,-129.37C962.53,-120.68 965.35,-111.48 968.1,-102.52"/>
<polygon fill="black" stroke="black" points="971.46,-103.5 971.05,-92.92 964.77,-101.45 971.46,-103.5"/>
</g>
<!-- node0x5030000002b0 -->
<g id="node18" class="node">
<title>node0x5030000002b0</title>
<path fill="#ff5050" stroke="black" d="M1199,-0.5C1199,-0.5 1457,-0.5 1457,-0.5 1463,-0.5 1469,-6.5 1469,-12.5 1469,-12.5 1469,-80.5 1469,-80.5 1469,-86.5 1463,-92.5 1457,-92.5 1457,-92.5 1199,-92.5 1199,-92.5 1193,-92.5 1187,-86.5 1187,-80.5 1187,-80.5 1187,-12.5 1187,-12.5 1187,-6.5 1193,-0.5 1199,-0.5"/>
<text text-anchor="middle" x="1328" y="-77.3" font-family="Times,serif" font-size="14.00">[0x5030000002b0]</text>
<polyline fill="none" stroke="black" points="1187,-69.5 1469,-69.5 "/>
<text text-anchor="middle" x="1328" y="-54.3" font-family="Times,serif" font-size="14.00">type = 4 (ID)</text>
<polyline fill="none" stroke="black" points="1187,-46.5 1469,-46.5 "/>
<text text-anchor="middle" x="1328" y="-31.3" font-family="Times,serif" font-size="14.00">number of name in name table = &#39;16&#39;</text>
<polyline fill="none" stroke="black" points="1187,-23.5 1469,-23.5 "/>
<text text-anchor="middle" x="1254.5" y="-8.3" font-family="Times,serif" font-size="14.00">left = [(nil)]</text>
<polyline fill="none" stroke="black" points="1322,-0.5 1322,-23.5 "/>
<text text-anchor="middle" x="1395.5" y="-8.3" font-family="Times,serif" font-size="14.00">right = [(nil)]</text>
</g>
<!-- node0x503000000310&#45;&gt;node0x5030000002b0 -->
<g id="edge17" class="edge">
<title>node0x503000000310&#45;&gt;node0x5030000002b0</title>
<path fill="none" stroke="black" d="M1353.14,-129.37C1350.47,-120.68 1347.65,-111.48 1344.9,-102.52"/>
<polygon fill="black" stroke="black" points="1348.23,-101.45 1341.95,-92.92 1341.54,-103.5 1348.23,-101.45"/>
</g>
<!-- node0x5030000002e0 -->
<g id="node19" class="node">
<title>node0x5030000002e0</title>
<path fill="#ff5050" stroke="black" d="M1499,-0.5C1499,-0.5 1757,-0.5 1757,-0.5 1763,-0.5 1769,-6.5 1769,-12.5 1769,-12.5 1769,-80.5 1769,-80.5 1769,-86.5 1763,-92.5 1757,-92.5 1757,-92.5 1499,-92.5 1499,-92.5 1493,-92.5 1487,-86.5 1487,-80.5 1487,-80.5 1487,-12.5 1487,-12.5 1487,-6.5 1493,-0.5 1499,-0.5"/>
<text text-anchor="middle" x="1628" y="-77.3" font-family="Times,serif" font-size="14.00">[0x5030000002e0]</text>
<polyline fill="none" stroke="black" points="1487,-69.5 1769,-69.5 "/>
<text text-anchor="middle" x="1628" y="-54.3" font-family="Times,serif" font-size="14.00">type = 4 (ID)</text>
<polyline fill="none" stroke="black" points="1487,-46.5 1769,-46.5 "/>
<text text-anchor="middle" x="1628" y="-31.3" font-family="Times,serif" font-size="14.00">number of name in name table = &#39;18&#39;</text>
<polyline fill="none" stroke="black" points="1487,-23.5 1769,-23.5 "/>
<text text-anchor="middle" x="1554.5" y="-8.3" font-family="Times,serif" font-size="14.00">left = [(nil)]</text>
<polyline fill="none" stroke="black" points="1622,-0.5 1622,-23.5 "/>
<text text-anchor="middle" x="1695.5" y="-8.3" font-family="Times,serif" font-size="14.00">right = [(nil)]</text>
</g>
<!-- node0x503000000310&#45;&gt;node0x5030000002e0 -->
<g id="edge18" class="edge">
<title>node0x503000000310&#45;&gt;node0x5030000002e0</title>
<path fill="none" stroke="black" d="M1459.75,-129.37C1481.16,-118.95 1504.06,-107.81 1525.84,-97.21"/>
<polygon fill="black" stroke="black" points="1527.64,-100.22 1535.11,-92.7 1524.58,-93.93 1527.64,-100.22"/>
</g>
</g>
</svg>
