<?xml version="1.0" encoding="UTF-8" standalone="no"?>
<!DOCTYPE svg PUBLIC "-//W3C//DTD SVG 1.1//EN"
 "http://www.w3.org/Graphics/SVG/1.1/DTD/svg11.dtd">
<!-- Generated by graphviz version 2.43.0 (0)
 -->
<!-- Title: %3 Pages: 1 -->
<svg width="1842pt" height="949pt"
 viewBox="0.00 0.00 1842.00 949.00" xmlns="http://www.w3.org/2000/svg" xmlns:xlink="http://www.w3.org/1999/xlink">
<g id="graph0" class="graph" transform="scale(1 1) rotate(0) translate(4 945)">
<title>%3</title>
<!-- node0x5030000004c0 -->
<g id="node1" class="node">
<title>node0x5030000004c0</title>
<path fill="#a0a0a0" stroke="black" d="M670.5,-894.5C670.5,-894.5 906.5,-894.5 906.5,-894.5 912.5,-894.5 918.5,-900.5 918.5,-906.5 918.5,-906.5 918.5,-928.5 918.5,-928.5 918.5,-934.5 912.5,-940.5 906.5,-940.5 906.5,-940.5 670.5,-940.5 670.5,-940.5 664.5,-940.5 658.5,-934.5 658.5,-928.5 658.5,-928.5 658.5,-906.5 658.5,-906.5 658.5,-900.5 664.5,-894.5 670.5,-894.5"/>
<text text-anchor="middle" x="788.5" y="-925.3" font-family="Times,serif" font-size="14.00">type = 4 (FUNC)</text>
<polyline fill="none" stroke="black" points="658.5,-917.5 918.5,-917.5 "/>
<text text-anchor="middle" x="788.5" y="-902.3" font-family="Times,serif" font-size="14.00">value = &#39;&#39; NEXT FUNCTION &#39;&#39; (64)</text>
</g>
<!-- node0x503000000490 -->
<g id="node2" class="node">
<title>node0x503000000490</title>
<path fill="#755cf7" stroke="black" d="M558.5,-811.5C558.5,-811.5 758.5,-811.5 758.5,-811.5 764.5,-811.5 770.5,-817.5 770.5,-823.5 770.5,-823.5 770.5,-845.5 770.5,-845.5 770.5,-851.5 764.5,-857.5 758.5,-857.5 758.5,-857.5 558.5,-857.5 558.5,-857.5 552.5,-857.5 546.5,-851.5 546.5,-845.5 546.5,-845.5 546.5,-823.5 546.5,-823.5 546.5,-817.5 552.5,-811.5 558.5,-811.5"/>
<text text-anchor="middle" x="658.5" y="-842.3" font-family="Times,serif" font-size="14.00">type = 4 (FUNC)</text>
<polyline fill="none" stroke="black" points="546.5,-834.5 770.5,-834.5 "/>
<text text-anchor="middle" x="658.5" y="-819.3" font-family="Times,serif" font-size="14.00">value = &#39;&#39; DEFINITION &#39;&#39; (68)</text>
</g>
<!-- node0x5030000004c0&#45;&gt;node0x503000000490 -->
<g id="edge1" class="edge">
<title>node0x5030000004c0&#45;&gt;node0x503000000490</title>
<path fill="none" stroke="black" d="M752.98,-894.37C737.5,-884.72 719.19,-873.32 702.84,-863.13"/>
<polygon fill="black" stroke="black" points="704.32,-859.92 693.98,-857.61 700.62,-865.87 704.32,-859.92"/>
</g>
<!-- node0x5030000006a0 -->
<g id="node3" class="node">
<title>node0x5030000006a0</title>
<path fill="#a0a0a0" stroke="black" d="M932.5,-811.5C932.5,-811.5 1168.5,-811.5 1168.5,-811.5 1174.5,-811.5 1180.5,-817.5 1180.5,-823.5 1180.5,-823.5 1180.5,-845.5 1180.5,-845.5 1180.5,-851.5 1174.5,-857.5 1168.5,-857.5 1168.5,-857.5 932.5,-857.5 932.5,-857.5 926.5,-857.5 920.5,-851.5 920.5,-845.5 920.5,-845.5 920.5,-823.5 920.5,-823.5 920.5,-817.5 926.5,-811.5 932.5,-811.5"/>
<text text-anchor="middle" x="1050.5" y="-842.3" font-family="Times,serif" font-size="14.00">type = 4 (FUNC)</text>
<polyline fill="none" stroke="black" points="920.5,-834.5 1180.5,-834.5 "/>
<text text-anchor="middle" x="1050.5" y="-819.3" font-family="Times,serif" font-size="14.00">value = &#39;&#39; NEXT FUNCTION &#39;&#39; (64)</text>
</g>
<!-- node0x5030000004c0&#45;&gt;node0x5030000006a0 -->
<g id="edge2" class="edge">
<title>node0x5030000004c0&#45;&gt;node0x5030000006a0</title>
<path fill="none" stroke="black" d="M859.75,-894.47C893.68,-883.98 934.42,-871.39 969.53,-860.53"/>
<polygon fill="black" stroke="black" points="970.75,-863.82 979.27,-857.52 968.68,-857.13 970.75,-863.82"/>
</g>
<!-- node0x5030000000d0 -->
<g id="node4" class="node">
<title>node0x5030000000d0</title>
<path fill="#f069f5" stroke="black" d="M306,-728.5C306,-728.5 453,-728.5 453,-728.5 459,-728.5 465,-734.5 465,-740.5 465,-740.5 465,-762.5 465,-762.5 465,-768.5 459,-774.5 453,-774.5 453,-774.5 306,-774.5 306,-774.5 300,-774.5 294,-768.5 294,-762.5 294,-762.5 294,-740.5 294,-740.5 294,-734.5 300,-728.5 306,-728.5"/>
<text text-anchor="middle" x="379.5" y="-759.3" font-family="Times,serif" font-size="14.00">type = 4 (FUNC)</text>
<polyline fill="none" stroke="black" points="294,-751.5 465,-751.5 "/>
<text text-anchor="middle" x="379.5" y="-736.3" font-family="Times,serif" font-size="14.00">value = &#39;&#39; CALL &#39;&#39; (67)</text>
</g>
<!-- node0x503000000490&#45;&gt;node0x5030000000d0 -->
<g id="edge3" class="edge">
<title>node0x503000000490&#45;&gt;node0x5030000000d0</title>
<path fill="none" stroke="black" d="M582.63,-811.47C546.34,-800.94 502.74,-788.28 465.25,-777.39"/>
<polygon fill="black" stroke="black" points="465.93,-773.95 455.35,-774.52 463.98,-780.67 465.93,-773.95"/>
</g>
<!-- node0x503000000190 -->
<g id="node5" class="node">
<title>node0x503000000190</title>
<path fill="#e0e0e0" stroke="black" d="M572,-728.5C572,-728.5 745,-728.5 745,-728.5 751,-728.5 757,-734.5 757,-740.5 757,-740.5 757,-762.5 757,-762.5 757,-768.5 751,-774.5 745,-774.5 745,-774.5 572,-774.5 572,-774.5 566,-774.5 560,-768.5 560,-762.5 560,-762.5 560,-740.5 560,-740.5 560,-734.5 566,-728.5 572,-728.5"/>
<text text-anchor="middle" x="658.5" y="-759.3" font-family="Times,serif" font-size="14.00">type = 2 (OP)</text>
<polyline fill="none" stroke="black" points="560,-751.5 757,-751.5 "/>
<text text-anchor="middle" x="658.5" y="-736.3" font-family="Times,serif" font-size="14.00">value = &#39;&#39; SHUTUP &#39;&#39; (59)</text>
</g>
<!-- node0x503000000490&#45;&gt;node0x503000000190 -->
<g id="edge4" class="edge">
<title>node0x503000000490&#45;&gt;node0x503000000190</title>
<path fill="none" stroke="black" d="M658.5,-811.37C658.5,-803.15 658.5,-793.66 658.5,-784.73"/>
<polygon fill="black" stroke="black" points="662,-784.61 658.5,-774.61 655,-784.61 662,-784.61"/>
</g>
<!-- node0x503000000670 -->
<g id="node27" class="node">
<title>node0x503000000670</title>
<path fill="#755cf7" stroke="black" d="M1098.5,-728.5C1098.5,-728.5 1298.5,-728.5 1298.5,-728.5 1304.5,-728.5 1310.5,-734.5 1310.5,-740.5 1310.5,-740.5 1310.5,-762.5 1310.5,-762.5 1310.5,-768.5 1304.5,-774.5 1298.5,-774.5 1298.5,-774.5 1098.5,-774.5 1098.5,-774.5 1092.5,-774.5 1086.5,-768.5 1086.5,-762.5 1086.5,-762.5 1086.5,-740.5 1086.5,-740.5 1086.5,-734.5 1092.5,-728.5 1098.5,-728.5"/>
<text text-anchor="middle" x="1198.5" y="-759.3" font-family="Times,serif" font-size="14.00">type = 4 (FUNC)</text>
<polyline fill="none" stroke="black" points="1086.5,-751.5 1310.5,-751.5 "/>
<text text-anchor="middle" x="1198.5" y="-736.3" font-family="Times,serif" font-size="14.00">value = &#39;&#39; DEFINITION &#39;&#39; (68)</text>
</g>
<!-- node0x5030000006a0&#45;&gt;node0x503000000670 -->
<g id="edge26" class="edge">
<title>node0x5030000006a0&#45;&gt;node0x503000000670</title>
<path fill="none" stroke="black" d="M1090.94,-811.37C1108.97,-801.5 1130.37,-789.79 1149.31,-779.42"/>
<polygon fill="black" stroke="black" points="1151.02,-782.48 1158.11,-774.61 1147.65,-776.34 1151.02,-782.48"/>
</g>
<!-- node0x503000000040 -->
<g id="node6" class="node">
<title>node0x503000000040</title>
<path fill="#2ee31e" stroke="black" d="M138.5,-645.5C138.5,-645.5 280.5,-645.5 280.5,-645.5 286.5,-645.5 292.5,-651.5 292.5,-657.5 292.5,-657.5 292.5,-679.5 292.5,-679.5 292.5,-685.5 286.5,-691.5 280.5,-691.5 280.5,-691.5 138.5,-691.5 138.5,-691.5 132.5,-691.5 126.5,-685.5 126.5,-679.5 126.5,-679.5 126.5,-657.5 126.5,-657.5 126.5,-651.5 132.5,-645.5 138.5,-645.5"/>
<text text-anchor="middle" x="209.5" y="-676.3" font-family="Times,serif" font-size="14.00">type = 4 (FUNC)</text>
<polyline fill="none" stroke="black" points="126.5,-668.5 292.5,-668.5 "/>
<text text-anchor="middle" x="209.5" y="-653.3" font-family="Times,serif" font-size="14.00">value = &#39;&#39; carti &#39;&#39; (20)</text>
</g>
<!-- node0x5030000000d0&#45;&gt;node0x503000000040 -->
<g id="edge5" class="edge">
<title>node0x5030000000d0&#45;&gt;node0x503000000040</title>
<path fill="none" stroke="black" d="M333.05,-728.37C312.06,-718.37 287.09,-706.47 265.11,-696"/>
<polygon fill="black" stroke="black" points="266.43,-692.75 255.9,-691.61 263.42,-699.07 266.43,-692.75"/>
</g>
<!-- node0x5030000000a0 -->
<g id="node7" class="node">
<title>node0x5030000000a0</title>
<path fill="#feaadf" stroke="black" d="M323,-645.5C323,-645.5 436,-645.5 436,-645.5 442,-645.5 448,-651.5 448,-657.5 448,-657.5 448,-679.5 448,-679.5 448,-685.5 442,-691.5 436,-691.5 436,-691.5 323,-691.5 323,-691.5 317,-691.5 311,-685.5 311,-679.5 311,-679.5 311,-657.5 311,-657.5 311,-651.5 317,-645.5 323,-645.5"/>
<text text-anchor="middle" x="379.5" y="-676.3" font-family="Times,serif" font-size="14.00">type = 4 (FUNC)</text>
<polyline fill="none" stroke="black" points="311,-668.5 448,-668.5 "/>
<text text-anchor="middle" x="379.5" y="-653.3" font-family="Times,serif" font-size="14.00">value = &#39;&#39; , &#39;&#39; (44)</text>
</g>
<!-- node0x5030000000d0&#45;&gt;node0x5030000000a0 -->
<g id="edge6" class="edge">
<title>node0x5030000000d0&#45;&gt;node0x5030000000a0</title>
<path fill="none" stroke="black" d="M379.5,-728.37C379.5,-720.15 379.5,-710.66 379.5,-701.73"/>
<polygon fill="black" stroke="black" points="383,-701.61 379.5,-691.61 376,-701.61 383,-701.61"/>
</g>
<!-- node0x503000000160 -->
<g id="node9" class="node">
<title>node0x503000000160</title>
<path fill="#00ffdd" stroke="black" d="M499,-645.5C499,-645.5 620,-645.5 620,-645.5 626,-645.5 632,-651.5 632,-657.5 632,-657.5 632,-679.5 632,-679.5 632,-685.5 626,-691.5 620,-691.5 620,-691.5 499,-691.5 499,-691.5 493,-691.5 487,-685.5 487,-679.5 487,-679.5 487,-657.5 487,-657.5 487,-651.5 493,-645.5 499,-645.5"/>
<text text-anchor="middle" x="559.5" y="-676.3" font-family="Times,serif" font-size="14.00">type = 2 (OP)</text>
<polyline fill="none" stroke="black" points="487,-668.5 632,-668.5 "/>
<text text-anchor="middle" x="559.5" y="-653.3" font-family="Times,serif" font-size="14.00">value = &#39;&#39; = &#39;&#39; (61)</text>
</g>
<!-- node0x503000000190&#45;&gt;node0x503000000160 -->
<g id="edge8" class="edge">
<title>node0x503000000190&#45;&gt;node0x503000000160</title>
<path fill="none" stroke="black" d="M631.45,-728.37C619.99,-718.99 606.49,-707.95 594.31,-697.98"/>
<polygon fill="black" stroke="black" points="596.48,-695.23 586.52,-691.61 592.04,-700.65 596.48,-695.23"/>
</g>
<!-- node0x503000000250 -->
<g id="node10" class="node">
<title>node0x503000000250</title>
<path fill="#e0e0e0" stroke="black" d="M662,-645.5C662,-645.5 835,-645.5 835,-645.5 841,-645.5 847,-651.5 847,-657.5 847,-657.5 847,-679.5 847,-679.5 847,-685.5 841,-691.5 835,-691.5 835,-691.5 662,-691.5 662,-691.5 656,-691.5 650,-685.5 650,-679.5 650,-679.5 650,-657.5 650,-657.5 650,-651.5 656,-645.5 662,-645.5"/>
<text text-anchor="middle" x="748.5" y="-676.3" font-family="Times,serif" font-size="14.00">type = 2 (OP)</text>
<polyline fill="none" stroke="black" points="650,-668.5 847,-668.5 "/>
<text text-anchor="middle" x="748.5" y="-653.3" font-family="Times,serif" font-size="14.00">value = &#39;&#39; SHUTUP &#39;&#39; (59)</text>
</g>
<!-- node0x503000000190&#45;&gt;node0x503000000250 -->
<g id="edge9" class="edge">
<title>node0x503000000190&#45;&gt;node0x503000000250</title>
<path fill="none" stroke="black" d="M683.09,-728.37C693.31,-719.17 705.31,-708.37 716.22,-698.55"/>
<polygon fill="black" stroke="black" points="718.85,-700.9 723.94,-691.61 714.16,-695.69 718.85,-700.9"/>
</g>
<!-- node0x503000000070 -->
<g id="node8" class="node">
<title>node0x503000000070</title>
<path fill="#ff5050" stroke="black" d="M12,-516.5C12,-516.5 225,-516.5 225,-516.5 231,-516.5 237,-522.5 237,-528.5 237,-528.5 237,-596.5 237,-596.5 237,-602.5 231,-608.5 225,-608.5 225,-608.5 12,-608.5 12,-608.5 6,-608.5 0,-602.5 0,-596.5 0,-596.5 0,-528.5 0,-528.5 0,-522.5 6,-516.5 12,-516.5"/>
<text text-anchor="middle" x="118.5" y="-593.3" font-family="Times,serif" font-size="14.00">type = 3 (ID)</text>
<polyline fill="none" stroke="black" points="0,-585.5 237,-585.5 "/>
<text text-anchor="middle" x="118.5" y="-570.3" font-family="Times,serif" font-size="14.00">name = &#39;&#39; void &#39;&#39;</text>
<polyline fill="none" stroke="black" points="0,-562.5 237,-562.5 "/>
<text text-anchor="middle" x="118.5" y="-547.3" font-family="Times,serif" font-size="14.00">number in name table = &#39;&#39; 21 &#39;&#39;</text>
<polyline fill="none" stroke="black" points="0,-539.5 237,-539.5 "/>
<text text-anchor="middle" x="118.5" y="-524.3" font-family="Times,serif" font-size="14.00">id_type = PARM</text>
</g>
<!-- node0x5030000000a0&#45;&gt;node0x503000000070 -->
<g id="edge7" class="edge">
<title>node0x5030000000a0&#45;&gt;node0x503000000070</title>
<path fill="none" stroke="black" d="M324.15,-645.44C299.78,-635.73 270.1,-623.91 240.96,-612.3"/>
<polygon fill="black" stroke="black" points="242.11,-608.99 231.53,-608.54 239.52,-615.49 242.11,-608.99"/>
</g>
<!-- node0x503000000100 -->
<g id="node11" class="node">
<title>node0x503000000100</title>
<path fill="#ff5050" stroke="black" d="M267,-516.5C267,-516.5 480,-516.5 480,-516.5 486,-516.5 492,-522.5 492,-528.5 492,-528.5 492,-596.5 492,-596.5 492,-602.5 486,-608.5 480,-608.5 480,-608.5 267,-608.5 267,-608.5 261,-608.5 255,-602.5 255,-596.5 255,-596.5 255,-528.5 255,-528.5 255,-522.5 261,-516.5 267,-516.5"/>
<text text-anchor="middle" x="373.5" y="-593.3" font-family="Times,serif" font-size="14.00">type = 3 (ID)</text>
<polyline fill="none" stroke="black" points="255,-585.5 492,-585.5 "/>
<text text-anchor="middle" x="373.5" y="-570.3" font-family="Times,serif" font-size="14.00">name = &#39;&#39; bro &#39;&#39;</text>
<polyline fill="none" stroke="black" points="255,-562.5 492,-562.5 "/>
<text text-anchor="middle" x="373.5" y="-547.3" font-family="Times,serif" font-size="14.00">number in name table = &#39;&#39; 22 &#39;&#39;</text>
<polyline fill="none" stroke="black" points="255,-539.5 492,-539.5 "/>
<text text-anchor="middle" x="373.5" y="-524.3" font-family="Times,serif" font-size="14.00">id_type = LOCL</text>
</g>
<!-- node0x503000000160&#45;&gt;node0x503000000100 -->
<g id="edge10" class="edge">
<title>node0x503000000160&#45;&gt;node0x503000000100</title>
<path fill="none" stroke="black" d="M520.05,-645.44C503.33,-636.1 483.11,-624.79 463.1,-613.6"/>
<polygon fill="black" stroke="black" points="464.67,-610.47 454.24,-608.64 461.26,-616.58 464.67,-610.47"/>
</g>
<!-- node0x503000000130 -->
<g id="node12" class="node">
<title>node0x503000000130</title>
<path fill="#ffd700" stroke="black" d="M522,-539.5C522,-539.5 629,-539.5 629,-539.5 635,-539.5 641,-545.5 641,-551.5 641,-551.5 641,-573.5 641,-573.5 641,-579.5 635,-585.5 629,-585.5 629,-585.5 522,-585.5 522,-585.5 516,-585.5 510,-579.5 510,-573.5 510,-573.5 510,-551.5 510,-551.5 510,-545.5 516,-539.5 522,-539.5"/>
<text text-anchor="middle" x="575.5" y="-570.3" font-family="Times,serif" font-size="14.00">type = 1 (NUM)</text>
<polyline fill="none" stroke="black" points="510,-562.5 641,-562.5 "/>
<text text-anchor="middle" x="575.5" y="-547.3" font-family="Times,serif" font-size="14.00">value = &#39;&#39; 25 &#39;&#39;</text>
</g>
<!-- node0x503000000160&#45;&gt;node0x503000000130 -->
<g id="edge11" class="edge">
<title>node0x503000000160&#45;&gt;node0x503000000130</title>
<path fill="none" stroke="black" d="M562.89,-645.44C565.12,-630.97 568.07,-611.79 570.56,-595.63"/>
<polygon fill="black" stroke="black" points="574.05,-595.94 572.11,-585.52 567.13,-594.88 574.05,-595.94"/>
</g>
<!-- node0x503000000220 -->
<g id="node13" class="node">
<title>node0x503000000220</title>
<path fill="#00ffdd" stroke="black" d="M671,-539.5C671,-539.5 792,-539.5 792,-539.5 798,-539.5 804,-545.5 804,-551.5 804,-551.5 804,-573.5 804,-573.5 804,-579.5 798,-585.5 792,-585.5 792,-585.5 671,-585.5 671,-585.5 665,-585.5 659,-579.5 659,-573.5 659,-573.5 659,-551.5 659,-551.5 659,-545.5 665,-539.5 671,-539.5"/>
<text text-anchor="middle" x="731.5" y="-570.3" font-family="Times,serif" font-size="14.00">type = 2 (OP)</text>
<polyline fill="none" stroke="black" points="659,-562.5 804,-562.5 "/>
<text text-anchor="middle" x="731.5" y="-547.3" font-family="Times,serif" font-size="14.00">value = &#39;&#39; = &#39;&#39; (61)</text>
</g>
<!-- node0x503000000250&#45;&gt;node0x503000000220 -->
<g id="edge12" class="edge">
<title>node0x503000000250&#45;&gt;node0x503000000220</title>
<path fill="none" stroke="black" d="M744.89,-645.44C742.53,-630.97 739.39,-611.79 736.75,-595.63"/>
<polygon fill="black" stroke="black" points="740.17,-594.83 735.1,-585.52 733.26,-595.96 740.17,-594.83"/>
</g>
<!-- node0x5030000003a0 -->
<g id="node14" class="node">
<title>node0x5030000003a0</title>
<path fill="#e0e0e0" stroke="black" d="M834,-539.5C834,-539.5 1007,-539.5 1007,-539.5 1013,-539.5 1019,-545.5 1019,-551.5 1019,-551.5 1019,-573.5 1019,-573.5 1019,-579.5 1013,-585.5 1007,-585.5 1007,-585.5 834,-585.5 834,-585.5 828,-585.5 822,-579.5 822,-573.5 822,-573.5 822,-551.5 822,-551.5 822,-545.5 828,-539.5 834,-539.5"/>
<text text-anchor="middle" x="920.5" y="-570.3" font-family="Times,serif" font-size="14.00">type = 2 (OP)</text>
<polyline fill="none" stroke="black" points="822,-562.5 1019,-562.5 "/>
<text text-anchor="middle" x="920.5" y="-547.3" font-family="Times,serif" font-size="14.00">value = &#39;&#39; SHUTUP &#39;&#39; (59)</text>
</g>
<!-- node0x503000000250&#45;&gt;node0x5030000003a0 -->
<g id="edge13" class="edge">
<title>node0x503000000250&#45;&gt;node0x5030000003a0</title>
<path fill="none" stroke="black" d="M784.98,-645.44C811.32,-629.52 847.05,-607.91 875.22,-590.88"/>
<polygon fill="black" stroke="black" points="877.33,-593.69 884.08,-585.52 873.71,-587.7 877.33,-593.69"/>
</g>
<!-- node0x5030000001c0 -->
<g id="node15" class="node">
<title>node0x5030000001c0</title>
<path fill="#ff5050" stroke="black" d="M423,-387.5C423,-387.5 636,-387.5 636,-387.5 642,-387.5 648,-393.5 648,-399.5 648,-399.5 648,-467.5 648,-467.5 648,-473.5 642,-479.5 636,-479.5 636,-479.5 423,-479.5 423,-479.5 417,-479.5 411,-473.5 411,-467.5 411,-467.5 411,-399.5 411,-399.5 411,-393.5 417,-387.5 423,-387.5"/>
<text text-anchor="middle" x="529.5" y="-464.3" font-family="Times,serif" font-size="14.00">type = 3 (ID)</text>
<polyline fill="none" stroke="black" points="411,-456.5 648,-456.5 "/>
<text text-anchor="middle" x="529.5" y="-441.3" font-family="Times,serif" font-size="14.00">name = &#39;&#39; dude &#39;&#39;</text>
<polyline fill="none" stroke="black" points="411,-433.5 648,-433.5 "/>
<text text-anchor="middle" x="529.5" y="-418.3" font-family="Times,serif" font-size="14.00">number in name table = &#39;&#39; 23 &#39;&#39;</text>
<polyline fill="none" stroke="black" points="411,-410.5 648,-410.5 "/>
<text text-anchor="middle" x="529.5" y="-395.3" font-family="Times,serif" font-size="14.00">id_type = PARM</text>
</g>
<!-- node0x503000000220&#45;&gt;node0x5030000001c0 -->
<g id="edge14" class="edge">
<title>node0x503000000220&#45;&gt;node0x5030000001c0</title>
<path fill="none" stroke="black" d="M696.31,-539.38C672.55,-524.44 640.17,-504.08 610.27,-485.28"/>
<polygon fill="black" stroke="black" points="611.82,-482.12 601.49,-479.76 608.09,-488.05 611.82,-482.12"/>
</g>
<!-- node0x5030000001f0 -->
<g id="node16" class="node">
<title>node0x5030000001f0</title>
<path fill="#ffd700" stroke="black" d="M678,-410.5C678,-410.5 785,-410.5 785,-410.5 791,-410.5 797,-416.5 797,-422.5 797,-422.5 797,-444.5 797,-444.5 797,-450.5 791,-456.5 785,-456.5 785,-456.5 678,-456.5 678,-456.5 672,-456.5 666,-450.5 666,-444.5 666,-444.5 666,-422.5 666,-422.5 666,-416.5 672,-410.5 678,-410.5"/>
<text text-anchor="middle" x="731.5" y="-441.3" font-family="Times,serif" font-size="14.00">type = 1 (NUM)</text>
<polyline fill="none" stroke="black" points="666,-433.5 797,-433.5 "/>
<text text-anchor="middle" x="731.5" y="-418.3" font-family="Times,serif" font-size="14.00">value = &#39;&#39; 10 &#39;&#39;</text>
</g>
<!-- node0x503000000220&#45;&gt;node0x5030000001f0 -->
<g id="edge15" class="edge">
<title>node0x503000000220&#45;&gt;node0x5030000001f0</title>
<path fill="none" stroke="black" d="M731.5,-539.38C731.5,-519.38 731.5,-489.68 731.5,-466.98"/>
<polygon fill="black" stroke="black" points="735,-466.79 731.5,-456.79 728,-466.79 735,-466.79"/>
</g>
<!-- node0x503000000370 -->
<g id="node17" class="node">
<title>node0x503000000370</title>
<path fill="#00ffdd" stroke="black" d="M827,-410.5C827,-410.5 948,-410.5 948,-410.5 954,-410.5 960,-416.5 960,-422.5 960,-422.5 960,-444.5 960,-444.5 960,-450.5 954,-456.5 948,-456.5 948,-456.5 827,-456.5 827,-456.5 821,-456.5 815,-450.5 815,-444.5 815,-444.5 815,-422.5 815,-422.5 815,-416.5 821,-410.5 827,-410.5"/>
<text text-anchor="middle" x="887.5" y="-441.3" font-family="Times,serif" font-size="14.00">type = 2 (OP)</text>
<polyline fill="none" stroke="black" points="815,-433.5 960,-433.5 "/>
<text text-anchor="middle" x="887.5" y="-418.3" font-family="Times,serif" font-size="14.00">value = &#39;&#39; = &#39;&#39; (61)</text>
</g>
<!-- node0x5030000003a0&#45;&gt;node0x503000000370 -->
<g id="edge16" class="edge">
<title>node0x5030000003a0&#45;&gt;node0x503000000370</title>
<path fill="none" stroke="black" d="M914.75,-539.38C909.53,-519.29 901.77,-489.41 895.86,-466.68"/>
<polygon fill="black" stroke="black" points="899.2,-465.59 893.29,-456.79 892.42,-467.35 899.2,-465.59"/>
</g>
<!-- node0x503000000460 -->
<g id="node18" class="node">
<title>node0x503000000460</title>
<path fill="#e0e0e0" stroke="black" d="M990,-410.5C990,-410.5 1163,-410.5 1163,-410.5 1169,-410.5 1175,-416.5 1175,-422.5 1175,-422.5 1175,-444.5 1175,-444.5 1175,-450.5 1169,-456.5 1163,-456.5 1163,-456.5 990,-456.5 990,-456.5 984,-456.5 978,-450.5 978,-444.5 978,-444.5 978,-422.5 978,-422.5 978,-416.5 984,-410.5 990,-410.5"/>
<text text-anchor="middle" x="1076.5" y="-441.3" font-family="Times,serif" font-size="14.00">type = 2 (OP)</text>
<polyline fill="none" stroke="black" points="978,-433.5 1175,-433.5 "/>
<text text-anchor="middle" x="1076.5" y="-418.3" font-family="Times,serif" font-size="14.00">value = &#39;&#39; SHUTUP &#39;&#39; (59)</text>
</g>
<!-- node0x5030000003a0&#45;&gt;node0x503000000460 -->
<g id="edge17" class="edge">
<title>node0x5030000003a0&#45;&gt;node0x503000000460</title>
<path fill="none" stroke="black" d="M947.67,-539.38C973.65,-518.23 1012.96,-486.23 1041.32,-463.14"/>
<polygon fill="black" stroke="black" points="1043.83,-465.61 1049.38,-456.58 1039.41,-460.18 1043.83,-465.61"/>
</g>
<!-- node0x503000000280 -->
<g id="node19" class="node">
<title>node0x503000000280</title>
<path fill="#ff5050" stroke="black" d="M559,-258.5C559,-258.5 772,-258.5 772,-258.5 778,-258.5 784,-264.5 784,-270.5 784,-270.5 784,-338.5 784,-338.5 784,-344.5 778,-350.5 772,-350.5 772,-350.5 559,-350.5 559,-350.5 553,-350.5 547,-344.5 547,-338.5 547,-338.5 547,-270.5 547,-270.5 547,-264.5 553,-258.5 559,-258.5"/>
<text text-anchor="middle" x="665.5" y="-335.3" font-family="Times,serif" font-size="14.00">type = 3 (ID)</text>
<polyline fill="none" stroke="black" points="547,-327.5 784,-327.5 "/>
<text text-anchor="middle" x="665.5" y="-312.3" font-family="Times,serif" font-size="14.00">name = &#39;&#39; bro &#39;&#39;</text>
<polyline fill="none" stroke="black" points="547,-304.5 784,-304.5 "/>
<text text-anchor="middle" x="665.5" y="-289.3" font-family="Times,serif" font-size="14.00">number in name table = &#39;&#39; 22 &#39;&#39;</text>
<polyline fill="none" stroke="black" points="547,-281.5 784,-281.5 "/>
<text text-anchor="middle" x="665.5" y="-266.3" font-family="Times,serif" font-size="14.00">id_type = LOCL</text>
</g>
<!-- node0x503000000370&#45;&gt;node0x503000000280 -->
<g id="edge18" class="edge">
<title>node0x503000000370&#45;&gt;node0x503000000280</title>
<path fill="none" stroke="black" d="M848.83,-410.38C822.49,-395.31 786.52,-374.73 753.42,-355.79"/>
<polygon fill="black" stroke="black" points="755.04,-352.69 744.62,-350.76 751.56,-358.77 755.04,-352.69"/>
</g>
<!-- node0x503000000340 -->
<g id="node20" class="node">
<title>node0x503000000340</title>
<path fill="#f069f5" stroke="black" d="M814,-281.5C814,-281.5 961,-281.5 961,-281.5 967,-281.5 973,-287.5 973,-293.5 973,-293.5 973,-315.5 973,-315.5 973,-321.5 967,-327.5 961,-327.5 961,-327.5 814,-327.5 814,-327.5 808,-327.5 802,-321.5 802,-315.5 802,-315.5 802,-293.5 802,-293.5 802,-287.5 808,-281.5 814,-281.5"/>
<text text-anchor="middle" x="887.5" y="-312.3" font-family="Times,serif" font-size="14.00">type = 4 (FUNC)</text>
<polyline fill="none" stroke="black" points="802,-304.5 973,-304.5 "/>
<text text-anchor="middle" x="887.5" y="-289.3" font-family="Times,serif" font-size="14.00">value = &#39;&#39; CALL &#39;&#39; (67)</text>
</g>
<!-- node0x503000000370&#45;&gt;node0x503000000340 -->
<g id="edge19" class="edge">
<title>node0x503000000370&#45;&gt;node0x503000000340</title>
<path fill="none" stroke="black" d="M887.5,-410.38C887.5,-390.38 887.5,-360.68 887.5,-337.98"/>
<polygon fill="black" stroke="black" points="891,-337.79 887.5,-327.79 884,-337.79 891,-337.79"/>
</g>
<!-- node0x503000000430 -->
<g id="node24" class="node">
<title>node0x503000000430</title>
<path fill="#00ffdd" stroke="black" d="M1032,-281.5C1032,-281.5 1153,-281.5 1153,-281.5 1159,-281.5 1165,-287.5 1165,-293.5 1165,-293.5 1165,-315.5 1165,-315.5 1165,-321.5 1159,-327.5 1153,-327.5 1153,-327.5 1032,-327.5 1032,-327.5 1026,-327.5 1020,-321.5 1020,-315.5 1020,-315.5 1020,-293.5 1020,-293.5 1020,-287.5 1026,-281.5 1032,-281.5"/>
<text text-anchor="middle" x="1092.5" y="-312.3" font-family="Times,serif" font-size="14.00">type = 2 (OP)</text>
<polyline fill="none" stroke="black" points="1020,-304.5 1165,-304.5 "/>
<text text-anchor="middle" x="1092.5" y="-289.3" font-family="Times,serif" font-size="14.00">value = &#39;&#39; = &#39;&#39; (61)</text>
</g>
<!-- node0x503000000460&#45;&gt;node0x503000000430 -->
<g id="edge23" class="edge">
<title>node0x503000000460&#45;&gt;node0x503000000430</title>
<path fill="none" stroke="black" d="M1079.29,-410.38C1081.81,-390.38 1085.55,-360.68 1088.41,-337.98"/>
<polygon fill="black" stroke="black" points="1091.91,-338.15 1089.69,-327.79 1084.97,-337.28 1091.91,-338.15"/>
</g>
<!-- node0x5030000002b0 -->
<g id="node21" class="node">
<title>node0x5030000002b0</title>
<path fill="#2ee31e" stroke="black" d="M650.5,-152.5C650.5,-152.5 788.5,-152.5 788.5,-152.5 794.5,-152.5 800.5,-158.5 800.5,-164.5 800.5,-164.5 800.5,-186.5 800.5,-186.5 800.5,-192.5 794.5,-198.5 788.5,-198.5 788.5,-198.5 650.5,-198.5 650.5,-198.5 644.5,-198.5 638.5,-192.5 638.5,-186.5 638.5,-186.5 638.5,-164.5 638.5,-164.5 638.5,-158.5 644.5,-152.5 650.5,-152.5"/>
<text text-anchor="middle" x="719.5" y="-183.3" font-family="Times,serif" font-size="14.00">type = 4 (FUNC)</text>
<polyline fill="none" stroke="black" points="638.5,-175.5 800.5,-175.5 "/>
<text text-anchor="middle" x="719.5" y="-160.3" font-family="Times,serif" font-size="14.00">value = &#39;&#39; eval &#39;&#39; (24)</text>
</g>
<!-- node0x503000000340&#45;&gt;node0x5030000002b0 -->
<g id="edge20" class="edge">
<title>node0x503000000340&#45;&gt;node0x5030000002b0</title>
<path fill="none" stroke="black" d="M858.24,-281.38C830.14,-260.14 787.56,-227.95 756.99,-204.84"/>
<polygon fill="black" stroke="black" points="758.8,-201.82 748.71,-198.58 754.58,-207.4 758.8,-201.82"/>
</g>
<!-- node0x503000000310 -->
<g id="node22" class="node">
<title>node0x503000000310</title>
<path fill="#feaadf" stroke="black" d="M831,-152.5C831,-152.5 944,-152.5 944,-152.5 950,-152.5 956,-158.5 956,-164.5 956,-164.5 956,-186.5 956,-186.5 956,-192.5 950,-198.5 944,-198.5 944,-198.5 831,-198.5 831,-198.5 825,-198.5 819,-192.5 819,-186.5 819,-186.5 819,-164.5 819,-164.5 819,-158.5 825,-152.5 831,-152.5"/>
<text text-anchor="middle" x="887.5" y="-183.3" font-family="Times,serif" font-size="14.00">type = 4 (FUNC)</text>
<polyline fill="none" stroke="black" points="819,-175.5 956,-175.5 "/>
<text text-anchor="middle" x="887.5" y="-160.3" font-family="Times,serif" font-size="14.00">value = &#39;&#39; , &#39;&#39; (44)</text>
</g>
<!-- node0x503000000340&#45;&gt;node0x503000000310 -->
<g id="edge21" class="edge">
<title>node0x503000000340&#45;&gt;node0x503000000310</title>
<path fill="none" stroke="black" d="M887.5,-281.38C887.5,-261.38 887.5,-231.68 887.5,-208.98"/>
<polygon fill="black" stroke="black" points="891,-208.79 887.5,-198.79 884,-208.79 891,-208.79"/>
</g>
<!-- node0x5030000002e0 -->
<g id="node23" class="node">
<title>node0x5030000002e0</title>
<path fill="#ff5050" stroke="black" d="M781,-0.5C781,-0.5 994,-0.5 994,-0.5 1000,-0.5 1006,-6.5 1006,-12.5 1006,-12.5 1006,-80.5 1006,-80.5 1006,-86.5 1000,-92.5 994,-92.5 994,-92.5 781,-92.5 781,-92.5 775,-92.5 769,-86.5 769,-80.5 769,-80.5 769,-12.5 769,-12.5 769,-6.5 775,-0.5 781,-0.5"/>
<text text-anchor="middle" x="887.5" y="-77.3" font-family="Times,serif" font-size="14.00">type = 3 (ID)</text>
<polyline fill="none" stroke="black" points="769,-69.5 1006,-69.5 "/>
<text text-anchor="middle" x="887.5" y="-54.3" font-family="Times,serif" font-size="14.00">name = &#39;&#39; dude &#39;&#39;</text>
<polyline fill="none" stroke="black" points="769,-46.5 1006,-46.5 "/>
<text text-anchor="middle" x="887.5" y="-31.3" font-family="Times,serif" font-size="14.00">number in name table = &#39;&#39; 23 &#39;&#39;</text>
<polyline fill="none" stroke="black" points="769,-23.5 1006,-23.5 "/>
<text text-anchor="middle" x="887.5" y="-8.3" font-family="Times,serif" font-size="14.00">id_type = PARM</text>
</g>
<!-- node0x503000000310&#45;&gt;node0x5030000002e0 -->
<g id="edge22" class="edge">
<title>node0x503000000310&#45;&gt;node0x5030000002e0</title>
<path fill="none" stroke="black" d="M887.5,-152.38C887.5,-138.66 887.5,-120.37 887.5,-102.91"/>
<polygon fill="black" stroke="black" points="891,-102.76 887.5,-92.76 884,-102.76 891,-102.76"/>
</g>
<!-- node0x5030000003d0 -->
<g id="node25" class="node">
<title>node0x5030000003d0</title>
<path fill="#ff5050" stroke="black" d="M986,-129.5C986,-129.5 1199,-129.5 1199,-129.5 1205,-129.5 1211,-135.5 1211,-141.5 1211,-141.5 1211,-209.5 1211,-209.5 1211,-215.5 1205,-221.5 1199,-221.5 1199,-221.5 986,-221.5 986,-221.5 980,-221.5 974,-215.5 974,-209.5 974,-209.5 974,-141.5 974,-141.5 974,-135.5 980,-129.5 986,-129.5"/>
<text text-anchor="middle" x="1092.5" y="-206.3" font-family="Times,serif" font-size="14.00">type = 3 (ID)</text>
<polyline fill="none" stroke="black" points="974,-198.5 1211,-198.5 "/>
<text text-anchor="middle" x="1092.5" y="-183.3" font-family="Times,serif" font-size="14.00">name = &#39;&#39; bro &#39;&#39;</text>
<polyline fill="none" stroke="black" points="974,-175.5 1211,-175.5 "/>
<text text-anchor="middle" x="1092.5" y="-160.3" font-family="Times,serif" font-size="14.00">number in name table = &#39;&#39; 22 &#39;&#39;</text>
<polyline fill="none" stroke="black" points="974,-152.5 1211,-152.5 "/>
<text text-anchor="middle" x="1092.5" y="-137.3" font-family="Times,serif" font-size="14.00">id_type = LOCL</text>
</g>
<!-- node0x503000000430&#45;&gt;node0x5030000003d0 -->
<g id="edge24" class="edge">
<title>node0x503000000430&#45;&gt;node0x5030000003d0</title>
<path fill="none" stroke="black" d="M1092.5,-281.38C1092.5,-267.66 1092.5,-249.37 1092.5,-231.91"/>
<polygon fill="black" stroke="black" points="1096,-231.76 1092.5,-221.76 1089,-231.76 1096,-231.76"/>
</g>
<!-- node0x503000000400 -->
<g id="node26" class="node">
<title>node0x503000000400</title>
<path fill="#ff5050" stroke="black" d="M1241,-129.5C1241,-129.5 1454,-129.5 1454,-129.5 1460,-129.5 1466,-135.5 1466,-141.5 1466,-141.5 1466,-209.5 1466,-209.5 1466,-215.5 1460,-221.5 1454,-221.5 1454,-221.5 1241,-221.5 1241,-221.5 1235,-221.5 1229,-215.5 1229,-209.5 1229,-209.5 1229,-141.5 1229,-141.5 1229,-135.5 1235,-129.5 1241,-129.5"/>
<text text-anchor="middle" x="1347.5" y="-206.3" font-family="Times,serif" font-size="14.00">type = 3 (ID)</text>
<polyline fill="none" stroke="black" points="1229,-198.5 1466,-198.5 "/>
<text text-anchor="middle" x="1347.5" y="-183.3" font-family="Times,serif" font-size="14.00">name = &#39;&#39; bro &#39;&#39;</text>
<polyline fill="none" stroke="black" points="1229,-175.5 1466,-175.5 "/>
<text text-anchor="middle" x="1347.5" y="-160.3" font-family="Times,serif" font-size="14.00">number in name table = &#39;&#39; 22 &#39;&#39;</text>
<polyline fill="none" stroke="black" points="1229,-152.5 1466,-152.5 "/>
<text text-anchor="middle" x="1347.5" y="-137.3" font-family="Times,serif" font-size="14.00">id_type = LOCL</text>
</g>
<!-- node0x503000000430&#45;&gt;node0x503000000400 -->
<g id="edge25" class="edge">
<title>node0x503000000430&#45;&gt;node0x503000000400</title>
<path fill="none" stroke="black" d="M1136.92,-281.38C1167.5,-266.15 1209.38,-245.29 1247.73,-226.19"/>
<polygon fill="black" stroke="black" points="1249.49,-229.22 1256.88,-221.63 1246.37,-222.96 1249.49,-229.22"/>
</g>
<!-- node0x503000000580 -->
<g id="node28" class="node">
<title>node0x503000000580</title>
<path fill="#f069f5" stroke="black" d="M1125,-645.5C1125,-645.5 1272,-645.5 1272,-645.5 1278,-645.5 1284,-651.5 1284,-657.5 1284,-657.5 1284,-679.5 1284,-679.5 1284,-685.5 1278,-691.5 1272,-691.5 1272,-691.5 1125,-691.5 1125,-691.5 1119,-691.5 1113,-685.5 1113,-679.5 1113,-679.5 1113,-657.5 1113,-657.5 1113,-651.5 1119,-645.5 1125,-645.5"/>
<text text-anchor="middle" x="1198.5" y="-676.3" font-family="Times,serif" font-size="14.00">type = 4 (FUNC)</text>
<polyline fill="none" stroke="black" points="1113,-668.5 1284,-668.5 "/>
<text text-anchor="middle" x="1198.5" y="-653.3" font-family="Times,serif" font-size="14.00">value = &#39;&#39; CALL &#39;&#39; (67)</text>
</g>
<!-- node0x503000000670&#45;&gt;node0x503000000580 -->
<g id="edge27" class="edge">
<title>node0x503000000670&#45;&gt;node0x503000000580</title>
<path fill="none" stroke="black" d="M1198.5,-728.37C1198.5,-720.15 1198.5,-710.66 1198.5,-701.73"/>
<polygon fill="black" stroke="black" points="1202,-701.61 1198.5,-691.61 1195,-701.61 1202,-701.61"/>
</g>
<!-- node0x503000000640 -->
<g id="node29" class="node">
<title>node0x503000000640</title>
<path fill="#e0e0e0" stroke="black" d="M1424,-645.5C1424,-645.5 1597,-645.5 1597,-645.5 1603,-645.5 1609,-651.5 1609,-657.5 1609,-657.5 1609,-679.5 1609,-679.5 1609,-685.5 1603,-691.5 1597,-691.5 1597,-691.5 1424,-691.5 1424,-691.5 1418,-691.5 1412,-685.5 1412,-679.5 1412,-679.5 1412,-657.5 1412,-657.5 1412,-651.5 1418,-645.5 1424,-645.5"/>
<text text-anchor="middle" x="1510.5" y="-676.3" font-family="Times,serif" font-size="14.00">type = 2 (OP)</text>
<polyline fill="none" stroke="black" points="1412,-668.5 1609,-668.5 "/>
<text text-anchor="middle" x="1510.5" y="-653.3" font-family="Times,serif" font-size="14.00">value = &#39;&#39; SHUTUP &#39;&#39; (59)</text>
</g>
<!-- node0x503000000670&#45;&gt;node0x503000000640 -->
<g id="edge28" class="edge">
<title>node0x503000000670&#45;&gt;node0x503000000640</title>
<path fill="none" stroke="black" d="M1283.34,-728.47C1324.36,-717.83 1373.72,-705.01 1415.94,-694.05"/>
<polygon fill="black" stroke="black" points="1416.87,-697.42 1425.67,-691.52 1415.11,-690.65 1416.87,-697.42"/>
</g>
<!-- node0x5030000004f0 -->
<g id="node30" class="node">
<title>node0x5030000004f0</title>
<path fill="#2ee31e" stroke="black" d="M1074.5,-539.5C1074.5,-539.5 1212.5,-539.5 1212.5,-539.5 1218.5,-539.5 1224.5,-545.5 1224.5,-551.5 1224.5,-551.5 1224.5,-573.5 1224.5,-573.5 1224.5,-579.5 1218.5,-585.5 1212.5,-585.5 1212.5,-585.5 1074.5,-585.5 1074.5,-585.5 1068.5,-585.5 1062.5,-579.5 1062.5,-573.5 1062.5,-573.5 1062.5,-551.5 1062.5,-551.5 1062.5,-545.5 1068.5,-539.5 1074.5,-539.5"/>
<text text-anchor="middle" x="1143.5" y="-570.3" font-family="Times,serif" font-size="14.00">type = 4 (FUNC)</text>
<polyline fill="none" stroke="black" points="1062.5,-562.5 1224.5,-562.5 "/>
<text text-anchor="middle" x="1143.5" y="-547.3" font-family="Times,serif" font-size="14.00">value = &#39;&#39; eval &#39;&#39; (24)</text>
</g>
<!-- node0x503000000580&#45;&gt;node0x5030000004f0 -->
<g id="edge29" class="edge">
<title>node0x503000000580&#45;&gt;node0x5030000004f0</title>
<path fill="none" stroke="black" d="M1186.84,-645.44C1179.03,-630.69 1168.65,-611.06 1160,-594.71"/>
<polygon fill="black" stroke="black" points="1162.92,-592.73 1155.15,-585.52 1156.73,-596 1162.92,-592.73"/>
</g>
<!-- node0x503000000550 -->
<g id="node31" class="node">
<title>node0x503000000550</title>
<path fill="#feaadf" stroke="black" d="M1255,-539.5C1255,-539.5 1368,-539.5 1368,-539.5 1374,-539.5 1380,-545.5 1380,-551.5 1380,-551.5 1380,-573.5 1380,-573.5 1380,-579.5 1374,-585.5 1368,-585.5 1368,-585.5 1255,-585.5 1255,-585.5 1249,-585.5 1243,-579.5 1243,-573.5 1243,-573.5 1243,-551.5 1243,-551.5 1243,-545.5 1249,-539.5 1255,-539.5"/>
<text text-anchor="middle" x="1311.5" y="-570.3" font-family="Times,serif" font-size="14.00">type = 4 (FUNC)</text>
<polyline fill="none" stroke="black" points="1243,-562.5 1380,-562.5 "/>
<text text-anchor="middle" x="1311.5" y="-547.3" font-family="Times,serif" font-size="14.00">value = &#39;&#39; , &#39;&#39; (44)</text>
</g>
<!-- node0x503000000580&#45;&gt;node0x503000000550 -->
<g id="edge30" class="edge">
<title>node0x503000000580&#45;&gt;node0x503000000550</title>
<path fill="none" stroke="black" d="M1222.46,-645.44C1239.24,-630 1261.83,-609.21 1280.06,-592.44"/>
<polygon fill="black" stroke="black" points="1282.58,-594.87 1287.57,-585.52 1277.84,-589.72 1282.58,-594.87"/>
</g>
<!-- node0x503000000610 -->
<g id="node33" class="node">
<title>node0x503000000610</title>
<path fill="#00ffdd" stroke="black" d="M1506,-539.5C1506,-539.5 1627,-539.5 1627,-539.5 1633,-539.5 1639,-545.5 1639,-551.5 1639,-551.5 1639,-573.5 1639,-573.5 1639,-579.5 1633,-585.5 1627,-585.5 1627,-585.5 1506,-585.5 1506,-585.5 1500,-585.5 1494,-579.5 1494,-573.5 1494,-573.5 1494,-551.5 1494,-551.5 1494,-545.5 1500,-539.5 1506,-539.5"/>
<text text-anchor="middle" x="1566.5" y="-570.3" font-family="Times,serif" font-size="14.00">type = 2 (OP)</text>
<polyline fill="none" stroke="black" points="1494,-562.5 1639,-562.5 "/>
<text text-anchor="middle" x="1566.5" y="-547.3" font-family="Times,serif" font-size="14.00">value = &#39;&#39; = &#39;&#39; (61)</text>
</g>
<!-- node0x503000000640&#45;&gt;node0x503000000610 -->
<g id="edge32" class="edge">
<title>node0x503000000640&#45;&gt;node0x503000000610</title>
<path fill="none" stroke="black" d="M1522.38,-645.44C1530.32,-630.69 1540.89,-611.06 1549.7,-594.71"/>
<polygon fill="black" stroke="black" points="1552.98,-595.99 1554.64,-585.52 1546.82,-592.67 1552.98,-595.99"/>
</g>
<!-- node0x503000000520 -->
<g id="node32" class="node">
<title>node0x503000000520</title>
<path fill="#ff5050" stroke="black" d="M1205,-387.5C1205,-387.5 1418,-387.5 1418,-387.5 1424,-387.5 1430,-393.5 1430,-399.5 1430,-399.5 1430,-467.5 1430,-467.5 1430,-473.5 1424,-479.5 1418,-479.5 1418,-479.5 1205,-479.5 1205,-479.5 1199,-479.5 1193,-473.5 1193,-467.5 1193,-467.5 1193,-399.5 1193,-399.5 1193,-393.5 1199,-387.5 1205,-387.5"/>
<text text-anchor="middle" x="1311.5" y="-464.3" font-family="Times,serif" font-size="14.00">type = 3 (ID)</text>
<polyline fill="none" stroke="black" points="1193,-456.5 1430,-456.5 "/>
<text text-anchor="middle" x="1311.5" y="-441.3" font-family="Times,serif" font-size="14.00">name = &#39;&#39; dude &#39;&#39;</text>
<polyline fill="none" stroke="black" points="1193,-433.5 1430,-433.5 "/>
<text text-anchor="middle" x="1311.5" y="-418.3" font-family="Times,serif" font-size="14.00">number in name table = &#39;&#39; 23 &#39;&#39;</text>
<polyline fill="none" stroke="black" points="1193,-410.5 1430,-410.5 "/>
<text text-anchor="middle" x="1311.5" y="-395.3" font-family="Times,serif" font-size="14.00">id_type = PARM</text>
</g>
<!-- node0x503000000550&#45;&gt;node0x503000000520 -->
<g id="edge31" class="edge">
<title>node0x503000000550&#45;&gt;node0x503000000520</title>
<path fill="none" stroke="black" d="M1311.5,-539.38C1311.5,-525.66 1311.5,-507.37 1311.5,-489.91"/>
<polygon fill="black" stroke="black" points="1315,-489.76 1311.5,-479.76 1308,-489.76 1315,-489.76"/>
</g>
<!-- node0x5030000005b0 -->
<g id="node34" class="node">
<title>node0x5030000005b0</title>
<path fill="#ff5050" stroke="black" d="M1460,-387.5C1460,-387.5 1673,-387.5 1673,-387.5 1679,-387.5 1685,-393.5 1685,-399.5 1685,-399.5 1685,-467.5 1685,-467.5 1685,-473.5 1679,-479.5 1673,-479.5 1673,-479.5 1460,-479.5 1460,-479.5 1454,-479.5 1448,-473.5 1448,-467.5 1448,-467.5 1448,-399.5 1448,-399.5 1448,-393.5 1454,-387.5 1460,-387.5"/>
<text text-anchor="middle" x="1566.5" y="-464.3" font-family="Times,serif" font-size="14.00">type = 3 (ID)</text>
<polyline fill="none" stroke="black" points="1448,-456.5 1685,-456.5 "/>
<text text-anchor="middle" x="1566.5" y="-441.3" font-family="Times,serif" font-size="14.00">name = &#39;&#39; dude &#39;&#39;</text>
<polyline fill="none" stroke="black" points="1448,-433.5 1685,-433.5 "/>
<text text-anchor="middle" x="1566.5" y="-418.3" font-family="Times,serif" font-size="14.00">number in name table = &#39;&#39; 23 &#39;&#39;</text>
<polyline fill="none" stroke="black" points="1448,-410.5 1685,-410.5 "/>
<text text-anchor="middle" x="1566.5" y="-395.3" font-family="Times,serif" font-size="14.00">id_type = PARM</text>
</g>
<!-- node0x503000000610&#45;&gt;node0x5030000005b0 -->
<g id="edge33" class="edge">
<title>node0x503000000610&#45;&gt;node0x5030000005b0</title>
<path fill="none" stroke="black" d="M1566.5,-539.38C1566.5,-525.66 1566.5,-507.37 1566.5,-489.91"/>
<polygon fill="black" stroke="black" points="1570,-489.76 1566.5,-479.76 1563,-489.76 1570,-489.76"/>
</g>
<!-- node0x5030000005e0 -->
<g id="node35" class="node">
<title>node0x5030000005e0</title>
<path fill="#ffd700" stroke="black" d="M1715,-410.5C1715,-410.5 1822,-410.5 1822,-410.5 1828,-410.5 1834,-416.5 1834,-422.5 1834,-422.5 1834,-444.5 1834,-444.5 1834,-450.5 1828,-456.5 1822,-456.5 1822,-456.5 1715,-456.5 1715,-456.5 1709,-456.5 1703,-450.5 1703,-444.5 1703,-444.5 1703,-422.5 1703,-422.5 1703,-416.5 1709,-410.5 1715,-410.5"/>
<text text-anchor="middle" x="1768.5" y="-441.3" font-family="Times,serif" font-size="14.00">type = 1 (NUM)</text>
<polyline fill="none" stroke="black" points="1703,-433.5 1834,-433.5 "/>
<text text-anchor="middle" x="1768.5" y="-418.3" font-family="Times,serif" font-size="14.00">value = &#39;&#39; 9 &#39;&#39;</text>
</g>
<!-- node0x503000000610&#45;&gt;node0x5030000005e0 -->
<g id="edge34" class="edge">
<title>node0x503000000610&#45;&gt;node0x5030000005e0</title>
<path fill="none" stroke="black" d="M1601.69,-539.38C1635.91,-517.86 1687.98,-485.13 1724.83,-461.96"/>
<polygon fill="black" stroke="black" points="1726.78,-464.87 1733.38,-456.58 1723.05,-458.94 1726.78,-464.87"/>
</g>
</g>
</svg>
