<?xml version="1.0" encoding="UTF-8" standalone="no"?>
<!DOCTYPE svg PUBLIC "-//W3C//DTD SVG 1.1//EN"
 "http://www.w3.org/Graphics/SVG/1.1/DTD/svg11.dtd">
<!-- Generated by graphviz version 2.43.0 (0)
 -->
<!-- Title: %3 Pages: 1 -->
<svg width="407pt" height="221pt"
 viewBox="0.00 0.00 406.50 221.00" xmlns="http://www.w3.org/2000/svg" xmlns:xlink="http://www.w3.org/1999/xlink">
<g id="graph0" class="graph" transform="scale(1 1) rotate(0) translate(4 217)">
<title>%3</title>
<!-- node0x503000000340 -->
<g id="node1" class="node">
<title>node0x503000000340</title>
<path fill="#f069f5" stroke="black" d="M91.5,-166.5C91.5,-166.5 238.5,-166.5 238.5,-166.5 244.5,-166.5 250.5,-172.5 250.5,-178.5 250.5,-178.5 250.5,-200.5 250.5,-200.5 250.5,-206.5 244.5,-212.5 238.5,-212.5 238.5,-212.5 91.5,-212.5 91.5,-212.5 85.5,-212.5 79.5,-206.5 79.5,-200.5 79.5,-200.5 79.5,-178.5 79.5,-178.5 79.5,-172.5 85.5,-166.5 91.5,-166.5"/>
<text text-anchor="middle" x="165" y="-197.3" font-family="Times,serif" font-size="14.00">type = 4 (FUNC)</text>
<polyline fill="none" stroke="black" points="79.5,-189.5 250.5,-189.5 "/>
<text text-anchor="middle" x="165" y="-174.3" font-family="Times,serif" font-size="14.00">value = &#39;&#39; CALL &#39;&#39; (67)</text>
</g>
<!-- node0x5030000002b0 -->
<g id="node2" class="node">
<title>node0x5030000002b0</title>
<path fill="#2ee31e" stroke="black" d="M12,-83.5C12,-83.5 150,-83.5 150,-83.5 156,-83.5 162,-89.5 162,-95.5 162,-95.5 162,-117.5 162,-117.5 162,-123.5 156,-129.5 150,-129.5 150,-129.5 12,-129.5 12,-129.5 6,-129.5 0,-123.5 0,-117.5 0,-117.5 0,-95.5 0,-95.5 0,-89.5 6,-83.5 12,-83.5"/>
<text text-anchor="middle" x="81" y="-114.3" font-family="Times,serif" font-size="14.00">type = 4 (FUNC)</text>
<polyline fill="none" stroke="black" points="0,-106.5 162,-106.5 "/>
<text text-anchor="middle" x="81" y="-91.3" font-family="Times,serif" font-size="14.00">value = &#39;&#39; eval &#39;&#39; (24)</text>
</g>
<!-- node0x503000000340&#45;&gt;node0x5030000002b0 -->
<g id="edge1" class="edge">
<title>node0x503000000340&#45;&gt;node0x5030000002b0</title>
<path fill="none" stroke="black" d="M142.05,-166.37C132.51,-157.17 121.31,-146.37 111.12,-136.55"/>
<polygon fill="black" stroke="black" points="113.55,-134.03 103.93,-129.61 108.69,-139.07 113.55,-134.03"/>
</g>
<!-- node0x503000000310 -->
<g id="node3" class="node">
<title>node0x503000000310</title>
<path fill="#feaadf" stroke="black" d="M192.5,-83.5C192.5,-83.5 305.5,-83.5 305.5,-83.5 311.5,-83.5 317.5,-89.5 317.5,-95.5 317.5,-95.5 317.5,-117.5 317.5,-117.5 317.5,-123.5 311.5,-129.5 305.5,-129.5 305.5,-129.5 192.5,-129.5 192.5,-129.5 186.5,-129.5 180.5,-123.5 180.5,-117.5 180.5,-117.5 180.5,-95.5 180.5,-95.5 180.5,-89.5 186.5,-83.5 192.5,-83.5"/>
<text text-anchor="middle" x="249" y="-114.3" font-family="Times,serif" font-size="14.00">type = 4 (FUNC)</text>
<polyline fill="none" stroke="black" points="180.5,-106.5 317.5,-106.5 "/>
<text text-anchor="middle" x="249" y="-91.3" font-family="Times,serif" font-size="14.00">value = &#39;&#39; , &#39;&#39; (44)</text>
</g>
<!-- node0x503000000340&#45;&gt;node0x503000000310 -->
<g id="edge2" class="edge">
<title>node0x503000000340&#45;&gt;node0x503000000310</title>
<path fill="none" stroke="black" d="M187.95,-166.37C197.49,-157.17 208.69,-146.37 218.88,-136.55"/>
<polygon fill="black" stroke="black" points="221.31,-139.07 226.07,-129.61 216.45,-134.03 221.31,-139.07"/>
</g>
<!-- node0x5030000002e0 -->
<g id="node4" class="node">
<title>node0x5030000002e0</title>
<path fill="#ff5050" stroke="black" d="M111.5,-0.5C111.5,-0.5 386.5,-0.5 386.5,-0.5 392.5,-0.5 398.5,-6.5 398.5,-12.5 398.5,-12.5 398.5,-34.5 398.5,-34.5 398.5,-40.5 392.5,-46.5 386.5,-46.5 386.5,-46.5 111.5,-46.5 111.5,-46.5 105.5,-46.5 99.5,-40.5 99.5,-34.5 99.5,-34.5 99.5,-12.5 99.5,-12.5 99.5,-6.5 105.5,-0.5 111.5,-0.5"/>
<text text-anchor="middle" x="249" y="-31.3" font-family="Times,serif" font-size="14.00">type = 3 (ID)</text>
<polyline fill="none" stroke="black" points="99.5,-23.5 398.5,-23.5 "/>
<text text-anchor="middle" x="249" y="-8.3" font-family="Times,serif" font-size="14.00">number of name in name table = &#39;&#39; 23 &#39;&#39;</text>
</g>
<!-- node0x503000000310&#45;&gt;node0x5030000002e0 -->
<g id="edge3" class="edge">
<title>node0x503000000310&#45;&gt;node0x5030000002e0</title>
<path fill="none" stroke="black" d="M249,-83.37C249,-75.15 249,-65.66 249,-56.73"/>
<polygon fill="black" stroke="black" points="252.5,-56.61 249,-46.61 245.5,-56.61 252.5,-56.61"/>
</g>
</g>
</svg>
