<?xml version="1.0" encoding="UTF-8" standalone="no"?>
<!DOCTYPE svg PUBLIC "-//W3C//DTD SVG 1.1//EN"
 "http://www.w3.org/Graphics/SVG/1.1/DTD/svg11.dtd">
<!-- Generated by graphviz version 2.43.0 (0)
 -->
<!-- Title: %3 Pages: 1 -->
<svg width="2432pt" height="968pt"
 viewBox="0.00 0.00 2432.00 968.00" xmlns="http://www.w3.org/2000/svg" xmlns:xlink="http://www.w3.org/1999/xlink">
<g id="graph0" class="graph" transform="scale(1 1) rotate(0) translate(4 964)">
<title>%3</title>
<!-- node0x503000000940 -->
<g id="node1" class="node">
<title>node0x503000000940</title>
<path fill="#755cf7" stroke="black" d="M403.5,-913.5C403.5,-913.5 603.5,-913.5 603.5,-913.5 609.5,-913.5 615.5,-919.5 615.5,-925.5 615.5,-925.5 615.5,-947.5 615.5,-947.5 615.5,-953.5 609.5,-959.5 603.5,-959.5 603.5,-959.5 403.5,-959.5 403.5,-959.5 397.5,-959.5 391.5,-953.5 391.5,-947.5 391.5,-947.5 391.5,-925.5 391.5,-925.5 391.5,-919.5 397.5,-913.5 403.5,-913.5"/>
<text text-anchor="middle" x="503.5" y="-944.3" font-family="Times,serif" font-size="14.00">type = 4 (FUNC)</text>
<polyline fill="none" stroke="black" points="391.5,-936.5 615.5,-936.5 "/>
<text text-anchor="middle" x="503.5" y="-921.3" font-family="Times,serif" font-size="14.00">value = &#39;&#39; DEFINITION &#39;&#39; (68)</text>
</g>
<!-- node0x503000000190 -->
<g id="node2" class="node">
<title>node0x503000000190</title>
<path fill="#f069f5" stroke="black" d="M312,-830.5C312,-830.5 459,-830.5 459,-830.5 465,-830.5 471,-836.5 471,-842.5 471,-842.5 471,-864.5 471,-864.5 471,-870.5 465,-876.5 459,-876.5 459,-876.5 312,-876.5 312,-876.5 306,-876.5 300,-870.5 300,-864.5 300,-864.5 300,-842.5 300,-842.5 300,-836.5 306,-830.5 312,-830.5"/>
<text text-anchor="middle" x="385.5" y="-861.3" font-family="Times,serif" font-size="14.00">type = 4 (FUNC)</text>
<polyline fill="none" stroke="black" points="300,-853.5 471,-853.5 "/>
<text text-anchor="middle" x="385.5" y="-838.3" font-family="Times,serif" font-size="14.00">value = &#39;&#39; CALL &#39;&#39; (67)</text>
</g>
<!-- node0x503000000940&#45;&gt;node0x503000000190 -->
<g id="edge1" class="edge">
<title>node0x503000000940&#45;&gt;node0x503000000190</title>
<path fill="none" stroke="black" d="M471.26,-913.37C457.34,-903.81 440.9,-892.53 426.16,-882.41"/>
<polygon fill="black" stroke="black" points="427.93,-879.38 417.71,-876.61 423.97,-885.15 427.93,-879.38"/>
</g>
<!-- node0x503000000250 -->
<g id="node3" class="node">
<title>node0x503000000250</title>
<path fill="#e0e0e0" stroke="black" d="M635,-830.5C635,-830.5 808,-830.5 808,-830.5 814,-830.5 820,-836.5 820,-842.5 820,-842.5 820,-864.5 820,-864.5 820,-870.5 814,-876.5 808,-876.5 808,-876.5 635,-876.5 635,-876.5 629,-876.5 623,-870.5 623,-864.5 623,-864.5 623,-842.5 623,-842.5 623,-836.5 629,-830.5 635,-830.5"/>
<text text-anchor="middle" x="721.5" y="-861.3" font-family="Times,serif" font-size="14.00">type = 2 (OP)</text>
<polyline fill="none" stroke="black" points="623,-853.5 820,-853.5 "/>
<text text-anchor="middle" x="721.5" y="-838.3" font-family="Times,serif" font-size="14.00">value = &#39;&#39; SHUTUP &#39;&#39; (59)</text>
</g>
<!-- node0x503000000940&#45;&gt;node0x503000000250 -->
<g id="edge2" class="edge">
<title>node0x503000000940&#45;&gt;node0x503000000250</title>
<path fill="none" stroke="black" d="M562.78,-913.47C590.53,-903.16 623.76,-890.82 652.62,-880.09"/>
<polygon fill="black" stroke="black" points="654.08,-883.29 662.23,-876.52 651.64,-876.72 654.08,-883.29"/>
</g>
<!-- node0x503000000040 -->
<g id="node4" class="node">
<title>node0x503000000040</title>
<path fill="#2ee31e" stroke="black" d="M144.5,-747.5C144.5,-747.5 286.5,-747.5 286.5,-747.5 292.5,-747.5 298.5,-753.5 298.5,-759.5 298.5,-759.5 298.5,-781.5 298.5,-781.5 298.5,-787.5 292.5,-793.5 286.5,-793.5 286.5,-793.5 144.5,-793.5 144.5,-793.5 138.5,-793.5 132.5,-787.5 132.5,-781.5 132.5,-781.5 132.5,-759.5 132.5,-759.5 132.5,-753.5 138.5,-747.5 144.5,-747.5"/>
<text text-anchor="middle" x="215.5" y="-778.3" font-family="Times,serif" font-size="14.00">type = 4 (FUNC)</text>
<polyline fill="none" stroke="black" points="132.5,-770.5 298.5,-770.5 "/>
<text text-anchor="middle" x="215.5" y="-755.3" font-family="Times,serif" font-size="14.00">value = &#39;&#39; carti &#39;&#39; (20)</text>
</g>
<!-- node0x503000000190&#45;&gt;node0x503000000040 -->
<g id="edge3" class="edge">
<title>node0x503000000190&#45;&gt;node0x503000000040</title>
<path fill="none" stroke="black" d="M339.05,-830.37C318.06,-820.37 293.09,-808.47 271.11,-798"/>
<polygon fill="black" stroke="black" points="272.43,-794.75 261.9,-793.61 269.42,-801.07 272.43,-794.75"/>
</g>
<!-- node0x5030000000a0 -->
<g id="node5" class="node">
<title>node0x5030000000a0</title>
<path fill="#feaadf" stroke="black" d="M329,-747.5C329,-747.5 442,-747.5 442,-747.5 448,-747.5 454,-753.5 454,-759.5 454,-759.5 454,-781.5 454,-781.5 454,-787.5 448,-793.5 442,-793.5 442,-793.5 329,-793.5 329,-793.5 323,-793.5 317,-787.5 317,-781.5 317,-781.5 317,-759.5 317,-759.5 317,-753.5 323,-747.5 329,-747.5"/>
<text text-anchor="middle" x="385.5" y="-778.3" font-family="Times,serif" font-size="14.00">type = 4 (FUNC)</text>
<polyline fill="none" stroke="black" points="317,-770.5 454,-770.5 "/>
<text text-anchor="middle" x="385.5" y="-755.3" font-family="Times,serif" font-size="14.00">value = &#39;&#39; , &#39;&#39; (44)</text>
</g>
<!-- node0x503000000190&#45;&gt;node0x5030000000a0 -->
<g id="edge4" class="edge">
<title>node0x503000000190&#45;&gt;node0x5030000000a0</title>
<path fill="none" stroke="black" d="M385.5,-830.37C385.5,-822.15 385.5,-812.66 385.5,-803.73"/>
<polygon fill="black" stroke="black" points="389,-803.61 385.5,-793.61 382,-803.61 389,-803.61"/>
</g>
<!-- node0x503000000220 -->
<g id="node11" class="node">
<title>node0x503000000220</title>
<path fill="#00ffdd" stroke="black" d="M661,-747.5C661,-747.5 782,-747.5 782,-747.5 788,-747.5 794,-753.5 794,-759.5 794,-759.5 794,-781.5 794,-781.5 794,-787.5 788,-793.5 782,-793.5 782,-793.5 661,-793.5 661,-793.5 655,-793.5 649,-787.5 649,-781.5 649,-781.5 649,-759.5 649,-759.5 649,-753.5 655,-747.5 661,-747.5"/>
<text text-anchor="middle" x="721.5" y="-778.3" font-family="Times,serif" font-size="14.00">type = 2 (OP)</text>
<polyline fill="none" stroke="black" points="649,-770.5 794,-770.5 "/>
<text text-anchor="middle" x="721.5" y="-755.3" font-family="Times,serif" font-size="14.00">value = &#39;&#39; = &#39;&#39; (61)</text>
</g>
<!-- node0x503000000250&#45;&gt;node0x503000000220 -->
<g id="edge10" class="edge">
<title>node0x503000000250&#45;&gt;node0x503000000220</title>
<path fill="none" stroke="black" d="M721.5,-830.37C721.5,-822.15 721.5,-812.66 721.5,-803.73"/>
<polygon fill="black" stroke="black" points="725,-803.61 721.5,-793.61 718,-803.61 725,-803.61"/>
</g>
<!-- node0x503000000310 -->
<g id="node12" class="node">
<title>node0x503000000310</title>
<path fill="#e0e0e0" stroke="black" d="M924,-747.5C924,-747.5 1097,-747.5 1097,-747.5 1103,-747.5 1109,-753.5 1109,-759.5 1109,-759.5 1109,-781.5 1109,-781.5 1109,-787.5 1103,-793.5 1097,-793.5 1097,-793.5 924,-793.5 924,-793.5 918,-793.5 912,-787.5 912,-781.5 912,-781.5 912,-759.5 912,-759.5 912,-753.5 918,-747.5 924,-747.5"/>
<text text-anchor="middle" x="1010.5" y="-778.3" font-family="Times,serif" font-size="14.00">type = 2 (OP)</text>
<polyline fill="none" stroke="black" points="912,-770.5 1109,-770.5 "/>
<text text-anchor="middle" x="1010.5" y="-755.3" font-family="Times,serif" font-size="14.00">value = &#39;&#39; SHUTUP &#39;&#39; (59)</text>
</g>
<!-- node0x503000000250&#45;&gt;node0x503000000310 -->
<g id="edge11" class="edge">
<title>node0x503000000250&#45;&gt;node0x503000000310</title>
<path fill="none" stroke="black" d="M800.09,-830.47C837.84,-819.89 883.23,-807.17 922.17,-796.26"/>
<polygon fill="black" stroke="black" points="923.24,-799.59 931.93,-793.52 921.35,-792.85 923.24,-799.59"/>
</g>
<!-- node0x503000000070 -->
<g id="node6" class="node">
<title>node0x503000000070</title>
<path fill="#ff5050" stroke="black" d="M12,-664.5C12,-664.5 287,-664.5 287,-664.5 293,-664.5 299,-670.5 299,-676.5 299,-676.5 299,-698.5 299,-698.5 299,-704.5 293,-710.5 287,-710.5 287,-710.5 12,-710.5 12,-710.5 6,-710.5 0,-704.5 0,-698.5 0,-698.5 0,-676.5 0,-676.5 0,-670.5 6,-664.5 12,-664.5"/>
<text text-anchor="middle" x="149.5" y="-695.3" font-family="Times,serif" font-size="14.00">type = 3 (ID)</text>
<polyline fill="none" stroke="black" points="0,-687.5 299,-687.5 "/>
<text text-anchor="middle" x="149.5" y="-672.3" font-family="Times,serif" font-size="14.00">number of name in name table = &#39;&#39; 21 &#39;&#39;</text>
</g>
<!-- node0x5030000000a0&#45;&gt;node0x503000000070 -->
<g id="edge5" class="edge">
<title>node0x5030000000a0&#45;&gt;node0x503000000070</title>
<path fill="none" stroke="black" d="M321.32,-747.47C291.02,-737.07 254.68,-724.6 223.25,-713.81"/>
<polygon fill="black" stroke="black" points="224.26,-710.46 213.66,-710.52 221.99,-717.08 224.26,-710.46"/>
</g>
<!-- node0x503000000100 -->
<g id="node7" class="node">
<title>node0x503000000100</title>
<path fill="#feaadf" stroke="black" d="M329,-664.5C329,-664.5 442,-664.5 442,-664.5 448,-664.5 454,-670.5 454,-676.5 454,-676.5 454,-698.5 454,-698.5 454,-704.5 448,-710.5 442,-710.5 442,-710.5 329,-710.5 329,-710.5 323,-710.5 317,-704.5 317,-698.5 317,-698.5 317,-676.5 317,-676.5 317,-670.5 323,-664.5 329,-664.5"/>
<text text-anchor="middle" x="385.5" y="-695.3" font-family="Times,serif" font-size="14.00">type = 4 (FUNC)</text>
<polyline fill="none" stroke="black" points="317,-687.5 454,-687.5 "/>
<text text-anchor="middle" x="385.5" y="-672.3" font-family="Times,serif" font-size="14.00">value = &#39;&#39; , &#39;&#39; (44)</text>
</g>
<!-- node0x5030000000a0&#45;&gt;node0x503000000100 -->
<g id="edge6" class="edge">
<title>node0x5030000000a0&#45;&gt;node0x503000000100</title>
<path fill="none" stroke="black" d="M385.5,-747.37C385.5,-739.15 385.5,-729.66 385.5,-720.73"/>
<polygon fill="black" stroke="black" points="389,-720.61 385.5,-710.61 382,-720.61 389,-720.61"/>
</g>
<!-- node0x5030000000d0 -->
<g id="node8" class="node">
<title>node0x5030000000d0</title>
<path fill="#ff5050" stroke="black" d="M98,-581.5C98,-581.5 373,-581.5 373,-581.5 379,-581.5 385,-587.5 385,-593.5 385,-593.5 385,-615.5 385,-615.5 385,-621.5 379,-627.5 373,-627.5 373,-627.5 98,-627.5 98,-627.5 92,-627.5 86,-621.5 86,-615.5 86,-615.5 86,-593.5 86,-593.5 86,-587.5 92,-581.5 98,-581.5"/>
<text text-anchor="middle" x="235.5" y="-612.3" font-family="Times,serif" font-size="14.00">type = 3 (ID)</text>
<polyline fill="none" stroke="black" points="86,-604.5 385,-604.5 "/>
<text text-anchor="middle" x="235.5" y="-589.3" font-family="Times,serif" font-size="14.00">number of name in name table = &#39;&#39; 22 &#39;&#39;</text>
</g>
<!-- node0x503000000100&#45;&gt;node0x5030000000d0 -->
<g id="edge7" class="edge">
<title>node0x503000000100&#45;&gt;node0x5030000000d0</title>
<path fill="none" stroke="black" d="M344.51,-664.37C326.24,-654.5 304.55,-642.79 285.35,-632.42"/>
<polygon fill="black" stroke="black" points="286.9,-629.28 276.44,-627.61 283.57,-635.44 286.9,-629.28"/>
</g>
<!-- node0x503000000160 -->
<g id="node9" class="node">
<title>node0x503000000160</title>
<path fill="#feaadf" stroke="black" d="M415,-581.5C415,-581.5 528,-581.5 528,-581.5 534,-581.5 540,-587.5 540,-593.5 540,-593.5 540,-615.5 540,-615.5 540,-621.5 534,-627.5 528,-627.5 528,-627.5 415,-627.5 415,-627.5 409,-627.5 403,-621.5 403,-615.5 403,-615.5 403,-593.5 403,-593.5 403,-587.5 409,-581.5 415,-581.5"/>
<text text-anchor="middle" x="471.5" y="-612.3" font-family="Times,serif" font-size="14.00">type = 4 (FUNC)</text>
<polyline fill="none" stroke="black" points="403,-604.5 540,-604.5 "/>
<text text-anchor="middle" x="471.5" y="-589.3" font-family="Times,serif" font-size="14.00">value = &#39;&#39; , &#39;&#39; (44)</text>
</g>
<!-- node0x503000000100&#45;&gt;node0x503000000160 -->
<g id="edge8" class="edge">
<title>node0x503000000100&#45;&gt;node0x503000000160</title>
<path fill="none" stroke="black" d="M409,-664.37C418.76,-655.17 430.23,-644.37 440.66,-634.55"/>
<polygon fill="black" stroke="black" points="443.15,-637.01 448.03,-627.61 438.35,-631.92 443.15,-637.01"/>
</g>
<!-- node0x503000000130 -->
<g id="node10" class="node">
<title>node0x503000000130</title>
<path fill="#ff5050" stroke="black" d="M334,-498.5C334,-498.5 609,-498.5 609,-498.5 615,-498.5 621,-504.5 621,-510.5 621,-510.5 621,-532.5 621,-532.5 621,-538.5 615,-544.5 609,-544.5 609,-544.5 334,-544.5 334,-544.5 328,-544.5 322,-538.5 322,-532.5 322,-532.5 322,-510.5 322,-510.5 322,-504.5 328,-498.5 334,-498.5"/>
<text text-anchor="middle" x="471.5" y="-529.3" font-family="Times,serif" font-size="14.00">type = 3 (ID)</text>
<polyline fill="none" stroke="black" points="322,-521.5 621,-521.5 "/>
<text text-anchor="middle" x="471.5" y="-506.3" font-family="Times,serif" font-size="14.00">number of name in name table = &#39;&#39; 23 &#39;&#39;</text>
</g>
<!-- node0x503000000160&#45;&gt;node0x503000000130 -->
<g id="edge9" class="edge">
<title>node0x503000000160&#45;&gt;node0x503000000130</title>
<path fill="none" stroke="black" d="M471.5,-581.37C471.5,-573.15 471.5,-563.66 471.5,-554.73"/>
<polygon fill="black" stroke="black" points="475,-554.61 471.5,-544.61 468,-554.61 475,-554.61"/>
</g>
<!-- node0x5030000001c0 -->
<g id="node13" class="node">
<title>node0x5030000001c0</title>
<path fill="#ff5050" stroke="black" d="M484,-664.5C484,-664.5 759,-664.5 759,-664.5 765,-664.5 771,-670.5 771,-676.5 771,-676.5 771,-698.5 771,-698.5 771,-704.5 765,-710.5 759,-710.5 759,-710.5 484,-710.5 484,-710.5 478,-710.5 472,-704.5 472,-698.5 472,-698.5 472,-676.5 472,-676.5 472,-670.5 478,-664.5 484,-664.5"/>
<text text-anchor="middle" x="621.5" y="-695.3" font-family="Times,serif" font-size="14.00">type = 3 (ID)</text>
<polyline fill="none" stroke="black" points="472,-687.5 771,-687.5 "/>
<text text-anchor="middle" x="621.5" y="-672.3" font-family="Times,serif" font-size="14.00">number of name in name table = &#39;&#39; 24 &#39;&#39;</text>
</g>
<!-- node0x503000000220&#45;&gt;node0x5030000001c0 -->
<g id="edge12" class="edge">
<title>node0x503000000220&#45;&gt;node0x5030000001c0</title>
<path fill="none" stroke="black" d="M694.17,-747.37C682.6,-737.99 668.97,-726.95 656.66,-716.98"/>
<polygon fill="black" stroke="black" points="658.77,-714.18 648.79,-710.61 654.36,-719.62 658.77,-714.18"/>
</g>
<!-- node0x5030000001f0 -->
<g id="node14" class="node">
<title>node0x5030000001f0</title>
<path fill="#ffd700" stroke="black" d="M801,-664.5C801,-664.5 908,-664.5 908,-664.5 914,-664.5 920,-670.5 920,-676.5 920,-676.5 920,-698.5 920,-698.5 920,-704.5 914,-710.5 908,-710.5 908,-710.5 801,-710.5 801,-710.5 795,-710.5 789,-704.5 789,-698.5 789,-698.5 789,-676.5 789,-676.5 789,-670.5 795,-664.5 801,-664.5"/>
<text text-anchor="middle" x="854.5" y="-695.3" font-family="Times,serif" font-size="14.00">type = 1 (NUM)</text>
<polyline fill="none" stroke="black" points="789,-687.5 920,-687.5 "/>
<text text-anchor="middle" x="854.5" y="-672.3" font-family="Times,serif" font-size="14.00">value = &#39;&#39; 10 &#39;&#39;</text>
</g>
<!-- node0x503000000220&#45;&gt;node0x5030000001f0 -->
<g id="edge13" class="edge">
<title>node0x503000000220&#45;&gt;node0x5030000001f0</title>
<path fill="none" stroke="black" d="M757.84,-747.37C773.82,-737.63 792.75,-726.11 809.6,-715.84"/>
<polygon fill="black" stroke="black" points="811.48,-718.8 818.2,-710.61 807.84,-712.82 811.48,-718.8"/>
</g>
<!-- node0x5030000002e0 -->
<g id="node15" class="node">
<title>node0x5030000002e0</title>
<path fill="#00ffdd" stroke="black" d="M950,-664.5C950,-664.5 1071,-664.5 1071,-664.5 1077,-664.5 1083,-670.5 1083,-676.5 1083,-676.5 1083,-698.5 1083,-698.5 1083,-704.5 1077,-710.5 1071,-710.5 1071,-710.5 950,-710.5 950,-710.5 944,-710.5 938,-704.5 938,-698.5 938,-698.5 938,-676.5 938,-676.5 938,-670.5 944,-664.5 950,-664.5"/>
<text text-anchor="middle" x="1010.5" y="-695.3" font-family="Times,serif" font-size="14.00">type = 2 (OP)</text>
<polyline fill="none" stroke="black" points="938,-687.5 1083,-687.5 "/>
<text text-anchor="middle" x="1010.5" y="-672.3" font-family="Times,serif" font-size="14.00">value = &#39;&#39; = &#39;&#39; (61)</text>
</g>
<!-- node0x503000000310&#45;&gt;node0x5030000002e0 -->
<g id="edge14" class="edge">
<title>node0x503000000310&#45;&gt;node0x5030000002e0</title>
<path fill="none" stroke="black" d="M1010.5,-747.37C1010.5,-739.15 1010.5,-729.66 1010.5,-720.73"/>
<polygon fill="black" stroke="black" points="1014,-720.61 1010.5,-710.61 1007,-720.61 1014,-720.61"/>
</g>
<!-- node0x5030000003d0 -->
<g id="node16" class="node">
<title>node0x5030000003d0</title>
<path fill="#e0e0e0" stroke="black" d="M1113,-664.5C1113,-664.5 1286,-664.5 1286,-664.5 1292,-664.5 1298,-670.5 1298,-676.5 1298,-676.5 1298,-698.5 1298,-698.5 1298,-704.5 1292,-710.5 1286,-710.5 1286,-710.5 1113,-710.5 1113,-710.5 1107,-710.5 1101,-704.5 1101,-698.5 1101,-698.5 1101,-676.5 1101,-676.5 1101,-670.5 1107,-664.5 1113,-664.5"/>
<text text-anchor="middle" x="1199.5" y="-695.3" font-family="Times,serif" font-size="14.00">type = 2 (OP)</text>
<polyline fill="none" stroke="black" points="1101,-687.5 1298,-687.5 "/>
<text text-anchor="middle" x="1199.5" y="-672.3" font-family="Times,serif" font-size="14.00">value = &#39;&#39; SHUTUP &#39;&#39; (59)</text>
</g>
<!-- node0x503000000310&#45;&gt;node0x5030000003d0 -->
<g id="edge15" class="edge">
<title>node0x503000000310&#45;&gt;node0x5030000003d0</title>
<path fill="none" stroke="black" d="M1062.15,-747.37C1085.79,-737.23 1113.98,-725.15 1138.65,-714.58"/>
<polygon fill="black" stroke="black" points="1140.1,-717.76 1147.92,-710.61 1137.35,-711.33 1140.1,-717.76"/>
</g>
<!-- node0x503000000280 -->
<g id="node17" class="node">
<title>node0x503000000280</title>
<path fill="#ff5050" stroke="black" d="M648,-581.5C648,-581.5 923,-581.5 923,-581.5 929,-581.5 935,-587.5 935,-593.5 935,-593.5 935,-615.5 935,-615.5 935,-621.5 929,-627.5 923,-627.5 923,-627.5 648,-627.5 648,-627.5 642,-627.5 636,-621.5 636,-615.5 636,-615.5 636,-593.5 636,-593.5 636,-587.5 642,-581.5 648,-581.5"/>
<text text-anchor="middle" x="785.5" y="-612.3" font-family="Times,serif" font-size="14.00">type = 3 (ID)</text>
<polyline fill="none" stroke="black" points="636,-604.5 935,-604.5 "/>
<text text-anchor="middle" x="785.5" y="-589.3" font-family="Times,serif" font-size="14.00">number of name in name table = &#39;&#39; 25 &#39;&#39;</text>
</g>
<!-- node0x5030000002e0&#45;&gt;node0x503000000280 -->
<g id="edge16" class="edge">
<title>node0x5030000002e0&#45;&gt;node0x503000000280</title>
<path fill="none" stroke="black" d="M949.31,-664.47C920.55,-654.12 886.08,-641.71 856.2,-630.95"/>
<polygon fill="black" stroke="black" points="857.27,-627.62 846.67,-627.52 854.9,-634.2 857.27,-627.62"/>
</g>
<!-- node0x5030000002b0 -->
<g id="node18" class="node">
<title>node0x5030000002b0</title>
<path fill="#ffd700" stroke="black" d="M965,-581.5C965,-581.5 1072,-581.5 1072,-581.5 1078,-581.5 1084,-587.5 1084,-593.5 1084,-593.5 1084,-615.5 1084,-615.5 1084,-621.5 1078,-627.5 1072,-627.5 1072,-627.5 965,-627.5 965,-627.5 959,-627.5 953,-621.5 953,-615.5 953,-615.5 953,-593.5 953,-593.5 953,-587.5 959,-581.5 965,-581.5"/>
<text text-anchor="middle" x="1018.5" y="-612.3" font-family="Times,serif" font-size="14.00">type = 1 (NUM)</text>
<polyline fill="none" stroke="black" points="953,-604.5 1084,-604.5 "/>
<text text-anchor="middle" x="1018.5" y="-589.3" font-family="Times,serif" font-size="14.00">value = &#39;&#39; 5 &#39;&#39;</text>
</g>
<!-- node0x5030000002e0&#45;&gt;node0x5030000002b0 -->
<g id="edge17" class="edge">
<title>node0x5030000002e0&#45;&gt;node0x5030000002b0</title>
<path fill="none" stroke="black" d="M1012.69,-664.37C1013.5,-656.15 1014.44,-646.66 1015.32,-637.73"/>
<polygon fill="black" stroke="black" points="1018.82,-637.9 1016.32,-627.61 1011.85,-637.21 1018.82,-637.9"/>
</g>
<!-- node0x5030000003a0 -->
<g id="node19" class="node">
<title>node0x5030000003a0</title>
<path fill="#00ffdd" stroke="black" d="M1130,-581.5C1130,-581.5 1251,-581.5 1251,-581.5 1257,-581.5 1263,-587.5 1263,-593.5 1263,-593.5 1263,-615.5 1263,-615.5 1263,-621.5 1257,-627.5 1251,-627.5 1251,-627.5 1130,-627.5 1130,-627.5 1124,-627.5 1118,-621.5 1118,-615.5 1118,-615.5 1118,-593.5 1118,-593.5 1118,-587.5 1124,-581.5 1130,-581.5"/>
<text text-anchor="middle" x="1190.5" y="-612.3" font-family="Times,serif" font-size="14.00">type = 2 (OP)</text>
<polyline fill="none" stroke="black" points="1118,-604.5 1263,-604.5 "/>
<text text-anchor="middle" x="1190.5" y="-589.3" font-family="Times,serif" font-size="14.00">value = &#39;&#39; = &#39;&#39; (61)</text>
</g>
<!-- node0x5030000003d0&#45;&gt;node0x5030000003a0 -->
<g id="edge18" class="edge">
<title>node0x5030000003d0&#45;&gt;node0x5030000003a0</title>
<path fill="none" stroke="black" d="M1197.04,-664.37C1196.13,-656.15 1195.07,-646.66 1194.08,-637.73"/>
<polygon fill="black" stroke="black" points="1197.54,-637.16 1192.96,-627.61 1190.58,-637.93 1197.54,-637.16"/>
</g>
<!-- node0x5030000005e0 -->
<g id="node20" class="node">
<title>node0x5030000005e0</title>
<path fill="#e0e0e0" stroke="black" d="M1293,-581.5C1293,-581.5 1466,-581.5 1466,-581.5 1472,-581.5 1478,-587.5 1478,-593.5 1478,-593.5 1478,-615.5 1478,-615.5 1478,-621.5 1472,-627.5 1466,-627.5 1466,-627.5 1293,-627.5 1293,-627.5 1287,-627.5 1281,-621.5 1281,-615.5 1281,-615.5 1281,-593.5 1281,-593.5 1281,-587.5 1287,-581.5 1293,-581.5"/>
<text text-anchor="middle" x="1379.5" y="-612.3" font-family="Times,serif" font-size="14.00">type = 2 (OP)</text>
<polyline fill="none" stroke="black" points="1281,-604.5 1478,-604.5 "/>
<text text-anchor="middle" x="1379.5" y="-589.3" font-family="Times,serif" font-size="14.00">value = &#39;&#39; SHUTUP &#39;&#39; (59)</text>
</g>
<!-- node0x5030000003d0&#45;&gt;node0x5030000005e0 -->
<g id="edge19" class="edge">
<title>node0x5030000003d0&#45;&gt;node0x5030000005e0</title>
<path fill="none" stroke="black" d="M1248.69,-664.37C1271.11,-654.28 1297.82,-642.26 1321.24,-631.72"/>
<polygon fill="black" stroke="black" points="1322.69,-634.9 1330.37,-627.61 1319.82,-628.52 1322.69,-634.9"/>
</g>
<!-- node0x503000000340 -->
<g id="node21" class="node">
<title>node0x503000000340</title>
<path fill="#ff5050" stroke="black" d="M825,-498.5C825,-498.5 1100,-498.5 1100,-498.5 1106,-498.5 1112,-504.5 1112,-510.5 1112,-510.5 1112,-532.5 1112,-532.5 1112,-538.5 1106,-544.5 1100,-544.5 1100,-544.5 825,-544.5 825,-544.5 819,-544.5 813,-538.5 813,-532.5 813,-532.5 813,-510.5 813,-510.5 813,-504.5 819,-498.5 825,-498.5"/>
<text text-anchor="middle" x="962.5" y="-529.3" font-family="Times,serif" font-size="14.00">type = 3 (ID)</text>
<polyline fill="none" stroke="black" points="813,-521.5 1112,-521.5 "/>
<text text-anchor="middle" x="962.5" y="-506.3" font-family="Times,serif" font-size="14.00">number of name in name table = &#39;&#39; 26 &#39;&#39;</text>
</g>
<!-- node0x5030000003a0&#45;&gt;node0x503000000340 -->
<g id="edge20" class="edge">
<title>node0x5030000003a0&#45;&gt;node0x503000000340</title>
<path fill="none" stroke="black" d="M1128.5,-581.47C1099.35,-571.12 1064.42,-558.71 1034.14,-547.95"/>
<polygon fill="black" stroke="black" points="1035.08,-544.57 1024.49,-544.52 1032.74,-551.17 1035.08,-544.57"/>
</g>
<!-- node0x503000000370 -->
<g id="node22" class="node">
<title>node0x503000000370</title>
<path fill="#ffd700" stroke="black" d="M1142,-498.5C1142,-498.5 1249,-498.5 1249,-498.5 1255,-498.5 1261,-504.5 1261,-510.5 1261,-510.5 1261,-532.5 1261,-532.5 1261,-538.5 1255,-544.5 1249,-544.5 1249,-544.5 1142,-544.5 1142,-544.5 1136,-544.5 1130,-538.5 1130,-532.5 1130,-532.5 1130,-510.5 1130,-510.5 1130,-504.5 1136,-498.5 1142,-498.5"/>
<text text-anchor="middle" x="1195.5" y="-529.3" font-family="Times,serif" font-size="14.00">type = 1 (NUM)</text>
<polyline fill="none" stroke="black" points="1130,-521.5 1261,-521.5 "/>
<text text-anchor="middle" x="1195.5" y="-506.3" font-family="Times,serif" font-size="14.00">value = &#39;&#39; 20 &#39;&#39;</text>
</g>
<!-- node0x5030000003a0&#45;&gt;node0x503000000370 -->
<g id="edge21" class="edge">
<title>node0x5030000003a0&#45;&gt;node0x503000000370</title>
<path fill="none" stroke="black" d="M1191.87,-581.37C1192.37,-573.15 1192.96,-563.66 1193.51,-554.73"/>
<polygon fill="black" stroke="black" points="1197.01,-554.8 1194.14,-544.61 1190.03,-554.37 1197.01,-554.8"/>
</g>
<!-- node0x5030000005b0 -->
<g id="node23" class="node">
<title>node0x5030000005b0</title>
<path fill="#00ffdd" stroke="black" d="M1300,-498.5C1300,-498.5 1449,-498.5 1449,-498.5 1455,-498.5 1461,-504.5 1461,-510.5 1461,-510.5 1461,-532.5 1461,-532.5 1461,-538.5 1455,-544.5 1449,-544.5 1449,-544.5 1300,-544.5 1300,-544.5 1294,-544.5 1288,-538.5 1288,-532.5 1288,-532.5 1288,-510.5 1288,-510.5 1288,-504.5 1294,-498.5 1300,-498.5"/>
<text text-anchor="middle" x="1374.5" y="-529.3" font-family="Times,serif" font-size="14.00">type = 2 (OP)</text>
<polyline fill="none" stroke="black" points="1288,-521.5 1461,-521.5 "/>
<text text-anchor="middle" x="1374.5" y="-506.3" font-family="Times,serif" font-size="14.00">value = &#39;&#39; PLUS &#39;&#39; (43)</text>
</g>
<!-- node0x5030000005e0&#45;&gt;node0x5030000005b0 -->
<g id="edge22" class="edge">
<title>node0x5030000005e0&#45;&gt;node0x5030000005b0</title>
<path fill="none" stroke="black" d="M1378.13,-581.37C1377.63,-573.15 1377.04,-563.66 1376.49,-554.73"/>
<polygon fill="black" stroke="black" points="1379.97,-554.37 1375.86,-544.61 1372.99,-554.8 1379.97,-554.37"/>
</g>
<!-- node0x503000000700 -->
<g id="node24" class="node">
<title>node0x503000000700</title>
<path fill="#e0e0e0" stroke="black" d="M1529,-498.5C1529,-498.5 1702,-498.5 1702,-498.5 1708,-498.5 1714,-504.5 1714,-510.5 1714,-510.5 1714,-532.5 1714,-532.5 1714,-538.5 1708,-544.5 1702,-544.5 1702,-544.5 1529,-544.5 1529,-544.5 1523,-544.5 1517,-538.5 1517,-532.5 1517,-532.5 1517,-510.5 1517,-510.5 1517,-504.5 1523,-498.5 1529,-498.5"/>
<text text-anchor="middle" x="1615.5" y="-529.3" font-family="Times,serif" font-size="14.00">type = 2 (OP)</text>
<polyline fill="none" stroke="black" points="1517,-521.5 1714,-521.5 "/>
<text text-anchor="middle" x="1615.5" y="-506.3" font-family="Times,serif" font-size="14.00">value = &#39;&#39; SHUTUP &#39;&#39; (59)</text>
</g>
<!-- node0x5030000005e0&#45;&gt;node0x503000000700 -->
<g id="edge23" class="edge">
<title>node0x5030000005e0&#45;&gt;node0x503000000700</title>
<path fill="none" stroke="black" d="M1443.68,-581.47C1473.98,-571.07 1510.32,-558.6 1541.75,-547.81"/>
<polygon fill="black" stroke="black" points="1543.01,-551.08 1551.34,-544.52 1540.74,-544.46 1543.01,-551.08"/>
</g>
<!-- node0x503000000550 -->
<g id="node25" class="node">
<title>node0x503000000550</title>
<path fill="#f069f5" stroke="black" d="M1042,-415.5C1042,-415.5 1189,-415.5 1189,-415.5 1195,-415.5 1201,-421.5 1201,-427.5 1201,-427.5 1201,-449.5 1201,-449.5 1201,-455.5 1195,-461.5 1189,-461.5 1189,-461.5 1042,-461.5 1042,-461.5 1036,-461.5 1030,-455.5 1030,-449.5 1030,-449.5 1030,-427.5 1030,-427.5 1030,-421.5 1036,-415.5 1042,-415.5"/>
<text text-anchor="middle" x="1115.5" y="-446.3" font-family="Times,serif" font-size="14.00">type = 4 (FUNC)</text>
<polyline fill="none" stroke="black" points="1030,-438.5 1201,-438.5 "/>
<text text-anchor="middle" x="1115.5" y="-423.3" font-family="Times,serif" font-size="14.00">value = &#39;&#39; CALL &#39;&#39; (67)</text>
</g>
<!-- node0x5030000005b0&#45;&gt;node0x503000000550 -->
<g id="edge24" class="edge">
<title>node0x5030000005b0&#45;&gt;node0x503000000550</title>
<path fill="none" stroke="black" d="M1304.07,-498.47C1270.52,-487.98 1230.25,-475.39 1195.55,-464.53"/>
<polygon fill="black" stroke="black" points="1196.51,-461.17 1185.92,-461.52 1194.42,-467.85 1196.51,-461.17"/>
</g>
<!-- node0x503000000580 -->
<g id="node26" class="node">
<title>node0x503000000580</title>
<path fill="#ffd700" stroke="black" d="M1321,-415.5C1321,-415.5 1428,-415.5 1428,-415.5 1434,-415.5 1440,-421.5 1440,-427.5 1440,-427.5 1440,-449.5 1440,-449.5 1440,-455.5 1434,-461.5 1428,-461.5 1428,-461.5 1321,-461.5 1321,-461.5 1315,-461.5 1309,-455.5 1309,-449.5 1309,-449.5 1309,-427.5 1309,-427.5 1309,-421.5 1315,-415.5 1321,-415.5"/>
<text text-anchor="middle" x="1374.5" y="-446.3" font-family="Times,serif" font-size="14.00">type = 1 (NUM)</text>
<polyline fill="none" stroke="black" points="1309,-438.5 1440,-438.5 "/>
<text text-anchor="middle" x="1374.5" y="-423.3" font-family="Times,serif" font-size="14.00">value = &#39;&#39; 5 &#39;&#39;</text>
</g>
<!-- node0x5030000005b0&#45;&gt;node0x503000000580 -->
<g id="edge25" class="edge">
<title>node0x5030000005b0&#45;&gt;node0x503000000580</title>
<path fill="none" stroke="black" d="M1374.5,-498.37C1374.5,-490.15 1374.5,-480.66 1374.5,-471.73"/>
<polygon fill="black" stroke="black" points="1378,-471.61 1374.5,-461.61 1371,-471.61 1378,-471.61"/>
</g>
<!-- node0x5030000006d0 -->
<g id="node34" class="node">
<title>node0x5030000006d0</title>
<path fill="#00ffdd" stroke="black" d="M1555,-415.5C1555,-415.5 1676,-415.5 1676,-415.5 1682,-415.5 1688,-421.5 1688,-427.5 1688,-427.5 1688,-449.5 1688,-449.5 1688,-455.5 1682,-461.5 1676,-461.5 1676,-461.5 1555,-461.5 1555,-461.5 1549,-461.5 1543,-455.5 1543,-449.5 1543,-449.5 1543,-427.5 1543,-427.5 1543,-421.5 1549,-415.5 1555,-415.5"/>
<text text-anchor="middle" x="1615.5" y="-446.3" font-family="Times,serif" font-size="14.00">type = 2 (OP)</text>
<polyline fill="none" stroke="black" points="1543,-438.5 1688,-438.5 "/>
<text text-anchor="middle" x="1615.5" y="-423.3" font-family="Times,serif" font-size="14.00">value = &#39;&#39; = &#39;&#39; (61)</text>
</g>
<!-- node0x503000000700&#45;&gt;node0x5030000006d0 -->
<g id="edge33" class="edge">
<title>node0x503000000700&#45;&gt;node0x5030000006d0</title>
<path fill="none" stroke="black" d="M1615.5,-498.37C1615.5,-490.15 1615.5,-480.66 1615.5,-471.73"/>
<polygon fill="black" stroke="black" points="1619,-471.61 1615.5,-461.61 1612,-471.61 1619,-471.61"/>
</g>
<!-- node0x503000000910 -->
<g id="node35" class="node">
<title>node0x503000000910</title>
<path fill="#e0e0e0" stroke="black" d="M1794,-415.5C1794,-415.5 1967,-415.5 1967,-415.5 1973,-415.5 1979,-421.5 1979,-427.5 1979,-427.5 1979,-449.5 1979,-449.5 1979,-455.5 1973,-461.5 1967,-461.5 1967,-461.5 1794,-461.5 1794,-461.5 1788,-461.5 1782,-455.5 1782,-449.5 1782,-449.5 1782,-427.5 1782,-427.5 1782,-421.5 1788,-415.5 1794,-415.5"/>
<text text-anchor="middle" x="1880.5" y="-446.3" font-family="Times,serif" font-size="14.00">type = 2 (OP)</text>
<polyline fill="none" stroke="black" points="1782,-438.5 1979,-438.5 "/>
<text text-anchor="middle" x="1880.5" y="-423.3" font-family="Times,serif" font-size="14.00">value = &#39;&#39; SHUTUP &#39;&#39; (59)</text>
</g>
<!-- node0x503000000700&#45;&gt;node0x503000000910 -->
<g id="edge34" class="edge">
<title>node0x503000000700&#45;&gt;node0x503000000910</title>
<path fill="none" stroke="black" d="M1687.56,-498.47C1721.89,-487.98 1763.09,-475.39 1798.6,-464.53"/>
<polygon fill="black" stroke="black" points="1799.91,-467.79 1808.45,-461.52 1797.87,-461.1 1799.91,-467.79"/>
</g>
<!-- node0x503000000400 -->
<g id="node27" class="node">
<title>node0x503000000400</title>
<path fill="#2ee31e" stroke="black" d="M870.5,-332.5C870.5,-332.5 1016.5,-332.5 1016.5,-332.5 1022.5,-332.5 1028.5,-338.5 1028.5,-344.5 1028.5,-344.5 1028.5,-366.5 1028.5,-366.5 1028.5,-372.5 1022.5,-378.5 1016.5,-378.5 1016.5,-378.5 870.5,-378.5 870.5,-378.5 864.5,-378.5 858.5,-372.5 858.5,-366.5 858.5,-366.5 858.5,-344.5 858.5,-344.5 858.5,-338.5 864.5,-332.5 870.5,-332.5"/>
<text text-anchor="middle" x="943.5" y="-363.3" font-family="Times,serif" font-size="14.00">type = 4 (FUNC)</text>
<polyline fill="none" stroke="black" points="858.5,-355.5 1028.5,-355.5 "/>
<text text-anchor="middle" x="943.5" y="-340.3" font-family="Times,serif" font-size="14.00">value = &#39;&#39; Jump &#39;&#39; (27)</text>
</g>
<!-- node0x503000000550&#45;&gt;node0x503000000400 -->
<g id="edge26" class="edge">
<title>node0x503000000550&#45;&gt;node0x503000000400</title>
<path fill="none" stroke="black" d="M1068.5,-415.37C1047.26,-405.37 1022,-393.47 999.77,-383"/>
<polygon fill="black" stroke="black" points="1000.98,-379.7 990.44,-378.61 998,-386.03 1000.98,-379.7"/>
</g>
<!-- node0x503000000460 -->
<g id="node28" class="node">
<title>node0x503000000460</title>
<path fill="#feaadf" stroke="black" d="M1059,-332.5C1059,-332.5 1172,-332.5 1172,-332.5 1178,-332.5 1184,-338.5 1184,-344.5 1184,-344.5 1184,-366.5 1184,-366.5 1184,-372.5 1178,-378.5 1172,-378.5 1172,-378.5 1059,-378.5 1059,-378.5 1053,-378.5 1047,-372.5 1047,-366.5 1047,-366.5 1047,-344.5 1047,-344.5 1047,-338.5 1053,-332.5 1059,-332.5"/>
<text text-anchor="middle" x="1115.5" y="-363.3" font-family="Times,serif" font-size="14.00">type = 4 (FUNC)</text>
<polyline fill="none" stroke="black" points="1047,-355.5 1184,-355.5 "/>
<text text-anchor="middle" x="1115.5" y="-340.3" font-family="Times,serif" font-size="14.00">value = &#39;&#39; , &#39;&#39; (44)</text>
</g>
<!-- node0x503000000550&#45;&gt;node0x503000000460 -->
<g id="edge27" class="edge">
<title>node0x503000000550&#45;&gt;node0x503000000460</title>
<path fill="none" stroke="black" d="M1115.5,-415.37C1115.5,-407.15 1115.5,-397.66 1115.5,-388.73"/>
<polygon fill="black" stroke="black" points="1119,-388.61 1115.5,-378.61 1112,-388.61 1119,-388.61"/>
</g>
<!-- node0x503000000430 -->
<g id="node29" class="node">
<title>node0x503000000430</title>
<path fill="#ff5050" stroke="black" d="M742,-249.5C742,-249.5 1017,-249.5 1017,-249.5 1023,-249.5 1029,-255.5 1029,-261.5 1029,-261.5 1029,-283.5 1029,-283.5 1029,-289.5 1023,-295.5 1017,-295.5 1017,-295.5 742,-295.5 742,-295.5 736,-295.5 730,-289.5 730,-283.5 730,-283.5 730,-261.5 730,-261.5 730,-255.5 736,-249.5 742,-249.5"/>
<text text-anchor="middle" x="879.5" y="-280.3" font-family="Times,serif" font-size="14.00">type = 3 (ID)</text>
<polyline fill="none" stroke="black" points="730,-272.5 1029,-272.5 "/>
<text text-anchor="middle" x="879.5" y="-257.3" font-family="Times,serif" font-size="14.00">number of name in name table = &#39;&#39; 25 &#39;&#39;</text>
</g>
<!-- node0x503000000460&#45;&gt;node0x503000000430 -->
<g id="edge28" class="edge">
<title>node0x503000000460&#45;&gt;node0x503000000430</title>
<path fill="none" stroke="black" d="M1051.32,-332.47C1021.02,-322.07 984.68,-309.6 953.25,-298.81"/>
<polygon fill="black" stroke="black" points="954.26,-295.46 943.66,-295.52 951.99,-302.08 954.26,-295.46"/>
</g>
<!-- node0x5030000004c0 -->
<g id="node30" class="node">
<title>node0x5030000004c0</title>
<path fill="#feaadf" stroke="black" d="M1059,-249.5C1059,-249.5 1172,-249.5 1172,-249.5 1178,-249.5 1184,-255.5 1184,-261.5 1184,-261.5 1184,-283.5 1184,-283.5 1184,-289.5 1178,-295.5 1172,-295.5 1172,-295.5 1059,-295.5 1059,-295.5 1053,-295.5 1047,-289.5 1047,-283.5 1047,-283.5 1047,-261.5 1047,-261.5 1047,-255.5 1053,-249.5 1059,-249.5"/>
<text text-anchor="middle" x="1115.5" y="-280.3" font-family="Times,serif" font-size="14.00">type = 4 (FUNC)</text>
<polyline fill="none" stroke="black" points="1047,-272.5 1184,-272.5 "/>
<text text-anchor="middle" x="1115.5" y="-257.3" font-family="Times,serif" font-size="14.00">value = &#39;&#39; , &#39;&#39; (44)</text>
</g>
<!-- node0x503000000460&#45;&gt;node0x5030000004c0 -->
<g id="edge29" class="edge">
<title>node0x503000000460&#45;&gt;node0x5030000004c0</title>
<path fill="none" stroke="black" d="M1115.5,-332.37C1115.5,-324.15 1115.5,-314.66 1115.5,-305.73"/>
<polygon fill="black" stroke="black" points="1119,-305.61 1115.5,-295.61 1112,-305.61 1119,-305.61"/>
</g>
<!-- node0x503000000490 -->
<g id="node31" class="node">
<title>node0x503000000490</title>
<path fill="#ff5050" stroke="black" d="M860,-166.5C860,-166.5 1135,-166.5 1135,-166.5 1141,-166.5 1147,-172.5 1147,-178.5 1147,-178.5 1147,-200.5 1147,-200.5 1147,-206.5 1141,-212.5 1135,-212.5 1135,-212.5 860,-212.5 860,-212.5 854,-212.5 848,-206.5 848,-200.5 848,-200.5 848,-178.5 848,-178.5 848,-172.5 854,-166.5 860,-166.5"/>
<text text-anchor="middle" x="997.5" y="-197.3" font-family="Times,serif" font-size="14.00">type = 3 (ID)</text>
<polyline fill="none" stroke="black" points="848,-189.5 1147,-189.5 "/>
<text text-anchor="middle" x="997.5" y="-174.3" font-family="Times,serif" font-size="14.00">number of name in name table = &#39;&#39; 24 &#39;&#39;</text>
</g>
<!-- node0x5030000004c0&#45;&gt;node0x503000000490 -->
<g id="edge30" class="edge">
<title>node0x5030000004c0&#45;&gt;node0x503000000490</title>
<path fill="none" stroke="black" d="M1083.26,-249.37C1069.34,-239.81 1052.9,-228.53 1038.16,-218.41"/>
<polygon fill="black" stroke="black" points="1039.93,-215.38 1029.71,-212.61 1035.97,-221.15 1039.93,-215.38"/>
</g>
<!-- node0x503000000520 -->
<g id="node32" class="node">
<title>node0x503000000520</title>
<path fill="#feaadf" stroke="black" d="M1177,-166.5C1177,-166.5 1290,-166.5 1290,-166.5 1296,-166.5 1302,-172.5 1302,-178.5 1302,-178.5 1302,-200.5 1302,-200.5 1302,-206.5 1296,-212.5 1290,-212.5 1290,-212.5 1177,-212.5 1177,-212.5 1171,-212.5 1165,-206.5 1165,-200.5 1165,-200.5 1165,-178.5 1165,-178.5 1165,-172.5 1171,-166.5 1177,-166.5"/>
<text text-anchor="middle" x="1233.5" y="-197.3" font-family="Times,serif" font-size="14.00">type = 4 (FUNC)</text>
<polyline fill="none" stroke="black" points="1165,-189.5 1302,-189.5 "/>
<text text-anchor="middle" x="1233.5" y="-174.3" font-family="Times,serif" font-size="14.00">value = &#39;&#39; , &#39;&#39; (44)</text>
</g>
<!-- node0x5030000004c0&#45;&gt;node0x503000000520 -->
<g id="edge31" class="edge">
<title>node0x5030000004c0&#45;&gt;node0x503000000520</title>
<path fill="none" stroke="black" d="M1147.74,-249.37C1161.66,-239.81 1178.1,-228.53 1192.84,-218.41"/>
<polygon fill="black" stroke="black" points="1195.03,-221.15 1201.29,-212.61 1191.07,-215.38 1195.03,-221.15"/>
</g>
<!-- node0x5030000004f0 -->
<g id="node33" class="node">
<title>node0x5030000004f0</title>
<path fill="#ff5050" stroke="black" d="M1096,-83.5C1096,-83.5 1371,-83.5 1371,-83.5 1377,-83.5 1383,-89.5 1383,-95.5 1383,-95.5 1383,-117.5 1383,-117.5 1383,-123.5 1377,-129.5 1371,-129.5 1371,-129.5 1096,-129.5 1096,-129.5 1090,-129.5 1084,-123.5 1084,-117.5 1084,-117.5 1084,-95.5 1084,-95.5 1084,-89.5 1090,-83.5 1096,-83.5"/>
<text text-anchor="middle" x="1233.5" y="-114.3" font-family="Times,serif" font-size="14.00">type = 3 (ID)</text>
<polyline fill="none" stroke="black" points="1084,-106.5 1383,-106.5 "/>
<text text-anchor="middle" x="1233.5" y="-91.3" font-family="Times,serif" font-size="14.00">number of name in name table = &#39;&#39; 26 &#39;&#39;</text>
</g>
<!-- node0x503000000520&#45;&gt;node0x5030000004f0 -->
<g id="edge32" class="edge">
<title>node0x503000000520&#45;&gt;node0x5030000004f0</title>
<path fill="none" stroke="black" d="M1233.5,-166.37C1233.5,-158.15 1233.5,-148.66 1233.5,-139.73"/>
<polygon fill="black" stroke="black" points="1237,-139.61 1233.5,-129.61 1230,-139.61 1237,-139.61"/>
</g>
<!-- node0x503000000610 -->
<g id="node36" class="node">
<title>node0x503000000610</title>
<path fill="#ff5050" stroke="black" d="M1255,-332.5C1255,-332.5 1530,-332.5 1530,-332.5 1536,-332.5 1542,-338.5 1542,-344.5 1542,-344.5 1542,-366.5 1542,-366.5 1542,-372.5 1536,-378.5 1530,-378.5 1530,-378.5 1255,-378.5 1255,-378.5 1249,-378.5 1243,-372.5 1243,-366.5 1243,-366.5 1243,-344.5 1243,-344.5 1243,-338.5 1249,-332.5 1255,-332.5"/>
<text text-anchor="middle" x="1392.5" y="-363.3" font-family="Times,serif" font-size="14.00">type = 3 (ID)</text>
<polyline fill="none" stroke="black" points="1243,-355.5 1542,-355.5 "/>
<text text-anchor="middle" x="1392.5" y="-340.3" font-family="Times,serif" font-size="14.00">number of name in name table = &#39;&#39; 25 &#39;&#39;</text>
</g>
<!-- node0x5030000006d0&#45;&gt;node0x503000000610 -->
<g id="edge35" class="edge">
<title>node0x5030000006d0&#45;&gt;node0x503000000610</title>
<path fill="none" stroke="black" d="M1554.86,-415.47C1526.35,-405.12 1492.19,-392.71 1462.57,-381.95"/>
<polygon fill="black" stroke="black" points="1463.72,-378.65 1453.13,-378.52 1461.33,-385.23 1463.72,-378.65"/>
</g>
<!-- node0x5030000006a0 -->
<g id="node37" class="node">
<title>node0x5030000006a0</title>
<path fill="#00ffdd" stroke="black" d="M1572,-332.5C1572,-332.5 1713,-332.5 1713,-332.5 1719,-332.5 1725,-338.5 1725,-344.5 1725,-344.5 1725,-366.5 1725,-366.5 1725,-372.5 1719,-378.5 1713,-378.5 1713,-378.5 1572,-378.5 1572,-378.5 1566,-378.5 1560,-372.5 1560,-366.5 1560,-366.5 1560,-344.5 1560,-344.5 1560,-338.5 1566,-332.5 1572,-332.5"/>
<text text-anchor="middle" x="1642.5" y="-363.3" font-family="Times,serif" font-size="14.00">type = 2 (OP)</text>
<polyline fill="none" stroke="black" points="1560,-355.5 1725,-355.5 "/>
<text text-anchor="middle" x="1642.5" y="-340.3" font-family="Times,serif" font-size="14.00">value = &#39;&#39; SUB &#39;&#39; (45)</text>
</g>
<!-- node0x5030000006d0&#45;&gt;node0x5030000006a0 -->
<g id="edge36" class="edge">
<title>node0x5030000006d0&#45;&gt;node0x5030000006a0</title>
<path fill="none" stroke="black" d="M1622.88,-415.37C1625.68,-406.97 1628.92,-397.24 1631.95,-388.14"/>
<polygon fill="black" stroke="black" points="1635.29,-389.2 1635.13,-378.61 1628.65,-386.99 1635.29,-389.2"/>
</g>
<!-- node0x5030000008e0 -->
<g id="node40" class="node">
<title>node0x5030000008e0</title>
<path fill="#68f29d" stroke="black" d="M1824,-332.5C1824,-332.5 2013,-332.5 2013,-332.5 2019,-332.5 2025,-338.5 2025,-344.5 2025,-344.5 2025,-366.5 2025,-366.5 2025,-372.5 2019,-378.5 2013,-378.5 2013,-378.5 1824,-378.5 1824,-378.5 1818,-378.5 1812,-372.5 1812,-366.5 1812,-366.5 1812,-344.5 1812,-344.5 1812,-338.5 1818,-332.5 1824,-332.5"/>
<text text-anchor="middle" x="1918.5" y="-363.3" font-family="Times,serif" font-size="14.00">type = 2 (OP)</text>
<polyline fill="none" stroke="black" points="1812,-355.5 2025,-355.5 "/>
<text text-anchor="middle" x="1918.5" y="-340.3" font-family="Times,serif" font-size="14.00">value = &#39;&#39; FORREAL &#39;&#39; (105)</text>
</g>
<!-- node0x503000000910&#45;&gt;node0x5030000008e0 -->
<g id="edge39" class="edge">
<title>node0x503000000910&#45;&gt;node0x5030000008e0</title>
<path fill="none" stroke="black" d="M1890.88,-415.37C1894.86,-406.88 1899.48,-397.04 1903.79,-387.85"/>
<polygon fill="black" stroke="black" points="1907.05,-389.15 1908.13,-378.61 1900.71,-386.17 1907.05,-389.15"/>
</g>
<!-- node0x503000000640 -->
<g id="node38" class="node">
<title>node0x503000000640</title>
<path fill="#ff5050" stroke="black" d="M1214,-249.5C1214,-249.5 1489,-249.5 1489,-249.5 1495,-249.5 1501,-255.5 1501,-261.5 1501,-261.5 1501,-283.5 1501,-283.5 1501,-289.5 1495,-295.5 1489,-295.5 1489,-295.5 1214,-295.5 1214,-295.5 1208,-295.5 1202,-289.5 1202,-283.5 1202,-283.5 1202,-261.5 1202,-261.5 1202,-255.5 1208,-249.5 1214,-249.5"/>
<text text-anchor="middle" x="1351.5" y="-280.3" font-family="Times,serif" font-size="14.00">type = 3 (ID)</text>
<polyline fill="none" stroke="black" points="1202,-272.5 1501,-272.5 "/>
<text text-anchor="middle" x="1351.5" y="-257.3" font-family="Times,serif" font-size="14.00">number of name in name table = &#39;&#39; 25 &#39;&#39;</text>
</g>
<!-- node0x5030000006a0&#45;&gt;node0x503000000640 -->
<g id="edge37" class="edge">
<title>node0x5030000006a0&#45;&gt;node0x503000000640</title>
<path fill="none" stroke="black" d="M1563.37,-332.47C1525.35,-321.89 1479.65,-309.17 1440.44,-298.26"/>
<polygon fill="black" stroke="black" points="1441.19,-294.83 1430.62,-295.52 1439.31,-301.58 1441.19,-294.83"/>
</g>
<!-- node0x503000000670 -->
<g id="node39" class="node">
<title>node0x503000000670</title>
<path fill="#ff5050" stroke="black" d="M1531,-249.5C1531,-249.5 1806,-249.5 1806,-249.5 1812,-249.5 1818,-255.5 1818,-261.5 1818,-261.5 1818,-283.5 1818,-283.5 1818,-289.5 1812,-295.5 1806,-295.5 1806,-295.5 1531,-295.5 1531,-295.5 1525,-295.5 1519,-289.5 1519,-283.5 1519,-283.5 1519,-261.5 1519,-261.5 1519,-255.5 1525,-249.5 1531,-249.5"/>
<text text-anchor="middle" x="1668.5" y="-280.3" font-family="Times,serif" font-size="14.00">type = 3 (ID)</text>
<polyline fill="none" stroke="black" points="1519,-272.5 1818,-272.5 "/>
<text text-anchor="middle" x="1668.5" y="-257.3" font-family="Times,serif" font-size="14.00">number of name in name table = &#39;&#39; 24 &#39;&#39;</text>
</g>
<!-- node0x5030000006a0&#45;&gt;node0x503000000670 -->
<g id="edge38" class="edge">
<title>node0x5030000006a0&#45;&gt;node0x503000000670</title>
<path fill="none" stroke="black" d="M1649.6,-332.37C1652.3,-323.97 1655.42,-314.24 1658.34,-305.14"/>
<polygon fill="black" stroke="black" points="1661.68,-306.2 1661.4,-295.61 1655.02,-304.06 1661.68,-306.2"/>
</g>
<!-- node0x503000000790 -->
<g id="node41" class="node">
<title>node0x503000000790</title>
<path fill="#00ffdd" stroke="black" d="M1848,-249.5C1848,-249.5 1989,-249.5 1989,-249.5 1995,-249.5 2001,-255.5 2001,-261.5 2001,-261.5 2001,-283.5 2001,-283.5 2001,-289.5 1995,-295.5 1989,-295.5 1989,-295.5 1848,-295.5 1848,-295.5 1842,-295.5 1836,-289.5 1836,-283.5 1836,-283.5 1836,-261.5 1836,-261.5 1836,-255.5 1842,-249.5 1848,-249.5"/>
<text text-anchor="middle" x="1918.5" y="-280.3" font-family="Times,serif" font-size="14.00">type = 2 (OP)</text>
<polyline fill="none" stroke="black" points="1836,-272.5 2001,-272.5 "/>
<text text-anchor="middle" x="1918.5" y="-257.3" font-family="Times,serif" font-size="14.00">value = &#39;&#39; SUB &#39;&#39; (45)</text>
</g>
<!-- node0x5030000008e0&#45;&gt;node0x503000000790 -->
<g id="edge40" class="edge">
<title>node0x5030000008e0&#45;&gt;node0x503000000790</title>
<path fill="none" stroke="black" d="M1918.5,-332.37C1918.5,-324.15 1918.5,-314.66 1918.5,-305.73"/>
<polygon fill="black" stroke="black" points="1922,-305.61 1918.5,-295.61 1915,-305.61 1922,-305.61"/>
</g>
<!-- node0x5030000008b0 -->
<g id="node42" class="node">
<title>node0x5030000008b0</title>
<path fill="#e0e0e0" stroke="black" d="M2031,-249.5C2031,-249.5 2204,-249.5 2204,-249.5 2210,-249.5 2216,-255.5 2216,-261.5 2216,-261.5 2216,-283.5 2216,-283.5 2216,-289.5 2210,-295.5 2204,-295.5 2204,-295.5 2031,-295.5 2031,-295.5 2025,-295.5 2019,-289.5 2019,-283.5 2019,-283.5 2019,-261.5 2019,-261.5 2019,-255.5 2025,-249.5 2031,-249.5"/>
<text text-anchor="middle" x="2117.5" y="-280.3" font-family="Times,serif" font-size="14.00">type = 2 (OP)</text>
<polyline fill="none" stroke="black" points="2019,-272.5 2216,-272.5 "/>
<text text-anchor="middle" x="2117.5" y="-257.3" font-family="Times,serif" font-size="14.00">value = &#39;&#39; SHUTUP &#39;&#39; (59)</text>
</g>
<!-- node0x5030000008e0&#45;&gt;node0x5030000008b0 -->
<g id="edge41" class="edge">
<title>node0x5030000008e0&#45;&gt;node0x5030000008b0</title>
<path fill="none" stroke="black" d="M1972.61,-332.47C1997.73,-322.25 2027.75,-310.03 2053.94,-299.37"/>
<polygon fill="black" stroke="black" points="2055.45,-302.53 2063.4,-295.52 2052.81,-296.05 2055.45,-302.53"/>
</g>
<!-- node0x503000000730 -->
<g id="node43" class="node">
<title>node0x503000000730</title>
<path fill="#ff5050" stroke="black" d="M1569,-166.5C1569,-166.5 1844,-166.5 1844,-166.5 1850,-166.5 1856,-172.5 1856,-178.5 1856,-178.5 1856,-200.5 1856,-200.5 1856,-206.5 1850,-212.5 1844,-212.5 1844,-212.5 1569,-212.5 1569,-212.5 1563,-212.5 1557,-206.5 1557,-200.5 1557,-200.5 1557,-178.5 1557,-178.5 1557,-172.5 1563,-166.5 1569,-166.5"/>
<text text-anchor="middle" x="1706.5" y="-197.3" font-family="Times,serif" font-size="14.00">type = 3 (ID)</text>
<polyline fill="none" stroke="black" points="1557,-189.5 1856,-189.5 "/>
<text text-anchor="middle" x="1706.5" y="-174.3" font-family="Times,serif" font-size="14.00">number of name in name table = &#39;&#39; 24 &#39;&#39;</text>
</g>
<!-- node0x503000000790&#45;&gt;node0x503000000730 -->
<g id="edge42" class="edge">
<title>node0x503000000790&#45;&gt;node0x503000000730</title>
<path fill="none" stroke="black" d="M1860.85,-249.47C1833.86,-239.16 1801.55,-226.82 1773.48,-216.09"/>
<polygon fill="black" stroke="black" points="1774.73,-212.82 1764.14,-212.52 1772.23,-219.36 1774.73,-212.82"/>
</g>
<!-- node0x503000000760 -->
<g id="node44" class="node">
<title>node0x503000000760</title>
<path fill="#ffd700" stroke="black" d="M1886,-166.5C1886,-166.5 1993,-166.5 1993,-166.5 1999,-166.5 2005,-172.5 2005,-178.5 2005,-178.5 2005,-200.5 2005,-200.5 2005,-206.5 1999,-212.5 1993,-212.5 1993,-212.5 1886,-212.5 1886,-212.5 1880,-212.5 1874,-206.5 1874,-200.5 1874,-200.5 1874,-178.5 1874,-178.5 1874,-172.5 1880,-166.5 1886,-166.5"/>
<text text-anchor="middle" x="1939.5" y="-197.3" font-family="Times,serif" font-size="14.00">type = 1 (NUM)</text>
<polyline fill="none" stroke="black" points="1874,-189.5 2005,-189.5 "/>
<text text-anchor="middle" x="1939.5" y="-174.3" font-family="Times,serif" font-size="14.00">value = &#39;&#39; 14 &#39;&#39;</text>
</g>
<!-- node0x503000000790&#45;&gt;node0x503000000760 -->
<g id="edge43" class="edge">
<title>node0x503000000790&#45;&gt;node0x503000000760</title>
<path fill="none" stroke="black" d="M1924.24,-249.37C1926.39,-241.06 1928.88,-231.45 1931.22,-222.43"/>
<polygon fill="black" stroke="black" points="1934.65,-223.17 1933.77,-212.61 1927.87,-221.41 1934.65,-223.17"/>
</g>
<!-- node0x503000000880 -->
<g id="node45" class="node">
<title>node0x503000000880</title>
<path fill="#00ffdd" stroke="black" d="M2057,-166.5C2057,-166.5 2178,-166.5 2178,-166.5 2184,-166.5 2190,-172.5 2190,-178.5 2190,-178.5 2190,-200.5 2190,-200.5 2190,-206.5 2184,-212.5 2178,-212.5 2178,-212.5 2057,-212.5 2057,-212.5 2051,-212.5 2045,-206.5 2045,-200.5 2045,-200.5 2045,-178.5 2045,-178.5 2045,-172.5 2051,-166.5 2057,-166.5"/>
<text text-anchor="middle" x="2117.5" y="-197.3" font-family="Times,serif" font-size="14.00">type = 2 (OP)</text>
<polyline fill="none" stroke="black" points="2045,-189.5 2190,-189.5 "/>
<text text-anchor="middle" x="2117.5" y="-174.3" font-family="Times,serif" font-size="14.00">value = &#39;&#39; = &#39;&#39; (61)</text>
</g>
<!-- node0x5030000008b0&#45;&gt;node0x503000000880 -->
<g id="edge44" class="edge">
<title>node0x5030000008b0&#45;&gt;node0x503000000880</title>
<path fill="none" stroke="black" d="M2117.5,-249.37C2117.5,-241.15 2117.5,-231.66 2117.5,-222.73"/>
<polygon fill="black" stroke="black" points="2121,-222.61 2117.5,-212.61 2114,-222.61 2121,-222.61"/>
</g>
<!-- node0x5030000007c0 -->
<g id="node46" class="node">
<title>node0x5030000007c0</title>
<path fill="#ff5050" stroke="black" d="M1855,-83.5C1855,-83.5 2130,-83.5 2130,-83.5 2136,-83.5 2142,-89.5 2142,-95.5 2142,-95.5 2142,-117.5 2142,-117.5 2142,-123.5 2136,-129.5 2130,-129.5 2130,-129.5 1855,-129.5 1855,-129.5 1849,-129.5 1843,-123.5 1843,-117.5 1843,-117.5 1843,-95.5 1843,-95.5 1843,-89.5 1849,-83.5 1855,-83.5"/>
<text text-anchor="middle" x="1992.5" y="-114.3" font-family="Times,serif" font-size="14.00">type = 3 (ID)</text>
<polyline fill="none" stroke="black" points="1843,-106.5 2142,-106.5 "/>
<text text-anchor="middle" x="1992.5" y="-91.3" font-family="Times,serif" font-size="14.00">number of name in name table = &#39;&#39; 24 &#39;&#39;</text>
</g>
<!-- node0x503000000880&#45;&gt;node0x5030000007c0 -->
<g id="edge45" class="edge">
<title>node0x503000000880&#45;&gt;node0x5030000007c0</title>
<path fill="none" stroke="black" d="M2083.34,-166.37C2068.46,-156.72 2050.86,-145.32 2035.13,-135.13"/>
<polygon fill="black" stroke="black" points="2036.91,-132.11 2026.62,-129.61 2033.1,-137.98 2036.91,-132.11"/>
</g>
<!-- node0x503000000850 -->
<g id="node47" class="node">
<title>node0x503000000850</title>
<path fill="#00ffdd" stroke="black" d="M2172,-83.5C2172,-83.5 2313,-83.5 2313,-83.5 2319,-83.5 2325,-89.5 2325,-95.5 2325,-95.5 2325,-117.5 2325,-117.5 2325,-123.5 2319,-129.5 2313,-129.5 2313,-129.5 2172,-129.5 2172,-129.5 2166,-129.5 2160,-123.5 2160,-117.5 2160,-117.5 2160,-95.5 2160,-95.5 2160,-89.5 2166,-83.5 2172,-83.5"/>
<text text-anchor="middle" x="2242.5" y="-114.3" font-family="Times,serif" font-size="14.00">type = 2 (OP)</text>
<polyline fill="none" stroke="black" points="2160,-106.5 2325,-106.5 "/>
<text text-anchor="middle" x="2242.5" y="-91.3" font-family="Times,serif" font-size="14.00">value = &#39;&#39; SUB &#39;&#39; (45)</text>
</g>
<!-- node0x503000000880&#45;&gt;node0x503000000850 -->
<g id="edge46" class="edge">
<title>node0x503000000880&#45;&gt;node0x503000000850</title>
<path fill="none" stroke="black" d="M2151.66,-166.37C2166.54,-156.72 2184.14,-145.32 2199.87,-135.13"/>
<polygon fill="black" stroke="black" points="2201.9,-137.98 2208.38,-129.61 2198.09,-132.11 2201.9,-137.98"/>
</g>
<!-- node0x5030000007f0 -->
<g id="node48" class="node">
<title>node0x5030000007f0</title>
<path fill="#ff5050" stroke="black" d="M1988,-0.5C1988,-0.5 2263,-0.5 2263,-0.5 2269,-0.5 2275,-6.5 2275,-12.5 2275,-12.5 2275,-34.5 2275,-34.5 2275,-40.5 2269,-46.5 2263,-46.5 2263,-46.5 1988,-46.5 1988,-46.5 1982,-46.5 1976,-40.5 1976,-34.5 1976,-34.5 1976,-12.5 1976,-12.5 1976,-6.5 1982,-0.5 1988,-0.5"/>
<text text-anchor="middle" x="2125.5" y="-31.3" font-family="Times,serif" font-size="14.00">type = 3 (ID)</text>
<polyline fill="none" stroke="black" points="1976,-23.5 2275,-23.5 "/>
<text text-anchor="middle" x="2125.5" y="-8.3" font-family="Times,serif" font-size="14.00">number of name in name table = &#39;&#39; 24 &#39;&#39;</text>
</g>
<!-- node0x503000000850&#45;&gt;node0x5030000007f0 -->
<g id="edge47" class="edge">
<title>node0x503000000850&#45;&gt;node0x5030000007f0</title>
<path fill="none" stroke="black" d="M2210.53,-83.37C2196.73,-73.81 2180.43,-62.53 2165.81,-52.41"/>
<polygon fill="black" stroke="black" points="2167.65,-49.42 2157.43,-46.61 2163.66,-55.18 2167.65,-49.42"/>
</g>
<!-- node0x503000000820 -->
<g id="node49" class="node">
<title>node0x503000000820</title>
<path fill="#ffd700" stroke="black" d="M2305,-0.5C2305,-0.5 2412,-0.5 2412,-0.5 2418,-0.5 2424,-6.5 2424,-12.5 2424,-12.5 2424,-34.5 2424,-34.5 2424,-40.5 2418,-46.5 2412,-46.5 2412,-46.5 2305,-46.5 2305,-46.5 2299,-46.5 2293,-40.5 2293,-34.5 2293,-34.5 2293,-12.5 2293,-12.5 2293,-6.5 2299,-0.5 2305,-0.5"/>
<text text-anchor="middle" x="2358.5" y="-31.3" font-family="Times,serif" font-size="14.00">type = 1 (NUM)</text>
<polyline fill="none" stroke="black" points="2293,-23.5 2424,-23.5 "/>
<text text-anchor="middle" x="2358.5" y="-8.3" font-family="Times,serif" font-size="14.00">value = &#39;&#39; 2 &#39;&#39;</text>
</g>
<!-- node0x503000000850&#45;&gt;node0x503000000820 -->
<g id="edge48" class="edge">
<title>node0x503000000850&#45;&gt;node0x503000000820</title>
<path fill="none" stroke="black" d="M2274.2,-83.37C2287.88,-73.81 2304.04,-62.53 2318.53,-52.41"/>
<polygon fill="black" stroke="black" points="2320.65,-55.2 2326.84,-46.61 2316.64,-49.46 2320.65,-55.2"/>
</g>
</g>
</svg>
