<?xml version="1.0" encoding="UTF-8" standalone="no"?>
<!DOCTYPE svg PUBLIC "-//W3C//DTD SVG 1.1//EN"
 "http://www.w3.org/Graphics/SVG/1.1/DTD/svg11.dtd">
<!-- Generated by graphviz version 2.43.0 (0)
 -->
<!-- Title: %3 Pages: 1 -->
<svg width="1872pt" height="875pt"
 viewBox="0.00 0.00 1872.00 875.00" xmlns="http://www.w3.org/2000/svg" xmlns:xlink="http://www.w3.org/1999/xlink">
<g id="graph0" class="graph" transform="scale(1 1) rotate(0) translate(4 871)">
<title>%3</title>
<!-- node0x5030000000d0 -->
<g id="node1" class="node">
<title>node0x5030000000d0</title>
<path fill="#e0e0e0" stroke="black" d="M536.5,-774.5C536.5,-774.5 917.5,-774.5 917.5,-774.5 923.5,-774.5 929.5,-780.5 929.5,-786.5 929.5,-786.5 929.5,-854.5 929.5,-854.5 929.5,-860.5 923.5,-866.5 917.5,-866.5 917.5,-866.5 536.5,-866.5 536.5,-866.5 530.5,-866.5 524.5,-860.5 524.5,-854.5 524.5,-854.5 524.5,-786.5 524.5,-786.5 524.5,-780.5 530.5,-774.5 536.5,-774.5"/>
<text text-anchor="middle" x="727" y="-851.3" font-family="Times,serif" font-size="14.00">[0x5030000000d0]</text>
<polyline fill="none" stroke="black" points="524.5,-843.5 929.5,-843.5 "/>
<text text-anchor="middle" x="727" y="-828.3" font-family="Times,serif" font-size="14.00">type = 2 (OP)</text>
<polyline fill="none" stroke="black" points="524.5,-820.5 929.5,-820.5 "/>
<text text-anchor="middle" x="727" y="-805.3" font-family="Times,serif" font-size="14.00">value = &#39;&#39; GLUE &#39;&#39;</text>
<polyline fill="none" stroke="black" points="524.5,-797.5 929.5,-797.5 "/>
<text text-anchor="middle" x="623" y="-782.3" font-family="Times,serif" font-size="14.00">left = [0x5030000000a0]</text>
<polyline fill="none" stroke="black" points="721.5,-774.5 721.5,-797.5 "/>
<text text-anchor="middle" x="825.5" y="-782.3" font-family="Times,serif" font-size="14.00">right = [0x5030000003a0]</text>
</g>
<!-- node0x5030000000a0 -->
<g id="node2" class="node">
<title>node0x5030000000a0</title>
<path fill="#50b2aa" stroke="black" d="M324,-645.5C324,-645.5 706,-645.5 706,-645.5 712,-645.5 718,-651.5 718,-657.5 718,-657.5 718,-725.5 718,-725.5 718,-731.5 712,-737.5 706,-737.5 706,-737.5 324,-737.5 324,-737.5 318,-737.5 312,-731.5 312,-725.5 312,-725.5 312,-657.5 312,-657.5 312,-651.5 318,-645.5 324,-645.5"/>
<text text-anchor="middle" x="515" y="-722.3" font-family="Times,serif" font-size="14.00">[0x5030000000a0]</text>
<polyline fill="none" stroke="black" points="312,-714.5 718,-714.5 "/>
<text text-anchor="middle" x="515" y="-699.3" font-family="Times,serif" font-size="14.00">type = 2 (OP)</text>
<polyline fill="none" stroke="black" points="312,-691.5 718,-691.5 "/>
<text text-anchor="middle" x="515" y="-676.3" font-family="Times,serif" font-size="14.00">value = &#39;&#39; = &#39;&#39; (61)</text>
<polyline fill="none" stroke="black" points="312,-668.5 718,-668.5 "/>
<text text-anchor="middle" x="410.5" y="-653.3" font-family="Times,serif" font-size="14.00">left = [0x503000000040]</text>
<polyline fill="none" stroke="black" points="509,-645.5 509,-668.5 "/>
<text text-anchor="middle" x="613.5" y="-653.3" font-family="Times,serif" font-size="14.00">right = [0x503000000070]</text>
</g>
<!-- node0x5030000000d0&#45;&gt;node0x5030000000a0 -->
<g id="edge1" class="edge">
<title>node0x5030000000d0&#45;&gt;node0x5030000000a0</title>
<path fill="none" stroke="black" d="M651.66,-774.37C634.73,-764.23 616.67,-753.41 599.4,-743.06"/>
<polygon fill="black" stroke="black" points="600.83,-739.84 590.45,-737.7 597.23,-745.84 600.83,-739.84"/>
</g>
<!-- node0x5030000003a0 -->
<g id="node3" class="node">
<title>node0x5030000003a0</title>
<path fill="#e0e0e0" stroke="black" d="M748,-645.5C748,-645.5 1130,-645.5 1130,-645.5 1136,-645.5 1142,-651.5 1142,-657.5 1142,-657.5 1142,-725.5 1142,-725.5 1142,-731.5 1136,-737.5 1130,-737.5 1130,-737.5 748,-737.5 748,-737.5 742,-737.5 736,-731.5 736,-725.5 736,-725.5 736,-657.5 736,-657.5 736,-651.5 742,-645.5 748,-645.5"/>
<text text-anchor="middle" x="939" y="-722.3" font-family="Times,serif" font-size="14.00">[0x5030000003a0]</text>
<polyline fill="none" stroke="black" points="736,-714.5 1142,-714.5 "/>
<text text-anchor="middle" x="939" y="-699.3" font-family="Times,serif" font-size="14.00">type = 2 (OP)</text>
<polyline fill="none" stroke="black" points="736,-691.5 1142,-691.5 "/>
<text text-anchor="middle" x="939" y="-676.3" font-family="Times,serif" font-size="14.00">value = &#39;&#39; GLUE &#39;&#39;</text>
<polyline fill="none" stroke="black" points="736,-668.5 1142,-668.5 "/>
<text text-anchor="middle" x="834.5" y="-653.3" font-family="Times,serif" font-size="14.00">left = [0x503000000370]</text>
<polyline fill="none" stroke="black" points="933,-645.5 933,-668.5 "/>
<text text-anchor="middle" x="1037.5" y="-653.3" font-family="Times,serif" font-size="14.00">right = [0x503000000460]</text>
</g>
<!-- node0x5030000000d0&#45;&gt;node0x5030000003a0 -->
<g id="edge2" class="edge">
<title>node0x5030000000d0&#45;&gt;node0x5030000003a0</title>
<path fill="none" stroke="black" d="M802.34,-774.37C819.27,-764.23 837.33,-753.41 854.6,-743.06"/>
<polygon fill="black" stroke="black" points="856.77,-745.84 863.55,-737.7 853.17,-739.84 856.77,-745.84"/>
</g>
<!-- node0x503000000040 -->
<g id="node4" class="node">
<title>node0x503000000040</title>
<path fill="#ff5050" stroke="black" d="M145,-516.5C145,-516.5 403,-516.5 403,-516.5 409,-516.5 415,-522.5 415,-528.5 415,-528.5 415,-596.5 415,-596.5 415,-602.5 409,-608.5 403,-608.5 403,-608.5 145,-608.5 145,-608.5 139,-608.5 133,-602.5 133,-596.5 133,-596.5 133,-528.5 133,-528.5 133,-522.5 139,-516.5 145,-516.5"/>
<text text-anchor="middle" x="274" y="-593.3" font-family="Times,serif" font-size="14.00">[0x503000000040]</text>
<polyline fill="none" stroke="black" points="133,-585.5 415,-585.5 "/>
<text text-anchor="middle" x="274" y="-570.3" font-family="Times,serif" font-size="14.00">type = 4 (ID)</text>
<polyline fill="none" stroke="black" points="133,-562.5 415,-562.5 "/>
<text text-anchor="middle" x="274" y="-547.3" font-family="Times,serif" font-size="14.00">number of name in name table = &#39;16&#39;</text>
<polyline fill="none" stroke="black" points="133,-539.5 415,-539.5 "/>
<text text-anchor="middle" x="200.5" y="-524.3" font-family="Times,serif" font-size="14.00">left = [(nil)]</text>
<polyline fill="none" stroke="black" points="268,-516.5 268,-539.5 "/>
<text text-anchor="middle" x="341.5" y="-524.3" font-family="Times,serif" font-size="14.00">right = [(nil)]</text>
</g>
<!-- node0x5030000000a0&#45;&gt;node0x503000000040 -->
<g id="edge3" class="edge">
<title>node0x5030000000a0&#45;&gt;node0x503000000040</title>
<path fill="none" stroke="black" d="M429.35,-645.37C409.76,-635.04 388.82,-624.01 368.87,-613.49"/>
<polygon fill="black" stroke="black" points="370.25,-610.27 359.78,-608.7 366.99,-616.46 370.25,-610.27"/>
</g>
<!-- node0x503000000070 -->
<g id="node5" class="node">
<title>node0x503000000070</title>
<path fill="#ffd700" stroke="black" d="M445.5,-516.5C445.5,-516.5 634.5,-516.5 634.5,-516.5 640.5,-516.5 646.5,-522.5 646.5,-528.5 646.5,-528.5 646.5,-596.5 646.5,-596.5 646.5,-602.5 640.5,-608.5 634.5,-608.5 634.5,-608.5 445.5,-608.5 445.5,-608.5 439.5,-608.5 433.5,-602.5 433.5,-596.5 433.5,-596.5 433.5,-528.5 433.5,-528.5 433.5,-522.5 439.5,-516.5 445.5,-516.5"/>
<text text-anchor="middle" x="540" y="-593.3" font-family="Times,serif" font-size="14.00">[0x503000000070]</text>
<polyline fill="none" stroke="black" points="433.5,-585.5 646.5,-585.5 "/>
<text text-anchor="middle" x="540" y="-570.3" font-family="Times,serif" font-size="14.00">type = 1 (NUM)</text>
<polyline fill="none" stroke="black" points="433.5,-562.5 646.5,-562.5 "/>
<text text-anchor="middle" x="540" y="-547.3" font-family="Times,serif" font-size="14.00">value = 11111</text>
<polyline fill="none" stroke="black" points="433.5,-539.5 646.5,-539.5 "/>
<text text-anchor="middle" x="484" y="-524.3" font-family="Times,serif" font-size="14.00">left = [(nil)]</text>
<polyline fill="none" stroke="black" points="534.5,-516.5 534.5,-539.5 "/>
<text text-anchor="middle" x="590.5" y="-524.3" font-family="Times,serif" font-size="14.00">right = [(nil)]</text>
</g>
<!-- node0x5030000000a0&#45;&gt;node0x503000000070 -->
<g id="edge4" class="edge">
<title>node0x5030000000a0&#45;&gt;node0x503000000070</title>
<path fill="none" stroke="black" d="M523.88,-645.37C525.58,-636.77 527.37,-627.68 529.11,-618.8"/>
<polygon fill="black" stroke="black" points="532.56,-619.4 531.06,-608.92 525.69,-618.05 532.56,-619.4"/>
</g>
<!-- node0x503000000370 -->
<g id="node6" class="node">
<title>node0x503000000370</title>
<path fill="#00801a" stroke="black" d="M724,-516.5C724,-516.5 1106,-516.5 1106,-516.5 1112,-516.5 1118,-522.5 1118,-528.5 1118,-528.5 1118,-596.5 1118,-596.5 1118,-602.5 1112,-608.5 1106,-608.5 1106,-608.5 724,-608.5 724,-608.5 718,-608.5 712,-602.5 712,-596.5 712,-596.5 712,-528.5 712,-528.5 712,-522.5 718,-516.5 724,-516.5"/>
<text text-anchor="middle" x="915" y="-593.3" font-family="Times,serif" font-size="14.00">[0x503000000370]</text>
<polyline fill="none" stroke="black" points="712,-585.5 1118,-585.5 "/>
<text text-anchor="middle" x="915" y="-570.3" font-family="Times,serif" font-size="14.00">type = 2 (OP)</text>
<polyline fill="none" stroke="black" points="712,-562.5 1118,-562.5 "/>
<text text-anchor="middle" x="915" y="-547.3" font-family="Times,serif" font-size="14.00">value = &#39;&#39; FORREAL &#39;&#39;</text>
<polyline fill="none" stroke="black" points="712,-539.5 1118,-539.5 "/>
<text text-anchor="middle" x="810.5" y="-524.3" font-family="Times,serif" font-size="14.00">left = [0x503000000160]</text>
<polyline fill="none" stroke="black" points="909,-516.5 909,-539.5 "/>
<text text-anchor="middle" x="1013.5" y="-524.3" font-family="Times,serif" font-size="14.00">right = [0x503000000280]</text>
</g>
<!-- node0x5030000003a0&#45;&gt;node0x503000000370 -->
<g id="edge5" class="edge">
<title>node0x5030000003a0&#45;&gt;node0x503000000370</title>
<path fill="none" stroke="black" d="M930.47,-645.37C928.85,-636.77 927.13,-627.68 925.45,-618.8"/>
<polygon fill="black" stroke="black" points="928.88,-618.09 923.58,-608.92 922,-619.39 928.88,-618.09"/>
</g>
<!-- node0x503000000460 -->
<g id="node7" class="node">
<title>node0x503000000460</title>
<path fill="#e0e0e0" stroke="black" d="M1213.5,-516.5C1213.5,-516.5 1498.5,-516.5 1498.5,-516.5 1504.5,-516.5 1510.5,-522.5 1510.5,-528.5 1510.5,-528.5 1510.5,-596.5 1510.5,-596.5 1510.5,-602.5 1504.5,-608.5 1498.5,-608.5 1498.5,-608.5 1213.5,-608.5 1213.5,-608.5 1207.5,-608.5 1201.5,-602.5 1201.5,-596.5 1201.5,-596.5 1201.5,-528.5 1201.5,-528.5 1201.5,-522.5 1207.5,-516.5 1213.5,-516.5"/>
<text text-anchor="middle" x="1356" y="-593.3" font-family="Times,serif" font-size="14.00">[0x503000000460]</text>
<polyline fill="none" stroke="black" points="1201.5,-585.5 1510.5,-585.5 "/>
<text text-anchor="middle" x="1356" y="-570.3" font-family="Times,serif" font-size="14.00">type = 2 (OP)</text>
<polyline fill="none" stroke="black" points="1201.5,-562.5 1510.5,-562.5 "/>
<text text-anchor="middle" x="1356" y="-547.3" font-family="Times,serif" font-size="14.00">value = &#39;&#39; GLUE &#39;&#39;</text>
<polyline fill="none" stroke="black" points="1201.5,-539.5 1510.5,-539.5 "/>
<text text-anchor="middle" x="1300" y="-524.3" font-family="Times,serif" font-size="14.00">left = [0x503000000430]</text>
<polyline fill="none" stroke="black" points="1398.5,-516.5 1398.5,-539.5 "/>
<text text-anchor="middle" x="1454.5" y="-524.3" font-family="Times,serif" font-size="14.00">right = [(nil)]</text>
</g>
<!-- node0x5030000003a0&#45;&gt;node0x503000000460 -->
<g id="edge6" class="edge">
<title>node0x5030000003a0&#45;&gt;node0x503000000460</title>
<path fill="none" stroke="black" d="M1086.9,-645.46C1123.02,-634.46 1161.79,-622.65 1198.34,-611.52"/>
<polygon fill="black" stroke="black" points="1199.54,-614.81 1208.09,-608.55 1197.5,-608.11 1199.54,-614.81"/>
</g>
<!-- node0x503000000160 -->
<g id="node8" class="node">
<title>node0x503000000160</title>
<path fill="#50b2aa" stroke="black" d="M216,-387.5C216,-387.5 598,-387.5 598,-387.5 604,-387.5 610,-393.5 610,-399.5 610,-399.5 610,-467.5 610,-467.5 610,-473.5 604,-479.5 598,-479.5 598,-479.5 216,-479.5 216,-479.5 210,-479.5 204,-473.5 204,-467.5 204,-467.5 204,-399.5 204,-399.5 204,-393.5 210,-387.5 216,-387.5"/>
<text text-anchor="middle" x="407" y="-464.3" font-family="Times,serif" font-size="14.00">[0x503000000160]</text>
<polyline fill="none" stroke="black" points="204,-456.5 610,-456.5 "/>
<text text-anchor="middle" x="407" y="-441.3" font-family="Times,serif" font-size="14.00">type = 2 (OP)</text>
<polyline fill="none" stroke="black" points="204,-433.5 610,-433.5 "/>
<text text-anchor="middle" x="407" y="-418.3" font-family="Times,serif" font-size="14.00">value = &#39;&#39; PLUS &#39;&#39; (43)</text>
<polyline fill="none" stroke="black" points="204,-410.5 610,-410.5 "/>
<text text-anchor="middle" x="302.5" y="-395.3" font-family="Times,serif" font-size="14.00">left = [0x503000000100]</text>
<polyline fill="none" stroke="black" points="401,-387.5 401,-410.5 "/>
<text text-anchor="middle" x="505.5" y="-395.3" font-family="Times,serif" font-size="14.00">right = [0x503000000130]</text>
</g>
<!-- node0x503000000370&#45;&gt;node0x503000000160 -->
<g id="edge7" class="edge">
<title>node0x503000000370&#45;&gt;node0x503000000160</title>
<path fill="none" stroke="black" d="M734.83,-516.46C690.17,-505.29 642.18,-493.3 597.07,-482.02"/>
<polygon fill="black" stroke="black" points="597.74,-478.58 587.19,-479.55 596.04,-485.37 597.74,-478.58"/>
</g>
<!-- node0x503000000280 -->
<g id="node9" class="node">
<title>node0x503000000280</title>
<path fill="#e0e0e0" stroke="black" d="M724,-387.5C724,-387.5 1106,-387.5 1106,-387.5 1112,-387.5 1118,-393.5 1118,-399.5 1118,-399.5 1118,-467.5 1118,-467.5 1118,-473.5 1112,-479.5 1106,-479.5 1106,-479.5 724,-479.5 724,-479.5 718,-479.5 712,-473.5 712,-467.5 712,-467.5 712,-399.5 712,-399.5 712,-393.5 718,-387.5 724,-387.5"/>
<text text-anchor="middle" x="915" y="-464.3" font-family="Times,serif" font-size="14.00">[0x503000000280]</text>
<polyline fill="none" stroke="black" points="712,-456.5 1118,-456.5 "/>
<text text-anchor="middle" x="915" y="-441.3" font-family="Times,serif" font-size="14.00">type = 2 (OP)</text>
<polyline fill="none" stroke="black" points="712,-433.5 1118,-433.5 "/>
<text text-anchor="middle" x="915" y="-418.3" font-family="Times,serif" font-size="14.00">value = &#39;&#39; GLUE &#39;&#39;</text>
<polyline fill="none" stroke="black" points="712,-410.5 1118,-410.5 "/>
<text text-anchor="middle" x="810.5" y="-395.3" font-family="Times,serif" font-size="14.00">left = [0x503000000250]</text>
<polyline fill="none" stroke="black" points="909,-387.5 909,-410.5 "/>
<text text-anchor="middle" x="1013.5" y="-395.3" font-family="Times,serif" font-size="14.00">right = [0x503000000340]</text>
</g>
<!-- node0x503000000370&#45;&gt;node0x503000000280 -->
<g id="edge8" class="edge">
<title>node0x503000000370&#45;&gt;node0x503000000280</title>
<path fill="none" stroke="black" d="M915,-516.37C915,-507.86 915,-498.87 915,-490.09"/>
<polygon fill="black" stroke="black" points="918.5,-489.92 915,-479.92 911.5,-489.92 918.5,-489.92"/>
</g>
<!-- node0x503000000430 -->
<g id="node21" class="node">
<title>node0x503000000430</title>
<path fill="#50b2aa" stroke="black" d="M1232,-387.5C1232,-387.5 1614,-387.5 1614,-387.5 1620,-387.5 1626,-393.5 1626,-399.5 1626,-399.5 1626,-467.5 1626,-467.5 1626,-473.5 1620,-479.5 1614,-479.5 1614,-479.5 1232,-479.5 1232,-479.5 1226,-479.5 1220,-473.5 1220,-467.5 1220,-467.5 1220,-399.5 1220,-399.5 1220,-393.5 1226,-387.5 1232,-387.5"/>
<text text-anchor="middle" x="1423" y="-464.3" font-family="Times,serif" font-size="14.00">[0x503000000430]</text>
<polyline fill="none" stroke="black" points="1220,-456.5 1626,-456.5 "/>
<text text-anchor="middle" x="1423" y="-441.3" font-family="Times,serif" font-size="14.00">type = 2 (OP)</text>
<polyline fill="none" stroke="black" points="1220,-433.5 1626,-433.5 "/>
<text text-anchor="middle" x="1423" y="-418.3" font-family="Times,serif" font-size="14.00">value = &#39;&#39; = &#39;&#39; (61)</text>
<polyline fill="none" stroke="black" points="1220,-410.5 1626,-410.5 "/>
<text text-anchor="middle" x="1318.5" y="-395.3" font-family="Times,serif" font-size="14.00">left = [0x5030000003d0]</text>
<polyline fill="none" stroke="black" points="1417,-387.5 1417,-410.5 "/>
<text text-anchor="middle" x="1521.5" y="-395.3" font-family="Times,serif" font-size="14.00">right = [0x503000000400]</text>
</g>
<!-- node0x503000000460&#45;&gt;node0x503000000430 -->
<g id="edge20" class="edge">
<title>node0x503000000460&#45;&gt;node0x503000000430</title>
<path fill="none" stroke="black" d="M1379.81,-516.37C1384.49,-507.49 1389.45,-498.09 1394.28,-488.95"/>
<polygon fill="black" stroke="black" points="1397.47,-490.39 1399.04,-479.92 1391.28,-487.13 1397.47,-490.39"/>
</g>
<!-- node0x503000000100 -->
<g id="node10" class="node">
<title>node0x503000000100</title>
<path fill="#ff5050" stroke="black" d="M12,-258.5C12,-258.5 270,-258.5 270,-258.5 276,-258.5 282,-264.5 282,-270.5 282,-270.5 282,-338.5 282,-338.5 282,-344.5 276,-350.5 270,-350.5 270,-350.5 12,-350.5 12,-350.5 6,-350.5 0,-344.5 0,-338.5 0,-338.5 0,-270.5 0,-270.5 0,-264.5 6,-258.5 12,-258.5"/>
<text text-anchor="middle" x="141" y="-335.3" font-family="Times,serif" font-size="14.00">[0x503000000100]</text>
<polyline fill="none" stroke="black" points="0,-327.5 282,-327.5 "/>
<text text-anchor="middle" x="141" y="-312.3" font-family="Times,serif" font-size="14.00">type = 4 (ID)</text>
<polyline fill="none" stroke="black" points="0,-304.5 282,-304.5 "/>
<text text-anchor="middle" x="141" y="-289.3" font-family="Times,serif" font-size="14.00">number of name in name table = &#39;17&#39;</text>
<polyline fill="none" stroke="black" points="0,-281.5 282,-281.5 "/>
<text text-anchor="middle" x="67.5" y="-266.3" font-family="Times,serif" font-size="14.00">left = [(nil)]</text>
<polyline fill="none" stroke="black" points="135,-258.5 135,-281.5 "/>
<text text-anchor="middle" x="208.5" y="-266.3" font-family="Times,serif" font-size="14.00">right = [(nil)]</text>
</g>
<!-- node0x503000000160&#45;&gt;node0x503000000100 -->
<g id="edge9" class="edge">
<title>node0x503000000160&#45;&gt;node0x503000000100</title>
<path fill="none" stroke="black" d="M312.47,-387.37C290.55,-376.9 267.11,-365.71 244.82,-355.07"/>
<polygon fill="black" stroke="black" points="246.21,-351.85 235.67,-350.7 243.19,-358.17 246.21,-351.85"/>
</g>
<!-- node0x503000000130 -->
<g id="node11" class="node">
<title>node0x503000000130</title>
<path fill="#ffd700" stroke="black" d="M312.5,-258.5C312.5,-258.5 501.5,-258.5 501.5,-258.5 507.5,-258.5 513.5,-264.5 513.5,-270.5 513.5,-270.5 513.5,-338.5 513.5,-338.5 513.5,-344.5 507.5,-350.5 501.5,-350.5 501.5,-350.5 312.5,-350.5 312.5,-350.5 306.5,-350.5 300.5,-344.5 300.5,-338.5 300.5,-338.5 300.5,-270.5 300.5,-270.5 300.5,-264.5 306.5,-258.5 312.5,-258.5"/>
<text text-anchor="middle" x="407" y="-335.3" font-family="Times,serif" font-size="14.00">[0x503000000130]</text>
<polyline fill="none" stroke="black" points="300.5,-327.5 513.5,-327.5 "/>
<text text-anchor="middle" x="407" y="-312.3" font-family="Times,serif" font-size="14.00">type = 1 (NUM)</text>
<polyline fill="none" stroke="black" points="300.5,-304.5 513.5,-304.5 "/>
<text text-anchor="middle" x="407" y="-289.3" font-family="Times,serif" font-size="14.00">value = 44444</text>
<polyline fill="none" stroke="black" points="300.5,-281.5 513.5,-281.5 "/>
<text text-anchor="middle" x="351" y="-266.3" font-family="Times,serif" font-size="14.00">left = [(nil)]</text>
<polyline fill="none" stroke="black" points="401.5,-258.5 401.5,-281.5 "/>
<text text-anchor="middle" x="457.5" y="-266.3" font-family="Times,serif" font-size="14.00">right = [(nil)]</text>
</g>
<!-- node0x503000000160&#45;&gt;node0x503000000130 -->
<g id="edge10" class="edge">
<title>node0x503000000160&#45;&gt;node0x503000000130</title>
<path fill="none" stroke="black" d="M407,-387.37C407,-378.86 407,-369.87 407,-361.09"/>
<polygon fill="black" stroke="black" points="410.5,-360.92 407,-350.92 403.5,-360.92 410.5,-360.92"/>
</g>
<!-- node0x503000000250 -->
<g id="node12" class="node">
<title>node0x503000000250</title>
<path fill="#50b2aa" stroke="black" d="M543,-258.5C543,-258.5 925,-258.5 925,-258.5 931,-258.5 937,-264.5 937,-270.5 937,-270.5 937,-338.5 937,-338.5 937,-344.5 931,-350.5 925,-350.5 925,-350.5 543,-350.5 543,-350.5 537,-350.5 531,-344.5 531,-338.5 531,-338.5 531,-270.5 531,-270.5 531,-264.5 537,-258.5 543,-258.5"/>
<text text-anchor="middle" x="734" y="-335.3" font-family="Times,serif" font-size="14.00">[0x503000000250]</text>
<polyline fill="none" stroke="black" points="531,-327.5 937,-327.5 "/>
<text text-anchor="middle" x="734" y="-312.3" font-family="Times,serif" font-size="14.00">type = 2 (OP)</text>
<polyline fill="none" stroke="black" points="531,-304.5 937,-304.5 "/>
<text text-anchor="middle" x="734" y="-289.3" font-family="Times,serif" font-size="14.00">value = &#39;&#39; = &#39;&#39; (61)</text>
<polyline fill="none" stroke="black" points="531,-281.5 937,-281.5 "/>
<text text-anchor="middle" x="629.5" y="-266.3" font-family="Times,serif" font-size="14.00">left = [0x503000000190]</text>
<polyline fill="none" stroke="black" points="728,-258.5 728,-281.5 "/>
<text text-anchor="middle" x="832.5" y="-266.3" font-family="Times,serif" font-size="14.00">right = [0x503000000220]</text>
</g>
<!-- node0x503000000280&#45;&gt;node0x503000000250 -->
<g id="edge11" class="edge">
<title>node0x503000000280&#45;&gt;node0x503000000250</title>
<path fill="none" stroke="black" d="M850.68,-387.37C836.49,-377.41 821.37,-366.8 806.87,-356.63"/>
<polygon fill="black" stroke="black" points="808.62,-353.58 798.42,-350.7 804.6,-359.31 808.62,-353.58"/>
</g>
<!-- node0x503000000340 -->
<g id="node13" class="node">
<title>node0x503000000340</title>
<path fill="#e0e0e0" stroke="black" d="M966.5,-258.5C966.5,-258.5 1251.5,-258.5 1251.5,-258.5 1257.5,-258.5 1263.5,-264.5 1263.5,-270.5 1263.5,-270.5 1263.5,-338.5 1263.5,-338.5 1263.5,-344.5 1257.5,-350.5 1251.5,-350.5 1251.5,-350.5 966.5,-350.5 966.5,-350.5 960.5,-350.5 954.5,-344.5 954.5,-338.5 954.5,-338.5 954.5,-270.5 954.5,-270.5 954.5,-264.5 960.5,-258.5 966.5,-258.5"/>
<text text-anchor="middle" x="1109" y="-335.3" font-family="Times,serif" font-size="14.00">[0x503000000340]</text>
<polyline fill="none" stroke="black" points="954.5,-327.5 1263.5,-327.5 "/>
<text text-anchor="middle" x="1109" y="-312.3" font-family="Times,serif" font-size="14.00">type = 2 (OP)</text>
<polyline fill="none" stroke="black" points="954.5,-304.5 1263.5,-304.5 "/>
<text text-anchor="middle" x="1109" y="-289.3" font-family="Times,serif" font-size="14.00">value = &#39;&#39; GLUE &#39;&#39;</text>
<polyline fill="none" stroke="black" points="954.5,-281.5 1263.5,-281.5 "/>
<text text-anchor="middle" x="1053" y="-266.3" font-family="Times,serif" font-size="14.00">left = [0x503000000310]</text>
<polyline fill="none" stroke="black" points="1151.5,-258.5 1151.5,-281.5 "/>
<text text-anchor="middle" x="1207.5" y="-266.3" font-family="Times,serif" font-size="14.00">right = [(nil)]</text>
</g>
<!-- node0x503000000280&#45;&gt;node0x503000000340 -->
<g id="edge12" class="edge">
<title>node0x503000000280&#45;&gt;node0x503000000340</title>
<path fill="none" stroke="black" d="M983.94,-387.37C999.29,-377.32 1015.66,-366.6 1031.33,-356.35"/>
<polygon fill="black" stroke="black" points="1033.5,-359.11 1039.95,-350.7 1029.67,-353.25 1033.5,-359.11"/>
</g>
<!-- node0x503000000190 -->
<g id="node14" class="node">
<title>node0x503000000190</title>
<path fill="#ff5050" stroke="black" d="M245,-129.5C245,-129.5 503,-129.5 503,-129.5 509,-129.5 515,-135.5 515,-141.5 515,-141.5 515,-209.5 515,-209.5 515,-215.5 509,-221.5 503,-221.5 503,-221.5 245,-221.5 245,-221.5 239,-221.5 233,-215.5 233,-209.5 233,-209.5 233,-141.5 233,-141.5 233,-135.5 239,-129.5 245,-129.5"/>
<text text-anchor="middle" x="374" y="-206.3" font-family="Times,serif" font-size="14.00">[0x503000000190]</text>
<polyline fill="none" stroke="black" points="233,-198.5 515,-198.5 "/>
<text text-anchor="middle" x="374" y="-183.3" font-family="Times,serif" font-size="14.00">type = 4 (ID)</text>
<polyline fill="none" stroke="black" points="233,-175.5 515,-175.5 "/>
<text text-anchor="middle" x="374" y="-160.3" font-family="Times,serif" font-size="14.00">number of name in name table = &#39;18&#39;</text>
<polyline fill="none" stroke="black" points="233,-152.5 515,-152.5 "/>
<text text-anchor="middle" x="300.5" y="-137.3" font-family="Times,serif" font-size="14.00">left = [(nil)]</text>
<polyline fill="none" stroke="black" points="368,-129.5 368,-152.5 "/>
<text text-anchor="middle" x="441.5" y="-137.3" font-family="Times,serif" font-size="14.00">right = [(nil)]</text>
</g>
<!-- node0x503000000250&#45;&gt;node0x503000000190 -->
<g id="edge13" class="edge">
<title>node0x503000000250&#45;&gt;node0x503000000190</title>
<path fill="none" stroke="black" d="M606.32,-258.46C575.54,-247.6 542.52,-235.95 511.32,-224.94"/>
<polygon fill="black" stroke="black" points="512.29,-221.57 501.69,-221.55 509.96,-228.18 512.29,-221.57"/>
</g>
<!-- node0x503000000220 -->
<g id="node15" class="node">
<title>node0x503000000220</title>
<path fill="#50b2aa" stroke="black" d="M545.5,-129.5C545.5,-129.5 922.5,-129.5 922.5,-129.5 928.5,-129.5 934.5,-135.5 934.5,-141.5 934.5,-141.5 934.5,-209.5 934.5,-209.5 934.5,-215.5 928.5,-221.5 922.5,-221.5 922.5,-221.5 545.5,-221.5 545.5,-221.5 539.5,-221.5 533.5,-215.5 533.5,-209.5 533.5,-209.5 533.5,-141.5 533.5,-141.5 533.5,-135.5 539.5,-129.5 545.5,-129.5"/>
<text text-anchor="middle" x="734" y="-206.3" font-family="Times,serif" font-size="14.00">[0x503000000220]</text>
<polyline fill="none" stroke="black" points="533.5,-198.5 934.5,-198.5 "/>
<text text-anchor="middle" x="734" y="-183.3" font-family="Times,serif" font-size="14.00">type = 2 (OP)</text>
<polyline fill="none" stroke="black" points="533.5,-175.5 934.5,-175.5 "/>
<text text-anchor="middle" x="734" y="-160.3" font-family="Times,serif" font-size="14.00">value = &#39;&#39; PLUS &#39;&#39; (43)</text>
<polyline fill="none" stroke="black" points="533.5,-152.5 934.5,-152.5 "/>
<text text-anchor="middle" x="631.5" y="-137.3" font-family="Times,serif" font-size="14.00">left = [0x5030000001c0]</text>
<polyline fill="none" stroke="black" points="729.5,-129.5 729.5,-152.5 "/>
<text text-anchor="middle" x="832" y="-137.3" font-family="Times,serif" font-size="14.00">right = [0x5030000001f0]</text>
</g>
<!-- node0x503000000250&#45;&gt;node0x503000000220 -->
<g id="edge14" class="edge">
<title>node0x503000000250&#45;&gt;node0x503000000220</title>
<path fill="none" stroke="black" d="M734,-258.37C734,-249.86 734,-240.87 734,-232.09"/>
<polygon fill="black" stroke="black" points="737.5,-231.92 734,-221.92 730.5,-231.92 737.5,-231.92"/>
</g>
<!-- node0x503000000310 -->
<g id="node18" class="node">
<title>node0x503000000310</title>
<path fill="#50b2aa" stroke="black" d="M964.5,-129.5C964.5,-129.5 1345.5,-129.5 1345.5,-129.5 1351.5,-129.5 1357.5,-135.5 1357.5,-141.5 1357.5,-141.5 1357.5,-209.5 1357.5,-209.5 1357.5,-215.5 1351.5,-221.5 1345.5,-221.5 1345.5,-221.5 964.5,-221.5 964.5,-221.5 958.5,-221.5 952.5,-215.5 952.5,-209.5 952.5,-209.5 952.5,-141.5 952.5,-141.5 952.5,-135.5 958.5,-129.5 964.5,-129.5"/>
<text text-anchor="middle" x="1155" y="-206.3" font-family="Times,serif" font-size="14.00">[0x503000000310]</text>
<polyline fill="none" stroke="black" points="952.5,-198.5 1357.5,-198.5 "/>
<text text-anchor="middle" x="1155" y="-183.3" font-family="Times,serif" font-size="14.00">type = 2 (OP)</text>
<polyline fill="none" stroke="black" points="952.5,-175.5 1357.5,-175.5 "/>
<text text-anchor="middle" x="1155" y="-160.3" font-family="Times,serif" font-size="14.00">value = &#39;&#39; = &#39;&#39; (61)</text>
<polyline fill="none" stroke="black" points="952.5,-152.5 1357.5,-152.5 "/>
<text text-anchor="middle" x="1051" y="-137.3" font-family="Times,serif" font-size="14.00">left = [0x5030000002b0]</text>
<polyline fill="none" stroke="black" points="1149.5,-129.5 1149.5,-152.5 "/>
<text text-anchor="middle" x="1253.5" y="-137.3" font-family="Times,serif" font-size="14.00">right = [0x5030000002e0]</text>
</g>
<!-- node0x503000000340&#45;&gt;node0x503000000310 -->
<g id="edge17" class="edge">
<title>node0x503000000340&#45;&gt;node0x503000000310</title>
<path fill="none" stroke="black" d="M1125.35,-258.37C1128.5,-249.68 1131.83,-240.48 1135.07,-231.52"/>
<polygon fill="black" stroke="black" points="1138.44,-232.51 1138.55,-221.92 1131.85,-230.13 1138.44,-232.51"/>
</g>
<!-- node0x5030000001c0 -->
<g id="node16" class="node">
<title>node0x5030000001c0</title>
<path fill="#ffd700" stroke="black" d="M447.5,-0.5C447.5,-0.5 636.5,-0.5 636.5,-0.5 642.5,-0.5 648.5,-6.5 648.5,-12.5 648.5,-12.5 648.5,-80.5 648.5,-80.5 648.5,-86.5 642.5,-92.5 636.5,-92.5 636.5,-92.5 447.5,-92.5 447.5,-92.5 441.5,-92.5 435.5,-86.5 435.5,-80.5 435.5,-80.5 435.5,-12.5 435.5,-12.5 435.5,-6.5 441.5,-0.5 447.5,-0.5"/>
<text text-anchor="middle" x="542" y="-77.3" font-family="Times,serif" font-size="14.00">[0x5030000001c0]</text>
<polyline fill="none" stroke="black" points="435.5,-69.5 648.5,-69.5 "/>
<text text-anchor="middle" x="542" y="-54.3" font-family="Times,serif" font-size="14.00">type = 1 (NUM)</text>
<polyline fill="none" stroke="black" points="435.5,-46.5 648.5,-46.5 "/>
<text text-anchor="middle" x="542" y="-31.3" font-family="Times,serif" font-size="14.00">value = 55555</text>
<polyline fill="none" stroke="black" points="435.5,-23.5 648.5,-23.5 "/>
<text text-anchor="middle" x="486" y="-8.3" font-family="Times,serif" font-size="14.00">left = [(nil)]</text>
<polyline fill="none" stroke="black" points="536.5,-0.5 536.5,-23.5 "/>
<text text-anchor="middle" x="592.5" y="-8.3" font-family="Times,serif" font-size="14.00">right = [(nil)]</text>
</g>
<!-- node0x503000000220&#45;&gt;node0x5030000001c0 -->
<g id="edge15" class="edge">
<title>node0x503000000220&#45;&gt;node0x5030000001c0</title>
<path fill="none" stroke="black" d="M665.77,-129.37C650.58,-119.32 634.38,-108.6 618.87,-98.35"/>
<polygon fill="black" stroke="black" points="620.61,-95.3 610.34,-92.7 616.75,-101.14 620.61,-95.3"/>
</g>
<!-- node0x5030000001f0 -->
<g id="node17" class="node">
<title>node0x5030000001f0</title>
<path fill="#ffd700" stroke="black" d="M678.5,-0.5C678.5,-0.5 867.5,-0.5 867.5,-0.5 873.5,-0.5 879.5,-6.5 879.5,-12.5 879.5,-12.5 879.5,-80.5 879.5,-80.5 879.5,-86.5 873.5,-92.5 867.5,-92.5 867.5,-92.5 678.5,-92.5 678.5,-92.5 672.5,-92.5 666.5,-86.5 666.5,-80.5 666.5,-80.5 666.5,-12.5 666.5,-12.5 666.5,-6.5 672.5,-0.5 678.5,-0.5"/>
<text text-anchor="middle" x="773" y="-77.3" font-family="Times,serif" font-size="14.00">[0x5030000001f0]</text>
<polyline fill="none" stroke="black" points="666.5,-69.5 879.5,-69.5 "/>
<text text-anchor="middle" x="773" y="-54.3" font-family="Times,serif" font-size="14.00">type = 1 (NUM)</text>
<polyline fill="none" stroke="black" points="666.5,-46.5 879.5,-46.5 "/>
<text text-anchor="middle" x="773" y="-31.3" font-family="Times,serif" font-size="14.00">value = 66666</text>
<polyline fill="none" stroke="black" points="666.5,-23.5 879.5,-23.5 "/>
<text text-anchor="middle" x="717" y="-8.3" font-family="Times,serif" font-size="14.00">left = [(nil)]</text>
<polyline fill="none" stroke="black" points="767.5,-0.5 767.5,-23.5 "/>
<text text-anchor="middle" x="823.5" y="-8.3" font-family="Times,serif" font-size="14.00">right = [(nil)]</text>
</g>
<!-- node0x503000000220&#45;&gt;node0x5030000001f0 -->
<g id="edge16" class="edge">
<title>node0x503000000220&#45;&gt;node0x5030000001f0</title>
<path fill="none" stroke="black" d="M747.86,-129.37C750.53,-120.68 753.35,-111.48 756.1,-102.52"/>
<polygon fill="black" stroke="black" points="759.46,-103.5 759.05,-92.92 752.77,-101.45 759.46,-103.5"/>
</g>
<!-- node0x5030000002b0 -->
<g id="node19" class="node">
<title>node0x5030000002b0</title>
<path fill="#ff5050" stroke="black" d="M987,-0.5C987,-0.5 1245,-0.5 1245,-0.5 1251,-0.5 1257,-6.5 1257,-12.5 1257,-12.5 1257,-80.5 1257,-80.5 1257,-86.5 1251,-92.5 1245,-92.5 1245,-92.5 987,-92.5 987,-92.5 981,-92.5 975,-86.5 975,-80.5 975,-80.5 975,-12.5 975,-12.5 975,-6.5 981,-0.5 987,-0.5"/>
<text text-anchor="middle" x="1116" y="-77.3" font-family="Times,serif" font-size="14.00">[0x5030000002b0]</text>
<polyline fill="none" stroke="black" points="975,-69.5 1257,-69.5 "/>
<text text-anchor="middle" x="1116" y="-54.3" font-family="Times,serif" font-size="14.00">type = 4 (ID)</text>
<polyline fill="none" stroke="black" points="975,-46.5 1257,-46.5 "/>
<text text-anchor="middle" x="1116" y="-31.3" font-family="Times,serif" font-size="14.00">number of name in name table = &#39;16&#39;</text>
<polyline fill="none" stroke="black" points="975,-23.5 1257,-23.5 "/>
<text text-anchor="middle" x="1042.5" y="-8.3" font-family="Times,serif" font-size="14.00">left = [(nil)]</text>
<polyline fill="none" stroke="black" points="1110,-0.5 1110,-23.5 "/>
<text text-anchor="middle" x="1183.5" y="-8.3" font-family="Times,serif" font-size="14.00">right = [(nil)]</text>
</g>
<!-- node0x503000000310&#45;&gt;node0x5030000002b0 -->
<g id="edge18" class="edge">
<title>node0x503000000310&#45;&gt;node0x5030000002b0</title>
<path fill="none" stroke="black" d="M1141.14,-129.37C1138.47,-120.68 1135.65,-111.48 1132.9,-102.52"/>
<polygon fill="black" stroke="black" points="1136.23,-101.45 1129.95,-92.92 1129.54,-103.5 1136.23,-101.45"/>
</g>
<!-- node0x5030000002e0 -->
<g id="node20" class="node">
<title>node0x5030000002e0</title>
<path fill="#ff5050" stroke="black" d="M1287,-0.5C1287,-0.5 1545,-0.5 1545,-0.5 1551,-0.5 1557,-6.5 1557,-12.5 1557,-12.5 1557,-80.5 1557,-80.5 1557,-86.5 1551,-92.5 1545,-92.5 1545,-92.5 1287,-92.5 1287,-92.5 1281,-92.5 1275,-86.5 1275,-80.5 1275,-80.5 1275,-12.5 1275,-12.5 1275,-6.5 1281,-0.5 1287,-0.5"/>
<text text-anchor="middle" x="1416" y="-77.3" font-family="Times,serif" font-size="14.00">[0x5030000002e0]</text>
<polyline fill="none" stroke="black" points="1275,-69.5 1557,-69.5 "/>
<text text-anchor="middle" x="1416" y="-54.3" font-family="Times,serif" font-size="14.00">type = 4 (ID)</text>
<polyline fill="none" stroke="black" points="1275,-46.5 1557,-46.5 "/>
<text text-anchor="middle" x="1416" y="-31.3" font-family="Times,serif" font-size="14.00">number of name in name table = &#39;18&#39;</text>
<polyline fill="none" stroke="black" points="1275,-23.5 1557,-23.5 "/>
<text text-anchor="middle" x="1342.5" y="-8.3" font-family="Times,serif" font-size="14.00">left = [(nil)]</text>
<polyline fill="none" stroke="black" points="1410,-0.5 1410,-23.5 "/>
<text text-anchor="middle" x="1483.5" y="-8.3" font-family="Times,serif" font-size="14.00">right = [(nil)]</text>
</g>
<!-- node0x503000000310&#45;&gt;node0x5030000002e0 -->
<g id="edge19" class="edge">
<title>node0x503000000310&#45;&gt;node0x5030000002e0</title>
<path fill="none" stroke="black" d="M1247.75,-129.37C1269.16,-118.95 1292.06,-107.81 1313.84,-97.21"/>
<polygon fill="black" stroke="black" points="1315.64,-100.22 1323.11,-92.7 1312.58,-93.93 1315.64,-100.22"/>
</g>
<!-- node0x5030000003d0 -->
<g id="node22" class="node">
<title>node0x5030000003d0</title>
<path fill="#ff5050" stroke="black" d="M1294,-258.5C1294,-258.5 1552,-258.5 1552,-258.5 1558,-258.5 1564,-264.5 1564,-270.5 1564,-270.5 1564,-338.5 1564,-338.5 1564,-344.5 1558,-350.5 1552,-350.5 1552,-350.5 1294,-350.5 1294,-350.5 1288,-350.5 1282,-344.5 1282,-338.5 1282,-338.5 1282,-270.5 1282,-270.5 1282,-264.5 1288,-258.5 1294,-258.5"/>
<text text-anchor="middle" x="1423" y="-335.3" font-family="Times,serif" font-size="14.00">[0x5030000003d0]</text>
<polyline fill="none" stroke="black" points="1282,-327.5 1564,-327.5 "/>
<text text-anchor="middle" x="1423" y="-312.3" font-family="Times,serif" font-size="14.00">type = 4 (ID)</text>
<polyline fill="none" stroke="black" points="1282,-304.5 1564,-304.5 "/>
<text text-anchor="middle" x="1423" y="-289.3" font-family="Times,serif" font-size="14.00">number of name in name table = &#39;19&#39;</text>
<polyline fill="none" stroke="black" points="1282,-281.5 1564,-281.5 "/>
<text text-anchor="middle" x="1349.5" y="-266.3" font-family="Times,serif" font-size="14.00">left = [(nil)]</text>
<polyline fill="none" stroke="black" points="1417,-258.5 1417,-281.5 "/>
<text text-anchor="middle" x="1490.5" y="-266.3" font-family="Times,serif" font-size="14.00">right = [(nil)]</text>
</g>
<!-- node0x503000000430&#45;&gt;node0x5030000003d0 -->
<g id="edge21" class="edge">
<title>node0x503000000430&#45;&gt;node0x5030000003d0</title>
<path fill="none" stroke="black" d="M1423,-387.37C1423,-378.86 1423,-369.87 1423,-361.09"/>
<polygon fill="black" stroke="black" points="1426.5,-360.92 1423,-350.92 1419.5,-360.92 1426.5,-360.92"/>
</g>
<!-- node0x503000000400 -->
<g id="node23" class="node">
<title>node0x503000000400</title>
<path fill="#ff5050" stroke="black" d="M1594,-258.5C1594,-258.5 1852,-258.5 1852,-258.5 1858,-258.5 1864,-264.5 1864,-270.5 1864,-270.5 1864,-338.5 1864,-338.5 1864,-344.5 1858,-350.5 1852,-350.5 1852,-350.5 1594,-350.5 1594,-350.5 1588,-350.5 1582,-344.5 1582,-338.5 1582,-338.5 1582,-270.5 1582,-270.5 1582,-264.5 1588,-258.5 1594,-258.5"/>
<text text-anchor="middle" x="1723" y="-335.3" font-family="Times,serif" font-size="14.00">[0x503000000400]</text>
<polyline fill="none" stroke="black" points="1582,-327.5 1864,-327.5 "/>
<text text-anchor="middle" x="1723" y="-312.3" font-family="Times,serif" font-size="14.00">type = 4 (ID)</text>
<polyline fill="none" stroke="black" points="1582,-304.5 1864,-304.5 "/>
<text text-anchor="middle" x="1723" y="-289.3" font-family="Times,serif" font-size="14.00">number of name in name table = &#39;18&#39;</text>
<polyline fill="none" stroke="black" points="1582,-281.5 1864,-281.5 "/>
<text text-anchor="middle" x="1649.5" y="-266.3" font-family="Times,serif" font-size="14.00">left = [(nil)]</text>
<polyline fill="none" stroke="black" points="1717,-258.5 1717,-281.5 "/>
<text text-anchor="middle" x="1790.5" y="-266.3" font-family="Times,serif" font-size="14.00">right = [(nil)]</text>
</g>
<!-- node0x503000000430&#45;&gt;node0x503000000400 -->
<g id="edge22" class="edge">
<title>node0x503000000430&#45;&gt;node0x503000000400</title>
<path fill="none" stroke="black" d="M1529.61,-387.37C1554.74,-376.73 1581.64,-365.34 1607.15,-354.54"/>
<polygon fill="black" stroke="black" points="1608.63,-357.72 1616.48,-350.59 1605.9,-351.27 1608.63,-357.72"/>
</g>
</g>
</svg>
