<?xml version="1.0" encoding="UTF-8" standalone="no"?>
<!DOCTYPE svg PUBLIC "-//W3C//DTD SVG 1.1//EN"
 "http://www.w3.org/Graphics/SVG/1.1/DTD/svg11.dtd">
<!-- Generated by graphviz version 2.43.0 (0)
 -->
<!-- Title: %3 Pages: 1 -->
<svg width="307pt" height="138pt"
 viewBox="0.00 0.00 307.00 138.00" xmlns="http://www.w3.org/2000/svg" xmlns:xlink="http://www.w3.org/1999/xlink">
<g id="graph0" class="graph" transform="scale(1 1) rotate(0) translate(4 134)">
<title>%3</title>
<!-- node0x5030000000a0 -->
<g id="node1" class="node">
<title>node0x5030000000a0</title>
<path fill="#feaadf" stroke="black" d="M93,-83.5C93,-83.5 206,-83.5 206,-83.5 212,-83.5 218,-89.5 218,-95.5 218,-95.5 218,-117.5 218,-117.5 218,-123.5 212,-129.5 206,-129.5 206,-129.5 93,-129.5 93,-129.5 87,-129.5 81,-123.5 81,-117.5 81,-117.5 81,-95.5 81,-95.5 81,-89.5 87,-83.5 93,-83.5"/>
<text text-anchor="middle" x="149.5" y="-114.3" font-family="Times,serif" font-size="14.00">type = 4 (FUNC)</text>
<polyline fill="none" stroke="black" points="81,-106.5 218,-106.5 "/>
<text text-anchor="middle" x="149.5" y="-91.3" font-family="Times,serif" font-size="14.00">value = &#39;&#39; , &#39;&#39; (44)</text>
</g>
<!-- node0x503000000070 -->
<g id="node2" class="node">
<title>node0x503000000070</title>
<path fill="#ff5050" stroke="black" d="M12,-0.5C12,-0.5 287,-0.5 287,-0.5 293,-0.5 299,-6.5 299,-12.5 299,-12.5 299,-34.5 299,-34.5 299,-40.5 293,-46.5 287,-46.5 287,-46.5 12,-46.5 12,-46.5 6,-46.5 0,-40.5 0,-34.5 0,-34.5 0,-12.5 0,-12.5 0,-6.5 6,-0.5 12,-0.5"/>
<text text-anchor="middle" x="149.5" y="-31.3" font-family="Times,serif" font-size="14.00">type = 3 (ID)</text>
<polyline fill="none" stroke="black" points="0,-23.5 299,-23.5 "/>
<text text-anchor="middle" x="149.5" y="-8.3" font-family="Times,serif" font-size="14.00">number of name in name table = &#39;&#39; 21 &#39;&#39;</text>
</g>
<!-- node0x5030000000a0&#45;&gt;node0x503000000070 -->
<g id="edge1" class="edge">
<title>node0x5030000000a0&#45;&gt;node0x503000000070</title>
<path fill="none" stroke="black" d="M149.5,-83.37C149.5,-75.15 149.5,-65.66 149.5,-56.73"/>
<polygon fill="black" stroke="black" points="153,-56.61 149.5,-46.61 146,-56.61 153,-56.61"/>
</g>
</g>
</svg>
