<?xml version="1.0" encoding="UTF-8" standalone="no"?>
<!DOCTYPE svg PUBLIC "-//W3C//DTD SVG 1.1//EN"
 "http://www.w3.org/Graphics/SVG/1.1/DTD/svg11.dtd">
<!-- Generated by graphviz version 2.43.0 (0)
 -->
<!-- Title: %3 Pages: 1 -->
<svg width="496pt" height="221pt"
 viewBox="0.00 0.00 495.50 221.00" xmlns="http://www.w3.org/2000/svg" xmlns:xlink="http://www.w3.org/1999/xlink">
<g id="graph0" class="graph" transform="scale(1 1) rotate(0) translate(4 217)">
<title>%3</title>
<!-- node0x503000000310 -->
<g id="node1" class="node">
<title>node0x503000000310</title>
<path fill="#00ffdd" stroke="black" d="M220.5,-166.5C220.5,-166.5 369.5,-166.5 369.5,-166.5 375.5,-166.5 381.5,-172.5 381.5,-178.5 381.5,-178.5 381.5,-200.5 381.5,-200.5 381.5,-206.5 375.5,-212.5 369.5,-212.5 369.5,-212.5 220.5,-212.5 220.5,-212.5 214.5,-212.5 208.5,-206.5 208.5,-200.5 208.5,-200.5 208.5,-178.5 208.5,-178.5 208.5,-172.5 214.5,-166.5 220.5,-166.5"/>
<text text-anchor="middle" x="295" y="-197.3" font-family="Times,serif" font-size="14.00">type = 2 (OP)</text>
<polyline fill="none" stroke="black" points="208.5,-189.5 381.5,-189.5 "/>
<text text-anchor="middle" x="295" y="-174.3" font-family="Times,serif" font-size="14.00">value = &#39;&#39; PLUS &#39;&#39; (43)</text>
</g>
<!-- node0x5030000002b0 -->
<g id="node2" class="node">
<title>node0x5030000002b0</title>
<path fill="#f069f5" stroke="black" d="M137.5,-83.5C137.5,-83.5 284.5,-83.5 284.5,-83.5 290.5,-83.5 296.5,-89.5 296.5,-95.5 296.5,-95.5 296.5,-117.5 296.5,-117.5 296.5,-123.5 290.5,-129.5 284.5,-129.5 284.5,-129.5 137.5,-129.5 137.5,-129.5 131.5,-129.5 125.5,-123.5 125.5,-117.5 125.5,-117.5 125.5,-95.5 125.5,-95.5 125.5,-89.5 131.5,-83.5 137.5,-83.5"/>
<text text-anchor="middle" x="211" y="-114.3" font-family="Times,serif" font-size="14.00">type = 4 (FUNC)</text>
<polyline fill="none" stroke="black" points="125.5,-106.5 296.5,-106.5 "/>
<text text-anchor="middle" x="211" y="-91.3" font-family="Times,serif" font-size="14.00">value = &#39;&#39; CALL &#39;&#39; (67)</text>
</g>
<!-- node0x503000000310&#45;&gt;node0x5030000002b0 -->
<g id="edge1" class="edge">
<title>node0x503000000310&#45;&gt;node0x5030000002b0</title>
<path fill="none" stroke="black" d="M272.05,-166.37C262.51,-157.17 251.31,-146.37 241.12,-136.55"/>
<polygon fill="black" stroke="black" points="243.55,-134.03 233.93,-129.61 238.69,-139.07 243.55,-134.03"/>
</g>
<!-- node0x5030000002e0 -->
<g id="node3" class="node">
<title>node0x5030000002e0</title>
<path fill="#ffd700" stroke="black" d="M326.5,-83.5C326.5,-83.5 433.5,-83.5 433.5,-83.5 439.5,-83.5 445.5,-89.5 445.5,-95.5 445.5,-95.5 445.5,-117.5 445.5,-117.5 445.5,-123.5 439.5,-129.5 433.5,-129.5 433.5,-129.5 326.5,-129.5 326.5,-129.5 320.5,-129.5 314.5,-123.5 314.5,-117.5 314.5,-117.5 314.5,-95.5 314.5,-95.5 314.5,-89.5 320.5,-83.5 326.5,-83.5"/>
<text text-anchor="middle" x="380" y="-114.3" font-family="Times,serif" font-size="14.00">type = 1 (NUM)</text>
<polyline fill="none" stroke="black" points="314.5,-106.5 445.5,-106.5 "/>
<text text-anchor="middle" x="380" y="-91.3" font-family="Times,serif" font-size="14.00">value = &#39;&#39; 5 &#39;&#39;</text>
</g>
<!-- node0x503000000310&#45;&gt;node0x5030000002e0 -->
<g id="edge2" class="edge">
<title>node0x503000000310&#45;&gt;node0x5030000002e0</title>
<path fill="none" stroke="black" d="M318.23,-166.37C327.88,-157.17 339.21,-146.37 349.52,-136.55"/>
<polygon fill="black" stroke="black" points="351.98,-139.04 356.8,-129.61 347.15,-133.97 351.98,-139.04"/>
</g>
<!-- node0x503000000250 -->
<g id="node4" class="node">
<title>node0x503000000250</title>
<path fill="#2ee31e" stroke="black" d="M12,-0.5C12,-0.5 158,-0.5 158,-0.5 164,-0.5 170,-6.5 170,-12.5 170,-12.5 170,-34.5 170,-34.5 170,-40.5 164,-46.5 158,-46.5 158,-46.5 12,-46.5 12,-46.5 6,-46.5 0,-40.5 0,-34.5 0,-34.5 0,-12.5 0,-12.5 0,-6.5 6,-0.5 12,-0.5"/>
<text text-anchor="middle" x="85" y="-31.3" font-family="Times,serif" font-size="14.00">type = 4 (FUNC)</text>
<polyline fill="none" stroke="black" points="0,-23.5 170,-23.5 "/>
<text text-anchor="middle" x="85" y="-8.3" font-family="Times,serif" font-size="14.00">value = &#39;&#39; Jump &#39;&#39; (23)</text>
</g>
<!-- node0x5030000002b0&#45;&gt;node0x503000000250 -->
<g id="edge3" class="edge">
<title>node0x5030000002b0&#45;&gt;node0x503000000250</title>
<path fill="none" stroke="black" d="M176.57,-83.37C161.57,-73.72 143.83,-62.32 127.97,-52.13"/>
<polygon fill="black" stroke="black" points="129.69,-49.07 119.39,-46.61 125.91,-54.96 129.69,-49.07"/>
</g>
<!-- node0x503000000280 -->
<g id="node5" class="node">
<title>node0x503000000280</title>
<path fill="#ff5050" stroke="black" d="M200.5,-0.5C200.5,-0.5 475.5,-0.5 475.5,-0.5 481.5,-0.5 487.5,-6.5 487.5,-12.5 487.5,-12.5 487.5,-34.5 487.5,-34.5 487.5,-40.5 481.5,-46.5 475.5,-46.5 475.5,-46.5 200.5,-46.5 200.5,-46.5 194.5,-46.5 188.5,-40.5 188.5,-34.5 188.5,-34.5 188.5,-12.5 188.5,-12.5 188.5,-6.5 194.5,-0.5 200.5,-0.5"/>
<text text-anchor="middle" x="338" y="-31.3" font-family="Times,serif" font-size="14.00">type = 3 (ID)</text>
<polyline fill="none" stroke="black" points="188.5,-23.5 487.5,-23.5 "/>
<text text-anchor="middle" x="338" y="-8.3" font-family="Times,serif" font-size="14.00">number of name in name table = &#39;&#39; 22 &#39;&#39;</text>
</g>
<!-- node0x5030000002b0&#45;&gt;node0x503000000280 -->
<g id="edge4" class="edge">
<title>node0x5030000002b0&#45;&gt;node0x503000000280</title>
<path fill="none" stroke="black" d="M245.7,-83.37C260.82,-73.72 278.71,-62.32 294.69,-52.13"/>
<polygon fill="black" stroke="black" points="296.79,-54.94 303.34,-46.61 293.03,-49.03 296.79,-54.94"/>
</g>
</g>
</svg>
