<?xml version="1.0" encoding="UTF-8" standalone="no"?>
<!DOCTYPE svg PUBLIC "-//W3C//DTD SVG 1.1//EN"
 "http://www.w3.org/Graphics/SVG/1.1/DTD/svg11.dtd">
<!-- Generated by graphviz version 2.43.0 (0)
 -->
<!-- Title: %3 Pages: 1 -->
<svg width="139pt" height="55pt"
 viewBox="0.00 0.00 139.00 55.00" xmlns="http://www.w3.org/2000/svg" xmlns:xlink="http://www.w3.org/1999/xlink">
<g id="graph0" class="graph" transform="scale(1 1) rotate(0) translate(4 51)">
<title>%3</title>
<!-- node0x5030000001f0 -->
<g id="node1" class="node">
<title>node0x5030000001f0</title>
<path fill="#ffd700" stroke="black" d="M12,-0.5C12,-0.5 119,-0.5 119,-0.5 125,-0.5 131,-6.5 131,-12.5 131,-12.5 131,-34.5 131,-34.5 131,-40.5 125,-46.5 119,-46.5 119,-46.5 12,-46.5 12,-46.5 6,-46.5 0,-40.5 0,-34.5 0,-34.5 0,-12.5 0,-12.5 0,-6.5 6,-0.5 12,-0.5"/>
<text text-anchor="middle" x="65.5" y="-31.3" font-family="Times,serif" font-size="14.00">type = 1 (NUM)</text>
<polyline fill="none" stroke="black" points="0,-23.5 131,-23.5 "/>
<text text-anchor="middle" x="65.5" y="-8.3" font-family="Times,serif" font-size="14.00">value = &#39;&#39; 10 &#39;&#39;</text>
</g>
</g>
</svg>
