<?xml version="1.0" encoding="UTF-8" standalone="no"?>
<!DOCTYPE svg PUBLIC "-//W3C//DTD SVG 1.1//EN"
 "http://www.w3.org/Graphics/SVG/1.1/DTD/svg11.dtd">
<!-- Generated by graphviz version 2.43.0 (0)
 -->
<!-- Title: %3 Pages: 1 -->
<svg width="1794pt" height="875pt"
 viewBox="0.00 0.00 1794.00 875.00" xmlns="http://www.w3.org/2000/svg" xmlns:xlink="http://www.w3.org/1999/xlink">
<g id="graph0" class="graph" transform="scale(1 1) rotate(0) translate(4 871)">
<title>%3</title>
<!-- node0x5030000000d0 -->
<g id="node1" class="node">
<title>node0x5030000000d0</title>
<path fill="#e0e0e0" stroke="black" d="M420,-774.5C420,-774.5 801,-774.5 801,-774.5 807,-774.5 813,-780.5 813,-786.5 813,-786.5 813,-854.5 813,-854.5 813,-860.5 807,-866.5 801,-866.5 801,-866.5 420,-866.5 420,-866.5 414,-866.5 408,-860.5 408,-854.5 408,-854.5 408,-786.5 408,-786.5 408,-780.5 414,-774.5 420,-774.5"/>
<text text-anchor="middle" x="610.5" y="-851.3" font-family="Times,serif" font-size="14.00">[0x5030000000d0]</text>
<polyline fill="none" stroke="black" points="408,-843.5 813,-843.5 "/>
<text text-anchor="middle" x="610.5" y="-828.3" font-family="Times,serif" font-size="14.00">type = 2 (OP)</text>
<polyline fill="none" stroke="black" points="408,-820.5 813,-820.5 "/>
<text text-anchor="middle" x="610.5" y="-805.3" font-family="Times,serif" font-size="14.00">value = &#39;&#39; SHUTUP &#39;&#39; (59)</text>
<polyline fill="none" stroke="black" points="408,-797.5 813,-797.5 "/>
<text text-anchor="middle" x="506.5" y="-782.3" font-family="Times,serif" font-size="14.00">left = [0x5030000000a0]</text>
<polyline fill="none" stroke="black" points="605,-774.5 605,-797.5 "/>
<text text-anchor="middle" x="709" y="-782.3" font-family="Times,serif" font-size="14.00">right = [0x5030000002e0]</text>
</g>
<!-- node0x5030000000a0 -->
<g id="node2" class="node">
<title>node0x5030000000a0</title>
<path fill="#50b2aa" stroke="black" d="M207.5,-645.5C207.5,-645.5 589.5,-645.5 589.5,-645.5 595.5,-645.5 601.5,-651.5 601.5,-657.5 601.5,-657.5 601.5,-725.5 601.5,-725.5 601.5,-731.5 595.5,-737.5 589.5,-737.5 589.5,-737.5 207.5,-737.5 207.5,-737.5 201.5,-737.5 195.5,-731.5 195.5,-725.5 195.5,-725.5 195.5,-657.5 195.5,-657.5 195.5,-651.5 201.5,-645.5 207.5,-645.5"/>
<text text-anchor="middle" x="398.5" y="-722.3" font-family="Times,serif" font-size="14.00">[0x5030000000a0]</text>
<polyline fill="none" stroke="black" points="195.5,-714.5 601.5,-714.5 "/>
<text text-anchor="middle" x="398.5" y="-699.3" font-family="Times,serif" font-size="14.00">type = 2 (OP)</text>
<polyline fill="none" stroke="black" points="195.5,-691.5 601.5,-691.5 "/>
<text text-anchor="middle" x="398.5" y="-676.3" font-family="Times,serif" font-size="14.00">value = &#39;&#39; = &#39;&#39; (61)</text>
<polyline fill="none" stroke="black" points="195.5,-668.5 601.5,-668.5 "/>
<text text-anchor="middle" x="294" y="-653.3" font-family="Times,serif" font-size="14.00">left = [0x503000000040]</text>
<polyline fill="none" stroke="black" points="392.5,-645.5 392.5,-668.5 "/>
<text text-anchor="middle" x="497" y="-653.3" font-family="Times,serif" font-size="14.00">right = [0x503000000070]</text>
</g>
<!-- node0x5030000000d0&#45;&gt;node0x5030000000a0 -->
<g id="edge1" class="edge">
<title>node0x5030000000d0&#45;&gt;node0x5030000000a0</title>
<path fill="none" stroke="black" d="M535.16,-774.37C518.23,-764.23 500.17,-753.41 482.9,-743.06"/>
<polygon fill="black" stroke="black" points="484.33,-739.84 473.95,-737.7 480.73,-745.84 484.33,-739.84"/>
</g>
<!-- node0x5030000002e0 -->
<g id="node3" class="node">
<title>node0x5030000002e0</title>
<path fill="#e0e0e0" stroke="black" d="M631.5,-645.5C631.5,-645.5 1013.5,-645.5 1013.5,-645.5 1019.5,-645.5 1025.5,-651.5 1025.5,-657.5 1025.5,-657.5 1025.5,-725.5 1025.5,-725.5 1025.5,-731.5 1019.5,-737.5 1013.5,-737.5 1013.5,-737.5 631.5,-737.5 631.5,-737.5 625.5,-737.5 619.5,-731.5 619.5,-725.5 619.5,-725.5 619.5,-657.5 619.5,-657.5 619.5,-651.5 625.5,-645.5 631.5,-645.5"/>
<text text-anchor="middle" x="822.5" y="-722.3" font-family="Times,serif" font-size="14.00">[0x5030000002e0]</text>
<polyline fill="none" stroke="black" points="619.5,-714.5 1025.5,-714.5 "/>
<text text-anchor="middle" x="822.5" y="-699.3" font-family="Times,serif" font-size="14.00">type = 2 (OP)</text>
<polyline fill="none" stroke="black" points="619.5,-691.5 1025.5,-691.5 "/>
<text text-anchor="middle" x="822.5" y="-676.3" font-family="Times,serif" font-size="14.00">value = &#39;&#39; SHUTUP &#39;&#39; (59)</text>
<polyline fill="none" stroke="black" points="619.5,-668.5 1025.5,-668.5 "/>
<text text-anchor="middle" x="718" y="-653.3" font-family="Times,serif" font-size="14.00">left = [0x5030000002b0]</text>
<polyline fill="none" stroke="black" points="816.5,-645.5 816.5,-668.5 "/>
<text text-anchor="middle" x="921" y="-653.3" font-family="Times,serif" font-size="14.00">right = [0x503000000400]</text>
</g>
<!-- node0x5030000000d0&#45;&gt;node0x5030000002e0 -->
<g id="edge2" class="edge">
<title>node0x5030000000d0&#45;&gt;node0x5030000002e0</title>
<path fill="none" stroke="black" d="M685.84,-774.37C702.77,-764.23 720.83,-753.41 738.1,-743.06"/>
<polygon fill="black" stroke="black" points="740.27,-745.84 747.05,-737.7 736.67,-739.84 740.27,-745.84"/>
</g>
<!-- node0x503000000040 -->
<g id="node4" class="node">
<title>node0x503000000040</title>
<path fill="#ff5050" stroke="black" d="M12,-516.5C12,-516.5 287,-516.5 287,-516.5 293,-516.5 299,-522.5 299,-528.5 299,-528.5 299,-596.5 299,-596.5 299,-602.5 293,-608.5 287,-608.5 287,-608.5 12,-608.5 12,-608.5 6,-608.5 0,-602.5 0,-596.5 0,-596.5 0,-528.5 0,-528.5 0,-522.5 6,-516.5 12,-516.5"/>
<text text-anchor="middle" x="149.5" y="-593.3" font-family="Times,serif" font-size="14.00">[0x503000000040]</text>
<polyline fill="none" stroke="black" points="0,-585.5 299,-585.5 "/>
<text text-anchor="middle" x="149.5" y="-570.3" font-family="Times,serif" font-size="14.00">type = 3 (ID)</text>
<polyline fill="none" stroke="black" points="0,-562.5 299,-562.5 "/>
<text text-anchor="middle" x="149.5" y="-547.3" font-family="Times,serif" font-size="14.00">number of name in name table = &#39;&#39; 17 &#39;&#39;</text>
<polyline fill="none" stroke="black" points="0,-539.5 299,-539.5 "/>
<text text-anchor="middle" x="72" y="-524.3" font-family="Times,serif" font-size="14.00">left = [(nil)]</text>
<polyline fill="none" stroke="black" points="144,-516.5 144,-539.5 "/>
<text text-anchor="middle" x="221.5" y="-524.3" font-family="Times,serif" font-size="14.00">right = [(nil)]</text>
</g>
<!-- node0x5030000000a0&#45;&gt;node0x503000000040 -->
<g id="edge3" class="edge">
<title>node0x5030000000a0&#45;&gt;node0x503000000040</title>
<path fill="none" stroke="black" d="M310.01,-645.37C289.68,-635 267.94,-623.91 247.24,-613.35"/>
<polygon fill="black" stroke="black" points="248.62,-610.13 238.12,-608.7 245.44,-616.36 248.62,-610.13"/>
</g>
<!-- node0x503000000070 -->
<g id="node5" class="node">
<title>node0x503000000070</title>
<path fill="#ffd700" stroke="black" d="M329,-516.5C329,-516.5 518,-516.5 518,-516.5 524,-516.5 530,-522.5 530,-528.5 530,-528.5 530,-596.5 530,-596.5 530,-602.5 524,-608.5 518,-608.5 518,-608.5 329,-608.5 329,-608.5 323,-608.5 317,-602.5 317,-596.5 317,-596.5 317,-528.5 317,-528.5 317,-522.5 323,-516.5 329,-516.5"/>
<text text-anchor="middle" x="423.5" y="-593.3" font-family="Times,serif" font-size="14.00">[0x503000000070]</text>
<polyline fill="none" stroke="black" points="317,-585.5 530,-585.5 "/>
<text text-anchor="middle" x="423.5" y="-570.3" font-family="Times,serif" font-size="14.00">type = 1 (NUM)</text>
<polyline fill="none" stroke="black" points="317,-562.5 530,-562.5 "/>
<text text-anchor="middle" x="423.5" y="-547.3" font-family="Times,serif" font-size="14.00">value = &#39;&#39; 15 &#39;&#39;</text>
<polyline fill="none" stroke="black" points="317,-539.5 530,-539.5 "/>
<text text-anchor="middle" x="367.5" y="-524.3" font-family="Times,serif" font-size="14.00">left = [(nil)]</text>
<polyline fill="none" stroke="black" points="418,-516.5 418,-539.5 "/>
<text text-anchor="middle" x="474" y="-524.3" font-family="Times,serif" font-size="14.00">right = [(nil)]</text>
</g>
<!-- node0x5030000000a0&#45;&gt;node0x503000000070 -->
<g id="edge4" class="edge">
<title>node0x5030000000a0&#45;&gt;node0x503000000070</title>
<path fill="none" stroke="black" d="M407.38,-645.37C409.08,-636.77 410.87,-627.68 412.61,-618.8"/>
<polygon fill="black" stroke="black" points="416.06,-619.4 414.56,-608.92 409.19,-618.05 416.06,-619.4"/>
</g>
<!-- node0x5030000002b0 -->
<g id="node6" class="node">
<title>node0x5030000002b0</title>
<path fill="#00801a" stroke="black" d="M607.5,-516.5C607.5,-516.5 989.5,-516.5 989.5,-516.5 995.5,-516.5 1001.5,-522.5 1001.5,-528.5 1001.5,-528.5 1001.5,-596.5 1001.5,-596.5 1001.5,-602.5 995.5,-608.5 989.5,-608.5 989.5,-608.5 607.5,-608.5 607.5,-608.5 601.5,-608.5 595.5,-602.5 595.5,-596.5 595.5,-596.5 595.5,-528.5 595.5,-528.5 595.5,-522.5 601.5,-516.5 607.5,-516.5"/>
<text text-anchor="middle" x="798.5" y="-593.3" font-family="Times,serif" font-size="14.00">[0x5030000002b0]</text>
<polyline fill="none" stroke="black" points="595.5,-585.5 1001.5,-585.5 "/>
<text text-anchor="middle" x="798.5" y="-570.3" font-family="Times,serif" font-size="14.00">type = 2 (OP)</text>
<polyline fill="none" stroke="black" points="595.5,-562.5 1001.5,-562.5 "/>
<text text-anchor="middle" x="798.5" y="-547.3" font-family="Times,serif" font-size="14.00">value = &#39;&#39; FORREAL &#39;&#39; (105)</text>
<polyline fill="none" stroke="black" points="595.5,-539.5 1001.5,-539.5 "/>
<text text-anchor="middle" x="694" y="-524.3" font-family="Times,serif" font-size="14.00">left = [0x503000000160]</text>
<polyline fill="none" stroke="black" points="792.5,-516.5 792.5,-539.5 "/>
<text text-anchor="middle" x="897" y="-524.3" font-family="Times,serif" font-size="14.00">right = [0x503000000280]</text>
</g>
<!-- node0x5030000002e0&#45;&gt;node0x5030000002b0 -->
<g id="edge5" class="edge">
<title>node0x5030000002e0&#45;&gt;node0x5030000002b0</title>
<path fill="none" stroke="black" d="M813.97,-645.37C812.35,-636.77 810.63,-627.68 808.95,-618.8"/>
<polygon fill="black" stroke="black" points="812.38,-618.09 807.08,-608.92 805.5,-619.39 812.38,-618.09"/>
</g>
<!-- node0x503000000400 -->
<g id="node7" class="node">
<title>node0x503000000400</title>
<path fill="#e0e0e0" stroke="black" d="M1031,-516.5C1031,-516.5 1316,-516.5 1316,-516.5 1322,-516.5 1328,-522.5 1328,-528.5 1328,-528.5 1328,-596.5 1328,-596.5 1328,-602.5 1322,-608.5 1316,-608.5 1316,-608.5 1031,-608.5 1031,-608.5 1025,-608.5 1019,-602.5 1019,-596.5 1019,-596.5 1019,-528.5 1019,-528.5 1019,-522.5 1025,-516.5 1031,-516.5"/>
<text text-anchor="middle" x="1173.5" y="-593.3" font-family="Times,serif" font-size="14.00">[0x503000000400]</text>
<polyline fill="none" stroke="black" points="1019,-585.5 1328,-585.5 "/>
<text text-anchor="middle" x="1173.5" y="-570.3" font-family="Times,serif" font-size="14.00">type = 2 (OP)</text>
<polyline fill="none" stroke="black" points="1019,-562.5 1328,-562.5 "/>
<text text-anchor="middle" x="1173.5" y="-547.3" font-family="Times,serif" font-size="14.00">value = &#39;&#39; SHUTUP &#39;&#39; (59)</text>
<polyline fill="none" stroke="black" points="1019,-539.5 1328,-539.5 "/>
<text text-anchor="middle" x="1117.5" y="-524.3" font-family="Times,serif" font-size="14.00">left = [0x5030000003d0]</text>
<polyline fill="none" stroke="black" points="1216,-516.5 1216,-539.5 "/>
<text text-anchor="middle" x="1272" y="-524.3" font-family="Times,serif" font-size="14.00">right = [(nil)]</text>
</g>
<!-- node0x5030000002e0&#45;&gt;node0x503000000400 -->
<g id="edge6" class="edge">
<title>node0x5030000002e0&#45;&gt;node0x503000000400</title>
<path fill="none" stroke="black" d="M947.24,-645.37C977.02,-634.59 1008.94,-623.04 1039.13,-612.12"/>
<polygon fill="black" stroke="black" points="1040.66,-615.29 1048.87,-608.59 1038.27,-608.71 1040.66,-615.29"/>
</g>
<!-- node0x503000000160 -->
<g id="node8" class="node">
<title>node0x503000000160</title>
<path fill="#50b2aa" stroke="black" d="M232.5,-387.5C232.5,-387.5 614.5,-387.5 614.5,-387.5 620.5,-387.5 626.5,-393.5 626.5,-399.5 626.5,-399.5 626.5,-467.5 626.5,-467.5 626.5,-473.5 620.5,-479.5 614.5,-479.5 614.5,-479.5 232.5,-479.5 232.5,-479.5 226.5,-479.5 220.5,-473.5 220.5,-467.5 220.5,-467.5 220.5,-399.5 220.5,-399.5 220.5,-393.5 226.5,-387.5 232.5,-387.5"/>
<text text-anchor="middle" x="423.5" y="-464.3" font-family="Times,serif" font-size="14.00">[0x503000000160]</text>
<polyline fill="none" stroke="black" points="220.5,-456.5 626.5,-456.5 "/>
<text text-anchor="middle" x="423.5" y="-441.3" font-family="Times,serif" font-size="14.00">type = 2 (OP)</text>
<polyline fill="none" stroke="black" points="220.5,-433.5 626.5,-433.5 "/>
<text text-anchor="middle" x="423.5" y="-418.3" font-family="Times,serif" font-size="14.00">value = &#39;&#39; SUB &#39;&#39; (45)</text>
<polyline fill="none" stroke="black" points="220.5,-410.5 626.5,-410.5 "/>
<text text-anchor="middle" x="319" y="-395.3" font-family="Times,serif" font-size="14.00">left = [0x503000000100]</text>
<polyline fill="none" stroke="black" points="417.5,-387.5 417.5,-410.5 "/>
<text text-anchor="middle" x="522" y="-395.3" font-family="Times,serif" font-size="14.00">right = [0x503000000130]</text>
</g>
<!-- node0x5030000002b0&#45;&gt;node0x503000000160 -->
<g id="edge7" class="edge">
<title>node0x5030000002b0&#45;&gt;node0x503000000160</title>
<path fill="none" stroke="black" d="M665.5,-516.46C633.29,-505.55 598.74,-493.85 566.12,-482.8"/>
<polygon fill="black" stroke="black" points="567.11,-479.44 556.52,-479.55 564.86,-486.07 567.11,-479.44"/>
</g>
<!-- node0x503000000280 -->
<g id="node9" class="node">
<title>node0x503000000280</title>
<path fill="#e0e0e0" stroke="black" d="M656,-387.5C656,-387.5 941,-387.5 941,-387.5 947,-387.5 953,-393.5 953,-399.5 953,-399.5 953,-467.5 953,-467.5 953,-473.5 947,-479.5 941,-479.5 941,-479.5 656,-479.5 656,-479.5 650,-479.5 644,-473.5 644,-467.5 644,-467.5 644,-399.5 644,-399.5 644,-393.5 650,-387.5 656,-387.5"/>
<text text-anchor="middle" x="798.5" y="-464.3" font-family="Times,serif" font-size="14.00">[0x503000000280]</text>
<polyline fill="none" stroke="black" points="644,-456.5 953,-456.5 "/>
<text text-anchor="middle" x="798.5" y="-441.3" font-family="Times,serif" font-size="14.00">type = 2 (OP)</text>
<polyline fill="none" stroke="black" points="644,-433.5 953,-433.5 "/>
<text text-anchor="middle" x="798.5" y="-418.3" font-family="Times,serif" font-size="14.00">value = &#39;&#39; SHUTUP &#39;&#39; (59)</text>
<polyline fill="none" stroke="black" points="644,-410.5 953,-410.5 "/>
<text text-anchor="middle" x="742.5" y="-395.3" font-family="Times,serif" font-size="14.00">left = [0x503000000250]</text>
<polyline fill="none" stroke="black" points="841,-387.5 841,-410.5 "/>
<text text-anchor="middle" x="897" y="-395.3" font-family="Times,serif" font-size="14.00">right = [(nil)]</text>
</g>
<!-- node0x5030000002b0&#45;&gt;node0x503000000280 -->
<g id="edge8" class="edge">
<title>node0x5030000002b0&#45;&gt;node0x503000000280</title>
<path fill="none" stroke="black" d="M798.5,-516.37C798.5,-507.86 798.5,-498.87 798.5,-490.09"/>
<polygon fill="black" stroke="black" points="802,-489.92 798.5,-479.92 795,-489.92 802,-489.92"/>
</g>
<!-- node0x5030000003d0 -->
<g id="node17" class="node">
<title>node0x5030000003d0</title>
<path fill="#50b2aa" stroke="black" d="M983,-387.5C983,-387.5 1364,-387.5 1364,-387.5 1370,-387.5 1376,-393.5 1376,-399.5 1376,-399.5 1376,-467.5 1376,-467.5 1376,-473.5 1370,-479.5 1364,-479.5 1364,-479.5 983,-479.5 983,-479.5 977,-479.5 971,-473.5 971,-467.5 971,-467.5 971,-399.5 971,-399.5 971,-393.5 977,-387.5 983,-387.5"/>
<text text-anchor="middle" x="1173.5" y="-464.3" font-family="Times,serif" font-size="14.00">[0x5030000003d0]</text>
<polyline fill="none" stroke="black" points="971,-456.5 1376,-456.5 "/>
<text text-anchor="middle" x="1173.5" y="-441.3" font-family="Times,serif" font-size="14.00">type = 2 (OP)</text>
<polyline fill="none" stroke="black" points="971,-433.5 1376,-433.5 "/>
<text text-anchor="middle" x="1173.5" y="-418.3" font-family="Times,serif" font-size="14.00">value = &#39;&#39; = &#39;&#39; (61)</text>
<polyline fill="none" stroke="black" points="971,-410.5 1376,-410.5 "/>
<text text-anchor="middle" x="1069.5" y="-395.3" font-family="Times,serif" font-size="14.00">left = [0x503000000310]</text>
<polyline fill="none" stroke="black" points="1168,-387.5 1168,-410.5 "/>
<text text-anchor="middle" x="1272" y="-395.3" font-family="Times,serif" font-size="14.00">right = [0x5030000003a0]</text>
</g>
<!-- node0x503000000400&#45;&gt;node0x5030000003d0 -->
<g id="edge16" class="edge">
<title>node0x503000000400&#45;&gt;node0x5030000003d0</title>
<path fill="none" stroke="black" d="M1173.5,-516.37C1173.5,-507.86 1173.5,-498.87 1173.5,-490.09"/>
<polygon fill="black" stroke="black" points="1177,-489.92 1173.5,-479.92 1170,-489.92 1177,-489.92"/>
</g>
<!-- node0x503000000100 -->
<g id="node10" class="node">
<title>node0x503000000100</title>
<path fill="#ff5050" stroke="black" d="M36,-258.5C36,-258.5 311,-258.5 311,-258.5 317,-258.5 323,-264.5 323,-270.5 323,-270.5 323,-338.5 323,-338.5 323,-344.5 317,-350.5 311,-350.5 311,-350.5 36,-350.5 36,-350.5 30,-350.5 24,-344.5 24,-338.5 24,-338.5 24,-270.5 24,-270.5 24,-264.5 30,-258.5 36,-258.5"/>
<text text-anchor="middle" x="173.5" y="-335.3" font-family="Times,serif" font-size="14.00">[0x503000000100]</text>
<polyline fill="none" stroke="black" points="24,-327.5 323,-327.5 "/>
<text text-anchor="middle" x="173.5" y="-312.3" font-family="Times,serif" font-size="14.00">type = 3 (ID)</text>
<polyline fill="none" stroke="black" points="24,-304.5 323,-304.5 "/>
<text text-anchor="middle" x="173.5" y="-289.3" font-family="Times,serif" font-size="14.00">number of name in name table = &#39;&#39; 17 &#39;&#39;</text>
<polyline fill="none" stroke="black" points="24,-281.5 323,-281.5 "/>
<text text-anchor="middle" x="96" y="-266.3" font-family="Times,serif" font-size="14.00">left = [(nil)]</text>
<polyline fill="none" stroke="black" points="168,-258.5 168,-281.5 "/>
<text text-anchor="middle" x="245.5" y="-266.3" font-family="Times,serif" font-size="14.00">right = [(nil)]</text>
</g>
<!-- node0x503000000160&#45;&gt;node0x503000000100 -->
<g id="edge9" class="edge">
<title>node0x503000000160&#45;&gt;node0x503000000100</title>
<path fill="none" stroke="black" d="M334.66,-387.37C314.24,-377 292.41,-365.91 271.63,-355.35"/>
<polygon fill="black" stroke="black" points="272.98,-352.11 262.48,-350.7 269.81,-358.35 272.98,-352.11"/>
</g>
<!-- node0x503000000130 -->
<g id="node11" class="node">
<title>node0x503000000130</title>
<path fill="#ffd700" stroke="black" d="M353,-258.5C353,-258.5 542,-258.5 542,-258.5 548,-258.5 554,-264.5 554,-270.5 554,-270.5 554,-338.5 554,-338.5 554,-344.5 548,-350.5 542,-350.5 542,-350.5 353,-350.5 353,-350.5 347,-350.5 341,-344.5 341,-338.5 341,-338.5 341,-270.5 341,-270.5 341,-264.5 347,-258.5 353,-258.5"/>
<text text-anchor="middle" x="447.5" y="-335.3" font-family="Times,serif" font-size="14.00">[0x503000000130]</text>
<polyline fill="none" stroke="black" points="341,-327.5 554,-327.5 "/>
<text text-anchor="middle" x="447.5" y="-312.3" font-family="Times,serif" font-size="14.00">type = 1 (NUM)</text>
<polyline fill="none" stroke="black" points="341,-304.5 554,-304.5 "/>
<text text-anchor="middle" x="447.5" y="-289.3" font-family="Times,serif" font-size="14.00">value = &#39;&#39; 14 &#39;&#39;</text>
<polyline fill="none" stroke="black" points="341,-281.5 554,-281.5 "/>
<text text-anchor="middle" x="391.5" y="-266.3" font-family="Times,serif" font-size="14.00">left = [(nil)]</text>
<polyline fill="none" stroke="black" points="442,-258.5 442,-281.5 "/>
<text text-anchor="middle" x="498" y="-266.3" font-family="Times,serif" font-size="14.00">right = [(nil)]</text>
</g>
<!-- node0x503000000160&#45;&gt;node0x503000000130 -->
<g id="edge10" class="edge">
<title>node0x503000000160&#45;&gt;node0x503000000130</title>
<path fill="none" stroke="black" d="M432.03,-387.37C433.65,-378.77 435.37,-369.68 437.05,-360.8"/>
<polygon fill="black" stroke="black" points="440.5,-361.39 438.92,-350.92 433.62,-360.09 440.5,-361.39"/>
</g>
<!-- node0x503000000250 -->
<g id="node12" class="node">
<title>node0x503000000250</title>
<path fill="#50b2aa" stroke="black" d="M607.5,-258.5C607.5,-258.5 989.5,-258.5 989.5,-258.5 995.5,-258.5 1001.5,-264.5 1001.5,-270.5 1001.5,-270.5 1001.5,-338.5 1001.5,-338.5 1001.5,-344.5 995.5,-350.5 989.5,-350.5 989.5,-350.5 607.5,-350.5 607.5,-350.5 601.5,-350.5 595.5,-344.5 595.5,-338.5 595.5,-338.5 595.5,-270.5 595.5,-270.5 595.5,-264.5 601.5,-258.5 607.5,-258.5"/>
<text text-anchor="middle" x="798.5" y="-335.3" font-family="Times,serif" font-size="14.00">[0x503000000250]</text>
<polyline fill="none" stroke="black" points="595.5,-327.5 1001.5,-327.5 "/>
<text text-anchor="middle" x="798.5" y="-312.3" font-family="Times,serif" font-size="14.00">type = 2 (OP)</text>
<polyline fill="none" stroke="black" points="595.5,-304.5 1001.5,-304.5 "/>
<text text-anchor="middle" x="798.5" y="-289.3" font-family="Times,serif" font-size="14.00">value = &#39;&#39; = &#39;&#39; (61)</text>
<polyline fill="none" stroke="black" points="595.5,-281.5 1001.5,-281.5 "/>
<text text-anchor="middle" x="694" y="-266.3" font-family="Times,serif" font-size="14.00">left = [0x503000000190]</text>
<polyline fill="none" stroke="black" points="792.5,-258.5 792.5,-281.5 "/>
<text text-anchor="middle" x="897" y="-266.3" font-family="Times,serif" font-size="14.00">right = [0x503000000220]</text>
</g>
<!-- node0x503000000280&#45;&gt;node0x503000000250 -->
<g id="edge11" class="edge">
<title>node0x503000000280&#45;&gt;node0x503000000250</title>
<path fill="none" stroke="black" d="M798.5,-387.37C798.5,-378.86 798.5,-369.87 798.5,-361.09"/>
<polygon fill="black" stroke="black" points="802,-360.92 798.5,-350.92 795,-360.92 802,-360.92"/>
</g>
<!-- node0x503000000190 -->
<g id="node13" class="node">
<title>node0x503000000190</title>
<path fill="#ff5050" stroke="black" d="M480,-129.5C480,-129.5 755,-129.5 755,-129.5 761,-129.5 767,-135.5 767,-141.5 767,-141.5 767,-209.5 767,-209.5 767,-215.5 761,-221.5 755,-221.5 755,-221.5 480,-221.5 480,-221.5 474,-221.5 468,-215.5 468,-209.5 468,-209.5 468,-141.5 468,-141.5 468,-135.5 474,-129.5 480,-129.5"/>
<text text-anchor="middle" x="617.5" y="-206.3" font-family="Times,serif" font-size="14.00">[0x503000000190]</text>
<polyline fill="none" stroke="black" points="468,-198.5 767,-198.5 "/>
<text text-anchor="middle" x="617.5" y="-183.3" font-family="Times,serif" font-size="14.00">type = 3 (ID)</text>
<polyline fill="none" stroke="black" points="468,-175.5 767,-175.5 "/>
<text text-anchor="middle" x="617.5" y="-160.3" font-family="Times,serif" font-size="14.00">number of name in name table = &#39;&#39; 18 &#39;&#39;</text>
<polyline fill="none" stroke="black" points="468,-152.5 767,-152.5 "/>
<text text-anchor="middle" x="540" y="-137.3" font-family="Times,serif" font-size="14.00">left = [(nil)]</text>
<polyline fill="none" stroke="black" points="612,-129.5 612,-152.5 "/>
<text text-anchor="middle" x="689.5" y="-137.3" font-family="Times,serif" font-size="14.00">right = [(nil)]</text>
</g>
<!-- node0x503000000250&#45;&gt;node0x503000000190 -->
<g id="edge12" class="edge">
<title>node0x503000000250&#45;&gt;node0x503000000190</title>
<path fill="none" stroke="black" d="M734.18,-258.37C719.99,-248.41 704.87,-237.8 690.37,-227.63"/>
<polygon fill="black" stroke="black" points="692.12,-224.58 681.92,-221.7 688.1,-230.31 692.12,-224.58"/>
</g>
<!-- node0x503000000220 -->
<g id="node14" class="node">
<title>node0x503000000220</title>
<path fill="#50b2aa" stroke="black" d="M797,-129.5C797,-129.5 1174,-129.5 1174,-129.5 1180,-129.5 1186,-135.5 1186,-141.5 1186,-141.5 1186,-209.5 1186,-209.5 1186,-215.5 1180,-221.5 1174,-221.5 1174,-221.5 797,-221.5 797,-221.5 791,-221.5 785,-215.5 785,-209.5 785,-209.5 785,-141.5 785,-141.5 785,-135.5 791,-129.5 797,-129.5"/>
<text text-anchor="middle" x="985.5" y="-206.3" font-family="Times,serif" font-size="14.00">[0x503000000220]</text>
<polyline fill="none" stroke="black" points="785,-198.5 1186,-198.5 "/>
<text text-anchor="middle" x="985.5" y="-183.3" font-family="Times,serif" font-size="14.00">type = 2 (OP)</text>
<polyline fill="none" stroke="black" points="785,-175.5 1186,-175.5 "/>
<text text-anchor="middle" x="985.5" y="-160.3" font-family="Times,serif" font-size="14.00">value = &#39;&#39; PLUS &#39;&#39; (43)</text>
<polyline fill="none" stroke="black" points="785,-152.5 1186,-152.5 "/>
<text text-anchor="middle" x="883" y="-137.3" font-family="Times,serif" font-size="14.00">left = [0x5030000001c0]</text>
<polyline fill="none" stroke="black" points="981,-129.5 981,-152.5 "/>
<text text-anchor="middle" x="1083.5" y="-137.3" font-family="Times,serif" font-size="14.00">right = [0x5030000001f0]</text>
</g>
<!-- node0x503000000250&#45;&gt;node0x503000000220 -->
<g id="edge13" class="edge">
<title>node0x503000000250&#45;&gt;node0x503000000220</title>
<path fill="none" stroke="black" d="M864.96,-258.37C879.75,-248.32 895.53,-237.6 910.63,-227.35"/>
<polygon fill="black" stroke="black" points="912.64,-230.22 918.94,-221.7 908.7,-224.42 912.64,-230.22"/>
</g>
<!-- node0x5030000001c0 -->
<g id="node15" class="node">
<title>node0x5030000001c0</title>
<path fill="#ffd700" stroke="black" d="M754,-0.5C754,-0.5 943,-0.5 943,-0.5 949,-0.5 955,-6.5 955,-12.5 955,-12.5 955,-80.5 955,-80.5 955,-86.5 949,-92.5 943,-92.5 943,-92.5 754,-92.5 754,-92.5 748,-92.5 742,-86.5 742,-80.5 742,-80.5 742,-12.5 742,-12.5 742,-6.5 748,-0.5 754,-0.5"/>
<text text-anchor="middle" x="848.5" y="-77.3" font-family="Times,serif" font-size="14.00">[0x5030000001c0]</text>
<polyline fill="none" stroke="black" points="742,-69.5 955,-69.5 "/>
<text text-anchor="middle" x="848.5" y="-54.3" font-family="Times,serif" font-size="14.00">type = 1 (NUM)</text>
<polyline fill="none" stroke="black" points="742,-46.5 955,-46.5 "/>
<text text-anchor="middle" x="848.5" y="-31.3" font-family="Times,serif" font-size="14.00">value = &#39;&#39; 240 &#39;&#39;</text>
<polyline fill="none" stroke="black" points="742,-23.5 955,-23.5 "/>
<text text-anchor="middle" x="792.5" y="-8.3" font-family="Times,serif" font-size="14.00">left = [(nil)]</text>
<polyline fill="none" stroke="black" points="843,-0.5 843,-23.5 "/>
<text text-anchor="middle" x="899" y="-8.3" font-family="Times,serif" font-size="14.00">right = [(nil)]</text>
</g>
<!-- node0x503000000220&#45;&gt;node0x5030000001c0 -->
<g id="edge14" class="edge">
<title>node0x503000000220&#45;&gt;node0x5030000001c0</title>
<path fill="none" stroke="black" d="M936.81,-129.37C926.54,-119.84 915.62,-109.72 905.08,-99.95"/>
<polygon fill="black" stroke="black" points="907.2,-97.15 897.49,-92.92 902.45,-102.28 907.2,-97.15"/>
</g>
<!-- node0x5030000001f0 -->
<g id="node16" class="node">
<title>node0x5030000001f0</title>
<path fill="#ff5050" stroke="black" d="M985,-0.5C985,-0.5 1260,-0.5 1260,-0.5 1266,-0.5 1272,-6.5 1272,-12.5 1272,-12.5 1272,-80.5 1272,-80.5 1272,-86.5 1266,-92.5 1260,-92.5 1260,-92.5 985,-92.5 985,-92.5 979,-92.5 973,-86.5 973,-80.5 973,-80.5 973,-12.5 973,-12.5 973,-6.5 979,-0.5 985,-0.5"/>
<text text-anchor="middle" x="1122.5" y="-77.3" font-family="Times,serif" font-size="14.00">[0x5030000001f0]</text>
<polyline fill="none" stroke="black" points="973,-69.5 1272,-69.5 "/>
<text text-anchor="middle" x="1122.5" y="-54.3" font-family="Times,serif" font-size="14.00">type = 3 (ID)</text>
<polyline fill="none" stroke="black" points="973,-46.5 1272,-46.5 "/>
<text text-anchor="middle" x="1122.5" y="-31.3" font-family="Times,serif" font-size="14.00">number of name in name table = &#39;&#39; 17 &#39;&#39;</text>
<polyline fill="none" stroke="black" points="973,-23.5 1272,-23.5 "/>
<text text-anchor="middle" x="1045" y="-8.3" font-family="Times,serif" font-size="14.00">left = [(nil)]</text>
<polyline fill="none" stroke="black" points="1117,-0.5 1117,-23.5 "/>
<text text-anchor="middle" x="1194.5" y="-8.3" font-family="Times,serif" font-size="14.00">right = [(nil)]</text>
</g>
<!-- node0x503000000220&#45;&gt;node0x5030000001f0 -->
<g id="edge15" class="edge">
<title>node0x503000000220&#45;&gt;node0x5030000001f0</title>
<path fill="none" stroke="black" d="M1034.19,-129.37C1044.46,-119.84 1055.38,-109.72 1065.92,-99.95"/>
<polygon fill="black" stroke="black" points="1068.55,-102.28 1073.51,-92.92 1063.8,-97.15 1068.55,-102.28"/>
</g>
<!-- node0x503000000310 -->
<g id="node18" class="node">
<title>node0x503000000310</title>
<path fill="#ff5050" stroke="black" d="M1034,-258.5C1034,-258.5 1309,-258.5 1309,-258.5 1315,-258.5 1321,-264.5 1321,-270.5 1321,-270.5 1321,-338.5 1321,-338.5 1321,-344.5 1315,-350.5 1309,-350.5 1309,-350.5 1034,-350.5 1034,-350.5 1028,-350.5 1022,-344.5 1022,-338.5 1022,-338.5 1022,-270.5 1022,-270.5 1022,-264.5 1028,-258.5 1034,-258.5"/>
<text text-anchor="middle" x="1171.5" y="-335.3" font-family="Times,serif" font-size="14.00">[0x503000000310]</text>
<polyline fill="none" stroke="black" points="1022,-327.5 1321,-327.5 "/>
<text text-anchor="middle" x="1171.5" y="-312.3" font-family="Times,serif" font-size="14.00">type = 3 (ID)</text>
<polyline fill="none" stroke="black" points="1022,-304.5 1321,-304.5 "/>
<text text-anchor="middle" x="1171.5" y="-289.3" font-family="Times,serif" font-size="14.00">number of name in name table = &#39;&#39; 19 &#39;&#39;</text>
<polyline fill="none" stroke="black" points="1022,-281.5 1321,-281.5 "/>
<text text-anchor="middle" x="1094" y="-266.3" font-family="Times,serif" font-size="14.00">left = [(nil)]</text>
<polyline fill="none" stroke="black" points="1166,-258.5 1166,-281.5 "/>
<text text-anchor="middle" x="1243.5" y="-266.3" font-family="Times,serif" font-size="14.00">right = [(nil)]</text>
</g>
<!-- node0x5030000003d0&#45;&gt;node0x503000000310 -->
<g id="edge17" class="edge">
<title>node0x5030000003d0&#45;&gt;node0x503000000310</title>
<path fill="none" stroke="black" d="M1172.79,-387.37C1172.66,-378.86 1172.51,-369.87 1172.38,-361.09"/>
<polygon fill="black" stroke="black" points="1175.87,-360.86 1172.22,-350.92 1168.87,-360.97 1175.87,-360.86"/>
</g>
<!-- node0x5030000003a0 -->
<g id="node19" class="node">
<title>node0x5030000003a0</title>
<path fill="#50b2aa" stroke="black" d="M1351.5,-258.5C1351.5,-258.5 1733.5,-258.5 1733.5,-258.5 1739.5,-258.5 1745.5,-264.5 1745.5,-270.5 1745.5,-270.5 1745.5,-338.5 1745.5,-338.5 1745.5,-344.5 1739.5,-350.5 1733.5,-350.5 1733.5,-350.5 1351.5,-350.5 1351.5,-350.5 1345.5,-350.5 1339.5,-344.5 1339.5,-338.5 1339.5,-338.5 1339.5,-270.5 1339.5,-270.5 1339.5,-264.5 1345.5,-258.5 1351.5,-258.5"/>
<text text-anchor="middle" x="1542.5" y="-335.3" font-family="Times,serif" font-size="14.00">[0x5030000003a0]</text>
<polyline fill="none" stroke="black" points="1339.5,-327.5 1745.5,-327.5 "/>
<text text-anchor="middle" x="1542.5" y="-312.3" font-family="Times,serif" font-size="14.00">type = 2 (OP)</text>
<polyline fill="none" stroke="black" points="1339.5,-304.5 1745.5,-304.5 "/>
<text text-anchor="middle" x="1542.5" y="-289.3" font-family="Times,serif" font-size="14.00">value = &#39;&#39; SUB &#39;&#39; (45)</text>
<polyline fill="none" stroke="black" points="1339.5,-281.5 1745.5,-281.5 "/>
<text text-anchor="middle" x="1438" y="-266.3" font-family="Times,serif" font-size="14.00">left = [0x503000000340]</text>
<polyline fill="none" stroke="black" points="1536.5,-258.5 1536.5,-281.5 "/>
<text text-anchor="middle" x="1641" y="-266.3" font-family="Times,serif" font-size="14.00">right = [0x503000000370]</text>
</g>
<!-- node0x5030000003d0&#45;&gt;node0x5030000003a0 -->
<g id="edge18" class="edge">
<title>node0x5030000003d0&#45;&gt;node0x5030000003a0</title>
<path fill="none" stroke="black" d="M1304.37,-387.46C1335.93,-376.6 1369.77,-364.95 1401.75,-353.94"/>
<polygon fill="black" stroke="black" points="1403.3,-357.11 1411.61,-350.55 1401.02,-350.49 1403.3,-357.11"/>
</g>
<!-- node0x503000000340 -->
<g id="node20" class="node">
<title>node0x503000000340</title>
<path fill="#ff5050" stroke="black" d="M1268,-129.5C1268,-129.5 1543,-129.5 1543,-129.5 1549,-129.5 1555,-135.5 1555,-141.5 1555,-141.5 1555,-209.5 1555,-209.5 1555,-215.5 1549,-221.5 1543,-221.5 1543,-221.5 1268,-221.5 1268,-221.5 1262,-221.5 1256,-215.5 1256,-209.5 1256,-209.5 1256,-141.5 1256,-141.5 1256,-135.5 1262,-129.5 1268,-129.5"/>
<text text-anchor="middle" x="1405.5" y="-206.3" font-family="Times,serif" font-size="14.00">[0x503000000340]</text>
<polyline fill="none" stroke="black" points="1256,-198.5 1555,-198.5 "/>
<text text-anchor="middle" x="1405.5" y="-183.3" font-family="Times,serif" font-size="14.00">type = 3 (ID)</text>
<polyline fill="none" stroke="black" points="1256,-175.5 1555,-175.5 "/>
<text text-anchor="middle" x="1405.5" y="-160.3" font-family="Times,serif" font-size="14.00">number of name in name table = &#39;&#39; 18 &#39;&#39;</text>
<polyline fill="none" stroke="black" points="1256,-152.5 1555,-152.5 "/>
<text text-anchor="middle" x="1328" y="-137.3" font-family="Times,serif" font-size="14.00">left = [(nil)]</text>
<polyline fill="none" stroke="black" points="1400,-129.5 1400,-152.5 "/>
<text text-anchor="middle" x="1477.5" y="-137.3" font-family="Times,serif" font-size="14.00">right = [(nil)]</text>
</g>
<!-- node0x5030000003a0&#45;&gt;node0x503000000340 -->
<g id="edge19" class="edge">
<title>node0x5030000003a0&#45;&gt;node0x503000000340</title>
<path fill="none" stroke="black" d="M1493.81,-258.37C1483.54,-248.84 1472.62,-238.72 1462.08,-228.95"/>
<polygon fill="black" stroke="black" points="1464.2,-226.15 1454.49,-221.92 1459.45,-231.28 1464.2,-226.15"/>
</g>
<!-- node0x503000000370 -->
<g id="node21" class="node">
<title>node0x503000000370</title>
<path fill="#ffd700" stroke="black" d="M1585,-129.5C1585,-129.5 1774,-129.5 1774,-129.5 1780,-129.5 1786,-135.5 1786,-141.5 1786,-141.5 1786,-209.5 1786,-209.5 1786,-215.5 1780,-221.5 1774,-221.5 1774,-221.5 1585,-221.5 1585,-221.5 1579,-221.5 1573,-215.5 1573,-209.5 1573,-209.5 1573,-141.5 1573,-141.5 1573,-135.5 1579,-129.5 1585,-129.5"/>
<text text-anchor="middle" x="1679.5" y="-206.3" font-family="Times,serif" font-size="14.00">[0x503000000370]</text>
<polyline fill="none" stroke="black" points="1573,-198.5 1786,-198.5 "/>
<text text-anchor="middle" x="1679.5" y="-183.3" font-family="Times,serif" font-size="14.00">type = 1 (NUM)</text>
<polyline fill="none" stroke="black" points="1573,-175.5 1786,-175.5 "/>
<text text-anchor="middle" x="1679.5" y="-160.3" font-family="Times,serif" font-size="14.00">value = &#39;&#39; 5 &#39;&#39;</text>
<polyline fill="none" stroke="black" points="1573,-152.5 1786,-152.5 "/>
<text text-anchor="middle" x="1623.5" y="-137.3" font-family="Times,serif" font-size="14.00">left = [(nil)]</text>
<polyline fill="none" stroke="black" points="1674,-129.5 1674,-152.5 "/>
<text text-anchor="middle" x="1730" y="-137.3" font-family="Times,serif" font-size="14.00">right = [(nil)]</text>
</g>
<!-- node0x5030000003a0&#45;&gt;node0x503000000370 -->
<g id="edge20" class="edge">
<title>node0x5030000003a0&#45;&gt;node0x503000000370</title>
<path fill="none" stroke="black" d="M1591.19,-258.37C1601.46,-248.84 1612.38,-238.72 1622.92,-228.95"/>
<polygon fill="black" stroke="black" points="1625.55,-231.28 1630.51,-221.92 1620.8,-226.15 1625.55,-231.28"/>
</g>
</g>
</svg>
