<?xml version="1.0" encoding="UTF-8" standalone="no"?>
<!DOCTYPE svg PUBLIC "-//W3C//DTD SVG 1.1//EN"
 "http://www.w3.org/Graphics/SVG/1.1/DTD/svg11.dtd">
<!-- Generated by graphviz version 2.43.0 (0)
 -->
<!-- Title: %3 Pages: 1 -->
<svg width="522pt" height="359pt"
 viewBox="0.00 0.00 521.50 359.00" xmlns="http://www.w3.org/2000/svg" xmlns:xlink="http://www.w3.org/1999/xlink">
<g id="graph0" class="graph" transform="scale(1 1) rotate(0) translate(4 355)">
<title>%3</title>
<!-- node0x5030000000d0 -->
<g id="node1" class="node">
<title>node0x5030000000d0</title>
<path fill="#e0e0e0" stroke="black" d="M131.5,-258.5C131.5,-258.5 416.5,-258.5 416.5,-258.5 422.5,-258.5 428.5,-264.5 428.5,-270.5 428.5,-270.5 428.5,-338.5 428.5,-338.5 428.5,-344.5 422.5,-350.5 416.5,-350.5 416.5,-350.5 131.5,-350.5 131.5,-350.5 125.5,-350.5 119.5,-344.5 119.5,-338.5 119.5,-338.5 119.5,-270.5 119.5,-270.5 119.5,-264.5 125.5,-258.5 131.5,-258.5"/>
<text text-anchor="middle" x="274" y="-335.3" font-family="Times,serif" font-size="14.00">[0x5030000000d0]</text>
<polyline fill="none" stroke="black" points="119.5,-327.5 428.5,-327.5 "/>
<text text-anchor="middle" x="274" y="-312.3" font-family="Times,serif" font-size="14.00">type = 2 (OP)</text>
<polyline fill="none" stroke="black" points="119.5,-304.5 428.5,-304.5 "/>
<text text-anchor="middle" x="274" y="-289.3" font-family="Times,serif" font-size="14.00">value = &#39;&#39; GLUE &#39;&#39;</text>
<polyline fill="none" stroke="black" points="119.5,-281.5 428.5,-281.5 "/>
<text text-anchor="middle" x="218" y="-266.3" font-family="Times,serif" font-size="14.00">left = [0x5030000000a0]</text>
<polyline fill="none" stroke="black" points="316.5,-258.5 316.5,-281.5 "/>
<text text-anchor="middle" x="372.5" y="-266.3" font-family="Times,serif" font-size="14.00">right = [(nil)]</text>
</g>
<!-- node0x5030000000a0 -->
<g id="node2" class="node">
<title>node0x5030000000a0</title>
<path fill="#50b2aa" stroke="black" d="M83,-129.5C83,-129.5 465,-129.5 465,-129.5 471,-129.5 477,-135.5 477,-141.5 477,-141.5 477,-209.5 477,-209.5 477,-215.5 471,-221.5 465,-221.5 465,-221.5 83,-221.5 83,-221.5 77,-221.5 71,-215.5 71,-209.5 71,-209.5 71,-141.5 71,-141.5 71,-135.5 77,-129.5 83,-129.5"/>
<text text-anchor="middle" x="274" y="-206.3" font-family="Times,serif" font-size="14.00">[0x5030000000a0]</text>
<polyline fill="none" stroke="black" points="71,-198.5 477,-198.5 "/>
<text text-anchor="middle" x="274" y="-183.3" font-family="Times,serif" font-size="14.00">type = 2 (OP)</text>
<polyline fill="none" stroke="black" points="71,-175.5 477,-175.5 "/>
<text text-anchor="middle" x="274" y="-160.3" font-family="Times,serif" font-size="14.00">value = &#39;&#39; = &#39;&#39; (61)</text>
<polyline fill="none" stroke="black" points="71,-152.5 477,-152.5 "/>
<text text-anchor="middle" x="169.5" y="-137.3" font-family="Times,serif" font-size="14.00">left = [0x503000000040]</text>
<polyline fill="none" stroke="black" points="268,-129.5 268,-152.5 "/>
<text text-anchor="middle" x="372.5" y="-137.3" font-family="Times,serif" font-size="14.00">right = [0x503000000070]</text>
</g>
<!-- node0x5030000000d0&#45;&gt;node0x5030000000a0 -->
<g id="edge1" class="edge">
<title>node0x5030000000d0&#45;&gt;node0x5030000000a0</title>
<path fill="none" stroke="black" d="M274,-258.37C274,-249.86 274,-240.87 274,-232.09"/>
<polygon fill="black" stroke="black" points="277.5,-231.92 274,-221.92 270.5,-231.92 277.5,-231.92"/>
</g>
<!-- node0x503000000040 -->
<g id="node3" class="node">
<title>node0x503000000040</title>
<path fill="#ff5050" stroke="black" d="M12,-0.5C12,-0.5 270,-0.5 270,-0.5 276,-0.5 282,-6.5 282,-12.5 282,-12.5 282,-80.5 282,-80.5 282,-86.5 276,-92.5 270,-92.5 270,-92.5 12,-92.5 12,-92.5 6,-92.5 0,-86.5 0,-80.5 0,-80.5 0,-12.5 0,-12.5 0,-6.5 6,-0.5 12,-0.5"/>
<text text-anchor="middle" x="141" y="-77.3" font-family="Times,serif" font-size="14.00">[0x503000000040]</text>
<polyline fill="none" stroke="black" points="0,-69.5 282,-69.5 "/>
<text text-anchor="middle" x="141" y="-54.3" font-family="Times,serif" font-size="14.00">type = 4 (ID)</text>
<polyline fill="none" stroke="black" points="0,-46.5 282,-46.5 "/>
<text text-anchor="middle" x="141" y="-31.3" font-family="Times,serif" font-size="14.00">number of name in name table = &#39;16&#39;</text>
<polyline fill="none" stroke="black" points="0,-23.5 282,-23.5 "/>
<text text-anchor="middle" x="67.5" y="-8.3" font-family="Times,serif" font-size="14.00">left = [(nil)]</text>
<polyline fill="none" stroke="black" points="135,-0.5 135,-23.5 "/>
<text text-anchor="middle" x="208.5" y="-8.3" font-family="Times,serif" font-size="14.00">right = [(nil)]</text>
</g>
<!-- node0x5030000000a0&#45;&gt;node0x503000000040 -->
<g id="edge2" class="edge">
<title>node0x5030000000a0&#45;&gt;node0x503000000040</title>
<path fill="none" stroke="black" d="M226.73,-129.37C216.76,-119.84 206.16,-109.72 195.93,-99.95"/>
<polygon fill="black" stroke="black" points="198.21,-97.29 188.56,-92.92 193.38,-102.35 198.21,-97.29"/>
</g>
<!-- node0x503000000070 -->
<g id="node4" class="node">
<title>node0x503000000070</title>
<path fill="#ffd700" stroke="black" d="M312.5,-0.5C312.5,-0.5 501.5,-0.5 501.5,-0.5 507.5,-0.5 513.5,-6.5 513.5,-12.5 513.5,-12.5 513.5,-80.5 513.5,-80.5 513.5,-86.5 507.5,-92.5 501.5,-92.5 501.5,-92.5 312.5,-92.5 312.5,-92.5 306.5,-92.5 300.5,-86.5 300.5,-80.5 300.5,-80.5 300.5,-12.5 300.5,-12.5 300.5,-6.5 306.5,-0.5 312.5,-0.5"/>
<text text-anchor="middle" x="407" y="-77.3" font-family="Times,serif" font-size="14.00">[0x503000000070]</text>
<polyline fill="none" stroke="black" points="300.5,-69.5 513.5,-69.5 "/>
<text text-anchor="middle" x="407" y="-54.3" font-family="Times,serif" font-size="14.00">type = 1 (NUM)</text>
<polyline fill="none" stroke="black" points="300.5,-46.5 513.5,-46.5 "/>
<text text-anchor="middle" x="407" y="-31.3" font-family="Times,serif" font-size="14.00">value = 11111</text>
<polyline fill="none" stroke="black" points="300.5,-23.5 513.5,-23.5 "/>
<text text-anchor="middle" x="351" y="-8.3" font-family="Times,serif" font-size="14.00">left = [(nil)]</text>
<polyline fill="none" stroke="black" points="401.5,-0.5 401.5,-23.5 "/>
<text text-anchor="middle" x="457.5" y="-8.3" font-family="Times,serif" font-size="14.00">right = [(nil)]</text>
</g>
<!-- node0x5030000000a0&#45;&gt;node0x503000000070 -->
<g id="edge3" class="edge">
<title>node0x5030000000a0&#45;&gt;node0x503000000070</title>
<path fill="none" stroke="black" d="M321.27,-129.37C331.24,-119.84 341.84,-109.72 352.07,-99.95"/>
<polygon fill="black" stroke="black" points="354.62,-102.35 359.44,-92.92 349.79,-97.29 354.62,-102.35"/>
</g>
</g>
</svg>
