<?xml version="1.0" encoding="UTF-8" standalone="no"?>
<!DOCTYPE svg PUBLIC "-//W3C//DTD SVG 1.1//EN"
 "http://www.w3.org/Graphics/SVG/1.1/DTD/svg11.dtd">
<!-- Generated by graphviz version 2.43.0 (0)
 -->
<!-- Title: %3 Pages: 1 -->
<svg width="2004pt" height="885pt"
 viewBox="0.00 0.00 2003.50 885.00" xmlns="http://www.w3.org/2000/svg" xmlns:xlink="http://www.w3.org/1999/xlink">
<g id="graph0" class="graph" transform="scale(1 1) rotate(0) translate(4 881)">
<title>%3</title>
<!-- node0x5030000006a0 -->
<g id="node1" class="node">
<title>node0x5030000006a0</title>
<path fill="#755cf7" stroke="black" d="M354,-830.5C354,-830.5 554,-830.5 554,-830.5 560,-830.5 566,-836.5 566,-842.5 566,-842.5 566,-864.5 566,-864.5 566,-870.5 560,-876.5 554,-876.5 554,-876.5 354,-876.5 354,-876.5 348,-876.5 342,-870.5 342,-864.5 342,-864.5 342,-842.5 342,-842.5 342,-836.5 348,-830.5 354,-830.5"/>
<text text-anchor="middle" x="454" y="-861.3" font-family="Times,serif" font-size="14.00">type = 4 (FUNC)</text>
<polyline fill="none" stroke="black" points="342,-853.5 566,-853.5 "/>
<text text-anchor="middle" x="454" y="-838.3" font-family="Times,serif" font-size="14.00">value = &#39;&#39; DEFINITION &#39;&#39; (68)</text>
</g>
<!-- node0x5030000000a0 -->
<g id="node2" class="node">
<title>node0x5030000000a0</title>
<path fill="#f069f5" stroke="black" d="M260.5,-747.5C260.5,-747.5 407.5,-747.5 407.5,-747.5 413.5,-747.5 419.5,-753.5 419.5,-759.5 419.5,-759.5 419.5,-781.5 419.5,-781.5 419.5,-787.5 413.5,-793.5 407.5,-793.5 407.5,-793.5 260.5,-793.5 260.5,-793.5 254.5,-793.5 248.5,-787.5 248.5,-781.5 248.5,-781.5 248.5,-759.5 248.5,-759.5 248.5,-753.5 254.5,-747.5 260.5,-747.5"/>
<text text-anchor="middle" x="334" y="-778.3" font-family="Times,serif" font-size="14.00">type = 4 (FUNC)</text>
<polyline fill="none" stroke="black" points="248.5,-770.5 419.5,-770.5 "/>
<text text-anchor="middle" x="334" y="-755.3" font-family="Times,serif" font-size="14.00">value = &#39;&#39; CALL &#39;&#39; (67)</text>
</g>
<!-- node0x5030000006a0&#45;&gt;node0x5030000000a0 -->
<g id="edge1" class="edge">
<title>node0x5030000006a0&#45;&gt;node0x5030000000a0</title>
<path fill="none" stroke="black" d="M421.21,-830.37C407.06,-820.81 390.34,-809.53 375.35,-799.41"/>
<polygon fill="black" stroke="black" points="377,-796.3 366.75,-793.61 373.08,-802.1 377,-796.3"/>
</g>
<!-- node0x503000000160 -->
<g id="node3" class="node">
<title>node0x503000000160</title>
<path fill="#e0e0e0" stroke="black" d="M487.5,-747.5C487.5,-747.5 660.5,-747.5 660.5,-747.5 666.5,-747.5 672.5,-753.5 672.5,-759.5 672.5,-759.5 672.5,-781.5 672.5,-781.5 672.5,-787.5 666.5,-793.5 660.5,-793.5 660.5,-793.5 487.5,-793.5 487.5,-793.5 481.5,-793.5 475.5,-787.5 475.5,-781.5 475.5,-781.5 475.5,-759.5 475.5,-759.5 475.5,-753.5 481.5,-747.5 487.5,-747.5"/>
<text text-anchor="middle" x="574" y="-778.3" font-family="Times,serif" font-size="14.00">type = 2 (OP)</text>
<polyline fill="none" stroke="black" points="475.5,-770.5 672.5,-770.5 "/>
<text text-anchor="middle" x="574" y="-755.3" font-family="Times,serif" font-size="14.00">value = &#39;&#39; SHUTUP &#39;&#39; (59)</text>
</g>
<!-- node0x5030000006a0&#45;&gt;node0x503000000160 -->
<g id="edge2" class="edge">
<title>node0x5030000006a0&#45;&gt;node0x503000000160</title>
<path fill="none" stroke="black" d="M486.79,-830.37C500.94,-820.81 517.66,-809.53 532.65,-799.41"/>
<polygon fill="black" stroke="black" points="534.92,-802.1 541.25,-793.61 531,-796.3 534.92,-802.1"/>
</g>
<!-- node0x503000000040 -->
<g id="node4" class="node">
<title>node0x503000000040</title>
<path fill="#2ee31e" stroke="black" d="M12,-664.5C12,-664.5 154,-664.5 154,-664.5 160,-664.5 166,-670.5 166,-676.5 166,-676.5 166,-698.5 166,-698.5 166,-704.5 160,-710.5 154,-710.5 154,-710.5 12,-710.5 12,-710.5 6,-710.5 0,-704.5 0,-698.5 0,-698.5 0,-676.5 0,-676.5 0,-670.5 6,-664.5 12,-664.5"/>
<text text-anchor="middle" x="83" y="-695.3" font-family="Times,serif" font-size="14.00">type = 4 (FUNC)</text>
<polyline fill="none" stroke="black" points="0,-687.5 166,-687.5 "/>
<text text-anchor="middle" x="83" y="-672.3" font-family="Times,serif" font-size="14.00">value = &#39;&#39; carti &#39;&#39; (19)</text>
</g>
<!-- node0x5030000000a0&#45;&gt;node0x503000000040 -->
<g id="edge3" class="edge">
<title>node0x5030000000a0&#45;&gt;node0x503000000040</title>
<path fill="none" stroke="black" d="M265.74,-747.47C233.37,-737.03 194.54,-724.49 161.01,-713.67"/>
<polygon fill="black" stroke="black" points="161.83,-710.26 151.24,-710.52 159.68,-716.92 161.83,-710.26"/>
</g>
<!-- node0x503000000070 -->
<g id="node5" class="node">
<title>node0x503000000070</title>
<path fill="#ff5050" stroke="black" d="M196.5,-664.5C196.5,-664.5 471.5,-664.5 471.5,-664.5 477.5,-664.5 483.5,-670.5 483.5,-676.5 483.5,-676.5 483.5,-698.5 483.5,-698.5 483.5,-704.5 477.5,-710.5 471.5,-710.5 471.5,-710.5 196.5,-710.5 196.5,-710.5 190.5,-710.5 184.5,-704.5 184.5,-698.5 184.5,-698.5 184.5,-676.5 184.5,-676.5 184.5,-670.5 190.5,-664.5 196.5,-664.5"/>
<text text-anchor="middle" x="334" y="-695.3" font-family="Times,serif" font-size="14.00">type = 3 (ID)</text>
<polyline fill="none" stroke="black" points="184.5,-687.5 483.5,-687.5 "/>
<text text-anchor="middle" x="334" y="-672.3" font-family="Times,serif" font-size="14.00">number of name in name table = &#39;&#39; 20 &#39;&#39;</text>
</g>
<!-- node0x5030000000a0&#45;&gt;node0x503000000070 -->
<g id="edge4" class="edge">
<title>node0x5030000000a0&#45;&gt;node0x503000000070</title>
<path fill="none" stroke="black" d="M334,-747.37C334,-739.15 334,-729.66 334,-720.73"/>
<polygon fill="black" stroke="black" points="337.5,-720.61 334,-710.61 330.5,-720.61 337.5,-720.61"/>
</g>
<!-- node0x503000000130 -->
<g id="node6" class="node">
<title>node0x503000000130</title>
<path fill="#00ffdd" stroke="black" d="M513.5,-664.5C513.5,-664.5 634.5,-664.5 634.5,-664.5 640.5,-664.5 646.5,-670.5 646.5,-676.5 646.5,-676.5 646.5,-698.5 646.5,-698.5 646.5,-704.5 640.5,-710.5 634.5,-710.5 634.5,-710.5 513.5,-710.5 513.5,-710.5 507.5,-710.5 501.5,-704.5 501.5,-698.5 501.5,-698.5 501.5,-676.5 501.5,-676.5 501.5,-670.5 507.5,-664.5 513.5,-664.5"/>
<text text-anchor="middle" x="574" y="-695.3" font-family="Times,serif" font-size="14.00">type = 2 (OP)</text>
<polyline fill="none" stroke="black" points="501.5,-687.5 646.5,-687.5 "/>
<text text-anchor="middle" x="574" y="-672.3" font-family="Times,serif" font-size="14.00">value = &#39;&#39; = &#39;&#39; (61)</text>
</g>
<!-- node0x503000000160&#45;&gt;node0x503000000130 -->
<g id="edge5" class="edge">
<title>node0x503000000160&#45;&gt;node0x503000000130</title>
<path fill="none" stroke="black" d="M574,-747.37C574,-739.15 574,-729.66 574,-720.73"/>
<polygon fill="black" stroke="black" points="577.5,-720.61 574,-710.61 570.5,-720.61 577.5,-720.61"/>
</g>
<!-- node0x503000000220 -->
<g id="node7" class="node">
<title>node0x503000000220</title>
<path fill="#e0e0e0" stroke="black" d="M676.5,-664.5C676.5,-664.5 849.5,-664.5 849.5,-664.5 855.5,-664.5 861.5,-670.5 861.5,-676.5 861.5,-676.5 861.5,-698.5 861.5,-698.5 861.5,-704.5 855.5,-710.5 849.5,-710.5 849.5,-710.5 676.5,-710.5 676.5,-710.5 670.5,-710.5 664.5,-704.5 664.5,-698.5 664.5,-698.5 664.5,-676.5 664.5,-676.5 664.5,-670.5 670.5,-664.5 676.5,-664.5"/>
<text text-anchor="middle" x="763" y="-695.3" font-family="Times,serif" font-size="14.00">type = 2 (OP)</text>
<polyline fill="none" stroke="black" points="664.5,-687.5 861.5,-687.5 "/>
<text text-anchor="middle" x="763" y="-672.3" font-family="Times,serif" font-size="14.00">value = &#39;&#39; SHUTUP &#39;&#39; (59)</text>
</g>
<!-- node0x503000000160&#45;&gt;node0x503000000220 -->
<g id="edge6" class="edge">
<title>node0x503000000160&#45;&gt;node0x503000000220</title>
<path fill="none" stroke="black" d="M625.65,-747.37C649.29,-737.23 677.48,-725.15 702.15,-714.58"/>
<polygon fill="black" stroke="black" points="703.6,-717.76 711.42,-710.61 700.85,-711.33 703.6,-717.76"/>
</g>
<!-- node0x5030000000d0 -->
<g id="node8" class="node">
<title>node0x5030000000d0</title>
<path fill="#ff5050" stroke="black" d="M212.5,-581.5C212.5,-581.5 487.5,-581.5 487.5,-581.5 493.5,-581.5 499.5,-587.5 499.5,-593.5 499.5,-593.5 499.5,-615.5 499.5,-615.5 499.5,-621.5 493.5,-627.5 487.5,-627.5 487.5,-627.5 212.5,-627.5 212.5,-627.5 206.5,-627.5 200.5,-621.5 200.5,-615.5 200.5,-615.5 200.5,-593.5 200.5,-593.5 200.5,-587.5 206.5,-581.5 212.5,-581.5"/>
<text text-anchor="middle" x="350" y="-612.3" font-family="Times,serif" font-size="14.00">type = 3 (ID)</text>
<polyline fill="none" stroke="black" points="200.5,-604.5 499.5,-604.5 "/>
<text text-anchor="middle" x="350" y="-589.3" font-family="Times,serif" font-size="14.00">number of name in name table = &#39;&#39; 21 &#39;&#39;</text>
</g>
<!-- node0x503000000130&#45;&gt;node0x5030000000d0 -->
<g id="edge7" class="edge">
<title>node0x503000000130&#45;&gt;node0x5030000000d0</title>
<path fill="none" stroke="black" d="M513.09,-664.47C484.45,-654.12 450.13,-641.71 420.39,-630.95"/>
<polygon fill="black" stroke="black" points="421.5,-627.63 410.9,-627.52 419.11,-634.21 421.5,-627.63"/>
</g>
<!-- node0x503000000100 -->
<g id="node9" class="node">
<title>node0x503000000100</title>
<path fill="#ffd700" stroke="black" d="M529.5,-581.5C529.5,-581.5 636.5,-581.5 636.5,-581.5 642.5,-581.5 648.5,-587.5 648.5,-593.5 648.5,-593.5 648.5,-615.5 648.5,-615.5 648.5,-621.5 642.5,-627.5 636.5,-627.5 636.5,-627.5 529.5,-627.5 529.5,-627.5 523.5,-627.5 517.5,-621.5 517.5,-615.5 517.5,-615.5 517.5,-593.5 517.5,-593.5 517.5,-587.5 523.5,-581.5 529.5,-581.5"/>
<text text-anchor="middle" x="583" y="-612.3" font-family="Times,serif" font-size="14.00">type = 1 (NUM)</text>
<polyline fill="none" stroke="black" points="517.5,-604.5 648.5,-604.5 "/>
<text text-anchor="middle" x="583" y="-589.3" font-family="Times,serif" font-size="14.00">value = &#39;&#39; 10 &#39;&#39;</text>
</g>
<!-- node0x503000000130&#45;&gt;node0x503000000100 -->
<g id="edge8" class="edge">
<title>node0x503000000130&#45;&gt;node0x503000000100</title>
<path fill="none" stroke="black" d="M576.46,-664.37C577.37,-656.15 578.43,-646.66 579.42,-637.73"/>
<polygon fill="black" stroke="black" points="582.92,-637.93 580.54,-627.61 575.96,-637.16 582.92,-637.93"/>
</g>
<!-- node0x5030000001f0 -->
<g id="node10" class="node">
<title>node0x5030000001f0</title>
<path fill="#00ffdd" stroke="black" d="M694.5,-581.5C694.5,-581.5 815.5,-581.5 815.5,-581.5 821.5,-581.5 827.5,-587.5 827.5,-593.5 827.5,-593.5 827.5,-615.5 827.5,-615.5 827.5,-621.5 821.5,-627.5 815.5,-627.5 815.5,-627.5 694.5,-627.5 694.5,-627.5 688.5,-627.5 682.5,-621.5 682.5,-615.5 682.5,-615.5 682.5,-593.5 682.5,-593.5 682.5,-587.5 688.5,-581.5 694.5,-581.5"/>
<text text-anchor="middle" x="755" y="-612.3" font-family="Times,serif" font-size="14.00">type = 2 (OP)</text>
<polyline fill="none" stroke="black" points="682.5,-604.5 827.5,-604.5 "/>
<text text-anchor="middle" x="755" y="-589.3" font-family="Times,serif" font-size="14.00">value = &#39;&#39; = &#39;&#39; (61)</text>
</g>
<!-- node0x503000000220&#45;&gt;node0x5030000001f0 -->
<g id="edge9" class="edge">
<title>node0x503000000220&#45;&gt;node0x5030000001f0</title>
<path fill="none" stroke="black" d="M760.81,-664.37C760,-656.15 759.06,-646.66 758.18,-637.73"/>
<polygon fill="black" stroke="black" points="761.65,-637.21 757.18,-627.61 754.68,-637.9 761.65,-637.21"/>
</g>
<!-- node0x503000000340 -->
<g id="node11" class="node">
<title>node0x503000000340</title>
<path fill="#e0e0e0" stroke="black" d="M857.5,-581.5C857.5,-581.5 1030.5,-581.5 1030.5,-581.5 1036.5,-581.5 1042.5,-587.5 1042.5,-593.5 1042.5,-593.5 1042.5,-615.5 1042.5,-615.5 1042.5,-621.5 1036.5,-627.5 1030.5,-627.5 1030.5,-627.5 857.5,-627.5 857.5,-627.5 851.5,-627.5 845.5,-621.5 845.5,-615.5 845.5,-615.5 845.5,-593.5 845.5,-593.5 845.5,-587.5 851.5,-581.5 857.5,-581.5"/>
<text text-anchor="middle" x="944" y="-612.3" font-family="Times,serif" font-size="14.00">type = 2 (OP)</text>
<polyline fill="none" stroke="black" points="845.5,-604.5 1042.5,-604.5 "/>
<text text-anchor="middle" x="944" y="-589.3" font-family="Times,serif" font-size="14.00">value = &#39;&#39; SHUTUP &#39;&#39; (59)</text>
</g>
<!-- node0x503000000220&#45;&gt;node0x503000000340 -->
<g id="edge10" class="edge">
<title>node0x503000000220&#45;&gt;node0x503000000340</title>
<path fill="none" stroke="black" d="M812.46,-664.37C835.01,-654.28 861.86,-642.26 885.41,-631.72"/>
<polygon fill="black" stroke="black" points="886.9,-634.89 894.6,-627.61 884.04,-628.5 886.9,-634.89"/>
</g>
<!-- node0x503000000190 -->
<g id="node12" class="node">
<title>node0x503000000190</title>
<path fill="#ff5050" stroke="black" d="M389.5,-498.5C389.5,-498.5 664.5,-498.5 664.5,-498.5 670.5,-498.5 676.5,-504.5 676.5,-510.5 676.5,-510.5 676.5,-532.5 676.5,-532.5 676.5,-538.5 670.5,-544.5 664.5,-544.5 664.5,-544.5 389.5,-544.5 389.5,-544.5 383.5,-544.5 377.5,-538.5 377.5,-532.5 377.5,-532.5 377.5,-510.5 377.5,-510.5 377.5,-504.5 383.5,-498.5 389.5,-498.5"/>
<text text-anchor="middle" x="527" y="-529.3" font-family="Times,serif" font-size="14.00">type = 3 (ID)</text>
<polyline fill="none" stroke="black" points="377.5,-521.5 676.5,-521.5 "/>
<text text-anchor="middle" x="527" y="-506.3" font-family="Times,serif" font-size="14.00">number of name in name table = &#39;&#39; 22 &#39;&#39;</text>
</g>
<!-- node0x5030000001f0&#45;&gt;node0x503000000190 -->
<g id="edge11" class="edge">
<title>node0x5030000001f0&#45;&gt;node0x503000000190</title>
<path fill="none" stroke="black" d="M693,-581.47C663.85,-571.12 628.92,-558.71 598.64,-547.95"/>
<polygon fill="black" stroke="black" points="599.58,-544.57 588.99,-544.52 597.24,-551.17 599.58,-544.57"/>
</g>
<!-- node0x5030000001c0 -->
<g id="node13" class="node">
<title>node0x5030000001c0</title>
<path fill="#ffd700" stroke="black" d="M706.5,-498.5C706.5,-498.5 813.5,-498.5 813.5,-498.5 819.5,-498.5 825.5,-504.5 825.5,-510.5 825.5,-510.5 825.5,-532.5 825.5,-532.5 825.5,-538.5 819.5,-544.5 813.5,-544.5 813.5,-544.5 706.5,-544.5 706.5,-544.5 700.5,-544.5 694.5,-538.5 694.5,-532.5 694.5,-532.5 694.5,-510.5 694.5,-510.5 694.5,-504.5 700.5,-498.5 706.5,-498.5"/>
<text text-anchor="middle" x="760" y="-529.3" font-family="Times,serif" font-size="14.00">type = 1 (NUM)</text>
<polyline fill="none" stroke="black" points="694.5,-521.5 825.5,-521.5 "/>
<text text-anchor="middle" x="760" y="-506.3" font-family="Times,serif" font-size="14.00">value = &#39;&#39; 5 &#39;&#39;</text>
</g>
<!-- node0x5030000001f0&#45;&gt;node0x5030000001c0 -->
<g id="edge12" class="edge">
<title>node0x5030000001f0&#45;&gt;node0x5030000001c0</title>
<path fill="none" stroke="black" d="M756.37,-581.37C756.87,-573.15 757.46,-563.66 758.01,-554.73"/>
<polygon fill="black" stroke="black" points="761.51,-554.8 758.64,-544.61 754.53,-554.37 761.51,-554.8"/>
</g>
<!-- node0x503000000310 -->
<g id="node14" class="node">
<title>node0x503000000310</title>
<path fill="#00ffdd" stroke="black" d="M864.5,-498.5C864.5,-498.5 1013.5,-498.5 1013.5,-498.5 1019.5,-498.5 1025.5,-504.5 1025.5,-510.5 1025.5,-510.5 1025.5,-532.5 1025.5,-532.5 1025.5,-538.5 1019.5,-544.5 1013.5,-544.5 1013.5,-544.5 864.5,-544.5 864.5,-544.5 858.5,-544.5 852.5,-538.5 852.5,-532.5 852.5,-532.5 852.5,-510.5 852.5,-510.5 852.5,-504.5 858.5,-498.5 864.5,-498.5"/>
<text text-anchor="middle" x="939" y="-529.3" font-family="Times,serif" font-size="14.00">type = 2 (OP)</text>
<polyline fill="none" stroke="black" points="852.5,-521.5 1025.5,-521.5 "/>
<text text-anchor="middle" x="939" y="-506.3" font-family="Times,serif" font-size="14.00">value = &#39;&#39; PLUS &#39;&#39; (43)</text>
</g>
<!-- node0x503000000340&#45;&gt;node0x503000000310 -->
<g id="edge13" class="edge">
<title>node0x503000000340&#45;&gt;node0x503000000310</title>
<path fill="none" stroke="black" d="M942.63,-581.37C942.13,-573.15 941.54,-563.66 940.99,-554.73"/>
<polygon fill="black" stroke="black" points="944.47,-554.37 940.36,-544.61 937.49,-554.8 944.47,-554.37"/>
</g>
<!-- node0x503000000460 -->
<g id="node15" class="node">
<title>node0x503000000460</title>
<path fill="#e0e0e0" stroke="black" d="M1095.5,-498.5C1095.5,-498.5 1268.5,-498.5 1268.5,-498.5 1274.5,-498.5 1280.5,-504.5 1280.5,-510.5 1280.5,-510.5 1280.5,-532.5 1280.5,-532.5 1280.5,-538.5 1274.5,-544.5 1268.5,-544.5 1268.5,-544.5 1095.5,-544.5 1095.5,-544.5 1089.5,-544.5 1083.5,-538.5 1083.5,-532.5 1083.5,-532.5 1083.5,-510.5 1083.5,-510.5 1083.5,-504.5 1089.5,-498.5 1095.5,-498.5"/>
<text text-anchor="middle" x="1182" y="-529.3" font-family="Times,serif" font-size="14.00">type = 2 (OP)</text>
<polyline fill="none" stroke="black" points="1083.5,-521.5 1280.5,-521.5 "/>
<text text-anchor="middle" x="1182" y="-506.3" font-family="Times,serif" font-size="14.00">value = &#39;&#39; SHUTUP &#39;&#39; (59)</text>
</g>
<!-- node0x503000000340&#45;&gt;node0x503000000460 -->
<g id="edge14" class="edge">
<title>node0x503000000340&#45;&gt;node0x503000000460</title>
<path fill="none" stroke="black" d="M1008.72,-581.47C1039.28,-571.07 1075.92,-558.6 1107.63,-547.81"/>
<polygon fill="black" stroke="black" points="1108.95,-551.06 1117.29,-544.52 1106.7,-544.43 1108.95,-551.06"/>
</g>
<!-- node0x5030000002b0 -->
<g id="node16" class="node">
<title>node0x5030000002b0</title>
<path fill="#f069f5" stroke="black" d="M599.5,-415.5C599.5,-415.5 746.5,-415.5 746.5,-415.5 752.5,-415.5 758.5,-421.5 758.5,-427.5 758.5,-427.5 758.5,-449.5 758.5,-449.5 758.5,-455.5 752.5,-461.5 746.5,-461.5 746.5,-461.5 599.5,-461.5 599.5,-461.5 593.5,-461.5 587.5,-455.5 587.5,-449.5 587.5,-449.5 587.5,-427.5 587.5,-427.5 587.5,-421.5 593.5,-415.5 599.5,-415.5"/>
<text text-anchor="middle" x="673" y="-446.3" font-family="Times,serif" font-size="14.00">type = 4 (FUNC)</text>
<polyline fill="none" stroke="black" points="587.5,-438.5 758.5,-438.5 "/>
<text text-anchor="middle" x="673" y="-423.3" font-family="Times,serif" font-size="14.00">value = &#39;&#39; CALL &#39;&#39; (67)</text>
</g>
<!-- node0x503000000310&#45;&gt;node0x5030000002b0 -->
<g id="edge15" class="edge">
<title>node0x503000000310&#45;&gt;node0x5030000002b0</title>
<path fill="none" stroke="black" d="M866.67,-498.47C832.21,-487.98 790.85,-475.39 755.21,-464.53"/>
<polygon fill="black" stroke="black" points="755.91,-461.09 745.32,-461.52 753.87,-467.78 755.91,-461.09"/>
</g>
<!-- node0x5030000002e0 -->
<g id="node17" class="node">
<title>node0x5030000002e0</title>
<path fill="#ffd700" stroke="black" d="M885.5,-415.5C885.5,-415.5 992.5,-415.5 992.5,-415.5 998.5,-415.5 1004.5,-421.5 1004.5,-427.5 1004.5,-427.5 1004.5,-449.5 1004.5,-449.5 1004.5,-455.5 998.5,-461.5 992.5,-461.5 992.5,-461.5 885.5,-461.5 885.5,-461.5 879.5,-461.5 873.5,-455.5 873.5,-449.5 873.5,-449.5 873.5,-427.5 873.5,-427.5 873.5,-421.5 879.5,-415.5 885.5,-415.5"/>
<text text-anchor="middle" x="939" y="-446.3" font-family="Times,serif" font-size="14.00">type = 1 (NUM)</text>
<polyline fill="none" stroke="black" points="873.5,-438.5 1004.5,-438.5 "/>
<text text-anchor="middle" x="939" y="-423.3" font-family="Times,serif" font-size="14.00">value = &#39;&#39; 5 &#39;&#39;</text>
</g>
<!-- node0x503000000310&#45;&gt;node0x5030000002e0 -->
<g id="edge16" class="edge">
<title>node0x503000000310&#45;&gt;node0x5030000002e0</title>
<path fill="none" stroke="black" d="M939,-498.37C939,-490.15 939,-480.66 939,-471.73"/>
<polygon fill="black" stroke="black" points="942.5,-471.61 939,-461.61 935.5,-471.61 942.5,-471.61"/>
</g>
<!-- node0x503000000430 -->
<g id="node20" class="node">
<title>node0x503000000430</title>
<path fill="#00ffdd" stroke="black" d="M1121.5,-415.5C1121.5,-415.5 1242.5,-415.5 1242.5,-415.5 1248.5,-415.5 1254.5,-421.5 1254.5,-427.5 1254.5,-427.5 1254.5,-449.5 1254.5,-449.5 1254.5,-455.5 1248.5,-461.5 1242.5,-461.5 1242.5,-461.5 1121.5,-461.5 1121.5,-461.5 1115.5,-461.5 1109.5,-455.5 1109.5,-449.5 1109.5,-449.5 1109.5,-427.5 1109.5,-427.5 1109.5,-421.5 1115.5,-415.5 1121.5,-415.5"/>
<text text-anchor="middle" x="1182" y="-446.3" font-family="Times,serif" font-size="14.00">type = 2 (OP)</text>
<polyline fill="none" stroke="black" points="1109.5,-438.5 1254.5,-438.5 "/>
<text text-anchor="middle" x="1182" y="-423.3" font-family="Times,serif" font-size="14.00">value = &#39;&#39; = &#39;&#39; (61)</text>
</g>
<!-- node0x503000000460&#45;&gt;node0x503000000430 -->
<g id="edge19" class="edge">
<title>node0x503000000460&#45;&gt;node0x503000000430</title>
<path fill="none" stroke="black" d="M1182,-498.37C1182,-490.15 1182,-480.66 1182,-471.73"/>
<polygon fill="black" stroke="black" points="1185.5,-471.61 1182,-461.61 1178.5,-471.61 1185.5,-471.61"/>
</g>
<!-- node0x503000000670 -->
<g id="node21" class="node">
<title>node0x503000000670</title>
<path fill="#e0e0e0" stroke="black" d="M1363.5,-415.5C1363.5,-415.5 1536.5,-415.5 1536.5,-415.5 1542.5,-415.5 1548.5,-421.5 1548.5,-427.5 1548.5,-427.5 1548.5,-449.5 1548.5,-449.5 1548.5,-455.5 1542.5,-461.5 1536.5,-461.5 1536.5,-461.5 1363.5,-461.5 1363.5,-461.5 1357.5,-461.5 1351.5,-455.5 1351.5,-449.5 1351.5,-449.5 1351.5,-427.5 1351.5,-427.5 1351.5,-421.5 1357.5,-415.5 1363.5,-415.5"/>
<text text-anchor="middle" x="1450" y="-446.3" font-family="Times,serif" font-size="14.00">type = 2 (OP)</text>
<polyline fill="none" stroke="black" points="1351.5,-438.5 1548.5,-438.5 "/>
<text text-anchor="middle" x="1450" y="-423.3" font-family="Times,serif" font-size="14.00">value = &#39;&#39; SHUTUP &#39;&#39; (59)</text>
</g>
<!-- node0x503000000460&#45;&gt;node0x503000000670 -->
<g id="edge20" class="edge">
<title>node0x503000000460&#45;&gt;node0x503000000670</title>
<path fill="none" stroke="black" d="M1254.88,-498.47C1289.59,-487.98 1331.27,-475.39 1367.17,-464.53"/>
<polygon fill="black" stroke="black" points="1368.58,-467.77 1377.14,-461.52 1366.55,-461.07 1368.58,-467.77"/>
</g>
<!-- node0x503000000250 -->
<g id="node18" class="node">
<title>node0x503000000250</title>
<path fill="#2ee31e" stroke="black" d="M347,-332.5C347,-332.5 493,-332.5 493,-332.5 499,-332.5 505,-338.5 505,-344.5 505,-344.5 505,-366.5 505,-366.5 505,-372.5 499,-378.5 493,-378.5 493,-378.5 347,-378.5 347,-378.5 341,-378.5 335,-372.5 335,-366.5 335,-366.5 335,-344.5 335,-344.5 335,-338.5 341,-332.5 347,-332.5"/>
<text text-anchor="middle" x="420" y="-363.3" font-family="Times,serif" font-size="14.00">type = 4 (FUNC)</text>
<polyline fill="none" stroke="black" points="335,-355.5 505,-355.5 "/>
<text text-anchor="middle" x="420" y="-340.3" font-family="Times,serif" font-size="14.00">value = &#39;&#39; Jump &#39;&#39; (23)</text>
</g>
<!-- node0x5030000002b0&#45;&gt;node0x503000000250 -->
<g id="edge17" class="edge">
<title>node0x5030000002b0&#45;&gt;node0x503000000250</title>
<path fill="none" stroke="black" d="M604.2,-415.47C571.57,-405.03 532.43,-392.49 498.63,-381.67"/>
<polygon fill="black" stroke="black" points="499.38,-378.24 488.79,-378.52 497.24,-384.9 499.38,-378.24"/>
</g>
<!-- node0x503000000280 -->
<g id="node19" class="node">
<title>node0x503000000280</title>
<path fill="#ff5050" stroke="black" d="M535.5,-332.5C535.5,-332.5 810.5,-332.5 810.5,-332.5 816.5,-332.5 822.5,-338.5 822.5,-344.5 822.5,-344.5 822.5,-366.5 822.5,-366.5 822.5,-372.5 816.5,-378.5 810.5,-378.5 810.5,-378.5 535.5,-378.5 535.5,-378.5 529.5,-378.5 523.5,-372.5 523.5,-366.5 523.5,-366.5 523.5,-344.5 523.5,-344.5 523.5,-338.5 529.5,-332.5 535.5,-332.5"/>
<text text-anchor="middle" x="673" y="-363.3" font-family="Times,serif" font-size="14.00">type = 3 (ID)</text>
<polyline fill="none" stroke="black" points="523.5,-355.5 822.5,-355.5 "/>
<text text-anchor="middle" x="673" y="-340.3" font-family="Times,serif" font-size="14.00">number of name in name table = &#39;&#39; 22 &#39;&#39;</text>
</g>
<!-- node0x5030000002b0&#45;&gt;node0x503000000280 -->
<g id="edge18" class="edge">
<title>node0x5030000002b0&#45;&gt;node0x503000000280</title>
<path fill="none" stroke="black" d="M673,-415.37C673,-407.15 673,-397.66 673,-388.73"/>
<polygon fill="black" stroke="black" points="676.5,-388.61 673,-378.61 669.5,-388.61 676.5,-388.61"/>
</g>
<!-- node0x503000000370 -->
<g id="node22" class="node">
<title>node0x503000000370</title>
<path fill="#ff5050" stroke="black" d="M852.5,-332.5C852.5,-332.5 1127.5,-332.5 1127.5,-332.5 1133.5,-332.5 1139.5,-338.5 1139.5,-344.5 1139.5,-344.5 1139.5,-366.5 1139.5,-366.5 1139.5,-372.5 1133.5,-378.5 1127.5,-378.5 1127.5,-378.5 852.5,-378.5 852.5,-378.5 846.5,-378.5 840.5,-372.5 840.5,-366.5 840.5,-366.5 840.5,-344.5 840.5,-344.5 840.5,-338.5 846.5,-332.5 852.5,-332.5"/>
<text text-anchor="middle" x="990" y="-363.3" font-family="Times,serif" font-size="14.00">type = 3 (ID)</text>
<polyline fill="none" stroke="black" points="840.5,-355.5 1139.5,-355.5 "/>
<text text-anchor="middle" x="990" y="-340.3" font-family="Times,serif" font-size="14.00">number of name in name table = &#39;&#39; 22 &#39;&#39;</text>
</g>
<!-- node0x503000000430&#45;&gt;node0x503000000370 -->
<g id="edge21" class="edge">
<title>node0x503000000430&#45;&gt;node0x503000000370</title>
<path fill="none" stroke="black" d="M1129.79,-415.47C1105.66,-405.3 1076.85,-393.14 1051.66,-382.51"/>
<polygon fill="black" stroke="black" points="1052.77,-379.18 1042.2,-378.52 1050.05,-385.63 1052.77,-379.18"/>
</g>
<!-- node0x503000000400 -->
<g id="node23" class="node">
<title>node0x503000000400</title>
<path fill="#00ffdd" stroke="black" d="M1169.5,-332.5C1169.5,-332.5 1310.5,-332.5 1310.5,-332.5 1316.5,-332.5 1322.5,-338.5 1322.5,-344.5 1322.5,-344.5 1322.5,-366.5 1322.5,-366.5 1322.5,-372.5 1316.5,-378.5 1310.5,-378.5 1310.5,-378.5 1169.5,-378.5 1169.5,-378.5 1163.5,-378.5 1157.5,-372.5 1157.5,-366.5 1157.5,-366.5 1157.5,-344.5 1157.5,-344.5 1157.5,-338.5 1163.5,-332.5 1169.5,-332.5"/>
<text text-anchor="middle" x="1240" y="-363.3" font-family="Times,serif" font-size="14.00">type = 2 (OP)</text>
<polyline fill="none" stroke="black" points="1157.5,-355.5 1322.5,-355.5 "/>
<text text-anchor="middle" x="1240" y="-340.3" font-family="Times,serif" font-size="14.00">value = &#39;&#39; SUB &#39;&#39; (45)</text>
</g>
<!-- node0x503000000430&#45;&gt;node0x503000000400 -->
<g id="edge22" class="edge">
<title>node0x503000000430&#45;&gt;node0x503000000400</title>
<path fill="none" stroke="black" d="M1197.85,-415.37C1204.11,-406.62 1211.42,-396.41 1218.17,-386.99"/>
<polygon fill="black" stroke="black" points="1221.19,-388.78 1224.17,-378.61 1215.5,-384.7 1221.19,-388.78"/>
</g>
<!-- node0x503000000640 -->
<g id="node26" class="node">
<title>node0x503000000640</title>
<path fill="#68f29d" stroke="black" d="M1395.5,-332.5C1395.5,-332.5 1584.5,-332.5 1584.5,-332.5 1590.5,-332.5 1596.5,-338.5 1596.5,-344.5 1596.5,-344.5 1596.5,-366.5 1596.5,-366.5 1596.5,-372.5 1590.5,-378.5 1584.5,-378.5 1584.5,-378.5 1395.5,-378.5 1395.5,-378.5 1389.5,-378.5 1383.5,-372.5 1383.5,-366.5 1383.5,-366.5 1383.5,-344.5 1383.5,-344.5 1383.5,-338.5 1389.5,-332.5 1395.5,-332.5"/>
<text text-anchor="middle" x="1490" y="-363.3" font-family="Times,serif" font-size="14.00">type = 2 (OP)</text>
<polyline fill="none" stroke="black" points="1383.5,-355.5 1596.5,-355.5 "/>
<text text-anchor="middle" x="1490" y="-340.3" font-family="Times,serif" font-size="14.00">value = &#39;&#39; FORREAL &#39;&#39; (105)</text>
</g>
<!-- node0x503000000670&#45;&gt;node0x503000000640 -->
<g id="edge25" class="edge">
<title>node0x503000000670&#45;&gt;node0x503000000640</title>
<path fill="none" stroke="black" d="M1460.93,-415.37C1465.12,-406.88 1469.98,-397.04 1474.52,-387.85"/>
<polygon fill="black" stroke="black" points="1477.79,-389.12 1479.08,-378.61 1471.52,-386.02 1477.79,-389.12"/>
</g>
<!-- node0x5030000003a0 -->
<g id="node24" class="node">
<title>node0x5030000003a0</title>
<path fill="#ff5050" stroke="black" d="M785.5,-249.5C785.5,-249.5 1060.5,-249.5 1060.5,-249.5 1066.5,-249.5 1072.5,-255.5 1072.5,-261.5 1072.5,-261.5 1072.5,-283.5 1072.5,-283.5 1072.5,-289.5 1066.5,-295.5 1060.5,-295.5 1060.5,-295.5 785.5,-295.5 785.5,-295.5 779.5,-295.5 773.5,-289.5 773.5,-283.5 773.5,-283.5 773.5,-261.5 773.5,-261.5 773.5,-255.5 779.5,-249.5 785.5,-249.5"/>
<text text-anchor="middle" x="923" y="-280.3" font-family="Times,serif" font-size="14.00">type = 3 (ID)</text>
<polyline fill="none" stroke="black" points="773.5,-272.5 1072.5,-272.5 "/>
<text text-anchor="middle" x="923" y="-257.3" font-family="Times,serif" font-size="14.00">number of name in name table = &#39;&#39; 22 &#39;&#39;</text>
</g>
<!-- node0x503000000400&#45;&gt;node0x5030000003a0 -->
<g id="edge23" class="edge">
<title>node0x503000000400&#45;&gt;node0x5030000003a0</title>
<path fill="none" stroke="black" d="M1157.13,-333.32C1114.83,-322.52 1063.15,-309.31 1019.11,-298.06"/>
<polygon fill="black" stroke="black" points="1019.82,-294.63 1009.26,-295.54 1018.08,-301.41 1019.82,-294.63"/>
</g>
<!-- node0x5030000003d0 -->
<g id="node25" class="node">
<title>node0x5030000003d0</title>
<path fill="#ff5050" stroke="black" d="M1102.5,-249.5C1102.5,-249.5 1377.5,-249.5 1377.5,-249.5 1383.5,-249.5 1389.5,-255.5 1389.5,-261.5 1389.5,-261.5 1389.5,-283.5 1389.5,-283.5 1389.5,-289.5 1383.5,-295.5 1377.5,-295.5 1377.5,-295.5 1102.5,-295.5 1102.5,-295.5 1096.5,-295.5 1090.5,-289.5 1090.5,-283.5 1090.5,-283.5 1090.5,-261.5 1090.5,-261.5 1090.5,-255.5 1096.5,-249.5 1102.5,-249.5"/>
<text text-anchor="middle" x="1240" y="-280.3" font-family="Times,serif" font-size="14.00">type = 3 (ID)</text>
<polyline fill="none" stroke="black" points="1090.5,-272.5 1389.5,-272.5 "/>
<text text-anchor="middle" x="1240" y="-257.3" font-family="Times,serif" font-size="14.00">number of name in name table = &#39;&#39; 21 &#39;&#39;</text>
</g>
<!-- node0x503000000400&#45;&gt;node0x5030000003d0 -->
<g id="edge24" class="edge">
<title>node0x503000000400&#45;&gt;node0x5030000003d0</title>
<path fill="none" stroke="black" d="M1240,-332.37C1240,-324.15 1240,-314.66 1240,-305.73"/>
<polygon fill="black" stroke="black" points="1243.5,-305.61 1240,-295.61 1236.5,-305.61 1243.5,-305.61"/>
</g>
<!-- node0x5030000004f0 -->
<g id="node27" class="node">
<title>node0x5030000004f0</title>
<path fill="#00ffdd" stroke="black" d="M1419.5,-249.5C1419.5,-249.5 1560.5,-249.5 1560.5,-249.5 1566.5,-249.5 1572.5,-255.5 1572.5,-261.5 1572.5,-261.5 1572.5,-283.5 1572.5,-283.5 1572.5,-289.5 1566.5,-295.5 1560.5,-295.5 1560.5,-295.5 1419.5,-295.5 1419.5,-295.5 1413.5,-295.5 1407.5,-289.5 1407.5,-283.5 1407.5,-283.5 1407.5,-261.5 1407.5,-261.5 1407.5,-255.5 1413.5,-249.5 1419.5,-249.5"/>
<text text-anchor="middle" x="1490" y="-280.3" font-family="Times,serif" font-size="14.00">type = 2 (OP)</text>
<polyline fill="none" stroke="black" points="1407.5,-272.5 1572.5,-272.5 "/>
<text text-anchor="middle" x="1490" y="-257.3" font-family="Times,serif" font-size="14.00">value = &#39;&#39; SUB &#39;&#39; (45)</text>
</g>
<!-- node0x503000000640&#45;&gt;node0x5030000004f0 -->
<g id="edge26" class="edge">
<title>node0x503000000640&#45;&gt;node0x5030000004f0</title>
<path fill="none" stroke="black" d="M1490,-332.37C1490,-324.15 1490,-314.66 1490,-305.73"/>
<polygon fill="black" stroke="black" points="1493.5,-305.61 1490,-295.61 1486.5,-305.61 1493.5,-305.61"/>
</g>
<!-- node0x503000000610 -->
<g id="node28" class="node">
<title>node0x503000000610</title>
<path fill="#e0e0e0" stroke="black" d="M1602.5,-249.5C1602.5,-249.5 1775.5,-249.5 1775.5,-249.5 1781.5,-249.5 1787.5,-255.5 1787.5,-261.5 1787.5,-261.5 1787.5,-283.5 1787.5,-283.5 1787.5,-289.5 1781.5,-295.5 1775.5,-295.5 1775.5,-295.5 1602.5,-295.5 1602.5,-295.5 1596.5,-295.5 1590.5,-289.5 1590.5,-283.5 1590.5,-283.5 1590.5,-261.5 1590.5,-261.5 1590.5,-255.5 1596.5,-249.5 1602.5,-249.5"/>
<text text-anchor="middle" x="1689" y="-280.3" font-family="Times,serif" font-size="14.00">type = 2 (OP)</text>
<polyline fill="none" stroke="black" points="1590.5,-272.5 1787.5,-272.5 "/>
<text text-anchor="middle" x="1689" y="-257.3" font-family="Times,serif" font-size="14.00">value = &#39;&#39; SHUTUP &#39;&#39; (59)</text>
</g>
<!-- node0x503000000640&#45;&gt;node0x503000000610 -->
<g id="edge27" class="edge">
<title>node0x503000000640&#45;&gt;node0x503000000610</title>
<path fill="none" stroke="black" d="M1544.11,-332.47C1569.23,-322.25 1599.25,-310.03 1625.44,-299.37"/>
<polygon fill="black" stroke="black" points="1626.95,-302.53 1634.9,-295.52 1624.31,-296.05 1626.95,-302.53"/>
</g>
<!-- node0x503000000490 -->
<g id="node29" class="node">
<title>node0x503000000490</title>
<path fill="#ff5050" stroke="black" d="M1141.5,-166.5C1141.5,-166.5 1416.5,-166.5 1416.5,-166.5 1422.5,-166.5 1428.5,-172.5 1428.5,-178.5 1428.5,-178.5 1428.5,-200.5 1428.5,-200.5 1428.5,-206.5 1422.5,-212.5 1416.5,-212.5 1416.5,-212.5 1141.5,-212.5 1141.5,-212.5 1135.5,-212.5 1129.5,-206.5 1129.5,-200.5 1129.5,-200.5 1129.5,-178.5 1129.5,-178.5 1129.5,-172.5 1135.5,-166.5 1141.5,-166.5"/>
<text text-anchor="middle" x="1279" y="-197.3" font-family="Times,serif" font-size="14.00">type = 3 (ID)</text>
<polyline fill="none" stroke="black" points="1129.5,-189.5 1428.5,-189.5 "/>
<text text-anchor="middle" x="1279" y="-174.3" font-family="Times,serif" font-size="14.00">number of name in name table = &#39;&#39; 21 &#39;&#39;</text>
</g>
<!-- node0x5030000004f0&#45;&gt;node0x503000000490 -->
<g id="edge28" class="edge">
<title>node0x5030000004f0&#45;&gt;node0x503000000490</title>
<path fill="none" stroke="black" d="M1432.62,-249.47C1405.88,-239.21 1373.88,-226.92 1346.03,-216.23"/>
<polygon fill="black" stroke="black" points="1346.96,-212.84 1336.37,-212.52 1344.45,-219.37 1346.96,-212.84"/>
</g>
<!-- node0x5030000004c0 -->
<g id="node30" class="node">
<title>node0x5030000004c0</title>
<path fill="#ffd700" stroke="black" d="M1458.5,-166.5C1458.5,-166.5 1565.5,-166.5 1565.5,-166.5 1571.5,-166.5 1577.5,-172.5 1577.5,-178.5 1577.5,-178.5 1577.5,-200.5 1577.5,-200.5 1577.5,-206.5 1571.5,-212.5 1565.5,-212.5 1565.5,-212.5 1458.5,-212.5 1458.5,-212.5 1452.5,-212.5 1446.5,-206.5 1446.5,-200.5 1446.5,-200.5 1446.5,-178.5 1446.5,-178.5 1446.5,-172.5 1452.5,-166.5 1458.5,-166.5"/>
<text text-anchor="middle" x="1512" y="-197.3" font-family="Times,serif" font-size="14.00">type = 1 (NUM)</text>
<polyline fill="none" stroke="black" points="1446.5,-189.5 1577.5,-189.5 "/>
<text text-anchor="middle" x="1512" y="-174.3" font-family="Times,serif" font-size="14.00">value = &#39;&#39; 14 &#39;&#39;</text>
</g>
<!-- node0x5030000004f0&#45;&gt;node0x5030000004c0 -->
<g id="edge29" class="edge">
<title>node0x5030000004f0&#45;&gt;node0x5030000004c0</title>
<path fill="none" stroke="black" d="M1496.01,-249.37C1498.27,-241.06 1500.88,-231.45 1503.33,-222.43"/>
<polygon fill="black" stroke="black" points="1506.75,-223.17 1506,-212.61 1500,-221.34 1506.75,-223.17"/>
</g>
<!-- node0x5030000005e0 -->
<g id="node31" class="node">
<title>node0x5030000005e0</title>
<path fill="#00ffdd" stroke="black" d="M1628.5,-166.5C1628.5,-166.5 1749.5,-166.5 1749.5,-166.5 1755.5,-166.5 1761.5,-172.5 1761.5,-178.5 1761.5,-178.5 1761.5,-200.5 1761.5,-200.5 1761.5,-206.5 1755.5,-212.5 1749.5,-212.5 1749.5,-212.5 1628.5,-212.5 1628.5,-212.5 1622.5,-212.5 1616.5,-206.5 1616.5,-200.5 1616.5,-200.5 1616.5,-178.5 1616.5,-178.5 1616.5,-172.5 1622.5,-166.5 1628.5,-166.5"/>
<text text-anchor="middle" x="1689" y="-197.3" font-family="Times,serif" font-size="14.00">type = 2 (OP)</text>
<polyline fill="none" stroke="black" points="1616.5,-189.5 1761.5,-189.5 "/>
<text text-anchor="middle" x="1689" y="-174.3" font-family="Times,serif" font-size="14.00">value = &#39;&#39; = &#39;&#39; (61)</text>
</g>
<!-- node0x503000000610&#45;&gt;node0x5030000005e0 -->
<g id="edge30" class="edge">
<title>node0x503000000610&#45;&gt;node0x5030000005e0</title>
<path fill="none" stroke="black" d="M1689,-249.37C1689,-241.15 1689,-231.66 1689,-222.73"/>
<polygon fill="black" stroke="black" points="1692.5,-222.61 1689,-212.61 1685.5,-222.61 1692.5,-222.61"/>
</g>
<!-- node0x503000000520 -->
<g id="node32" class="node">
<title>node0x503000000520</title>
<path fill="#ff5050" stroke="black" d="M1426.5,-83.5C1426.5,-83.5 1701.5,-83.5 1701.5,-83.5 1707.5,-83.5 1713.5,-89.5 1713.5,-95.5 1713.5,-95.5 1713.5,-117.5 1713.5,-117.5 1713.5,-123.5 1707.5,-129.5 1701.5,-129.5 1701.5,-129.5 1426.5,-129.5 1426.5,-129.5 1420.5,-129.5 1414.5,-123.5 1414.5,-117.5 1414.5,-117.5 1414.5,-95.5 1414.5,-95.5 1414.5,-89.5 1420.5,-83.5 1426.5,-83.5"/>
<text text-anchor="middle" x="1564" y="-114.3" font-family="Times,serif" font-size="14.00">type = 3 (ID)</text>
<polyline fill="none" stroke="black" points="1414.5,-106.5 1713.5,-106.5 "/>
<text text-anchor="middle" x="1564" y="-91.3" font-family="Times,serif" font-size="14.00">number of name in name table = &#39;&#39; 21 &#39;&#39;</text>
</g>
<!-- node0x5030000005e0&#45;&gt;node0x503000000520 -->
<g id="edge31" class="edge">
<title>node0x5030000005e0&#45;&gt;node0x503000000520</title>
<path fill="none" stroke="black" d="M1654.84,-166.37C1639.96,-156.72 1622.36,-145.32 1606.63,-135.13"/>
<polygon fill="black" stroke="black" points="1608.41,-132.11 1598.12,-129.61 1604.6,-137.98 1608.41,-132.11"/>
</g>
<!-- node0x5030000005b0 -->
<g id="node33" class="node">
<title>node0x5030000005b0</title>
<path fill="#00ffdd" stroke="black" d="M1743.5,-83.5C1743.5,-83.5 1884.5,-83.5 1884.5,-83.5 1890.5,-83.5 1896.5,-89.5 1896.5,-95.5 1896.5,-95.5 1896.5,-117.5 1896.5,-117.5 1896.5,-123.5 1890.5,-129.5 1884.5,-129.5 1884.5,-129.5 1743.5,-129.5 1743.5,-129.5 1737.5,-129.5 1731.5,-123.5 1731.5,-117.5 1731.5,-117.5 1731.5,-95.5 1731.5,-95.5 1731.5,-89.5 1737.5,-83.5 1743.5,-83.5"/>
<text text-anchor="middle" x="1814" y="-114.3" font-family="Times,serif" font-size="14.00">type = 2 (OP)</text>
<polyline fill="none" stroke="black" points="1731.5,-106.5 1896.5,-106.5 "/>
<text text-anchor="middle" x="1814" y="-91.3" font-family="Times,serif" font-size="14.00">value = &#39;&#39; SUB &#39;&#39; (45)</text>
</g>
<!-- node0x5030000005e0&#45;&gt;node0x5030000005b0 -->
<g id="edge32" class="edge">
<title>node0x5030000005e0&#45;&gt;node0x5030000005b0</title>
<path fill="none" stroke="black" d="M1723.16,-166.37C1738.04,-156.72 1755.64,-145.32 1771.37,-135.13"/>
<polygon fill="black" stroke="black" points="1773.4,-137.98 1779.88,-129.61 1769.59,-132.11 1773.4,-137.98"/>
</g>
<!-- node0x503000000550 -->
<g id="node34" class="node">
<title>node0x503000000550</title>
<path fill="#ff5050" stroke="black" d="M1559.5,-0.5C1559.5,-0.5 1834.5,-0.5 1834.5,-0.5 1840.5,-0.5 1846.5,-6.5 1846.5,-12.5 1846.5,-12.5 1846.5,-34.5 1846.5,-34.5 1846.5,-40.5 1840.5,-46.5 1834.5,-46.5 1834.5,-46.5 1559.5,-46.5 1559.5,-46.5 1553.5,-46.5 1547.5,-40.5 1547.5,-34.5 1547.5,-34.5 1547.5,-12.5 1547.5,-12.5 1547.5,-6.5 1553.5,-0.5 1559.5,-0.5"/>
<text text-anchor="middle" x="1697" y="-31.3" font-family="Times,serif" font-size="14.00">type = 3 (ID)</text>
<polyline fill="none" stroke="black" points="1547.5,-23.5 1846.5,-23.5 "/>
<text text-anchor="middle" x="1697" y="-8.3" font-family="Times,serif" font-size="14.00">number of name in name table = &#39;&#39; 21 &#39;&#39;</text>
</g>
<!-- node0x5030000005b0&#45;&gt;node0x503000000550 -->
<g id="edge33" class="edge">
<title>node0x5030000005b0&#45;&gt;node0x503000000550</title>
<path fill="none" stroke="black" d="M1782.03,-83.37C1768.23,-73.81 1751.93,-62.53 1737.31,-52.41"/>
<polygon fill="black" stroke="black" points="1739.15,-49.42 1728.93,-46.61 1735.16,-55.18 1739.15,-49.42"/>
</g>
<!-- node0x503000000580 -->
<g id="node35" class="node">
<title>node0x503000000580</title>
<path fill="#ffd700" stroke="black" d="M1876.5,-0.5C1876.5,-0.5 1983.5,-0.5 1983.5,-0.5 1989.5,-0.5 1995.5,-6.5 1995.5,-12.5 1995.5,-12.5 1995.5,-34.5 1995.5,-34.5 1995.5,-40.5 1989.5,-46.5 1983.5,-46.5 1983.5,-46.5 1876.5,-46.5 1876.5,-46.5 1870.5,-46.5 1864.5,-40.5 1864.5,-34.5 1864.5,-34.5 1864.5,-12.5 1864.5,-12.5 1864.5,-6.5 1870.5,-0.5 1876.5,-0.5"/>
<text text-anchor="middle" x="1930" y="-31.3" font-family="Times,serif" font-size="14.00">type = 1 (NUM)</text>
<polyline fill="none" stroke="black" points="1864.5,-23.5 1995.5,-23.5 "/>
<text text-anchor="middle" x="1930" y="-8.3" font-family="Times,serif" font-size="14.00">value = &#39;&#39; 2 &#39;&#39;</text>
</g>
<!-- node0x5030000005b0&#45;&gt;node0x503000000580 -->
<g id="edge34" class="edge">
<title>node0x5030000005b0&#45;&gt;node0x503000000580</title>
<path fill="none" stroke="black" d="M1845.7,-83.37C1859.38,-73.81 1875.54,-62.53 1890.03,-52.41"/>
<polygon fill="black" stroke="black" points="1892.15,-55.2 1898.34,-46.61 1888.14,-49.46 1892.15,-55.2"/>
</g>
</g>
</svg>
