<?xml version="1.0" encoding="UTF-8" standalone="no"?>
<!DOCTYPE svg PUBLIC "-//W3C//DTD SVG 1.1//EN"
 "http://www.w3.org/Graphics/SVG/1.1/DTD/svg11.dtd">
<!-- Generated by graphviz version 2.43.0 (0)
 -->
<!-- Title: %3 Pages: 1 -->
<svg width="538pt" height="359pt"
 viewBox="0.00 0.00 538.00 359.00" xmlns="http://www.w3.org/2000/svg" xmlns:xlink="http://www.w3.org/1999/xlink">
<g id="graph0" class="graph" transform="scale(1 1) rotate(0) translate(4 355)">
<title>%3</title>
<!-- node0x5030000000d0 -->
<g id="node1" class="node">
<title>node0x5030000000d0</title>
<path fill="#e0e0e0" stroke="black" d="M144,-258.5C144,-258.5 429,-258.5 429,-258.5 435,-258.5 441,-264.5 441,-270.5 441,-270.5 441,-338.5 441,-338.5 441,-344.5 435,-350.5 429,-350.5 429,-350.5 144,-350.5 144,-350.5 138,-350.5 132,-344.5 132,-338.5 132,-338.5 132,-270.5 132,-270.5 132,-264.5 138,-258.5 144,-258.5"/>
<text text-anchor="middle" x="286.5" y="-335.3" font-family="Times,serif" font-size="14.00">[0x5030000000d0]</text>
<polyline fill="none" stroke="black" points="132,-327.5 441,-327.5 "/>
<text text-anchor="middle" x="286.5" y="-312.3" font-family="Times,serif" font-size="14.00">type = 2 (OP)</text>
<polyline fill="none" stroke="black" points="132,-304.5 441,-304.5 "/>
<text text-anchor="middle" x="286.5" y="-289.3" font-family="Times,serif" font-size="14.00">value = &#39;&#39; SHUTUP &#39;&#39; (59)</text>
<polyline fill="none" stroke="black" points="132,-281.5 441,-281.5 "/>
<text text-anchor="middle" x="230.5" y="-266.3" font-family="Times,serif" font-size="14.00">left = [0x5030000000a0]</text>
<polyline fill="none" stroke="black" points="329,-258.5 329,-281.5 "/>
<text text-anchor="middle" x="385" y="-266.3" font-family="Times,serif" font-size="14.00">right = [(nil)]</text>
</g>
<!-- node0x5030000000a0 -->
<g id="node2" class="node">
<title>node0x5030000000a0</title>
<path fill="#50b2aa" stroke="black" d="M95.5,-129.5C95.5,-129.5 477.5,-129.5 477.5,-129.5 483.5,-129.5 489.5,-135.5 489.5,-141.5 489.5,-141.5 489.5,-209.5 489.5,-209.5 489.5,-215.5 483.5,-221.5 477.5,-221.5 477.5,-221.5 95.5,-221.5 95.5,-221.5 89.5,-221.5 83.5,-215.5 83.5,-209.5 83.5,-209.5 83.5,-141.5 83.5,-141.5 83.5,-135.5 89.5,-129.5 95.5,-129.5"/>
<text text-anchor="middle" x="286.5" y="-206.3" font-family="Times,serif" font-size="14.00">[0x5030000000a0]</text>
<polyline fill="none" stroke="black" points="83.5,-198.5 489.5,-198.5 "/>
<text text-anchor="middle" x="286.5" y="-183.3" font-family="Times,serif" font-size="14.00">type = 2 (OP)</text>
<polyline fill="none" stroke="black" points="83.5,-175.5 489.5,-175.5 "/>
<text text-anchor="middle" x="286.5" y="-160.3" font-family="Times,serif" font-size="14.00">value = &#39;&#39; = &#39;&#39; (61)</text>
<polyline fill="none" stroke="black" points="83.5,-152.5 489.5,-152.5 "/>
<text text-anchor="middle" x="182" y="-137.3" font-family="Times,serif" font-size="14.00">left = [0x503000000040]</text>
<polyline fill="none" stroke="black" points="280.5,-129.5 280.5,-152.5 "/>
<text text-anchor="middle" x="385" y="-137.3" font-family="Times,serif" font-size="14.00">right = [0x503000000070]</text>
</g>
<!-- node0x5030000000d0&#45;&gt;node0x5030000000a0 -->
<g id="edge1" class="edge">
<title>node0x5030000000d0&#45;&gt;node0x5030000000a0</title>
<path fill="none" stroke="black" d="M286.5,-258.37C286.5,-249.86 286.5,-240.87 286.5,-232.09"/>
<polygon fill="black" stroke="black" points="290,-231.92 286.5,-221.92 283,-231.92 290,-231.92"/>
</g>
<!-- node0x503000000040 -->
<g id="node3" class="node">
<title>node0x503000000040</title>
<path fill="#ff5050" stroke="black" d="M12,-0.5C12,-0.5 287,-0.5 287,-0.5 293,-0.5 299,-6.5 299,-12.5 299,-12.5 299,-80.5 299,-80.5 299,-86.5 293,-92.5 287,-92.5 287,-92.5 12,-92.5 12,-92.5 6,-92.5 0,-86.5 0,-80.5 0,-80.5 0,-12.5 0,-12.5 0,-6.5 6,-0.5 12,-0.5"/>
<text text-anchor="middle" x="149.5" y="-77.3" font-family="Times,serif" font-size="14.00">[0x503000000040]</text>
<polyline fill="none" stroke="black" points="0,-69.5 299,-69.5 "/>
<text text-anchor="middle" x="149.5" y="-54.3" font-family="Times,serif" font-size="14.00">type = 3 (ID)</text>
<polyline fill="none" stroke="black" points="0,-46.5 299,-46.5 "/>
<text text-anchor="middle" x="149.5" y="-31.3" font-family="Times,serif" font-size="14.00">number of name in name table = &#39;&#39; 19 &#39;&#39;</text>
<polyline fill="none" stroke="black" points="0,-23.5 299,-23.5 "/>
<text text-anchor="middle" x="72" y="-8.3" font-family="Times,serif" font-size="14.00">left = [(nil)]</text>
<polyline fill="none" stroke="black" points="144,-0.5 144,-23.5 "/>
<text text-anchor="middle" x="221.5" y="-8.3" font-family="Times,serif" font-size="14.00">right = [(nil)]</text>
</g>
<!-- node0x5030000000a0&#45;&gt;node0x503000000040 -->
<g id="edge2" class="edge">
<title>node0x5030000000a0&#45;&gt;node0x503000000040</title>
<path fill="none" stroke="black" d="M237.81,-129.37C227.54,-119.84 216.62,-109.72 206.08,-99.95"/>
<polygon fill="black" stroke="black" points="208.2,-97.15 198.49,-92.92 203.45,-102.28 208.2,-97.15"/>
</g>
<!-- node0x503000000070 -->
<g id="node4" class="node">
<title>node0x503000000070</title>
<path fill="#ffd700" stroke="black" d="M329,-0.5C329,-0.5 518,-0.5 518,-0.5 524,-0.5 530,-6.5 530,-12.5 530,-12.5 530,-80.5 530,-80.5 530,-86.5 524,-92.5 518,-92.5 518,-92.5 329,-92.5 329,-92.5 323,-92.5 317,-86.5 317,-80.5 317,-80.5 317,-12.5 317,-12.5 317,-6.5 323,-0.5 329,-0.5"/>
<text text-anchor="middle" x="423.5" y="-77.3" font-family="Times,serif" font-size="14.00">[0x503000000070]</text>
<polyline fill="none" stroke="black" points="317,-69.5 530,-69.5 "/>
<text text-anchor="middle" x="423.5" y="-54.3" font-family="Times,serif" font-size="14.00">type = 1 (NUM)</text>
<polyline fill="none" stroke="black" points="317,-46.5 530,-46.5 "/>
<text text-anchor="middle" x="423.5" y="-31.3" font-family="Times,serif" font-size="14.00">value = &#39;&#39; 20 &#39;&#39;</text>
<polyline fill="none" stroke="black" points="317,-23.5 530,-23.5 "/>
<text text-anchor="middle" x="367.5" y="-8.3" font-family="Times,serif" font-size="14.00">left = [(nil)]</text>
<polyline fill="none" stroke="black" points="418,-0.5 418,-23.5 "/>
<text text-anchor="middle" x="474" y="-8.3" font-family="Times,serif" font-size="14.00">right = [(nil)]</text>
</g>
<!-- node0x5030000000a0&#45;&gt;node0x503000000070 -->
<g id="edge3" class="edge">
<title>node0x5030000000a0&#45;&gt;node0x503000000070</title>
<path fill="none" stroke="black" d="M335.19,-129.37C345.46,-119.84 356.38,-109.72 366.92,-99.95"/>
<polygon fill="black" stroke="black" points="369.55,-102.28 374.51,-92.92 364.8,-97.15 369.55,-102.28"/>
</g>
</g>
</svg>
