<?xml version="1.0" encoding="UTF-8" standalone="no"?>
<!DOCTYPE svg PUBLIC "-//W3C//DTD SVG 1.1//EN"
 "http://www.w3.org/Graphics/SVG/1.1/DTD/svg11.dtd">
<!-- Generated by graphviz version 2.43.0 (0)
 -->
<!-- Title: %3 Pages: 1 -->
<svg width="802pt" height="359pt"
 viewBox="0.00 0.00 802.00 359.00" xmlns="http://www.w3.org/2000/svg" xmlns:xlink="http://www.w3.org/1999/xlink">
<g id="graph0" class="graph" transform="scale(1 1) rotate(0) translate(4 355)">
<title>%3</title>
<!-- node0x503000000130 -->
<g id="node1" class="node">
<title>node0x503000000130</title>
<path fill="#20b2aa" stroke="black" d="M131,-258.5C131,-258.5 513,-258.5 513,-258.5 519,-258.5 525,-264.5 525,-270.5 525,-270.5 525,-338.5 525,-338.5 525,-344.5 519,-350.5 513,-350.5 513,-350.5 131,-350.5 131,-350.5 125,-350.5 119,-344.5 119,-338.5 119,-338.5 119,-270.5 119,-270.5 119,-264.5 125,-258.5 131,-258.5"/>
<text text-anchor="middle" x="322" y="-335.3" font-family="Times,serif" font-size="14.00">[0x503000000130]</text>
<polyline fill="none" stroke="black" points="119,-327.5 525,-327.5 "/>
<text text-anchor="middle" x="322" y="-312.3" font-family="Times,serif" font-size="14.00">type = 2 (OP)</text>
<polyline fill="none" stroke="black" points="119,-304.5 525,-304.5 "/>
<text text-anchor="middle" x="322" y="-289.3" font-family="Times,serif" font-size="14.00">value = &#39;=&#39;</text>
<polyline fill="none" stroke="black" points="119,-281.5 525,-281.5 "/>
<text text-anchor="middle" x="217.5" y="-266.3" font-family="Times,serif" font-size="14.00">left = [0x503000000070]</text>
<polyline fill="none" stroke="black" points="316,-258.5 316,-281.5 "/>
<text text-anchor="middle" x="420.5" y="-266.3" font-family="Times,serif" font-size="14.00">right = [0x503000000100]</text>
</g>
<!-- node0x503000000070 -->
<g id="node2" class="node">
<title>node0x503000000070</title>
<path fill="#f00000" stroke="black" d="M12,-129.5C12,-129.5 270,-129.5 270,-129.5 276,-129.5 282,-135.5 282,-141.5 282,-141.5 282,-209.5 282,-209.5 282,-215.5 276,-221.5 270,-221.5 270,-221.5 12,-221.5 12,-221.5 6,-221.5 0,-215.5 0,-209.5 0,-209.5 0,-141.5 0,-141.5 0,-135.5 6,-129.5 12,-129.5"/>
<text text-anchor="middle" x="141" y="-206.3" font-family="Times,serif" font-size="14.00">[0x503000000070]</text>
<polyline fill="none" stroke="black" points="0,-198.5 282,-198.5 "/>
<text text-anchor="middle" x="141" y="-183.3" font-family="Times,serif" font-size="14.00">type = 4 (ID)</text>
<polyline fill="none" stroke="black" points="0,-175.5 282,-175.5 "/>
<text text-anchor="middle" x="141" y="-160.3" font-family="Times,serif" font-size="14.00">number of name in name table = &#39;12&#39;</text>
<polyline fill="none" stroke="black" points="0,-152.5 282,-152.5 "/>
<text text-anchor="middle" x="67.5" y="-137.3" font-family="Times,serif" font-size="14.00">left = [(nil)]</text>
<polyline fill="none" stroke="black" points="135,-129.5 135,-152.5 "/>
<text text-anchor="middle" x="208.5" y="-137.3" font-family="Times,serif" font-size="14.00">right = [(nil)]</text>
</g>
<!-- node0x503000000130&#45;&gt;node0x503000000070 -->
<g id="edge1" class="edge">
<title>node0x503000000130&#45;&gt;node0x503000000070</title>
<path fill="none" stroke="black" d="M257.68,-258.37C243.49,-248.41 228.37,-237.8 213.87,-227.63"/>
<polygon fill="black" stroke="black" points="215.62,-224.58 205.42,-221.7 211.6,-230.31 215.62,-224.58"/>
</g>
<!-- node0x503000000100 -->
<g id="node3" class="node">
<title>node0x503000000100</title>
<path fill="#20b2aa" stroke="black" d="M312,-129.5C312,-129.5 694,-129.5 694,-129.5 700,-129.5 706,-135.5 706,-141.5 706,-141.5 706,-209.5 706,-209.5 706,-215.5 700,-221.5 694,-221.5 694,-221.5 312,-221.5 312,-221.5 306,-221.5 300,-215.5 300,-209.5 300,-209.5 300,-141.5 300,-141.5 300,-135.5 306,-129.5 312,-129.5"/>
<text text-anchor="middle" x="503" y="-206.3" font-family="Times,serif" font-size="14.00">[0x503000000100]</text>
<polyline fill="none" stroke="black" points="300,-198.5 706,-198.5 "/>
<text text-anchor="middle" x="503" y="-183.3" font-family="Times,serif" font-size="14.00">type = 2 (OP)</text>
<polyline fill="none" stroke="black" points="300,-175.5 706,-175.5 "/>
<text text-anchor="middle" x="503" y="-160.3" font-family="Times,serif" font-size="14.00">value = &#39;*&#39;</text>
<polyline fill="none" stroke="black" points="300,-152.5 706,-152.5 "/>
<text text-anchor="middle" x="398.5" y="-137.3" font-family="Times,serif" font-size="14.00">left = [0x5030000000a0]</text>
<polyline fill="none" stroke="black" points="497,-129.5 497,-152.5 "/>
<text text-anchor="middle" x="601.5" y="-137.3" font-family="Times,serif" font-size="14.00">right = [0x5030000000d0]</text>
</g>
<!-- node0x503000000130&#45;&gt;node0x503000000100 -->
<g id="edge2" class="edge">
<title>node0x503000000130&#45;&gt;node0x503000000100</title>
<path fill="none" stroke="black" d="M386.32,-258.37C400.51,-248.41 415.63,-237.8 430.13,-227.63"/>
<polygon fill="black" stroke="black" points="432.4,-230.31 438.58,-221.7 428.38,-224.58 432.4,-230.31"/>
</g>
<!-- node0x5030000000a0 -->
<g id="node4" class="node">
<title>node0x5030000000a0</title>
<path fill="#f00000" stroke="black" d="M224,-0.5C224,-0.5 482,-0.5 482,-0.5 488,-0.5 494,-6.5 494,-12.5 494,-12.5 494,-80.5 494,-80.5 494,-86.5 488,-92.5 482,-92.5 482,-92.5 224,-92.5 224,-92.5 218,-92.5 212,-86.5 212,-80.5 212,-80.5 212,-12.5 212,-12.5 212,-6.5 218,-0.5 224,-0.5"/>
<text text-anchor="middle" x="353" y="-77.3" font-family="Times,serif" font-size="14.00">[0x5030000000a0]</text>
<polyline fill="none" stroke="black" points="212,-69.5 494,-69.5 "/>
<text text-anchor="middle" x="353" y="-54.3" font-family="Times,serif" font-size="14.00">type = 4 (ID)</text>
<polyline fill="none" stroke="black" points="212,-46.5 494,-46.5 "/>
<text text-anchor="middle" x="353" y="-31.3" font-family="Times,serif" font-size="14.00">number of name in name table = &#39;13&#39;</text>
<polyline fill="none" stroke="black" points="212,-23.5 494,-23.5 "/>
<text text-anchor="middle" x="279.5" y="-8.3" font-family="Times,serif" font-size="14.00">left = [(nil)]</text>
<polyline fill="none" stroke="black" points="347,-0.5 347,-23.5 "/>
<text text-anchor="middle" x="420.5" y="-8.3" font-family="Times,serif" font-size="14.00">right = [(nil)]</text>
</g>
<!-- node0x503000000100&#45;&gt;node0x5030000000a0 -->
<g id="edge3" class="edge">
<title>node0x503000000100&#45;&gt;node0x5030000000a0</title>
<path fill="none" stroke="black" d="M449.69,-129.37C438.16,-119.6 425.87,-109.2 414.07,-99.2"/>
<polygon fill="black" stroke="black" points="416.28,-96.49 406.39,-92.7 411.76,-101.83 416.28,-96.49"/>
</g>
<!-- node0x5030000000d0 -->
<g id="node5" class="node">
<title>node0x5030000000d0</title>
<path fill="#f00000" stroke="black" d="M524,-0.5C524,-0.5 782,-0.5 782,-0.5 788,-0.5 794,-6.5 794,-12.5 794,-12.5 794,-80.5 794,-80.5 794,-86.5 788,-92.5 782,-92.5 782,-92.5 524,-92.5 524,-92.5 518,-92.5 512,-86.5 512,-80.5 512,-80.5 512,-12.5 512,-12.5 512,-6.5 518,-0.5 524,-0.5"/>
<text text-anchor="middle" x="653" y="-77.3" font-family="Times,serif" font-size="14.00">[0x5030000000d0]</text>
<polyline fill="none" stroke="black" points="512,-69.5 794,-69.5 "/>
<text text-anchor="middle" x="653" y="-54.3" font-family="Times,serif" font-size="14.00">type = 4 (ID)</text>
<polyline fill="none" stroke="black" points="512,-46.5 794,-46.5 "/>
<text text-anchor="middle" x="653" y="-31.3" font-family="Times,serif" font-size="14.00">number of name in name table = &#39;14&#39;</text>
<polyline fill="none" stroke="black" points="512,-23.5 794,-23.5 "/>
<text text-anchor="middle" x="579.5" y="-8.3" font-family="Times,serif" font-size="14.00">left = [(nil)]</text>
<polyline fill="none" stroke="black" points="647,-0.5 647,-23.5 "/>
<text text-anchor="middle" x="720.5" y="-8.3" font-family="Times,serif" font-size="14.00">right = [(nil)]</text>
</g>
<!-- node0x503000000100&#45;&gt;node0x5030000000d0 -->
<g id="edge4" class="edge">
<title>node0x503000000100&#45;&gt;node0x5030000000d0</title>
<path fill="none" stroke="black" d="M556.31,-129.37C567.84,-119.6 580.13,-109.2 591.93,-99.2"/>
<polygon fill="black" stroke="black" points="594.24,-101.83 599.61,-92.7 589.72,-96.49 594.24,-101.83"/>
</g>
</g>
</svg>
