<?xml version="1.0" encoding="UTF-8" standalone="no"?>
<!DOCTYPE svg PUBLIC "-//W3C//DTD SVG 1.1//EN"
 "http://www.w3.org/Graphics/SVG/1.1/DTD/svg11.dtd">
<!-- Generated by graphviz version 2.43.0 (0)
 -->
<!-- Title: %3 Pages: 1 -->
<svg width="1825pt" height="617pt"
 viewBox="0.00 0.00 1825.00 617.00" xmlns="http://www.w3.org/2000/svg" xmlns:xlink="http://www.w3.org/1999/xlink">
<g id="graph0" class="graph" transform="scale(1 1) rotate(0) translate(4 613)">
<title>%3</title>
<!-- node0x503000000280 -->
<g id="node1" class="node">
<title>node0x503000000280</title>
<path fill="#20b2aa" stroke="black" d="M403,-516.5C403,-516.5 785,-516.5 785,-516.5 791,-516.5 797,-522.5 797,-528.5 797,-528.5 797,-596.5 797,-596.5 797,-602.5 791,-608.5 785,-608.5 785,-608.5 403,-608.5 403,-608.5 397,-608.5 391,-602.5 391,-596.5 391,-596.5 391,-528.5 391,-528.5 391,-522.5 397,-516.5 403,-516.5"/>
<text text-anchor="middle" x="594" y="-593.3" font-family="Times,serif" font-size="14.00">[0x503000000280]</text>
<polyline fill="none" stroke="black" points="391,-585.5 797,-585.5 "/>
<text text-anchor="middle" x="594" y="-570.3" font-family="Times,serif" font-size="14.00">type = 2 (OP)</text>
<polyline fill="none" stroke="black" points="391,-562.5 797,-562.5 "/>
<text text-anchor="middle" x="594" y="-547.3" font-family="Times,serif" font-size="14.00">value = &#39;=&#39;</text>
<polyline fill="none" stroke="black" points="391,-539.5 797,-539.5 "/>
<text text-anchor="middle" x="489.5" y="-524.3" font-family="Times,serif" font-size="14.00">left = [0x5030000000a0]</text>
<polyline fill="none" stroke="black" points="588,-516.5 588,-539.5 "/>
<text text-anchor="middle" x="692.5" y="-524.3" font-family="Times,serif" font-size="14.00">right = [0x503000000250]</text>
</g>
<!-- node0x5030000000a0 -->
<g id="node2" class="node">
<title>node0x5030000000a0</title>
<path fill="#20b2aa" stroke="black" d="M191,-387.5C191,-387.5 573,-387.5 573,-387.5 579,-387.5 585,-393.5 585,-399.5 585,-399.5 585,-467.5 585,-467.5 585,-473.5 579,-479.5 573,-479.5 573,-479.5 191,-479.5 191,-479.5 185,-479.5 179,-473.5 179,-467.5 179,-467.5 179,-399.5 179,-399.5 179,-393.5 185,-387.5 191,-387.5"/>
<text text-anchor="middle" x="382" y="-464.3" font-family="Times,serif" font-size="14.00">[0x5030000000a0]</text>
<polyline fill="none" stroke="black" points="179,-456.5 585,-456.5 "/>
<text text-anchor="middle" x="382" y="-441.3" font-family="Times,serif" font-size="14.00">type = 2 (OP)</text>
<polyline fill="none" stroke="black" points="179,-433.5 585,-433.5 "/>
<text text-anchor="middle" x="382" y="-418.3" font-family="Times,serif" font-size="14.00">value = &#39;=&#39;</text>
<polyline fill="none" stroke="black" points="179,-410.5 585,-410.5 "/>
<text text-anchor="middle" x="277.5" y="-395.3" font-family="Times,serif" font-size="14.00">left = [0x503000000040]</text>
<polyline fill="none" stroke="black" points="376,-387.5 376,-410.5 "/>
<text text-anchor="middle" x="480.5" y="-395.3" font-family="Times,serif" font-size="14.00">right = [0x503000000070]</text>
</g>
<!-- node0x503000000280&#45;&gt;node0x5030000000a0 -->
<g id="edge1" class="edge">
<title>node0x503000000280&#45;&gt;node0x5030000000a0</title>
<path fill="none" stroke="black" d="M518.66,-516.37C501.73,-506.23 483.67,-495.41 466.4,-485.06"/>
<polygon fill="black" stroke="black" points="467.83,-481.84 457.45,-479.7 464.23,-487.84 467.83,-481.84"/>
</g>
<!-- node0x503000000250 -->
<g id="node3" class="node">
<title>node0x503000000250</title>
<path fill="#20b2aa" stroke="black" d="M615,-387.5C615,-387.5 997,-387.5 997,-387.5 1003,-387.5 1009,-393.5 1009,-399.5 1009,-399.5 1009,-467.5 1009,-467.5 1009,-473.5 1003,-479.5 997,-479.5 997,-479.5 615,-479.5 615,-479.5 609,-479.5 603,-473.5 603,-467.5 603,-467.5 603,-399.5 603,-399.5 603,-393.5 609,-387.5 615,-387.5"/>
<text text-anchor="middle" x="806" y="-464.3" font-family="Times,serif" font-size="14.00">[0x503000000250]</text>
<polyline fill="none" stroke="black" points="603,-456.5 1009,-456.5 "/>
<text text-anchor="middle" x="806" y="-441.3" font-family="Times,serif" font-size="14.00">type = 2 (OP)</text>
<polyline fill="none" stroke="black" points="603,-433.5 1009,-433.5 "/>
<text text-anchor="middle" x="806" y="-418.3" font-family="Times,serif" font-size="14.00">value = &#39;i&#39;</text>
<polyline fill="none" stroke="black" points="603,-410.5 1009,-410.5 "/>
<text text-anchor="middle" x="701.5" y="-395.3" font-family="Times,serif" font-size="14.00">left = [0x503000000130]</text>
<polyline fill="none" stroke="black" points="800,-387.5 800,-410.5 "/>
<text text-anchor="middle" x="904.5" y="-395.3" font-family="Times,serif" font-size="14.00">right = [0x503000000220]</text>
</g>
<!-- node0x503000000280&#45;&gt;node0x503000000250 -->
<g id="edge2" class="edge">
<title>node0x503000000280&#45;&gt;node0x503000000250</title>
<path fill="none" stroke="black" d="M669.34,-516.37C686.27,-506.23 704.33,-495.41 721.6,-485.06"/>
<polygon fill="black" stroke="black" points="723.77,-487.84 730.55,-479.7 720.17,-481.84 723.77,-487.84"/>
</g>
<!-- node0x503000000040 -->
<g id="node4" class="node">
<title>node0x503000000040</title>
<path fill="#f00000" stroke="black" d="M12,-258.5C12,-258.5 270,-258.5 270,-258.5 276,-258.5 282,-264.5 282,-270.5 282,-270.5 282,-338.5 282,-338.5 282,-344.5 276,-350.5 270,-350.5 270,-350.5 12,-350.5 12,-350.5 6,-350.5 0,-344.5 0,-338.5 0,-338.5 0,-270.5 0,-270.5 0,-264.5 6,-258.5 12,-258.5"/>
<text text-anchor="middle" x="141" y="-335.3" font-family="Times,serif" font-size="14.00">[0x503000000040]</text>
<polyline fill="none" stroke="black" points="0,-327.5 282,-327.5 "/>
<text text-anchor="middle" x="141" y="-312.3" font-family="Times,serif" font-size="14.00">type = 4 (ID)</text>
<polyline fill="none" stroke="black" points="0,-304.5 282,-304.5 "/>
<text text-anchor="middle" x="141" y="-289.3" font-family="Times,serif" font-size="14.00">number of name in name table = &#39;15&#39;</text>
<polyline fill="none" stroke="black" points="0,-281.5 282,-281.5 "/>
<text text-anchor="middle" x="67.5" y="-266.3" font-family="Times,serif" font-size="14.00">left = [(nil)]</text>
<polyline fill="none" stroke="black" points="135,-258.5 135,-281.5 "/>
<text text-anchor="middle" x="208.5" y="-266.3" font-family="Times,serif" font-size="14.00">right = [(nil)]</text>
</g>
<!-- node0x5030000000a0&#45;&gt;node0x503000000040 -->
<g id="edge3" class="edge">
<title>node0x5030000000a0&#45;&gt;node0x503000000040</title>
<path fill="none" stroke="black" d="M296.35,-387.37C276.76,-377.04 255.82,-366.01 235.87,-355.49"/>
<polygon fill="black" stroke="black" points="237.25,-352.27 226.78,-350.7 233.99,-358.46 237.25,-352.27"/>
</g>
<!-- node0x503000000070 -->
<g id="node5" class="node">
<title>node0x503000000070</title>
<path fill="#ffd700" stroke="black" d="M312.5,-258.5C312.5,-258.5 501.5,-258.5 501.5,-258.5 507.5,-258.5 513.5,-264.5 513.5,-270.5 513.5,-270.5 513.5,-338.5 513.5,-338.5 513.5,-344.5 507.5,-350.5 501.5,-350.5 501.5,-350.5 312.5,-350.5 312.5,-350.5 306.5,-350.5 300.5,-344.5 300.5,-338.5 300.5,-338.5 300.5,-270.5 300.5,-270.5 300.5,-264.5 306.5,-258.5 312.5,-258.5"/>
<text text-anchor="middle" x="407" y="-335.3" font-family="Times,serif" font-size="14.00">[0x503000000070]</text>
<polyline fill="none" stroke="black" points="300.5,-327.5 513.5,-327.5 "/>
<text text-anchor="middle" x="407" y="-312.3" font-family="Times,serif" font-size="14.00">type = 1 (NUM)</text>
<polyline fill="none" stroke="black" points="300.5,-304.5 513.5,-304.5 "/>
<text text-anchor="middle" x="407" y="-289.3" font-family="Times,serif" font-size="14.00">value = 5</text>
<polyline fill="none" stroke="black" points="300.5,-281.5 513.5,-281.5 "/>
<text text-anchor="middle" x="351" y="-266.3" font-family="Times,serif" font-size="14.00">left = [(nil)]</text>
<polyline fill="none" stroke="black" points="401.5,-258.5 401.5,-281.5 "/>
<text text-anchor="middle" x="457.5" y="-266.3" font-family="Times,serif" font-size="14.00">right = [(nil)]</text>
</g>
<!-- node0x5030000000a0&#45;&gt;node0x503000000070 -->
<g id="edge4" class="edge">
<title>node0x5030000000a0&#45;&gt;node0x503000000070</title>
<path fill="none" stroke="black" d="M390.88,-387.37C392.58,-378.77 394.37,-369.68 396.11,-360.8"/>
<polygon fill="black" stroke="black" points="399.56,-361.4 398.06,-350.92 392.69,-360.05 399.56,-361.4"/>
</g>
<!-- node0x503000000130 -->
<g id="node6" class="node">
<title>node0x503000000130</title>
<path fill="#20b2aa" stroke="black" d="M591,-258.5C591,-258.5 973,-258.5 973,-258.5 979,-258.5 985,-264.5 985,-270.5 985,-270.5 985,-338.5 985,-338.5 985,-344.5 979,-350.5 973,-350.5 973,-350.5 591,-350.5 591,-350.5 585,-350.5 579,-344.5 579,-338.5 579,-338.5 579,-270.5 579,-270.5 579,-264.5 585,-258.5 591,-258.5"/>
<text text-anchor="middle" x="782" y="-335.3" font-family="Times,serif" font-size="14.00">[0x503000000130]</text>
<polyline fill="none" stroke="black" points="579,-327.5 985,-327.5 "/>
<text text-anchor="middle" x="782" y="-312.3" font-family="Times,serif" font-size="14.00">type = 2 (OP)</text>
<polyline fill="none" stroke="black" points="579,-304.5 985,-304.5 "/>
<text text-anchor="middle" x="782" y="-289.3" font-family="Times,serif" font-size="14.00">value = &#39;+&#39;</text>
<polyline fill="none" stroke="black" points="579,-281.5 985,-281.5 "/>
<text text-anchor="middle" x="677.5" y="-266.3" font-family="Times,serif" font-size="14.00">left = [0x5030000000d0]</text>
<polyline fill="none" stroke="black" points="776,-258.5 776,-281.5 "/>
<text text-anchor="middle" x="880.5" y="-266.3" font-family="Times,serif" font-size="14.00">right = [0x503000000100]</text>
</g>
<!-- node0x503000000250&#45;&gt;node0x503000000130 -->
<g id="edge5" class="edge">
<title>node0x503000000250&#45;&gt;node0x503000000130</title>
<path fill="none" stroke="black" d="M797.47,-387.37C795.85,-378.77 794.13,-369.68 792.45,-360.8"/>
<polygon fill="black" stroke="black" points="795.88,-360.09 790.58,-350.92 789,-361.39 795.88,-360.09"/>
</g>
<!-- node0x503000000220 -->
<g id="node7" class="node">
<title>node0x503000000220</title>
<path fill="#20b2aa" stroke="black" d="M1015,-258.5C1015,-258.5 1393,-258.5 1393,-258.5 1399,-258.5 1405,-264.5 1405,-270.5 1405,-270.5 1405,-338.5 1405,-338.5 1405,-344.5 1399,-350.5 1393,-350.5 1393,-350.5 1015,-350.5 1015,-350.5 1009,-350.5 1003,-344.5 1003,-338.5 1003,-338.5 1003,-270.5 1003,-270.5 1003,-264.5 1009,-258.5 1015,-258.5"/>
<text text-anchor="middle" x="1204" y="-335.3" font-family="Times,serif" font-size="14.00">[0x503000000220]</text>
<polyline fill="none" stroke="black" points="1003,-327.5 1405,-327.5 "/>
<text text-anchor="middle" x="1204" y="-312.3" font-family="Times,serif" font-size="14.00">type = 2 (OP)</text>
<polyline fill="none" stroke="black" points="1003,-304.5 1405,-304.5 "/>
<text text-anchor="middle" x="1204" y="-289.3" font-family="Times,serif" font-size="14.00">value = &#39;=&#39;</text>
<polyline fill="none" stroke="black" points="1003,-281.5 1405,-281.5 "/>
<text text-anchor="middle" x="1101.5" y="-266.3" font-family="Times,serif" font-size="14.00">left = [0x503000000160]</text>
<polyline fill="none" stroke="black" points="1200,-258.5 1200,-281.5 "/>
<text text-anchor="middle" x="1302.5" y="-266.3" font-family="Times,serif" font-size="14.00">right = [0x5030000001f0]</text>
</g>
<!-- node0x503000000250&#45;&gt;node0x503000000220 -->
<g id="edge6" class="edge">
<title>node0x503000000250&#45;&gt;node0x503000000220</title>
<path fill="none" stroke="black" d="M947.16,-387.46C981.49,-376.5 1018.32,-364.75 1053.08,-353.66"/>
<polygon fill="black" stroke="black" points="1054.36,-356.92 1062.83,-350.55 1052.24,-350.25 1054.36,-356.92"/>
</g>
<!-- node0x5030000000d0 -->
<g id="node8" class="node">
<title>node0x5030000000d0</title>
<path fill="#f00000" stroke="black" d="M426,-129.5C426,-129.5 684,-129.5 684,-129.5 690,-129.5 696,-135.5 696,-141.5 696,-141.5 696,-209.5 696,-209.5 696,-215.5 690,-221.5 684,-221.5 684,-221.5 426,-221.5 426,-221.5 420,-221.5 414,-215.5 414,-209.5 414,-209.5 414,-141.5 414,-141.5 414,-135.5 420,-129.5 426,-129.5"/>
<text text-anchor="middle" x="555" y="-206.3" font-family="Times,serif" font-size="14.00">[0x5030000000d0]</text>
<polyline fill="none" stroke="black" points="414,-198.5 696,-198.5 "/>
<text text-anchor="middle" x="555" y="-183.3" font-family="Times,serif" font-size="14.00">type = 4 (ID)</text>
<polyline fill="none" stroke="black" points="414,-175.5 696,-175.5 "/>
<text text-anchor="middle" x="555" y="-160.3" font-family="Times,serif" font-size="14.00">number of name in name table = &#39;17&#39;</text>
<polyline fill="none" stroke="black" points="414,-152.5 696,-152.5 "/>
<text text-anchor="middle" x="481.5" y="-137.3" font-family="Times,serif" font-size="14.00">left = [(nil)]</text>
<polyline fill="none" stroke="black" points="549,-129.5 549,-152.5 "/>
<text text-anchor="middle" x="622.5" y="-137.3" font-family="Times,serif" font-size="14.00">right = [(nil)]</text>
</g>
<!-- node0x503000000130&#45;&gt;node0x5030000000d0 -->
<g id="edge7" class="edge">
<title>node0x503000000130&#45;&gt;node0x5030000000d0</title>
<path fill="none" stroke="black" d="M701.33,-258.37C682.96,-248.09 663.33,-237.11 644.61,-226.63"/>
<polygon fill="black" stroke="black" points="646.23,-223.53 635.79,-221.7 642.81,-229.64 646.23,-223.53"/>
</g>
<!-- node0x503000000100 -->
<g id="node9" class="node">
<title>node0x503000000100</title>
<path fill="#ffd700" stroke="black" d="M726.5,-129.5C726.5,-129.5 915.5,-129.5 915.5,-129.5 921.5,-129.5 927.5,-135.5 927.5,-141.5 927.5,-141.5 927.5,-209.5 927.5,-209.5 927.5,-215.5 921.5,-221.5 915.5,-221.5 915.5,-221.5 726.5,-221.5 726.5,-221.5 720.5,-221.5 714.5,-215.5 714.5,-209.5 714.5,-209.5 714.5,-141.5 714.5,-141.5 714.5,-135.5 720.5,-129.5 726.5,-129.5"/>
<text text-anchor="middle" x="821" y="-206.3" font-family="Times,serif" font-size="14.00">[0x503000000100]</text>
<polyline fill="none" stroke="black" points="714.5,-198.5 927.5,-198.5 "/>
<text text-anchor="middle" x="821" y="-183.3" font-family="Times,serif" font-size="14.00">type = 1 (NUM)</text>
<polyline fill="none" stroke="black" points="714.5,-175.5 927.5,-175.5 "/>
<text text-anchor="middle" x="821" y="-160.3" font-family="Times,serif" font-size="14.00">value = 5</text>
<polyline fill="none" stroke="black" points="714.5,-152.5 927.5,-152.5 "/>
<text text-anchor="middle" x="765" y="-137.3" font-family="Times,serif" font-size="14.00">left = [(nil)]</text>
<polyline fill="none" stroke="black" points="815.5,-129.5 815.5,-152.5 "/>
<text text-anchor="middle" x="871.5" y="-137.3" font-family="Times,serif" font-size="14.00">right = [(nil)]</text>
</g>
<!-- node0x503000000130&#45;&gt;node0x503000000100 -->
<g id="edge8" class="edge">
<title>node0x503000000130&#45;&gt;node0x503000000100</title>
<path fill="none" stroke="black" d="M795.86,-258.37C798.53,-249.68 801.35,-240.48 804.1,-231.52"/>
<polygon fill="black" stroke="black" points="807.46,-232.5 807.05,-221.92 800.77,-230.45 807.46,-232.5"/>
</g>
<!-- node0x503000000160 -->
<g id="node10" class="node">
<title>node0x503000000160</title>
<path fill="#f00000" stroke="black" d="M1036,-129.5C1036,-129.5 1294,-129.5 1294,-129.5 1300,-129.5 1306,-135.5 1306,-141.5 1306,-141.5 1306,-209.5 1306,-209.5 1306,-215.5 1300,-221.5 1294,-221.5 1294,-221.5 1036,-221.5 1036,-221.5 1030,-221.5 1024,-215.5 1024,-209.5 1024,-209.5 1024,-141.5 1024,-141.5 1024,-135.5 1030,-129.5 1036,-129.5"/>
<text text-anchor="middle" x="1165" y="-206.3" font-family="Times,serif" font-size="14.00">[0x503000000160]</text>
<polyline fill="none" stroke="black" points="1024,-198.5 1306,-198.5 "/>
<text text-anchor="middle" x="1165" y="-183.3" font-family="Times,serif" font-size="14.00">type = 4 (ID)</text>
<polyline fill="none" stroke="black" points="1024,-175.5 1306,-175.5 "/>
<text text-anchor="middle" x="1165" y="-160.3" font-family="Times,serif" font-size="14.00">number of name in name table = &#39;18&#39;</text>
<polyline fill="none" stroke="black" points="1024,-152.5 1306,-152.5 "/>
<text text-anchor="middle" x="1091.5" y="-137.3" font-family="Times,serif" font-size="14.00">left = [(nil)]</text>
<polyline fill="none" stroke="black" points="1159,-129.5 1159,-152.5 "/>
<text text-anchor="middle" x="1232.5" y="-137.3" font-family="Times,serif" font-size="14.00">right = [(nil)]</text>
</g>
<!-- node0x503000000220&#45;&gt;node0x503000000160 -->
<g id="edge9" class="edge">
<title>node0x503000000220&#45;&gt;node0x503000000160</title>
<path fill="none" stroke="black" d="M1190.14,-258.37C1187.47,-249.68 1184.65,-240.48 1181.9,-231.52"/>
<polygon fill="black" stroke="black" points="1185.23,-230.45 1178.95,-221.92 1178.54,-232.5 1185.23,-230.45"/>
</g>
<!-- node0x5030000001f0 -->
<g id="node11" class="node">
<title>node0x5030000001f0</title>
<path fill="#20b2aa" stroke="black" d="M1336,-129.5C1336,-129.5 1716,-129.5 1716,-129.5 1722,-129.5 1728,-135.5 1728,-141.5 1728,-141.5 1728,-209.5 1728,-209.5 1728,-215.5 1722,-221.5 1716,-221.5 1716,-221.5 1336,-221.5 1336,-221.5 1330,-221.5 1324,-215.5 1324,-209.5 1324,-209.5 1324,-141.5 1324,-141.5 1324,-135.5 1330,-129.5 1336,-129.5"/>
<text text-anchor="middle" x="1526" y="-206.3" font-family="Times,serif" font-size="14.00">[0x5030000001f0]</text>
<polyline fill="none" stroke="black" points="1324,-198.5 1728,-198.5 "/>
<text text-anchor="middle" x="1526" y="-183.3" font-family="Times,serif" font-size="14.00">type = 2 (OP)</text>
<polyline fill="none" stroke="black" points="1324,-175.5 1728,-175.5 "/>
<text text-anchor="middle" x="1526" y="-160.3" font-family="Times,serif" font-size="14.00">value = &#39;*&#39;</text>
<polyline fill="none" stroke="black" points="1324,-152.5 1728,-152.5 "/>
<text text-anchor="middle" x="1422.5" y="-137.3" font-family="Times,serif" font-size="14.00">left = [0x503000000190]</text>
<polyline fill="none" stroke="black" points="1521,-129.5 1521,-152.5 "/>
<text text-anchor="middle" x="1624.5" y="-137.3" font-family="Times,serif" font-size="14.00">right = [0x5030000001c0]</text>
</g>
<!-- node0x503000000220&#45;&gt;node0x5030000001f0 -->
<g id="edge10" class="edge">
<title>node0x503000000220&#45;&gt;node0x5030000001f0</title>
<path fill="none" stroke="black" d="M1318.43,-258.37C1345.52,-247.68 1374.53,-236.24 1402.01,-225.4"/>
<polygon fill="black" stroke="black" points="1403.65,-228.52 1411.67,-221.59 1401.08,-222.01 1403.65,-228.52"/>
</g>
<!-- node0x503000000190 -->
<g id="node12" class="node">
<title>node0x503000000190</title>
<path fill="#f00000" stroke="black" d="M1247,-0.5C1247,-0.5 1505,-0.5 1505,-0.5 1511,-0.5 1517,-6.5 1517,-12.5 1517,-12.5 1517,-80.5 1517,-80.5 1517,-86.5 1511,-92.5 1505,-92.5 1505,-92.5 1247,-92.5 1247,-92.5 1241,-92.5 1235,-86.5 1235,-80.5 1235,-80.5 1235,-12.5 1235,-12.5 1235,-6.5 1241,-0.5 1247,-0.5"/>
<text text-anchor="middle" x="1376" y="-77.3" font-family="Times,serif" font-size="14.00">[0x503000000190]</text>
<polyline fill="none" stroke="black" points="1235,-69.5 1517,-69.5 "/>
<text text-anchor="middle" x="1376" y="-54.3" font-family="Times,serif" font-size="14.00">type = 4 (ID)</text>
<polyline fill="none" stroke="black" points="1235,-46.5 1517,-46.5 "/>
<text text-anchor="middle" x="1376" y="-31.3" font-family="Times,serif" font-size="14.00">number of name in name table = &#39;15&#39;</text>
<polyline fill="none" stroke="black" points="1235,-23.5 1517,-23.5 "/>
<text text-anchor="middle" x="1302.5" y="-8.3" font-family="Times,serif" font-size="14.00">left = [(nil)]</text>
<polyline fill="none" stroke="black" points="1370,-0.5 1370,-23.5 "/>
<text text-anchor="middle" x="1443.5" y="-8.3" font-family="Times,serif" font-size="14.00">right = [(nil)]</text>
</g>
<!-- node0x5030000001f0&#45;&gt;node0x503000000190 -->
<g id="edge11" class="edge">
<title>node0x5030000001f0&#45;&gt;node0x503000000190</title>
<path fill="none" stroke="black" d="M1472.69,-129.37C1461.16,-119.6 1448.87,-109.2 1437.07,-99.2"/>
<polygon fill="black" stroke="black" points="1439.28,-96.49 1429.39,-92.7 1434.76,-101.83 1439.28,-96.49"/>
</g>
<!-- node0x5030000001c0 -->
<g id="node13" class="node">
<title>node0x5030000001c0</title>
<path fill="#f00000" stroke="black" d="M1547,-0.5C1547,-0.5 1805,-0.5 1805,-0.5 1811,-0.5 1817,-6.5 1817,-12.5 1817,-12.5 1817,-80.5 1817,-80.5 1817,-86.5 1811,-92.5 1805,-92.5 1805,-92.5 1547,-92.5 1547,-92.5 1541,-92.5 1535,-86.5 1535,-80.5 1535,-80.5 1535,-12.5 1535,-12.5 1535,-6.5 1541,-0.5 1547,-0.5"/>
<text text-anchor="middle" x="1676" y="-77.3" font-family="Times,serif" font-size="14.00">[0x5030000001c0]</text>
<polyline fill="none" stroke="black" points="1535,-69.5 1817,-69.5 "/>
<text text-anchor="middle" x="1676" y="-54.3" font-family="Times,serif" font-size="14.00">type = 4 (ID)</text>
<polyline fill="none" stroke="black" points="1535,-46.5 1817,-46.5 "/>
<text text-anchor="middle" x="1676" y="-31.3" font-family="Times,serif" font-size="14.00">number of name in name table = &#39;16&#39;</text>
<polyline fill="none" stroke="black" points="1535,-23.5 1817,-23.5 "/>
<text text-anchor="middle" x="1602.5" y="-8.3" font-family="Times,serif" font-size="14.00">left = [(nil)]</text>
<polyline fill="none" stroke="black" points="1670,-0.5 1670,-23.5 "/>
<text text-anchor="middle" x="1743.5" y="-8.3" font-family="Times,serif" font-size="14.00">right = [(nil)]</text>
</g>
<!-- node0x5030000001f0&#45;&gt;node0x5030000001c0 -->
<g id="edge12" class="edge">
<title>node0x5030000001f0&#45;&gt;node0x5030000001c0</title>
<path fill="none" stroke="black" d="M1579.31,-129.37C1590.84,-119.6 1603.13,-109.2 1614.93,-99.2"/>
<polygon fill="black" stroke="black" points="1617.24,-101.83 1622.61,-92.7 1612.72,-96.49 1617.24,-101.83"/>
</g>
</g>
</svg>
