<?xml version="1.0" encoding="UTF-8" standalone="no"?>
<!DOCTYPE svg PUBLIC "-//W3C//DTD SVG 1.1//EN"
 "http://www.w3.org/Graphics/SVG/1.1/DTD/svg11.dtd">
<!-- Generated by graphviz version 2.43.0 (0)
 -->
<!-- Title: %3 Pages: 1 -->
<svg width="496pt" height="138pt"
 viewBox="0.00 0.00 495.50 138.00" xmlns="http://www.w3.org/2000/svg" xmlns:xlink="http://www.w3.org/1999/xlink">
<g id="graph0" class="graph" transform="scale(1 1) rotate(0) translate(4 134)">
<title>%3</title>
<!-- node0x5030000002b0 -->
<g id="node1" class="node">
<title>node0x5030000002b0</title>
<path fill="#f069f5" stroke="black" d="M137.5,-83.5C137.5,-83.5 284.5,-83.5 284.5,-83.5 290.5,-83.5 296.5,-89.5 296.5,-95.5 296.5,-95.5 296.5,-117.5 296.5,-117.5 296.5,-123.5 290.5,-129.5 284.5,-129.5 284.5,-129.5 137.5,-129.5 137.5,-129.5 131.5,-129.5 125.5,-123.5 125.5,-117.5 125.5,-117.5 125.5,-95.5 125.5,-95.5 125.5,-89.5 131.5,-83.5 137.5,-83.5"/>
<text text-anchor="middle" x="211" y="-114.3" font-family="Times,serif" font-size="14.00">type = 4 (FUNC)</text>
<polyline fill="none" stroke="black" points="125.5,-106.5 296.5,-106.5 "/>
<text text-anchor="middle" x="211" y="-91.3" font-family="Times,serif" font-size="14.00">value = &#39;&#39; CALL &#39;&#39; (67)</text>
</g>
<!-- node0x503000000250 -->
<g id="node2" class="node">
<title>node0x503000000250</title>
<path fill="#2ee31e" stroke="black" d="M12,-0.5C12,-0.5 158,-0.5 158,-0.5 164,-0.5 170,-6.5 170,-12.5 170,-12.5 170,-34.5 170,-34.5 170,-40.5 164,-46.5 158,-46.5 158,-46.5 12,-46.5 12,-46.5 6,-46.5 0,-40.5 0,-34.5 0,-34.5 0,-12.5 0,-12.5 0,-6.5 6,-0.5 12,-0.5"/>
<text text-anchor="middle" x="85" y="-31.3" font-family="Times,serif" font-size="14.00">type = 4 (FUNC)</text>
<polyline fill="none" stroke="black" points="0,-23.5 170,-23.5 "/>
<text text-anchor="middle" x="85" y="-8.3" font-family="Times,serif" font-size="14.00">value = &#39;&#39; Jump &#39;&#39; (23)</text>
</g>
<!-- node0x5030000002b0&#45;&gt;node0x503000000250 -->
<g id="edge1" class="edge">
<title>node0x5030000002b0&#45;&gt;node0x503000000250</title>
<path fill="none" stroke="black" d="M176.57,-83.37C161.57,-73.72 143.83,-62.32 127.97,-52.13"/>
<polygon fill="black" stroke="black" points="129.69,-49.07 119.39,-46.61 125.91,-54.96 129.69,-49.07"/>
</g>
<!-- node0x503000000280 -->
<g id="node3" class="node">
<title>node0x503000000280</title>
<path fill="#ff5050" stroke="black" d="M200.5,-0.5C200.5,-0.5 475.5,-0.5 475.5,-0.5 481.5,-0.5 487.5,-6.5 487.5,-12.5 487.5,-12.5 487.5,-34.5 487.5,-34.5 487.5,-40.5 481.5,-46.5 475.5,-46.5 475.5,-46.5 200.5,-46.5 200.5,-46.5 194.5,-46.5 188.5,-40.5 188.5,-34.5 188.5,-34.5 188.5,-12.5 188.5,-12.5 188.5,-6.5 194.5,-0.5 200.5,-0.5"/>
<text text-anchor="middle" x="338" y="-31.3" font-family="Times,serif" font-size="14.00">type = 3 (ID)</text>
<polyline fill="none" stroke="black" points="188.5,-23.5 487.5,-23.5 "/>
<text text-anchor="middle" x="338" y="-8.3" font-family="Times,serif" font-size="14.00">number of name in name table = &#39;&#39; 22 &#39;&#39;</text>
</g>
<!-- node0x5030000002b0&#45;&gt;node0x503000000280 -->
<g id="edge2" class="edge">
<title>node0x5030000002b0&#45;&gt;node0x503000000280</title>
<path fill="none" stroke="black" d="M245.7,-83.37C260.82,-73.72 278.71,-62.32 294.69,-52.13"/>
<polygon fill="black" stroke="black" points="296.79,-54.94 303.34,-46.61 293.03,-49.03 296.79,-54.94"/>
</g>
</g>
</svg>
