<?xml version="1.0" encoding="UTF-8" standalone="no"?>
<!DOCTYPE svg PUBLIC "-//W3C//DTD SVG 1.1//EN"
 "http://www.w3.org/Graphics/SVG/1.1/DTD/svg11.dtd">
<!-- Generated by graphviz version 2.43.0 (0)
 -->
<!-- Title: %3 Pages: 1 -->
<svg width="624pt" height="138pt"
 viewBox="0.00 0.00 624.00 138.00" xmlns="http://www.w3.org/2000/svg" xmlns:xlink="http://www.w3.org/1999/xlink">
<g id="graph0" class="graph" transform="scale(1 1) rotate(0) translate(4 134)">
<title>%3</title>
<!-- node0x503000000af0 -->
<g id="node1" class="node">
<title>node0x503000000af0</title>
<path fill="#00ffdd" stroke="black" d="M233,-83.5C233,-83.5 382,-83.5 382,-83.5 388,-83.5 394,-89.5 394,-95.5 394,-95.5 394,-117.5 394,-117.5 394,-123.5 388,-129.5 382,-129.5 382,-129.5 233,-129.5 233,-129.5 227,-129.5 221,-123.5 221,-117.5 221,-117.5 221,-95.5 221,-95.5 221,-89.5 227,-83.5 233,-83.5"/>
<text text-anchor="middle" x="307.5" y="-114.3" font-family="Times,serif" font-size="14.00">type = 2 (OP)</text>
<polyline fill="none" stroke="black" points="221,-106.5 394,-106.5 "/>
<text text-anchor="middle" x="307.5" y="-91.3" font-family="Times,serif" font-size="14.00">value = &#39;&#39; PLUS &#39;&#39; (43)</text>
</g>
<!-- node0x503000000a90 -->
<g id="node2" class="node">
<title>node0x503000000a90</title>
<path fill="#ff5050" stroke="black" d="M12,-0.5C12,-0.5 287,-0.5 287,-0.5 293,-0.5 299,-6.5 299,-12.5 299,-12.5 299,-34.5 299,-34.5 299,-40.5 293,-46.5 287,-46.5 287,-46.5 12,-46.5 12,-46.5 6,-46.5 0,-40.5 0,-34.5 0,-34.5 0,-12.5 0,-12.5 0,-6.5 6,-0.5 12,-0.5"/>
<text text-anchor="middle" x="149.5" y="-31.3" font-family="Times,serif" font-size="14.00">type = 3 (ID)</text>
<polyline fill="none" stroke="black" points="0,-23.5 299,-23.5 "/>
<text text-anchor="middle" x="149.5" y="-8.3" font-family="Times,serif" font-size="14.00">number of name in name table = &#39;&#39; 23 &#39;&#39;</text>
</g>
<!-- node0x503000000af0&#45;&gt;node0x503000000a90 -->
<g id="edge1" class="edge">
<title>node0x503000000af0&#45;&gt;node0x503000000a90</title>
<path fill="none" stroke="black" d="M264.33,-83.37C244.99,-73.46 222.03,-61.68 201.74,-51.28"/>
<polygon fill="black" stroke="black" points="203.12,-48.05 192.62,-46.61 199.92,-54.28 203.12,-48.05"/>
</g>
<!-- node0x503000000ac0 -->
<g id="node3" class="node">
<title>node0x503000000ac0</title>
<path fill="#ff5050" stroke="black" d="M329,-0.5C329,-0.5 604,-0.5 604,-0.5 610,-0.5 616,-6.5 616,-12.5 616,-12.5 616,-34.5 616,-34.5 616,-40.5 610,-46.5 604,-46.5 604,-46.5 329,-46.5 329,-46.5 323,-46.5 317,-40.5 317,-34.5 317,-34.5 317,-12.5 317,-12.5 317,-6.5 323,-0.5 329,-0.5"/>
<text text-anchor="middle" x="466.5" y="-31.3" font-family="Times,serif" font-size="14.00">type = 3 (ID)</text>
<polyline fill="none" stroke="black" points="317,-23.5 616,-23.5 "/>
<text text-anchor="middle" x="466.5" y="-8.3" font-family="Times,serif" font-size="14.00">number of name in name table = &#39;&#39; 22 &#39;&#39;</text>
</g>
<!-- node0x503000000af0&#45;&gt;node0x503000000ac0 -->
<g id="edge2" class="edge">
<title>node0x503000000af0&#45;&gt;node0x503000000ac0</title>
<path fill="none" stroke="black" d="M350.95,-83.37C370.4,-73.46 393.51,-61.68 413.93,-51.28"/>
<polygon fill="black" stroke="black" points="415.78,-54.26 423.11,-46.61 412.61,-48.03 415.78,-54.26"/>
</g>
</g>
</svg>
