<?xml version="1.0" encoding="UTF-8" standalone="no"?>
<!DOCTYPE svg PUBLIC "-//W3C//DTD SVG 1.1//EN"
 "http://www.w3.org/Graphics/SVG/1.1/DTD/svg11.dtd">
<!-- Generated by graphviz version 2.43.0 (0)
 -->
<!-- Title: %3 Pages: 1 -->
<svg width="2186pt" height="885pt"
 viewBox="0.00 0.00 2185.50 885.00" xmlns="http://www.w3.org/2000/svg" xmlns:xlink="http://www.w3.org/1999/xlink">
<g id="graph0" class="graph" transform="scale(1 1) rotate(0) translate(4 881)">
<title>%3</title>
<!-- node0x5030000006a0 -->
<g id="node1" class="node">
<title>node0x5030000006a0</title>
<path fill="#755cf7" stroke="black" d="M354,-830.5C354,-830.5 554,-830.5 554,-830.5 560,-830.5 566,-836.5 566,-842.5 566,-842.5 566,-864.5 566,-864.5 566,-870.5 560,-876.5 554,-876.5 554,-876.5 354,-876.5 354,-876.5 348,-876.5 342,-870.5 342,-864.5 342,-864.5 342,-842.5 342,-842.5 342,-836.5 348,-830.5 354,-830.5"/>
<text text-anchor="middle" x="454" y="-861.3" font-family="Times,serif" font-size="14.00">type = 4 (FUNC)</text>
<polyline fill="none" stroke="black" points="342,-853.5 566,-853.5 "/>
<text text-anchor="middle" x="454" y="-838.3" font-family="Times,serif" font-size="14.00">value = &#39;&#39; DEFINITION &#39;&#39; (68)</text>
</g>
<!-- node0x5030000000a0 -->
<g id="node2" class="node">
<title>node0x5030000000a0</title>
<path fill="#f069f5" stroke="black" d="M260.5,-747.5C260.5,-747.5 407.5,-747.5 407.5,-747.5 413.5,-747.5 419.5,-753.5 419.5,-759.5 419.5,-759.5 419.5,-781.5 419.5,-781.5 419.5,-787.5 413.5,-793.5 407.5,-793.5 407.5,-793.5 260.5,-793.5 260.5,-793.5 254.5,-793.5 248.5,-787.5 248.5,-781.5 248.5,-781.5 248.5,-759.5 248.5,-759.5 248.5,-753.5 254.5,-747.5 260.5,-747.5"/>
<text text-anchor="middle" x="334" y="-778.3" font-family="Times,serif" font-size="14.00">type = 4 (FUNC)</text>
<polyline fill="none" stroke="black" points="248.5,-770.5 419.5,-770.5 "/>
<text text-anchor="middle" x="334" y="-755.3" font-family="Times,serif" font-size="14.00">value = &#39;&#39; CALL &#39;&#39; (67)</text>
</g>
<!-- node0x5030000006a0&#45;&gt;node0x5030000000a0 -->
<g id="edge1" class="edge">
<title>node0x5030000006a0&#45;&gt;node0x5030000000a0</title>
<path fill="none" stroke="black" d="M421.21,-830.37C407.06,-820.81 390.34,-809.53 375.35,-799.41"/>
<polygon fill="black" stroke="black" points="377,-796.3 366.75,-793.61 373.08,-802.1 377,-796.3"/>
</g>
<!-- node0x503000000160 -->
<g id="node3" class="node">
<title>node0x503000000160</title>
<path fill="#e0e0e0" stroke="black" d="M487.5,-747.5C487.5,-747.5 660.5,-747.5 660.5,-747.5 666.5,-747.5 672.5,-753.5 672.5,-759.5 672.5,-759.5 672.5,-781.5 672.5,-781.5 672.5,-787.5 666.5,-793.5 660.5,-793.5 660.5,-793.5 487.5,-793.5 487.5,-793.5 481.5,-793.5 475.5,-787.5 475.5,-781.5 475.5,-781.5 475.5,-759.5 475.5,-759.5 475.5,-753.5 481.5,-747.5 487.5,-747.5"/>
<text text-anchor="middle" x="574" y="-778.3" font-family="Times,serif" font-size="14.00">type = 2 (OP)</text>
<polyline fill="none" stroke="black" points="475.5,-770.5 672.5,-770.5 "/>
<text text-anchor="middle" x="574" y="-755.3" font-family="Times,serif" font-size="14.00">value = &#39;&#39; SHUTUP &#39;&#39; (59)</text>
</g>
<!-- node0x5030000006a0&#45;&gt;node0x503000000160 -->
<g id="edge2" class="edge">
<title>node0x5030000006a0&#45;&gt;node0x503000000160</title>
<path fill="none" stroke="black" d="M486.79,-830.37C500.94,-820.81 517.66,-809.53 532.65,-799.41"/>
<polygon fill="black" stroke="black" points="534.92,-802.1 541.25,-793.61 531,-796.3 534.92,-802.1"/>
</g>
<!-- node0x503000000040 -->
<g id="node4" class="node">
<title>node0x503000000040</title>
<path fill="#2ee31e" stroke="black" d="M12,-664.5C12,-664.5 154,-664.5 154,-664.5 160,-664.5 166,-670.5 166,-676.5 166,-676.5 166,-698.5 166,-698.5 166,-704.5 160,-710.5 154,-710.5 154,-710.5 12,-710.5 12,-710.5 6,-710.5 0,-704.5 0,-698.5 0,-698.5 0,-676.5 0,-676.5 0,-670.5 6,-664.5 12,-664.5"/>
<text text-anchor="middle" x="83" y="-695.3" font-family="Times,serif" font-size="14.00">type = 4 (FUNC)</text>
<polyline fill="none" stroke="black" points="0,-687.5 166,-687.5 "/>
<text text-anchor="middle" x="83" y="-672.3" font-family="Times,serif" font-size="14.00">value = &#39;&#39; carti &#39;&#39; (19)</text>
</g>
<!-- node0x5030000000a0&#45;&gt;node0x503000000040 -->
<g id="edge3" class="edge">
<title>node0x5030000000a0&#45;&gt;node0x503000000040</title>
<path fill="none" stroke="black" d="M265.74,-747.47C233.37,-737.03 194.54,-724.49 161.01,-713.67"/>
<polygon fill="black" stroke="black" points="161.83,-710.26 151.24,-710.52 159.68,-716.92 161.83,-710.26"/>
</g>
<!-- node0x503000000070 -->
<g id="node5" class="node">
<title>node0x503000000070</title>
<path fill="#ff5050" stroke="black" d="M196.5,-664.5C196.5,-664.5 471.5,-664.5 471.5,-664.5 477.5,-664.5 483.5,-670.5 483.5,-676.5 483.5,-676.5 483.5,-698.5 483.5,-698.5 483.5,-704.5 477.5,-710.5 471.5,-710.5 471.5,-710.5 196.5,-710.5 196.5,-710.5 190.5,-710.5 184.5,-704.5 184.5,-698.5 184.5,-698.5 184.5,-676.5 184.5,-676.5 184.5,-670.5 190.5,-664.5 196.5,-664.5"/>
<text text-anchor="middle" x="334" y="-695.3" font-family="Times,serif" font-size="14.00">type = 3 (ID)</text>
<polyline fill="none" stroke="black" points="184.5,-687.5 483.5,-687.5 "/>
<text text-anchor="middle" x="334" y="-672.3" font-family="Times,serif" font-size="14.00">number of name in name table = &#39;&#39; 20 &#39;&#39;</text>
</g>
<!-- node0x5030000000a0&#45;&gt;node0x503000000070 -->
<g id="edge4" class="edge">
<title>node0x5030000000a0&#45;&gt;node0x503000000070</title>
<path fill="none" stroke="black" d="M334,-747.37C334,-739.15 334,-729.66 334,-720.73"/>
<polygon fill="black" stroke="black" points="337.5,-720.61 334,-710.61 330.5,-720.61 337.5,-720.61"/>
</g>
<!-- node0x503000000130 -->
<g id="node6" class="node">
<title>node0x503000000130</title>
<path fill="#00ffdd" stroke="black" d="M513.5,-664.5C513.5,-664.5 634.5,-664.5 634.5,-664.5 640.5,-664.5 646.5,-670.5 646.5,-676.5 646.5,-676.5 646.5,-698.5 646.5,-698.5 646.5,-704.5 640.5,-710.5 634.5,-710.5 634.5,-710.5 513.5,-710.5 513.5,-710.5 507.5,-710.5 501.5,-704.5 501.5,-698.5 501.5,-698.5 501.5,-676.5 501.5,-676.5 501.5,-670.5 507.5,-664.5 513.5,-664.5"/>
<text text-anchor="middle" x="574" y="-695.3" font-family="Times,serif" font-size="14.00">type = 2 (OP)</text>
<polyline fill="none" stroke="black" points="501.5,-687.5 646.5,-687.5 "/>
<text text-anchor="middle" x="574" y="-672.3" font-family="Times,serif" font-size="14.00">value = &#39;&#39; = &#39;&#39; (61)</text>
</g>
<!-- node0x503000000160&#45;&gt;node0x503000000130 -->
<g id="edge5" class="edge">
<title>node0x503000000160&#45;&gt;node0x503000000130</title>
<path fill="none" stroke="black" d="M574,-747.37C574,-739.15 574,-729.66 574,-720.73"/>
<polygon fill="black" stroke="black" points="577.5,-720.61 574,-710.61 570.5,-720.61 577.5,-720.61"/>
</g>
<!-- node0x503000000220 -->
<g id="node7" class="node">
<title>node0x503000000220</title>
<path fill="#e0e0e0" stroke="black" d="M676.5,-664.5C676.5,-664.5 849.5,-664.5 849.5,-664.5 855.5,-664.5 861.5,-670.5 861.5,-676.5 861.5,-676.5 861.5,-698.5 861.5,-698.5 861.5,-704.5 855.5,-710.5 849.5,-710.5 849.5,-710.5 676.5,-710.5 676.5,-710.5 670.5,-710.5 664.5,-704.5 664.5,-698.5 664.5,-698.5 664.5,-676.5 664.5,-676.5 664.5,-670.5 670.5,-664.5 676.5,-664.5"/>
<text text-anchor="middle" x="763" y="-695.3" font-family="Times,serif" font-size="14.00">type = 2 (OP)</text>
<polyline fill="none" stroke="black" points="664.5,-687.5 861.5,-687.5 "/>
<text text-anchor="middle" x="763" y="-672.3" font-family="Times,serif" font-size="14.00">value = &#39;&#39; SHUTUP &#39;&#39; (59)</text>
</g>
<!-- node0x503000000160&#45;&gt;node0x503000000220 -->
<g id="edge6" class="edge">
<title>node0x503000000160&#45;&gt;node0x503000000220</title>
<path fill="none" stroke="black" d="M625.65,-747.37C649.29,-737.23 677.48,-725.15 702.15,-714.58"/>
<polygon fill="black" stroke="black" points="703.6,-717.76 711.42,-710.61 700.85,-711.33 703.6,-717.76"/>
</g>
<!-- node0x5030000000d0 -->
<g id="node8" class="node">
<title>node0x5030000000d0</title>
<path fill="#ff5050" stroke="black" d="M212.5,-581.5C212.5,-581.5 487.5,-581.5 487.5,-581.5 493.5,-581.5 499.5,-587.5 499.5,-593.5 499.5,-593.5 499.5,-615.5 499.5,-615.5 499.5,-621.5 493.5,-627.5 487.5,-627.5 487.5,-627.5 212.5,-627.5 212.5,-627.5 206.5,-627.5 200.5,-621.5 200.5,-615.5 200.5,-615.5 200.5,-593.5 200.5,-593.5 200.5,-587.5 206.5,-581.5 212.5,-581.5"/>
<text text-anchor="middle" x="350" y="-612.3" font-family="Times,serif" font-size="14.00">type = 3 (ID)</text>
<polyline fill="none" stroke="black" points="200.5,-604.5 499.5,-604.5 "/>
<text text-anchor="middle" x="350" y="-589.3" font-family="Times,serif" font-size="14.00">number of name in name table = &#39;&#39; 21 &#39;&#39;</text>
</g>
<!-- node0x503000000130&#45;&gt;node0x5030000000d0 -->
<g id="edge7" class="edge">
<title>node0x503000000130&#45;&gt;node0x5030000000d0</title>
<path fill="none" stroke="black" d="M513.09,-664.47C484.45,-654.12 450.13,-641.71 420.39,-630.95"/>
<polygon fill="black" stroke="black" points="421.5,-627.63 410.9,-627.52 419.11,-634.21 421.5,-627.63"/>
</g>
<!-- node0x503000000100 -->
<g id="node9" class="node">
<title>node0x503000000100</title>
<path fill="#ffd700" stroke="black" d="M529.5,-581.5C529.5,-581.5 636.5,-581.5 636.5,-581.5 642.5,-581.5 648.5,-587.5 648.5,-593.5 648.5,-593.5 648.5,-615.5 648.5,-615.5 648.5,-621.5 642.5,-627.5 636.5,-627.5 636.5,-627.5 529.5,-627.5 529.5,-627.5 523.5,-627.5 517.5,-621.5 517.5,-615.5 517.5,-615.5 517.5,-593.5 517.5,-593.5 517.5,-587.5 523.5,-581.5 529.5,-581.5"/>
<text text-anchor="middle" x="583" y="-612.3" font-family="Times,serif" font-size="14.00">type = 1 (NUM)</text>
<polyline fill="none" stroke="black" points="517.5,-604.5 648.5,-604.5 "/>
<text text-anchor="middle" x="583" y="-589.3" font-family="Times,serif" font-size="14.00">value = &#39;&#39; 10 &#39;&#39;</text>
</g>
<!-- node0x503000000130&#45;&gt;node0x503000000100 -->
<g id="edge8" class="edge">
<title>node0x503000000130&#45;&gt;node0x503000000100</title>
<path fill="none" stroke="black" d="M576.46,-664.37C577.37,-656.15 578.43,-646.66 579.42,-637.73"/>
<polygon fill="black" stroke="black" points="582.92,-637.93 580.54,-627.61 575.96,-637.16 582.92,-637.93"/>
</g>
<!-- node0x5030000001f0 -->
<g id="node10" class="node">
<title>node0x5030000001f0</title>
<path fill="#00ffdd" stroke="black" d="M694.5,-581.5C694.5,-581.5 815.5,-581.5 815.5,-581.5 821.5,-581.5 827.5,-587.5 827.5,-593.5 827.5,-593.5 827.5,-615.5 827.5,-615.5 827.5,-621.5 821.5,-627.5 815.5,-627.5 815.5,-627.5 694.5,-627.5 694.5,-627.5 688.5,-627.5 682.5,-621.5 682.5,-615.5 682.5,-615.5 682.5,-593.5 682.5,-593.5 682.5,-587.5 688.5,-581.5 694.5,-581.5"/>
<text text-anchor="middle" x="755" y="-612.3" font-family="Times,serif" font-size="14.00">type = 2 (OP)</text>
<polyline fill="none" stroke="black" points="682.5,-604.5 827.5,-604.5 "/>
<text text-anchor="middle" x="755" y="-589.3" font-family="Times,serif" font-size="14.00">value = &#39;&#39; = &#39;&#39; (61)</text>
</g>
<!-- node0x503000000220&#45;&gt;node0x5030000001f0 -->
<g id="edge9" class="edge">
<title>node0x503000000220&#45;&gt;node0x5030000001f0</title>
<path fill="none" stroke="black" d="M760.81,-664.37C760,-656.15 759.06,-646.66 758.18,-637.73"/>
<polygon fill="black" stroke="black" points="761.65,-637.21 757.18,-627.61 754.68,-637.9 761.65,-637.21"/>
</g>
<!-- node0x503000000340 -->
<g id="node11" class="node">
<title>node0x503000000340</title>
<path fill="#e0e0e0" stroke="black" d="M857.5,-581.5C857.5,-581.5 1030.5,-581.5 1030.5,-581.5 1036.5,-581.5 1042.5,-587.5 1042.5,-593.5 1042.5,-593.5 1042.5,-615.5 1042.5,-615.5 1042.5,-621.5 1036.5,-627.5 1030.5,-627.5 1030.5,-627.5 857.5,-627.5 857.5,-627.5 851.5,-627.5 845.5,-621.5 845.5,-615.5 845.5,-615.5 845.5,-593.5 845.5,-593.5 845.5,-587.5 851.5,-581.5 857.5,-581.5"/>
<text text-anchor="middle" x="944" y="-612.3" font-family="Times,serif" font-size="14.00">type = 2 (OP)</text>
<polyline fill="none" stroke="black" points="845.5,-604.5 1042.5,-604.5 "/>
<text text-anchor="middle" x="944" y="-589.3" font-family="Times,serif" font-size="14.00">value = &#39;&#39; SHUTUP &#39;&#39; (59)</text>
</g>
<!-- node0x503000000220&#45;&gt;node0x503000000340 -->
<g id="edge10" class="edge">
<title>node0x503000000220&#45;&gt;node0x503000000340</title>
<path fill="none" stroke="black" d="M812.46,-664.37C835.01,-654.28 861.86,-642.26 885.41,-631.72"/>
<polygon fill="black" stroke="black" points="886.9,-634.89 894.6,-627.61 884.04,-628.5 886.9,-634.89"/>
</g>
<!-- node0x503000000190 -->
<g id="node12" class="node">
<title>node0x503000000190</title>
<path fill="#ff5050" stroke="black" d="M389.5,-498.5C389.5,-498.5 664.5,-498.5 664.5,-498.5 670.5,-498.5 676.5,-504.5 676.5,-510.5 676.5,-510.5 676.5,-532.5 676.5,-532.5 676.5,-538.5 670.5,-544.5 664.5,-544.5 664.5,-544.5 389.5,-544.5 389.5,-544.5 383.5,-544.5 377.5,-538.5 377.5,-532.5 377.5,-532.5 377.5,-510.5 377.5,-510.5 377.5,-504.5 383.5,-498.5 389.5,-498.5"/>
<text text-anchor="middle" x="527" y="-529.3" font-family="Times,serif" font-size="14.00">type = 3 (ID)</text>
<polyline fill="none" stroke="black" points="377.5,-521.5 676.5,-521.5 "/>
<text text-anchor="middle" x="527" y="-506.3" font-family="Times,serif" font-size="14.00">number of name in name table = &#39;&#39; 22 &#39;&#39;</text>
</g>
<!-- node0x5030000001f0&#45;&gt;node0x503000000190 -->
<g id="edge11" class="edge">
<title>node0x5030000001f0&#45;&gt;node0x503000000190</title>
<path fill="none" stroke="black" d="M693,-581.47C663.85,-571.12 628.92,-558.71 598.64,-547.95"/>
<polygon fill="black" stroke="black" points="599.58,-544.57 588.99,-544.52 597.24,-551.17 599.58,-544.57"/>
</g>
<!-- node0x5030000001c0 -->
<g id="node13" class="node">
<title>node0x5030000001c0</title>
<path fill="#ffd700" stroke="black" d="M706.5,-498.5C706.5,-498.5 813.5,-498.5 813.5,-498.5 819.5,-498.5 825.5,-504.5 825.5,-510.5 825.5,-510.5 825.5,-532.5 825.5,-532.5 825.5,-538.5 819.5,-544.5 813.5,-544.5 813.5,-544.5 706.5,-544.5 706.5,-544.5 700.5,-544.5 694.5,-538.5 694.5,-532.5 694.5,-532.5 694.5,-510.5 694.5,-510.5 694.5,-504.5 700.5,-498.5 706.5,-498.5"/>
<text text-anchor="middle" x="760" y="-529.3" font-family="Times,serif" font-size="14.00">type = 1 (NUM)</text>
<polyline fill="none" stroke="black" points="694.5,-521.5 825.5,-521.5 "/>
<text text-anchor="middle" x="760" y="-506.3" font-family="Times,serif" font-size="14.00">value = &#39;&#39; 5 &#39;&#39;</text>
</g>
<!-- node0x5030000001f0&#45;&gt;node0x5030000001c0 -->
<g id="edge12" class="edge">
<title>node0x5030000001f0&#45;&gt;node0x5030000001c0</title>
<path fill="none" stroke="black" d="M756.37,-581.37C756.87,-573.15 757.46,-563.66 758.01,-554.73"/>
<polygon fill="black" stroke="black" points="761.51,-554.8 758.64,-544.61 754.53,-554.37 761.51,-554.8"/>
</g>
<!-- node0x503000000310 -->
<g id="node14" class="node">
<title>node0x503000000310</title>
<path fill="#f069f5" stroke="black" d="M865.5,-498.5C865.5,-498.5 1012.5,-498.5 1012.5,-498.5 1018.5,-498.5 1024.5,-504.5 1024.5,-510.5 1024.5,-510.5 1024.5,-532.5 1024.5,-532.5 1024.5,-538.5 1018.5,-544.5 1012.5,-544.5 1012.5,-544.5 865.5,-544.5 865.5,-544.5 859.5,-544.5 853.5,-538.5 853.5,-532.5 853.5,-532.5 853.5,-510.5 853.5,-510.5 853.5,-504.5 859.5,-498.5 865.5,-498.5"/>
<text text-anchor="middle" x="939" y="-529.3" font-family="Times,serif" font-size="14.00">type = 4 (FUNC)</text>
<polyline fill="none" stroke="black" points="853.5,-521.5 1024.5,-521.5 "/>
<text text-anchor="middle" x="939" y="-506.3" font-family="Times,serif" font-size="14.00">value = &#39;&#39; CALL &#39;&#39; (67)</text>
</g>
<!-- node0x503000000340&#45;&gt;node0x503000000310 -->
<g id="edge13" class="edge">
<title>node0x503000000340&#45;&gt;node0x503000000310</title>
<path fill="none" stroke="black" d="M942.63,-581.37C942.13,-573.15 941.54,-563.66 940.99,-554.73"/>
<polygon fill="black" stroke="black" points="944.47,-554.37 940.36,-544.61 937.49,-554.8 944.47,-554.37"/>
</g>
<!-- node0x503000000460 -->
<g id="node15" class="node">
<title>node0x503000000460</title>
<path fill="#e0e0e0" stroke="black" d="M1163.5,-498.5C1163.5,-498.5 1336.5,-498.5 1336.5,-498.5 1342.5,-498.5 1348.5,-504.5 1348.5,-510.5 1348.5,-510.5 1348.5,-532.5 1348.5,-532.5 1348.5,-538.5 1342.5,-544.5 1336.5,-544.5 1336.5,-544.5 1163.5,-544.5 1163.5,-544.5 1157.5,-544.5 1151.5,-538.5 1151.5,-532.5 1151.5,-532.5 1151.5,-510.5 1151.5,-510.5 1151.5,-504.5 1157.5,-498.5 1163.5,-498.5"/>
<text text-anchor="middle" x="1250" y="-529.3" font-family="Times,serif" font-size="14.00">type = 2 (OP)</text>
<polyline fill="none" stroke="black" points="1151.5,-521.5 1348.5,-521.5 "/>
<text text-anchor="middle" x="1250" y="-506.3" font-family="Times,serif" font-size="14.00">value = &#39;&#39; SHUTUP &#39;&#39; (59)</text>
</g>
<!-- node0x503000000340&#45;&gt;node0x503000000460 -->
<g id="edge14" class="edge">
<title>node0x503000000340&#45;&gt;node0x503000000460</title>
<path fill="none" stroke="black" d="M1027.21,-581.47C1067.35,-570.85 1115.65,-558.06 1157,-547.12"/>
<polygon fill="black" stroke="black" points="1158.03,-550.46 1166.8,-544.52 1156.24,-543.7 1158.03,-550.46"/>
</g>
<!-- node0x503000000250 -->
<g id="node16" class="node">
<title>node0x503000000250</title>
<path fill="#2ee31e" stroke="black" d="M676,-415.5C676,-415.5 822,-415.5 822,-415.5 828,-415.5 834,-421.5 834,-427.5 834,-427.5 834,-449.5 834,-449.5 834,-455.5 828,-461.5 822,-461.5 822,-461.5 676,-461.5 676,-461.5 670,-461.5 664,-455.5 664,-449.5 664,-449.5 664,-427.5 664,-427.5 664,-421.5 670,-415.5 676,-415.5"/>
<text text-anchor="middle" x="749" y="-446.3" font-family="Times,serif" font-size="14.00">type = 4 (FUNC)</text>
<polyline fill="none" stroke="black" points="664,-438.5 834,-438.5 "/>
<text text-anchor="middle" x="749" y="-423.3" font-family="Times,serif" font-size="14.00">value = &#39;&#39; Jump &#39;&#39; (23)</text>
</g>
<!-- node0x503000000310&#45;&gt;node0x503000000250 -->
<g id="edge15" class="edge">
<title>node0x503000000310&#45;&gt;node0x503000000250</title>
<path fill="none" stroke="black" d="M887.33,-498.47C863.46,-488.3 834.94,-476.14 810.02,-465.51"/>
<polygon fill="black" stroke="black" points="811.23,-462.22 800.66,-461.52 808.48,-468.66 811.23,-462.22"/>
</g>
<!-- node0x5030000002e0 -->
<g id="node17" class="node">
<title>node0x5030000002e0</title>
<path fill="#00ffdd" stroke="black" d="M864.5,-415.5C864.5,-415.5 1013.5,-415.5 1013.5,-415.5 1019.5,-415.5 1025.5,-421.5 1025.5,-427.5 1025.5,-427.5 1025.5,-449.5 1025.5,-449.5 1025.5,-455.5 1019.5,-461.5 1013.5,-461.5 1013.5,-461.5 864.5,-461.5 864.5,-461.5 858.5,-461.5 852.5,-455.5 852.5,-449.5 852.5,-449.5 852.5,-427.5 852.5,-427.5 852.5,-421.5 858.5,-415.5 864.5,-415.5"/>
<text text-anchor="middle" x="939" y="-446.3" font-family="Times,serif" font-size="14.00">type = 2 (OP)</text>
<polyline fill="none" stroke="black" points="852.5,-438.5 1025.5,-438.5 "/>
<text text-anchor="middle" x="939" y="-423.3" font-family="Times,serif" font-size="14.00">value = &#39;&#39; PLUS &#39;&#39; (43)</text>
</g>
<!-- node0x503000000310&#45;&gt;node0x5030000002e0 -->
<g id="edge16" class="edge">
<title>node0x503000000310&#45;&gt;node0x5030000002e0</title>
<path fill="none" stroke="black" d="M939,-498.37C939,-490.15 939,-480.66 939,-471.73"/>
<polygon fill="black" stroke="black" points="942.5,-471.61 939,-461.61 935.5,-471.61 942.5,-471.61"/>
</g>
<!-- node0x503000000430 -->
<g id="node20" class="node">
<title>node0x503000000430</title>
<path fill="#00ffdd" stroke="black" d="M1189.5,-415.5C1189.5,-415.5 1310.5,-415.5 1310.5,-415.5 1316.5,-415.5 1322.5,-421.5 1322.5,-427.5 1322.5,-427.5 1322.5,-449.5 1322.5,-449.5 1322.5,-455.5 1316.5,-461.5 1310.5,-461.5 1310.5,-461.5 1189.5,-461.5 1189.5,-461.5 1183.5,-461.5 1177.5,-455.5 1177.5,-449.5 1177.5,-449.5 1177.5,-427.5 1177.5,-427.5 1177.5,-421.5 1183.5,-415.5 1189.5,-415.5"/>
<text text-anchor="middle" x="1250" y="-446.3" font-family="Times,serif" font-size="14.00">type = 2 (OP)</text>
<polyline fill="none" stroke="black" points="1177.5,-438.5 1322.5,-438.5 "/>
<text text-anchor="middle" x="1250" y="-423.3" font-family="Times,serif" font-size="14.00">value = &#39;&#39; = &#39;&#39; (61)</text>
</g>
<!-- node0x503000000460&#45;&gt;node0x503000000430 -->
<g id="edge19" class="edge">
<title>node0x503000000460&#45;&gt;node0x503000000430</title>
<path fill="none" stroke="black" d="M1250,-498.37C1250,-490.15 1250,-480.66 1250,-471.73"/>
<polygon fill="black" stroke="black" points="1253.5,-471.61 1250,-461.61 1246.5,-471.61 1253.5,-471.61"/>
</g>
<!-- node0x503000000670 -->
<g id="node21" class="node">
<title>node0x503000000670</title>
<path fill="#e0e0e0" stroke="black" d="M1507.5,-415.5C1507.5,-415.5 1680.5,-415.5 1680.5,-415.5 1686.5,-415.5 1692.5,-421.5 1692.5,-427.5 1692.5,-427.5 1692.5,-449.5 1692.5,-449.5 1692.5,-455.5 1686.5,-461.5 1680.5,-461.5 1680.5,-461.5 1507.5,-461.5 1507.5,-461.5 1501.5,-461.5 1495.5,-455.5 1495.5,-449.5 1495.5,-449.5 1495.5,-427.5 1495.5,-427.5 1495.5,-421.5 1501.5,-415.5 1507.5,-415.5"/>
<text text-anchor="middle" x="1594" y="-446.3" font-family="Times,serif" font-size="14.00">type = 2 (OP)</text>
<polyline fill="none" stroke="black" points="1495.5,-438.5 1692.5,-438.5 "/>
<text text-anchor="middle" x="1594" y="-423.3" font-family="Times,serif" font-size="14.00">value = &#39;&#39; SHUTUP &#39;&#39; (59)</text>
</g>
<!-- node0x503000000460&#45;&gt;node0x503000000670 -->
<g id="edge20" class="edge">
<title>node0x503000000460&#45;&gt;node0x503000000670</title>
<path fill="none" stroke="black" d="M1343.55,-498.47C1389.05,-487.76 1443.88,-474.85 1490.63,-463.84"/>
<polygon fill="black" stroke="black" points="1491.54,-467.22 1500.47,-461.52 1489.94,-460.41 1491.54,-467.22"/>
</g>
<!-- node0x503000000280 -->
<g id="node18" class="node">
<title>node0x503000000280</title>
<path fill="#ff5050" stroke="black" d="M568.5,-332.5C568.5,-332.5 843.5,-332.5 843.5,-332.5 849.5,-332.5 855.5,-338.5 855.5,-344.5 855.5,-344.5 855.5,-366.5 855.5,-366.5 855.5,-372.5 849.5,-378.5 843.5,-378.5 843.5,-378.5 568.5,-378.5 568.5,-378.5 562.5,-378.5 556.5,-372.5 556.5,-366.5 556.5,-366.5 556.5,-344.5 556.5,-344.5 556.5,-338.5 562.5,-332.5 568.5,-332.5"/>
<text text-anchor="middle" x="706" y="-363.3" font-family="Times,serif" font-size="14.00">type = 3 (ID)</text>
<polyline fill="none" stroke="black" points="556.5,-355.5 855.5,-355.5 "/>
<text text-anchor="middle" x="706" y="-340.3" font-family="Times,serif" font-size="14.00">number of name in name table = &#39;&#39; 22 &#39;&#39;</text>
</g>
<!-- node0x5030000002e0&#45;&gt;node0x503000000280 -->
<g id="edge17" class="edge">
<title>node0x5030000002e0&#45;&gt;node0x503000000280</title>
<path fill="none" stroke="black" d="M875.64,-415.47C845.72,-405.07 809.85,-392.6 778.81,-381.81"/>
<polygon fill="black" stroke="black" points="779.94,-378.5 769.35,-378.52 777.64,-385.11 779.94,-378.5"/>
</g>
<!-- node0x5030000002b0 -->
<g id="node19" class="node">
<title>node0x5030000002b0</title>
<path fill="#ffd700" stroke="black" d="M885.5,-332.5C885.5,-332.5 992.5,-332.5 992.5,-332.5 998.5,-332.5 1004.5,-338.5 1004.5,-344.5 1004.5,-344.5 1004.5,-366.5 1004.5,-366.5 1004.5,-372.5 998.5,-378.5 992.5,-378.5 992.5,-378.5 885.5,-378.5 885.5,-378.5 879.5,-378.5 873.5,-372.5 873.5,-366.5 873.5,-366.5 873.5,-344.5 873.5,-344.5 873.5,-338.5 879.5,-332.5 885.5,-332.5"/>
<text text-anchor="middle" x="939" y="-363.3" font-family="Times,serif" font-size="14.00">type = 1 (NUM)</text>
<polyline fill="none" stroke="black" points="873.5,-355.5 1004.5,-355.5 "/>
<text text-anchor="middle" x="939" y="-340.3" font-family="Times,serif" font-size="14.00">value = &#39;&#39; 5 &#39;&#39;</text>
</g>
<!-- node0x5030000002e0&#45;&gt;node0x5030000002b0 -->
<g id="edge18" class="edge">
<title>node0x5030000002e0&#45;&gt;node0x5030000002b0</title>
<path fill="none" stroke="black" d="M939,-415.37C939,-407.15 939,-397.66 939,-388.73"/>
<polygon fill="black" stroke="black" points="942.5,-388.61 939,-378.61 935.5,-388.61 942.5,-388.61"/>
</g>
<!-- node0x503000000370 -->
<g id="node22" class="node">
<title>node0x503000000370</title>
<path fill="#ff5050" stroke="black" d="M1034.5,-332.5C1034.5,-332.5 1309.5,-332.5 1309.5,-332.5 1315.5,-332.5 1321.5,-338.5 1321.5,-344.5 1321.5,-344.5 1321.5,-366.5 1321.5,-366.5 1321.5,-372.5 1315.5,-378.5 1309.5,-378.5 1309.5,-378.5 1034.5,-378.5 1034.5,-378.5 1028.5,-378.5 1022.5,-372.5 1022.5,-366.5 1022.5,-366.5 1022.5,-344.5 1022.5,-344.5 1022.5,-338.5 1028.5,-332.5 1034.5,-332.5"/>
<text text-anchor="middle" x="1172" y="-363.3" font-family="Times,serif" font-size="14.00">type = 3 (ID)</text>
<polyline fill="none" stroke="black" points="1022.5,-355.5 1321.5,-355.5 "/>
<text text-anchor="middle" x="1172" y="-340.3" font-family="Times,serif" font-size="14.00">number of name in name table = &#39;&#39; 22 &#39;&#39;</text>
</g>
<!-- node0x503000000430&#45;&gt;node0x503000000370 -->
<g id="edge21" class="edge">
<title>node0x503000000430&#45;&gt;node0x503000000370</title>
<path fill="none" stroke="black" d="M1228.69,-415.37C1219.92,-406.26 1209.63,-395.58 1200.25,-385.83"/>
<polygon fill="black" stroke="black" points="1202.75,-383.38 1193.29,-378.61 1197.7,-388.24 1202.75,-383.38"/>
</g>
<!-- node0x503000000400 -->
<g id="node23" class="node">
<title>node0x503000000400</title>
<path fill="#00ffdd" stroke="black" d="M1351.5,-332.5C1351.5,-332.5 1492.5,-332.5 1492.5,-332.5 1498.5,-332.5 1504.5,-338.5 1504.5,-344.5 1504.5,-344.5 1504.5,-366.5 1504.5,-366.5 1504.5,-372.5 1498.5,-378.5 1492.5,-378.5 1492.5,-378.5 1351.5,-378.5 1351.5,-378.5 1345.5,-378.5 1339.5,-372.5 1339.5,-366.5 1339.5,-366.5 1339.5,-344.5 1339.5,-344.5 1339.5,-338.5 1345.5,-332.5 1351.5,-332.5"/>
<text text-anchor="middle" x="1422" y="-363.3" font-family="Times,serif" font-size="14.00">type = 2 (OP)</text>
<polyline fill="none" stroke="black" points="1339.5,-355.5 1504.5,-355.5 "/>
<text text-anchor="middle" x="1422" y="-340.3" font-family="Times,serif" font-size="14.00">value = &#39;&#39; SUB &#39;&#39; (45)</text>
</g>
<!-- node0x503000000430&#45;&gt;node0x503000000400 -->
<g id="edge22" class="edge">
<title>node0x503000000430&#45;&gt;node0x503000000400</title>
<path fill="none" stroke="black" d="M1297,-415.37C1318.24,-405.37 1343.5,-393.47 1365.73,-383"/>
<polygon fill="black" stroke="black" points="1367.5,-386.03 1375.06,-378.61 1364.52,-379.7 1367.5,-386.03"/>
</g>
<!-- node0x503000000640 -->
<g id="node26" class="node">
<title>node0x503000000640</title>
<path fill="#00801a" stroke="black" d="M1577.5,-332.5C1577.5,-332.5 1766.5,-332.5 1766.5,-332.5 1772.5,-332.5 1778.5,-338.5 1778.5,-344.5 1778.5,-344.5 1778.5,-366.5 1778.5,-366.5 1778.5,-372.5 1772.5,-378.5 1766.5,-378.5 1766.5,-378.5 1577.5,-378.5 1577.5,-378.5 1571.5,-378.5 1565.5,-372.5 1565.5,-366.5 1565.5,-366.5 1565.5,-344.5 1565.5,-344.5 1565.5,-338.5 1571.5,-332.5 1577.5,-332.5"/>
<text text-anchor="middle" x="1672" y="-363.3" font-family="Times,serif" font-size="14.00">type = 2 (OP)</text>
<polyline fill="none" stroke="black" points="1565.5,-355.5 1778.5,-355.5 "/>
<text text-anchor="middle" x="1672" y="-340.3" font-family="Times,serif" font-size="14.00">value = &#39;&#39; FORREAL &#39;&#39; (105)</text>
</g>
<!-- node0x503000000670&#45;&gt;node0x503000000640 -->
<g id="edge25" class="edge">
<title>node0x503000000670&#45;&gt;node0x503000000640</title>
<path fill="none" stroke="black" d="M1615.31,-415.37C1624.08,-406.26 1634.37,-395.58 1643.75,-385.83"/>
<polygon fill="black" stroke="black" points="1646.3,-388.24 1650.71,-378.61 1641.25,-383.38 1646.3,-388.24"/>
</g>
<!-- node0x5030000003a0 -->
<g id="node24" class="node">
<title>node0x5030000003a0</title>
<path fill="#ff5050" stroke="black" d="M967.5,-249.5C967.5,-249.5 1242.5,-249.5 1242.5,-249.5 1248.5,-249.5 1254.5,-255.5 1254.5,-261.5 1254.5,-261.5 1254.5,-283.5 1254.5,-283.5 1254.5,-289.5 1248.5,-295.5 1242.5,-295.5 1242.5,-295.5 967.5,-295.5 967.5,-295.5 961.5,-295.5 955.5,-289.5 955.5,-283.5 955.5,-283.5 955.5,-261.5 955.5,-261.5 955.5,-255.5 961.5,-249.5 967.5,-249.5"/>
<text text-anchor="middle" x="1105" y="-280.3" font-family="Times,serif" font-size="14.00">type = 3 (ID)</text>
<polyline fill="none" stroke="black" points="955.5,-272.5 1254.5,-272.5 "/>
<text text-anchor="middle" x="1105" y="-257.3" font-family="Times,serif" font-size="14.00">number of name in name table = &#39;&#39; 22 &#39;&#39;</text>
</g>
<!-- node0x503000000400&#45;&gt;node0x5030000003a0 -->
<g id="edge23" class="edge">
<title>node0x503000000400&#45;&gt;node0x5030000003a0</title>
<path fill="none" stroke="black" d="M1339.13,-333.32C1296.83,-322.52 1245.15,-309.31 1201.11,-298.06"/>
<polygon fill="black" stroke="black" points="1201.82,-294.63 1191.26,-295.54 1200.08,-301.41 1201.82,-294.63"/>
</g>
<!-- node0x5030000003d0 -->
<g id="node25" class="node">
<title>node0x5030000003d0</title>
<path fill="#ff5050" stroke="black" d="M1284.5,-249.5C1284.5,-249.5 1559.5,-249.5 1559.5,-249.5 1565.5,-249.5 1571.5,-255.5 1571.5,-261.5 1571.5,-261.5 1571.5,-283.5 1571.5,-283.5 1571.5,-289.5 1565.5,-295.5 1559.5,-295.5 1559.5,-295.5 1284.5,-295.5 1284.5,-295.5 1278.5,-295.5 1272.5,-289.5 1272.5,-283.5 1272.5,-283.5 1272.5,-261.5 1272.5,-261.5 1272.5,-255.5 1278.5,-249.5 1284.5,-249.5"/>
<text text-anchor="middle" x="1422" y="-280.3" font-family="Times,serif" font-size="14.00">type = 3 (ID)</text>
<polyline fill="none" stroke="black" points="1272.5,-272.5 1571.5,-272.5 "/>
<text text-anchor="middle" x="1422" y="-257.3" font-family="Times,serif" font-size="14.00">number of name in name table = &#39;&#39; 21 &#39;&#39;</text>
</g>
<!-- node0x503000000400&#45;&gt;node0x5030000003d0 -->
<g id="edge24" class="edge">
<title>node0x503000000400&#45;&gt;node0x5030000003d0</title>
<path fill="none" stroke="black" d="M1422,-332.37C1422,-324.15 1422,-314.66 1422,-305.73"/>
<polygon fill="black" stroke="black" points="1425.5,-305.61 1422,-295.61 1418.5,-305.61 1425.5,-305.61"/>
</g>
<!-- node0x5030000004f0 -->
<g id="node27" class="node">
<title>node0x5030000004f0</title>
<path fill="#00ffdd" stroke="black" d="M1601.5,-249.5C1601.5,-249.5 1742.5,-249.5 1742.5,-249.5 1748.5,-249.5 1754.5,-255.5 1754.5,-261.5 1754.5,-261.5 1754.5,-283.5 1754.5,-283.5 1754.5,-289.5 1748.5,-295.5 1742.5,-295.5 1742.5,-295.5 1601.5,-295.5 1601.5,-295.5 1595.5,-295.5 1589.5,-289.5 1589.5,-283.5 1589.5,-283.5 1589.5,-261.5 1589.5,-261.5 1589.5,-255.5 1595.5,-249.5 1601.5,-249.5"/>
<text text-anchor="middle" x="1672" y="-280.3" font-family="Times,serif" font-size="14.00">type = 2 (OP)</text>
<polyline fill="none" stroke="black" points="1589.5,-272.5 1754.5,-272.5 "/>
<text text-anchor="middle" x="1672" y="-257.3" font-family="Times,serif" font-size="14.00">value = &#39;&#39; SUB &#39;&#39; (45)</text>
</g>
<!-- node0x503000000640&#45;&gt;node0x5030000004f0 -->
<g id="edge26" class="edge">
<title>node0x503000000640&#45;&gt;node0x5030000004f0</title>
<path fill="none" stroke="black" d="M1672,-332.37C1672,-324.15 1672,-314.66 1672,-305.73"/>
<polygon fill="black" stroke="black" points="1675.5,-305.61 1672,-295.61 1668.5,-305.61 1675.5,-305.61"/>
</g>
<!-- node0x503000000610 -->
<g id="node28" class="node">
<title>node0x503000000610</title>
<path fill="#e0e0e0" stroke="black" d="M1784.5,-249.5C1784.5,-249.5 1957.5,-249.5 1957.5,-249.5 1963.5,-249.5 1969.5,-255.5 1969.5,-261.5 1969.5,-261.5 1969.5,-283.5 1969.5,-283.5 1969.5,-289.5 1963.5,-295.5 1957.5,-295.5 1957.5,-295.5 1784.5,-295.5 1784.5,-295.5 1778.5,-295.5 1772.5,-289.5 1772.5,-283.5 1772.5,-283.5 1772.5,-261.5 1772.5,-261.5 1772.5,-255.5 1778.5,-249.5 1784.5,-249.5"/>
<text text-anchor="middle" x="1871" y="-280.3" font-family="Times,serif" font-size="14.00">type = 2 (OP)</text>
<polyline fill="none" stroke="black" points="1772.5,-272.5 1969.5,-272.5 "/>
<text text-anchor="middle" x="1871" y="-257.3" font-family="Times,serif" font-size="14.00">value = &#39;&#39; SHUTUP &#39;&#39; (59)</text>
</g>
<!-- node0x503000000640&#45;&gt;node0x503000000610 -->
<g id="edge27" class="edge">
<title>node0x503000000640&#45;&gt;node0x503000000610</title>
<path fill="none" stroke="black" d="M1726.11,-332.47C1751.23,-322.25 1781.25,-310.03 1807.44,-299.37"/>
<polygon fill="black" stroke="black" points="1808.95,-302.53 1816.9,-295.52 1806.31,-296.05 1808.95,-302.53"/>
</g>
<!-- node0x503000000490 -->
<g id="node29" class="node">
<title>node0x503000000490</title>
<path fill="#ff5050" stroke="black" d="M1323.5,-166.5C1323.5,-166.5 1598.5,-166.5 1598.5,-166.5 1604.5,-166.5 1610.5,-172.5 1610.5,-178.5 1610.5,-178.5 1610.5,-200.5 1610.5,-200.5 1610.5,-206.5 1604.5,-212.5 1598.5,-212.5 1598.5,-212.5 1323.5,-212.5 1323.5,-212.5 1317.5,-212.5 1311.5,-206.5 1311.5,-200.5 1311.5,-200.5 1311.5,-178.5 1311.5,-178.5 1311.5,-172.5 1317.5,-166.5 1323.5,-166.5"/>
<text text-anchor="middle" x="1461" y="-197.3" font-family="Times,serif" font-size="14.00">type = 3 (ID)</text>
<polyline fill="none" stroke="black" points="1311.5,-189.5 1610.5,-189.5 "/>
<text text-anchor="middle" x="1461" y="-174.3" font-family="Times,serif" font-size="14.00">number of name in name table = &#39;&#39; 21 &#39;&#39;</text>
</g>
<!-- node0x5030000004f0&#45;&gt;node0x503000000490 -->
<g id="edge28" class="edge">
<title>node0x5030000004f0&#45;&gt;node0x503000000490</title>
<path fill="none" stroke="black" d="M1614.62,-249.47C1587.88,-239.21 1555.88,-226.92 1528.03,-216.23"/>
<polygon fill="black" stroke="black" points="1528.96,-212.84 1518.37,-212.52 1526.45,-219.37 1528.96,-212.84"/>
</g>
<!-- node0x5030000004c0 -->
<g id="node30" class="node">
<title>node0x5030000004c0</title>
<path fill="#ffd700" stroke="black" d="M1640.5,-166.5C1640.5,-166.5 1747.5,-166.5 1747.5,-166.5 1753.5,-166.5 1759.5,-172.5 1759.5,-178.5 1759.5,-178.5 1759.5,-200.5 1759.5,-200.5 1759.5,-206.5 1753.5,-212.5 1747.5,-212.5 1747.5,-212.5 1640.5,-212.5 1640.5,-212.5 1634.5,-212.5 1628.5,-206.5 1628.5,-200.5 1628.5,-200.5 1628.5,-178.5 1628.5,-178.5 1628.5,-172.5 1634.5,-166.5 1640.5,-166.5"/>
<text text-anchor="middle" x="1694" y="-197.3" font-family="Times,serif" font-size="14.00">type = 1 (NUM)</text>
<polyline fill="none" stroke="black" points="1628.5,-189.5 1759.5,-189.5 "/>
<text text-anchor="middle" x="1694" y="-174.3" font-family="Times,serif" font-size="14.00">value = &#39;&#39; 14 &#39;&#39;</text>
</g>
<!-- node0x5030000004f0&#45;&gt;node0x5030000004c0 -->
<g id="edge29" class="edge">
<title>node0x5030000004f0&#45;&gt;node0x5030000004c0</title>
<path fill="none" stroke="black" d="M1678.01,-249.37C1680.27,-241.06 1682.88,-231.45 1685.33,-222.43"/>
<polygon fill="black" stroke="black" points="1688.75,-223.17 1688,-212.61 1682,-221.34 1688.75,-223.17"/>
</g>
<!-- node0x5030000005e0 -->
<g id="node31" class="node">
<title>node0x5030000005e0</title>
<path fill="#00ffdd" stroke="black" d="M1810.5,-166.5C1810.5,-166.5 1931.5,-166.5 1931.5,-166.5 1937.5,-166.5 1943.5,-172.5 1943.5,-178.5 1943.5,-178.5 1943.5,-200.5 1943.5,-200.5 1943.5,-206.5 1937.5,-212.5 1931.5,-212.5 1931.5,-212.5 1810.5,-212.5 1810.5,-212.5 1804.5,-212.5 1798.5,-206.5 1798.5,-200.5 1798.5,-200.5 1798.5,-178.5 1798.5,-178.5 1798.5,-172.5 1804.5,-166.5 1810.5,-166.5"/>
<text text-anchor="middle" x="1871" y="-197.3" font-family="Times,serif" font-size="14.00">type = 2 (OP)</text>
<polyline fill="none" stroke="black" points="1798.5,-189.5 1943.5,-189.5 "/>
<text text-anchor="middle" x="1871" y="-174.3" font-family="Times,serif" font-size="14.00">value = &#39;&#39; = &#39;&#39; (61)</text>
</g>
<!-- node0x503000000610&#45;&gt;node0x5030000005e0 -->
<g id="edge30" class="edge">
<title>node0x503000000610&#45;&gt;node0x5030000005e0</title>
<path fill="none" stroke="black" d="M1871,-249.37C1871,-241.15 1871,-231.66 1871,-222.73"/>
<polygon fill="black" stroke="black" points="1874.5,-222.61 1871,-212.61 1867.5,-222.61 1874.5,-222.61"/>
</g>
<!-- node0x503000000520 -->
<g id="node32" class="node">
<title>node0x503000000520</title>
<path fill="#ff5050" stroke="black" d="M1608.5,-83.5C1608.5,-83.5 1883.5,-83.5 1883.5,-83.5 1889.5,-83.5 1895.5,-89.5 1895.5,-95.5 1895.5,-95.5 1895.5,-117.5 1895.5,-117.5 1895.5,-123.5 1889.5,-129.5 1883.5,-129.5 1883.5,-129.5 1608.5,-129.5 1608.5,-129.5 1602.5,-129.5 1596.5,-123.5 1596.5,-117.5 1596.5,-117.5 1596.5,-95.5 1596.5,-95.5 1596.5,-89.5 1602.5,-83.5 1608.5,-83.5"/>
<text text-anchor="middle" x="1746" y="-114.3" font-family="Times,serif" font-size="14.00">type = 3 (ID)</text>
<polyline fill="none" stroke="black" points="1596.5,-106.5 1895.5,-106.5 "/>
<text text-anchor="middle" x="1746" y="-91.3" font-family="Times,serif" font-size="14.00">number of name in name table = &#39;&#39; 21 &#39;&#39;</text>
</g>
<!-- node0x5030000005e0&#45;&gt;node0x503000000520 -->
<g id="edge31" class="edge">
<title>node0x5030000005e0&#45;&gt;node0x503000000520</title>
<path fill="none" stroke="black" d="M1836.84,-166.37C1821.96,-156.72 1804.36,-145.32 1788.63,-135.13"/>
<polygon fill="black" stroke="black" points="1790.41,-132.11 1780.12,-129.61 1786.6,-137.98 1790.41,-132.11"/>
</g>
<!-- node0x5030000005b0 -->
<g id="node33" class="node">
<title>node0x5030000005b0</title>
<path fill="#00ffdd" stroke="black" d="M1925.5,-83.5C1925.5,-83.5 2066.5,-83.5 2066.5,-83.5 2072.5,-83.5 2078.5,-89.5 2078.5,-95.5 2078.5,-95.5 2078.5,-117.5 2078.5,-117.5 2078.5,-123.5 2072.5,-129.5 2066.5,-129.5 2066.5,-129.5 1925.5,-129.5 1925.5,-129.5 1919.5,-129.5 1913.5,-123.5 1913.5,-117.5 1913.5,-117.5 1913.5,-95.5 1913.5,-95.5 1913.5,-89.5 1919.5,-83.5 1925.5,-83.5"/>
<text text-anchor="middle" x="1996" y="-114.3" font-family="Times,serif" font-size="14.00">type = 2 (OP)</text>
<polyline fill="none" stroke="black" points="1913.5,-106.5 2078.5,-106.5 "/>
<text text-anchor="middle" x="1996" y="-91.3" font-family="Times,serif" font-size="14.00">value = &#39;&#39; SUB &#39;&#39; (45)</text>
</g>
<!-- node0x5030000005e0&#45;&gt;node0x5030000005b0 -->
<g id="edge32" class="edge">
<title>node0x5030000005e0&#45;&gt;node0x5030000005b0</title>
<path fill="none" stroke="black" d="M1905.16,-166.37C1920.04,-156.72 1937.64,-145.32 1953.37,-135.13"/>
<polygon fill="black" stroke="black" points="1955.4,-137.98 1961.88,-129.61 1951.59,-132.11 1955.4,-137.98"/>
</g>
<!-- node0x503000000550 -->
<g id="node34" class="node">
<title>node0x503000000550</title>
<path fill="#ff5050" stroke="black" d="M1741.5,-0.5C1741.5,-0.5 2016.5,-0.5 2016.5,-0.5 2022.5,-0.5 2028.5,-6.5 2028.5,-12.5 2028.5,-12.5 2028.5,-34.5 2028.5,-34.5 2028.5,-40.5 2022.5,-46.5 2016.5,-46.5 2016.5,-46.5 1741.5,-46.5 1741.5,-46.5 1735.5,-46.5 1729.5,-40.5 1729.5,-34.5 1729.5,-34.5 1729.5,-12.5 1729.5,-12.5 1729.5,-6.5 1735.5,-0.5 1741.5,-0.5"/>
<text text-anchor="middle" x="1879" y="-31.3" font-family="Times,serif" font-size="14.00">type = 3 (ID)</text>
<polyline fill="none" stroke="black" points="1729.5,-23.5 2028.5,-23.5 "/>
<text text-anchor="middle" x="1879" y="-8.3" font-family="Times,serif" font-size="14.00">number of name in name table = &#39;&#39; 21 &#39;&#39;</text>
</g>
<!-- node0x5030000005b0&#45;&gt;node0x503000000550 -->
<g id="edge33" class="edge">
<title>node0x5030000005b0&#45;&gt;node0x503000000550</title>
<path fill="none" stroke="black" d="M1964.03,-83.37C1950.23,-73.81 1933.93,-62.53 1919.31,-52.41"/>
<polygon fill="black" stroke="black" points="1921.15,-49.42 1910.93,-46.61 1917.16,-55.18 1921.15,-49.42"/>
</g>
<!-- node0x503000000580 -->
<g id="node35" class="node">
<title>node0x503000000580</title>
<path fill="#ffd700" stroke="black" d="M2058.5,-0.5C2058.5,-0.5 2165.5,-0.5 2165.5,-0.5 2171.5,-0.5 2177.5,-6.5 2177.5,-12.5 2177.5,-12.5 2177.5,-34.5 2177.5,-34.5 2177.5,-40.5 2171.5,-46.5 2165.5,-46.5 2165.5,-46.5 2058.5,-46.5 2058.5,-46.5 2052.5,-46.5 2046.5,-40.5 2046.5,-34.5 2046.5,-34.5 2046.5,-12.5 2046.5,-12.5 2046.5,-6.5 2052.5,-0.5 2058.5,-0.5"/>
<text text-anchor="middle" x="2112" y="-31.3" font-family="Times,serif" font-size="14.00">type = 1 (NUM)</text>
<polyline fill="none" stroke="black" points="2046.5,-23.5 2177.5,-23.5 "/>
<text text-anchor="middle" x="2112" y="-8.3" font-family="Times,serif" font-size="14.00">value = &#39;&#39; 2 &#39;&#39;</text>
</g>
<!-- node0x5030000005b0&#45;&gt;node0x503000000580 -->
<g id="edge34" class="edge">
<title>node0x5030000005b0&#45;&gt;node0x503000000580</title>
<path fill="none" stroke="black" d="M2027.7,-83.37C2041.38,-73.81 2057.54,-62.53 2072.03,-52.41"/>
<polygon fill="black" stroke="black" points="2074.15,-55.2 2080.34,-46.61 2070.14,-49.46 2074.15,-55.2"/>
</g>
</g>
</svg>
