<?xml version="1.0" encoding="UTF-8" standalone="no"?>
<!DOCTYPE svg PUBLIC "-//W3C//DTD SVG 1.1//EN"
 "http://www.w3.org/Graphics/SVG/1.1/DTD/svg11.dtd">
<!-- Generated by graphviz version 2.43.0 (0)
 -->
<!-- Title: %3 Pages: 1 -->
<svg width="2090pt" height="719pt"
 viewBox="0.00 0.00 2090.00 719.00" xmlns="http://www.w3.org/2000/svg" xmlns:xlink="http://www.w3.org/1999/xlink">
<g id="graph0" class="graph" transform="scale(1 1) rotate(0) translate(4 715)">
<title>%3</title>
<!-- node0x5030000004c0 -->
<g id="node1" class="node">
<title>node0x5030000004c0</title>
<path fill="#a0a0a0" stroke="black" d="M800.5,-664.5C800.5,-664.5 1036.5,-664.5 1036.5,-664.5 1042.5,-664.5 1048.5,-670.5 1048.5,-676.5 1048.5,-676.5 1048.5,-698.5 1048.5,-698.5 1048.5,-704.5 1042.5,-710.5 1036.5,-710.5 1036.5,-710.5 800.5,-710.5 800.5,-710.5 794.5,-710.5 788.5,-704.5 788.5,-698.5 788.5,-698.5 788.5,-676.5 788.5,-676.5 788.5,-670.5 794.5,-664.5 800.5,-664.5"/>
<text text-anchor="middle" x="918.5" y="-695.3" font-family="Times,serif" font-size="14.00">type = 4 (FUNC)</text>
<polyline fill="none" stroke="black" points="788.5,-687.5 1048.5,-687.5 "/>
<text text-anchor="middle" x="918.5" y="-672.3" font-family="Times,serif" font-size="14.00">value = &#39;&#39; NEXT FUNCTION &#39;&#39; (64)</text>
</g>
<!-- node0x503000000490 -->
<g id="node2" class="node">
<title>node0x503000000490</title>
<path fill="#755cf7" stroke="black" d="M688.5,-581.5C688.5,-581.5 888.5,-581.5 888.5,-581.5 894.5,-581.5 900.5,-587.5 900.5,-593.5 900.5,-593.5 900.5,-615.5 900.5,-615.5 900.5,-621.5 894.5,-627.5 888.5,-627.5 888.5,-627.5 688.5,-627.5 688.5,-627.5 682.5,-627.5 676.5,-621.5 676.5,-615.5 676.5,-615.5 676.5,-593.5 676.5,-593.5 676.5,-587.5 682.5,-581.5 688.5,-581.5"/>
<text text-anchor="middle" x="788.5" y="-612.3" font-family="Times,serif" font-size="14.00">type = 4 (FUNC)</text>
<polyline fill="none" stroke="black" points="676.5,-604.5 900.5,-604.5 "/>
<text text-anchor="middle" x="788.5" y="-589.3" font-family="Times,serif" font-size="14.00">value = &#39;&#39; DEFINITION &#39;&#39; (68)</text>
</g>
<!-- node0x5030000004c0&#45;&gt;node0x503000000490 -->
<g id="edge1" class="edge">
<title>node0x5030000004c0&#45;&gt;node0x503000000490</title>
<path fill="none" stroke="black" d="M882.98,-664.37C867.5,-654.72 849.19,-643.32 832.84,-633.13"/>
<polygon fill="black" stroke="black" points="834.32,-629.92 823.98,-627.61 830.62,-635.87 834.32,-629.92"/>
</g>
<!-- node0x5030000006a0 -->
<g id="node3" class="node">
<title>node0x5030000006a0</title>
<path fill="#a0a0a0" stroke="black" d="M1078.5,-581.5C1078.5,-581.5 1314.5,-581.5 1314.5,-581.5 1320.5,-581.5 1326.5,-587.5 1326.5,-593.5 1326.5,-593.5 1326.5,-615.5 1326.5,-615.5 1326.5,-621.5 1320.5,-627.5 1314.5,-627.5 1314.5,-627.5 1078.5,-627.5 1078.5,-627.5 1072.5,-627.5 1066.5,-621.5 1066.5,-615.5 1066.5,-615.5 1066.5,-593.5 1066.5,-593.5 1066.5,-587.5 1072.5,-581.5 1078.5,-581.5"/>
<text text-anchor="middle" x="1196.5" y="-612.3" font-family="Times,serif" font-size="14.00">type = 4 (FUNC)</text>
<polyline fill="none" stroke="black" points="1066.5,-604.5 1326.5,-604.5 "/>
<text text-anchor="middle" x="1196.5" y="-589.3" font-family="Times,serif" font-size="14.00">value = &#39;&#39; NEXT FUNCTION &#39;&#39; (64)</text>
</g>
<!-- node0x5030000004c0&#45;&gt;node0x5030000006a0 -->
<g id="edge2" class="edge">
<title>node0x5030000004c0&#45;&gt;node0x5030000006a0</title>
<path fill="none" stroke="black" d="M994.1,-664.47C1030.26,-653.94 1073.7,-641.28 1111.06,-630.39"/>
<polygon fill="black" stroke="black" points="1112.3,-633.68 1120.92,-627.52 1110.34,-626.96 1112.3,-633.68"/>
</g>
<!-- node0x5030000000d0 -->
<g id="node4" class="node">
<title>node0x5030000000d0</title>
<path fill="#f069f5" stroke="black" d="M430,-498.5C430,-498.5 577,-498.5 577,-498.5 583,-498.5 589,-504.5 589,-510.5 589,-510.5 589,-532.5 589,-532.5 589,-538.5 583,-544.5 577,-544.5 577,-544.5 430,-544.5 430,-544.5 424,-544.5 418,-538.5 418,-532.5 418,-532.5 418,-510.5 418,-510.5 418,-504.5 424,-498.5 430,-498.5"/>
<text text-anchor="middle" x="503.5" y="-529.3" font-family="Times,serif" font-size="14.00">type = 4 (FUNC)</text>
<polyline fill="none" stroke="black" points="418,-521.5 589,-521.5 "/>
<text text-anchor="middle" x="503.5" y="-506.3" font-family="Times,serif" font-size="14.00">value = &#39;&#39; CALL &#39;&#39; (67)</text>
</g>
<!-- node0x503000000490&#45;&gt;node0x5030000000d0 -->
<g id="edge3" class="edge">
<title>node0x503000000490&#45;&gt;node0x5030000000d0</title>
<path fill="none" stroke="black" d="M711,-581.47C673.93,-570.94 629.39,-558.28 591.09,-547.39"/>
<polygon fill="black" stroke="black" points="591.56,-543.89 580.99,-544.52 589.65,-550.62 591.56,-543.89"/>
</g>
<!-- node0x503000000190 -->
<g id="node5" class="node">
<title>node0x503000000190</title>
<path fill="#e0e0e0" stroke="black" d="M702,-498.5C702,-498.5 875,-498.5 875,-498.5 881,-498.5 887,-504.5 887,-510.5 887,-510.5 887,-532.5 887,-532.5 887,-538.5 881,-544.5 875,-544.5 875,-544.5 702,-544.5 702,-544.5 696,-544.5 690,-538.5 690,-532.5 690,-532.5 690,-510.5 690,-510.5 690,-504.5 696,-498.5 702,-498.5"/>
<text text-anchor="middle" x="788.5" y="-529.3" font-family="Times,serif" font-size="14.00">type = 2 (OP)</text>
<polyline fill="none" stroke="black" points="690,-521.5 887,-521.5 "/>
<text text-anchor="middle" x="788.5" y="-506.3" font-family="Times,serif" font-size="14.00">value = &#39;&#39; SHUTUP &#39;&#39; (59)</text>
</g>
<!-- node0x503000000490&#45;&gt;node0x503000000190 -->
<g id="edge4" class="edge">
<title>node0x503000000490&#45;&gt;node0x503000000190</title>
<path fill="none" stroke="black" d="M788.5,-581.37C788.5,-573.15 788.5,-563.66 788.5,-554.73"/>
<polygon fill="black" stroke="black" points="792,-554.61 788.5,-544.61 785,-554.61 792,-554.61"/>
</g>
<!-- node0x503000000670 -->
<g id="node27" class="node">
<title>node0x503000000670</title>
<path fill="#755cf7" stroke="black" d="M1269.5,-498.5C1269.5,-498.5 1469.5,-498.5 1469.5,-498.5 1475.5,-498.5 1481.5,-504.5 1481.5,-510.5 1481.5,-510.5 1481.5,-532.5 1481.5,-532.5 1481.5,-538.5 1475.5,-544.5 1469.5,-544.5 1469.5,-544.5 1269.5,-544.5 1269.5,-544.5 1263.5,-544.5 1257.5,-538.5 1257.5,-532.5 1257.5,-532.5 1257.5,-510.5 1257.5,-510.5 1257.5,-504.5 1263.5,-498.5 1269.5,-498.5"/>
<text text-anchor="middle" x="1369.5" y="-529.3" font-family="Times,serif" font-size="14.00">type = 4 (FUNC)</text>
<polyline fill="none" stroke="black" points="1257.5,-521.5 1481.5,-521.5 "/>
<text text-anchor="middle" x="1369.5" y="-506.3" font-family="Times,serif" font-size="14.00">value = &#39;&#39; DEFINITION &#39;&#39; (68)</text>
</g>
<!-- node0x5030000006a0&#45;&gt;node0x503000000670 -->
<g id="edge26" class="edge">
<title>node0x5030000006a0&#45;&gt;node0x503000000670</title>
<path fill="none" stroke="black" d="M1243.77,-581.37C1265.23,-571.32 1290.77,-559.36 1313.21,-548.86"/>
<polygon fill="black" stroke="black" points="1314.71,-552.02 1322.28,-544.61 1311.74,-545.68 1314.71,-552.02"/>
</g>
<!-- node0x503000000040 -->
<g id="node6" class="node">
<title>node0x503000000040</title>
<path fill="#2ee31e" stroke="black" d="M262.5,-415.5C262.5,-415.5 404.5,-415.5 404.5,-415.5 410.5,-415.5 416.5,-421.5 416.5,-427.5 416.5,-427.5 416.5,-449.5 416.5,-449.5 416.5,-455.5 410.5,-461.5 404.5,-461.5 404.5,-461.5 262.5,-461.5 262.5,-461.5 256.5,-461.5 250.5,-455.5 250.5,-449.5 250.5,-449.5 250.5,-427.5 250.5,-427.5 250.5,-421.5 256.5,-415.5 262.5,-415.5"/>
<text text-anchor="middle" x="333.5" y="-446.3" font-family="Times,serif" font-size="14.00">type = 4 (FUNC)</text>
<polyline fill="none" stroke="black" points="250.5,-438.5 416.5,-438.5 "/>
<text text-anchor="middle" x="333.5" y="-423.3" font-family="Times,serif" font-size="14.00">value = &#39;&#39; carti &#39;&#39; (20)</text>
</g>
<!-- node0x5030000000d0&#45;&gt;node0x503000000040 -->
<g id="edge5" class="edge">
<title>node0x5030000000d0&#45;&gt;node0x503000000040</title>
<path fill="none" stroke="black" d="M457.05,-498.37C436.06,-488.37 411.09,-476.47 389.11,-466"/>
<polygon fill="black" stroke="black" points="390.43,-462.75 379.9,-461.61 387.42,-469.07 390.43,-462.75"/>
</g>
<!-- node0x5030000000a0 -->
<g id="node7" class="node">
<title>node0x5030000000a0</title>
<path fill="#feaadf" stroke="black" d="M447,-415.5C447,-415.5 560,-415.5 560,-415.5 566,-415.5 572,-421.5 572,-427.5 572,-427.5 572,-449.5 572,-449.5 572,-455.5 566,-461.5 560,-461.5 560,-461.5 447,-461.5 447,-461.5 441,-461.5 435,-455.5 435,-449.5 435,-449.5 435,-427.5 435,-427.5 435,-421.5 441,-415.5 447,-415.5"/>
<text text-anchor="middle" x="503.5" y="-446.3" font-family="Times,serif" font-size="14.00">type = 4 (FUNC)</text>
<polyline fill="none" stroke="black" points="435,-438.5 572,-438.5 "/>
<text text-anchor="middle" x="503.5" y="-423.3" font-family="Times,serif" font-size="14.00">value = &#39;&#39; , &#39;&#39; (44)</text>
</g>
<!-- node0x5030000000d0&#45;&gt;node0x5030000000a0 -->
<g id="edge6" class="edge">
<title>node0x5030000000d0&#45;&gt;node0x5030000000a0</title>
<path fill="none" stroke="black" d="M503.5,-498.37C503.5,-490.15 503.5,-480.66 503.5,-471.73"/>
<polygon fill="black" stroke="black" points="507,-471.61 503.5,-461.61 500,-471.61 507,-471.61"/>
</g>
<!-- node0x503000000160 -->
<g id="node9" class="node">
<title>node0x503000000160</title>
<path fill="#00ffdd" stroke="black" d="M623,-415.5C623,-415.5 744,-415.5 744,-415.5 750,-415.5 756,-421.5 756,-427.5 756,-427.5 756,-449.5 756,-449.5 756,-455.5 750,-461.5 744,-461.5 744,-461.5 623,-461.5 623,-461.5 617,-461.5 611,-455.5 611,-449.5 611,-449.5 611,-427.5 611,-427.5 611,-421.5 617,-415.5 623,-415.5"/>
<text text-anchor="middle" x="683.5" y="-446.3" font-family="Times,serif" font-size="14.00">type = 2 (OP)</text>
<polyline fill="none" stroke="black" points="611,-438.5 756,-438.5 "/>
<text text-anchor="middle" x="683.5" y="-423.3" font-family="Times,serif" font-size="14.00">value = &#39;&#39; = &#39;&#39; (61)</text>
</g>
<!-- node0x503000000190&#45;&gt;node0x503000000160 -->
<g id="edge8" class="edge">
<title>node0x503000000190&#45;&gt;node0x503000000160</title>
<path fill="none" stroke="black" d="M759.81,-498.37C747.65,-488.99 733.34,-477.95 720.41,-467.98"/>
<polygon fill="black" stroke="black" points="722.21,-464.94 712.16,-461.61 717.94,-470.49 722.21,-464.94"/>
</g>
<!-- node0x503000000250 -->
<g id="node10" class="node">
<title>node0x503000000250</title>
<path fill="#e0e0e0" stroke="black" d="M786,-415.5C786,-415.5 959,-415.5 959,-415.5 965,-415.5 971,-421.5 971,-427.5 971,-427.5 971,-449.5 971,-449.5 971,-455.5 965,-461.5 959,-461.5 959,-461.5 786,-461.5 786,-461.5 780,-461.5 774,-455.5 774,-449.5 774,-449.5 774,-427.5 774,-427.5 774,-421.5 780,-415.5 786,-415.5"/>
<text text-anchor="middle" x="872.5" y="-446.3" font-family="Times,serif" font-size="14.00">type = 2 (OP)</text>
<polyline fill="none" stroke="black" points="774,-438.5 971,-438.5 "/>
<text text-anchor="middle" x="872.5" y="-423.3" font-family="Times,serif" font-size="14.00">value = &#39;&#39; SHUTUP &#39;&#39; (59)</text>
</g>
<!-- node0x503000000190&#45;&gt;node0x503000000250 -->
<g id="edge9" class="edge">
<title>node0x503000000190&#45;&gt;node0x503000000250</title>
<path fill="none" stroke="black" d="M811.45,-498.37C820.99,-489.17 832.19,-478.37 842.38,-468.55"/>
<polygon fill="black" stroke="black" points="844.81,-471.07 849.57,-461.61 839.95,-466.03 844.81,-471.07"/>
</g>
<!-- node0x503000000070 -->
<g id="node8" class="node">
<title>node0x503000000070</title>
<path fill="#ff5050" stroke="black" d="M12,-332.5C12,-332.5 287,-332.5 287,-332.5 293,-332.5 299,-338.5 299,-344.5 299,-344.5 299,-366.5 299,-366.5 299,-372.5 293,-378.5 287,-378.5 287,-378.5 12,-378.5 12,-378.5 6,-378.5 0,-372.5 0,-366.5 0,-366.5 0,-344.5 0,-344.5 0,-338.5 6,-332.5 12,-332.5"/>
<text text-anchor="middle" x="149.5" y="-363.3" font-family="Times,serif" font-size="14.00">type = 3 (ID)</text>
<polyline fill="none" stroke="black" points="0,-355.5 299,-355.5 "/>
<text text-anchor="middle" x="149.5" y="-340.3" font-family="Times,serif" font-size="14.00">number of name in name table = &#39;&#39; 21 &#39;&#39;</text>
</g>
<!-- node0x5030000000a0&#45;&gt;node0x503000000070 -->
<g id="edge7" class="edge">
<title>node0x5030000000a0&#45;&gt;node0x503000000070</title>
<path fill="none" stroke="black" d="M434.67,-417.35C431.58,-416.54 428.51,-415.75 425.5,-415 375.6,-402.53 320.19,-390.45 272.2,-380.53"/>
<polygon fill="black" stroke="black" points="272.89,-377.1 262.39,-378.51 271.47,-383.96 272.89,-377.1"/>
</g>
<!-- node0x503000000100 -->
<g id="node11" class="node">
<title>node0x503000000100</title>
<path fill="#ff5050" stroke="black" d="M329,-332.5C329,-332.5 604,-332.5 604,-332.5 610,-332.5 616,-338.5 616,-344.5 616,-344.5 616,-366.5 616,-366.5 616,-372.5 610,-378.5 604,-378.5 604,-378.5 329,-378.5 329,-378.5 323,-378.5 317,-372.5 317,-366.5 317,-366.5 317,-344.5 317,-344.5 317,-338.5 323,-332.5 329,-332.5"/>
<text text-anchor="middle" x="466.5" y="-363.3" font-family="Times,serif" font-size="14.00">type = 3 (ID)</text>
<polyline fill="none" stroke="black" points="317,-355.5 616,-355.5 "/>
<text text-anchor="middle" x="466.5" y="-340.3" font-family="Times,serif" font-size="14.00">number of name in name table = &#39;&#39; 22 &#39;&#39;</text>
</g>
<!-- node0x503000000160&#45;&gt;node0x503000000100 -->
<g id="edge10" class="edge">
<title>node0x503000000160&#45;&gt;node0x503000000100</title>
<path fill="none" stroke="black" d="M624.49,-415.47C596.86,-405.16 563.79,-392.82 535.06,-382.09"/>
<polygon fill="black" stroke="black" points="536.09,-378.74 525.5,-378.52 533.64,-385.3 536.09,-378.74"/>
</g>
<!-- node0x503000000130 -->
<g id="node12" class="node">
<title>node0x503000000130</title>
<path fill="#ffd700" stroke="black" d="M646,-332.5C646,-332.5 753,-332.5 753,-332.5 759,-332.5 765,-338.5 765,-344.5 765,-344.5 765,-366.5 765,-366.5 765,-372.5 759,-378.5 753,-378.5 753,-378.5 646,-378.5 646,-378.5 640,-378.5 634,-372.5 634,-366.5 634,-366.5 634,-344.5 634,-344.5 634,-338.5 640,-332.5 646,-332.5"/>
<text text-anchor="middle" x="699.5" y="-363.3" font-family="Times,serif" font-size="14.00">type = 1 (NUM)</text>
<polyline fill="none" stroke="black" points="634,-355.5 765,-355.5 "/>
<text text-anchor="middle" x="699.5" y="-340.3" font-family="Times,serif" font-size="14.00">value = &#39;&#39; 25 &#39;&#39;</text>
</g>
<!-- node0x503000000160&#45;&gt;node0x503000000130 -->
<g id="edge11" class="edge">
<title>node0x503000000160&#45;&gt;node0x503000000130</title>
<path fill="none" stroke="black" d="M687.87,-415.37C689.51,-407.06 691.41,-397.45 693.19,-388.43"/>
<polygon fill="black" stroke="black" points="696.63,-389.1 695.13,-378.61 689.76,-387.74 696.63,-389.1"/>
</g>
<!-- node0x503000000220 -->
<g id="node13" class="node">
<title>node0x503000000220</title>
<path fill="#00ffdd" stroke="black" d="M795,-332.5C795,-332.5 916,-332.5 916,-332.5 922,-332.5 928,-338.5 928,-344.5 928,-344.5 928,-366.5 928,-366.5 928,-372.5 922,-378.5 916,-378.5 916,-378.5 795,-378.5 795,-378.5 789,-378.5 783,-372.5 783,-366.5 783,-366.5 783,-344.5 783,-344.5 783,-338.5 789,-332.5 795,-332.5"/>
<text text-anchor="middle" x="855.5" y="-363.3" font-family="Times,serif" font-size="14.00">type = 2 (OP)</text>
<polyline fill="none" stroke="black" points="783,-355.5 928,-355.5 "/>
<text text-anchor="middle" x="855.5" y="-340.3" font-family="Times,serif" font-size="14.00">value = &#39;&#39; = &#39;&#39; (61)</text>
</g>
<!-- node0x503000000250&#45;&gt;node0x503000000220 -->
<g id="edge12" class="edge">
<title>node0x503000000250&#45;&gt;node0x503000000220</title>
<path fill="none" stroke="black" d="M867.85,-415.37C866.11,-407.06 864.09,-397.45 862.2,-388.43"/>
<polygon fill="black" stroke="black" points="865.62,-387.67 860.14,-378.61 858.77,-389.11 865.62,-387.67"/>
</g>
<!-- node0x5030000003a0 -->
<g id="node14" class="node">
<title>node0x5030000003a0</title>
<path fill="#e0e0e0" stroke="black" d="M958,-332.5C958,-332.5 1131,-332.5 1131,-332.5 1137,-332.5 1143,-338.5 1143,-344.5 1143,-344.5 1143,-366.5 1143,-366.5 1143,-372.5 1137,-378.5 1131,-378.5 1131,-378.5 958,-378.5 958,-378.5 952,-378.5 946,-372.5 946,-366.5 946,-366.5 946,-344.5 946,-344.5 946,-338.5 952,-332.5 958,-332.5"/>
<text text-anchor="middle" x="1044.5" y="-363.3" font-family="Times,serif" font-size="14.00">type = 2 (OP)</text>
<polyline fill="none" stroke="black" points="946,-355.5 1143,-355.5 "/>
<text text-anchor="middle" x="1044.5" y="-340.3" font-family="Times,serif" font-size="14.00">value = &#39;&#39; SHUTUP &#39;&#39; (59)</text>
</g>
<!-- node0x503000000250&#45;&gt;node0x5030000003a0 -->
<g id="edge13" class="edge">
<title>node0x503000000250&#45;&gt;node0x5030000003a0</title>
<path fill="none" stroke="black" d="M919.5,-415.37C940.74,-405.37 966,-393.47 988.23,-383"/>
<polygon fill="black" stroke="black" points="990,-386.03 997.56,-378.61 987.02,-379.7 990,-386.03"/>
</g>
<!-- node0x5030000001c0 -->
<g id="node15" class="node">
<title>node0x5030000001c0</title>
<path fill="#ff5050" stroke="black" d="M485,-249.5C485,-249.5 760,-249.5 760,-249.5 766,-249.5 772,-255.5 772,-261.5 772,-261.5 772,-283.5 772,-283.5 772,-289.5 766,-295.5 760,-295.5 760,-295.5 485,-295.5 485,-295.5 479,-295.5 473,-289.5 473,-283.5 473,-283.5 473,-261.5 473,-261.5 473,-255.5 479,-249.5 485,-249.5"/>
<text text-anchor="middle" x="622.5" y="-280.3" font-family="Times,serif" font-size="14.00">type = 3 (ID)</text>
<polyline fill="none" stroke="black" points="473,-272.5 772,-272.5 "/>
<text text-anchor="middle" x="622.5" y="-257.3" font-family="Times,serif" font-size="14.00">number of name in name table = &#39;&#39; 23 &#39;&#39;</text>
</g>
<!-- node0x503000000220&#45;&gt;node0x5030000001c0 -->
<g id="edge14" class="edge">
<title>node0x503000000220&#45;&gt;node0x5030000001c0</title>
<path fill="none" stroke="black" d="M792.14,-332.47C762.22,-322.07 726.35,-309.6 695.31,-298.81"/>
<polygon fill="black" stroke="black" points="696.44,-295.5 685.85,-295.52 694.14,-302.11 696.44,-295.5"/>
</g>
<!-- node0x5030000001f0 -->
<g id="node16" class="node">
<title>node0x5030000001f0</title>
<path fill="#ffd700" stroke="black" d="M802,-249.5C802,-249.5 909,-249.5 909,-249.5 915,-249.5 921,-255.5 921,-261.5 921,-261.5 921,-283.5 921,-283.5 921,-289.5 915,-295.5 909,-295.5 909,-295.5 802,-295.5 802,-295.5 796,-295.5 790,-289.5 790,-283.5 790,-283.5 790,-261.5 790,-261.5 790,-255.5 796,-249.5 802,-249.5"/>
<text text-anchor="middle" x="855.5" y="-280.3" font-family="Times,serif" font-size="14.00">type = 1 (NUM)</text>
<polyline fill="none" stroke="black" points="790,-272.5 921,-272.5 "/>
<text text-anchor="middle" x="855.5" y="-257.3" font-family="Times,serif" font-size="14.00">value = &#39;&#39; 10 &#39;&#39;</text>
</g>
<!-- node0x503000000220&#45;&gt;node0x5030000001f0 -->
<g id="edge15" class="edge">
<title>node0x503000000220&#45;&gt;node0x5030000001f0</title>
<path fill="none" stroke="black" d="M855.5,-332.37C855.5,-324.15 855.5,-314.66 855.5,-305.73"/>
<polygon fill="black" stroke="black" points="859,-305.61 855.5,-295.61 852,-305.61 859,-305.61"/>
</g>
<!-- node0x503000000370 -->
<g id="node17" class="node">
<title>node0x503000000370</title>
<path fill="#00ffdd" stroke="black" d="M951,-249.5C951,-249.5 1072,-249.5 1072,-249.5 1078,-249.5 1084,-255.5 1084,-261.5 1084,-261.5 1084,-283.5 1084,-283.5 1084,-289.5 1078,-295.5 1072,-295.5 1072,-295.5 951,-295.5 951,-295.5 945,-295.5 939,-289.5 939,-283.5 939,-283.5 939,-261.5 939,-261.5 939,-255.5 945,-249.5 951,-249.5"/>
<text text-anchor="middle" x="1011.5" y="-280.3" font-family="Times,serif" font-size="14.00">type = 2 (OP)</text>
<polyline fill="none" stroke="black" points="939,-272.5 1084,-272.5 "/>
<text text-anchor="middle" x="1011.5" y="-257.3" font-family="Times,serif" font-size="14.00">value = &#39;&#39; = &#39;&#39; (61)</text>
</g>
<!-- node0x5030000003a0&#45;&gt;node0x503000000370 -->
<g id="edge16" class="edge">
<title>node0x5030000003a0&#45;&gt;node0x503000000370</title>
<path fill="none" stroke="black" d="M1035.48,-332.37C1032.06,-323.97 1028.1,-314.24 1024.39,-305.14"/>
<polygon fill="black" stroke="black" points="1027.52,-303.55 1020.51,-295.61 1021.04,-306.19 1027.52,-303.55"/>
</g>
<!-- node0x503000000460 -->
<g id="node18" class="node">
<title>node0x503000000460</title>
<path fill="#e0e0e0" stroke="black" d="M1114,-249.5C1114,-249.5 1287,-249.5 1287,-249.5 1293,-249.5 1299,-255.5 1299,-261.5 1299,-261.5 1299,-283.5 1299,-283.5 1299,-289.5 1293,-295.5 1287,-295.5 1287,-295.5 1114,-295.5 1114,-295.5 1108,-295.5 1102,-289.5 1102,-283.5 1102,-283.5 1102,-261.5 1102,-261.5 1102,-255.5 1108,-249.5 1114,-249.5"/>
<text text-anchor="middle" x="1200.5" y="-280.3" font-family="Times,serif" font-size="14.00">type = 2 (OP)</text>
<polyline fill="none" stroke="black" points="1102,-272.5 1299,-272.5 "/>
<text text-anchor="middle" x="1200.5" y="-257.3" font-family="Times,serif" font-size="14.00">value = &#39;&#39; SHUTUP &#39;&#39; (59)</text>
</g>
<!-- node0x5030000003a0&#45;&gt;node0x503000000460 -->
<g id="edge17" class="edge">
<title>node0x5030000003a0&#45;&gt;node0x503000000460</title>
<path fill="none" stroke="black" d="M1087.13,-332.37C1106.22,-322.46 1128.89,-310.68 1148.93,-300.28"/>
<polygon fill="black" stroke="black" points="1150.66,-303.32 1157.92,-295.61 1147.44,-297.11 1150.66,-303.32"/>
</g>
<!-- node0x503000000280 -->
<g id="node19" class="node">
<title>node0x503000000280</title>
<path fill="#ff5050" stroke="black" d="M621,-166.5C621,-166.5 896,-166.5 896,-166.5 902,-166.5 908,-172.5 908,-178.5 908,-178.5 908,-200.5 908,-200.5 908,-206.5 902,-212.5 896,-212.5 896,-212.5 621,-212.5 621,-212.5 615,-212.5 609,-206.5 609,-200.5 609,-200.5 609,-178.5 609,-178.5 609,-172.5 615,-166.5 621,-166.5"/>
<text text-anchor="middle" x="758.5" y="-197.3" font-family="Times,serif" font-size="14.00">type = 3 (ID)</text>
<polyline fill="none" stroke="black" points="609,-189.5 908,-189.5 "/>
<text text-anchor="middle" x="758.5" y="-174.3" font-family="Times,serif" font-size="14.00">number of name in name table = &#39;&#39; 22 &#39;&#39;</text>
</g>
<!-- node0x503000000370&#45;&gt;node0x503000000280 -->
<g id="edge18" class="edge">
<title>node0x503000000370&#45;&gt;node0x503000000280</title>
<path fill="none" stroke="black" d="M942.7,-249.47C910.07,-239.03 870.93,-226.49 837.13,-215.67"/>
<polygon fill="black" stroke="black" points="837.88,-212.24 827.29,-212.52 835.74,-218.9 837.88,-212.24"/>
</g>
<!-- node0x503000000340 -->
<g id="node20" class="node">
<title>node0x503000000340</title>
<path fill="#f069f5" stroke="black" d="M938,-166.5C938,-166.5 1085,-166.5 1085,-166.5 1091,-166.5 1097,-172.5 1097,-178.5 1097,-178.5 1097,-200.5 1097,-200.5 1097,-206.5 1091,-212.5 1085,-212.5 1085,-212.5 938,-212.5 938,-212.5 932,-212.5 926,-206.5 926,-200.5 926,-200.5 926,-178.5 926,-178.5 926,-172.5 932,-166.5 938,-166.5"/>
<text text-anchor="middle" x="1011.5" y="-197.3" font-family="Times,serif" font-size="14.00">type = 4 (FUNC)</text>
<polyline fill="none" stroke="black" points="926,-189.5 1097,-189.5 "/>
<text text-anchor="middle" x="1011.5" y="-174.3" font-family="Times,serif" font-size="14.00">value = &#39;&#39; CALL &#39;&#39; (67)</text>
</g>
<!-- node0x503000000370&#45;&gt;node0x503000000340 -->
<g id="edge19" class="edge">
<title>node0x503000000370&#45;&gt;node0x503000000340</title>
<path fill="none" stroke="black" d="M1011.5,-249.37C1011.5,-241.15 1011.5,-231.66 1011.5,-222.73"/>
<polygon fill="black" stroke="black" points="1015,-222.61 1011.5,-212.61 1008,-222.61 1015,-222.61"/>
</g>
<!-- node0x503000000430 -->
<g id="node24" class="node">
<title>node0x503000000430</title>
<path fill="#00ffdd" stroke="black" d="M1187,-166.5C1187,-166.5 1308,-166.5 1308,-166.5 1314,-166.5 1320,-172.5 1320,-178.5 1320,-178.5 1320,-200.5 1320,-200.5 1320,-206.5 1314,-212.5 1308,-212.5 1308,-212.5 1187,-212.5 1187,-212.5 1181,-212.5 1175,-206.5 1175,-200.5 1175,-200.5 1175,-178.5 1175,-178.5 1175,-172.5 1181,-166.5 1187,-166.5"/>
<text text-anchor="middle" x="1247.5" y="-197.3" font-family="Times,serif" font-size="14.00">type = 2 (OP)</text>
<polyline fill="none" stroke="black" points="1175,-189.5 1320,-189.5 "/>
<text text-anchor="middle" x="1247.5" y="-174.3" font-family="Times,serif" font-size="14.00">value = &#39;&#39; = &#39;&#39; (61)</text>
</g>
<!-- node0x503000000460&#45;&gt;node0x503000000430 -->
<g id="edge23" class="edge">
<title>node0x503000000460&#45;&gt;node0x503000000430</title>
<path fill="none" stroke="black" d="M1213.34,-249.37C1218.37,-240.71 1224.22,-230.62 1229.64,-221.27"/>
<polygon fill="black" stroke="black" points="1232.68,-223.01 1234.67,-212.61 1226.63,-219.5 1232.68,-223.01"/>
</g>
<!-- node0x5030000002b0 -->
<g id="node21" class="node">
<title>node0x5030000002b0</title>
<path fill="#2ee31e" stroke="black" d="M774.5,-83.5C774.5,-83.5 912.5,-83.5 912.5,-83.5 918.5,-83.5 924.5,-89.5 924.5,-95.5 924.5,-95.5 924.5,-117.5 924.5,-117.5 924.5,-123.5 918.5,-129.5 912.5,-129.5 912.5,-129.5 774.5,-129.5 774.5,-129.5 768.5,-129.5 762.5,-123.5 762.5,-117.5 762.5,-117.5 762.5,-95.5 762.5,-95.5 762.5,-89.5 768.5,-83.5 774.5,-83.5"/>
<text text-anchor="middle" x="843.5" y="-114.3" font-family="Times,serif" font-size="14.00">type = 4 (FUNC)</text>
<polyline fill="none" stroke="black" points="762.5,-106.5 924.5,-106.5 "/>
<text text-anchor="middle" x="843.5" y="-91.3" font-family="Times,serif" font-size="14.00">value = &#39;&#39; eval &#39;&#39; (24)</text>
</g>
<!-- node0x503000000340&#45;&gt;node0x5030000002b0 -->
<g id="edge20" class="edge">
<title>node0x503000000340&#45;&gt;node0x5030000002b0</title>
<path fill="none" stroke="black" d="M965.59,-166.37C944.85,-156.37 920.18,-144.47 898.46,-134"/>
<polygon fill="black" stroke="black" points="899.88,-130.8 889.35,-129.61 896.84,-137.1 899.88,-130.8"/>
</g>
<!-- node0x503000000310 -->
<g id="node22" class="node">
<title>node0x503000000310</title>
<path fill="#feaadf" stroke="black" d="M955,-83.5C955,-83.5 1068,-83.5 1068,-83.5 1074,-83.5 1080,-89.5 1080,-95.5 1080,-95.5 1080,-117.5 1080,-117.5 1080,-123.5 1074,-129.5 1068,-129.5 1068,-129.5 955,-129.5 955,-129.5 949,-129.5 943,-123.5 943,-117.5 943,-117.5 943,-95.5 943,-95.5 943,-89.5 949,-83.5 955,-83.5"/>
<text text-anchor="middle" x="1011.5" y="-114.3" font-family="Times,serif" font-size="14.00">type = 4 (FUNC)</text>
<polyline fill="none" stroke="black" points="943,-106.5 1080,-106.5 "/>
<text text-anchor="middle" x="1011.5" y="-91.3" font-family="Times,serif" font-size="14.00">value = &#39;&#39; , &#39;&#39; (44)</text>
</g>
<!-- node0x503000000340&#45;&gt;node0x503000000310 -->
<g id="edge21" class="edge">
<title>node0x503000000340&#45;&gt;node0x503000000310</title>
<path fill="none" stroke="black" d="M1011.5,-166.37C1011.5,-158.15 1011.5,-148.66 1011.5,-139.73"/>
<polygon fill="black" stroke="black" points="1015,-139.61 1011.5,-129.61 1008,-139.61 1015,-139.61"/>
</g>
<!-- node0x5030000002e0 -->
<g id="node23" class="node">
<title>node0x5030000002e0</title>
<path fill="#ff5050" stroke="black" d="M874,-0.5C874,-0.5 1149,-0.5 1149,-0.5 1155,-0.5 1161,-6.5 1161,-12.5 1161,-12.5 1161,-34.5 1161,-34.5 1161,-40.5 1155,-46.5 1149,-46.5 1149,-46.5 874,-46.5 874,-46.5 868,-46.5 862,-40.5 862,-34.5 862,-34.5 862,-12.5 862,-12.5 862,-6.5 868,-0.5 874,-0.5"/>
<text text-anchor="middle" x="1011.5" y="-31.3" font-family="Times,serif" font-size="14.00">type = 3 (ID)</text>
<polyline fill="none" stroke="black" points="862,-23.5 1161,-23.5 "/>
<text text-anchor="middle" x="1011.5" y="-8.3" font-family="Times,serif" font-size="14.00">number of name in name table = &#39;&#39; 23 &#39;&#39;</text>
</g>
<!-- node0x503000000310&#45;&gt;node0x5030000002e0 -->
<g id="edge22" class="edge">
<title>node0x503000000310&#45;&gt;node0x5030000002e0</title>
<path fill="none" stroke="black" d="M1011.5,-83.37C1011.5,-75.15 1011.5,-65.66 1011.5,-56.73"/>
<polygon fill="black" stroke="black" points="1015,-56.61 1011.5,-46.61 1008,-56.61 1015,-56.61"/>
</g>
<!-- node0x5030000003d0 -->
<g id="node25" class="node">
<title>node0x5030000003d0</title>
<path fill="#ff5050" stroke="black" d="M1110,-83.5C1110,-83.5 1385,-83.5 1385,-83.5 1391,-83.5 1397,-89.5 1397,-95.5 1397,-95.5 1397,-117.5 1397,-117.5 1397,-123.5 1391,-129.5 1385,-129.5 1385,-129.5 1110,-129.5 1110,-129.5 1104,-129.5 1098,-123.5 1098,-117.5 1098,-117.5 1098,-95.5 1098,-95.5 1098,-89.5 1104,-83.5 1110,-83.5"/>
<text text-anchor="middle" x="1247.5" y="-114.3" font-family="Times,serif" font-size="14.00">type = 3 (ID)</text>
<polyline fill="none" stroke="black" points="1098,-106.5 1397,-106.5 "/>
<text text-anchor="middle" x="1247.5" y="-91.3" font-family="Times,serif" font-size="14.00">number of name in name table = &#39;&#39; 22 &#39;&#39;</text>
</g>
<!-- node0x503000000430&#45;&gt;node0x5030000003d0 -->
<g id="edge24" class="edge">
<title>node0x503000000430&#45;&gt;node0x5030000003d0</title>
<path fill="none" stroke="black" d="M1247.5,-166.37C1247.5,-158.15 1247.5,-148.66 1247.5,-139.73"/>
<polygon fill="black" stroke="black" points="1251,-139.61 1247.5,-129.61 1244,-139.61 1251,-139.61"/>
</g>
<!-- node0x503000000400 -->
<g id="node26" class="node">
<title>node0x503000000400</title>
<path fill="#ff5050" stroke="black" d="M1427,-83.5C1427,-83.5 1702,-83.5 1702,-83.5 1708,-83.5 1714,-89.5 1714,-95.5 1714,-95.5 1714,-117.5 1714,-117.5 1714,-123.5 1708,-129.5 1702,-129.5 1702,-129.5 1427,-129.5 1427,-129.5 1421,-129.5 1415,-123.5 1415,-117.5 1415,-117.5 1415,-95.5 1415,-95.5 1415,-89.5 1421,-83.5 1427,-83.5"/>
<text text-anchor="middle" x="1564.5" y="-114.3" font-family="Times,serif" font-size="14.00">type = 3 (ID)</text>
<polyline fill="none" stroke="black" points="1415,-106.5 1714,-106.5 "/>
<text text-anchor="middle" x="1564.5" y="-91.3" font-family="Times,serif" font-size="14.00">number of name in name table = &#39;&#39; 22 &#39;&#39;</text>
</g>
<!-- node0x503000000430&#45;&gt;node0x503000000400 -->
<g id="edge25" class="edge">
<title>node0x503000000430&#45;&gt;node0x503000000400</title>
<path fill="none" stroke="black" d="M1320.23,-169.92C1364.26,-158.67 1420.94,-144.18 1468.61,-132"/>
<polygon fill="black" stroke="black" points="1469.5,-135.39 1478.33,-129.52 1467.77,-128.6 1469.5,-135.39"/>
</g>
<!-- node0x503000000580 -->
<g id="node28" class="node">
<title>node0x503000000580</title>
<path fill="#f069f5" stroke="black" d="M1296,-415.5C1296,-415.5 1443,-415.5 1443,-415.5 1449,-415.5 1455,-421.5 1455,-427.5 1455,-427.5 1455,-449.5 1455,-449.5 1455,-455.5 1449,-461.5 1443,-461.5 1443,-461.5 1296,-461.5 1296,-461.5 1290,-461.5 1284,-455.5 1284,-449.5 1284,-449.5 1284,-427.5 1284,-427.5 1284,-421.5 1290,-415.5 1296,-415.5"/>
<text text-anchor="middle" x="1369.5" y="-446.3" font-family="Times,serif" font-size="14.00">type = 4 (FUNC)</text>
<polyline fill="none" stroke="black" points="1284,-438.5 1455,-438.5 "/>
<text text-anchor="middle" x="1369.5" y="-423.3" font-family="Times,serif" font-size="14.00">value = &#39;&#39; CALL &#39;&#39; (67)</text>
</g>
<!-- node0x503000000670&#45;&gt;node0x503000000580 -->
<g id="edge27" class="edge">
<title>node0x503000000670&#45;&gt;node0x503000000580</title>
<path fill="none" stroke="black" d="M1369.5,-498.37C1369.5,-490.15 1369.5,-480.66 1369.5,-471.73"/>
<polygon fill="black" stroke="black" points="1373,-471.61 1369.5,-461.61 1366,-471.61 1373,-471.61"/>
</g>
<!-- node0x503000000640 -->
<g id="node29" class="node">
<title>node0x503000000640</title>
<path fill="#e0e0e0" stroke="black" d="M1626,-415.5C1626,-415.5 1799,-415.5 1799,-415.5 1805,-415.5 1811,-421.5 1811,-427.5 1811,-427.5 1811,-449.5 1811,-449.5 1811,-455.5 1805,-461.5 1799,-461.5 1799,-461.5 1626,-461.5 1626,-461.5 1620,-461.5 1614,-455.5 1614,-449.5 1614,-449.5 1614,-427.5 1614,-427.5 1614,-421.5 1620,-415.5 1626,-415.5"/>
<text text-anchor="middle" x="1712.5" y="-446.3" font-family="Times,serif" font-size="14.00">type = 2 (OP)</text>
<polyline fill="none" stroke="black" points="1614,-438.5 1811,-438.5 "/>
<text text-anchor="middle" x="1712.5" y="-423.3" font-family="Times,serif" font-size="14.00">value = &#39;&#39; SHUTUP &#39;&#39; (59)</text>
</g>
<!-- node0x503000000670&#45;&gt;node0x503000000640 -->
<g id="edge28" class="edge">
<title>node0x503000000670&#45;&gt;node0x503000000640</title>
<path fill="none" stroke="black" d="M1462.77,-498.47C1508.15,-487.76 1562.82,-474.85 1609.43,-463.84"/>
<polygon fill="black" stroke="black" points="1610.32,-467.23 1619.25,-461.52 1608.71,-460.41 1610.32,-467.23"/>
</g>
<!-- node0x5030000004f0 -->
<g id="node30" class="node">
<title>node0x5030000004f0</title>
<path fill="#2ee31e" stroke="black" d="M1229.5,-332.5C1229.5,-332.5 1367.5,-332.5 1367.5,-332.5 1373.5,-332.5 1379.5,-338.5 1379.5,-344.5 1379.5,-344.5 1379.5,-366.5 1379.5,-366.5 1379.5,-372.5 1373.5,-378.5 1367.5,-378.5 1367.5,-378.5 1229.5,-378.5 1229.5,-378.5 1223.5,-378.5 1217.5,-372.5 1217.5,-366.5 1217.5,-366.5 1217.5,-344.5 1217.5,-344.5 1217.5,-338.5 1223.5,-332.5 1229.5,-332.5"/>
<text text-anchor="middle" x="1298.5" y="-363.3" font-family="Times,serif" font-size="14.00">type = 4 (FUNC)</text>
<polyline fill="none" stroke="black" points="1217.5,-355.5 1379.5,-355.5 "/>
<text text-anchor="middle" x="1298.5" y="-340.3" font-family="Times,serif" font-size="14.00">value = &#39;&#39; eval &#39;&#39; (24)</text>
</g>
<!-- node0x503000000580&#45;&gt;node0x5030000004f0 -->
<g id="edge29" class="edge">
<title>node0x503000000580&#45;&gt;node0x5030000004f0</title>
<path fill="none" stroke="black" d="M1350.1,-415.37C1342.27,-406.44 1333.12,-396 1324.72,-386.41"/>
<polygon fill="black" stroke="black" points="1327.1,-383.82 1317.88,-378.61 1321.84,-388.43 1327.1,-383.82"/>
</g>
<!-- node0x503000000550 -->
<g id="node31" class="node">
<title>node0x503000000550</title>
<path fill="#feaadf" stroke="black" d="M1410,-332.5C1410,-332.5 1523,-332.5 1523,-332.5 1529,-332.5 1535,-338.5 1535,-344.5 1535,-344.5 1535,-366.5 1535,-366.5 1535,-372.5 1529,-378.5 1523,-378.5 1523,-378.5 1410,-378.5 1410,-378.5 1404,-378.5 1398,-372.5 1398,-366.5 1398,-366.5 1398,-344.5 1398,-344.5 1398,-338.5 1404,-332.5 1410,-332.5"/>
<text text-anchor="middle" x="1466.5" y="-363.3" font-family="Times,serif" font-size="14.00">type = 4 (FUNC)</text>
<polyline fill="none" stroke="black" points="1398,-355.5 1535,-355.5 "/>
<text text-anchor="middle" x="1466.5" y="-340.3" font-family="Times,serif" font-size="14.00">value = &#39;&#39; , &#39;&#39; (44)</text>
</g>
<!-- node0x503000000580&#45;&gt;node0x503000000550 -->
<g id="edge30" class="edge">
<title>node0x503000000580&#45;&gt;node0x503000000550</title>
<path fill="none" stroke="black" d="M1396.01,-415.37C1407.13,-406.08 1420.2,-395.16 1432.06,-385.26"/>
<polygon fill="black" stroke="black" points="1434.59,-387.7 1440.03,-378.61 1430.11,-382.33 1434.59,-387.7"/>
</g>
<!-- node0x503000000610 -->
<g id="node33" class="node">
<title>node0x503000000610</title>
<path fill="#00ffdd" stroke="black" d="M1723,-332.5C1723,-332.5 1844,-332.5 1844,-332.5 1850,-332.5 1856,-338.5 1856,-344.5 1856,-344.5 1856,-366.5 1856,-366.5 1856,-372.5 1850,-378.5 1844,-378.5 1844,-378.5 1723,-378.5 1723,-378.5 1717,-378.5 1711,-372.5 1711,-366.5 1711,-366.5 1711,-344.5 1711,-344.5 1711,-338.5 1717,-332.5 1723,-332.5"/>
<text text-anchor="middle" x="1783.5" y="-363.3" font-family="Times,serif" font-size="14.00">type = 2 (OP)</text>
<polyline fill="none" stroke="black" points="1711,-355.5 1856,-355.5 "/>
<text text-anchor="middle" x="1783.5" y="-340.3" font-family="Times,serif" font-size="14.00">value = &#39;&#39; = &#39;&#39; (61)</text>
</g>
<!-- node0x503000000640&#45;&gt;node0x503000000610 -->
<g id="edge32" class="edge">
<title>node0x503000000640&#45;&gt;node0x503000000610</title>
<path fill="none" stroke="black" d="M1731.9,-415.37C1739.73,-406.44 1748.88,-396 1757.28,-386.41"/>
<polygon fill="black" stroke="black" points="1760.16,-388.43 1764.12,-378.61 1754.9,-383.82 1760.16,-388.43"/>
</g>
<!-- node0x503000000520 -->
<g id="node32" class="node">
<title>node0x503000000520</title>
<path fill="#ff5050" stroke="black" d="M1329,-249.5C1329,-249.5 1604,-249.5 1604,-249.5 1610,-249.5 1616,-255.5 1616,-261.5 1616,-261.5 1616,-283.5 1616,-283.5 1616,-289.5 1610,-295.5 1604,-295.5 1604,-295.5 1329,-295.5 1329,-295.5 1323,-295.5 1317,-289.5 1317,-283.5 1317,-283.5 1317,-261.5 1317,-261.5 1317,-255.5 1323,-249.5 1329,-249.5"/>
<text text-anchor="middle" x="1466.5" y="-280.3" font-family="Times,serif" font-size="14.00">type = 3 (ID)</text>
<polyline fill="none" stroke="black" points="1317,-272.5 1616,-272.5 "/>
<text text-anchor="middle" x="1466.5" y="-257.3" font-family="Times,serif" font-size="14.00">number of name in name table = &#39;&#39; 23 &#39;&#39;</text>
</g>
<!-- node0x503000000550&#45;&gt;node0x503000000520 -->
<g id="edge31" class="edge">
<title>node0x503000000550&#45;&gt;node0x503000000520</title>
<path fill="none" stroke="black" d="M1466.5,-332.37C1466.5,-324.15 1466.5,-314.66 1466.5,-305.73"/>
<polygon fill="black" stroke="black" points="1470,-305.61 1466.5,-295.61 1463,-305.61 1470,-305.61"/>
</g>
<!-- node0x5030000005b0 -->
<g id="node34" class="node">
<title>node0x5030000005b0</title>
<path fill="#ff5050" stroke="black" d="M1646,-249.5C1646,-249.5 1921,-249.5 1921,-249.5 1927,-249.5 1933,-255.5 1933,-261.5 1933,-261.5 1933,-283.5 1933,-283.5 1933,-289.5 1927,-295.5 1921,-295.5 1921,-295.5 1646,-295.5 1646,-295.5 1640,-295.5 1634,-289.5 1634,-283.5 1634,-283.5 1634,-261.5 1634,-261.5 1634,-255.5 1640,-249.5 1646,-249.5"/>
<text text-anchor="middle" x="1783.5" y="-280.3" font-family="Times,serif" font-size="14.00">type = 3 (ID)</text>
<polyline fill="none" stroke="black" points="1634,-272.5 1933,-272.5 "/>
<text text-anchor="middle" x="1783.5" y="-257.3" font-family="Times,serif" font-size="14.00">number of name in name table = &#39;&#39; 23 &#39;&#39;</text>
</g>
<!-- node0x503000000610&#45;&gt;node0x5030000005b0 -->
<g id="edge33" class="edge">
<title>node0x503000000610&#45;&gt;node0x5030000005b0</title>
<path fill="none" stroke="black" d="M1783.5,-332.37C1783.5,-324.15 1783.5,-314.66 1783.5,-305.73"/>
<polygon fill="black" stroke="black" points="1787,-305.61 1783.5,-295.61 1780,-305.61 1787,-305.61"/>
</g>
<!-- node0x5030000005e0 -->
<g id="node35" class="node">
<title>node0x5030000005e0</title>
<path fill="#ffd700" stroke="black" d="M1963,-249.5C1963,-249.5 2070,-249.5 2070,-249.5 2076,-249.5 2082,-255.5 2082,-261.5 2082,-261.5 2082,-283.5 2082,-283.5 2082,-289.5 2076,-295.5 2070,-295.5 2070,-295.5 1963,-295.5 1963,-295.5 1957,-295.5 1951,-289.5 1951,-283.5 1951,-283.5 1951,-261.5 1951,-261.5 1951,-255.5 1957,-249.5 1963,-249.5"/>
<text text-anchor="middle" x="2016.5" y="-280.3" font-family="Times,serif" font-size="14.00">type = 1 (NUM)</text>
<polyline fill="none" stroke="black" points="1951,-272.5 2082,-272.5 "/>
<text text-anchor="middle" x="2016.5" y="-257.3" font-family="Times,serif" font-size="14.00">value = &#39;&#39; 9 &#39;&#39;</text>
</g>
<!-- node0x503000000610&#45;&gt;node0x5030000005e0 -->
<g id="edge34" class="edge">
<title>node0x503000000610&#45;&gt;node0x5030000005e0</title>
<path fill="none" stroke="black" d="M1846.86,-332.47C1876.78,-322.07 1912.65,-309.6 1943.69,-298.81"/>
<polygon fill="black" stroke="black" points="1944.86,-302.11 1953.15,-295.52 1942.56,-295.5 1944.86,-302.11"/>
</g>
</g>
</svg>
