<?xml version="1.0" encoding="UTF-8" standalone="no"?>
<!DOCTYPE svg PUBLIC "-//W3C//DTD SVG 1.1//EN"
 "http://www.w3.org/Graphics/SVG/1.1/DTD/svg11.dtd">
<!-- Generated by graphviz version 2.43.0 (0)
 -->
<!-- Title: %3 Pages: 1 -->
<svg width="2676pt" height="1051pt"
 viewBox="0.00 0.00 2676.00 1051.00" xmlns="http://www.w3.org/2000/svg" xmlns:xlink="http://www.w3.org/1999/xlink">
<g id="graph0" class="graph" transform="scale(1 1) rotate(0) translate(4 1047)">
<title>%3</title>
<!-- node0x5030000008b0 -->
<g id="node1" class="node">
<title>node0x5030000008b0</title>
<path fill="#a0a0a0" stroke="black" d="M800.5,-996.5C800.5,-996.5 1036.5,-996.5 1036.5,-996.5 1042.5,-996.5 1048.5,-1002.5 1048.5,-1008.5 1048.5,-1008.5 1048.5,-1030.5 1048.5,-1030.5 1048.5,-1036.5 1042.5,-1042.5 1036.5,-1042.5 1036.5,-1042.5 800.5,-1042.5 800.5,-1042.5 794.5,-1042.5 788.5,-1036.5 788.5,-1030.5 788.5,-1030.5 788.5,-1008.5 788.5,-1008.5 788.5,-1002.5 794.5,-996.5 800.5,-996.5"/>
<text text-anchor="middle" x="918.5" y="-1027.3" font-family="Times,serif" font-size="14.00">type = 4 (FUNC)</text>
<polyline fill="none" stroke="black" points="788.5,-1019.5 1048.5,-1019.5 "/>
<text text-anchor="middle" x="918.5" y="-1004.3" font-family="Times,serif" font-size="14.00">value = &#39;&#39; NEXT FUNCTION &#39;&#39; (64)</text>
</g>
<!-- node0x503000000880 -->
<g id="node2" class="node">
<title>node0x503000000880</title>
<path fill="#755cf7" stroke="black" d="M688.5,-913.5C688.5,-913.5 888.5,-913.5 888.5,-913.5 894.5,-913.5 900.5,-919.5 900.5,-925.5 900.5,-925.5 900.5,-947.5 900.5,-947.5 900.5,-953.5 894.5,-959.5 888.5,-959.5 888.5,-959.5 688.5,-959.5 688.5,-959.5 682.5,-959.5 676.5,-953.5 676.5,-947.5 676.5,-947.5 676.5,-925.5 676.5,-925.5 676.5,-919.5 682.5,-913.5 688.5,-913.5"/>
<text text-anchor="middle" x="788.5" y="-944.3" font-family="Times,serif" font-size="14.00">type = 4 (FUNC)</text>
<polyline fill="none" stroke="black" points="676.5,-936.5 900.5,-936.5 "/>
<text text-anchor="middle" x="788.5" y="-921.3" font-family="Times,serif" font-size="14.00">value = &#39;&#39; DEFINITION &#39;&#39; (68)</text>
</g>
<!-- node0x5030000008b0&#45;&gt;node0x503000000880 -->
<g id="edge1" class="edge">
<title>node0x5030000008b0&#45;&gt;node0x503000000880</title>
<path fill="none" stroke="black" d="M882.98,-996.37C867.5,-986.72 849.19,-975.32 832.84,-965.13"/>
<polygon fill="black" stroke="black" points="834.32,-961.92 823.98,-959.61 830.62,-967.87 834.32,-961.92"/>
</g>
<!-- node0x503000000c10 -->
<g id="node3" class="node">
<title>node0x503000000c10</title>
<path fill="#a0a0a0" stroke="black" d="M1078.5,-913.5C1078.5,-913.5 1314.5,-913.5 1314.5,-913.5 1320.5,-913.5 1326.5,-919.5 1326.5,-925.5 1326.5,-925.5 1326.5,-947.5 1326.5,-947.5 1326.5,-953.5 1320.5,-959.5 1314.5,-959.5 1314.5,-959.5 1078.5,-959.5 1078.5,-959.5 1072.5,-959.5 1066.5,-953.5 1066.5,-947.5 1066.5,-947.5 1066.5,-925.5 1066.5,-925.5 1066.5,-919.5 1072.5,-913.5 1078.5,-913.5"/>
<text text-anchor="middle" x="1196.5" y="-944.3" font-family="Times,serif" font-size="14.00">type = 4 (FUNC)</text>
<polyline fill="none" stroke="black" points="1066.5,-936.5 1326.5,-936.5 "/>
<text text-anchor="middle" x="1196.5" y="-921.3" font-family="Times,serif" font-size="14.00">value = &#39;&#39; NEXT FUNCTION &#39;&#39; (64)</text>
</g>
<!-- node0x5030000008b0&#45;&gt;node0x503000000c10 -->
<g id="edge2" class="edge">
<title>node0x5030000008b0&#45;&gt;node0x503000000c10</title>
<path fill="none" stroke="black" d="M994.1,-996.47C1030.26,-985.94 1073.7,-973.28 1111.06,-962.39"/>
<polygon fill="black" stroke="black" points="1112.3,-965.68 1120.92,-959.52 1110.34,-958.96 1112.3,-965.68"/>
</g>
<!-- node0x5030000000d0 -->
<g id="node4" class="node">
<title>node0x5030000000d0</title>
<path fill="#f069f5" stroke="black" d="M430,-830.5C430,-830.5 577,-830.5 577,-830.5 583,-830.5 589,-836.5 589,-842.5 589,-842.5 589,-864.5 589,-864.5 589,-870.5 583,-876.5 577,-876.5 577,-876.5 430,-876.5 430,-876.5 424,-876.5 418,-870.5 418,-864.5 418,-864.5 418,-842.5 418,-842.5 418,-836.5 424,-830.5 430,-830.5"/>
<text text-anchor="middle" x="503.5" y="-861.3" font-family="Times,serif" font-size="14.00">type = 4 (FUNC)</text>
<polyline fill="none" stroke="black" points="418,-853.5 589,-853.5 "/>
<text text-anchor="middle" x="503.5" y="-838.3" font-family="Times,serif" font-size="14.00">value = &#39;&#39; CALL &#39;&#39; (67)</text>
</g>
<!-- node0x503000000880&#45;&gt;node0x5030000000d0 -->
<g id="edge3" class="edge">
<title>node0x503000000880&#45;&gt;node0x5030000000d0</title>
<path fill="none" stroke="black" d="M711,-913.47C673.93,-902.94 629.39,-890.28 591.09,-879.39"/>
<polygon fill="black" stroke="black" points="591.56,-875.89 580.99,-876.52 589.65,-882.62 591.56,-875.89"/>
</g>
<!-- node0x503000000190 -->
<g id="node5" class="node">
<title>node0x503000000190</title>
<path fill="#e0e0e0" stroke="black" d="M702,-830.5C702,-830.5 875,-830.5 875,-830.5 881,-830.5 887,-836.5 887,-842.5 887,-842.5 887,-864.5 887,-864.5 887,-870.5 881,-876.5 875,-876.5 875,-876.5 702,-876.5 702,-876.5 696,-876.5 690,-870.5 690,-864.5 690,-864.5 690,-842.5 690,-842.5 690,-836.5 696,-830.5 702,-830.5"/>
<text text-anchor="middle" x="788.5" y="-861.3" font-family="Times,serif" font-size="14.00">type = 2 (OP)</text>
<polyline fill="none" stroke="black" points="690,-853.5 887,-853.5 "/>
<text text-anchor="middle" x="788.5" y="-838.3" font-family="Times,serif" font-size="14.00">value = &#39;&#39; SHUTUP &#39;&#39; (59)</text>
</g>
<!-- node0x503000000880&#45;&gt;node0x503000000190 -->
<g id="edge4" class="edge">
<title>node0x503000000880&#45;&gt;node0x503000000190</title>
<path fill="none" stroke="black" d="M788.5,-913.37C788.5,-905.15 788.5,-895.66 788.5,-886.73"/>
<polygon fill="black" stroke="black" points="792,-886.61 788.5,-876.61 785,-886.61 792,-886.61"/>
</g>
<!-- node0x503000000be0 -->
<g id="node48" class="node">
<title>node0x503000000be0</title>
<path fill="#755cf7" stroke="black" d="M1366.5,-830.5C1366.5,-830.5 1566.5,-830.5 1566.5,-830.5 1572.5,-830.5 1578.5,-836.5 1578.5,-842.5 1578.5,-842.5 1578.5,-864.5 1578.5,-864.5 1578.5,-870.5 1572.5,-876.5 1566.5,-876.5 1566.5,-876.5 1366.5,-876.5 1366.5,-876.5 1360.5,-876.5 1354.5,-870.5 1354.5,-864.5 1354.5,-864.5 1354.5,-842.5 1354.5,-842.5 1354.5,-836.5 1360.5,-830.5 1366.5,-830.5"/>
<text text-anchor="middle" x="1466.5" y="-861.3" font-family="Times,serif" font-size="14.00">type = 4 (FUNC)</text>
<polyline fill="none" stroke="black" points="1354.5,-853.5 1578.5,-853.5 "/>
<text text-anchor="middle" x="1466.5" y="-838.3" font-family="Times,serif" font-size="14.00">value = &#39;&#39; DEFINITION &#39;&#39; (68)</text>
</g>
<!-- node0x503000000c10&#45;&gt;node0x503000000be0 -->
<g id="edge47" class="edge">
<title>node0x503000000c10&#45;&gt;node0x503000000be0</title>
<path fill="none" stroke="black" d="M1269.92,-913.47C1304.89,-902.98 1346.88,-890.39 1383.05,-879.53"/>
<polygon fill="black" stroke="black" points="1384.52,-882.75 1393.09,-876.52 1382.51,-876.04 1384.52,-882.75"/>
</g>
<!-- node0x503000000040 -->
<g id="node6" class="node">
<title>node0x503000000040</title>
<path fill="#2ee31e" stroke="black" d="M262.5,-747.5C262.5,-747.5 404.5,-747.5 404.5,-747.5 410.5,-747.5 416.5,-753.5 416.5,-759.5 416.5,-759.5 416.5,-781.5 416.5,-781.5 416.5,-787.5 410.5,-793.5 404.5,-793.5 404.5,-793.5 262.5,-793.5 262.5,-793.5 256.5,-793.5 250.5,-787.5 250.5,-781.5 250.5,-781.5 250.5,-759.5 250.5,-759.5 250.5,-753.5 256.5,-747.5 262.5,-747.5"/>
<text text-anchor="middle" x="333.5" y="-778.3" font-family="Times,serif" font-size="14.00">type = 4 (FUNC)</text>
<polyline fill="none" stroke="black" points="250.5,-770.5 416.5,-770.5 "/>
<text text-anchor="middle" x="333.5" y="-755.3" font-family="Times,serif" font-size="14.00">value = &#39;&#39; carti &#39;&#39; (20)</text>
</g>
<!-- node0x5030000000d0&#45;&gt;node0x503000000040 -->
<g id="edge5" class="edge">
<title>node0x5030000000d0&#45;&gt;node0x503000000040</title>
<path fill="none" stroke="black" d="M457.05,-830.37C436.06,-820.37 411.09,-808.47 389.11,-798"/>
<polygon fill="black" stroke="black" points="390.43,-794.75 379.9,-793.61 387.42,-801.07 390.43,-794.75"/>
</g>
<!-- node0x5030000000a0 -->
<g id="node7" class="node">
<title>node0x5030000000a0</title>
<path fill="#feaadf" stroke="black" d="M447,-747.5C447,-747.5 560,-747.5 560,-747.5 566,-747.5 572,-753.5 572,-759.5 572,-759.5 572,-781.5 572,-781.5 572,-787.5 566,-793.5 560,-793.5 560,-793.5 447,-793.5 447,-793.5 441,-793.5 435,-787.5 435,-781.5 435,-781.5 435,-759.5 435,-759.5 435,-753.5 441,-747.5 447,-747.5"/>
<text text-anchor="middle" x="503.5" y="-778.3" font-family="Times,serif" font-size="14.00">type = 4 (FUNC)</text>
<polyline fill="none" stroke="black" points="435,-770.5 572,-770.5 "/>
<text text-anchor="middle" x="503.5" y="-755.3" font-family="Times,serif" font-size="14.00">value = &#39;&#39; , &#39;&#39; (44)</text>
</g>
<!-- node0x5030000000d0&#45;&gt;node0x5030000000a0 -->
<g id="edge6" class="edge">
<title>node0x5030000000d0&#45;&gt;node0x5030000000a0</title>
<path fill="none" stroke="black" d="M503.5,-830.37C503.5,-822.15 503.5,-812.66 503.5,-803.73"/>
<polygon fill="black" stroke="black" points="507,-803.61 503.5,-793.61 500,-803.61 507,-803.61"/>
</g>
<!-- node0x503000000160 -->
<g id="node9" class="node">
<title>node0x503000000160</title>
<path fill="#00ffdd" stroke="black" d="M623,-747.5C623,-747.5 744,-747.5 744,-747.5 750,-747.5 756,-753.5 756,-759.5 756,-759.5 756,-781.5 756,-781.5 756,-787.5 750,-793.5 744,-793.5 744,-793.5 623,-793.5 623,-793.5 617,-793.5 611,-787.5 611,-781.5 611,-781.5 611,-759.5 611,-759.5 611,-753.5 617,-747.5 623,-747.5"/>
<text text-anchor="middle" x="683.5" y="-778.3" font-family="Times,serif" font-size="14.00">type = 2 (OP)</text>
<polyline fill="none" stroke="black" points="611,-770.5 756,-770.5 "/>
<text text-anchor="middle" x="683.5" y="-755.3" font-family="Times,serif" font-size="14.00">value = &#39;&#39; = &#39;&#39; (61)</text>
</g>
<!-- node0x503000000190&#45;&gt;node0x503000000160 -->
<g id="edge8" class="edge">
<title>node0x503000000190&#45;&gt;node0x503000000160</title>
<path fill="none" stroke="black" d="M759.81,-830.37C747.65,-820.99 733.34,-809.95 720.41,-799.98"/>
<polygon fill="black" stroke="black" points="722.21,-796.94 712.16,-793.61 717.94,-802.49 722.21,-796.94"/>
</g>
<!-- node0x503000000250 -->
<g id="node10" class="node">
<title>node0x503000000250</title>
<path fill="#e0e0e0" stroke="black" d="M786,-747.5C786,-747.5 959,-747.5 959,-747.5 965,-747.5 971,-753.5 971,-759.5 971,-759.5 971,-781.5 971,-781.5 971,-787.5 965,-793.5 959,-793.5 959,-793.5 786,-793.5 786,-793.5 780,-793.5 774,-787.5 774,-781.5 774,-781.5 774,-759.5 774,-759.5 774,-753.5 780,-747.5 786,-747.5"/>
<text text-anchor="middle" x="872.5" y="-778.3" font-family="Times,serif" font-size="14.00">type = 2 (OP)</text>
<polyline fill="none" stroke="black" points="774,-770.5 971,-770.5 "/>
<text text-anchor="middle" x="872.5" y="-755.3" font-family="Times,serif" font-size="14.00">value = &#39;&#39; SHUTUP &#39;&#39; (59)</text>
</g>
<!-- node0x503000000190&#45;&gt;node0x503000000250 -->
<g id="edge9" class="edge">
<title>node0x503000000190&#45;&gt;node0x503000000250</title>
<path fill="none" stroke="black" d="M811.45,-830.37C820.99,-821.17 832.19,-810.37 842.38,-800.55"/>
<polygon fill="black" stroke="black" points="844.81,-803.07 849.57,-793.61 839.95,-798.03 844.81,-803.07"/>
</g>
<!-- node0x503000000070 -->
<g id="node8" class="node">
<title>node0x503000000070</title>
<path fill="#ff5050" stroke="black" d="M12,-664.5C12,-664.5 287,-664.5 287,-664.5 293,-664.5 299,-670.5 299,-676.5 299,-676.5 299,-698.5 299,-698.5 299,-704.5 293,-710.5 287,-710.5 287,-710.5 12,-710.5 12,-710.5 6,-710.5 0,-704.5 0,-698.5 0,-698.5 0,-676.5 0,-676.5 0,-670.5 6,-664.5 12,-664.5"/>
<text text-anchor="middle" x="149.5" y="-695.3" font-family="Times,serif" font-size="14.00">type = 3 (ID)</text>
<polyline fill="none" stroke="black" points="0,-687.5 299,-687.5 "/>
<text text-anchor="middle" x="149.5" y="-672.3" font-family="Times,serif" font-size="14.00">number of name in name table = &#39;&#39; 21 &#39;&#39;</text>
</g>
<!-- node0x5030000000a0&#45;&gt;node0x503000000070 -->
<g id="edge7" class="edge">
<title>node0x5030000000a0&#45;&gt;node0x503000000070</title>
<path fill="none" stroke="black" d="M434.67,-749.35C431.58,-748.54 428.51,-747.75 425.5,-747 375.6,-734.53 320.19,-722.45 272.2,-712.53"/>
<polygon fill="black" stroke="black" points="272.89,-709.1 262.39,-710.51 271.47,-715.96 272.89,-709.1"/>
</g>
<!-- node0x503000000100 -->
<g id="node11" class="node">
<title>node0x503000000100</title>
<path fill="#ff5050" stroke="black" d="M329,-664.5C329,-664.5 604,-664.5 604,-664.5 610,-664.5 616,-670.5 616,-676.5 616,-676.5 616,-698.5 616,-698.5 616,-704.5 610,-710.5 604,-710.5 604,-710.5 329,-710.5 329,-710.5 323,-710.5 317,-704.5 317,-698.5 317,-698.5 317,-676.5 317,-676.5 317,-670.5 323,-664.5 329,-664.5"/>
<text text-anchor="middle" x="466.5" y="-695.3" font-family="Times,serif" font-size="14.00">type = 3 (ID)</text>
<polyline fill="none" stroke="black" points="317,-687.5 616,-687.5 "/>
<text text-anchor="middle" x="466.5" y="-672.3" font-family="Times,serif" font-size="14.00">number of name in name table = &#39;&#39; 22 &#39;&#39;</text>
</g>
<!-- node0x503000000160&#45;&gt;node0x503000000100 -->
<g id="edge10" class="edge">
<title>node0x503000000160&#45;&gt;node0x503000000100</title>
<path fill="none" stroke="black" d="M624.49,-747.47C596.86,-737.16 563.79,-724.82 535.06,-714.09"/>
<polygon fill="black" stroke="black" points="536.09,-710.74 525.5,-710.52 533.64,-717.3 536.09,-710.74"/>
</g>
<!-- node0x503000000130 -->
<g id="node12" class="node">
<title>node0x503000000130</title>
<path fill="#ffd700" stroke="black" d="M646,-664.5C646,-664.5 753,-664.5 753,-664.5 759,-664.5 765,-670.5 765,-676.5 765,-676.5 765,-698.5 765,-698.5 765,-704.5 759,-710.5 753,-710.5 753,-710.5 646,-710.5 646,-710.5 640,-710.5 634,-704.5 634,-698.5 634,-698.5 634,-676.5 634,-676.5 634,-670.5 640,-664.5 646,-664.5"/>
<text text-anchor="middle" x="699.5" y="-695.3" font-family="Times,serif" font-size="14.00">type = 1 (NUM)</text>
<polyline fill="none" stroke="black" points="634,-687.5 765,-687.5 "/>
<text text-anchor="middle" x="699.5" y="-672.3" font-family="Times,serif" font-size="14.00">value = &#39;&#39; 10 &#39;&#39;</text>
</g>
<!-- node0x503000000160&#45;&gt;node0x503000000130 -->
<g id="edge11" class="edge">
<title>node0x503000000160&#45;&gt;node0x503000000130</title>
<path fill="none" stroke="black" d="M687.87,-747.37C689.51,-739.06 691.41,-729.45 693.19,-720.43"/>
<polygon fill="black" stroke="black" points="696.63,-721.1 695.13,-710.61 689.76,-719.74 696.63,-721.1"/>
</g>
<!-- node0x503000000220 -->
<g id="node13" class="node">
<title>node0x503000000220</title>
<path fill="#00ffdd" stroke="black" d="M795,-664.5C795,-664.5 916,-664.5 916,-664.5 922,-664.5 928,-670.5 928,-676.5 928,-676.5 928,-698.5 928,-698.5 928,-704.5 922,-710.5 916,-710.5 916,-710.5 795,-710.5 795,-710.5 789,-710.5 783,-704.5 783,-698.5 783,-698.5 783,-676.5 783,-676.5 783,-670.5 789,-664.5 795,-664.5"/>
<text text-anchor="middle" x="855.5" y="-695.3" font-family="Times,serif" font-size="14.00">type = 2 (OP)</text>
<polyline fill="none" stroke="black" points="783,-687.5 928,-687.5 "/>
<text text-anchor="middle" x="855.5" y="-672.3" font-family="Times,serif" font-size="14.00">value = &#39;&#39; = &#39;&#39; (61)</text>
</g>
<!-- node0x503000000250&#45;&gt;node0x503000000220 -->
<g id="edge12" class="edge">
<title>node0x503000000250&#45;&gt;node0x503000000220</title>
<path fill="none" stroke="black" d="M867.85,-747.37C866.11,-739.06 864.09,-729.45 862.2,-720.43"/>
<polygon fill="black" stroke="black" points="865.62,-719.67 860.14,-710.61 858.77,-721.11 865.62,-719.67"/>
</g>
<!-- node0x503000000310 -->
<g id="node14" class="node">
<title>node0x503000000310</title>
<path fill="#e0e0e0" stroke="black" d="M958,-664.5C958,-664.5 1131,-664.5 1131,-664.5 1137,-664.5 1143,-670.5 1143,-676.5 1143,-676.5 1143,-698.5 1143,-698.5 1143,-704.5 1137,-710.5 1131,-710.5 1131,-710.5 958,-710.5 958,-710.5 952,-710.5 946,-704.5 946,-698.5 946,-698.5 946,-676.5 946,-676.5 946,-670.5 952,-664.5 958,-664.5"/>
<text text-anchor="middle" x="1044.5" y="-695.3" font-family="Times,serif" font-size="14.00">type = 2 (OP)</text>
<polyline fill="none" stroke="black" points="946,-687.5 1143,-687.5 "/>
<text text-anchor="middle" x="1044.5" y="-672.3" font-family="Times,serif" font-size="14.00">value = &#39;&#39; SHUTUP &#39;&#39; (59)</text>
</g>
<!-- node0x503000000250&#45;&gt;node0x503000000310 -->
<g id="edge13" class="edge">
<title>node0x503000000250&#45;&gt;node0x503000000310</title>
<path fill="none" stroke="black" d="M919.5,-747.37C940.74,-737.37 966,-725.47 988.23,-715"/>
<polygon fill="black" stroke="black" points="990,-718.03 997.56,-710.61 987.02,-711.7 990,-718.03"/>
</g>
<!-- node0x5030000001c0 -->
<g id="node15" class="node">
<title>node0x5030000001c0</title>
<path fill="#ff5050" stroke="black" d="M485,-581.5C485,-581.5 760,-581.5 760,-581.5 766,-581.5 772,-587.5 772,-593.5 772,-593.5 772,-615.5 772,-615.5 772,-621.5 766,-627.5 760,-627.5 760,-627.5 485,-627.5 485,-627.5 479,-627.5 473,-621.5 473,-615.5 473,-615.5 473,-593.5 473,-593.5 473,-587.5 479,-581.5 485,-581.5"/>
<text text-anchor="middle" x="622.5" y="-612.3" font-family="Times,serif" font-size="14.00">type = 3 (ID)</text>
<polyline fill="none" stroke="black" points="473,-604.5 772,-604.5 "/>
<text text-anchor="middle" x="622.5" y="-589.3" font-family="Times,serif" font-size="14.00">number of name in name table = &#39;&#39; 23 &#39;&#39;</text>
</g>
<!-- node0x503000000220&#45;&gt;node0x5030000001c0 -->
<g id="edge14" class="edge">
<title>node0x503000000220&#45;&gt;node0x5030000001c0</title>
<path fill="none" stroke="black" d="M792.14,-664.47C762.22,-654.07 726.35,-641.6 695.31,-630.81"/>
<polygon fill="black" stroke="black" points="696.44,-627.5 685.85,-627.52 694.14,-634.11 696.44,-627.5"/>
</g>
<!-- node0x5030000001f0 -->
<g id="node16" class="node">
<title>node0x5030000001f0</title>
<path fill="#ffd700" stroke="black" d="M802,-581.5C802,-581.5 909,-581.5 909,-581.5 915,-581.5 921,-587.5 921,-593.5 921,-593.5 921,-615.5 921,-615.5 921,-621.5 915,-627.5 909,-627.5 909,-627.5 802,-627.5 802,-627.5 796,-627.5 790,-621.5 790,-615.5 790,-615.5 790,-593.5 790,-593.5 790,-587.5 796,-581.5 802,-581.5"/>
<text text-anchor="middle" x="855.5" y="-612.3" font-family="Times,serif" font-size="14.00">type = 1 (NUM)</text>
<polyline fill="none" stroke="black" points="790,-604.5 921,-604.5 "/>
<text text-anchor="middle" x="855.5" y="-589.3" font-family="Times,serif" font-size="14.00">value = &#39;&#39; 5 &#39;&#39;</text>
</g>
<!-- node0x503000000220&#45;&gt;node0x5030000001f0 -->
<g id="edge15" class="edge">
<title>node0x503000000220&#45;&gt;node0x5030000001f0</title>
<path fill="none" stroke="black" d="M855.5,-664.37C855.5,-656.15 855.5,-646.66 855.5,-637.73"/>
<polygon fill="black" stroke="black" points="859,-637.61 855.5,-627.61 852,-637.61 859,-637.61"/>
</g>
<!-- node0x5030000002e0 -->
<g id="node17" class="node">
<title>node0x5030000002e0</title>
<path fill="#00ffdd" stroke="black" d="M951,-581.5C951,-581.5 1072,-581.5 1072,-581.5 1078,-581.5 1084,-587.5 1084,-593.5 1084,-593.5 1084,-615.5 1084,-615.5 1084,-621.5 1078,-627.5 1072,-627.5 1072,-627.5 951,-627.5 951,-627.5 945,-627.5 939,-621.5 939,-615.5 939,-615.5 939,-593.5 939,-593.5 939,-587.5 945,-581.5 951,-581.5"/>
<text text-anchor="middle" x="1011.5" y="-612.3" font-family="Times,serif" font-size="14.00">type = 2 (OP)</text>
<polyline fill="none" stroke="black" points="939,-604.5 1084,-604.5 "/>
<text text-anchor="middle" x="1011.5" y="-589.3" font-family="Times,serif" font-size="14.00">value = &#39;&#39; = &#39;&#39; (61)</text>
</g>
<!-- node0x503000000310&#45;&gt;node0x5030000002e0 -->
<g id="edge16" class="edge">
<title>node0x503000000310&#45;&gt;node0x5030000002e0</title>
<path fill="none" stroke="black" d="M1035.48,-664.37C1032.06,-655.97 1028.1,-646.24 1024.39,-637.14"/>
<polygon fill="black" stroke="black" points="1027.52,-635.55 1020.51,-627.61 1021.04,-638.19 1027.52,-635.55"/>
</g>
<!-- node0x503000000520 -->
<g id="node18" class="node">
<title>node0x503000000520</title>
<path fill="#e0e0e0" stroke="black" d="M1114,-581.5C1114,-581.5 1287,-581.5 1287,-581.5 1293,-581.5 1299,-587.5 1299,-593.5 1299,-593.5 1299,-615.5 1299,-615.5 1299,-621.5 1293,-627.5 1287,-627.5 1287,-627.5 1114,-627.5 1114,-627.5 1108,-627.5 1102,-621.5 1102,-615.5 1102,-615.5 1102,-593.5 1102,-593.5 1102,-587.5 1108,-581.5 1114,-581.5"/>
<text text-anchor="middle" x="1200.5" y="-612.3" font-family="Times,serif" font-size="14.00">type = 2 (OP)</text>
<polyline fill="none" stroke="black" points="1102,-604.5 1299,-604.5 "/>
<text text-anchor="middle" x="1200.5" y="-589.3" font-family="Times,serif" font-size="14.00">value = &#39;&#39; SHUTUP &#39;&#39; (59)</text>
</g>
<!-- node0x503000000310&#45;&gt;node0x503000000520 -->
<g id="edge17" class="edge">
<title>node0x503000000310&#45;&gt;node0x503000000520</title>
<path fill="none" stroke="black" d="M1087.13,-664.37C1106.22,-654.46 1128.89,-642.68 1148.93,-632.28"/>
<polygon fill="black" stroke="black" points="1150.66,-635.32 1157.92,-627.61 1147.44,-629.11 1150.66,-635.32"/>
</g>
<!-- node0x503000000280 -->
<g id="node19" class="node">
<title>node0x503000000280</title>
<path fill="#ff5050" stroke="black" d="M641,-498.5C641,-498.5 916,-498.5 916,-498.5 922,-498.5 928,-504.5 928,-510.5 928,-510.5 928,-532.5 928,-532.5 928,-538.5 922,-544.5 916,-544.5 916,-544.5 641,-544.5 641,-544.5 635,-544.5 629,-538.5 629,-532.5 629,-532.5 629,-510.5 629,-510.5 629,-504.5 635,-498.5 641,-498.5"/>
<text text-anchor="middle" x="778.5" y="-529.3" font-family="Times,serif" font-size="14.00">type = 3 (ID)</text>
<polyline fill="none" stroke="black" points="629,-521.5 928,-521.5 "/>
<text text-anchor="middle" x="778.5" y="-506.3" font-family="Times,serif" font-size="14.00">number of name in name table = &#39;&#39; 24 &#39;&#39;</text>
</g>
<!-- node0x5030000002e0&#45;&gt;node0x503000000280 -->
<g id="edge18" class="edge">
<title>node0x5030000002e0&#45;&gt;node0x503000000280</title>
<path fill="none" stroke="black" d="M948.14,-581.47C918.22,-571.07 882.35,-558.6 851.31,-547.81"/>
<polygon fill="black" stroke="black" points="852.44,-544.5 841.85,-544.52 850.14,-551.11 852.44,-544.5"/>
</g>
<!-- node0x5030000002b0 -->
<g id="node20" class="node">
<title>node0x5030000002b0</title>
<path fill="#ffd700" stroke="black" d="M958,-498.5C958,-498.5 1065,-498.5 1065,-498.5 1071,-498.5 1077,-504.5 1077,-510.5 1077,-510.5 1077,-532.5 1077,-532.5 1077,-538.5 1071,-544.5 1065,-544.5 1065,-544.5 958,-544.5 958,-544.5 952,-544.5 946,-538.5 946,-532.5 946,-532.5 946,-510.5 946,-510.5 946,-504.5 952,-498.5 958,-498.5"/>
<text text-anchor="middle" x="1011.5" y="-529.3" font-family="Times,serif" font-size="14.00">type = 1 (NUM)</text>
<polyline fill="none" stroke="black" points="946,-521.5 1077,-521.5 "/>
<text text-anchor="middle" x="1011.5" y="-506.3" font-family="Times,serif" font-size="14.00">value = &#39;&#39; 20 &#39;&#39;</text>
</g>
<!-- node0x5030000002e0&#45;&gt;node0x5030000002b0 -->
<g id="edge19" class="edge">
<title>node0x5030000002e0&#45;&gt;node0x5030000002b0</title>
<path fill="none" stroke="black" d="M1011.5,-581.37C1011.5,-573.15 1011.5,-563.66 1011.5,-554.73"/>
<polygon fill="black" stroke="black" points="1015,-554.61 1011.5,-544.61 1008,-554.61 1015,-554.61"/>
</g>
<!-- node0x5030000004f0 -->
<g id="node21" class="node">
<title>node0x5030000004f0</title>
<path fill="#00ffdd" stroke="black" d="M1107,-498.5C1107,-498.5 1256,-498.5 1256,-498.5 1262,-498.5 1268,-504.5 1268,-510.5 1268,-510.5 1268,-532.5 1268,-532.5 1268,-538.5 1262,-544.5 1256,-544.5 1256,-544.5 1107,-544.5 1107,-544.5 1101,-544.5 1095,-538.5 1095,-532.5 1095,-532.5 1095,-510.5 1095,-510.5 1095,-504.5 1101,-498.5 1107,-498.5"/>
<text text-anchor="middle" x="1181.5" y="-529.3" font-family="Times,serif" font-size="14.00">type = 2 (OP)</text>
<polyline fill="none" stroke="black" points="1095,-521.5 1268,-521.5 "/>
<text text-anchor="middle" x="1181.5" y="-506.3" font-family="Times,serif" font-size="14.00">value = &#39;&#39; PLUS &#39;&#39; (43)</text>
</g>
<!-- node0x503000000520&#45;&gt;node0x5030000004f0 -->
<g id="edge20" class="edge">
<title>node0x503000000520&#45;&gt;node0x5030000004f0</title>
<path fill="none" stroke="black" d="M1195.31,-581.37C1193.36,-573.06 1191.11,-563.45 1188.99,-554.43"/>
<polygon fill="black" stroke="black" points="1192.38,-553.54 1186.69,-544.61 1185.56,-555.14 1192.38,-553.54"/>
</g>
<!-- node0x503000000640 -->
<g id="node22" class="node">
<title>node0x503000000640</title>
<path fill="#e0e0e0" stroke="black" d="M1298,-498.5C1298,-498.5 1471,-498.5 1471,-498.5 1477,-498.5 1483,-504.5 1483,-510.5 1483,-510.5 1483,-532.5 1483,-532.5 1483,-538.5 1477,-544.5 1471,-544.5 1471,-544.5 1298,-544.5 1298,-544.5 1292,-544.5 1286,-538.5 1286,-532.5 1286,-532.5 1286,-510.5 1286,-510.5 1286,-504.5 1292,-498.5 1298,-498.5"/>
<text text-anchor="middle" x="1384.5" y="-529.3" font-family="Times,serif" font-size="14.00">type = 2 (OP)</text>
<polyline fill="none" stroke="black" points="1286,-521.5 1483,-521.5 "/>
<text text-anchor="middle" x="1384.5" y="-506.3" font-family="Times,serif" font-size="14.00">value = &#39;&#39; SHUTUP &#39;&#39; (59)</text>
</g>
<!-- node0x503000000520&#45;&gt;node0x503000000640 -->
<g id="edge21" class="edge">
<title>node0x503000000520&#45;&gt;node0x503000000640</title>
<path fill="none" stroke="black" d="M1250.78,-581.37C1273.7,-571.28 1301,-559.26 1324.94,-548.72"/>
<polygon fill="black" stroke="black" points="1326.54,-551.84 1334.28,-544.61 1323.72,-545.43 1326.54,-551.84"/>
</g>
<!-- node0x503000000490 -->
<g id="node23" class="node">
<title>node0x503000000490</title>
<path fill="#f069f5" stroke="black" d="M849,-415.5C849,-415.5 996,-415.5 996,-415.5 1002,-415.5 1008,-421.5 1008,-427.5 1008,-427.5 1008,-449.5 1008,-449.5 1008,-455.5 1002,-461.5 996,-461.5 996,-461.5 849,-461.5 849,-461.5 843,-461.5 837,-455.5 837,-449.5 837,-449.5 837,-427.5 837,-427.5 837,-421.5 843,-415.5 849,-415.5"/>
<text text-anchor="middle" x="922.5" y="-446.3" font-family="Times,serif" font-size="14.00">type = 4 (FUNC)</text>
<polyline fill="none" stroke="black" points="837,-438.5 1008,-438.5 "/>
<text text-anchor="middle" x="922.5" y="-423.3" font-family="Times,serif" font-size="14.00">value = &#39;&#39; CALL &#39;&#39; (67)</text>
</g>
<!-- node0x5030000004f0&#45;&gt;node0x503000000490 -->
<g id="edge22" class="edge">
<title>node0x5030000004f0&#45;&gt;node0x503000000490</title>
<path fill="none" stroke="black" d="M1111.07,-498.47C1077.52,-487.98 1037.25,-475.39 1002.55,-464.53"/>
<polygon fill="black" stroke="black" points="1003.51,-461.17 992.92,-461.52 1001.42,-467.85 1003.51,-461.17"/>
</g>
<!-- node0x5030000004c0 -->
<g id="node24" class="node">
<title>node0x5030000004c0</title>
<path fill="#ffd700" stroke="black" d="M1128,-415.5C1128,-415.5 1235,-415.5 1235,-415.5 1241,-415.5 1247,-421.5 1247,-427.5 1247,-427.5 1247,-449.5 1247,-449.5 1247,-455.5 1241,-461.5 1235,-461.5 1235,-461.5 1128,-461.5 1128,-461.5 1122,-461.5 1116,-455.5 1116,-449.5 1116,-449.5 1116,-427.5 1116,-427.5 1116,-421.5 1122,-415.5 1128,-415.5"/>
<text text-anchor="middle" x="1181.5" y="-446.3" font-family="Times,serif" font-size="14.00">type = 1 (NUM)</text>
<polyline fill="none" stroke="black" points="1116,-438.5 1247,-438.5 "/>
<text text-anchor="middle" x="1181.5" y="-423.3" font-family="Times,serif" font-size="14.00">value = &#39;&#39; 5 &#39;&#39;</text>
</g>
<!-- node0x5030000004f0&#45;&gt;node0x5030000004c0 -->
<g id="edge23" class="edge">
<title>node0x5030000004f0&#45;&gt;node0x5030000004c0</title>
<path fill="none" stroke="black" d="M1181.5,-498.37C1181.5,-490.15 1181.5,-480.66 1181.5,-471.73"/>
<polygon fill="black" stroke="black" points="1185,-471.61 1181.5,-461.61 1178,-471.61 1185,-471.61"/>
</g>
<!-- node0x503000000610 -->
<g id="node32" class="node">
<title>node0x503000000610</title>
<path fill="#00ffdd" stroke="black" d="M1324,-415.5C1324,-415.5 1445,-415.5 1445,-415.5 1451,-415.5 1457,-421.5 1457,-427.5 1457,-427.5 1457,-449.5 1457,-449.5 1457,-455.5 1451,-461.5 1445,-461.5 1445,-461.5 1324,-461.5 1324,-461.5 1318,-461.5 1312,-455.5 1312,-449.5 1312,-449.5 1312,-427.5 1312,-427.5 1312,-421.5 1318,-415.5 1324,-415.5"/>
<text text-anchor="middle" x="1384.5" y="-446.3" font-family="Times,serif" font-size="14.00">type = 2 (OP)</text>
<polyline fill="none" stroke="black" points="1312,-438.5 1457,-438.5 "/>
<text text-anchor="middle" x="1384.5" y="-423.3" font-family="Times,serif" font-size="14.00">value = &#39;&#39; = &#39;&#39; (61)</text>
</g>
<!-- node0x503000000640&#45;&gt;node0x503000000610 -->
<g id="edge31" class="edge">
<title>node0x503000000640&#45;&gt;node0x503000000610</title>
<path fill="none" stroke="black" d="M1384.5,-498.37C1384.5,-490.15 1384.5,-480.66 1384.5,-471.73"/>
<polygon fill="black" stroke="black" points="1388,-471.61 1384.5,-461.61 1381,-471.61 1388,-471.61"/>
</g>
<!-- node0x503000000850 -->
<g id="node33" class="node">
<title>node0x503000000850</title>
<path fill="#e0e0e0" stroke="black" d="M1514,-415.5C1514,-415.5 1687,-415.5 1687,-415.5 1693,-415.5 1699,-421.5 1699,-427.5 1699,-427.5 1699,-449.5 1699,-449.5 1699,-455.5 1693,-461.5 1687,-461.5 1687,-461.5 1514,-461.5 1514,-461.5 1508,-461.5 1502,-455.5 1502,-449.5 1502,-449.5 1502,-427.5 1502,-427.5 1502,-421.5 1508,-415.5 1514,-415.5"/>
<text text-anchor="middle" x="1600.5" y="-446.3" font-family="Times,serif" font-size="14.00">type = 2 (OP)</text>
<polyline fill="none" stroke="black" points="1502,-438.5 1699,-438.5 "/>
<text text-anchor="middle" x="1600.5" y="-423.3" font-family="Times,serif" font-size="14.00">value = &#39;&#39; SHUTUP &#39;&#39; (59)</text>
</g>
<!-- node0x503000000640&#45;&gt;node0x503000000850 -->
<g id="edge32" class="edge">
<title>node0x503000000640&#45;&gt;node0x503000000850</title>
<path fill="none" stroke="black" d="M1443.24,-498.47C1470.74,-488.16 1503.66,-475.82 1532.26,-465.09"/>
<polygon fill="black" stroke="black" points="1533.64,-468.31 1541.77,-461.52 1531.18,-461.76 1533.64,-468.31"/>
</g>
<!-- node0x503000000340 -->
<g id="node25" class="node">
<title>node0x503000000340</title>
<path fill="#2ee31e" stroke="black" d="M677.5,-332.5C677.5,-332.5 823.5,-332.5 823.5,-332.5 829.5,-332.5 835.5,-338.5 835.5,-344.5 835.5,-344.5 835.5,-366.5 835.5,-366.5 835.5,-372.5 829.5,-378.5 823.5,-378.5 823.5,-378.5 677.5,-378.5 677.5,-378.5 671.5,-378.5 665.5,-372.5 665.5,-366.5 665.5,-366.5 665.5,-344.5 665.5,-344.5 665.5,-338.5 671.5,-332.5 677.5,-332.5"/>
<text text-anchor="middle" x="750.5" y="-363.3" font-family="Times,serif" font-size="14.00">type = 4 (FUNC)</text>
<polyline fill="none" stroke="black" points="665.5,-355.5 835.5,-355.5 "/>
<text text-anchor="middle" x="750.5" y="-340.3" font-family="Times,serif" font-size="14.00">value = &#39;&#39; Jump &#39;&#39; (25)</text>
</g>
<!-- node0x503000000490&#45;&gt;node0x503000000340 -->
<g id="edge24" class="edge">
<title>node0x503000000490&#45;&gt;node0x503000000340</title>
<path fill="none" stroke="black" d="M875.5,-415.37C854.26,-405.37 829,-393.47 806.77,-383"/>
<polygon fill="black" stroke="black" points="807.98,-379.7 797.44,-378.61 805,-386.03 807.98,-379.7"/>
</g>
<!-- node0x5030000003a0 -->
<g id="node26" class="node">
<title>node0x5030000003a0</title>
<path fill="#feaadf" stroke="black" d="M866,-332.5C866,-332.5 979,-332.5 979,-332.5 985,-332.5 991,-338.5 991,-344.5 991,-344.5 991,-366.5 991,-366.5 991,-372.5 985,-378.5 979,-378.5 979,-378.5 866,-378.5 866,-378.5 860,-378.5 854,-372.5 854,-366.5 854,-366.5 854,-344.5 854,-344.5 854,-338.5 860,-332.5 866,-332.5"/>
<text text-anchor="middle" x="922.5" y="-363.3" font-family="Times,serif" font-size="14.00">type = 4 (FUNC)</text>
<polyline fill="none" stroke="black" points="854,-355.5 991,-355.5 "/>
<text text-anchor="middle" x="922.5" y="-340.3" font-family="Times,serif" font-size="14.00">value = &#39;&#39; , &#39;&#39; (44)</text>
</g>
<!-- node0x503000000490&#45;&gt;node0x5030000003a0 -->
<g id="edge25" class="edge">
<title>node0x503000000490&#45;&gt;node0x5030000003a0</title>
<path fill="none" stroke="black" d="M922.5,-415.37C922.5,-407.15 922.5,-397.66 922.5,-388.73"/>
<polygon fill="black" stroke="black" points="926,-388.61 922.5,-378.61 919,-388.61 926,-388.61"/>
</g>
<!-- node0x503000000370 -->
<g id="node27" class="node">
<title>node0x503000000370</title>
<path fill="#ff5050" stroke="black" d="M549,-249.5C549,-249.5 824,-249.5 824,-249.5 830,-249.5 836,-255.5 836,-261.5 836,-261.5 836,-283.5 836,-283.5 836,-289.5 830,-295.5 824,-295.5 824,-295.5 549,-295.5 549,-295.5 543,-295.5 537,-289.5 537,-283.5 537,-283.5 537,-261.5 537,-261.5 537,-255.5 543,-249.5 549,-249.5"/>
<text text-anchor="middle" x="686.5" y="-280.3" font-family="Times,serif" font-size="14.00">type = 3 (ID)</text>
<polyline fill="none" stroke="black" points="537,-272.5 836,-272.5 "/>
<text text-anchor="middle" x="686.5" y="-257.3" font-family="Times,serif" font-size="14.00">number of name in name table = &#39;&#39; 23 &#39;&#39;</text>
</g>
<!-- node0x5030000003a0&#45;&gt;node0x503000000370 -->
<g id="edge26" class="edge">
<title>node0x5030000003a0&#45;&gt;node0x503000000370</title>
<path fill="none" stroke="black" d="M858.32,-332.47C828.02,-322.07 791.68,-309.6 760.25,-298.81"/>
<polygon fill="black" stroke="black" points="761.26,-295.46 750.66,-295.52 758.99,-302.08 761.26,-295.46"/>
</g>
<!-- node0x503000000400 -->
<g id="node28" class="node">
<title>node0x503000000400</title>
<path fill="#feaadf" stroke="black" d="M866,-249.5C866,-249.5 979,-249.5 979,-249.5 985,-249.5 991,-255.5 991,-261.5 991,-261.5 991,-283.5 991,-283.5 991,-289.5 985,-295.5 979,-295.5 979,-295.5 866,-295.5 866,-295.5 860,-295.5 854,-289.5 854,-283.5 854,-283.5 854,-261.5 854,-261.5 854,-255.5 860,-249.5 866,-249.5"/>
<text text-anchor="middle" x="922.5" y="-280.3" font-family="Times,serif" font-size="14.00">type = 4 (FUNC)</text>
<polyline fill="none" stroke="black" points="854,-272.5 991,-272.5 "/>
<text text-anchor="middle" x="922.5" y="-257.3" font-family="Times,serif" font-size="14.00">value = &#39;&#39; , &#39;&#39; (44)</text>
</g>
<!-- node0x5030000003a0&#45;&gt;node0x503000000400 -->
<g id="edge27" class="edge">
<title>node0x5030000003a0&#45;&gt;node0x503000000400</title>
<path fill="none" stroke="black" d="M922.5,-332.37C922.5,-324.15 922.5,-314.66 922.5,-305.73"/>
<polygon fill="black" stroke="black" points="926,-305.61 922.5,-295.61 919,-305.61 926,-305.61"/>
</g>
<!-- node0x5030000003d0 -->
<g id="node29" class="node">
<title>node0x5030000003d0</title>
<path fill="#ff5050" stroke="black" d="M667,-166.5C667,-166.5 942,-166.5 942,-166.5 948,-166.5 954,-172.5 954,-178.5 954,-178.5 954,-200.5 954,-200.5 954,-206.5 948,-212.5 942,-212.5 942,-212.5 667,-212.5 667,-212.5 661,-212.5 655,-206.5 655,-200.5 655,-200.5 655,-178.5 655,-178.5 655,-172.5 661,-166.5 667,-166.5"/>
<text text-anchor="middle" x="804.5" y="-197.3" font-family="Times,serif" font-size="14.00">type = 3 (ID)</text>
<polyline fill="none" stroke="black" points="655,-189.5 954,-189.5 "/>
<text text-anchor="middle" x="804.5" y="-174.3" font-family="Times,serif" font-size="14.00">number of name in name table = &#39;&#39; 22 &#39;&#39;</text>
</g>
<!-- node0x503000000400&#45;&gt;node0x5030000003d0 -->
<g id="edge28" class="edge">
<title>node0x503000000400&#45;&gt;node0x5030000003d0</title>
<path fill="none" stroke="black" d="M890.26,-249.37C876.34,-239.81 859.9,-228.53 845.16,-218.41"/>
<polygon fill="black" stroke="black" points="846.93,-215.38 836.71,-212.61 842.97,-221.15 846.93,-215.38"/>
</g>
<!-- node0x503000000460 -->
<g id="node30" class="node">
<title>node0x503000000460</title>
<path fill="#feaadf" stroke="black" d="M984,-166.5C984,-166.5 1097,-166.5 1097,-166.5 1103,-166.5 1109,-172.5 1109,-178.5 1109,-178.5 1109,-200.5 1109,-200.5 1109,-206.5 1103,-212.5 1097,-212.5 1097,-212.5 984,-212.5 984,-212.5 978,-212.5 972,-206.5 972,-200.5 972,-200.5 972,-178.5 972,-178.5 972,-172.5 978,-166.5 984,-166.5"/>
<text text-anchor="middle" x="1040.5" y="-197.3" font-family="Times,serif" font-size="14.00">type = 4 (FUNC)</text>
<polyline fill="none" stroke="black" points="972,-189.5 1109,-189.5 "/>
<text text-anchor="middle" x="1040.5" y="-174.3" font-family="Times,serif" font-size="14.00">value = &#39;&#39; , &#39;&#39; (44)</text>
</g>
<!-- node0x503000000400&#45;&gt;node0x503000000460 -->
<g id="edge29" class="edge">
<title>node0x503000000400&#45;&gt;node0x503000000460</title>
<path fill="none" stroke="black" d="M954.74,-249.37C968.66,-239.81 985.1,-228.53 999.84,-218.41"/>
<polygon fill="black" stroke="black" points="1002.03,-221.15 1008.29,-212.61 998.07,-215.38 1002.03,-221.15"/>
</g>
<!-- node0x503000000430 -->
<g id="node31" class="node">
<title>node0x503000000430</title>
<path fill="#ff5050" stroke="black" d="M903,-83.5C903,-83.5 1178,-83.5 1178,-83.5 1184,-83.5 1190,-89.5 1190,-95.5 1190,-95.5 1190,-117.5 1190,-117.5 1190,-123.5 1184,-129.5 1178,-129.5 1178,-129.5 903,-129.5 903,-129.5 897,-129.5 891,-123.5 891,-117.5 891,-117.5 891,-95.5 891,-95.5 891,-89.5 897,-83.5 903,-83.5"/>
<text text-anchor="middle" x="1040.5" y="-114.3" font-family="Times,serif" font-size="14.00">type = 3 (ID)</text>
<polyline fill="none" stroke="black" points="891,-106.5 1190,-106.5 "/>
<text text-anchor="middle" x="1040.5" y="-91.3" font-family="Times,serif" font-size="14.00">number of name in name table = &#39;&#39; 24 &#39;&#39;</text>
</g>
<!-- node0x503000000460&#45;&gt;node0x503000000430 -->
<g id="edge30" class="edge">
<title>node0x503000000460&#45;&gt;node0x503000000430</title>
<path fill="none" stroke="black" d="M1040.5,-166.37C1040.5,-158.15 1040.5,-148.66 1040.5,-139.73"/>
<polygon fill="black" stroke="black" points="1044,-139.61 1040.5,-129.61 1037,-139.61 1044,-139.61"/>
</g>
<!-- node0x503000000550 -->
<g id="node34" class="node">
<title>node0x503000000550</title>
<path fill="#ff5050" stroke="black" d="M1055,-332.5C1055,-332.5 1330,-332.5 1330,-332.5 1336,-332.5 1342,-338.5 1342,-344.5 1342,-344.5 1342,-366.5 1342,-366.5 1342,-372.5 1336,-378.5 1330,-378.5 1330,-378.5 1055,-378.5 1055,-378.5 1049,-378.5 1043,-372.5 1043,-366.5 1043,-366.5 1043,-344.5 1043,-344.5 1043,-338.5 1049,-332.5 1055,-332.5"/>
<text text-anchor="middle" x="1192.5" y="-363.3" font-family="Times,serif" font-size="14.00">type = 3 (ID)</text>
<polyline fill="none" stroke="black" points="1043,-355.5 1342,-355.5 "/>
<text text-anchor="middle" x="1192.5" y="-340.3" font-family="Times,serif" font-size="14.00">number of name in name table = &#39;&#39; 23 &#39;&#39;</text>
</g>
<!-- node0x503000000610&#45;&gt;node0x503000000550 -->
<g id="edge33" class="edge">
<title>node0x503000000610&#45;&gt;node0x503000000550</title>
<path fill="none" stroke="black" d="M1332.29,-415.47C1308.16,-405.3 1279.35,-393.14 1254.16,-382.51"/>
<polygon fill="black" stroke="black" points="1255.27,-379.18 1244.7,-378.52 1252.55,-385.63 1255.27,-379.18"/>
</g>
<!-- node0x5030000005e0 -->
<g id="node35" class="node">
<title>node0x5030000005e0</title>
<path fill="#00ffdd" stroke="black" d="M1372,-332.5C1372,-332.5 1513,-332.5 1513,-332.5 1519,-332.5 1525,-338.5 1525,-344.5 1525,-344.5 1525,-366.5 1525,-366.5 1525,-372.5 1519,-378.5 1513,-378.5 1513,-378.5 1372,-378.5 1372,-378.5 1366,-378.5 1360,-372.5 1360,-366.5 1360,-366.5 1360,-344.5 1360,-344.5 1360,-338.5 1366,-332.5 1372,-332.5"/>
<text text-anchor="middle" x="1442.5" y="-363.3" font-family="Times,serif" font-size="14.00">type = 2 (OP)</text>
<polyline fill="none" stroke="black" points="1360,-355.5 1525,-355.5 "/>
<text text-anchor="middle" x="1442.5" y="-340.3" font-family="Times,serif" font-size="14.00">value = &#39;&#39; SUB &#39;&#39; (45)</text>
</g>
<!-- node0x503000000610&#45;&gt;node0x5030000005e0 -->
<g id="edge34" class="edge">
<title>node0x503000000610&#45;&gt;node0x5030000005e0</title>
<path fill="none" stroke="black" d="M1400.35,-415.37C1406.61,-406.62 1413.92,-396.41 1420.67,-386.99"/>
<polygon fill="black" stroke="black" points="1423.69,-388.78 1426.67,-378.61 1418,-384.7 1423.69,-388.78"/>
</g>
<!-- node0x503000000820 -->
<g id="node38" class="node">
<title>node0x503000000820</title>
<path fill="#68f29d" stroke="black" d="M1631,-332.5C1631,-332.5 1820,-332.5 1820,-332.5 1826,-332.5 1832,-338.5 1832,-344.5 1832,-344.5 1832,-366.5 1832,-366.5 1832,-372.5 1826,-378.5 1820,-378.5 1820,-378.5 1631,-378.5 1631,-378.5 1625,-378.5 1619,-372.5 1619,-366.5 1619,-366.5 1619,-344.5 1619,-344.5 1619,-338.5 1625,-332.5 1631,-332.5"/>
<text text-anchor="middle" x="1725.5" y="-363.3" font-family="Times,serif" font-size="14.00">type = 2 (OP)</text>
<polyline fill="none" stroke="black" points="1619,-355.5 1832,-355.5 "/>
<text text-anchor="middle" x="1725.5" y="-340.3" font-family="Times,serif" font-size="14.00">value = &#39;&#39; FORREAL &#39;&#39; (105)</text>
</g>
<!-- node0x503000000850&#45;&gt;node0x503000000820 -->
<g id="edge37" class="edge">
<title>node0x503000000850&#45;&gt;node0x503000000820</title>
<path fill="none" stroke="black" d="M1634.66,-415.37C1649.54,-405.72 1667.14,-394.32 1682.87,-384.13"/>
<polygon fill="black" stroke="black" points="1684.9,-386.98 1691.38,-378.61 1681.09,-381.11 1684.9,-386.98"/>
</g>
<!-- node0x503000000580 -->
<g id="node36" class="node">
<title>node0x503000000580</title>
<path fill="#ff5050" stroke="black" d="M1021,-249.5C1021,-249.5 1296,-249.5 1296,-249.5 1302,-249.5 1308,-255.5 1308,-261.5 1308,-261.5 1308,-283.5 1308,-283.5 1308,-289.5 1302,-295.5 1296,-295.5 1296,-295.5 1021,-295.5 1021,-295.5 1015,-295.5 1009,-289.5 1009,-283.5 1009,-283.5 1009,-261.5 1009,-261.5 1009,-255.5 1015,-249.5 1021,-249.5"/>
<text text-anchor="middle" x="1158.5" y="-280.3" font-family="Times,serif" font-size="14.00">type = 3 (ID)</text>
<polyline fill="none" stroke="black" points="1009,-272.5 1308,-272.5 "/>
<text text-anchor="middle" x="1158.5" y="-257.3" font-family="Times,serif" font-size="14.00">number of name in name table = &#39;&#39; 23 &#39;&#39;</text>
</g>
<!-- node0x5030000005e0&#45;&gt;node0x503000000580 -->
<g id="edge35" class="edge">
<title>node0x5030000005e0&#45;&gt;node0x503000000580</title>
<path fill="none" stroke="black" d="M1365.27,-332.47C1328.33,-321.94 1283.95,-309.28 1245.79,-298.39"/>
<polygon fill="black" stroke="black" points="1246.29,-294.9 1235.71,-295.52 1244.37,-301.63 1246.29,-294.9"/>
</g>
<!-- node0x5030000005b0 -->
<g id="node37" class="node">
<title>node0x5030000005b0</title>
<path fill="#ff5050" stroke="black" d="M1338,-249.5C1338,-249.5 1613,-249.5 1613,-249.5 1619,-249.5 1625,-255.5 1625,-261.5 1625,-261.5 1625,-283.5 1625,-283.5 1625,-289.5 1619,-295.5 1613,-295.5 1613,-295.5 1338,-295.5 1338,-295.5 1332,-295.5 1326,-289.5 1326,-283.5 1326,-283.5 1326,-261.5 1326,-261.5 1326,-255.5 1332,-249.5 1338,-249.5"/>
<text text-anchor="middle" x="1475.5" y="-280.3" font-family="Times,serif" font-size="14.00">type = 3 (ID)</text>
<polyline fill="none" stroke="black" points="1326,-272.5 1625,-272.5 "/>
<text text-anchor="middle" x="1475.5" y="-257.3" font-family="Times,serif" font-size="14.00">number of name in name table = &#39;&#39; 22 &#39;&#39;</text>
</g>
<!-- node0x5030000005e0&#45;&gt;node0x5030000005b0 -->
<g id="edge36" class="edge">
<title>node0x5030000005e0&#45;&gt;node0x5030000005b0</title>
<path fill="none" stroke="black" d="M1451.52,-332.37C1454.94,-323.97 1458.9,-314.24 1462.61,-305.14"/>
<polygon fill="black" stroke="black" points="1465.96,-306.19 1466.49,-295.61 1459.48,-303.55 1465.96,-306.19"/>
</g>
<!-- node0x5030000006d0 -->
<g id="node39" class="node">
<title>node0x5030000006d0</title>
<path fill="#00ffdd" stroke="black" d="M1655,-249.5C1655,-249.5 1796,-249.5 1796,-249.5 1802,-249.5 1808,-255.5 1808,-261.5 1808,-261.5 1808,-283.5 1808,-283.5 1808,-289.5 1802,-295.5 1796,-295.5 1796,-295.5 1655,-295.5 1655,-295.5 1649,-295.5 1643,-289.5 1643,-283.5 1643,-283.5 1643,-261.5 1643,-261.5 1643,-255.5 1649,-249.5 1655,-249.5"/>
<text text-anchor="middle" x="1725.5" y="-280.3" font-family="Times,serif" font-size="14.00">type = 2 (OP)</text>
<polyline fill="none" stroke="black" points="1643,-272.5 1808,-272.5 "/>
<text text-anchor="middle" x="1725.5" y="-257.3" font-family="Times,serif" font-size="14.00">value = &#39;&#39; SUB &#39;&#39; (45)</text>
</g>
<!-- node0x503000000820&#45;&gt;node0x5030000006d0 -->
<g id="edge38" class="edge">
<title>node0x503000000820&#45;&gt;node0x5030000006d0</title>
<path fill="none" stroke="black" d="M1725.5,-332.37C1725.5,-324.15 1725.5,-314.66 1725.5,-305.73"/>
<polygon fill="black" stroke="black" points="1729,-305.61 1725.5,-295.61 1722,-305.61 1729,-305.61"/>
</g>
<!-- node0x5030000007f0 -->
<g id="node40" class="node">
<title>node0x5030000007f0</title>
<path fill="#e0e0e0" stroke="black" d="M1838,-249.5C1838,-249.5 2011,-249.5 2011,-249.5 2017,-249.5 2023,-255.5 2023,-261.5 2023,-261.5 2023,-283.5 2023,-283.5 2023,-289.5 2017,-295.5 2011,-295.5 2011,-295.5 1838,-295.5 1838,-295.5 1832,-295.5 1826,-289.5 1826,-283.5 1826,-283.5 1826,-261.5 1826,-261.5 1826,-255.5 1832,-249.5 1838,-249.5"/>
<text text-anchor="middle" x="1924.5" y="-280.3" font-family="Times,serif" font-size="14.00">type = 2 (OP)</text>
<polyline fill="none" stroke="black" points="1826,-272.5 2023,-272.5 "/>
<text text-anchor="middle" x="1924.5" y="-257.3" font-family="Times,serif" font-size="14.00">value = &#39;&#39; SHUTUP &#39;&#39; (59)</text>
</g>
<!-- node0x503000000820&#45;&gt;node0x5030000007f0 -->
<g id="edge39" class="edge">
<title>node0x503000000820&#45;&gt;node0x5030000007f0</title>
<path fill="none" stroke="black" d="M1779.61,-332.47C1804.73,-322.25 1834.75,-310.03 1860.94,-299.37"/>
<polygon fill="black" stroke="black" points="1862.45,-302.53 1870.4,-295.52 1859.81,-296.05 1862.45,-302.53"/>
</g>
<!-- node0x503000000670 -->
<g id="node41" class="node">
<title>node0x503000000670</title>
<path fill="#ff5050" stroke="black" d="M1376,-166.5C1376,-166.5 1651,-166.5 1651,-166.5 1657,-166.5 1663,-172.5 1663,-178.5 1663,-178.5 1663,-200.5 1663,-200.5 1663,-206.5 1657,-212.5 1651,-212.5 1651,-212.5 1376,-212.5 1376,-212.5 1370,-212.5 1364,-206.5 1364,-200.5 1364,-200.5 1364,-178.5 1364,-178.5 1364,-172.5 1370,-166.5 1376,-166.5"/>
<text text-anchor="middle" x="1513.5" y="-197.3" font-family="Times,serif" font-size="14.00">type = 3 (ID)</text>
<polyline fill="none" stroke="black" points="1364,-189.5 1663,-189.5 "/>
<text text-anchor="middle" x="1513.5" y="-174.3" font-family="Times,serif" font-size="14.00">number of name in name table = &#39;&#39; 22 &#39;&#39;</text>
</g>
<!-- node0x5030000006d0&#45;&gt;node0x503000000670 -->
<g id="edge40" class="edge">
<title>node0x5030000006d0&#45;&gt;node0x503000000670</title>
<path fill="none" stroke="black" d="M1667.85,-249.47C1640.86,-239.16 1608.55,-226.82 1580.48,-216.09"/>
<polygon fill="black" stroke="black" points="1581.73,-212.82 1571.14,-212.52 1579.23,-219.36 1581.73,-212.82"/>
</g>
<!-- node0x5030000006a0 -->
<g id="node42" class="node">
<title>node0x5030000006a0</title>
<path fill="#ffd700" stroke="black" d="M1693,-166.5C1693,-166.5 1800,-166.5 1800,-166.5 1806,-166.5 1812,-172.5 1812,-178.5 1812,-178.5 1812,-200.5 1812,-200.5 1812,-206.5 1806,-212.5 1800,-212.5 1800,-212.5 1693,-212.5 1693,-212.5 1687,-212.5 1681,-206.5 1681,-200.5 1681,-200.5 1681,-178.5 1681,-178.5 1681,-172.5 1687,-166.5 1693,-166.5"/>
<text text-anchor="middle" x="1746.5" y="-197.3" font-family="Times,serif" font-size="14.00">type = 1 (NUM)</text>
<polyline fill="none" stroke="black" points="1681,-189.5 1812,-189.5 "/>
<text text-anchor="middle" x="1746.5" y="-174.3" font-family="Times,serif" font-size="14.00">value = &#39;&#39; 14 &#39;&#39;</text>
</g>
<!-- node0x5030000006d0&#45;&gt;node0x5030000006a0 -->
<g id="edge41" class="edge">
<title>node0x5030000006d0&#45;&gt;node0x5030000006a0</title>
<path fill="none" stroke="black" d="M1731.24,-249.37C1733.39,-241.06 1735.88,-231.45 1738.22,-222.43"/>
<polygon fill="black" stroke="black" points="1741.65,-223.17 1740.77,-212.61 1734.87,-221.41 1741.65,-223.17"/>
</g>
<!-- node0x5030000007c0 -->
<g id="node43" class="node">
<title>node0x5030000007c0</title>
<path fill="#00ffdd" stroke="black" d="M1864,-166.5C1864,-166.5 1985,-166.5 1985,-166.5 1991,-166.5 1997,-172.5 1997,-178.5 1997,-178.5 1997,-200.5 1997,-200.5 1997,-206.5 1991,-212.5 1985,-212.5 1985,-212.5 1864,-212.5 1864,-212.5 1858,-212.5 1852,-206.5 1852,-200.5 1852,-200.5 1852,-178.5 1852,-178.5 1852,-172.5 1858,-166.5 1864,-166.5"/>
<text text-anchor="middle" x="1924.5" y="-197.3" font-family="Times,serif" font-size="14.00">type = 2 (OP)</text>
<polyline fill="none" stroke="black" points="1852,-189.5 1997,-189.5 "/>
<text text-anchor="middle" x="1924.5" y="-174.3" font-family="Times,serif" font-size="14.00">value = &#39;&#39; = &#39;&#39; (61)</text>
</g>
<!-- node0x5030000007f0&#45;&gt;node0x5030000007c0 -->
<g id="edge42" class="edge">
<title>node0x5030000007f0&#45;&gt;node0x5030000007c0</title>
<path fill="none" stroke="black" d="M1924.5,-249.37C1924.5,-241.15 1924.5,-231.66 1924.5,-222.73"/>
<polygon fill="black" stroke="black" points="1928,-222.61 1924.5,-212.61 1921,-222.61 1928,-222.61"/>
</g>
<!-- node0x503000000700 -->
<g id="node44" class="node">
<title>node0x503000000700</title>
<path fill="#ff5050" stroke="black" d="M1662,-83.5C1662,-83.5 1937,-83.5 1937,-83.5 1943,-83.5 1949,-89.5 1949,-95.5 1949,-95.5 1949,-117.5 1949,-117.5 1949,-123.5 1943,-129.5 1937,-129.5 1937,-129.5 1662,-129.5 1662,-129.5 1656,-129.5 1650,-123.5 1650,-117.5 1650,-117.5 1650,-95.5 1650,-95.5 1650,-89.5 1656,-83.5 1662,-83.5"/>
<text text-anchor="middle" x="1799.5" y="-114.3" font-family="Times,serif" font-size="14.00">type = 3 (ID)</text>
<polyline fill="none" stroke="black" points="1650,-106.5 1949,-106.5 "/>
<text text-anchor="middle" x="1799.5" y="-91.3" font-family="Times,serif" font-size="14.00">number of name in name table = &#39;&#39; 22 &#39;&#39;</text>
</g>
<!-- node0x5030000007c0&#45;&gt;node0x503000000700 -->
<g id="edge43" class="edge">
<title>node0x5030000007c0&#45;&gt;node0x503000000700</title>
<path fill="none" stroke="black" d="M1890.34,-166.37C1875.46,-156.72 1857.86,-145.32 1842.13,-135.13"/>
<polygon fill="black" stroke="black" points="1843.91,-132.11 1833.62,-129.61 1840.1,-137.98 1843.91,-132.11"/>
</g>
<!-- node0x503000000790 -->
<g id="node45" class="node">
<title>node0x503000000790</title>
<path fill="#00ffdd" stroke="black" d="M1979,-83.5C1979,-83.5 2120,-83.5 2120,-83.5 2126,-83.5 2132,-89.5 2132,-95.5 2132,-95.5 2132,-117.5 2132,-117.5 2132,-123.5 2126,-129.5 2120,-129.5 2120,-129.5 1979,-129.5 1979,-129.5 1973,-129.5 1967,-123.5 1967,-117.5 1967,-117.5 1967,-95.5 1967,-95.5 1967,-89.5 1973,-83.5 1979,-83.5"/>
<text text-anchor="middle" x="2049.5" y="-114.3" font-family="Times,serif" font-size="14.00">type = 2 (OP)</text>
<polyline fill="none" stroke="black" points="1967,-106.5 2132,-106.5 "/>
<text text-anchor="middle" x="2049.5" y="-91.3" font-family="Times,serif" font-size="14.00">value = &#39;&#39; SUB &#39;&#39; (45)</text>
</g>
<!-- node0x5030000007c0&#45;&gt;node0x503000000790 -->
<g id="edge44" class="edge">
<title>node0x5030000007c0&#45;&gt;node0x503000000790</title>
<path fill="none" stroke="black" d="M1958.66,-166.37C1973.54,-156.72 1991.14,-145.32 2006.87,-135.13"/>
<polygon fill="black" stroke="black" points="2008.9,-137.98 2015.38,-129.61 2005.09,-132.11 2008.9,-137.98"/>
</g>
<!-- node0x503000000730 -->
<g id="node46" class="node">
<title>node0x503000000730</title>
<path fill="#ff5050" stroke="black" d="M1796,-0.5C1796,-0.5 2071,-0.5 2071,-0.5 2077,-0.5 2083,-6.5 2083,-12.5 2083,-12.5 2083,-34.5 2083,-34.5 2083,-40.5 2077,-46.5 2071,-46.5 2071,-46.5 1796,-46.5 1796,-46.5 1790,-46.5 1784,-40.5 1784,-34.5 1784,-34.5 1784,-12.5 1784,-12.5 1784,-6.5 1790,-0.5 1796,-0.5"/>
<text text-anchor="middle" x="1933.5" y="-31.3" font-family="Times,serif" font-size="14.00">type = 3 (ID)</text>
<polyline fill="none" stroke="black" points="1784,-23.5 2083,-23.5 "/>
<text text-anchor="middle" x="1933.5" y="-8.3" font-family="Times,serif" font-size="14.00">number of name in name table = &#39;&#39; 22 &#39;&#39;</text>
</g>
<!-- node0x503000000790&#45;&gt;node0x503000000730 -->
<g id="edge45" class="edge">
<title>node0x503000000790&#45;&gt;node0x503000000730</title>
<path fill="none" stroke="black" d="M2017.8,-83.37C2004.12,-73.81 1987.96,-62.53 1973.47,-52.41"/>
<polygon fill="black" stroke="black" points="1975.36,-49.46 1965.16,-46.61 1971.35,-55.2 1975.36,-49.46"/>
</g>
<!-- node0x503000000760 -->
<g id="node47" class="node">
<title>node0x503000000760</title>
<path fill="#ffd700" stroke="black" d="M2113,-0.5C2113,-0.5 2220,-0.5 2220,-0.5 2226,-0.5 2232,-6.5 2232,-12.5 2232,-12.5 2232,-34.5 2232,-34.5 2232,-40.5 2226,-46.5 2220,-46.5 2220,-46.5 2113,-46.5 2113,-46.5 2107,-46.5 2101,-40.5 2101,-34.5 2101,-34.5 2101,-12.5 2101,-12.5 2101,-6.5 2107,-0.5 2113,-0.5"/>
<text text-anchor="middle" x="2166.5" y="-31.3" font-family="Times,serif" font-size="14.00">type = 1 (NUM)</text>
<polyline fill="none" stroke="black" points="2101,-23.5 2232,-23.5 "/>
<text text-anchor="middle" x="2166.5" y="-8.3" font-family="Times,serif" font-size="14.00">value = &#39;&#39; 2 &#39;&#39;</text>
</g>
<!-- node0x503000000790&#45;&gt;node0x503000000760 -->
<g id="edge46" class="edge">
<title>node0x503000000790&#45;&gt;node0x503000000760</title>
<path fill="none" stroke="black" d="M2081.47,-83.37C2095.27,-73.81 2111.57,-62.53 2126.19,-52.41"/>
<polygon fill="black" stroke="black" points="2128.34,-55.18 2134.57,-46.61 2124.35,-49.42 2128.34,-55.18"/>
</g>
<!-- node0x503000000a30 -->
<g id="node49" class="node">
<title>node0x503000000a30</title>
<path fill="#f069f5" stroke="black" d="M1393,-747.5C1393,-747.5 1540,-747.5 1540,-747.5 1546,-747.5 1552,-753.5 1552,-759.5 1552,-759.5 1552,-781.5 1552,-781.5 1552,-787.5 1546,-793.5 1540,-793.5 1540,-793.5 1393,-793.5 1393,-793.5 1387,-793.5 1381,-787.5 1381,-781.5 1381,-781.5 1381,-759.5 1381,-759.5 1381,-753.5 1387,-747.5 1393,-747.5"/>
<text text-anchor="middle" x="1466.5" y="-778.3" font-family="Times,serif" font-size="14.00">type = 4 (FUNC)</text>
<polyline fill="none" stroke="black" points="1381,-770.5 1552,-770.5 "/>
<text text-anchor="middle" x="1466.5" y="-755.3" font-family="Times,serif" font-size="14.00">value = &#39;&#39; CALL &#39;&#39; (67)</text>
</g>
<!-- node0x503000000be0&#45;&gt;node0x503000000a30 -->
<g id="edge48" class="edge">
<title>node0x503000000be0&#45;&gt;node0x503000000a30</title>
<path fill="none" stroke="black" d="M1466.5,-830.37C1466.5,-822.15 1466.5,-812.66 1466.5,-803.73"/>
<polygon fill="black" stroke="black" points="1470,-803.61 1466.5,-793.61 1463,-803.61 1470,-803.61"/>
</g>
<!-- node0x503000000bb0 -->
<g id="node50" class="node">
<title>node0x503000000bb0</title>
<path fill="#e0e0e0" stroke="black" d="M1804,-747.5C1804,-747.5 1977,-747.5 1977,-747.5 1983,-747.5 1989,-753.5 1989,-759.5 1989,-759.5 1989,-781.5 1989,-781.5 1989,-787.5 1983,-793.5 1977,-793.5 1977,-793.5 1804,-793.5 1804,-793.5 1798,-793.5 1792,-787.5 1792,-781.5 1792,-781.5 1792,-759.5 1792,-759.5 1792,-753.5 1798,-747.5 1804,-747.5"/>
<text text-anchor="middle" x="1890.5" y="-778.3" font-family="Times,serif" font-size="14.00">type = 2 (OP)</text>
<polyline fill="none" stroke="black" points="1792,-770.5 1989,-770.5 "/>
<text text-anchor="middle" x="1890.5" y="-755.3" font-family="Times,serif" font-size="14.00">value = &#39;&#39; SHUTUP &#39;&#39; (59)</text>
</g>
<!-- node0x503000000be0&#45;&gt;node0x503000000bb0 -->
<g id="edge49" class="edge">
<title>node0x503000000be0&#45;&gt;node0x503000000bb0</title>
<path fill="none" stroke="black" d="M1578.73,-831.06C1641.61,-819.05 1719.66,-804.14 1781.93,-792.24"/>
<polygon fill="black" stroke="black" points="1782.62,-795.67 1791.79,-790.36 1781.31,-788.8 1782.62,-795.67"/>
</g>
<!-- node0x5030000008e0 -->
<g id="node51" class="node">
<title>node0x5030000008e0</title>
<path fill="#2ee31e" stroke="black" d="M1337.5,-664.5C1337.5,-664.5 1483.5,-664.5 1483.5,-664.5 1489.5,-664.5 1495.5,-670.5 1495.5,-676.5 1495.5,-676.5 1495.5,-698.5 1495.5,-698.5 1495.5,-704.5 1489.5,-710.5 1483.5,-710.5 1483.5,-710.5 1337.5,-710.5 1337.5,-710.5 1331.5,-710.5 1325.5,-704.5 1325.5,-698.5 1325.5,-698.5 1325.5,-676.5 1325.5,-676.5 1325.5,-670.5 1331.5,-664.5 1337.5,-664.5"/>
<text text-anchor="middle" x="1410.5" y="-695.3" font-family="Times,serif" font-size="14.00">type = 4 (FUNC)</text>
<polyline fill="none" stroke="black" points="1325.5,-687.5 1495.5,-687.5 "/>
<text text-anchor="middle" x="1410.5" y="-672.3" font-family="Times,serif" font-size="14.00">value = &#39;&#39; Jump &#39;&#39; (25)</text>
</g>
<!-- node0x503000000a30&#45;&gt;node0x5030000008e0 -->
<g id="edge50" class="edge">
<title>node0x503000000a30&#45;&gt;node0x5030000008e0</title>
<path fill="none" stroke="black" d="M1451.2,-747.37C1445.15,-738.62 1438.09,-728.41 1431.58,-718.99"/>
<polygon fill="black" stroke="black" points="1434.35,-716.84 1425.78,-710.61 1428.59,-720.82 1434.35,-716.84"/>
</g>
<!-- node0x503000000940 -->
<g id="node52" class="node">
<title>node0x503000000940</title>
<path fill="#feaadf" stroke="black" d="M1526,-664.5C1526,-664.5 1639,-664.5 1639,-664.5 1645,-664.5 1651,-670.5 1651,-676.5 1651,-676.5 1651,-698.5 1651,-698.5 1651,-704.5 1645,-710.5 1639,-710.5 1639,-710.5 1526,-710.5 1526,-710.5 1520,-710.5 1514,-704.5 1514,-698.5 1514,-698.5 1514,-676.5 1514,-676.5 1514,-670.5 1520,-664.5 1526,-664.5"/>
<text text-anchor="middle" x="1582.5" y="-695.3" font-family="Times,serif" font-size="14.00">type = 4 (FUNC)</text>
<polyline fill="none" stroke="black" points="1514,-687.5 1651,-687.5 "/>
<text text-anchor="middle" x="1582.5" y="-672.3" font-family="Times,serif" font-size="14.00">value = &#39;&#39; , &#39;&#39; (44)</text>
</g>
<!-- node0x503000000a30&#45;&gt;node0x503000000940 -->
<g id="edge51" class="edge">
<title>node0x503000000a30&#45;&gt;node0x503000000940</title>
<path fill="none" stroke="black" d="M1498.2,-747.37C1511.88,-737.81 1528.04,-726.53 1542.53,-716.41"/>
<polygon fill="black" stroke="black" points="1544.65,-719.2 1550.84,-710.61 1540.64,-713.46 1544.65,-719.2"/>
</g>
<!-- node0x503000000b80 -->
<g id="node58" class="node">
<title>node0x503000000b80</title>
<path fill="#00ffdd" stroke="black" d="M1886,-664.5C1886,-664.5 2007,-664.5 2007,-664.5 2013,-664.5 2019,-670.5 2019,-676.5 2019,-676.5 2019,-698.5 2019,-698.5 2019,-704.5 2013,-710.5 2007,-710.5 2007,-710.5 1886,-710.5 1886,-710.5 1880,-710.5 1874,-704.5 1874,-698.5 1874,-698.5 1874,-676.5 1874,-676.5 1874,-670.5 1880,-664.5 1886,-664.5"/>
<text text-anchor="middle" x="1946.5" y="-695.3" font-family="Times,serif" font-size="14.00">type = 2 (OP)</text>
<polyline fill="none" stroke="black" points="1874,-687.5 2019,-687.5 "/>
<text text-anchor="middle" x="1946.5" y="-672.3" font-family="Times,serif" font-size="14.00">value = &#39;&#39; = &#39;&#39; (61)</text>
</g>
<!-- node0x503000000bb0&#45;&gt;node0x503000000b80 -->
<g id="edge57" class="edge">
<title>node0x503000000bb0&#45;&gt;node0x503000000b80</title>
<path fill="none" stroke="black" d="M1905.8,-747.37C1911.85,-738.62 1918.91,-728.41 1925.42,-718.99"/>
<polygon fill="black" stroke="black" points="1928.41,-720.82 1931.22,-710.61 1922.65,-716.84 1928.41,-720.82"/>
</g>
<!-- node0x503000000910 -->
<g id="node53" class="node">
<title>node0x503000000910</title>
<path fill="#ff5050" stroke="black" d="M1334,-581.5C1334,-581.5 1609,-581.5 1609,-581.5 1615,-581.5 1621,-587.5 1621,-593.5 1621,-593.5 1621,-615.5 1621,-615.5 1621,-621.5 1615,-627.5 1609,-627.5 1609,-627.5 1334,-627.5 1334,-627.5 1328,-627.5 1322,-621.5 1322,-615.5 1322,-615.5 1322,-593.5 1322,-593.5 1322,-587.5 1328,-581.5 1334,-581.5"/>
<text text-anchor="middle" x="1471.5" y="-612.3" font-family="Times,serif" font-size="14.00">type = 3 (ID)</text>
<polyline fill="none" stroke="black" points="1322,-604.5 1621,-604.5 "/>
<text text-anchor="middle" x="1471.5" y="-589.3" font-family="Times,serif" font-size="14.00">number of name in name table = &#39;&#39; 23 &#39;&#39;</text>
</g>
<!-- node0x503000000940&#45;&gt;node0x503000000910 -->
<g id="edge52" class="edge">
<title>node0x503000000940&#45;&gt;node0x503000000910</title>
<path fill="none" stroke="black" d="M1552.17,-664.37C1539.2,-654.9 1523.9,-643.74 1510.13,-633.69"/>
<polygon fill="black" stroke="black" points="1511.94,-630.67 1501.79,-627.61 1507.81,-636.33 1511.94,-630.67"/>
</g>
<!-- node0x5030000009a0 -->
<g id="node54" class="node">
<title>node0x5030000009a0</title>
<path fill="#feaadf" stroke="black" d="M1651,-581.5C1651,-581.5 1764,-581.5 1764,-581.5 1770,-581.5 1776,-587.5 1776,-593.5 1776,-593.5 1776,-615.5 1776,-615.5 1776,-621.5 1770,-627.5 1764,-627.5 1764,-627.5 1651,-627.5 1651,-627.5 1645,-627.5 1639,-621.5 1639,-615.5 1639,-615.5 1639,-593.5 1639,-593.5 1639,-587.5 1645,-581.5 1651,-581.5"/>
<text text-anchor="middle" x="1707.5" y="-612.3" font-family="Times,serif" font-size="14.00">type = 4 (FUNC)</text>
<polyline fill="none" stroke="black" points="1639,-604.5 1776,-604.5 "/>
<text text-anchor="middle" x="1707.5" y="-589.3" font-family="Times,serif" font-size="14.00">value = &#39;&#39; , &#39;&#39; (44)</text>
</g>
<!-- node0x503000000940&#45;&gt;node0x5030000009a0 -->
<g id="edge53" class="edge">
<title>node0x503000000940&#45;&gt;node0x5030000009a0</title>
<path fill="none" stroke="black" d="M1616.66,-664.37C1631.54,-654.72 1649.14,-643.32 1664.87,-633.13"/>
<polygon fill="black" stroke="black" points="1666.9,-635.98 1673.38,-627.61 1663.09,-630.11 1666.9,-635.98"/>
</g>
<!-- node0x503000000970 -->
<g id="node55" class="node">
<title>node0x503000000970</title>
<path fill="#ff5050" stroke="black" d="M1513,-498.5C1513,-498.5 1788,-498.5 1788,-498.5 1794,-498.5 1800,-504.5 1800,-510.5 1800,-510.5 1800,-532.5 1800,-532.5 1800,-538.5 1794,-544.5 1788,-544.5 1788,-544.5 1513,-544.5 1513,-544.5 1507,-544.5 1501,-538.5 1501,-532.5 1501,-532.5 1501,-510.5 1501,-510.5 1501,-504.5 1507,-498.5 1513,-498.5"/>
<text text-anchor="middle" x="1650.5" y="-529.3" font-family="Times,serif" font-size="14.00">type = 3 (ID)</text>
<polyline fill="none" stroke="black" points="1501,-521.5 1800,-521.5 "/>
<text text-anchor="middle" x="1650.5" y="-506.3" font-family="Times,serif" font-size="14.00">number of name in name table = &#39;&#39; 22 &#39;&#39;</text>
</g>
<!-- node0x5030000009a0&#45;&gt;node0x503000000970 -->
<g id="edge54" class="edge">
<title>node0x5030000009a0&#45;&gt;node0x503000000970</title>
<path fill="none" stroke="black" d="M1691.92,-581.37C1685.77,-572.62 1678.59,-562.41 1671.95,-552.99"/>
<polygon fill="black" stroke="black" points="1674.67,-550.77 1666.06,-544.61 1668.95,-554.8 1674.67,-550.77"/>
</g>
<!-- node0x503000000a00 -->
<g id="node56" class="node">
<title>node0x503000000a00</title>
<path fill="#feaadf" stroke="black" d="M1830,-498.5C1830,-498.5 1943,-498.5 1943,-498.5 1949,-498.5 1955,-504.5 1955,-510.5 1955,-510.5 1955,-532.5 1955,-532.5 1955,-538.5 1949,-544.5 1943,-544.5 1943,-544.5 1830,-544.5 1830,-544.5 1824,-544.5 1818,-538.5 1818,-532.5 1818,-532.5 1818,-510.5 1818,-510.5 1818,-504.5 1824,-498.5 1830,-498.5"/>
<text text-anchor="middle" x="1886.5" y="-529.3" font-family="Times,serif" font-size="14.00">type = 4 (FUNC)</text>
<polyline fill="none" stroke="black" points="1818,-521.5 1955,-521.5 "/>
<text text-anchor="middle" x="1886.5" y="-506.3" font-family="Times,serif" font-size="14.00">value = &#39;&#39; , &#39;&#39; (44)</text>
</g>
<!-- node0x5030000009a0&#45;&gt;node0x503000000a00 -->
<g id="edge55" class="edge">
<title>node0x5030000009a0&#45;&gt;node0x503000000a00</title>
<path fill="none" stroke="black" d="M1756.41,-581.37C1778.61,-571.32 1805.04,-559.36 1828.25,-548.86"/>
<polygon fill="black" stroke="black" points="1829.98,-551.92 1837.65,-544.61 1827.09,-545.54 1829.98,-551.92"/>
</g>
<!-- node0x5030000009d0 -->
<g id="node57" class="node">
<title>node0x5030000009d0</title>
<path fill="#ff5050" stroke="black" d="M1747,-415.5C1747,-415.5 2022,-415.5 2022,-415.5 2028,-415.5 2034,-421.5 2034,-427.5 2034,-427.5 2034,-449.5 2034,-449.5 2034,-455.5 2028,-461.5 2022,-461.5 2022,-461.5 1747,-461.5 1747,-461.5 1741,-461.5 1735,-455.5 1735,-449.5 1735,-449.5 1735,-427.5 1735,-427.5 1735,-421.5 1741,-415.5 1747,-415.5"/>
<text text-anchor="middle" x="1884.5" y="-446.3" font-family="Times,serif" font-size="14.00">type = 3 (ID)</text>
<polyline fill="none" stroke="black" points="1735,-438.5 2034,-438.5 "/>
<text text-anchor="middle" x="1884.5" y="-423.3" font-family="Times,serif" font-size="14.00">number of name in name table = &#39;&#39; 24 &#39;&#39;</text>
</g>
<!-- node0x503000000a00&#45;&gt;node0x5030000009d0 -->
<g id="edge56" class="edge">
<title>node0x503000000a00&#45;&gt;node0x5030000009d0</title>
<path fill="none" stroke="black" d="M1885.95,-498.37C1885.75,-490.15 1885.52,-480.66 1885.3,-471.73"/>
<polygon fill="black" stroke="black" points="1888.79,-471.52 1885.05,-461.61 1881.79,-471.69 1888.79,-471.52"/>
</g>
<!-- node0x503000000a60 -->
<g id="node59" class="node">
<title>node0x503000000a60</title>
<path fill="#ff5050" stroke="black" d="M1809,-581.5C1809,-581.5 2084,-581.5 2084,-581.5 2090,-581.5 2096,-587.5 2096,-593.5 2096,-593.5 2096,-615.5 2096,-615.5 2096,-621.5 2090,-627.5 2084,-627.5 2084,-627.5 1809,-627.5 1809,-627.5 1803,-627.5 1797,-621.5 1797,-615.5 1797,-615.5 1797,-593.5 1797,-593.5 1797,-587.5 1803,-581.5 1809,-581.5"/>
<text text-anchor="middle" x="1946.5" y="-612.3" font-family="Times,serif" font-size="14.00">type = 3 (ID)</text>
<polyline fill="none" stroke="black" points="1797,-604.5 2096,-604.5 "/>
<text text-anchor="middle" x="1946.5" y="-589.3" font-family="Times,serif" font-size="14.00">number of name in name table = &#39;&#39; 26 &#39;&#39;</text>
</g>
<!-- node0x503000000b80&#45;&gt;node0x503000000a60 -->
<g id="edge58" class="edge">
<title>node0x503000000b80&#45;&gt;node0x503000000a60</title>
<path fill="none" stroke="black" d="M1946.5,-664.37C1946.5,-656.15 1946.5,-646.66 1946.5,-637.73"/>
<polygon fill="black" stroke="black" points="1950,-637.61 1946.5,-627.61 1943,-637.61 1950,-637.61"/>
</g>
<!-- node0x503000000b50 -->
<g id="node60" class="node">
<title>node0x503000000b50</title>
<path fill="#00ffdd" stroke="black" d="M2127,-581.5C2127,-581.5 2276,-581.5 2276,-581.5 2282,-581.5 2288,-587.5 2288,-593.5 2288,-593.5 2288,-615.5 2288,-615.5 2288,-621.5 2282,-627.5 2276,-627.5 2276,-627.5 2127,-627.5 2127,-627.5 2121,-627.5 2115,-621.5 2115,-615.5 2115,-615.5 2115,-593.5 2115,-593.5 2115,-587.5 2121,-581.5 2127,-581.5"/>
<text text-anchor="middle" x="2201.5" y="-612.3" font-family="Times,serif" font-size="14.00">type = 2 (OP)</text>
<polyline fill="none" stroke="black" points="2115,-604.5 2288,-604.5 "/>
<text text-anchor="middle" x="2201.5" y="-589.3" font-family="Times,serif" font-size="14.00">value = &#39;&#39; PLUS &#39;&#39; (43)</text>
</g>
<!-- node0x503000000b80&#45;&gt;node0x503000000b50 -->
<g id="edge59" class="edge">
<title>node0x503000000b80&#45;&gt;node0x503000000b50</title>
<path fill="none" stroke="black" d="M2015.84,-664.47C2048.73,-654.03 2088.19,-641.49 2122.25,-630.67"/>
<polygon fill="black" stroke="black" points="2123.7,-633.89 2132.17,-627.52 2121.58,-627.21 2123.7,-633.89"/>
</g>
<!-- node0x503000000af0 -->
<g id="node61" class="node">
<title>node0x503000000af0</title>
<path fill="#00ffdd" stroke="black" d="M2127,-498.5C2127,-498.5 2276,-498.5 2276,-498.5 2282,-498.5 2288,-504.5 2288,-510.5 2288,-510.5 2288,-532.5 2288,-532.5 2288,-538.5 2282,-544.5 2276,-544.5 2276,-544.5 2127,-544.5 2127,-544.5 2121,-544.5 2115,-538.5 2115,-532.5 2115,-532.5 2115,-510.5 2115,-510.5 2115,-504.5 2121,-498.5 2127,-498.5"/>
<text text-anchor="middle" x="2201.5" y="-529.3" font-family="Times,serif" font-size="14.00">type = 2 (OP)</text>
<polyline fill="none" stroke="black" points="2115,-521.5 2288,-521.5 "/>
<text text-anchor="middle" x="2201.5" y="-506.3" font-family="Times,serif" font-size="14.00">value = &#39;&#39; PLUS &#39;&#39; (43)</text>
</g>
<!-- node0x503000000b50&#45;&gt;node0x503000000af0 -->
<g id="edge60" class="edge">
<title>node0x503000000b50&#45;&gt;node0x503000000af0</title>
<path fill="none" stroke="black" d="M2201.5,-581.37C2201.5,-573.15 2201.5,-563.66 2201.5,-554.73"/>
<polygon fill="black" stroke="black" points="2205,-554.61 2201.5,-544.61 2198,-554.61 2205,-554.61"/>
</g>
<!-- node0x503000000b20 -->
<g id="node62" class="node">
<title>node0x503000000b20</title>
<path fill="#ff5050" stroke="black" d="M2318,-498.5C2318,-498.5 2593,-498.5 2593,-498.5 2599,-498.5 2605,-504.5 2605,-510.5 2605,-510.5 2605,-532.5 2605,-532.5 2605,-538.5 2599,-544.5 2593,-544.5 2593,-544.5 2318,-544.5 2318,-544.5 2312,-544.5 2306,-538.5 2306,-532.5 2306,-532.5 2306,-510.5 2306,-510.5 2306,-504.5 2312,-498.5 2318,-498.5"/>
<text text-anchor="middle" x="2455.5" y="-529.3" font-family="Times,serif" font-size="14.00">type = 3 (ID)</text>
<polyline fill="none" stroke="black" points="2306,-521.5 2605,-521.5 "/>
<text text-anchor="middle" x="2455.5" y="-506.3" font-family="Times,serif" font-size="14.00">number of name in name table = &#39;&#39; 24 &#39;&#39;</text>
</g>
<!-- node0x503000000b50&#45;&gt;node0x503000000b20 -->
<g id="edge61" class="edge">
<title>node0x503000000b50&#45;&gt;node0x503000000b20</title>
<path fill="none" stroke="black" d="M2270.57,-581.47C2303.33,-571.03 2342.63,-558.49 2376.56,-547.67"/>
<polygon fill="black" stroke="black" points="2377.98,-550.9 2386.44,-544.52 2375.85,-544.23 2377.98,-550.9"/>
</g>
<!-- node0x503000000a90 -->
<g id="node63" class="node">
<title>node0x503000000a90</title>
<path fill="#ff5050" stroke="black" d="M2064,-415.5C2064,-415.5 2339,-415.5 2339,-415.5 2345,-415.5 2351,-421.5 2351,-427.5 2351,-427.5 2351,-449.5 2351,-449.5 2351,-455.5 2345,-461.5 2339,-461.5 2339,-461.5 2064,-461.5 2064,-461.5 2058,-461.5 2052,-455.5 2052,-449.5 2052,-449.5 2052,-427.5 2052,-427.5 2052,-421.5 2058,-415.5 2064,-415.5"/>
<text text-anchor="middle" x="2201.5" y="-446.3" font-family="Times,serif" font-size="14.00">type = 3 (ID)</text>
<polyline fill="none" stroke="black" points="2052,-438.5 2351,-438.5 "/>
<text text-anchor="middle" x="2201.5" y="-423.3" font-family="Times,serif" font-size="14.00">number of name in name table = &#39;&#39; 23 &#39;&#39;</text>
</g>
<!-- node0x503000000af0&#45;&gt;node0x503000000a90 -->
<g id="edge62" class="edge">
<title>node0x503000000af0&#45;&gt;node0x503000000a90</title>
<path fill="none" stroke="black" d="M2201.5,-498.37C2201.5,-490.15 2201.5,-480.66 2201.5,-471.73"/>
<polygon fill="black" stroke="black" points="2205,-471.61 2201.5,-461.61 2198,-471.61 2205,-471.61"/>
</g>
<!-- node0x503000000ac0 -->
<g id="node64" class="node">
<title>node0x503000000ac0</title>
<path fill="#ff5050" stroke="black" d="M2381,-415.5C2381,-415.5 2656,-415.5 2656,-415.5 2662,-415.5 2668,-421.5 2668,-427.5 2668,-427.5 2668,-449.5 2668,-449.5 2668,-455.5 2662,-461.5 2656,-461.5 2656,-461.5 2381,-461.5 2381,-461.5 2375,-461.5 2369,-455.5 2369,-449.5 2369,-449.5 2369,-427.5 2369,-427.5 2369,-421.5 2375,-415.5 2381,-415.5"/>
<text text-anchor="middle" x="2518.5" y="-446.3" font-family="Times,serif" font-size="14.00">type = 3 (ID)</text>
<polyline fill="none" stroke="black" points="2369,-438.5 2668,-438.5 "/>
<text text-anchor="middle" x="2518.5" y="-423.3" font-family="Times,serif" font-size="14.00">number of name in name table = &#39;&#39; 22 &#39;&#39;</text>
</g>
<!-- node0x503000000af0&#45;&gt;node0x503000000ac0 -->
<g id="edge63" class="edge">
<title>node0x503000000af0&#45;&gt;node0x503000000ac0</title>
<path fill="none" stroke="black" d="M2287.7,-498.47C2329.38,-487.83 2379.53,-475.01 2422.43,-464.05"/>
<polygon fill="black" stroke="black" points="2423.49,-467.39 2432.31,-461.52 2421.76,-460.61 2423.49,-467.39"/>
</g>
</g>
</svg>
