<?xml version="1.0" encoding="UTF-8" standalone="no"?>
<!DOCTYPE svg PUBLIC "-//W3C//DTD SVG 1.1//EN"
 "http://www.w3.org/Graphics/SVG/1.1/DTD/svg11.dtd">
<!-- Generated by graphviz version 2.43.0 (0)
 -->
<!-- Title: %3 Pages: 1 -->
<svg width="1440pt" height="875pt"
 viewBox="0.00 0.00 1440.00 875.00" xmlns="http://www.w3.org/2000/svg" xmlns:xlink="http://www.w3.org/1999/xlink">
<g id="graph0" class="graph" transform="scale(1 1) rotate(0) translate(4 871)">
<title>%3</title>
<!-- node0x5030000000d0 -->
<g id="node1" class="node">
<title>node0x5030000000d0</title>
<path fill="#e0e0e0" stroke="black" d="M396,-774.5C396,-774.5 777,-774.5 777,-774.5 783,-774.5 789,-780.5 789,-786.5 789,-786.5 789,-854.5 789,-854.5 789,-860.5 783,-866.5 777,-866.5 777,-866.5 396,-866.5 396,-866.5 390,-866.5 384,-860.5 384,-854.5 384,-854.5 384,-786.5 384,-786.5 384,-780.5 390,-774.5 396,-774.5"/>
<text text-anchor="middle" x="586.5" y="-851.3" font-family="Times,serif" font-size="14.00">[0x5030000000d0]</text>
<polyline fill="none" stroke="black" points="384,-843.5 789,-843.5 "/>
<text text-anchor="middle" x="586.5" y="-828.3" font-family="Times,serif" font-size="14.00">type = 2 (OP)</text>
<polyline fill="none" stroke="black" points="384,-820.5 789,-820.5 "/>
<text text-anchor="middle" x="586.5" y="-805.3" font-family="Times,serif" font-size="14.00">value = &#39;&#39; SHUTUP &#39;&#39; (59)</text>
<polyline fill="none" stroke="black" points="384,-797.5 789,-797.5 "/>
<text text-anchor="middle" x="482.5" y="-782.3" font-family="Times,serif" font-size="14.00">left = [0x5030000000a0]</text>
<polyline fill="none" stroke="black" points="581,-774.5 581,-797.5 "/>
<text text-anchor="middle" x="685" y="-782.3" font-family="Times,serif" font-size="14.00">right = [0x5030000002e0]</text>
</g>
<!-- node0x5030000000a0 -->
<g id="node2" class="node">
<title>node0x5030000000a0</title>
<path fill="#50b2aa" stroke="black" d="M208.5,-645.5C208.5,-645.5 590.5,-645.5 590.5,-645.5 596.5,-645.5 602.5,-651.5 602.5,-657.5 602.5,-657.5 602.5,-725.5 602.5,-725.5 602.5,-731.5 596.5,-737.5 590.5,-737.5 590.5,-737.5 208.5,-737.5 208.5,-737.5 202.5,-737.5 196.5,-731.5 196.5,-725.5 196.5,-725.5 196.5,-657.5 196.5,-657.5 196.5,-651.5 202.5,-645.5 208.5,-645.5"/>
<text text-anchor="middle" x="399.5" y="-722.3" font-family="Times,serif" font-size="14.00">[0x5030000000a0]</text>
<polyline fill="none" stroke="black" points="196.5,-714.5 602.5,-714.5 "/>
<text text-anchor="middle" x="399.5" y="-699.3" font-family="Times,serif" font-size="14.00">type = 2 (OP)</text>
<polyline fill="none" stroke="black" points="196.5,-691.5 602.5,-691.5 "/>
<text text-anchor="middle" x="399.5" y="-676.3" font-family="Times,serif" font-size="14.00">value = &#39;&#39; = &#39;&#39; (61)</text>
<polyline fill="none" stroke="black" points="196.5,-668.5 602.5,-668.5 "/>
<text text-anchor="middle" x="295" y="-653.3" font-family="Times,serif" font-size="14.00">left = [0x503000000040]</text>
<polyline fill="none" stroke="black" points="393.5,-645.5 393.5,-668.5 "/>
<text text-anchor="middle" x="498" y="-653.3" font-family="Times,serif" font-size="14.00">right = [0x503000000070]</text>
</g>
<!-- node0x5030000000d0&#45;&gt;node0x5030000000a0 -->
<g id="edge1" class="edge">
<title>node0x5030000000d0&#45;&gt;node0x5030000000a0</title>
<path fill="none" stroke="black" d="M520.04,-774.37C505.25,-764.32 489.47,-753.6 474.37,-743.35"/>
<polygon fill="black" stroke="black" points="476.3,-740.42 466.06,-737.7 472.36,-746.22 476.3,-740.42"/>
</g>
<!-- node0x5030000002e0 -->
<g id="node3" class="node">
<title>node0x5030000002e0</title>
<path fill="#e0e0e0" stroke="black" d="M632,-645.5C632,-645.5 917,-645.5 917,-645.5 923,-645.5 929,-651.5 929,-657.5 929,-657.5 929,-725.5 929,-725.5 929,-731.5 923,-737.5 917,-737.5 917,-737.5 632,-737.5 632,-737.5 626,-737.5 620,-731.5 620,-725.5 620,-725.5 620,-657.5 620,-657.5 620,-651.5 626,-645.5 632,-645.5"/>
<text text-anchor="middle" x="774.5" y="-722.3" font-family="Times,serif" font-size="14.00">[0x5030000002e0]</text>
<polyline fill="none" stroke="black" points="620,-714.5 929,-714.5 "/>
<text text-anchor="middle" x="774.5" y="-699.3" font-family="Times,serif" font-size="14.00">type = 2 (OP)</text>
<polyline fill="none" stroke="black" points="620,-691.5 929,-691.5 "/>
<text text-anchor="middle" x="774.5" y="-676.3" font-family="Times,serif" font-size="14.00">value = &#39;&#39; SHUTUP &#39;&#39; (59)</text>
<polyline fill="none" stroke="black" points="620,-668.5 929,-668.5 "/>
<text text-anchor="middle" x="718.5" y="-653.3" font-family="Times,serif" font-size="14.00">left = [0x5030000002b0]</text>
<polyline fill="none" stroke="black" points="817,-645.5 817,-668.5 "/>
<text text-anchor="middle" x="873" y="-653.3" font-family="Times,serif" font-size="14.00">right = [(nil)]</text>
</g>
<!-- node0x5030000000d0&#45;&gt;node0x5030000002e0 -->
<g id="edge2" class="edge">
<title>node0x5030000000d0&#45;&gt;node0x5030000002e0</title>
<path fill="none" stroke="black" d="M653.31,-774.37C668.18,-764.32 684.05,-753.6 699.23,-743.35"/>
<polygon fill="black" stroke="black" points="701.26,-746.2 707.59,-737.7 697.34,-740.4 701.26,-746.2"/>
</g>
<!-- node0x503000000040 -->
<g id="node4" class="node">
<title>node0x503000000040</title>
<path fill="#ff5050" stroke="black" d="M12,-516.5C12,-516.5 287,-516.5 287,-516.5 293,-516.5 299,-522.5 299,-528.5 299,-528.5 299,-596.5 299,-596.5 299,-602.5 293,-608.5 287,-608.5 287,-608.5 12,-608.5 12,-608.5 6,-608.5 0,-602.5 0,-596.5 0,-596.5 0,-528.5 0,-528.5 0,-522.5 6,-516.5 12,-516.5"/>
<text text-anchor="middle" x="149.5" y="-593.3" font-family="Times,serif" font-size="14.00">[0x503000000040]</text>
<polyline fill="none" stroke="black" points="0,-585.5 299,-585.5 "/>
<text text-anchor="middle" x="149.5" y="-570.3" font-family="Times,serif" font-size="14.00">type = 3 (ID)</text>
<polyline fill="none" stroke="black" points="0,-562.5 299,-562.5 "/>
<text text-anchor="middle" x="149.5" y="-547.3" font-family="Times,serif" font-size="14.00">number of name in name table = &#39;&#39; 17 &#39;&#39;</text>
<polyline fill="none" stroke="black" points="0,-539.5 299,-539.5 "/>
<text text-anchor="middle" x="72" y="-524.3" font-family="Times,serif" font-size="14.00">left = [(nil)]</text>
<polyline fill="none" stroke="black" points="144,-516.5 144,-539.5 "/>
<text text-anchor="middle" x="221.5" y="-524.3" font-family="Times,serif" font-size="14.00">right = [(nil)]</text>
</g>
<!-- node0x5030000000a0&#45;&gt;node0x503000000040 -->
<g id="edge3" class="edge">
<title>node0x5030000000a0&#45;&gt;node0x503000000040</title>
<path fill="none" stroke="black" d="M310.66,-645.37C290.24,-635 268.41,-623.91 247.63,-613.35"/>
<polygon fill="black" stroke="black" points="248.98,-610.11 238.48,-608.7 245.81,-616.35 248.98,-610.11"/>
</g>
<!-- node0x503000000070 -->
<g id="node5" class="node">
<title>node0x503000000070</title>
<path fill="#ffd700" stroke="black" d="M329,-516.5C329,-516.5 518,-516.5 518,-516.5 524,-516.5 530,-522.5 530,-528.5 530,-528.5 530,-596.5 530,-596.5 530,-602.5 524,-608.5 518,-608.5 518,-608.5 329,-608.5 329,-608.5 323,-608.5 317,-602.5 317,-596.5 317,-596.5 317,-528.5 317,-528.5 317,-522.5 323,-516.5 329,-516.5"/>
<text text-anchor="middle" x="423.5" y="-593.3" font-family="Times,serif" font-size="14.00">[0x503000000070]</text>
<polyline fill="none" stroke="black" points="317,-585.5 530,-585.5 "/>
<text text-anchor="middle" x="423.5" y="-570.3" font-family="Times,serif" font-size="14.00">type = 1 (NUM)</text>
<polyline fill="none" stroke="black" points="317,-562.5 530,-562.5 "/>
<text text-anchor="middle" x="423.5" y="-547.3" font-family="Times,serif" font-size="14.00">value = &#39;&#39; 15 &#39;&#39;</text>
<polyline fill="none" stroke="black" points="317,-539.5 530,-539.5 "/>
<text text-anchor="middle" x="367.5" y="-524.3" font-family="Times,serif" font-size="14.00">left = [(nil)]</text>
<polyline fill="none" stroke="black" points="418,-516.5 418,-539.5 "/>
<text text-anchor="middle" x="474" y="-524.3" font-family="Times,serif" font-size="14.00">right = [(nil)]</text>
</g>
<!-- node0x5030000000a0&#45;&gt;node0x503000000070 -->
<g id="edge4" class="edge">
<title>node0x5030000000a0&#45;&gt;node0x503000000070</title>
<path fill="none" stroke="black" d="M408.03,-645.37C409.65,-636.77 411.37,-627.68 413.05,-618.8"/>
<polygon fill="black" stroke="black" points="416.5,-619.39 414.92,-608.92 409.62,-618.09 416.5,-619.39"/>
</g>
<!-- node0x5030000002b0 -->
<g id="node6" class="node">
<title>node0x5030000002b0</title>
<path fill="#00801a" stroke="black" d="M583.5,-516.5C583.5,-516.5 965.5,-516.5 965.5,-516.5 971.5,-516.5 977.5,-522.5 977.5,-528.5 977.5,-528.5 977.5,-596.5 977.5,-596.5 977.5,-602.5 971.5,-608.5 965.5,-608.5 965.5,-608.5 583.5,-608.5 583.5,-608.5 577.5,-608.5 571.5,-602.5 571.5,-596.5 571.5,-596.5 571.5,-528.5 571.5,-528.5 571.5,-522.5 577.5,-516.5 583.5,-516.5"/>
<text text-anchor="middle" x="774.5" y="-593.3" font-family="Times,serif" font-size="14.00">[0x5030000002b0]</text>
<polyline fill="none" stroke="black" points="571.5,-585.5 977.5,-585.5 "/>
<text text-anchor="middle" x="774.5" y="-570.3" font-family="Times,serif" font-size="14.00">type = 2 (OP)</text>
<polyline fill="none" stroke="black" points="571.5,-562.5 977.5,-562.5 "/>
<text text-anchor="middle" x="774.5" y="-547.3" font-family="Times,serif" font-size="14.00">value = &#39;&#39; FORREAL &#39;&#39; (105)</text>
<polyline fill="none" stroke="black" points="571.5,-539.5 977.5,-539.5 "/>
<text text-anchor="middle" x="670" y="-524.3" font-family="Times,serif" font-size="14.00">left = [0x503000000160]</text>
<polyline fill="none" stroke="black" points="768.5,-516.5 768.5,-539.5 "/>
<text text-anchor="middle" x="873" y="-524.3" font-family="Times,serif" font-size="14.00">right = [0x503000000280]</text>
</g>
<!-- node0x5030000002e0&#45;&gt;node0x5030000002b0 -->
<g id="edge5" class="edge">
<title>node0x5030000002e0&#45;&gt;node0x5030000002b0</title>
<path fill="none" stroke="black" d="M774.5,-645.37C774.5,-636.86 774.5,-627.87 774.5,-619.09"/>
<polygon fill="black" stroke="black" points="778,-618.92 774.5,-608.92 771,-618.92 778,-618.92"/>
</g>
<!-- node0x503000000160 -->
<g id="node7" class="node">
<title>node0x503000000160</title>
<path fill="#50b2aa" stroke="black" d="M395.5,-387.5C395.5,-387.5 777.5,-387.5 777.5,-387.5 783.5,-387.5 789.5,-393.5 789.5,-399.5 789.5,-399.5 789.5,-467.5 789.5,-467.5 789.5,-473.5 783.5,-479.5 777.5,-479.5 777.5,-479.5 395.5,-479.5 395.5,-479.5 389.5,-479.5 383.5,-473.5 383.5,-467.5 383.5,-467.5 383.5,-399.5 383.5,-399.5 383.5,-393.5 389.5,-387.5 395.5,-387.5"/>
<text text-anchor="middle" x="586.5" y="-464.3" font-family="Times,serif" font-size="14.00">[0x503000000160]</text>
<polyline fill="none" stroke="black" points="383.5,-456.5 789.5,-456.5 "/>
<text text-anchor="middle" x="586.5" y="-441.3" font-family="Times,serif" font-size="14.00">type = 2 (OP)</text>
<polyline fill="none" stroke="black" points="383.5,-433.5 789.5,-433.5 "/>
<text text-anchor="middle" x="586.5" y="-418.3" font-family="Times,serif" font-size="14.00">value = &#39;&#39; SUB &#39;&#39; (45)</text>
<polyline fill="none" stroke="black" points="383.5,-410.5 789.5,-410.5 "/>
<text text-anchor="middle" x="482" y="-395.3" font-family="Times,serif" font-size="14.00">left = [0x503000000100]</text>
<polyline fill="none" stroke="black" points="580.5,-387.5 580.5,-410.5 "/>
<text text-anchor="middle" x="685" y="-395.3" font-family="Times,serif" font-size="14.00">right = [0x503000000130]</text>
</g>
<!-- node0x5030000002b0&#45;&gt;node0x503000000160 -->
<g id="edge6" class="edge">
<title>node0x5030000002b0&#45;&gt;node0x503000000160</title>
<path fill="none" stroke="black" d="M707.69,-516.37C692.82,-506.32 676.95,-495.6 661.77,-485.35"/>
<polygon fill="black" stroke="black" points="663.66,-482.4 653.41,-479.7 659.74,-488.2 663.66,-482.4"/>
</g>
<!-- node0x503000000280 -->
<g id="node8" class="node">
<title>node0x503000000280</title>
<path fill="#e0e0e0" stroke="black" d="M819,-387.5C819,-387.5 1104,-387.5 1104,-387.5 1110,-387.5 1116,-393.5 1116,-399.5 1116,-399.5 1116,-467.5 1116,-467.5 1116,-473.5 1110,-479.5 1104,-479.5 1104,-479.5 819,-479.5 819,-479.5 813,-479.5 807,-473.5 807,-467.5 807,-467.5 807,-399.5 807,-399.5 807,-393.5 813,-387.5 819,-387.5"/>
<text text-anchor="middle" x="961.5" y="-464.3" font-family="Times,serif" font-size="14.00">[0x503000000280]</text>
<polyline fill="none" stroke="black" points="807,-456.5 1116,-456.5 "/>
<text text-anchor="middle" x="961.5" y="-441.3" font-family="Times,serif" font-size="14.00">type = 2 (OP)</text>
<polyline fill="none" stroke="black" points="807,-433.5 1116,-433.5 "/>
<text text-anchor="middle" x="961.5" y="-418.3" font-family="Times,serif" font-size="14.00">value = &#39;&#39; SHUTUP &#39;&#39; (59)</text>
<polyline fill="none" stroke="black" points="807,-410.5 1116,-410.5 "/>
<text text-anchor="middle" x="905.5" y="-395.3" font-family="Times,serif" font-size="14.00">left = [0x503000000250]</text>
<polyline fill="none" stroke="black" points="1004,-387.5 1004,-410.5 "/>
<text text-anchor="middle" x="1060" y="-395.3" font-family="Times,serif" font-size="14.00">right = [(nil)]</text>
</g>
<!-- node0x5030000002b0&#45;&gt;node0x503000000280 -->
<g id="edge7" class="edge">
<title>node0x5030000002b0&#45;&gt;node0x503000000280</title>
<path fill="none" stroke="black" d="M840.96,-516.37C855.75,-506.32 871.53,-495.6 886.63,-485.35"/>
<polygon fill="black" stroke="black" points="888.64,-488.22 894.94,-479.7 884.7,-482.42 888.64,-488.22"/>
</g>
<!-- node0x503000000100 -->
<g id="node9" class="node">
<title>node0x503000000100</title>
<path fill="#ff5050" stroke="black" d="M199,-258.5C199,-258.5 474,-258.5 474,-258.5 480,-258.5 486,-264.5 486,-270.5 486,-270.5 486,-338.5 486,-338.5 486,-344.5 480,-350.5 474,-350.5 474,-350.5 199,-350.5 199,-350.5 193,-350.5 187,-344.5 187,-338.5 187,-338.5 187,-270.5 187,-270.5 187,-264.5 193,-258.5 199,-258.5"/>
<text text-anchor="middle" x="336.5" y="-335.3" font-family="Times,serif" font-size="14.00">[0x503000000100]</text>
<polyline fill="none" stroke="black" points="187,-327.5 486,-327.5 "/>
<text text-anchor="middle" x="336.5" y="-312.3" font-family="Times,serif" font-size="14.00">type = 3 (ID)</text>
<polyline fill="none" stroke="black" points="187,-304.5 486,-304.5 "/>
<text text-anchor="middle" x="336.5" y="-289.3" font-family="Times,serif" font-size="14.00">number of name in name table = &#39;&#39; 17 &#39;&#39;</text>
<polyline fill="none" stroke="black" points="187,-281.5 486,-281.5 "/>
<text text-anchor="middle" x="259" y="-266.3" font-family="Times,serif" font-size="14.00">left = [(nil)]</text>
<polyline fill="none" stroke="black" points="331,-258.5 331,-281.5 "/>
<text text-anchor="middle" x="408.5" y="-266.3" font-family="Times,serif" font-size="14.00">right = [(nil)]</text>
</g>
<!-- node0x503000000160&#45;&gt;node0x503000000100 -->
<g id="edge8" class="edge">
<title>node0x503000000160&#45;&gt;node0x503000000100</title>
<path fill="none" stroke="black" d="M497.66,-387.37C477.24,-377 455.41,-365.91 434.63,-355.35"/>
<polygon fill="black" stroke="black" points="435.98,-352.11 425.48,-350.7 432.81,-358.35 435.98,-352.11"/>
</g>
<!-- node0x503000000130 -->
<g id="node10" class="node">
<title>node0x503000000130</title>
<path fill="#ffd700" stroke="black" d="M516,-258.5C516,-258.5 705,-258.5 705,-258.5 711,-258.5 717,-264.5 717,-270.5 717,-270.5 717,-338.5 717,-338.5 717,-344.5 711,-350.5 705,-350.5 705,-350.5 516,-350.5 516,-350.5 510,-350.5 504,-344.5 504,-338.5 504,-338.5 504,-270.5 504,-270.5 504,-264.5 510,-258.5 516,-258.5"/>
<text text-anchor="middle" x="610.5" y="-335.3" font-family="Times,serif" font-size="14.00">[0x503000000130]</text>
<polyline fill="none" stroke="black" points="504,-327.5 717,-327.5 "/>
<text text-anchor="middle" x="610.5" y="-312.3" font-family="Times,serif" font-size="14.00">type = 1 (NUM)</text>
<polyline fill="none" stroke="black" points="504,-304.5 717,-304.5 "/>
<text text-anchor="middle" x="610.5" y="-289.3" font-family="Times,serif" font-size="14.00">value = &#39;&#39; 14 &#39;&#39;</text>
<polyline fill="none" stroke="black" points="504,-281.5 717,-281.5 "/>
<text text-anchor="middle" x="554.5" y="-266.3" font-family="Times,serif" font-size="14.00">left = [(nil)]</text>
<polyline fill="none" stroke="black" points="605,-258.5 605,-281.5 "/>
<text text-anchor="middle" x="661" y="-266.3" font-family="Times,serif" font-size="14.00">right = [(nil)]</text>
</g>
<!-- node0x503000000160&#45;&gt;node0x503000000130 -->
<g id="edge9" class="edge">
<title>node0x503000000160&#45;&gt;node0x503000000130</title>
<path fill="none" stroke="black" d="M595.03,-387.37C596.65,-378.77 598.37,-369.68 600.05,-360.8"/>
<polygon fill="black" stroke="black" points="603.5,-361.39 601.92,-350.92 596.62,-360.09 603.5,-361.39"/>
</g>
<!-- node0x503000000250 -->
<g id="node11" class="node">
<title>node0x503000000250</title>
<path fill="#50b2aa" stroke="black" d="M770.5,-258.5C770.5,-258.5 1152.5,-258.5 1152.5,-258.5 1158.5,-258.5 1164.5,-264.5 1164.5,-270.5 1164.5,-270.5 1164.5,-338.5 1164.5,-338.5 1164.5,-344.5 1158.5,-350.5 1152.5,-350.5 1152.5,-350.5 770.5,-350.5 770.5,-350.5 764.5,-350.5 758.5,-344.5 758.5,-338.5 758.5,-338.5 758.5,-270.5 758.5,-270.5 758.5,-264.5 764.5,-258.5 770.5,-258.5"/>
<text text-anchor="middle" x="961.5" y="-335.3" font-family="Times,serif" font-size="14.00">[0x503000000250]</text>
<polyline fill="none" stroke="black" points="758.5,-327.5 1164.5,-327.5 "/>
<text text-anchor="middle" x="961.5" y="-312.3" font-family="Times,serif" font-size="14.00">type = 2 (OP)</text>
<polyline fill="none" stroke="black" points="758.5,-304.5 1164.5,-304.5 "/>
<text text-anchor="middle" x="961.5" y="-289.3" font-family="Times,serif" font-size="14.00">value = &#39;&#39; = &#39;&#39; (61)</text>
<polyline fill="none" stroke="black" points="758.5,-281.5 1164.5,-281.5 "/>
<text text-anchor="middle" x="857" y="-266.3" font-family="Times,serif" font-size="14.00">left = [0x503000000190]</text>
<polyline fill="none" stroke="black" points="955.5,-258.5 955.5,-281.5 "/>
<text text-anchor="middle" x="1060" y="-266.3" font-family="Times,serif" font-size="14.00">right = [0x503000000220]</text>
</g>
<!-- node0x503000000280&#45;&gt;node0x503000000250 -->
<g id="edge10" class="edge">
<title>node0x503000000280&#45;&gt;node0x503000000250</title>
<path fill="none" stroke="black" d="M961.5,-387.37C961.5,-378.86 961.5,-369.87 961.5,-361.09"/>
<polygon fill="black" stroke="black" points="965,-360.92 961.5,-350.92 958,-360.92 965,-360.92"/>
</g>
<!-- node0x503000000190 -->
<g id="node12" class="node">
<title>node0x503000000190</title>
<path fill="#ff5050" stroke="black" d="M640,-129.5C640,-129.5 915,-129.5 915,-129.5 921,-129.5 927,-135.5 927,-141.5 927,-141.5 927,-209.5 927,-209.5 927,-215.5 921,-221.5 915,-221.5 915,-221.5 640,-221.5 640,-221.5 634,-221.5 628,-215.5 628,-209.5 628,-209.5 628,-141.5 628,-141.5 628,-135.5 634,-129.5 640,-129.5"/>
<text text-anchor="middle" x="777.5" y="-206.3" font-family="Times,serif" font-size="14.00">[0x503000000190]</text>
<polyline fill="none" stroke="black" points="628,-198.5 927,-198.5 "/>
<text text-anchor="middle" x="777.5" y="-183.3" font-family="Times,serif" font-size="14.00">type = 3 (ID)</text>
<polyline fill="none" stroke="black" points="628,-175.5 927,-175.5 "/>
<text text-anchor="middle" x="777.5" y="-160.3" font-family="Times,serif" font-size="14.00">number of name in name table = &#39;&#39; 18 &#39;&#39;</text>
<polyline fill="none" stroke="black" points="628,-152.5 927,-152.5 "/>
<text text-anchor="middle" x="700" y="-137.3" font-family="Times,serif" font-size="14.00">left = [(nil)]</text>
<polyline fill="none" stroke="black" points="772,-129.5 772,-152.5 "/>
<text text-anchor="middle" x="849.5" y="-137.3" font-family="Times,serif" font-size="14.00">right = [(nil)]</text>
</g>
<!-- node0x503000000250&#45;&gt;node0x503000000190 -->
<g id="edge11" class="edge">
<title>node0x503000000250&#45;&gt;node0x503000000190</title>
<path fill="none" stroke="black" d="M896.11,-258.37C881.69,-248.41 866.32,-237.8 851.58,-227.63"/>
<polygon fill="black" stroke="black" points="853.21,-224.5 842.99,-221.7 849.23,-230.26 853.21,-224.5"/>
</g>
<!-- node0x503000000220 -->
<g id="node13" class="node">
<title>node0x503000000220</title>
<path fill="#50b2aa" stroke="black" d="M957,-129.5C957,-129.5 1334,-129.5 1334,-129.5 1340,-129.5 1346,-135.5 1346,-141.5 1346,-141.5 1346,-209.5 1346,-209.5 1346,-215.5 1340,-221.5 1334,-221.5 1334,-221.5 957,-221.5 957,-221.5 951,-221.5 945,-215.5 945,-209.5 945,-209.5 945,-141.5 945,-141.5 945,-135.5 951,-129.5 957,-129.5"/>
<text text-anchor="middle" x="1145.5" y="-206.3" font-family="Times,serif" font-size="14.00">[0x503000000220]</text>
<polyline fill="none" stroke="black" points="945,-198.5 1346,-198.5 "/>
<text text-anchor="middle" x="1145.5" y="-183.3" font-family="Times,serif" font-size="14.00">type = 2 (OP)</text>
<polyline fill="none" stroke="black" points="945,-175.5 1346,-175.5 "/>
<text text-anchor="middle" x="1145.5" y="-160.3" font-family="Times,serif" font-size="14.00">value = &#39;&#39; PLUS &#39;&#39; (43)</text>
<polyline fill="none" stroke="black" points="945,-152.5 1346,-152.5 "/>
<text text-anchor="middle" x="1043" y="-137.3" font-family="Times,serif" font-size="14.00">left = [0x5030000001c0]</text>
<polyline fill="none" stroke="black" points="1141,-129.5 1141,-152.5 "/>
<text text-anchor="middle" x="1243.5" y="-137.3" font-family="Times,serif" font-size="14.00">right = [0x5030000001f0]</text>
</g>
<!-- node0x503000000250&#45;&gt;node0x503000000220 -->
<g id="edge12" class="edge">
<title>node0x503000000250&#45;&gt;node0x503000000220</title>
<path fill="none" stroke="black" d="M1026.89,-258.37C1041.31,-248.41 1056.68,-237.8 1071.42,-227.63"/>
<polygon fill="black" stroke="black" points="1073.77,-230.26 1080.01,-221.7 1069.79,-224.5 1073.77,-230.26"/>
</g>
<!-- node0x5030000001c0 -->
<g id="node14" class="node">
<title>node0x5030000001c0</title>
<path fill="#ffd700" stroke="black" d="M914,-0.5C914,-0.5 1103,-0.5 1103,-0.5 1109,-0.5 1115,-6.5 1115,-12.5 1115,-12.5 1115,-80.5 1115,-80.5 1115,-86.5 1109,-92.5 1103,-92.5 1103,-92.5 914,-92.5 914,-92.5 908,-92.5 902,-86.5 902,-80.5 902,-80.5 902,-12.5 902,-12.5 902,-6.5 908,-0.5 914,-0.5"/>
<text text-anchor="middle" x="1008.5" y="-77.3" font-family="Times,serif" font-size="14.00">[0x5030000001c0]</text>
<polyline fill="none" stroke="black" points="902,-69.5 1115,-69.5 "/>
<text text-anchor="middle" x="1008.5" y="-54.3" font-family="Times,serif" font-size="14.00">type = 1 (NUM)</text>
<polyline fill="none" stroke="black" points="902,-46.5 1115,-46.5 "/>
<text text-anchor="middle" x="1008.5" y="-31.3" font-family="Times,serif" font-size="14.00">value = &#39;&#39; 240 &#39;&#39;</text>
<polyline fill="none" stroke="black" points="902,-23.5 1115,-23.5 "/>
<text text-anchor="middle" x="952.5" y="-8.3" font-family="Times,serif" font-size="14.00">left = [(nil)]</text>
<polyline fill="none" stroke="black" points="1003,-0.5 1003,-23.5 "/>
<text text-anchor="middle" x="1059" y="-8.3" font-family="Times,serif" font-size="14.00">right = [(nil)]</text>
</g>
<!-- node0x503000000220&#45;&gt;node0x5030000001c0 -->
<g id="edge13" class="edge">
<title>node0x503000000220&#45;&gt;node0x5030000001c0</title>
<path fill="none" stroke="black" d="M1096.81,-129.37C1086.54,-119.84 1075.62,-109.72 1065.08,-99.95"/>
<polygon fill="black" stroke="black" points="1067.2,-97.15 1057.49,-92.92 1062.45,-102.28 1067.2,-97.15"/>
</g>
<!-- node0x5030000001f0 -->
<g id="node15" class="node">
<title>node0x5030000001f0</title>
<path fill="#ff5050" stroke="black" d="M1145,-0.5C1145,-0.5 1420,-0.5 1420,-0.5 1426,-0.5 1432,-6.5 1432,-12.5 1432,-12.5 1432,-80.5 1432,-80.5 1432,-86.5 1426,-92.5 1420,-92.5 1420,-92.5 1145,-92.5 1145,-92.5 1139,-92.5 1133,-86.5 1133,-80.5 1133,-80.5 1133,-12.5 1133,-12.5 1133,-6.5 1139,-0.5 1145,-0.5"/>
<text text-anchor="middle" x="1282.5" y="-77.3" font-family="Times,serif" font-size="14.00">[0x5030000001f0]</text>
<polyline fill="none" stroke="black" points="1133,-69.5 1432,-69.5 "/>
<text text-anchor="middle" x="1282.5" y="-54.3" font-family="Times,serif" font-size="14.00">type = 3 (ID)</text>
<polyline fill="none" stroke="black" points="1133,-46.5 1432,-46.5 "/>
<text text-anchor="middle" x="1282.5" y="-31.3" font-family="Times,serif" font-size="14.00">number of name in name table = &#39;&#39; 17 &#39;&#39;</text>
<polyline fill="none" stroke="black" points="1133,-23.5 1432,-23.5 "/>
<text text-anchor="middle" x="1205" y="-8.3" font-family="Times,serif" font-size="14.00">left = [(nil)]</text>
<polyline fill="none" stroke="black" points="1277,-0.5 1277,-23.5 "/>
<text text-anchor="middle" x="1354.5" y="-8.3" font-family="Times,serif" font-size="14.00">right = [(nil)]</text>
</g>
<!-- node0x503000000220&#45;&gt;node0x5030000001f0 -->
<g id="edge14" class="edge">
<title>node0x503000000220&#45;&gt;node0x5030000001f0</title>
<path fill="none" stroke="black" d="M1194.19,-129.37C1204.46,-119.84 1215.38,-109.72 1225.92,-99.95"/>
<polygon fill="black" stroke="black" points="1228.55,-102.28 1233.51,-92.92 1223.8,-97.15 1228.55,-102.28"/>
</g>
</g>
</svg>
