<?xml version="1.0" encoding="UTF-8" standalone="no"?>
<!DOCTYPE svg PUBLIC "-//W3C//DTD SVG 1.1//EN"
 "http://www.w3.org/Graphics/SVG/1.1/DTD/svg11.dtd">
<!-- Generated by graphviz version 2.43.0 (0)
 -->
<!-- Title: %3 Pages: 1 -->
<svg width="1139pt" height="746pt"
 viewBox="0.00 0.00 1139.00 746.00" xmlns="http://www.w3.org/2000/svg" xmlns:xlink="http://www.w3.org/1999/xlink">
<g id="graph0" class="graph" transform="scale(1 1) rotate(0) translate(4 742)">
<title>%3</title>
<!-- node0x503000000250 -->
<g id="node1" class="node">
<title>node0x503000000250</title>
<path fill="#20b2aa" stroke="black" d="M138,-645.5C138,-645.5 520,-645.5 520,-645.5 526,-645.5 532,-651.5 532,-657.5 532,-657.5 532,-725.5 532,-725.5 532,-731.5 526,-737.5 520,-737.5 520,-737.5 138,-737.5 138,-737.5 132,-737.5 126,-731.5 126,-725.5 126,-725.5 126,-657.5 126,-657.5 126,-651.5 132,-645.5 138,-645.5"/>
<text text-anchor="middle" x="329" y="-722.3" font-family="Times,serif" font-size="14.00">[0x503000000250]</text>
<polyline fill="none" stroke="black" points="126,-714.5 532,-714.5 "/>
<text text-anchor="middle" x="329" y="-699.3" font-family="Times,serif" font-size="14.00">type = 2 (OP)</text>
<polyline fill="none" stroke="black" points="126,-691.5 532,-691.5 "/>
<text text-anchor="middle" x="329" y="-676.3" font-family="Times,serif" font-size="14.00">value = &#39;=&#39;</text>
<polyline fill="none" stroke="black" points="126,-668.5 532,-668.5 "/>
<text text-anchor="middle" x="224.5" y="-653.3" font-family="Times,serif" font-size="14.00">left = [0x503000000040]</text>
<polyline fill="none" stroke="black" points="323,-645.5 323,-668.5 "/>
<text text-anchor="middle" x="427.5" y="-653.3" font-family="Times,serif" font-size="14.00">right = [0x503000000220]</text>
</g>
<!-- node0x503000000040 -->
<g id="node2" class="node">
<title>node0x503000000040</title>
<path fill="#f00000" stroke="black" d="M20,-516.5C20,-516.5 278,-516.5 278,-516.5 284,-516.5 290,-522.5 290,-528.5 290,-528.5 290,-596.5 290,-596.5 290,-602.5 284,-608.5 278,-608.5 278,-608.5 20,-608.5 20,-608.5 14,-608.5 8,-602.5 8,-596.5 8,-596.5 8,-528.5 8,-528.5 8,-522.5 14,-516.5 20,-516.5"/>
<text text-anchor="middle" x="149" y="-593.3" font-family="Times,serif" font-size="14.00">[0x503000000040]</text>
<polyline fill="none" stroke="black" points="8,-585.5 290,-585.5 "/>
<text text-anchor="middle" x="149" y="-570.3" font-family="Times,serif" font-size="14.00">type = 4 (ID)</text>
<polyline fill="none" stroke="black" points="8,-562.5 290,-562.5 "/>
<text text-anchor="middle" x="149" y="-547.3" font-family="Times,serif" font-size="14.00">number of name in name table = &#39;12&#39;</text>
<polyline fill="none" stroke="black" points="8,-539.5 290,-539.5 "/>
<text text-anchor="middle" x="75.5" y="-524.3" font-family="Times,serif" font-size="14.00">left = [(nil)]</text>
<polyline fill="none" stroke="black" points="143,-516.5 143,-539.5 "/>
<text text-anchor="middle" x="216.5" y="-524.3" font-family="Times,serif" font-size="14.00">right = [(nil)]</text>
</g>
<!-- node0x503000000250&#45;&gt;node0x503000000040 -->
<g id="edge1" class="edge">
<title>node0x503000000250&#45;&gt;node0x503000000040</title>
<path fill="none" stroke="black" d="M265.03,-645.37C250.93,-635.41 235.89,-624.8 221.47,-614.63"/>
<polygon fill="black" stroke="black" points="223.25,-611.61 213.07,-608.7 219.22,-617.33 223.25,-611.61"/>
</g>
<!-- node0x503000000220 -->
<g id="node3" class="node">
<title>node0x503000000220</title>
<path fill="#20b2aa" stroke="black" d="M320,-516.5C320,-516.5 698,-516.5 698,-516.5 704,-516.5 710,-522.5 710,-528.5 710,-528.5 710,-596.5 710,-596.5 710,-602.5 704,-608.5 698,-608.5 698,-608.5 320,-608.5 320,-608.5 314,-608.5 308,-602.5 308,-596.5 308,-596.5 308,-528.5 308,-528.5 308,-522.5 314,-516.5 320,-516.5"/>
<text text-anchor="middle" x="509" y="-593.3" font-family="Times,serif" font-size="14.00">[0x503000000220]</text>
<polyline fill="none" stroke="black" points="308,-585.5 710,-585.5 "/>
<text text-anchor="middle" x="509" y="-570.3" font-family="Times,serif" font-size="14.00">type = 2 (OP)</text>
<polyline fill="none" stroke="black" points="308,-562.5 710,-562.5 "/>
<text text-anchor="middle" x="509" y="-547.3" font-family="Times,serif" font-size="14.00">value = &#39;/&#39;</text>
<polyline fill="none" stroke="black" points="308,-539.5 710,-539.5 "/>
<text text-anchor="middle" x="406.5" y="-524.3" font-family="Times,serif" font-size="14.00">left = [0x503000000160]</text>
<polyline fill="none" stroke="black" points="505,-516.5 505,-539.5 "/>
<text text-anchor="middle" x="607.5" y="-524.3" font-family="Times,serif" font-size="14.00">right = [0x5030000001f0]</text>
</g>
<!-- node0x503000000250&#45;&gt;node0x503000000220 -->
<g id="edge2" class="edge">
<title>node0x503000000250&#45;&gt;node0x503000000220</title>
<path fill="none" stroke="black" d="M392.97,-645.37C407.07,-635.41 422.11,-624.8 436.53,-614.63"/>
<polygon fill="black" stroke="black" points="438.78,-617.33 444.93,-608.7 434.75,-611.61 438.78,-617.33"/>
</g>
<!-- node0x503000000160 -->
<g id="node4" class="node">
<title>node0x503000000160</title>
<path fill="#20b2aa" stroke="black" d="M179.5,-387.5C179.5,-387.5 464.5,-387.5 464.5,-387.5 470.5,-387.5 476.5,-393.5 476.5,-399.5 476.5,-399.5 476.5,-467.5 476.5,-467.5 476.5,-473.5 470.5,-479.5 464.5,-479.5 464.5,-479.5 179.5,-479.5 179.5,-479.5 173.5,-479.5 167.5,-473.5 167.5,-467.5 167.5,-467.5 167.5,-399.5 167.5,-399.5 167.5,-393.5 173.5,-387.5 179.5,-387.5"/>
<text text-anchor="middle" x="322" y="-464.3" font-family="Times,serif" font-size="14.00">[0x503000000160]</text>
<polyline fill="none" stroke="black" points="167.5,-456.5 476.5,-456.5 "/>
<text text-anchor="middle" x="322" y="-441.3" font-family="Times,serif" font-size="14.00">type = 2 (OP)</text>
<polyline fill="none" stroke="black" points="167.5,-433.5 476.5,-433.5 "/>
<text text-anchor="middle" x="322" y="-418.3" font-family="Times,serif" font-size="14.00">value = &#39;s&#39;</text>
<polyline fill="none" stroke="black" points="167.5,-410.5 476.5,-410.5 "/>
<text text-anchor="middle" x="266" y="-395.3" font-family="Times,serif" font-size="14.00">left = [0x503000000130]</text>
<polyline fill="none" stroke="black" points="364.5,-387.5 364.5,-410.5 "/>
<text text-anchor="middle" x="420.5" y="-395.3" font-family="Times,serif" font-size="14.00">right = [(nil)]</text>
</g>
<!-- node0x503000000220&#45;&gt;node0x503000000160 -->
<g id="edge3" class="edge">
<title>node0x503000000220&#45;&gt;node0x503000000160</title>
<path fill="none" stroke="black" d="M442.54,-516.37C427.75,-506.32 411.97,-495.6 396.87,-485.35"/>
<polygon fill="black" stroke="black" points="398.8,-482.42 388.56,-479.7 394.86,-488.22 398.8,-482.42"/>
</g>
<!-- node0x5030000001f0 -->
<g id="node5" class="node">
<title>node0x5030000001f0</title>
<path fill="#20b2aa" stroke="black" d="M507,-387.5C507,-387.5 887,-387.5 887,-387.5 893,-387.5 899,-393.5 899,-399.5 899,-399.5 899,-467.5 899,-467.5 899,-473.5 893,-479.5 887,-479.5 887,-479.5 507,-479.5 507,-479.5 501,-479.5 495,-473.5 495,-467.5 495,-467.5 495,-399.5 495,-399.5 495,-393.5 501,-387.5 507,-387.5"/>
<text text-anchor="middle" x="697" y="-464.3" font-family="Times,serif" font-size="14.00">[0x5030000001f0]</text>
<polyline fill="none" stroke="black" points="495,-456.5 899,-456.5 "/>
<text text-anchor="middle" x="697" y="-441.3" font-family="Times,serif" font-size="14.00">type = 2 (OP)</text>
<polyline fill="none" stroke="black" points="495,-433.5 899,-433.5 "/>
<text text-anchor="middle" x="697" y="-418.3" font-family="Times,serif" font-size="14.00">value = &#39;^&#39;</text>
<polyline fill="none" stroke="black" points="495,-410.5 899,-410.5 "/>
<text text-anchor="middle" x="593.5" y="-395.3" font-family="Times,serif" font-size="14.00">left = [0x503000000190]</text>
<polyline fill="none" stroke="black" points="692,-387.5 692,-410.5 "/>
<text text-anchor="middle" x="795.5" y="-395.3" font-family="Times,serif" font-size="14.00">right = [0x5030000001c0]</text>
</g>
<!-- node0x503000000220&#45;&gt;node0x5030000001f0 -->
<g id="edge4" class="edge">
<title>node0x503000000220&#45;&gt;node0x5030000001f0</title>
<path fill="none" stroke="black" d="M575.81,-516.37C590.68,-506.32 606.55,-495.6 621.73,-485.35"/>
<polygon fill="black" stroke="black" points="623.76,-488.2 630.09,-479.7 619.84,-482.4 623.76,-488.2"/>
</g>
<!-- node0x503000000130 -->
<g id="node6" class="node">
<title>node0x503000000130</title>
<path fill="#20b2aa" stroke="black" d="M131,-258.5C131,-258.5 513,-258.5 513,-258.5 519,-258.5 525,-264.5 525,-270.5 525,-270.5 525,-338.5 525,-338.5 525,-344.5 519,-350.5 513,-350.5 513,-350.5 131,-350.5 131,-350.5 125,-350.5 119,-344.5 119,-338.5 119,-338.5 119,-270.5 119,-270.5 119,-264.5 125,-258.5 131,-258.5"/>
<text text-anchor="middle" x="322" y="-335.3" font-family="Times,serif" font-size="14.00">[0x503000000130]</text>
<polyline fill="none" stroke="black" points="119,-327.5 525,-327.5 "/>
<text text-anchor="middle" x="322" y="-312.3" font-family="Times,serif" font-size="14.00">type = 2 (OP)</text>
<polyline fill="none" stroke="black" points="119,-304.5 525,-304.5 "/>
<text text-anchor="middle" x="322" y="-289.3" font-family="Times,serif" font-size="14.00">value = &#39;+&#39;</text>
<polyline fill="none" stroke="black" points="119,-281.5 525,-281.5 "/>
<text text-anchor="middle" x="217.5" y="-266.3" font-family="Times,serif" font-size="14.00">left = [0x503000000070]</text>
<polyline fill="none" stroke="black" points="316,-258.5 316,-281.5 "/>
<text text-anchor="middle" x="420.5" y="-266.3" font-family="Times,serif" font-size="14.00">right = [0x503000000100]</text>
</g>
<!-- node0x503000000160&#45;&gt;node0x503000000130 -->
<g id="edge5" class="edge">
<title>node0x503000000160&#45;&gt;node0x503000000130</title>
<path fill="none" stroke="black" d="M322,-387.37C322,-378.86 322,-369.87 322,-361.09"/>
<polygon fill="black" stroke="black" points="325.5,-360.92 322,-350.92 318.5,-360.92 325.5,-360.92"/>
</g>
<!-- node0x503000000190 -->
<g id="node11" class="node">
<title>node0x503000000190</title>
<path fill="#f00000" stroke="black" d="M561,-258.5C561,-258.5 819,-258.5 819,-258.5 825,-258.5 831,-264.5 831,-270.5 831,-270.5 831,-338.5 831,-338.5 831,-344.5 825,-350.5 819,-350.5 819,-350.5 561,-350.5 561,-350.5 555,-350.5 549,-344.5 549,-338.5 549,-338.5 549,-270.5 549,-270.5 549,-264.5 555,-258.5 561,-258.5"/>
<text text-anchor="middle" x="690" y="-335.3" font-family="Times,serif" font-size="14.00">[0x503000000190]</text>
<polyline fill="none" stroke="black" points="549,-327.5 831,-327.5 "/>
<text text-anchor="middle" x="690" y="-312.3" font-family="Times,serif" font-size="14.00">type = 4 (ID)</text>
<polyline fill="none" stroke="black" points="549,-304.5 831,-304.5 "/>
<text text-anchor="middle" x="690" y="-289.3" font-family="Times,serif" font-size="14.00">number of name in name table = &#39;15&#39;</text>
<polyline fill="none" stroke="black" points="549,-281.5 831,-281.5 "/>
<text text-anchor="middle" x="616.5" y="-266.3" font-family="Times,serif" font-size="14.00">left = [(nil)]</text>
<polyline fill="none" stroke="black" points="684,-258.5 684,-281.5 "/>
<text text-anchor="middle" x="757.5" y="-266.3" font-family="Times,serif" font-size="14.00">right = [(nil)]</text>
</g>
<!-- node0x5030000001f0&#45;&gt;node0x503000000190 -->
<g id="edge10" class="edge">
<title>node0x5030000001f0&#45;&gt;node0x503000000190</title>
<path fill="none" stroke="black" d="M694.51,-387.37C694.04,-378.86 693.55,-369.87 693.06,-361.09"/>
<polygon fill="black" stroke="black" points="696.55,-360.71 692.5,-350.92 689.56,-361.09 696.55,-360.71"/>
</g>
<!-- node0x5030000001c0 -->
<g id="node12" class="node">
<title>node0x5030000001c0</title>
<path fill="#f00000" stroke="black" d="M861,-258.5C861,-258.5 1119,-258.5 1119,-258.5 1125,-258.5 1131,-264.5 1131,-270.5 1131,-270.5 1131,-338.5 1131,-338.5 1131,-344.5 1125,-350.5 1119,-350.5 1119,-350.5 861,-350.5 861,-350.5 855,-350.5 849,-344.5 849,-338.5 849,-338.5 849,-270.5 849,-270.5 849,-264.5 855,-258.5 861,-258.5"/>
<text text-anchor="middle" x="990" y="-335.3" font-family="Times,serif" font-size="14.00">[0x5030000001c0]</text>
<polyline fill="none" stroke="black" points="849,-327.5 1131,-327.5 "/>
<text text-anchor="middle" x="990" y="-312.3" font-family="Times,serif" font-size="14.00">type = 4 (ID)</text>
<polyline fill="none" stroke="black" points="849,-304.5 1131,-304.5 "/>
<text text-anchor="middle" x="990" y="-289.3" font-family="Times,serif" font-size="14.00">number of name in name table = &#39;16&#39;</text>
<polyline fill="none" stroke="black" points="849,-281.5 1131,-281.5 "/>
<text text-anchor="middle" x="916.5" y="-266.3" font-family="Times,serif" font-size="14.00">left = [(nil)]</text>
<polyline fill="none" stroke="black" points="984,-258.5 984,-281.5 "/>
<text text-anchor="middle" x="1057.5" y="-266.3" font-family="Times,serif" font-size="14.00">right = [(nil)]</text>
</g>
<!-- node0x5030000001f0&#45;&gt;node0x5030000001c0 -->
<g id="edge11" class="edge">
<title>node0x5030000001f0&#45;&gt;node0x5030000001c0</title>
<path fill="none" stroke="black" d="M801.13,-387.37C825.48,-376.81 851.55,-365.51 876.3,-354.78"/>
<polygon fill="black" stroke="black" points="877.93,-357.89 885.72,-350.7 875.15,-351.47 877.93,-357.89"/>
</g>
<!-- node0x503000000070 -->
<g id="node7" class="node">
<title>node0x503000000070</title>
<path fill="#f00000" stroke="black" d="M12,-129.5C12,-129.5 270,-129.5 270,-129.5 276,-129.5 282,-135.5 282,-141.5 282,-141.5 282,-209.5 282,-209.5 282,-215.5 276,-221.5 270,-221.5 270,-221.5 12,-221.5 12,-221.5 6,-221.5 0,-215.5 0,-209.5 0,-209.5 0,-141.5 0,-141.5 0,-135.5 6,-129.5 12,-129.5"/>
<text text-anchor="middle" x="141" y="-206.3" font-family="Times,serif" font-size="14.00">[0x503000000070]</text>
<polyline fill="none" stroke="black" points="0,-198.5 282,-198.5 "/>
<text text-anchor="middle" x="141" y="-183.3" font-family="Times,serif" font-size="14.00">type = 4 (ID)</text>
<polyline fill="none" stroke="black" points="0,-175.5 282,-175.5 "/>
<text text-anchor="middle" x="141" y="-160.3" font-family="Times,serif" font-size="14.00">number of name in name table = &#39;13&#39;</text>
<polyline fill="none" stroke="black" points="0,-152.5 282,-152.5 "/>
<text text-anchor="middle" x="67.5" y="-137.3" font-family="Times,serif" font-size="14.00">left = [(nil)]</text>
<polyline fill="none" stroke="black" points="135,-129.5 135,-152.5 "/>
<text text-anchor="middle" x="208.5" y="-137.3" font-family="Times,serif" font-size="14.00">right = [(nil)]</text>
</g>
<!-- node0x503000000130&#45;&gt;node0x503000000070 -->
<g id="edge6" class="edge">
<title>node0x503000000130&#45;&gt;node0x503000000070</title>
<path fill="none" stroke="black" d="M257.68,-258.37C243.49,-248.41 228.37,-237.8 213.87,-227.63"/>
<polygon fill="black" stroke="black" points="215.62,-224.58 205.42,-221.7 211.6,-230.31 215.62,-224.58"/>
</g>
<!-- node0x503000000100 -->
<g id="node8" class="node">
<title>node0x503000000100</title>
<path fill="#20b2aa" stroke="black" d="M312,-129.5C312,-129.5 694,-129.5 694,-129.5 700,-129.5 706,-135.5 706,-141.5 706,-141.5 706,-209.5 706,-209.5 706,-215.5 700,-221.5 694,-221.5 694,-221.5 312,-221.5 312,-221.5 306,-221.5 300,-215.5 300,-209.5 300,-209.5 300,-141.5 300,-141.5 300,-135.5 306,-129.5 312,-129.5"/>
<text text-anchor="middle" x="503" y="-206.3" font-family="Times,serif" font-size="14.00">[0x503000000100]</text>
<polyline fill="none" stroke="black" points="300,-198.5 706,-198.5 "/>
<text text-anchor="middle" x="503" y="-183.3" font-family="Times,serif" font-size="14.00">type = 2 (OP)</text>
<polyline fill="none" stroke="black" points="300,-175.5 706,-175.5 "/>
<text text-anchor="middle" x="503" y="-160.3" font-family="Times,serif" font-size="14.00">value = &#39;*&#39;</text>
<polyline fill="none" stroke="black" points="300,-152.5 706,-152.5 "/>
<text text-anchor="middle" x="398.5" y="-137.3" font-family="Times,serif" font-size="14.00">left = [0x5030000000a0]</text>
<polyline fill="none" stroke="black" points="497,-129.5 497,-152.5 "/>
<text text-anchor="middle" x="601.5" y="-137.3" font-family="Times,serif" font-size="14.00">right = [0x5030000000d0]</text>
</g>
<!-- node0x503000000130&#45;&gt;node0x503000000100 -->
<g id="edge7" class="edge">
<title>node0x503000000130&#45;&gt;node0x503000000100</title>
<path fill="none" stroke="black" d="M386.32,-258.37C400.51,-248.41 415.63,-237.8 430.13,-227.63"/>
<polygon fill="black" stroke="black" points="432.4,-230.31 438.58,-221.7 428.38,-224.58 432.4,-230.31"/>
</g>
<!-- node0x5030000000a0 -->
<g id="node9" class="node">
<title>node0x5030000000a0</title>
<path fill="#ffd700" stroke="black" d="M275.5,-0.5C275.5,-0.5 464.5,-0.5 464.5,-0.5 470.5,-0.5 476.5,-6.5 476.5,-12.5 476.5,-12.5 476.5,-80.5 476.5,-80.5 476.5,-86.5 470.5,-92.5 464.5,-92.5 464.5,-92.5 275.5,-92.5 275.5,-92.5 269.5,-92.5 263.5,-86.5 263.5,-80.5 263.5,-80.5 263.5,-12.5 263.5,-12.5 263.5,-6.5 269.5,-0.5 275.5,-0.5"/>
<text text-anchor="middle" x="370" y="-77.3" font-family="Times,serif" font-size="14.00">[0x5030000000a0]</text>
<polyline fill="none" stroke="black" points="263.5,-69.5 476.5,-69.5 "/>
<text text-anchor="middle" x="370" y="-54.3" font-family="Times,serif" font-size="14.00">type = 1 (NUM)</text>
<polyline fill="none" stroke="black" points="263.5,-46.5 476.5,-46.5 "/>
<text text-anchor="middle" x="370" y="-31.3" font-family="Times,serif" font-size="14.00">value = 5</text>
<polyline fill="none" stroke="black" points="263.5,-23.5 476.5,-23.5 "/>
<text text-anchor="middle" x="314" y="-8.3" font-family="Times,serif" font-size="14.00">left = [(nil)]</text>
<polyline fill="none" stroke="black" points="364.5,-0.5 364.5,-23.5 "/>
<text text-anchor="middle" x="420.5" y="-8.3" font-family="Times,serif" font-size="14.00">right = [(nil)]</text>
</g>
<!-- node0x503000000100&#45;&gt;node0x5030000000a0 -->
<g id="edge8" class="edge">
<title>node0x503000000100&#45;&gt;node0x5030000000a0</title>
<path fill="none" stroke="black" d="M455.73,-129.37C445.76,-119.84 435.16,-109.72 424.93,-99.95"/>
<polygon fill="black" stroke="black" points="427.21,-97.29 417.56,-92.92 422.38,-102.35 427.21,-97.29"/>
</g>
<!-- node0x5030000000d0 -->
<g id="node10" class="node">
<title>node0x5030000000d0</title>
<path fill="#f00000" stroke="black" d="M507,-0.5C507,-0.5 765,-0.5 765,-0.5 771,-0.5 777,-6.5 777,-12.5 777,-12.5 777,-80.5 777,-80.5 777,-86.5 771,-92.5 765,-92.5 765,-92.5 507,-92.5 507,-92.5 501,-92.5 495,-86.5 495,-80.5 495,-80.5 495,-12.5 495,-12.5 495,-6.5 501,-0.5 507,-0.5"/>
<text text-anchor="middle" x="636" y="-77.3" font-family="Times,serif" font-size="14.00">[0x5030000000d0]</text>
<polyline fill="none" stroke="black" points="495,-69.5 777,-69.5 "/>
<text text-anchor="middle" x="636" y="-54.3" font-family="Times,serif" font-size="14.00">type = 4 (ID)</text>
<polyline fill="none" stroke="black" points="495,-46.5 777,-46.5 "/>
<text text-anchor="middle" x="636" y="-31.3" font-family="Times,serif" font-size="14.00">number of name in name table = &#39;14&#39;</text>
<polyline fill="none" stroke="black" points="495,-23.5 777,-23.5 "/>
<text text-anchor="middle" x="562.5" y="-8.3" font-family="Times,serif" font-size="14.00">left = [(nil)]</text>
<polyline fill="none" stroke="black" points="630,-0.5 630,-23.5 "/>
<text text-anchor="middle" x="703.5" y="-8.3" font-family="Times,serif" font-size="14.00">right = [(nil)]</text>
</g>
<!-- node0x503000000100&#45;&gt;node0x5030000000d0 -->
<g id="edge9" class="edge">
<title>node0x503000000100&#45;&gt;node0x5030000000d0</title>
<path fill="none" stroke="black" d="M550.27,-129.37C560.24,-119.84 570.84,-109.72 581.07,-99.95"/>
<polygon fill="black" stroke="black" points="583.62,-102.35 588.44,-92.92 578.79,-97.29 583.62,-102.35"/>
</g>
</g>
</svg>
