<?xml version="1.0" encoding="UTF-8" standalone="no"?>
<!DOCTYPE svg PUBLIC "-//W3C//DTD SVG 1.1//EN"
 "http://www.w3.org/Graphics/SVG/1.1/DTD/svg11.dtd">
<!-- Generated by graphviz version 2.43.0 (0)
 -->
<!-- Title: %3 Pages: 1 -->
<svg width="2277pt" height="968pt"
 viewBox="0.00 0.00 2277.00 968.00" xmlns="http://www.w3.org/2000/svg" xmlns:xlink="http://www.w3.org/1999/xlink">
<g id="graph0" class="graph" transform="scale(1 1) rotate(0) translate(4 964)">
<title>%3</title>
<!-- node0x503000000880 -->
<g id="node1" class="node">
<title>node0x503000000880</title>
<path fill="#755cf7" stroke="black" d="M308.5,-913.5C308.5,-913.5 508.5,-913.5 508.5,-913.5 514.5,-913.5 520.5,-919.5 520.5,-925.5 520.5,-925.5 520.5,-947.5 520.5,-947.5 520.5,-953.5 514.5,-959.5 508.5,-959.5 508.5,-959.5 308.5,-959.5 308.5,-959.5 302.5,-959.5 296.5,-953.5 296.5,-947.5 296.5,-947.5 296.5,-925.5 296.5,-925.5 296.5,-919.5 302.5,-913.5 308.5,-913.5"/>
<text text-anchor="middle" x="408.5" y="-944.3" font-family="Times,serif" font-size="14.00">type = 4 (FUNC)</text>
<polyline fill="none" stroke="black" points="296.5,-936.5 520.5,-936.5 "/>
<text text-anchor="middle" x="408.5" y="-921.3" font-family="Times,serif" font-size="14.00">value = &#39;&#39; DEFINITION &#39;&#39; (68)</text>
</g>
<!-- node0x5030000000d0 -->
<g id="node2" class="node">
<title>node0x5030000000d0</title>
<path fill="#f069f5" stroke="black" d="M234,-830.5C234,-830.5 381,-830.5 381,-830.5 387,-830.5 393,-836.5 393,-842.5 393,-842.5 393,-864.5 393,-864.5 393,-870.5 387,-876.5 381,-876.5 381,-876.5 234,-876.5 234,-876.5 228,-876.5 222,-870.5 222,-864.5 222,-864.5 222,-842.5 222,-842.5 222,-836.5 228,-830.5 234,-830.5"/>
<text text-anchor="middle" x="307.5" y="-861.3" font-family="Times,serif" font-size="14.00">type = 4 (FUNC)</text>
<polyline fill="none" stroke="black" points="222,-853.5 393,-853.5 "/>
<text text-anchor="middle" x="307.5" y="-838.3" font-family="Times,serif" font-size="14.00">value = &#39;&#39; CALL &#39;&#39; (67)</text>
</g>
<!-- node0x503000000880&#45;&gt;node0x5030000000d0 -->
<g id="edge1" class="edge">
<title>node0x503000000880&#45;&gt;node0x5030000000d0</title>
<path fill="none" stroke="black" d="M380.9,-913.37C369.21,-903.99 355.44,-892.95 343.01,-882.98"/>
<polygon fill="black" stroke="black" points="345.06,-880.13 335.07,-876.61 340.68,-885.59 345.06,-880.13"/>
</g>
<!-- node0x503000000190 -->
<g id="node3" class="node">
<title>node0x503000000190</title>
<path fill="#e0e0e0" stroke="black" d="M480,-830.5C480,-830.5 653,-830.5 653,-830.5 659,-830.5 665,-836.5 665,-842.5 665,-842.5 665,-864.5 665,-864.5 665,-870.5 659,-876.5 653,-876.5 653,-876.5 480,-876.5 480,-876.5 474,-876.5 468,-870.5 468,-864.5 468,-864.5 468,-842.5 468,-842.5 468,-836.5 474,-830.5 480,-830.5"/>
<text text-anchor="middle" x="566.5" y="-861.3" font-family="Times,serif" font-size="14.00">type = 2 (OP)</text>
<polyline fill="none" stroke="black" points="468,-853.5 665,-853.5 "/>
<text text-anchor="middle" x="566.5" y="-838.3" font-family="Times,serif" font-size="14.00">value = &#39;&#39; SHUTUP &#39;&#39; (59)</text>
</g>
<!-- node0x503000000880&#45;&gt;node0x503000000190 -->
<g id="edge2" class="edge">
<title>node0x503000000880&#45;&gt;node0x503000000190</title>
<path fill="none" stroke="black" d="M451.67,-913.37C471.01,-903.46 493.97,-891.68 514.26,-881.28"/>
<polygon fill="black" stroke="black" points="516.08,-884.28 523.38,-876.61 512.88,-878.05 516.08,-884.28"/>
</g>
<!-- node0x503000000040 -->
<g id="node4" class="node">
<title>node0x503000000040</title>
<path fill="#2ee31e" stroke="black" d="M66.5,-747.5C66.5,-747.5 208.5,-747.5 208.5,-747.5 214.5,-747.5 220.5,-753.5 220.5,-759.5 220.5,-759.5 220.5,-781.5 220.5,-781.5 220.5,-787.5 214.5,-793.5 208.5,-793.5 208.5,-793.5 66.5,-793.5 66.5,-793.5 60.5,-793.5 54.5,-787.5 54.5,-781.5 54.5,-781.5 54.5,-759.5 54.5,-759.5 54.5,-753.5 60.5,-747.5 66.5,-747.5"/>
<text text-anchor="middle" x="137.5" y="-778.3" font-family="Times,serif" font-size="14.00">type = 4 (FUNC)</text>
<polyline fill="none" stroke="black" points="54.5,-770.5 220.5,-770.5 "/>
<text text-anchor="middle" x="137.5" y="-755.3" font-family="Times,serif" font-size="14.00">value = &#39;&#39; carti &#39;&#39; (20)</text>
</g>
<!-- node0x5030000000d0&#45;&gt;node0x503000000040 -->
<g id="edge3" class="edge">
<title>node0x5030000000d0&#45;&gt;node0x503000000040</title>
<path fill="none" stroke="black" d="M261.05,-830.37C240.06,-820.37 215.09,-808.47 193.11,-798"/>
<polygon fill="black" stroke="black" points="194.43,-794.75 183.9,-793.61 191.42,-801.07 194.43,-794.75"/>
</g>
<!-- node0x5030000000a0 -->
<g id="node5" class="node">
<title>node0x5030000000a0</title>
<path fill="#feaadf" stroke="black" d="M251,-747.5C251,-747.5 364,-747.5 364,-747.5 370,-747.5 376,-753.5 376,-759.5 376,-759.5 376,-781.5 376,-781.5 376,-787.5 370,-793.5 364,-793.5 364,-793.5 251,-793.5 251,-793.5 245,-793.5 239,-787.5 239,-781.5 239,-781.5 239,-759.5 239,-759.5 239,-753.5 245,-747.5 251,-747.5"/>
<text text-anchor="middle" x="307.5" y="-778.3" font-family="Times,serif" font-size="14.00">type = 4 (FUNC)</text>
<polyline fill="none" stroke="black" points="239,-770.5 376,-770.5 "/>
<text text-anchor="middle" x="307.5" y="-755.3" font-family="Times,serif" font-size="14.00">value = &#39;&#39; , &#39;&#39; (44)</text>
</g>
<!-- node0x5030000000d0&#45;&gt;node0x5030000000a0 -->
<g id="edge4" class="edge">
<title>node0x5030000000d0&#45;&gt;node0x5030000000a0</title>
<path fill="none" stroke="black" d="M307.5,-830.37C307.5,-822.15 307.5,-812.66 307.5,-803.73"/>
<polygon fill="black" stroke="black" points="311,-803.61 307.5,-793.61 304,-803.61 311,-803.61"/>
</g>
<!-- node0x503000000160 -->
<g id="node7" class="node">
<title>node0x503000000160</title>
<path fill="#00ffdd" stroke="black" d="M506,-747.5C506,-747.5 627,-747.5 627,-747.5 633,-747.5 639,-753.5 639,-759.5 639,-759.5 639,-781.5 639,-781.5 639,-787.5 633,-793.5 627,-793.5 627,-793.5 506,-793.5 506,-793.5 500,-793.5 494,-787.5 494,-781.5 494,-781.5 494,-759.5 494,-759.5 494,-753.5 500,-747.5 506,-747.5"/>
<text text-anchor="middle" x="566.5" y="-778.3" font-family="Times,serif" font-size="14.00">type = 2 (OP)</text>
<polyline fill="none" stroke="black" points="494,-770.5 639,-770.5 "/>
<text text-anchor="middle" x="566.5" y="-755.3" font-family="Times,serif" font-size="14.00">value = &#39;&#39; = &#39;&#39; (61)</text>
</g>
<!-- node0x503000000190&#45;&gt;node0x503000000160 -->
<g id="edge6" class="edge">
<title>node0x503000000190&#45;&gt;node0x503000000160</title>
<path fill="none" stroke="black" d="M566.5,-830.37C566.5,-822.15 566.5,-812.66 566.5,-803.73"/>
<polygon fill="black" stroke="black" points="570,-803.61 566.5,-793.61 563,-803.61 570,-803.61"/>
</g>
<!-- node0x503000000250 -->
<g id="node8" class="node">
<title>node0x503000000250</title>
<path fill="#e0e0e0" stroke="black" d="M769,-747.5C769,-747.5 942,-747.5 942,-747.5 948,-747.5 954,-753.5 954,-759.5 954,-759.5 954,-781.5 954,-781.5 954,-787.5 948,-793.5 942,-793.5 942,-793.5 769,-793.5 769,-793.5 763,-793.5 757,-787.5 757,-781.5 757,-781.5 757,-759.5 757,-759.5 757,-753.5 763,-747.5 769,-747.5"/>
<text text-anchor="middle" x="855.5" y="-778.3" font-family="Times,serif" font-size="14.00">type = 2 (OP)</text>
<polyline fill="none" stroke="black" points="757,-770.5 954,-770.5 "/>
<text text-anchor="middle" x="855.5" y="-755.3" font-family="Times,serif" font-size="14.00">value = &#39;&#39; SHUTUP &#39;&#39; (59)</text>
</g>
<!-- node0x503000000190&#45;&gt;node0x503000000250 -->
<g id="edge7" class="edge">
<title>node0x503000000190&#45;&gt;node0x503000000250</title>
<path fill="none" stroke="black" d="M645.09,-830.47C682.84,-819.89 728.23,-807.17 767.17,-796.26"/>
<polygon fill="black" stroke="black" points="768.24,-799.59 776.93,-793.52 766.35,-792.85 768.24,-799.59"/>
</g>
<!-- node0x503000000070 -->
<g id="node6" class="node">
<title>node0x503000000070</title>
<path fill="#ff5050" stroke="black" d="M12,-664.5C12,-664.5 287,-664.5 287,-664.5 293,-664.5 299,-670.5 299,-676.5 299,-676.5 299,-698.5 299,-698.5 299,-704.5 293,-710.5 287,-710.5 287,-710.5 12,-710.5 12,-710.5 6,-710.5 0,-704.5 0,-698.5 0,-698.5 0,-676.5 0,-676.5 0,-670.5 6,-664.5 12,-664.5"/>
<text text-anchor="middle" x="149.5" y="-695.3" font-family="Times,serif" font-size="14.00">type = 3 (ID)</text>
<polyline fill="none" stroke="black" points="0,-687.5 299,-687.5 "/>
<text text-anchor="middle" x="149.5" y="-672.3" font-family="Times,serif" font-size="14.00">number of name in name table = &#39;&#39; 21 &#39;&#39;</text>
</g>
<!-- node0x5030000000a0&#45;&gt;node0x503000000070 -->
<g id="edge5" class="edge">
<title>node0x5030000000a0&#45;&gt;node0x503000000070</title>
<path fill="none" stroke="black" d="M264.33,-747.37C244.99,-737.46 222.03,-725.68 201.74,-715.28"/>
<polygon fill="black" stroke="black" points="203.12,-712.05 192.62,-710.61 199.92,-718.28 203.12,-712.05"/>
</g>
<!-- node0x503000000100 -->
<g id="node9" class="node">
<title>node0x503000000100</title>
<path fill="#ff5050" stroke="black" d="M329,-664.5C329,-664.5 604,-664.5 604,-664.5 610,-664.5 616,-670.5 616,-676.5 616,-676.5 616,-698.5 616,-698.5 616,-704.5 610,-710.5 604,-710.5 604,-710.5 329,-710.5 329,-710.5 323,-710.5 317,-704.5 317,-698.5 317,-698.5 317,-676.5 317,-676.5 317,-670.5 323,-664.5 329,-664.5"/>
<text text-anchor="middle" x="466.5" y="-695.3" font-family="Times,serif" font-size="14.00">type = 3 (ID)</text>
<polyline fill="none" stroke="black" points="317,-687.5 616,-687.5 "/>
<text text-anchor="middle" x="466.5" y="-672.3" font-family="Times,serif" font-size="14.00">number of name in name table = &#39;&#39; 22 &#39;&#39;</text>
</g>
<!-- node0x503000000160&#45;&gt;node0x503000000100 -->
<g id="edge8" class="edge">
<title>node0x503000000160&#45;&gt;node0x503000000100</title>
<path fill="none" stroke="black" d="M539.17,-747.37C527.6,-737.99 513.97,-726.95 501.66,-716.98"/>
<polygon fill="black" stroke="black" points="503.77,-714.18 493.79,-710.61 499.36,-719.62 503.77,-714.18"/>
</g>
<!-- node0x503000000130 -->
<g id="node10" class="node">
<title>node0x503000000130</title>
<path fill="#ffd700" stroke="black" d="M646,-664.5C646,-664.5 753,-664.5 753,-664.5 759,-664.5 765,-670.5 765,-676.5 765,-676.5 765,-698.5 765,-698.5 765,-704.5 759,-710.5 753,-710.5 753,-710.5 646,-710.5 646,-710.5 640,-710.5 634,-704.5 634,-698.5 634,-698.5 634,-676.5 634,-676.5 634,-670.5 640,-664.5 646,-664.5"/>
<text text-anchor="middle" x="699.5" y="-695.3" font-family="Times,serif" font-size="14.00">type = 1 (NUM)</text>
<polyline fill="none" stroke="black" points="634,-687.5 765,-687.5 "/>
<text text-anchor="middle" x="699.5" y="-672.3" font-family="Times,serif" font-size="14.00">value = &#39;&#39; 10 &#39;&#39;</text>
</g>
<!-- node0x503000000160&#45;&gt;node0x503000000130 -->
<g id="edge9" class="edge">
<title>node0x503000000160&#45;&gt;node0x503000000130</title>
<path fill="none" stroke="black" d="M602.84,-747.37C618.82,-737.63 637.75,-726.11 654.6,-715.84"/>
<polygon fill="black" stroke="black" points="656.48,-718.8 663.2,-710.61 652.84,-712.82 656.48,-718.8"/>
</g>
<!-- node0x503000000220 -->
<g id="node11" class="node">
<title>node0x503000000220</title>
<path fill="#00ffdd" stroke="black" d="M795,-664.5C795,-664.5 916,-664.5 916,-664.5 922,-664.5 928,-670.5 928,-676.5 928,-676.5 928,-698.5 928,-698.5 928,-704.5 922,-710.5 916,-710.5 916,-710.5 795,-710.5 795,-710.5 789,-710.5 783,-704.5 783,-698.5 783,-698.5 783,-676.5 783,-676.5 783,-670.5 789,-664.5 795,-664.5"/>
<text text-anchor="middle" x="855.5" y="-695.3" font-family="Times,serif" font-size="14.00">type = 2 (OP)</text>
<polyline fill="none" stroke="black" points="783,-687.5 928,-687.5 "/>
<text text-anchor="middle" x="855.5" y="-672.3" font-family="Times,serif" font-size="14.00">value = &#39;&#39; = &#39;&#39; (61)</text>
</g>
<!-- node0x503000000250&#45;&gt;node0x503000000220 -->
<g id="edge10" class="edge">
<title>node0x503000000250&#45;&gt;node0x503000000220</title>
<path fill="none" stroke="black" d="M855.5,-747.37C855.5,-739.15 855.5,-729.66 855.5,-720.73"/>
<polygon fill="black" stroke="black" points="859,-720.61 855.5,-710.61 852,-720.61 859,-720.61"/>
</g>
<!-- node0x503000000310 -->
<g id="node12" class="node">
<title>node0x503000000310</title>
<path fill="#e0e0e0" stroke="black" d="M958,-664.5C958,-664.5 1131,-664.5 1131,-664.5 1137,-664.5 1143,-670.5 1143,-676.5 1143,-676.5 1143,-698.5 1143,-698.5 1143,-704.5 1137,-710.5 1131,-710.5 1131,-710.5 958,-710.5 958,-710.5 952,-710.5 946,-704.5 946,-698.5 946,-698.5 946,-676.5 946,-676.5 946,-670.5 952,-664.5 958,-664.5"/>
<text text-anchor="middle" x="1044.5" y="-695.3" font-family="Times,serif" font-size="14.00">type = 2 (OP)</text>
<polyline fill="none" stroke="black" points="946,-687.5 1143,-687.5 "/>
<text text-anchor="middle" x="1044.5" y="-672.3" font-family="Times,serif" font-size="14.00">value = &#39;&#39; SHUTUP &#39;&#39; (59)</text>
</g>
<!-- node0x503000000250&#45;&gt;node0x503000000310 -->
<g id="edge11" class="edge">
<title>node0x503000000250&#45;&gt;node0x503000000310</title>
<path fill="none" stroke="black" d="M907.15,-747.37C930.79,-737.23 958.98,-725.15 983.65,-714.58"/>
<polygon fill="black" stroke="black" points="985.1,-717.76 992.92,-710.61 982.35,-711.33 985.1,-717.76"/>
</g>
<!-- node0x5030000001c0 -->
<g id="node13" class="node">
<title>node0x5030000001c0</title>
<path fill="#ff5050" stroke="black" d="M493,-581.5C493,-581.5 768,-581.5 768,-581.5 774,-581.5 780,-587.5 780,-593.5 780,-593.5 780,-615.5 780,-615.5 780,-621.5 774,-627.5 768,-627.5 768,-627.5 493,-627.5 493,-627.5 487,-627.5 481,-621.5 481,-615.5 481,-615.5 481,-593.5 481,-593.5 481,-587.5 487,-581.5 493,-581.5"/>
<text text-anchor="middle" x="630.5" y="-612.3" font-family="Times,serif" font-size="14.00">type = 3 (ID)</text>
<polyline fill="none" stroke="black" points="481,-604.5 780,-604.5 "/>
<text text-anchor="middle" x="630.5" y="-589.3" font-family="Times,serif" font-size="14.00">number of name in name table = &#39;&#39; 23 &#39;&#39;</text>
</g>
<!-- node0x503000000220&#45;&gt;node0x5030000001c0 -->
<g id="edge12" class="edge">
<title>node0x503000000220&#45;&gt;node0x5030000001c0</title>
<path fill="none" stroke="black" d="M794.31,-664.47C765.55,-654.12 731.08,-641.71 701.2,-630.95"/>
<polygon fill="black" stroke="black" points="702.27,-627.62 691.67,-627.52 699.9,-634.2 702.27,-627.62"/>
</g>
<!-- node0x5030000001f0 -->
<g id="node14" class="node">
<title>node0x5030000001f0</title>
<path fill="#ffd700" stroke="black" d="M810,-581.5C810,-581.5 917,-581.5 917,-581.5 923,-581.5 929,-587.5 929,-593.5 929,-593.5 929,-615.5 929,-615.5 929,-621.5 923,-627.5 917,-627.5 917,-627.5 810,-627.5 810,-627.5 804,-627.5 798,-621.5 798,-615.5 798,-615.5 798,-593.5 798,-593.5 798,-587.5 804,-581.5 810,-581.5"/>
<text text-anchor="middle" x="863.5" y="-612.3" font-family="Times,serif" font-size="14.00">type = 1 (NUM)</text>
<polyline fill="none" stroke="black" points="798,-604.5 929,-604.5 "/>
<text text-anchor="middle" x="863.5" y="-589.3" font-family="Times,serif" font-size="14.00">value = &#39;&#39; 5 &#39;&#39;</text>
</g>
<!-- node0x503000000220&#45;&gt;node0x5030000001f0 -->
<g id="edge13" class="edge">
<title>node0x503000000220&#45;&gt;node0x5030000001f0</title>
<path fill="none" stroke="black" d="M857.69,-664.37C858.5,-656.15 859.44,-646.66 860.32,-637.73"/>
<polygon fill="black" stroke="black" points="863.82,-637.9 861.32,-627.61 856.85,-637.21 863.82,-637.9"/>
</g>
<!-- node0x5030000002e0 -->
<g id="node15" class="node">
<title>node0x5030000002e0</title>
<path fill="#00ffdd" stroke="black" d="M975,-581.5C975,-581.5 1096,-581.5 1096,-581.5 1102,-581.5 1108,-587.5 1108,-593.5 1108,-593.5 1108,-615.5 1108,-615.5 1108,-621.5 1102,-627.5 1096,-627.5 1096,-627.5 975,-627.5 975,-627.5 969,-627.5 963,-621.5 963,-615.5 963,-615.5 963,-593.5 963,-593.5 963,-587.5 969,-581.5 975,-581.5"/>
<text text-anchor="middle" x="1035.5" y="-612.3" font-family="Times,serif" font-size="14.00">type = 2 (OP)</text>
<polyline fill="none" stroke="black" points="963,-604.5 1108,-604.5 "/>
<text text-anchor="middle" x="1035.5" y="-589.3" font-family="Times,serif" font-size="14.00">value = &#39;&#39; = &#39;&#39; (61)</text>
</g>
<!-- node0x503000000310&#45;&gt;node0x5030000002e0 -->
<g id="edge14" class="edge">
<title>node0x503000000310&#45;&gt;node0x5030000002e0</title>
<path fill="none" stroke="black" d="M1042.04,-664.37C1041.13,-656.15 1040.07,-646.66 1039.08,-637.73"/>
<polygon fill="black" stroke="black" points="1042.54,-637.16 1037.96,-627.61 1035.58,-637.93 1042.54,-637.16"/>
</g>
<!-- node0x503000000520 -->
<g id="node16" class="node">
<title>node0x503000000520</title>
<path fill="#e0e0e0" stroke="black" d="M1138,-581.5C1138,-581.5 1311,-581.5 1311,-581.5 1317,-581.5 1323,-587.5 1323,-593.5 1323,-593.5 1323,-615.5 1323,-615.5 1323,-621.5 1317,-627.5 1311,-627.5 1311,-627.5 1138,-627.5 1138,-627.5 1132,-627.5 1126,-621.5 1126,-615.5 1126,-615.5 1126,-593.5 1126,-593.5 1126,-587.5 1132,-581.5 1138,-581.5"/>
<text text-anchor="middle" x="1224.5" y="-612.3" font-family="Times,serif" font-size="14.00">type = 2 (OP)</text>
<polyline fill="none" stroke="black" points="1126,-604.5 1323,-604.5 "/>
<text text-anchor="middle" x="1224.5" y="-589.3" font-family="Times,serif" font-size="14.00">value = &#39;&#39; SHUTUP &#39;&#39; (59)</text>
</g>
<!-- node0x503000000310&#45;&gt;node0x503000000520 -->
<g id="edge15" class="edge">
<title>node0x503000000310&#45;&gt;node0x503000000520</title>
<path fill="none" stroke="black" d="M1093.69,-664.37C1116.11,-654.28 1142.82,-642.26 1166.24,-631.72"/>
<polygon fill="black" stroke="black" points="1167.69,-634.9 1175.37,-627.61 1164.82,-628.52 1167.69,-634.9"/>
</g>
<!-- node0x503000000280 -->
<g id="node17" class="node">
<title>node0x503000000280</title>
<path fill="#ff5050" stroke="black" d="M670,-498.5C670,-498.5 945,-498.5 945,-498.5 951,-498.5 957,-504.5 957,-510.5 957,-510.5 957,-532.5 957,-532.5 957,-538.5 951,-544.5 945,-544.5 945,-544.5 670,-544.5 670,-544.5 664,-544.5 658,-538.5 658,-532.5 658,-532.5 658,-510.5 658,-510.5 658,-504.5 664,-498.5 670,-498.5"/>
<text text-anchor="middle" x="807.5" y="-529.3" font-family="Times,serif" font-size="14.00">type = 3 (ID)</text>
<polyline fill="none" stroke="black" points="658,-521.5 957,-521.5 "/>
<text text-anchor="middle" x="807.5" y="-506.3" font-family="Times,serif" font-size="14.00">number of name in name table = &#39;&#39; 24 &#39;&#39;</text>
</g>
<!-- node0x5030000002e0&#45;&gt;node0x503000000280 -->
<g id="edge16" class="edge">
<title>node0x5030000002e0&#45;&gt;node0x503000000280</title>
<path fill="none" stroke="black" d="M973.5,-581.47C944.35,-571.12 909.42,-558.71 879.14,-547.95"/>
<polygon fill="black" stroke="black" points="880.08,-544.57 869.49,-544.52 877.74,-551.17 880.08,-544.57"/>
</g>
<!-- node0x5030000002b0 -->
<g id="node18" class="node">
<title>node0x5030000002b0</title>
<path fill="#ffd700" stroke="black" d="M987,-498.5C987,-498.5 1094,-498.5 1094,-498.5 1100,-498.5 1106,-504.5 1106,-510.5 1106,-510.5 1106,-532.5 1106,-532.5 1106,-538.5 1100,-544.5 1094,-544.5 1094,-544.5 987,-544.5 987,-544.5 981,-544.5 975,-538.5 975,-532.5 975,-532.5 975,-510.5 975,-510.5 975,-504.5 981,-498.5 987,-498.5"/>
<text text-anchor="middle" x="1040.5" y="-529.3" font-family="Times,serif" font-size="14.00">type = 1 (NUM)</text>
<polyline fill="none" stroke="black" points="975,-521.5 1106,-521.5 "/>
<text text-anchor="middle" x="1040.5" y="-506.3" font-family="Times,serif" font-size="14.00">value = &#39;&#39; 20 &#39;&#39;</text>
</g>
<!-- node0x5030000002e0&#45;&gt;node0x5030000002b0 -->
<g id="edge17" class="edge">
<title>node0x5030000002e0&#45;&gt;node0x5030000002b0</title>
<path fill="none" stroke="black" d="M1036.87,-581.37C1037.37,-573.15 1037.96,-563.66 1038.51,-554.73"/>
<polygon fill="black" stroke="black" points="1042.01,-554.8 1039.14,-544.61 1035.03,-554.37 1042.01,-554.8"/>
</g>
<!-- node0x5030000004f0 -->
<g id="node19" class="node">
<title>node0x5030000004f0</title>
<path fill="#00ffdd" stroke="black" d="M1145,-498.5C1145,-498.5 1294,-498.5 1294,-498.5 1300,-498.5 1306,-504.5 1306,-510.5 1306,-510.5 1306,-532.5 1306,-532.5 1306,-538.5 1300,-544.5 1294,-544.5 1294,-544.5 1145,-544.5 1145,-544.5 1139,-544.5 1133,-538.5 1133,-532.5 1133,-532.5 1133,-510.5 1133,-510.5 1133,-504.5 1139,-498.5 1145,-498.5"/>
<text text-anchor="middle" x="1219.5" y="-529.3" font-family="Times,serif" font-size="14.00">type = 2 (OP)</text>
<polyline fill="none" stroke="black" points="1133,-521.5 1306,-521.5 "/>
<text text-anchor="middle" x="1219.5" y="-506.3" font-family="Times,serif" font-size="14.00">value = &#39;&#39; PLUS &#39;&#39; (43)</text>
</g>
<!-- node0x503000000520&#45;&gt;node0x5030000004f0 -->
<g id="edge18" class="edge">
<title>node0x503000000520&#45;&gt;node0x5030000004f0</title>
<path fill="none" stroke="black" d="M1223.13,-581.37C1222.63,-573.15 1222.04,-563.66 1221.49,-554.73"/>
<polygon fill="black" stroke="black" points="1224.97,-554.37 1220.86,-544.61 1217.99,-554.8 1224.97,-554.37"/>
</g>
<!-- node0x503000000640 -->
<g id="node20" class="node">
<title>node0x503000000640</title>
<path fill="#e0e0e0" stroke="black" d="M1374,-498.5C1374,-498.5 1547,-498.5 1547,-498.5 1553,-498.5 1559,-504.5 1559,-510.5 1559,-510.5 1559,-532.5 1559,-532.5 1559,-538.5 1553,-544.5 1547,-544.5 1547,-544.5 1374,-544.5 1374,-544.5 1368,-544.5 1362,-538.5 1362,-532.5 1362,-532.5 1362,-510.5 1362,-510.5 1362,-504.5 1368,-498.5 1374,-498.5"/>
<text text-anchor="middle" x="1460.5" y="-529.3" font-family="Times,serif" font-size="14.00">type = 2 (OP)</text>
<polyline fill="none" stroke="black" points="1362,-521.5 1559,-521.5 "/>
<text text-anchor="middle" x="1460.5" y="-506.3" font-family="Times,serif" font-size="14.00">value = &#39;&#39; SHUTUP &#39;&#39; (59)</text>
</g>
<!-- node0x503000000520&#45;&gt;node0x503000000640 -->
<g id="edge19" class="edge">
<title>node0x503000000520&#45;&gt;node0x503000000640</title>
<path fill="none" stroke="black" d="M1288.68,-581.47C1318.98,-571.07 1355.32,-558.6 1386.75,-547.81"/>
<polygon fill="black" stroke="black" points="1388.01,-551.08 1396.34,-544.52 1385.74,-544.46 1388.01,-551.08"/>
</g>
<!-- node0x503000000490 -->
<g id="node21" class="node">
<title>node0x503000000490</title>
<path fill="#f069f5" stroke="black" d="M887,-415.5C887,-415.5 1034,-415.5 1034,-415.5 1040,-415.5 1046,-421.5 1046,-427.5 1046,-427.5 1046,-449.5 1046,-449.5 1046,-455.5 1040,-461.5 1034,-461.5 1034,-461.5 887,-461.5 887,-461.5 881,-461.5 875,-455.5 875,-449.5 875,-449.5 875,-427.5 875,-427.5 875,-421.5 881,-415.5 887,-415.5"/>
<text text-anchor="middle" x="960.5" y="-446.3" font-family="Times,serif" font-size="14.00">type = 4 (FUNC)</text>
<polyline fill="none" stroke="black" points="875,-438.5 1046,-438.5 "/>
<text text-anchor="middle" x="960.5" y="-423.3" font-family="Times,serif" font-size="14.00">value = &#39;&#39; CALL &#39;&#39; (67)</text>
</g>
<!-- node0x5030000004f0&#45;&gt;node0x503000000490 -->
<g id="edge20" class="edge">
<title>node0x5030000004f0&#45;&gt;node0x503000000490</title>
<path fill="none" stroke="black" d="M1149.07,-498.47C1115.52,-487.98 1075.25,-475.39 1040.55,-464.53"/>
<polygon fill="black" stroke="black" points="1041.51,-461.17 1030.92,-461.52 1039.42,-467.85 1041.51,-461.17"/>
</g>
<!-- node0x5030000004c0 -->
<g id="node22" class="node">
<title>node0x5030000004c0</title>
<path fill="#ffd700" stroke="black" d="M1166,-415.5C1166,-415.5 1273,-415.5 1273,-415.5 1279,-415.5 1285,-421.5 1285,-427.5 1285,-427.5 1285,-449.5 1285,-449.5 1285,-455.5 1279,-461.5 1273,-461.5 1273,-461.5 1166,-461.5 1166,-461.5 1160,-461.5 1154,-455.5 1154,-449.5 1154,-449.5 1154,-427.5 1154,-427.5 1154,-421.5 1160,-415.5 1166,-415.5"/>
<text text-anchor="middle" x="1219.5" y="-446.3" font-family="Times,serif" font-size="14.00">type = 1 (NUM)</text>
<polyline fill="none" stroke="black" points="1154,-438.5 1285,-438.5 "/>
<text text-anchor="middle" x="1219.5" y="-423.3" font-family="Times,serif" font-size="14.00">value = &#39;&#39; 5 &#39;&#39;</text>
</g>
<!-- node0x5030000004f0&#45;&gt;node0x5030000004c0 -->
<g id="edge21" class="edge">
<title>node0x5030000004f0&#45;&gt;node0x5030000004c0</title>
<path fill="none" stroke="black" d="M1219.5,-498.37C1219.5,-490.15 1219.5,-480.66 1219.5,-471.73"/>
<polygon fill="black" stroke="black" points="1223,-471.61 1219.5,-461.61 1216,-471.61 1223,-471.61"/>
</g>
<!-- node0x503000000610 -->
<g id="node30" class="node">
<title>node0x503000000610</title>
<path fill="#00ffdd" stroke="black" d="M1400,-415.5C1400,-415.5 1521,-415.5 1521,-415.5 1527,-415.5 1533,-421.5 1533,-427.5 1533,-427.5 1533,-449.5 1533,-449.5 1533,-455.5 1527,-461.5 1521,-461.5 1521,-461.5 1400,-461.5 1400,-461.5 1394,-461.5 1388,-455.5 1388,-449.5 1388,-449.5 1388,-427.5 1388,-427.5 1388,-421.5 1394,-415.5 1400,-415.5"/>
<text text-anchor="middle" x="1460.5" y="-446.3" font-family="Times,serif" font-size="14.00">type = 2 (OP)</text>
<polyline fill="none" stroke="black" points="1388,-438.5 1533,-438.5 "/>
<text text-anchor="middle" x="1460.5" y="-423.3" font-family="Times,serif" font-size="14.00">value = &#39;&#39; = &#39;&#39; (61)</text>
</g>
<!-- node0x503000000640&#45;&gt;node0x503000000610 -->
<g id="edge29" class="edge">
<title>node0x503000000640&#45;&gt;node0x503000000610</title>
<path fill="none" stroke="black" d="M1460.5,-498.37C1460.5,-490.15 1460.5,-480.66 1460.5,-471.73"/>
<polygon fill="black" stroke="black" points="1464,-471.61 1460.5,-461.61 1457,-471.61 1464,-471.61"/>
</g>
<!-- node0x503000000850 -->
<g id="node31" class="node">
<title>node0x503000000850</title>
<path fill="#e0e0e0" stroke="black" d="M1639,-415.5C1639,-415.5 1812,-415.5 1812,-415.5 1818,-415.5 1824,-421.5 1824,-427.5 1824,-427.5 1824,-449.5 1824,-449.5 1824,-455.5 1818,-461.5 1812,-461.5 1812,-461.5 1639,-461.5 1639,-461.5 1633,-461.5 1627,-455.5 1627,-449.5 1627,-449.5 1627,-427.5 1627,-427.5 1627,-421.5 1633,-415.5 1639,-415.5"/>
<text text-anchor="middle" x="1725.5" y="-446.3" font-family="Times,serif" font-size="14.00">type = 2 (OP)</text>
<polyline fill="none" stroke="black" points="1627,-438.5 1824,-438.5 "/>
<text text-anchor="middle" x="1725.5" y="-423.3" font-family="Times,serif" font-size="14.00">value = &#39;&#39; SHUTUP &#39;&#39; (59)</text>
</g>
<!-- node0x503000000640&#45;&gt;node0x503000000850 -->
<g id="edge30" class="edge">
<title>node0x503000000640&#45;&gt;node0x503000000850</title>
<path fill="none" stroke="black" d="M1532.56,-498.47C1566.89,-487.98 1608.09,-475.39 1643.6,-464.53"/>
<polygon fill="black" stroke="black" points="1644.91,-467.79 1653.45,-461.52 1642.87,-461.1 1644.91,-467.79"/>
</g>
<!-- node0x503000000340 -->
<g id="node23" class="node">
<title>node0x503000000340</title>
<path fill="#2ee31e" stroke="black" d="M715.5,-332.5C715.5,-332.5 861.5,-332.5 861.5,-332.5 867.5,-332.5 873.5,-338.5 873.5,-344.5 873.5,-344.5 873.5,-366.5 873.5,-366.5 873.5,-372.5 867.5,-378.5 861.5,-378.5 861.5,-378.5 715.5,-378.5 715.5,-378.5 709.5,-378.5 703.5,-372.5 703.5,-366.5 703.5,-366.5 703.5,-344.5 703.5,-344.5 703.5,-338.5 709.5,-332.5 715.5,-332.5"/>
<text text-anchor="middle" x="788.5" y="-363.3" font-family="Times,serif" font-size="14.00">type = 4 (FUNC)</text>
<polyline fill="none" stroke="black" points="703.5,-355.5 873.5,-355.5 "/>
<text text-anchor="middle" x="788.5" y="-340.3" font-family="Times,serif" font-size="14.00">value = &#39;&#39; Jump &#39;&#39; (25)</text>
</g>
<!-- node0x503000000490&#45;&gt;node0x503000000340 -->
<g id="edge22" class="edge">
<title>node0x503000000490&#45;&gt;node0x503000000340</title>
<path fill="none" stroke="black" d="M913.5,-415.37C892.26,-405.37 867,-393.47 844.77,-383"/>
<polygon fill="black" stroke="black" points="845.98,-379.7 835.44,-378.61 843,-386.03 845.98,-379.7"/>
</g>
<!-- node0x5030000003a0 -->
<g id="node24" class="node">
<title>node0x5030000003a0</title>
<path fill="#feaadf" stroke="black" d="M904,-332.5C904,-332.5 1017,-332.5 1017,-332.5 1023,-332.5 1029,-338.5 1029,-344.5 1029,-344.5 1029,-366.5 1029,-366.5 1029,-372.5 1023,-378.5 1017,-378.5 1017,-378.5 904,-378.5 904,-378.5 898,-378.5 892,-372.5 892,-366.5 892,-366.5 892,-344.5 892,-344.5 892,-338.5 898,-332.5 904,-332.5"/>
<text text-anchor="middle" x="960.5" y="-363.3" font-family="Times,serif" font-size="14.00">type = 4 (FUNC)</text>
<polyline fill="none" stroke="black" points="892,-355.5 1029,-355.5 "/>
<text text-anchor="middle" x="960.5" y="-340.3" font-family="Times,serif" font-size="14.00">value = &#39;&#39; , &#39;&#39; (44)</text>
</g>
<!-- node0x503000000490&#45;&gt;node0x5030000003a0 -->
<g id="edge23" class="edge">
<title>node0x503000000490&#45;&gt;node0x5030000003a0</title>
<path fill="none" stroke="black" d="M960.5,-415.37C960.5,-407.15 960.5,-397.66 960.5,-388.73"/>
<polygon fill="black" stroke="black" points="964,-388.61 960.5,-378.61 957,-388.61 964,-388.61"/>
</g>
<!-- node0x503000000370 -->
<g id="node25" class="node">
<title>node0x503000000370</title>
<path fill="#ff5050" stroke="black" d="M587,-249.5C587,-249.5 862,-249.5 862,-249.5 868,-249.5 874,-255.5 874,-261.5 874,-261.5 874,-283.5 874,-283.5 874,-289.5 868,-295.5 862,-295.5 862,-295.5 587,-295.5 587,-295.5 581,-295.5 575,-289.5 575,-283.5 575,-283.5 575,-261.5 575,-261.5 575,-255.5 581,-249.5 587,-249.5"/>
<text text-anchor="middle" x="724.5" y="-280.3" font-family="Times,serif" font-size="14.00">type = 3 (ID)</text>
<polyline fill="none" stroke="black" points="575,-272.5 874,-272.5 "/>
<text text-anchor="middle" x="724.5" y="-257.3" font-family="Times,serif" font-size="14.00">number of name in name table = &#39;&#39; 23 &#39;&#39;</text>
</g>
<!-- node0x5030000003a0&#45;&gt;node0x503000000370 -->
<g id="edge24" class="edge">
<title>node0x5030000003a0&#45;&gt;node0x503000000370</title>
<path fill="none" stroke="black" d="M896.32,-332.47C866.02,-322.07 829.68,-309.6 798.25,-298.81"/>
<polygon fill="black" stroke="black" points="799.26,-295.46 788.66,-295.52 796.99,-302.08 799.26,-295.46"/>
</g>
<!-- node0x503000000400 -->
<g id="node26" class="node">
<title>node0x503000000400</title>
<path fill="#feaadf" stroke="black" d="M904,-249.5C904,-249.5 1017,-249.5 1017,-249.5 1023,-249.5 1029,-255.5 1029,-261.5 1029,-261.5 1029,-283.5 1029,-283.5 1029,-289.5 1023,-295.5 1017,-295.5 1017,-295.5 904,-295.5 904,-295.5 898,-295.5 892,-289.5 892,-283.5 892,-283.5 892,-261.5 892,-261.5 892,-255.5 898,-249.5 904,-249.5"/>
<text text-anchor="middle" x="960.5" y="-280.3" font-family="Times,serif" font-size="14.00">type = 4 (FUNC)</text>
<polyline fill="none" stroke="black" points="892,-272.5 1029,-272.5 "/>
<text text-anchor="middle" x="960.5" y="-257.3" font-family="Times,serif" font-size="14.00">value = &#39;&#39; , &#39;&#39; (44)</text>
</g>
<!-- node0x5030000003a0&#45;&gt;node0x503000000400 -->
<g id="edge25" class="edge">
<title>node0x5030000003a0&#45;&gt;node0x503000000400</title>
<path fill="none" stroke="black" d="M960.5,-332.37C960.5,-324.15 960.5,-314.66 960.5,-305.73"/>
<polygon fill="black" stroke="black" points="964,-305.61 960.5,-295.61 957,-305.61 964,-305.61"/>
</g>
<!-- node0x5030000003d0 -->
<g id="node27" class="node">
<title>node0x5030000003d0</title>
<path fill="#ff5050" stroke="black" d="M705,-166.5C705,-166.5 980,-166.5 980,-166.5 986,-166.5 992,-172.5 992,-178.5 992,-178.5 992,-200.5 992,-200.5 992,-206.5 986,-212.5 980,-212.5 980,-212.5 705,-212.5 705,-212.5 699,-212.5 693,-206.5 693,-200.5 693,-200.5 693,-178.5 693,-178.5 693,-172.5 699,-166.5 705,-166.5"/>
<text text-anchor="middle" x="842.5" y="-197.3" font-family="Times,serif" font-size="14.00">type = 3 (ID)</text>
<polyline fill="none" stroke="black" points="693,-189.5 992,-189.5 "/>
<text text-anchor="middle" x="842.5" y="-174.3" font-family="Times,serif" font-size="14.00">number of name in name table = &#39;&#39; 22 &#39;&#39;</text>
</g>
<!-- node0x503000000400&#45;&gt;node0x5030000003d0 -->
<g id="edge26" class="edge">
<title>node0x503000000400&#45;&gt;node0x5030000003d0</title>
<path fill="none" stroke="black" d="M928.26,-249.37C914.34,-239.81 897.9,-228.53 883.16,-218.41"/>
<polygon fill="black" stroke="black" points="884.93,-215.38 874.71,-212.61 880.97,-221.15 884.93,-215.38"/>
</g>
<!-- node0x503000000460 -->
<g id="node28" class="node">
<title>node0x503000000460</title>
<path fill="#feaadf" stroke="black" d="M1022,-166.5C1022,-166.5 1135,-166.5 1135,-166.5 1141,-166.5 1147,-172.5 1147,-178.5 1147,-178.5 1147,-200.5 1147,-200.5 1147,-206.5 1141,-212.5 1135,-212.5 1135,-212.5 1022,-212.5 1022,-212.5 1016,-212.5 1010,-206.5 1010,-200.5 1010,-200.5 1010,-178.5 1010,-178.5 1010,-172.5 1016,-166.5 1022,-166.5"/>
<text text-anchor="middle" x="1078.5" y="-197.3" font-family="Times,serif" font-size="14.00">type = 4 (FUNC)</text>
<polyline fill="none" stroke="black" points="1010,-189.5 1147,-189.5 "/>
<text text-anchor="middle" x="1078.5" y="-174.3" font-family="Times,serif" font-size="14.00">value = &#39;&#39; , &#39;&#39; (44)</text>
</g>
<!-- node0x503000000400&#45;&gt;node0x503000000460 -->
<g id="edge27" class="edge">
<title>node0x503000000400&#45;&gt;node0x503000000460</title>
<path fill="none" stroke="black" d="M992.74,-249.37C1006.66,-239.81 1023.1,-228.53 1037.84,-218.41"/>
<polygon fill="black" stroke="black" points="1040.03,-221.15 1046.29,-212.61 1036.07,-215.38 1040.03,-221.15"/>
</g>
<!-- node0x503000000430 -->
<g id="node29" class="node">
<title>node0x503000000430</title>
<path fill="#ff5050" stroke="black" d="M941,-83.5C941,-83.5 1216,-83.5 1216,-83.5 1222,-83.5 1228,-89.5 1228,-95.5 1228,-95.5 1228,-117.5 1228,-117.5 1228,-123.5 1222,-129.5 1216,-129.5 1216,-129.5 941,-129.5 941,-129.5 935,-129.5 929,-123.5 929,-117.5 929,-117.5 929,-95.5 929,-95.5 929,-89.5 935,-83.5 941,-83.5"/>
<text text-anchor="middle" x="1078.5" y="-114.3" font-family="Times,serif" font-size="14.00">type = 3 (ID)</text>
<polyline fill="none" stroke="black" points="929,-106.5 1228,-106.5 "/>
<text text-anchor="middle" x="1078.5" y="-91.3" font-family="Times,serif" font-size="14.00">number of name in name table = &#39;&#39; 24 &#39;&#39;</text>
</g>
<!-- node0x503000000460&#45;&gt;node0x503000000430 -->
<g id="edge28" class="edge">
<title>node0x503000000460&#45;&gt;node0x503000000430</title>
<path fill="none" stroke="black" d="M1078.5,-166.37C1078.5,-158.15 1078.5,-148.66 1078.5,-139.73"/>
<polygon fill="black" stroke="black" points="1082,-139.61 1078.5,-129.61 1075,-139.61 1082,-139.61"/>
</g>
<!-- node0x503000000550 -->
<g id="node32" class="node">
<title>node0x503000000550</title>
<path fill="#ff5050" stroke="black" d="M1100,-332.5C1100,-332.5 1375,-332.5 1375,-332.5 1381,-332.5 1387,-338.5 1387,-344.5 1387,-344.5 1387,-366.5 1387,-366.5 1387,-372.5 1381,-378.5 1375,-378.5 1375,-378.5 1100,-378.5 1100,-378.5 1094,-378.5 1088,-372.5 1088,-366.5 1088,-366.5 1088,-344.5 1088,-344.5 1088,-338.5 1094,-332.5 1100,-332.5"/>
<text text-anchor="middle" x="1237.5" y="-363.3" font-family="Times,serif" font-size="14.00">type = 3 (ID)</text>
<polyline fill="none" stroke="black" points="1088,-355.5 1387,-355.5 "/>
<text text-anchor="middle" x="1237.5" y="-340.3" font-family="Times,serif" font-size="14.00">number of name in name table = &#39;&#39; 23 &#39;&#39;</text>
</g>
<!-- node0x503000000610&#45;&gt;node0x503000000550 -->
<g id="edge31" class="edge">
<title>node0x503000000610&#45;&gt;node0x503000000550</title>
<path fill="none" stroke="black" d="M1399.86,-415.47C1371.35,-405.12 1337.19,-392.71 1307.57,-381.95"/>
<polygon fill="black" stroke="black" points="1308.72,-378.65 1298.13,-378.52 1306.33,-385.23 1308.72,-378.65"/>
</g>
<!-- node0x5030000005e0 -->
<g id="node33" class="node">
<title>node0x5030000005e0</title>
<path fill="#00ffdd" stroke="black" d="M1417,-332.5C1417,-332.5 1558,-332.5 1558,-332.5 1564,-332.5 1570,-338.5 1570,-344.5 1570,-344.5 1570,-366.5 1570,-366.5 1570,-372.5 1564,-378.5 1558,-378.5 1558,-378.5 1417,-378.5 1417,-378.5 1411,-378.5 1405,-372.5 1405,-366.5 1405,-366.5 1405,-344.5 1405,-344.5 1405,-338.5 1411,-332.5 1417,-332.5"/>
<text text-anchor="middle" x="1487.5" y="-363.3" font-family="Times,serif" font-size="14.00">type = 2 (OP)</text>
<polyline fill="none" stroke="black" points="1405,-355.5 1570,-355.5 "/>
<text text-anchor="middle" x="1487.5" y="-340.3" font-family="Times,serif" font-size="14.00">value = &#39;&#39; SUB &#39;&#39; (45)</text>
</g>
<!-- node0x503000000610&#45;&gt;node0x5030000005e0 -->
<g id="edge32" class="edge">
<title>node0x503000000610&#45;&gt;node0x5030000005e0</title>
<path fill="none" stroke="black" d="M1467.88,-415.37C1470.68,-406.97 1473.92,-397.24 1476.95,-388.14"/>
<polygon fill="black" stroke="black" points="1480.29,-389.2 1480.13,-378.61 1473.65,-386.99 1480.29,-389.2"/>
</g>
<!-- node0x503000000820 -->
<g id="node36" class="node">
<title>node0x503000000820</title>
<path fill="#68f29d" stroke="black" d="M1669,-332.5C1669,-332.5 1858,-332.5 1858,-332.5 1864,-332.5 1870,-338.5 1870,-344.5 1870,-344.5 1870,-366.5 1870,-366.5 1870,-372.5 1864,-378.5 1858,-378.5 1858,-378.5 1669,-378.5 1669,-378.5 1663,-378.5 1657,-372.5 1657,-366.5 1657,-366.5 1657,-344.5 1657,-344.5 1657,-338.5 1663,-332.5 1669,-332.5"/>
<text text-anchor="middle" x="1763.5" y="-363.3" font-family="Times,serif" font-size="14.00">type = 2 (OP)</text>
<polyline fill="none" stroke="black" points="1657,-355.5 1870,-355.5 "/>
<text text-anchor="middle" x="1763.5" y="-340.3" font-family="Times,serif" font-size="14.00">value = &#39;&#39; FORREAL &#39;&#39; (105)</text>
</g>
<!-- node0x503000000850&#45;&gt;node0x503000000820 -->
<g id="edge35" class="edge">
<title>node0x503000000850&#45;&gt;node0x503000000820</title>
<path fill="none" stroke="black" d="M1735.88,-415.37C1739.86,-406.88 1744.48,-397.04 1748.79,-387.85"/>
<polygon fill="black" stroke="black" points="1752.05,-389.15 1753.13,-378.61 1745.71,-386.17 1752.05,-389.15"/>
</g>
<!-- node0x503000000580 -->
<g id="node34" class="node">
<title>node0x503000000580</title>
<path fill="#ff5050" stroke="black" d="M1059,-249.5C1059,-249.5 1334,-249.5 1334,-249.5 1340,-249.5 1346,-255.5 1346,-261.5 1346,-261.5 1346,-283.5 1346,-283.5 1346,-289.5 1340,-295.5 1334,-295.5 1334,-295.5 1059,-295.5 1059,-295.5 1053,-295.5 1047,-289.5 1047,-283.5 1047,-283.5 1047,-261.5 1047,-261.5 1047,-255.5 1053,-249.5 1059,-249.5"/>
<text text-anchor="middle" x="1196.5" y="-280.3" font-family="Times,serif" font-size="14.00">type = 3 (ID)</text>
<polyline fill="none" stroke="black" points="1047,-272.5 1346,-272.5 "/>
<text text-anchor="middle" x="1196.5" y="-257.3" font-family="Times,serif" font-size="14.00">number of name in name table = &#39;&#39; 23 &#39;&#39;</text>
</g>
<!-- node0x5030000005e0&#45;&gt;node0x503000000580 -->
<g id="edge33" class="edge">
<title>node0x5030000005e0&#45;&gt;node0x503000000580</title>
<path fill="none" stroke="black" d="M1408.37,-332.47C1370.35,-321.89 1324.65,-309.17 1285.44,-298.26"/>
<polygon fill="black" stroke="black" points="1286.19,-294.83 1275.62,-295.52 1284.31,-301.58 1286.19,-294.83"/>
</g>
<!-- node0x5030000005b0 -->
<g id="node35" class="node">
<title>node0x5030000005b0</title>
<path fill="#ff5050" stroke="black" d="M1376,-249.5C1376,-249.5 1651,-249.5 1651,-249.5 1657,-249.5 1663,-255.5 1663,-261.5 1663,-261.5 1663,-283.5 1663,-283.5 1663,-289.5 1657,-295.5 1651,-295.5 1651,-295.5 1376,-295.5 1376,-295.5 1370,-295.5 1364,-289.5 1364,-283.5 1364,-283.5 1364,-261.5 1364,-261.5 1364,-255.5 1370,-249.5 1376,-249.5"/>
<text text-anchor="middle" x="1513.5" y="-280.3" font-family="Times,serif" font-size="14.00">type = 3 (ID)</text>
<polyline fill="none" stroke="black" points="1364,-272.5 1663,-272.5 "/>
<text text-anchor="middle" x="1513.5" y="-257.3" font-family="Times,serif" font-size="14.00">number of name in name table = &#39;&#39; 22 &#39;&#39;</text>
</g>
<!-- node0x5030000005e0&#45;&gt;node0x5030000005b0 -->
<g id="edge34" class="edge">
<title>node0x5030000005e0&#45;&gt;node0x5030000005b0</title>
<path fill="none" stroke="black" d="M1494.6,-332.37C1497.3,-323.97 1500.42,-314.24 1503.34,-305.14"/>
<polygon fill="black" stroke="black" points="1506.68,-306.2 1506.4,-295.61 1500.02,-304.06 1506.68,-306.2"/>
</g>
<!-- node0x5030000006d0 -->
<g id="node37" class="node">
<title>node0x5030000006d0</title>
<path fill="#00ffdd" stroke="black" d="M1693,-249.5C1693,-249.5 1834,-249.5 1834,-249.5 1840,-249.5 1846,-255.5 1846,-261.5 1846,-261.5 1846,-283.5 1846,-283.5 1846,-289.5 1840,-295.5 1834,-295.5 1834,-295.5 1693,-295.5 1693,-295.5 1687,-295.5 1681,-289.5 1681,-283.5 1681,-283.5 1681,-261.5 1681,-261.5 1681,-255.5 1687,-249.5 1693,-249.5"/>
<text text-anchor="middle" x="1763.5" y="-280.3" font-family="Times,serif" font-size="14.00">type = 2 (OP)</text>
<polyline fill="none" stroke="black" points="1681,-272.5 1846,-272.5 "/>
<text text-anchor="middle" x="1763.5" y="-257.3" font-family="Times,serif" font-size="14.00">value = &#39;&#39; SUB &#39;&#39; (45)</text>
</g>
<!-- node0x503000000820&#45;&gt;node0x5030000006d0 -->
<g id="edge36" class="edge">
<title>node0x503000000820&#45;&gt;node0x5030000006d0</title>
<path fill="none" stroke="black" d="M1763.5,-332.37C1763.5,-324.15 1763.5,-314.66 1763.5,-305.73"/>
<polygon fill="black" stroke="black" points="1767,-305.61 1763.5,-295.61 1760,-305.61 1767,-305.61"/>
</g>
<!-- node0x5030000007f0 -->
<g id="node38" class="node">
<title>node0x5030000007f0</title>
<path fill="#e0e0e0" stroke="black" d="M1876,-249.5C1876,-249.5 2049,-249.5 2049,-249.5 2055,-249.5 2061,-255.5 2061,-261.5 2061,-261.5 2061,-283.5 2061,-283.5 2061,-289.5 2055,-295.5 2049,-295.5 2049,-295.5 1876,-295.5 1876,-295.5 1870,-295.5 1864,-289.5 1864,-283.5 1864,-283.5 1864,-261.5 1864,-261.5 1864,-255.5 1870,-249.5 1876,-249.5"/>
<text text-anchor="middle" x="1962.5" y="-280.3" font-family="Times,serif" font-size="14.00">type = 2 (OP)</text>
<polyline fill="none" stroke="black" points="1864,-272.5 2061,-272.5 "/>
<text text-anchor="middle" x="1962.5" y="-257.3" font-family="Times,serif" font-size="14.00">value = &#39;&#39; SHUTUP &#39;&#39; (59)</text>
</g>
<!-- node0x503000000820&#45;&gt;node0x5030000007f0 -->
<g id="edge37" class="edge">
<title>node0x503000000820&#45;&gt;node0x5030000007f0</title>
<path fill="none" stroke="black" d="M1817.61,-332.47C1842.73,-322.25 1872.75,-310.03 1898.94,-299.37"/>
<polygon fill="black" stroke="black" points="1900.45,-302.53 1908.4,-295.52 1897.81,-296.05 1900.45,-302.53"/>
</g>
<!-- node0x503000000670 -->
<g id="node39" class="node">
<title>node0x503000000670</title>
<path fill="#ff5050" stroke="black" d="M1414,-166.5C1414,-166.5 1689,-166.5 1689,-166.5 1695,-166.5 1701,-172.5 1701,-178.5 1701,-178.5 1701,-200.5 1701,-200.5 1701,-206.5 1695,-212.5 1689,-212.5 1689,-212.5 1414,-212.5 1414,-212.5 1408,-212.5 1402,-206.5 1402,-200.5 1402,-200.5 1402,-178.5 1402,-178.5 1402,-172.5 1408,-166.5 1414,-166.5"/>
<text text-anchor="middle" x="1551.5" y="-197.3" font-family="Times,serif" font-size="14.00">type = 3 (ID)</text>
<polyline fill="none" stroke="black" points="1402,-189.5 1701,-189.5 "/>
<text text-anchor="middle" x="1551.5" y="-174.3" font-family="Times,serif" font-size="14.00">number of name in name table = &#39;&#39; 22 &#39;&#39;</text>
</g>
<!-- node0x5030000006d0&#45;&gt;node0x503000000670 -->
<g id="edge38" class="edge">
<title>node0x5030000006d0&#45;&gt;node0x503000000670</title>
<path fill="none" stroke="black" d="M1705.85,-249.47C1678.86,-239.16 1646.55,-226.82 1618.48,-216.09"/>
<polygon fill="black" stroke="black" points="1619.73,-212.82 1609.14,-212.52 1617.23,-219.36 1619.73,-212.82"/>
</g>
<!-- node0x5030000006a0 -->
<g id="node40" class="node">
<title>node0x5030000006a0</title>
<path fill="#ffd700" stroke="black" d="M1731,-166.5C1731,-166.5 1838,-166.5 1838,-166.5 1844,-166.5 1850,-172.5 1850,-178.5 1850,-178.5 1850,-200.5 1850,-200.5 1850,-206.5 1844,-212.5 1838,-212.5 1838,-212.5 1731,-212.5 1731,-212.5 1725,-212.5 1719,-206.5 1719,-200.5 1719,-200.5 1719,-178.5 1719,-178.5 1719,-172.5 1725,-166.5 1731,-166.5"/>
<text text-anchor="middle" x="1784.5" y="-197.3" font-family="Times,serif" font-size="14.00">type = 1 (NUM)</text>
<polyline fill="none" stroke="black" points="1719,-189.5 1850,-189.5 "/>
<text text-anchor="middle" x="1784.5" y="-174.3" font-family="Times,serif" font-size="14.00">value = &#39;&#39; 14 &#39;&#39;</text>
</g>
<!-- node0x5030000006d0&#45;&gt;node0x5030000006a0 -->
<g id="edge39" class="edge">
<title>node0x5030000006d0&#45;&gt;node0x5030000006a0</title>
<path fill="none" stroke="black" d="M1769.24,-249.37C1771.39,-241.06 1773.88,-231.45 1776.22,-222.43"/>
<polygon fill="black" stroke="black" points="1779.65,-223.17 1778.77,-212.61 1772.87,-221.41 1779.65,-223.17"/>
</g>
<!-- node0x5030000007c0 -->
<g id="node41" class="node">
<title>node0x5030000007c0</title>
<path fill="#00ffdd" stroke="black" d="M1902,-166.5C1902,-166.5 2023,-166.5 2023,-166.5 2029,-166.5 2035,-172.5 2035,-178.5 2035,-178.5 2035,-200.5 2035,-200.5 2035,-206.5 2029,-212.5 2023,-212.5 2023,-212.5 1902,-212.5 1902,-212.5 1896,-212.5 1890,-206.5 1890,-200.5 1890,-200.5 1890,-178.5 1890,-178.5 1890,-172.5 1896,-166.5 1902,-166.5"/>
<text text-anchor="middle" x="1962.5" y="-197.3" font-family="Times,serif" font-size="14.00">type = 2 (OP)</text>
<polyline fill="none" stroke="black" points="1890,-189.5 2035,-189.5 "/>
<text text-anchor="middle" x="1962.5" y="-174.3" font-family="Times,serif" font-size="14.00">value = &#39;&#39; = &#39;&#39; (61)</text>
</g>
<!-- node0x5030000007f0&#45;&gt;node0x5030000007c0 -->
<g id="edge40" class="edge">
<title>node0x5030000007f0&#45;&gt;node0x5030000007c0</title>
<path fill="none" stroke="black" d="M1962.5,-249.37C1962.5,-241.15 1962.5,-231.66 1962.5,-222.73"/>
<polygon fill="black" stroke="black" points="1966,-222.61 1962.5,-212.61 1959,-222.61 1966,-222.61"/>
</g>
<!-- node0x503000000700 -->
<g id="node42" class="node">
<title>node0x503000000700</title>
<path fill="#ff5050" stroke="black" d="M1700,-83.5C1700,-83.5 1975,-83.5 1975,-83.5 1981,-83.5 1987,-89.5 1987,-95.5 1987,-95.5 1987,-117.5 1987,-117.5 1987,-123.5 1981,-129.5 1975,-129.5 1975,-129.5 1700,-129.5 1700,-129.5 1694,-129.5 1688,-123.5 1688,-117.5 1688,-117.5 1688,-95.5 1688,-95.5 1688,-89.5 1694,-83.5 1700,-83.5"/>
<text text-anchor="middle" x="1837.5" y="-114.3" font-family="Times,serif" font-size="14.00">type = 3 (ID)</text>
<polyline fill="none" stroke="black" points="1688,-106.5 1987,-106.5 "/>
<text text-anchor="middle" x="1837.5" y="-91.3" font-family="Times,serif" font-size="14.00">number of name in name table = &#39;&#39; 22 &#39;&#39;</text>
</g>
<!-- node0x5030000007c0&#45;&gt;node0x503000000700 -->
<g id="edge41" class="edge">
<title>node0x5030000007c0&#45;&gt;node0x503000000700</title>
<path fill="none" stroke="black" d="M1928.34,-166.37C1913.46,-156.72 1895.86,-145.32 1880.13,-135.13"/>
<polygon fill="black" stroke="black" points="1881.91,-132.11 1871.62,-129.61 1878.1,-137.98 1881.91,-132.11"/>
</g>
<!-- node0x503000000790 -->
<g id="node43" class="node">
<title>node0x503000000790</title>
<path fill="#00ffdd" stroke="black" d="M2017,-83.5C2017,-83.5 2158,-83.5 2158,-83.5 2164,-83.5 2170,-89.5 2170,-95.5 2170,-95.5 2170,-117.5 2170,-117.5 2170,-123.5 2164,-129.5 2158,-129.5 2158,-129.5 2017,-129.5 2017,-129.5 2011,-129.5 2005,-123.5 2005,-117.5 2005,-117.5 2005,-95.5 2005,-95.5 2005,-89.5 2011,-83.5 2017,-83.5"/>
<text text-anchor="middle" x="2087.5" y="-114.3" font-family="Times,serif" font-size="14.00">type = 2 (OP)</text>
<polyline fill="none" stroke="black" points="2005,-106.5 2170,-106.5 "/>
<text text-anchor="middle" x="2087.5" y="-91.3" font-family="Times,serif" font-size="14.00">value = &#39;&#39; SUB &#39;&#39; (45)</text>
</g>
<!-- node0x5030000007c0&#45;&gt;node0x503000000790 -->
<g id="edge42" class="edge">
<title>node0x5030000007c0&#45;&gt;node0x503000000790</title>
<path fill="none" stroke="black" d="M1996.66,-166.37C2011.54,-156.72 2029.14,-145.32 2044.87,-135.13"/>
<polygon fill="black" stroke="black" points="2046.9,-137.98 2053.38,-129.61 2043.09,-132.11 2046.9,-137.98"/>
</g>
<!-- node0x503000000730 -->
<g id="node44" class="node">
<title>node0x503000000730</title>
<path fill="#ff5050" stroke="black" d="M1833,-0.5C1833,-0.5 2108,-0.5 2108,-0.5 2114,-0.5 2120,-6.5 2120,-12.5 2120,-12.5 2120,-34.5 2120,-34.5 2120,-40.5 2114,-46.5 2108,-46.5 2108,-46.5 1833,-46.5 1833,-46.5 1827,-46.5 1821,-40.5 1821,-34.5 1821,-34.5 1821,-12.5 1821,-12.5 1821,-6.5 1827,-0.5 1833,-0.5"/>
<text text-anchor="middle" x="1970.5" y="-31.3" font-family="Times,serif" font-size="14.00">type = 3 (ID)</text>
<polyline fill="none" stroke="black" points="1821,-23.5 2120,-23.5 "/>
<text text-anchor="middle" x="1970.5" y="-8.3" font-family="Times,serif" font-size="14.00">number of name in name table = &#39;&#39; 22 &#39;&#39;</text>
</g>
<!-- node0x503000000790&#45;&gt;node0x503000000730 -->
<g id="edge43" class="edge">
<title>node0x503000000790&#45;&gt;node0x503000000730</title>
<path fill="none" stroke="black" d="M2055.53,-83.37C2041.73,-73.81 2025.43,-62.53 2010.81,-52.41"/>
<polygon fill="black" stroke="black" points="2012.65,-49.42 2002.43,-46.61 2008.66,-55.18 2012.65,-49.42"/>
</g>
<!-- node0x503000000760 -->
<g id="node45" class="node">
<title>node0x503000000760</title>
<path fill="#ffd700" stroke="black" d="M2150,-0.5C2150,-0.5 2257,-0.5 2257,-0.5 2263,-0.5 2269,-6.5 2269,-12.5 2269,-12.5 2269,-34.5 2269,-34.5 2269,-40.5 2263,-46.5 2257,-46.5 2257,-46.5 2150,-46.5 2150,-46.5 2144,-46.5 2138,-40.5 2138,-34.5 2138,-34.5 2138,-12.5 2138,-12.5 2138,-6.5 2144,-0.5 2150,-0.5"/>
<text text-anchor="middle" x="2203.5" y="-31.3" font-family="Times,serif" font-size="14.00">type = 1 (NUM)</text>
<polyline fill="none" stroke="black" points="2138,-23.5 2269,-23.5 "/>
<text text-anchor="middle" x="2203.5" y="-8.3" font-family="Times,serif" font-size="14.00">value = &#39;&#39; 2 &#39;&#39;</text>
</g>
<!-- node0x503000000790&#45;&gt;node0x503000000760 -->
<g id="edge44" class="edge">
<title>node0x503000000790&#45;&gt;node0x503000000760</title>
<path fill="none" stroke="black" d="M2119.2,-83.37C2132.88,-73.81 2149.04,-62.53 2163.53,-52.41"/>
<polygon fill="black" stroke="black" points="2165.65,-55.2 2171.84,-46.61 2161.64,-49.46 2165.65,-55.2"/>
</g>
</g>
</svg>
