<?xml version="1.0" encoding="UTF-8" standalone="no"?>
<!DOCTYPE svg PUBLIC "-//W3C//DTD SVG 1.1//EN"
 "http://www.w3.org/Graphics/SVG/1.1/DTD/svg11.dtd">
<!-- Generated by graphviz version 2.43.0 (0)
 -->
<!-- Title: %3 Pages: 1 -->
<svg width="1026pt" height="488pt"
 viewBox="0.00 0.00 1026.00 488.00" xmlns="http://www.w3.org/2000/svg" xmlns:xlink="http://www.w3.org/1999/xlink">
<g id="graph0" class="graph" transform="scale(1 1) rotate(0) translate(4 484)">
<title>%3</title>
<!-- node0x5030000000d0 -->
<g id="node1" class="node">
<title>node0x5030000000d0</title>
<path fill="#e0e0e0" stroke="black" d="M395.5,-387.5C395.5,-387.5 777.5,-387.5 777.5,-387.5 783.5,-387.5 789.5,-393.5 789.5,-399.5 789.5,-399.5 789.5,-467.5 789.5,-467.5 789.5,-473.5 783.5,-479.5 777.5,-479.5 777.5,-479.5 395.5,-479.5 395.5,-479.5 389.5,-479.5 383.5,-473.5 383.5,-467.5 383.5,-467.5 383.5,-399.5 383.5,-399.5 383.5,-393.5 389.5,-387.5 395.5,-387.5"/>
<text text-anchor="middle" x="586.5" y="-464.3" font-family="Times,serif" font-size="14.00">[0x5030000000d0]</text>
<polyline fill="none" stroke="black" points="383.5,-456.5 789.5,-456.5 "/>
<text text-anchor="middle" x="586.5" y="-441.3" font-family="Times,serif" font-size="14.00">type = 2 (OP)</text>
<polyline fill="none" stroke="black" points="383.5,-433.5 789.5,-433.5 "/>
<text text-anchor="middle" x="586.5" y="-418.3" font-family="Times,serif" font-size="14.00">value = &#39;&#39; SHUTUP &#39;&#39; (59)</text>
<polyline fill="none" stroke="black" points="383.5,-410.5 789.5,-410.5 "/>
<text text-anchor="middle" x="482" y="-395.3" font-family="Times,serif" font-size="14.00">left = [0x5030000000a0]</text>
<polyline fill="none" stroke="black" points="580.5,-387.5 580.5,-410.5 "/>
<text text-anchor="middle" x="685" y="-395.3" font-family="Times,serif" font-size="14.00">right = [0x503000000190]</text>
</g>
<!-- node0x5030000000a0 -->
<g id="node2" class="node">
<title>node0x5030000000a0</title>
<path fill="#50b2aa" stroke="black" d="M208.5,-258.5C208.5,-258.5 590.5,-258.5 590.5,-258.5 596.5,-258.5 602.5,-264.5 602.5,-270.5 602.5,-270.5 602.5,-338.5 602.5,-338.5 602.5,-344.5 596.5,-350.5 590.5,-350.5 590.5,-350.5 208.5,-350.5 208.5,-350.5 202.5,-350.5 196.5,-344.5 196.5,-338.5 196.5,-338.5 196.5,-270.5 196.5,-270.5 196.5,-264.5 202.5,-258.5 208.5,-258.5"/>
<text text-anchor="middle" x="399.5" y="-335.3" font-family="Times,serif" font-size="14.00">[0x5030000000a0]</text>
<polyline fill="none" stroke="black" points="196.5,-327.5 602.5,-327.5 "/>
<text text-anchor="middle" x="399.5" y="-312.3" font-family="Times,serif" font-size="14.00">type = 2 (OP)</text>
<polyline fill="none" stroke="black" points="196.5,-304.5 602.5,-304.5 "/>
<text text-anchor="middle" x="399.5" y="-289.3" font-family="Times,serif" font-size="14.00">value = &#39;&#39; = &#39;&#39; (61)</text>
<polyline fill="none" stroke="black" points="196.5,-281.5 602.5,-281.5 "/>
<text text-anchor="middle" x="295" y="-266.3" font-family="Times,serif" font-size="14.00">left = [0x503000000040]</text>
<polyline fill="none" stroke="black" points="393.5,-258.5 393.5,-281.5 "/>
<text text-anchor="middle" x="498" y="-266.3" font-family="Times,serif" font-size="14.00">right = [0x503000000070]</text>
</g>
<!-- node0x5030000000d0&#45;&gt;node0x5030000000a0 -->
<g id="edge1" class="edge">
<title>node0x5030000000d0&#45;&gt;node0x5030000000a0</title>
<path fill="none" stroke="black" d="M520.04,-387.37C505.25,-377.32 489.47,-366.6 474.37,-356.35"/>
<polygon fill="black" stroke="black" points="476.3,-353.42 466.06,-350.7 472.36,-359.22 476.3,-353.42"/>
</g>
<!-- node0x503000000190 -->
<g id="node3" class="node">
<title>node0x503000000190</title>
<path fill="#e0e0e0" stroke="black" d="M632,-258.5C632,-258.5 917,-258.5 917,-258.5 923,-258.5 929,-264.5 929,-270.5 929,-270.5 929,-338.5 929,-338.5 929,-344.5 923,-350.5 917,-350.5 917,-350.5 632,-350.5 632,-350.5 626,-350.5 620,-344.5 620,-338.5 620,-338.5 620,-270.5 620,-270.5 620,-264.5 626,-258.5 632,-258.5"/>
<text text-anchor="middle" x="774.5" y="-335.3" font-family="Times,serif" font-size="14.00">[0x503000000190]</text>
<polyline fill="none" stroke="black" points="620,-327.5 929,-327.5 "/>
<text text-anchor="middle" x="774.5" y="-312.3" font-family="Times,serif" font-size="14.00">type = 2 (OP)</text>
<polyline fill="none" stroke="black" points="620,-304.5 929,-304.5 "/>
<text text-anchor="middle" x="774.5" y="-289.3" font-family="Times,serif" font-size="14.00">value = &#39;&#39; SHUTUP &#39;&#39; (59)</text>
<polyline fill="none" stroke="black" points="620,-281.5 929,-281.5 "/>
<text text-anchor="middle" x="718.5" y="-266.3" font-family="Times,serif" font-size="14.00">left = [0x503000000160]</text>
<polyline fill="none" stroke="black" points="817,-258.5 817,-281.5 "/>
<text text-anchor="middle" x="873" y="-266.3" font-family="Times,serif" font-size="14.00">right = [(nil)]</text>
</g>
<!-- node0x5030000000d0&#45;&gt;node0x503000000190 -->
<g id="edge2" class="edge">
<title>node0x5030000000d0&#45;&gt;node0x503000000190</title>
<path fill="none" stroke="black" d="M653.31,-387.37C668.18,-377.32 684.05,-366.6 699.23,-356.35"/>
<polygon fill="black" stroke="black" points="701.26,-359.2 707.59,-350.7 697.34,-353.4 701.26,-359.2"/>
</g>
<!-- node0x503000000040 -->
<g id="node4" class="node">
<title>node0x503000000040</title>
<path fill="#ff5050" stroke="black" d="M12,-129.5C12,-129.5 287,-129.5 287,-129.5 293,-129.5 299,-135.5 299,-141.5 299,-141.5 299,-209.5 299,-209.5 299,-215.5 293,-221.5 287,-221.5 287,-221.5 12,-221.5 12,-221.5 6,-221.5 0,-215.5 0,-209.5 0,-209.5 0,-141.5 0,-141.5 0,-135.5 6,-129.5 12,-129.5"/>
<text text-anchor="middle" x="149.5" y="-206.3" font-family="Times,serif" font-size="14.00">[0x503000000040]</text>
<polyline fill="none" stroke="black" points="0,-198.5 299,-198.5 "/>
<text text-anchor="middle" x="149.5" y="-183.3" font-family="Times,serif" font-size="14.00">type = 3 (ID)</text>
<polyline fill="none" stroke="black" points="0,-175.5 299,-175.5 "/>
<text text-anchor="middle" x="149.5" y="-160.3" font-family="Times,serif" font-size="14.00">number of name in name table = &#39;&#39; 19 &#39;&#39;</text>
<polyline fill="none" stroke="black" points="0,-152.5 299,-152.5 "/>
<text text-anchor="middle" x="72" y="-137.3" font-family="Times,serif" font-size="14.00">left = [(nil)]</text>
<polyline fill="none" stroke="black" points="144,-129.5 144,-152.5 "/>
<text text-anchor="middle" x="221.5" y="-137.3" font-family="Times,serif" font-size="14.00">right = [(nil)]</text>
</g>
<!-- node0x5030000000a0&#45;&gt;node0x503000000040 -->
<g id="edge3" class="edge">
<title>node0x5030000000a0&#45;&gt;node0x503000000040</title>
<path fill="none" stroke="black" d="M310.66,-258.37C290.24,-248 268.41,-236.91 247.63,-226.35"/>
<polygon fill="black" stroke="black" points="248.98,-223.11 238.48,-221.7 245.81,-229.35 248.98,-223.11"/>
</g>
<!-- node0x503000000070 -->
<g id="node5" class="node">
<title>node0x503000000070</title>
<path fill="#ffd700" stroke="black" d="M329,-129.5C329,-129.5 518,-129.5 518,-129.5 524,-129.5 530,-135.5 530,-141.5 530,-141.5 530,-209.5 530,-209.5 530,-215.5 524,-221.5 518,-221.5 518,-221.5 329,-221.5 329,-221.5 323,-221.5 317,-215.5 317,-209.5 317,-209.5 317,-141.5 317,-141.5 317,-135.5 323,-129.5 329,-129.5"/>
<text text-anchor="middle" x="423.5" y="-206.3" font-family="Times,serif" font-size="14.00">[0x503000000070]</text>
<polyline fill="none" stroke="black" points="317,-198.5 530,-198.5 "/>
<text text-anchor="middle" x="423.5" y="-183.3" font-family="Times,serif" font-size="14.00">type = 1 (NUM)</text>
<polyline fill="none" stroke="black" points="317,-175.5 530,-175.5 "/>
<text text-anchor="middle" x="423.5" y="-160.3" font-family="Times,serif" font-size="14.00">value = &#39;&#39; 20 &#39;&#39;</text>
<polyline fill="none" stroke="black" points="317,-152.5 530,-152.5 "/>
<text text-anchor="middle" x="367.5" y="-137.3" font-family="Times,serif" font-size="14.00">left = [(nil)]</text>
<polyline fill="none" stroke="black" points="418,-129.5 418,-152.5 "/>
<text text-anchor="middle" x="474" y="-137.3" font-family="Times,serif" font-size="14.00">right = [(nil)]</text>
</g>
<!-- node0x5030000000a0&#45;&gt;node0x503000000070 -->
<g id="edge4" class="edge">
<title>node0x5030000000a0&#45;&gt;node0x503000000070</title>
<path fill="none" stroke="black" d="M408.03,-258.37C409.65,-249.77 411.37,-240.68 413.05,-231.8"/>
<polygon fill="black" stroke="black" points="416.5,-232.39 414.92,-221.92 409.62,-231.09 416.5,-232.39"/>
</g>
<!-- node0x503000000160 -->
<g id="node6" class="node">
<title>node0x503000000160</title>
<path fill="#50b2aa" stroke="black" d="M583.5,-129.5C583.5,-129.5 965.5,-129.5 965.5,-129.5 971.5,-129.5 977.5,-135.5 977.5,-141.5 977.5,-141.5 977.5,-209.5 977.5,-209.5 977.5,-215.5 971.5,-221.5 965.5,-221.5 965.5,-221.5 583.5,-221.5 583.5,-221.5 577.5,-221.5 571.5,-215.5 571.5,-209.5 571.5,-209.5 571.5,-141.5 571.5,-141.5 571.5,-135.5 577.5,-129.5 583.5,-129.5"/>
<text text-anchor="middle" x="774.5" y="-206.3" font-family="Times,serif" font-size="14.00">[0x503000000160]</text>
<polyline fill="none" stroke="black" points="571.5,-198.5 977.5,-198.5 "/>
<text text-anchor="middle" x="774.5" y="-183.3" font-family="Times,serif" font-size="14.00">type = 2 (OP)</text>
<polyline fill="none" stroke="black" points="571.5,-175.5 977.5,-175.5 "/>
<text text-anchor="middle" x="774.5" y="-160.3" font-family="Times,serif" font-size="14.00">value = &#39;&#39; = &#39;&#39; (61)</text>
<polyline fill="none" stroke="black" points="571.5,-152.5 977.5,-152.5 "/>
<text text-anchor="middle" x="670" y="-137.3" font-family="Times,serif" font-size="14.00">left = [0x503000000100]</text>
<polyline fill="none" stroke="black" points="768.5,-129.5 768.5,-152.5 "/>
<text text-anchor="middle" x="873" y="-137.3" font-family="Times,serif" font-size="14.00">right = [0x503000000130]</text>
</g>
<!-- node0x503000000190&#45;&gt;node0x503000000160 -->
<g id="edge5" class="edge">
<title>node0x503000000190&#45;&gt;node0x503000000160</title>
<path fill="none" stroke="black" d="M774.5,-258.37C774.5,-249.86 774.5,-240.87 774.5,-232.09"/>
<polygon fill="black" stroke="black" points="778,-231.92 774.5,-221.92 771,-231.92 778,-231.92"/>
</g>
<!-- node0x503000000100 -->
<g id="node7" class="node">
<title>node0x503000000100</title>
<path fill="#ff5050" stroke="black" d="M500,-0.5C500,-0.5 775,-0.5 775,-0.5 781,-0.5 787,-6.5 787,-12.5 787,-12.5 787,-80.5 787,-80.5 787,-86.5 781,-92.5 775,-92.5 775,-92.5 500,-92.5 500,-92.5 494,-92.5 488,-86.5 488,-80.5 488,-80.5 488,-12.5 488,-12.5 488,-6.5 494,-0.5 500,-0.5"/>
<text text-anchor="middle" x="637.5" y="-77.3" font-family="Times,serif" font-size="14.00">[0x503000000100]</text>
<polyline fill="none" stroke="black" points="488,-69.5 787,-69.5 "/>
<text text-anchor="middle" x="637.5" y="-54.3" font-family="Times,serif" font-size="14.00">type = 3 (ID)</text>
<polyline fill="none" stroke="black" points="488,-46.5 787,-46.5 "/>
<text text-anchor="middle" x="637.5" y="-31.3" font-family="Times,serif" font-size="14.00">number of name in name table = &#39;&#39; 20 &#39;&#39;</text>
<polyline fill="none" stroke="black" points="488,-23.5 787,-23.5 "/>
<text text-anchor="middle" x="560" y="-8.3" font-family="Times,serif" font-size="14.00">left = [(nil)]</text>
<polyline fill="none" stroke="black" points="632,-0.5 632,-23.5 "/>
<text text-anchor="middle" x="709.5" y="-8.3" font-family="Times,serif" font-size="14.00">right = [(nil)]</text>
</g>
<!-- node0x503000000160&#45;&gt;node0x503000000100 -->
<g id="edge6" class="edge">
<title>node0x503000000160&#45;&gt;node0x503000000100</title>
<path fill="none" stroke="black" d="M725.81,-129.37C715.54,-119.84 704.62,-109.72 694.08,-99.95"/>
<polygon fill="black" stroke="black" points="696.2,-97.15 686.49,-92.92 691.45,-102.28 696.2,-97.15"/>
</g>
<!-- node0x503000000130 -->
<g id="node8" class="node">
<title>node0x503000000130</title>
<path fill="#ffd700" stroke="black" d="M817,-0.5C817,-0.5 1006,-0.5 1006,-0.5 1012,-0.5 1018,-6.5 1018,-12.5 1018,-12.5 1018,-80.5 1018,-80.5 1018,-86.5 1012,-92.5 1006,-92.5 1006,-92.5 817,-92.5 817,-92.5 811,-92.5 805,-86.5 805,-80.5 805,-80.5 805,-12.5 805,-12.5 805,-6.5 811,-0.5 817,-0.5"/>
<text text-anchor="middle" x="911.5" y="-77.3" font-family="Times,serif" font-size="14.00">[0x503000000130]</text>
<polyline fill="none" stroke="black" points="805,-69.5 1018,-69.5 "/>
<text text-anchor="middle" x="911.5" y="-54.3" font-family="Times,serif" font-size="14.00">type = 1 (NUM)</text>
<polyline fill="none" stroke="black" points="805,-46.5 1018,-46.5 "/>
<text text-anchor="middle" x="911.5" y="-31.3" font-family="Times,serif" font-size="14.00">value = &#39;&#39; 10 &#39;&#39;</text>
<polyline fill="none" stroke="black" points="805,-23.5 1018,-23.5 "/>
<text text-anchor="middle" x="855.5" y="-8.3" font-family="Times,serif" font-size="14.00">left = [(nil)]</text>
<polyline fill="none" stroke="black" points="906,-0.5 906,-23.5 "/>
<text text-anchor="middle" x="962" y="-8.3" font-family="Times,serif" font-size="14.00">right = [(nil)]</text>
</g>
<!-- node0x503000000160&#45;&gt;node0x503000000130 -->
<g id="edge7" class="edge">
<title>node0x503000000160&#45;&gt;node0x503000000130</title>
<path fill="none" stroke="black" d="M823.19,-129.37C833.46,-119.84 844.38,-109.72 854.92,-99.95"/>
<polygon fill="black" stroke="black" points="857.55,-102.28 862.51,-92.92 852.8,-97.15 857.55,-102.28"/>
</g>
</g>
</svg>
