<?xml version="1.0" encoding="UTF-8" standalone="no"?>
<!DOCTYPE svg PUBLIC "-//W3C//DTD SVG 1.1//EN"
 "http://www.w3.org/Graphics/SVG/1.1/DTD/svg11.dtd">
<!-- Generated by graphviz version 2.43.0 (0)
 -->
<!-- Title: %3 Pages: 1 -->
<svg width="2420pt" height="1133pt"
 viewBox="0.00 0.00 2420.00 1133.00" xmlns="http://www.w3.org/2000/svg" xmlns:xlink="http://www.w3.org/1999/xlink">
<g id="graph0" class="graph" transform="scale(1 1) rotate(0) translate(4 1129)">
<title>%3</title>
<!-- node0x5030000000d0 -->
<g id="node1" class="node">
<title>node0x5030000000d0</title>
<path fill="#e0e0e0" stroke="black" d="M419.5,-1032.5C419.5,-1032.5 801.5,-1032.5 801.5,-1032.5 807.5,-1032.5 813.5,-1038.5 813.5,-1044.5 813.5,-1044.5 813.5,-1112.5 813.5,-1112.5 813.5,-1118.5 807.5,-1124.5 801.5,-1124.5 801.5,-1124.5 419.5,-1124.5 419.5,-1124.5 413.5,-1124.5 407.5,-1118.5 407.5,-1112.5 407.5,-1112.5 407.5,-1044.5 407.5,-1044.5 407.5,-1038.5 413.5,-1032.5 419.5,-1032.5"/>
<text text-anchor="middle" x="610.5" y="-1109.3" font-family="Times,serif" font-size="14.00">[0x5030000000d0]</text>
<polyline fill="none" stroke="black" points="407.5,-1101.5 813.5,-1101.5 "/>
<text text-anchor="middle" x="610.5" y="-1086.3" font-family="Times,serif" font-size="14.00">type = 2 (OP)</text>
<polyline fill="none" stroke="black" points="407.5,-1078.5 813.5,-1078.5 "/>
<text text-anchor="middle" x="610.5" y="-1063.3" font-family="Times,serif" font-size="14.00">value = &#39;&#39; SHUTUP &#39;&#39; (59)</text>
<polyline fill="none" stroke="black" points="407.5,-1055.5 813.5,-1055.5 "/>
<text text-anchor="middle" x="506" y="-1040.3" font-family="Times,serif" font-size="14.00">left = [0x5030000000a0]</text>
<polyline fill="none" stroke="black" points="604.5,-1032.5 604.5,-1055.5 "/>
<text text-anchor="middle" x="709" y="-1040.3" font-family="Times,serif" font-size="14.00">right = [0x503000000190]</text>
</g>
<!-- node0x5030000000a0 -->
<g id="node2" class="node">
<title>node0x5030000000a0</title>
<path fill="#50b2aa" stroke="black" d="M207.5,-903.5C207.5,-903.5 589.5,-903.5 589.5,-903.5 595.5,-903.5 601.5,-909.5 601.5,-915.5 601.5,-915.5 601.5,-983.5 601.5,-983.5 601.5,-989.5 595.5,-995.5 589.5,-995.5 589.5,-995.5 207.5,-995.5 207.5,-995.5 201.5,-995.5 195.5,-989.5 195.5,-983.5 195.5,-983.5 195.5,-915.5 195.5,-915.5 195.5,-909.5 201.5,-903.5 207.5,-903.5"/>
<text text-anchor="middle" x="398.5" y="-980.3" font-family="Times,serif" font-size="14.00">[0x5030000000a0]</text>
<polyline fill="none" stroke="black" points="195.5,-972.5 601.5,-972.5 "/>
<text text-anchor="middle" x="398.5" y="-957.3" font-family="Times,serif" font-size="14.00">type = 2 (OP)</text>
<polyline fill="none" stroke="black" points="195.5,-949.5 601.5,-949.5 "/>
<text text-anchor="middle" x="398.5" y="-934.3" font-family="Times,serif" font-size="14.00">value = &#39;&#39; = &#39;&#39; (61)</text>
<polyline fill="none" stroke="black" points="195.5,-926.5 601.5,-926.5 "/>
<text text-anchor="middle" x="294" y="-911.3" font-family="Times,serif" font-size="14.00">left = [0x503000000040]</text>
<polyline fill="none" stroke="black" points="392.5,-903.5 392.5,-926.5 "/>
<text text-anchor="middle" x="497" y="-911.3" font-family="Times,serif" font-size="14.00">right = [0x503000000070]</text>
</g>
<!-- node0x5030000000d0&#45;&gt;node0x5030000000a0 -->
<g id="edge1" class="edge">
<title>node0x5030000000d0&#45;&gt;node0x5030000000a0</title>
<path fill="none" stroke="black" d="M535.16,-1032.37C518.23,-1022.23 500.17,-1011.41 482.9,-1001.06"/>
<polygon fill="black" stroke="black" points="484.33,-997.84 473.95,-995.7 480.73,-1003.84 484.33,-997.84"/>
</g>
<!-- node0x503000000190 -->
<g id="node3" class="node">
<title>node0x503000000190</title>
<path fill="#e0e0e0" stroke="black" d="M631.5,-903.5C631.5,-903.5 1013.5,-903.5 1013.5,-903.5 1019.5,-903.5 1025.5,-909.5 1025.5,-915.5 1025.5,-915.5 1025.5,-983.5 1025.5,-983.5 1025.5,-989.5 1019.5,-995.5 1013.5,-995.5 1013.5,-995.5 631.5,-995.5 631.5,-995.5 625.5,-995.5 619.5,-989.5 619.5,-983.5 619.5,-983.5 619.5,-915.5 619.5,-915.5 619.5,-909.5 625.5,-903.5 631.5,-903.5"/>
<text text-anchor="middle" x="822.5" y="-980.3" font-family="Times,serif" font-size="14.00">[0x503000000190]</text>
<polyline fill="none" stroke="black" points="619.5,-972.5 1025.5,-972.5 "/>
<text text-anchor="middle" x="822.5" y="-957.3" font-family="Times,serif" font-size="14.00">type = 2 (OP)</text>
<polyline fill="none" stroke="black" points="619.5,-949.5 1025.5,-949.5 "/>
<text text-anchor="middle" x="822.5" y="-934.3" font-family="Times,serif" font-size="14.00">value = &#39;&#39; SHUTUP &#39;&#39; (59)</text>
<polyline fill="none" stroke="black" points="619.5,-926.5 1025.5,-926.5 "/>
<text text-anchor="middle" x="718" y="-911.3" font-family="Times,serif" font-size="14.00">left = [0x503000000160]</text>
<polyline fill="none" stroke="black" points="816.5,-903.5 816.5,-926.5 "/>
<text text-anchor="middle" x="921" y="-911.3" font-family="Times,serif" font-size="14.00">right = [0x5030000002b0]</text>
</g>
<!-- node0x5030000000d0&#45;&gt;node0x503000000190 -->
<g id="edge2" class="edge">
<title>node0x5030000000d0&#45;&gt;node0x503000000190</title>
<path fill="none" stroke="black" d="M685.84,-1032.37C702.77,-1022.23 720.83,-1011.41 738.1,-1001.06"/>
<polygon fill="black" stroke="black" points="740.27,-1003.84 747.05,-995.7 736.67,-997.84 740.27,-1003.84"/>
</g>
<!-- node0x503000000040 -->
<g id="node4" class="node">
<title>node0x503000000040</title>
<path fill="#ff5050" stroke="black" d="M12,-774.5C12,-774.5 287,-774.5 287,-774.5 293,-774.5 299,-780.5 299,-786.5 299,-786.5 299,-854.5 299,-854.5 299,-860.5 293,-866.5 287,-866.5 287,-866.5 12,-866.5 12,-866.5 6,-866.5 0,-860.5 0,-854.5 0,-854.5 0,-786.5 0,-786.5 0,-780.5 6,-774.5 12,-774.5"/>
<text text-anchor="middle" x="149.5" y="-851.3" font-family="Times,serif" font-size="14.00">[0x503000000040]</text>
<polyline fill="none" stroke="black" points="0,-843.5 299,-843.5 "/>
<text text-anchor="middle" x="149.5" y="-828.3" font-family="Times,serif" font-size="14.00">type = 3 (ID)</text>
<polyline fill="none" stroke="black" points="0,-820.5 299,-820.5 "/>
<text text-anchor="middle" x="149.5" y="-805.3" font-family="Times,serif" font-size="14.00">number of name in name table = &#39;&#39; 19 &#39;&#39;</text>
<polyline fill="none" stroke="black" points="0,-797.5 299,-797.5 "/>
<text text-anchor="middle" x="72" y="-782.3" font-family="Times,serif" font-size="14.00">left = [(nil)]</text>
<polyline fill="none" stroke="black" points="144,-774.5 144,-797.5 "/>
<text text-anchor="middle" x="221.5" y="-782.3" font-family="Times,serif" font-size="14.00">right = [(nil)]</text>
</g>
<!-- node0x5030000000a0&#45;&gt;node0x503000000040 -->
<g id="edge3" class="edge">
<title>node0x5030000000a0&#45;&gt;node0x503000000040</title>
<path fill="none" stroke="black" d="M310.01,-903.37C289.68,-893 267.94,-881.91 247.24,-871.35"/>
<polygon fill="black" stroke="black" points="248.62,-868.13 238.12,-866.7 245.44,-874.36 248.62,-868.13"/>
</g>
<!-- node0x503000000070 -->
<g id="node5" class="node">
<title>node0x503000000070</title>
<path fill="#ffd700" stroke="black" d="M329,-774.5C329,-774.5 518,-774.5 518,-774.5 524,-774.5 530,-780.5 530,-786.5 530,-786.5 530,-854.5 530,-854.5 530,-860.5 524,-866.5 518,-866.5 518,-866.5 329,-866.5 329,-866.5 323,-866.5 317,-860.5 317,-854.5 317,-854.5 317,-786.5 317,-786.5 317,-780.5 323,-774.5 329,-774.5"/>
<text text-anchor="middle" x="423.5" y="-851.3" font-family="Times,serif" font-size="14.00">[0x503000000070]</text>
<polyline fill="none" stroke="black" points="317,-843.5 530,-843.5 "/>
<text text-anchor="middle" x="423.5" y="-828.3" font-family="Times,serif" font-size="14.00">type = 1 (NUM)</text>
<polyline fill="none" stroke="black" points="317,-820.5 530,-820.5 "/>
<text text-anchor="middle" x="423.5" y="-805.3" font-family="Times,serif" font-size="14.00">value = &#39;&#39; 20 &#39;&#39;</text>
<polyline fill="none" stroke="black" points="317,-797.5 530,-797.5 "/>
<text text-anchor="middle" x="367.5" y="-782.3" font-family="Times,serif" font-size="14.00">left = [(nil)]</text>
<polyline fill="none" stroke="black" points="418,-774.5 418,-797.5 "/>
<text text-anchor="middle" x="474" y="-782.3" font-family="Times,serif" font-size="14.00">right = [(nil)]</text>
</g>
<!-- node0x5030000000a0&#45;&gt;node0x503000000070 -->
<g id="edge4" class="edge">
<title>node0x5030000000a0&#45;&gt;node0x503000000070</title>
<path fill="none" stroke="black" d="M407.38,-903.37C409.08,-894.77 410.87,-885.68 412.61,-876.8"/>
<polygon fill="black" stroke="black" points="416.06,-877.4 414.56,-866.92 409.19,-876.05 416.06,-877.4"/>
</g>
<!-- node0x503000000160 -->
<g id="node6" class="node">
<title>node0x503000000160</title>
<path fill="#50b2aa" stroke="black" d="M607.5,-774.5C607.5,-774.5 989.5,-774.5 989.5,-774.5 995.5,-774.5 1001.5,-780.5 1001.5,-786.5 1001.5,-786.5 1001.5,-854.5 1001.5,-854.5 1001.5,-860.5 995.5,-866.5 989.5,-866.5 989.5,-866.5 607.5,-866.5 607.5,-866.5 601.5,-866.5 595.5,-860.5 595.5,-854.5 595.5,-854.5 595.5,-786.5 595.5,-786.5 595.5,-780.5 601.5,-774.5 607.5,-774.5"/>
<text text-anchor="middle" x="798.5" y="-851.3" font-family="Times,serif" font-size="14.00">[0x503000000160]</text>
<polyline fill="none" stroke="black" points="595.5,-843.5 1001.5,-843.5 "/>
<text text-anchor="middle" x="798.5" y="-828.3" font-family="Times,serif" font-size="14.00">type = 2 (OP)</text>
<polyline fill="none" stroke="black" points="595.5,-820.5 1001.5,-820.5 "/>
<text text-anchor="middle" x="798.5" y="-805.3" font-family="Times,serif" font-size="14.00">value = &#39;&#39; = &#39;&#39; (61)</text>
<polyline fill="none" stroke="black" points="595.5,-797.5 1001.5,-797.5 "/>
<text text-anchor="middle" x="694" y="-782.3" font-family="Times,serif" font-size="14.00">left = [0x503000000100]</text>
<polyline fill="none" stroke="black" points="792.5,-774.5 792.5,-797.5 "/>
<text text-anchor="middle" x="897" y="-782.3" font-family="Times,serif" font-size="14.00">right = [0x503000000130]</text>
</g>
<!-- node0x503000000190&#45;&gt;node0x503000000160 -->
<g id="edge5" class="edge">
<title>node0x503000000190&#45;&gt;node0x503000000160</title>
<path fill="none" stroke="black" d="M813.97,-903.37C812.35,-894.77 810.63,-885.68 808.95,-876.8"/>
<polygon fill="black" stroke="black" points="812.38,-876.09 807.08,-866.92 805.5,-877.39 812.38,-876.09"/>
</g>
<!-- node0x5030000002b0 -->
<g id="node7" class="node">
<title>node0x5030000002b0</title>
<path fill="#e0e0e0" stroke="black" d="M1031.5,-774.5C1031.5,-774.5 1411.5,-774.5 1411.5,-774.5 1417.5,-774.5 1423.5,-780.5 1423.5,-786.5 1423.5,-786.5 1423.5,-854.5 1423.5,-854.5 1423.5,-860.5 1417.5,-866.5 1411.5,-866.5 1411.5,-866.5 1031.5,-866.5 1031.5,-866.5 1025.5,-866.5 1019.5,-860.5 1019.5,-854.5 1019.5,-854.5 1019.5,-786.5 1019.5,-786.5 1019.5,-780.5 1025.5,-774.5 1031.5,-774.5"/>
<text text-anchor="middle" x="1221.5" y="-851.3" font-family="Times,serif" font-size="14.00">[0x5030000002b0]</text>
<polyline fill="none" stroke="black" points="1019.5,-843.5 1423.5,-843.5 "/>
<text text-anchor="middle" x="1221.5" y="-828.3" font-family="Times,serif" font-size="14.00">type = 2 (OP)</text>
<polyline fill="none" stroke="black" points="1019.5,-820.5 1423.5,-820.5 "/>
<text text-anchor="middle" x="1221.5" y="-805.3" font-family="Times,serif" font-size="14.00">value = &#39;&#39; SHUTUP &#39;&#39; (59)</text>
<polyline fill="none" stroke="black" points="1019.5,-797.5 1423.5,-797.5 "/>
<text text-anchor="middle" x="1118" y="-782.3" font-family="Times,serif" font-size="14.00">left = [0x503000000280]</text>
<polyline fill="none" stroke="black" points="1216.5,-774.5 1216.5,-797.5 "/>
<text text-anchor="middle" x="1320" y="-782.3" font-family="Times,serif" font-size="14.00">right = [0x5030000004c0]</text>
</g>
<!-- node0x503000000190&#45;&gt;node0x5030000002b0 -->
<g id="edge6" class="edge">
<title>node0x503000000190&#45;&gt;node0x5030000002b0</title>
<path fill="none" stroke="black" d="M964.01,-903.46C998.43,-892.5 1035.36,-880.75 1070.2,-869.66"/>
<polygon fill="black" stroke="black" points="1071.5,-872.92 1079.97,-866.55 1069.38,-866.25 1071.5,-872.92"/>
</g>
<!-- node0x503000000100 -->
<g id="node8" class="node">
<title>node0x503000000100</title>
<path fill="#ff5050" stroke="black" d="M411,-645.5C411,-645.5 686,-645.5 686,-645.5 692,-645.5 698,-651.5 698,-657.5 698,-657.5 698,-725.5 698,-725.5 698,-731.5 692,-737.5 686,-737.5 686,-737.5 411,-737.5 411,-737.5 405,-737.5 399,-731.5 399,-725.5 399,-725.5 399,-657.5 399,-657.5 399,-651.5 405,-645.5 411,-645.5"/>
<text text-anchor="middle" x="548.5" y="-722.3" font-family="Times,serif" font-size="14.00">[0x503000000100]</text>
<polyline fill="none" stroke="black" points="399,-714.5 698,-714.5 "/>
<text text-anchor="middle" x="548.5" y="-699.3" font-family="Times,serif" font-size="14.00">type = 3 (ID)</text>
<polyline fill="none" stroke="black" points="399,-691.5 698,-691.5 "/>
<text text-anchor="middle" x="548.5" y="-676.3" font-family="Times,serif" font-size="14.00">number of name in name table = &#39;&#39; 20 &#39;&#39;</text>
<polyline fill="none" stroke="black" points="399,-668.5 698,-668.5 "/>
<text text-anchor="middle" x="471" y="-653.3" font-family="Times,serif" font-size="14.00">left = [(nil)]</text>
<polyline fill="none" stroke="black" points="543,-645.5 543,-668.5 "/>
<text text-anchor="middle" x="620.5" y="-653.3" font-family="Times,serif" font-size="14.00">right = [(nil)]</text>
</g>
<!-- node0x503000000160&#45;&gt;node0x503000000100 -->
<g id="edge7" class="edge">
<title>node0x503000000160&#45;&gt;node0x503000000100</title>
<path fill="none" stroke="black" d="M709.66,-774.37C689.24,-764 667.41,-752.91 646.63,-742.35"/>
<polygon fill="black" stroke="black" points="647.98,-739.11 637.48,-737.7 644.81,-745.35 647.98,-739.11"/>
</g>
<!-- node0x503000000130 -->
<g id="node9" class="node">
<title>node0x503000000130</title>
<path fill="#ffd700" stroke="black" d="M728,-645.5C728,-645.5 917,-645.5 917,-645.5 923,-645.5 929,-651.5 929,-657.5 929,-657.5 929,-725.5 929,-725.5 929,-731.5 923,-737.5 917,-737.5 917,-737.5 728,-737.5 728,-737.5 722,-737.5 716,-731.5 716,-725.5 716,-725.5 716,-657.5 716,-657.5 716,-651.5 722,-645.5 728,-645.5"/>
<text text-anchor="middle" x="822.5" y="-722.3" font-family="Times,serif" font-size="14.00">[0x503000000130]</text>
<polyline fill="none" stroke="black" points="716,-714.5 929,-714.5 "/>
<text text-anchor="middle" x="822.5" y="-699.3" font-family="Times,serif" font-size="14.00">type = 1 (NUM)</text>
<polyline fill="none" stroke="black" points="716,-691.5 929,-691.5 "/>
<text text-anchor="middle" x="822.5" y="-676.3" font-family="Times,serif" font-size="14.00">value = &#39;&#39; 10 &#39;&#39;</text>
<polyline fill="none" stroke="black" points="716,-668.5 929,-668.5 "/>
<text text-anchor="middle" x="766.5" y="-653.3" font-family="Times,serif" font-size="14.00">left = [(nil)]</text>
<polyline fill="none" stroke="black" points="817,-645.5 817,-668.5 "/>
<text text-anchor="middle" x="873" y="-653.3" font-family="Times,serif" font-size="14.00">right = [(nil)]</text>
</g>
<!-- node0x503000000160&#45;&gt;node0x503000000130 -->
<g id="edge8" class="edge">
<title>node0x503000000160&#45;&gt;node0x503000000130</title>
<path fill="none" stroke="black" d="M807.03,-774.37C808.65,-765.77 810.37,-756.68 812.05,-747.8"/>
<polygon fill="black" stroke="black" points="815.5,-748.39 813.92,-737.92 808.62,-747.09 815.5,-748.39"/>
</g>
<!-- node0x503000000280 -->
<g id="node10" class="node">
<title>node0x503000000280</title>
<path fill="#50b2aa" stroke="black" d="M1007,-645.5C1007,-645.5 1388,-645.5 1388,-645.5 1394,-645.5 1400,-651.5 1400,-657.5 1400,-657.5 1400,-725.5 1400,-725.5 1400,-731.5 1394,-737.5 1388,-737.5 1388,-737.5 1007,-737.5 1007,-737.5 1001,-737.5 995,-731.5 995,-725.5 995,-725.5 995,-657.5 995,-657.5 995,-651.5 1001,-645.5 1007,-645.5"/>
<text text-anchor="middle" x="1197.5" y="-722.3" font-family="Times,serif" font-size="14.00">[0x503000000280]</text>
<polyline fill="none" stroke="black" points="995,-714.5 1400,-714.5 "/>
<text text-anchor="middle" x="1197.5" y="-699.3" font-family="Times,serif" font-size="14.00">type = 2 (OP)</text>
<polyline fill="none" stroke="black" points="995,-691.5 1400,-691.5 "/>
<text text-anchor="middle" x="1197.5" y="-676.3" font-family="Times,serif" font-size="14.00">value = &#39;&#39; = &#39;&#39; (61)</text>
<polyline fill="none" stroke="black" points="995,-668.5 1400,-668.5 "/>
<text text-anchor="middle" x="1093" y="-653.3" font-family="Times,serif" font-size="14.00">left = [0x5030000001c0]</text>
<polyline fill="none" stroke="black" points="1191,-645.5 1191,-668.5 "/>
<text text-anchor="middle" x="1295.5" y="-653.3" font-family="Times,serif" font-size="14.00">right = [0x503000000250]</text>
</g>
<!-- node0x5030000002b0&#45;&gt;node0x503000000280 -->
<g id="edge9" class="edge">
<title>node0x5030000002b0&#45;&gt;node0x503000000280</title>
<path fill="none" stroke="black" d="M1212.97,-774.37C1211.35,-765.77 1209.63,-756.68 1207.95,-747.8"/>
<polygon fill="black" stroke="black" points="1211.38,-747.09 1206.08,-737.92 1204.5,-748.39 1211.38,-747.09"/>
</g>
<!-- node0x5030000004c0 -->
<g id="node11" class="node">
<title>node0x5030000004c0</title>
<path fill="#e0e0e0" stroke="black" d="M1454,-645.5C1454,-645.5 1739,-645.5 1739,-645.5 1745,-645.5 1751,-651.5 1751,-657.5 1751,-657.5 1751,-725.5 1751,-725.5 1751,-731.5 1745,-737.5 1739,-737.5 1739,-737.5 1454,-737.5 1454,-737.5 1448,-737.5 1442,-731.5 1442,-725.5 1442,-725.5 1442,-657.5 1442,-657.5 1442,-651.5 1448,-645.5 1454,-645.5"/>
<text text-anchor="middle" x="1596.5" y="-722.3" font-family="Times,serif" font-size="14.00">[0x5030000004c0]</text>
<polyline fill="none" stroke="black" points="1442,-714.5 1751,-714.5 "/>
<text text-anchor="middle" x="1596.5" y="-699.3" font-family="Times,serif" font-size="14.00">type = 2 (OP)</text>
<polyline fill="none" stroke="black" points="1442,-691.5 1751,-691.5 "/>
<text text-anchor="middle" x="1596.5" y="-676.3" font-family="Times,serif" font-size="14.00">value = &#39;&#39; SHUTUP &#39;&#39; (59)</text>
<polyline fill="none" stroke="black" points="1442,-668.5 1751,-668.5 "/>
<text text-anchor="middle" x="1540.5" y="-653.3" font-family="Times,serif" font-size="14.00">left = [0x503000000490]</text>
<polyline fill="none" stroke="black" points="1639,-645.5 1639,-668.5 "/>
<text text-anchor="middle" x="1695" y="-653.3" font-family="Times,serif" font-size="14.00">right = [(nil)]</text>
</g>
<!-- node0x5030000002b0&#45;&gt;node0x5030000004c0 -->
<g id="edge10" class="edge">
<title>node0x5030000002b0&#45;&gt;node0x5030000004c0</title>
<path fill="none" stroke="black" d="M1354.5,-774.46C1386.71,-763.55 1421.26,-751.85 1453.88,-740.8"/>
<polygon fill="black" stroke="black" points="1455.14,-744.07 1463.48,-737.55 1452.89,-737.44 1455.14,-744.07"/>
</g>
<!-- node0x5030000001c0 -->
<g id="node12" class="node">
<title>node0x5030000001c0</title>
<path fill="#ff5050" stroke="black" d="M691,-516.5C691,-516.5 966,-516.5 966,-516.5 972,-516.5 978,-522.5 978,-528.5 978,-528.5 978,-596.5 978,-596.5 978,-602.5 972,-608.5 966,-608.5 966,-608.5 691,-608.5 691,-608.5 685,-608.5 679,-602.5 679,-596.5 679,-596.5 679,-528.5 679,-528.5 679,-522.5 685,-516.5 691,-516.5"/>
<text text-anchor="middle" x="828.5" y="-593.3" font-family="Times,serif" font-size="14.00">[0x5030000001c0]</text>
<polyline fill="none" stroke="black" points="679,-585.5 978,-585.5 "/>
<text text-anchor="middle" x="828.5" y="-570.3" font-family="Times,serif" font-size="14.00">type = 3 (ID)</text>
<polyline fill="none" stroke="black" points="679,-562.5 978,-562.5 "/>
<text text-anchor="middle" x="828.5" y="-547.3" font-family="Times,serif" font-size="14.00">number of name in name table = &#39;&#39; 20 &#39;&#39;</text>
<polyline fill="none" stroke="black" points="679,-539.5 978,-539.5 "/>
<text text-anchor="middle" x="751" y="-524.3" font-family="Times,serif" font-size="14.00">left = [(nil)]</text>
<polyline fill="none" stroke="black" points="823,-516.5 823,-539.5 "/>
<text text-anchor="middle" x="900.5" y="-524.3" font-family="Times,serif" font-size="14.00">right = [(nil)]</text>
</g>
<!-- node0x503000000280&#45;&gt;node0x5030000001c0 -->
<g id="edge11" class="edge">
<title>node0x503000000280&#45;&gt;node0x5030000001c0</title>
<path fill="none" stroke="black" d="M1066.63,-645.46C1035.07,-634.6 1001.23,-622.95 969.25,-611.94"/>
<polygon fill="black" stroke="black" points="969.98,-608.49 959.39,-608.55 967.7,-615.11 969.98,-608.49"/>
</g>
<!-- node0x503000000250 -->
<g id="node13" class="node">
<title>node0x503000000250</title>
<path fill="#50b2aa" stroke="black" d="M1008,-516.5C1008,-516.5 1387,-516.5 1387,-516.5 1393,-516.5 1399,-522.5 1399,-528.5 1399,-528.5 1399,-596.5 1399,-596.5 1399,-602.5 1393,-608.5 1387,-608.5 1387,-608.5 1008,-608.5 1008,-608.5 1002,-608.5 996,-602.5 996,-596.5 996,-596.5 996,-528.5 996,-528.5 996,-522.5 1002,-516.5 1008,-516.5"/>
<text text-anchor="middle" x="1197.5" y="-593.3" font-family="Times,serif" font-size="14.00">[0x503000000250]</text>
<polyline fill="none" stroke="black" points="996,-585.5 1399,-585.5 "/>
<text text-anchor="middle" x="1197.5" y="-570.3" font-family="Times,serif" font-size="14.00">type = 2 (OP)</text>
<polyline fill="none" stroke="black" points="996,-562.5 1399,-562.5 "/>
<text text-anchor="middle" x="1197.5" y="-547.3" font-family="Times,serif" font-size="14.00">value = &#39;&#39; SUB &#39;&#39; (45)</text>
<polyline fill="none" stroke="black" points="996,-539.5 1399,-539.5 "/>
<text text-anchor="middle" x="1093" y="-524.3" font-family="Times,serif" font-size="14.00">left = [0x5030000001f0]</text>
<polyline fill="none" stroke="black" points="1190,-516.5 1190,-539.5 "/>
<text text-anchor="middle" x="1294.5" y="-524.3" font-family="Times,serif" font-size="14.00">right = [0x503000000220]</text>
</g>
<!-- node0x503000000280&#45;&gt;node0x503000000250 -->
<g id="edge12" class="edge">
<title>node0x503000000280&#45;&gt;node0x503000000250</title>
<path fill="none" stroke="black" d="M1197.5,-645.37C1197.5,-636.86 1197.5,-627.87 1197.5,-619.09"/>
<polygon fill="black" stroke="black" points="1201,-618.92 1197.5,-608.92 1194,-618.92 1201,-618.92"/>
</g>
<!-- node0x503000000490 -->
<g id="node16" class="node">
<title>node0x503000000490</title>
<path fill="#00801a" stroke="black" d="M1429.5,-516.5C1429.5,-516.5 1811.5,-516.5 1811.5,-516.5 1817.5,-516.5 1823.5,-522.5 1823.5,-528.5 1823.5,-528.5 1823.5,-596.5 1823.5,-596.5 1823.5,-602.5 1817.5,-608.5 1811.5,-608.5 1811.5,-608.5 1429.5,-608.5 1429.5,-608.5 1423.5,-608.5 1417.5,-602.5 1417.5,-596.5 1417.5,-596.5 1417.5,-528.5 1417.5,-528.5 1417.5,-522.5 1423.5,-516.5 1429.5,-516.5"/>
<text text-anchor="middle" x="1620.5" y="-593.3" font-family="Times,serif" font-size="14.00">[0x503000000490]</text>
<polyline fill="none" stroke="black" points="1417.5,-585.5 1823.5,-585.5 "/>
<text text-anchor="middle" x="1620.5" y="-570.3" font-family="Times,serif" font-size="14.00">type = 2 (OP)</text>
<polyline fill="none" stroke="black" points="1417.5,-562.5 1823.5,-562.5 "/>
<text text-anchor="middle" x="1620.5" y="-547.3" font-family="Times,serif" font-size="14.00">value = &#39;&#39; FORREAL &#39;&#39; (105)</text>
<polyline fill="none" stroke="black" points="1417.5,-539.5 1823.5,-539.5 "/>
<text text-anchor="middle" x="1516" y="-524.3" font-family="Times,serif" font-size="14.00">left = [0x503000000340]</text>
<polyline fill="none" stroke="black" points="1614.5,-516.5 1614.5,-539.5 "/>
<text text-anchor="middle" x="1719" y="-524.3" font-family="Times,serif" font-size="14.00">right = [0x503000000460]</text>
</g>
<!-- node0x5030000004c0&#45;&gt;node0x503000000490 -->
<g id="edge15" class="edge">
<title>node0x5030000004c0&#45;&gt;node0x503000000490</title>
<path fill="none" stroke="black" d="M1605.03,-645.37C1606.65,-636.77 1608.37,-627.68 1610.05,-618.8"/>
<polygon fill="black" stroke="black" points="1613.5,-619.39 1611.92,-608.92 1606.62,-618.09 1613.5,-619.39"/>
</g>
<!-- node0x5030000001f0 -->
<g id="node14" class="node">
<title>node0x5030000001f0</title>
<path fill="#ff5050" stroke="black" d="M756,-387.5C756,-387.5 1031,-387.5 1031,-387.5 1037,-387.5 1043,-393.5 1043,-399.5 1043,-399.5 1043,-467.5 1043,-467.5 1043,-473.5 1037,-479.5 1031,-479.5 1031,-479.5 756,-479.5 756,-479.5 750,-479.5 744,-473.5 744,-467.5 744,-467.5 744,-399.5 744,-399.5 744,-393.5 750,-387.5 756,-387.5"/>
<text text-anchor="middle" x="893.5" y="-464.3" font-family="Times,serif" font-size="14.00">[0x5030000001f0]</text>
<polyline fill="none" stroke="black" points="744,-456.5 1043,-456.5 "/>
<text text-anchor="middle" x="893.5" y="-441.3" font-family="Times,serif" font-size="14.00">type = 3 (ID)</text>
<polyline fill="none" stroke="black" points="744,-433.5 1043,-433.5 "/>
<text text-anchor="middle" x="893.5" y="-418.3" font-family="Times,serif" font-size="14.00">number of name in name table = &#39;&#39; 20 &#39;&#39;</text>
<polyline fill="none" stroke="black" points="744,-410.5 1043,-410.5 "/>
<text text-anchor="middle" x="816" y="-395.3" font-family="Times,serif" font-size="14.00">left = [(nil)]</text>
<polyline fill="none" stroke="black" points="888,-387.5 888,-410.5 "/>
<text text-anchor="middle" x="965.5" y="-395.3" font-family="Times,serif" font-size="14.00">right = [(nil)]</text>
</g>
<!-- node0x503000000250&#45;&gt;node0x5030000001f0 -->
<g id="edge13" class="edge">
<title>node0x503000000250&#45;&gt;node0x5030000001f0</title>
<path fill="none" stroke="black" d="M1089.47,-516.37C1064.01,-505.73 1036.75,-494.34 1010.9,-483.54"/>
<polygon fill="black" stroke="black" points="1012.02,-480.22 1001.44,-479.59 1009.32,-486.68 1012.02,-480.22"/>
</g>
<!-- node0x503000000220 -->
<g id="node15" class="node">
<title>node0x503000000220</title>
<path fill="#ff5050" stroke="black" d="M1073,-387.5C1073,-387.5 1348,-387.5 1348,-387.5 1354,-387.5 1360,-393.5 1360,-399.5 1360,-399.5 1360,-467.5 1360,-467.5 1360,-473.5 1354,-479.5 1348,-479.5 1348,-479.5 1073,-479.5 1073,-479.5 1067,-479.5 1061,-473.5 1061,-467.5 1061,-467.5 1061,-399.5 1061,-399.5 1061,-393.5 1067,-387.5 1073,-387.5"/>
<text text-anchor="middle" x="1210.5" y="-464.3" font-family="Times,serif" font-size="14.00">[0x503000000220]</text>
<polyline fill="none" stroke="black" points="1061,-456.5 1360,-456.5 "/>
<text text-anchor="middle" x="1210.5" y="-441.3" font-family="Times,serif" font-size="14.00">type = 3 (ID)</text>
<polyline fill="none" stroke="black" points="1061,-433.5 1360,-433.5 "/>
<text text-anchor="middle" x="1210.5" y="-418.3" font-family="Times,serif" font-size="14.00">number of name in name table = &#39;&#39; 19 &#39;&#39;</text>
<polyline fill="none" stroke="black" points="1061,-410.5 1360,-410.5 "/>
<text text-anchor="middle" x="1133" y="-395.3" font-family="Times,serif" font-size="14.00">left = [(nil)]</text>
<polyline fill="none" stroke="black" points="1205,-387.5 1205,-410.5 "/>
<text text-anchor="middle" x="1282.5" y="-395.3" font-family="Times,serif" font-size="14.00">right = [(nil)]</text>
</g>
<!-- node0x503000000250&#45;&gt;node0x503000000220 -->
<g id="edge14" class="edge">
<title>node0x503000000250&#45;&gt;node0x503000000220</title>
<path fill="none" stroke="black" d="M1202.12,-516.37C1202.99,-507.86 1203.91,-498.87 1204.81,-490.09"/>
<polygon fill="black" stroke="black" points="1208.31,-490.22 1205.85,-479.92 1201.35,-489.51 1208.31,-490.22"/>
</g>
<!-- node0x503000000340 -->
<g id="node17" class="node">
<title>node0x503000000340</title>
<path fill="#50b2aa" stroke="black" d="M1416.5,-387.5C1416.5,-387.5 1798.5,-387.5 1798.5,-387.5 1804.5,-387.5 1810.5,-393.5 1810.5,-399.5 1810.5,-399.5 1810.5,-467.5 1810.5,-467.5 1810.5,-473.5 1804.5,-479.5 1798.5,-479.5 1798.5,-479.5 1416.5,-479.5 1416.5,-479.5 1410.5,-479.5 1404.5,-473.5 1404.5,-467.5 1404.5,-467.5 1404.5,-399.5 1404.5,-399.5 1404.5,-393.5 1410.5,-387.5 1416.5,-387.5"/>
<text text-anchor="middle" x="1607.5" y="-464.3" font-family="Times,serif" font-size="14.00">[0x503000000340]</text>
<polyline fill="none" stroke="black" points="1404.5,-456.5 1810.5,-456.5 "/>
<text text-anchor="middle" x="1607.5" y="-441.3" font-family="Times,serif" font-size="14.00">type = 2 (OP)</text>
<polyline fill="none" stroke="black" points="1404.5,-433.5 1810.5,-433.5 "/>
<text text-anchor="middle" x="1607.5" y="-418.3" font-family="Times,serif" font-size="14.00">value = &#39;&#39; SUB &#39;&#39; (45)</text>
<polyline fill="none" stroke="black" points="1404.5,-410.5 1810.5,-410.5 "/>
<text text-anchor="middle" x="1503" y="-395.3" font-family="Times,serif" font-size="14.00">left = [0x5030000002e0]</text>
<polyline fill="none" stroke="black" points="1601.5,-387.5 1601.5,-410.5 "/>
<text text-anchor="middle" x="1706" y="-395.3" font-family="Times,serif" font-size="14.00">right = [0x503000000310]</text>
</g>
<!-- node0x503000000490&#45;&gt;node0x503000000340 -->
<g id="edge16" class="edge">
<title>node0x503000000490&#45;&gt;node0x503000000340</title>
<path fill="none" stroke="black" d="M1615.88,-516.37C1615.01,-507.86 1614.09,-498.87 1613.19,-490.09"/>
<polygon fill="black" stroke="black" points="1616.65,-489.51 1612.15,-479.92 1609.69,-490.22 1616.65,-489.51"/>
</g>
<!-- node0x503000000460 -->
<g id="node18" class="node">
<title>node0x503000000460</title>
<path fill="#e0e0e0" stroke="black" d="M1840,-387.5C1840,-387.5 2125,-387.5 2125,-387.5 2131,-387.5 2137,-393.5 2137,-399.5 2137,-399.5 2137,-467.5 2137,-467.5 2137,-473.5 2131,-479.5 2125,-479.5 2125,-479.5 1840,-479.5 1840,-479.5 1834,-479.5 1828,-473.5 1828,-467.5 1828,-467.5 1828,-399.5 1828,-399.5 1828,-393.5 1834,-387.5 1840,-387.5"/>
<text text-anchor="middle" x="1982.5" y="-464.3" font-family="Times,serif" font-size="14.00">[0x503000000460]</text>
<polyline fill="none" stroke="black" points="1828,-456.5 2137,-456.5 "/>
<text text-anchor="middle" x="1982.5" y="-441.3" font-family="Times,serif" font-size="14.00">type = 2 (OP)</text>
<polyline fill="none" stroke="black" points="1828,-433.5 2137,-433.5 "/>
<text text-anchor="middle" x="1982.5" y="-418.3" font-family="Times,serif" font-size="14.00">value = &#39;&#39; SHUTUP &#39;&#39; (59)</text>
<polyline fill="none" stroke="black" points="1828,-410.5 2137,-410.5 "/>
<text text-anchor="middle" x="1926.5" y="-395.3" font-family="Times,serif" font-size="14.00">left = [0x503000000430]</text>
<polyline fill="none" stroke="black" points="2025,-387.5 2025,-410.5 "/>
<text text-anchor="middle" x="2081" y="-395.3" font-family="Times,serif" font-size="14.00">right = [(nil)]</text>
</g>
<!-- node0x503000000490&#45;&gt;node0x503000000460 -->
<g id="edge17" class="edge">
<title>node0x503000000490&#45;&gt;node0x503000000460</title>
<path fill="none" stroke="black" d="M1748.89,-516.46C1779.85,-505.6 1813.05,-493.95 1844.42,-482.94"/>
<polygon fill="black" stroke="black" points="1845.82,-486.16 1854.1,-479.55 1843.5,-479.56 1845.82,-486.16"/>
</g>
<!-- node0x5030000002e0 -->
<g id="node19" class="node">
<title>node0x5030000002e0</title>
<path fill="#ff5050" stroke="black" d="M1220,-258.5C1220,-258.5 1495,-258.5 1495,-258.5 1501,-258.5 1507,-264.5 1507,-270.5 1507,-270.5 1507,-338.5 1507,-338.5 1507,-344.5 1501,-350.5 1495,-350.5 1495,-350.5 1220,-350.5 1220,-350.5 1214,-350.5 1208,-344.5 1208,-338.5 1208,-338.5 1208,-270.5 1208,-270.5 1208,-264.5 1214,-258.5 1220,-258.5"/>
<text text-anchor="middle" x="1357.5" y="-335.3" font-family="Times,serif" font-size="14.00">[0x5030000002e0]</text>
<polyline fill="none" stroke="black" points="1208,-327.5 1507,-327.5 "/>
<text text-anchor="middle" x="1357.5" y="-312.3" font-family="Times,serif" font-size="14.00">type = 3 (ID)</text>
<polyline fill="none" stroke="black" points="1208,-304.5 1507,-304.5 "/>
<text text-anchor="middle" x="1357.5" y="-289.3" font-family="Times,serif" font-size="14.00">number of name in name table = &#39;&#39; 19 &#39;&#39;</text>
<polyline fill="none" stroke="black" points="1208,-281.5 1507,-281.5 "/>
<text text-anchor="middle" x="1280" y="-266.3" font-family="Times,serif" font-size="14.00">left = [(nil)]</text>
<polyline fill="none" stroke="black" points="1352,-258.5 1352,-281.5 "/>
<text text-anchor="middle" x="1429.5" y="-266.3" font-family="Times,serif" font-size="14.00">right = [(nil)]</text>
</g>
<!-- node0x503000000340&#45;&gt;node0x5030000002e0 -->
<g id="edge18" class="edge">
<title>node0x503000000340&#45;&gt;node0x5030000002e0</title>
<path fill="none" stroke="black" d="M1518.66,-387.37C1498.24,-377 1476.41,-365.91 1455.63,-355.35"/>
<polygon fill="black" stroke="black" points="1456.98,-352.11 1446.48,-350.7 1453.81,-358.35 1456.98,-352.11"/>
</g>
<!-- node0x503000000310 -->
<g id="node20" class="node">
<title>node0x503000000310</title>
<path fill="#ffd700" stroke="black" d="M1537,-258.5C1537,-258.5 1726,-258.5 1726,-258.5 1732,-258.5 1738,-264.5 1738,-270.5 1738,-270.5 1738,-338.5 1738,-338.5 1738,-344.5 1732,-350.5 1726,-350.5 1726,-350.5 1537,-350.5 1537,-350.5 1531,-350.5 1525,-344.5 1525,-338.5 1525,-338.5 1525,-270.5 1525,-270.5 1525,-264.5 1531,-258.5 1537,-258.5"/>
<text text-anchor="middle" x="1631.5" y="-335.3" font-family="Times,serif" font-size="14.00">[0x503000000310]</text>
<polyline fill="none" stroke="black" points="1525,-327.5 1738,-327.5 "/>
<text text-anchor="middle" x="1631.5" y="-312.3" font-family="Times,serif" font-size="14.00">type = 1 (NUM)</text>
<polyline fill="none" stroke="black" points="1525,-304.5 1738,-304.5 "/>
<text text-anchor="middle" x="1631.5" y="-289.3" font-family="Times,serif" font-size="14.00">value = &#39;&#39; 14 &#39;&#39;</text>
<polyline fill="none" stroke="black" points="1525,-281.5 1738,-281.5 "/>
<text text-anchor="middle" x="1575.5" y="-266.3" font-family="Times,serif" font-size="14.00">left = [(nil)]</text>
<polyline fill="none" stroke="black" points="1626,-258.5 1626,-281.5 "/>
<text text-anchor="middle" x="1682" y="-266.3" font-family="Times,serif" font-size="14.00">right = [(nil)]</text>
</g>
<!-- node0x503000000340&#45;&gt;node0x503000000310 -->
<g id="edge19" class="edge">
<title>node0x503000000340&#45;&gt;node0x503000000310</title>
<path fill="none" stroke="black" d="M1616.03,-387.37C1617.65,-378.77 1619.37,-369.68 1621.05,-360.8"/>
<polygon fill="black" stroke="black" points="1624.5,-361.39 1622.92,-350.92 1617.62,-360.09 1624.5,-361.39"/>
</g>
<!-- node0x503000000430 -->
<g id="node21" class="node">
<title>node0x503000000430</title>
<path fill="#50b2aa" stroke="black" d="M1791.5,-258.5C1791.5,-258.5 2173.5,-258.5 2173.5,-258.5 2179.5,-258.5 2185.5,-264.5 2185.5,-270.5 2185.5,-270.5 2185.5,-338.5 2185.5,-338.5 2185.5,-344.5 2179.5,-350.5 2173.5,-350.5 2173.5,-350.5 1791.5,-350.5 1791.5,-350.5 1785.5,-350.5 1779.5,-344.5 1779.5,-338.5 1779.5,-338.5 1779.5,-270.5 1779.5,-270.5 1779.5,-264.5 1785.5,-258.5 1791.5,-258.5"/>
<text text-anchor="middle" x="1982.5" y="-335.3" font-family="Times,serif" font-size="14.00">[0x503000000430]</text>
<polyline fill="none" stroke="black" points="1779.5,-327.5 2185.5,-327.5 "/>
<text text-anchor="middle" x="1982.5" y="-312.3" font-family="Times,serif" font-size="14.00">type = 2 (OP)</text>
<polyline fill="none" stroke="black" points="1779.5,-304.5 2185.5,-304.5 "/>
<text text-anchor="middle" x="1982.5" y="-289.3" font-family="Times,serif" font-size="14.00">value = &#39;&#39; = &#39;&#39; (61)</text>
<polyline fill="none" stroke="black" points="1779.5,-281.5 2185.5,-281.5 "/>
<text text-anchor="middle" x="1878" y="-266.3" font-family="Times,serif" font-size="14.00">left = [0x503000000370]</text>
<polyline fill="none" stroke="black" points="1976.5,-258.5 1976.5,-281.5 "/>
<text text-anchor="middle" x="2081" y="-266.3" font-family="Times,serif" font-size="14.00">right = [0x503000000400]</text>
</g>
<!-- node0x503000000460&#45;&gt;node0x503000000430 -->
<g id="edge20" class="edge">
<title>node0x503000000460&#45;&gt;node0x503000000430</title>
<path fill="none" stroke="black" d="M1982.5,-387.37C1982.5,-378.86 1982.5,-369.87 1982.5,-361.09"/>
<polygon fill="black" stroke="black" points="1986,-360.92 1982.5,-350.92 1979,-360.92 1986,-360.92"/>
</g>
<!-- node0x503000000370 -->
<g id="node22" class="node">
<title>node0x503000000370</title>
<path fill="#ff5050" stroke="black" d="M1660,-129.5C1660,-129.5 1935,-129.5 1935,-129.5 1941,-129.5 1947,-135.5 1947,-141.5 1947,-141.5 1947,-209.5 1947,-209.5 1947,-215.5 1941,-221.5 1935,-221.5 1935,-221.5 1660,-221.5 1660,-221.5 1654,-221.5 1648,-215.5 1648,-209.5 1648,-209.5 1648,-141.5 1648,-141.5 1648,-135.5 1654,-129.5 1660,-129.5"/>
<text text-anchor="middle" x="1797.5" y="-206.3" font-family="Times,serif" font-size="14.00">[0x503000000370]</text>
<polyline fill="none" stroke="black" points="1648,-198.5 1947,-198.5 "/>
<text text-anchor="middle" x="1797.5" y="-183.3" font-family="Times,serif" font-size="14.00">type = 3 (ID)</text>
<polyline fill="none" stroke="black" points="1648,-175.5 1947,-175.5 "/>
<text text-anchor="middle" x="1797.5" y="-160.3" font-family="Times,serif" font-size="14.00">number of name in name table = &#39;&#39; 19 &#39;&#39;</text>
<polyline fill="none" stroke="black" points="1648,-152.5 1947,-152.5 "/>
<text text-anchor="middle" x="1720" y="-137.3" font-family="Times,serif" font-size="14.00">left = [(nil)]</text>
<polyline fill="none" stroke="black" points="1792,-129.5 1792,-152.5 "/>
<text text-anchor="middle" x="1869.5" y="-137.3" font-family="Times,serif" font-size="14.00">right = [(nil)]</text>
</g>
<!-- node0x503000000430&#45;&gt;node0x503000000370 -->
<g id="edge21" class="edge">
<title>node0x503000000430&#45;&gt;node0x503000000370</title>
<path fill="none" stroke="black" d="M1916.76,-258.37C1902.26,-248.41 1886.8,-237.8 1871.98,-227.63"/>
<polygon fill="black" stroke="black" points="1873.57,-224.48 1863.34,-221.7 1869.61,-230.25 1873.57,-224.48"/>
</g>
<!-- node0x503000000400 -->
<g id="node23" class="node">
<title>node0x503000000400</title>
<path fill="#50b2aa" stroke="black" d="M1977.5,-129.5C1977.5,-129.5 2359.5,-129.5 2359.5,-129.5 2365.5,-129.5 2371.5,-135.5 2371.5,-141.5 2371.5,-141.5 2371.5,-209.5 2371.5,-209.5 2371.5,-215.5 2365.5,-221.5 2359.5,-221.5 2359.5,-221.5 1977.5,-221.5 1977.5,-221.5 1971.5,-221.5 1965.5,-215.5 1965.5,-209.5 1965.5,-209.5 1965.5,-141.5 1965.5,-141.5 1965.5,-135.5 1971.5,-129.5 1977.5,-129.5"/>
<text text-anchor="middle" x="2168.5" y="-206.3" font-family="Times,serif" font-size="14.00">[0x503000000400]</text>
<polyline fill="none" stroke="black" points="1965.5,-198.5 2371.5,-198.5 "/>
<text text-anchor="middle" x="2168.5" y="-183.3" font-family="Times,serif" font-size="14.00">type = 2 (OP)</text>
<polyline fill="none" stroke="black" points="1965.5,-175.5 2371.5,-175.5 "/>
<text text-anchor="middle" x="2168.5" y="-160.3" font-family="Times,serif" font-size="14.00">value = &#39;&#39; SUB &#39;&#39; (45)</text>
<polyline fill="none" stroke="black" points="1965.5,-152.5 2371.5,-152.5 "/>
<text text-anchor="middle" x="2064" y="-137.3" font-family="Times,serif" font-size="14.00">left = [0x5030000003a0]</text>
<polyline fill="none" stroke="black" points="2162.5,-129.5 2162.5,-152.5 "/>
<text text-anchor="middle" x="2267" y="-137.3" font-family="Times,serif" font-size="14.00">right = [0x5030000003d0]</text>
</g>
<!-- node0x503000000430&#45;&gt;node0x503000000400 -->
<g id="edge22" class="edge">
<title>node0x503000000430&#45;&gt;node0x503000000400</title>
<path fill="none" stroke="black" d="M2048.6,-258.37C2063.31,-248.32 2079.01,-237.6 2094.03,-227.35"/>
<polygon fill="black" stroke="black" points="2096.01,-230.23 2102.3,-221.7 2092.07,-224.45 2096.01,-230.23"/>
</g>
<!-- node0x5030000003a0 -->
<g id="node24" class="node">
<title>node0x5030000003a0</title>
<path fill="#ff5050" stroke="black" d="M1894,-0.5C1894,-0.5 2169,-0.5 2169,-0.5 2175,-0.5 2181,-6.5 2181,-12.5 2181,-12.5 2181,-80.5 2181,-80.5 2181,-86.5 2175,-92.5 2169,-92.5 2169,-92.5 1894,-92.5 1894,-92.5 1888,-92.5 1882,-86.5 1882,-80.5 1882,-80.5 1882,-12.5 1882,-12.5 1882,-6.5 1888,-0.5 1894,-0.5"/>
<text text-anchor="middle" x="2031.5" y="-77.3" font-family="Times,serif" font-size="14.00">[0x5030000003a0]</text>
<polyline fill="none" stroke="black" points="1882,-69.5 2181,-69.5 "/>
<text text-anchor="middle" x="2031.5" y="-54.3" font-family="Times,serif" font-size="14.00">type = 3 (ID)</text>
<polyline fill="none" stroke="black" points="1882,-46.5 2181,-46.5 "/>
<text text-anchor="middle" x="2031.5" y="-31.3" font-family="Times,serif" font-size="14.00">number of name in name table = &#39;&#39; 19 &#39;&#39;</text>
<polyline fill="none" stroke="black" points="1882,-23.5 2181,-23.5 "/>
<text text-anchor="middle" x="1954" y="-8.3" font-family="Times,serif" font-size="14.00">left = [(nil)]</text>
<polyline fill="none" stroke="black" points="2026,-0.5 2026,-23.5 "/>
<text text-anchor="middle" x="2103.5" y="-8.3" font-family="Times,serif" font-size="14.00">right = [(nil)]</text>
</g>
<!-- node0x503000000400&#45;&gt;node0x5030000003a0 -->
<g id="edge23" class="edge">
<title>node0x503000000400&#45;&gt;node0x5030000003a0</title>
<path fill="none" stroke="black" d="M2119.81,-129.37C2109.54,-119.84 2098.62,-109.72 2088.08,-99.95"/>
<polygon fill="black" stroke="black" points="2090.2,-97.15 2080.49,-92.92 2085.45,-102.28 2090.2,-97.15"/>
</g>
<!-- node0x5030000003d0 -->
<g id="node25" class="node">
<title>node0x5030000003d0</title>
<path fill="#ffd700" stroke="black" d="M2211,-0.5C2211,-0.5 2400,-0.5 2400,-0.5 2406,-0.5 2412,-6.5 2412,-12.5 2412,-12.5 2412,-80.5 2412,-80.5 2412,-86.5 2406,-92.5 2400,-92.5 2400,-92.5 2211,-92.5 2211,-92.5 2205,-92.5 2199,-86.5 2199,-80.5 2199,-80.5 2199,-12.5 2199,-12.5 2199,-6.5 2205,-0.5 2211,-0.5"/>
<text text-anchor="middle" x="2305.5" y="-77.3" font-family="Times,serif" font-size="14.00">[0x5030000003d0]</text>
<polyline fill="none" stroke="black" points="2199,-69.5 2412,-69.5 "/>
<text text-anchor="middle" x="2305.5" y="-54.3" font-family="Times,serif" font-size="14.00">type = 1 (NUM)</text>
<polyline fill="none" stroke="black" points="2199,-46.5 2412,-46.5 "/>
<text text-anchor="middle" x="2305.5" y="-31.3" font-family="Times,serif" font-size="14.00">value = &#39;&#39; 2 &#39;&#39;</text>
<polyline fill="none" stroke="black" points="2199,-23.5 2412,-23.5 "/>
<text text-anchor="middle" x="2249.5" y="-8.3" font-family="Times,serif" font-size="14.00">left = [(nil)]</text>
<polyline fill="none" stroke="black" points="2300,-0.5 2300,-23.5 "/>
<text text-anchor="middle" x="2356" y="-8.3" font-family="Times,serif" font-size="14.00">right = [(nil)]</text>
</g>
<!-- node0x503000000400&#45;&gt;node0x5030000003d0 -->
<g id="edge24" class="edge">
<title>node0x503000000400&#45;&gt;node0x5030000003d0</title>
<path fill="none" stroke="black" d="M2217.19,-129.37C2227.46,-119.84 2238.38,-109.72 2248.92,-99.95"/>
<polygon fill="black" stroke="black" points="2251.55,-102.28 2256.51,-92.92 2246.8,-97.15 2251.55,-102.28"/>
</g>
</g>
</svg>
