<?xml version="1.0" encoding="UTF-8" standalone="no"?>
<!DOCTYPE svg PUBLIC "-//W3C//DTD SVG 1.1//EN"
 "http://www.w3.org/Graphics/SVG/1.1/DTD/svg11.dtd">
<!-- Generated by graphviz version 2.43.0 (0)
 -->
<!-- Title: %3 Pages: 1 -->
<svg width="1673pt" height="746pt"
 viewBox="0.00 0.00 1673.00 746.00" xmlns="http://www.w3.org/2000/svg" xmlns:xlink="http://www.w3.org/1999/xlink">
<g id="graph0" class="graph" transform="scale(1 1) rotate(0) translate(4 742)">
<title>%3</title>
<!-- node0x5030000000d0 -->
<g id="node1" class="node">
<title>node0x5030000000d0</title>
<path fill="#e0e0e0" stroke="black" d="M419.5,-645.5C419.5,-645.5 801.5,-645.5 801.5,-645.5 807.5,-645.5 813.5,-651.5 813.5,-657.5 813.5,-657.5 813.5,-725.5 813.5,-725.5 813.5,-731.5 807.5,-737.5 801.5,-737.5 801.5,-737.5 419.5,-737.5 419.5,-737.5 413.5,-737.5 407.5,-731.5 407.5,-725.5 407.5,-725.5 407.5,-657.5 407.5,-657.5 407.5,-651.5 413.5,-645.5 419.5,-645.5"/>
<text text-anchor="middle" x="610.5" y="-722.3" font-family="Times,serif" font-size="14.00">[0x5030000000d0]</text>
<polyline fill="none" stroke="black" points="407.5,-714.5 813.5,-714.5 "/>
<text text-anchor="middle" x="610.5" y="-699.3" font-family="Times,serif" font-size="14.00">type = 2 (OP)</text>
<polyline fill="none" stroke="black" points="407.5,-691.5 813.5,-691.5 "/>
<text text-anchor="middle" x="610.5" y="-676.3" font-family="Times,serif" font-size="14.00">value = &#39;&#39; SHUTUP &#39;&#39; (59)</text>
<polyline fill="none" stroke="black" points="407.5,-668.5 813.5,-668.5 "/>
<text text-anchor="middle" x="506" y="-653.3" font-family="Times,serif" font-size="14.00">left = [0x5030000000a0]</text>
<polyline fill="none" stroke="black" points="604.5,-645.5 604.5,-668.5 "/>
<text text-anchor="middle" x="709" y="-653.3" font-family="Times,serif" font-size="14.00">right = [0x503000000190]</text>
</g>
<!-- node0x5030000000a0 -->
<g id="node2" class="node">
<title>node0x5030000000a0</title>
<path fill="#50b2aa" stroke="black" d="M207.5,-516.5C207.5,-516.5 589.5,-516.5 589.5,-516.5 595.5,-516.5 601.5,-522.5 601.5,-528.5 601.5,-528.5 601.5,-596.5 601.5,-596.5 601.5,-602.5 595.5,-608.5 589.5,-608.5 589.5,-608.5 207.5,-608.5 207.5,-608.5 201.5,-608.5 195.5,-602.5 195.5,-596.5 195.5,-596.5 195.5,-528.5 195.5,-528.5 195.5,-522.5 201.5,-516.5 207.5,-516.5"/>
<text text-anchor="middle" x="398.5" y="-593.3" font-family="Times,serif" font-size="14.00">[0x5030000000a0]</text>
<polyline fill="none" stroke="black" points="195.5,-585.5 601.5,-585.5 "/>
<text text-anchor="middle" x="398.5" y="-570.3" font-family="Times,serif" font-size="14.00">type = 2 (OP)</text>
<polyline fill="none" stroke="black" points="195.5,-562.5 601.5,-562.5 "/>
<text text-anchor="middle" x="398.5" y="-547.3" font-family="Times,serif" font-size="14.00">value = &#39;&#39; = &#39;&#39; (61)</text>
<polyline fill="none" stroke="black" points="195.5,-539.5 601.5,-539.5 "/>
<text text-anchor="middle" x="294" y="-524.3" font-family="Times,serif" font-size="14.00">left = [0x503000000040]</text>
<polyline fill="none" stroke="black" points="392.5,-516.5 392.5,-539.5 "/>
<text text-anchor="middle" x="497" y="-524.3" font-family="Times,serif" font-size="14.00">right = [0x503000000070]</text>
</g>
<!-- node0x5030000000d0&#45;&gt;node0x5030000000a0 -->
<g id="edge1" class="edge">
<title>node0x5030000000d0&#45;&gt;node0x5030000000a0</title>
<path fill="none" stroke="black" d="M535.16,-645.37C518.23,-635.23 500.17,-624.41 482.9,-614.06"/>
<polygon fill="black" stroke="black" points="484.33,-610.84 473.95,-608.7 480.73,-616.84 484.33,-610.84"/>
</g>
<!-- node0x503000000190 -->
<g id="node3" class="node">
<title>node0x503000000190</title>
<path fill="#e0e0e0" stroke="black" d="M631.5,-516.5C631.5,-516.5 1013.5,-516.5 1013.5,-516.5 1019.5,-516.5 1025.5,-522.5 1025.5,-528.5 1025.5,-528.5 1025.5,-596.5 1025.5,-596.5 1025.5,-602.5 1019.5,-608.5 1013.5,-608.5 1013.5,-608.5 631.5,-608.5 631.5,-608.5 625.5,-608.5 619.5,-602.5 619.5,-596.5 619.5,-596.5 619.5,-528.5 619.5,-528.5 619.5,-522.5 625.5,-516.5 631.5,-516.5"/>
<text text-anchor="middle" x="822.5" y="-593.3" font-family="Times,serif" font-size="14.00">[0x503000000190]</text>
<polyline fill="none" stroke="black" points="619.5,-585.5 1025.5,-585.5 "/>
<text text-anchor="middle" x="822.5" y="-570.3" font-family="Times,serif" font-size="14.00">type = 2 (OP)</text>
<polyline fill="none" stroke="black" points="619.5,-562.5 1025.5,-562.5 "/>
<text text-anchor="middle" x="822.5" y="-547.3" font-family="Times,serif" font-size="14.00">value = &#39;&#39; SHUTUP &#39;&#39; (59)</text>
<polyline fill="none" stroke="black" points="619.5,-539.5 1025.5,-539.5 "/>
<text text-anchor="middle" x="718" y="-524.3" font-family="Times,serif" font-size="14.00">left = [0x503000000160]</text>
<polyline fill="none" stroke="black" points="816.5,-516.5 816.5,-539.5 "/>
<text text-anchor="middle" x="921" y="-524.3" font-family="Times,serif" font-size="14.00">right = [0x5030000002b0]</text>
</g>
<!-- node0x5030000000d0&#45;&gt;node0x503000000190 -->
<g id="edge2" class="edge">
<title>node0x5030000000d0&#45;&gt;node0x503000000190</title>
<path fill="none" stroke="black" d="M685.84,-645.37C702.77,-635.23 720.83,-624.41 738.1,-614.06"/>
<polygon fill="black" stroke="black" points="740.27,-616.84 747.05,-608.7 736.67,-610.84 740.27,-616.84"/>
</g>
<!-- node0x503000000040 -->
<g id="node4" class="node">
<title>node0x503000000040</title>
<path fill="#ff5050" stroke="black" d="M12,-387.5C12,-387.5 287,-387.5 287,-387.5 293,-387.5 299,-393.5 299,-399.5 299,-399.5 299,-467.5 299,-467.5 299,-473.5 293,-479.5 287,-479.5 287,-479.5 12,-479.5 12,-479.5 6,-479.5 0,-473.5 0,-467.5 0,-467.5 0,-399.5 0,-399.5 0,-393.5 6,-387.5 12,-387.5"/>
<text text-anchor="middle" x="149.5" y="-464.3" font-family="Times,serif" font-size="14.00">[0x503000000040]</text>
<polyline fill="none" stroke="black" points="0,-456.5 299,-456.5 "/>
<text text-anchor="middle" x="149.5" y="-441.3" font-family="Times,serif" font-size="14.00">type = 3 (ID)</text>
<polyline fill="none" stroke="black" points="0,-433.5 299,-433.5 "/>
<text text-anchor="middle" x="149.5" y="-418.3" font-family="Times,serif" font-size="14.00">number of name in name table = &#39;&#39; 19 &#39;&#39;</text>
<polyline fill="none" stroke="black" points="0,-410.5 299,-410.5 "/>
<text text-anchor="middle" x="72" y="-395.3" font-family="Times,serif" font-size="14.00">left = [(nil)]</text>
<polyline fill="none" stroke="black" points="144,-387.5 144,-410.5 "/>
<text text-anchor="middle" x="221.5" y="-395.3" font-family="Times,serif" font-size="14.00">right = [(nil)]</text>
</g>
<!-- node0x5030000000a0&#45;&gt;node0x503000000040 -->
<g id="edge3" class="edge">
<title>node0x5030000000a0&#45;&gt;node0x503000000040</title>
<path fill="none" stroke="black" d="M310.01,-516.37C289.68,-506 267.94,-494.91 247.24,-484.35"/>
<polygon fill="black" stroke="black" points="248.62,-481.13 238.12,-479.7 245.44,-487.36 248.62,-481.13"/>
</g>
<!-- node0x503000000070 -->
<g id="node5" class="node">
<title>node0x503000000070</title>
<path fill="#ffd700" stroke="black" d="M329,-387.5C329,-387.5 518,-387.5 518,-387.5 524,-387.5 530,-393.5 530,-399.5 530,-399.5 530,-467.5 530,-467.5 530,-473.5 524,-479.5 518,-479.5 518,-479.5 329,-479.5 329,-479.5 323,-479.5 317,-473.5 317,-467.5 317,-467.5 317,-399.5 317,-399.5 317,-393.5 323,-387.5 329,-387.5"/>
<text text-anchor="middle" x="423.5" y="-464.3" font-family="Times,serif" font-size="14.00">[0x503000000070]</text>
<polyline fill="none" stroke="black" points="317,-456.5 530,-456.5 "/>
<text text-anchor="middle" x="423.5" y="-441.3" font-family="Times,serif" font-size="14.00">type = 1 (NUM)</text>
<polyline fill="none" stroke="black" points="317,-433.5 530,-433.5 "/>
<text text-anchor="middle" x="423.5" y="-418.3" font-family="Times,serif" font-size="14.00">value = &#39;&#39; 20 &#39;&#39;</text>
<polyline fill="none" stroke="black" points="317,-410.5 530,-410.5 "/>
<text text-anchor="middle" x="367.5" y="-395.3" font-family="Times,serif" font-size="14.00">left = [(nil)]</text>
<polyline fill="none" stroke="black" points="418,-387.5 418,-410.5 "/>
<text text-anchor="middle" x="474" y="-395.3" font-family="Times,serif" font-size="14.00">right = [(nil)]</text>
</g>
<!-- node0x5030000000a0&#45;&gt;node0x503000000070 -->
<g id="edge4" class="edge">
<title>node0x5030000000a0&#45;&gt;node0x503000000070</title>
<path fill="none" stroke="black" d="M407.38,-516.37C409.08,-507.77 410.87,-498.68 412.61,-489.8"/>
<polygon fill="black" stroke="black" points="416.06,-490.4 414.56,-479.92 409.19,-489.05 416.06,-490.4"/>
</g>
<!-- node0x503000000160 -->
<g id="node6" class="node">
<title>node0x503000000160</title>
<path fill="#50b2aa" stroke="black" d="M607.5,-387.5C607.5,-387.5 989.5,-387.5 989.5,-387.5 995.5,-387.5 1001.5,-393.5 1001.5,-399.5 1001.5,-399.5 1001.5,-467.5 1001.5,-467.5 1001.5,-473.5 995.5,-479.5 989.5,-479.5 989.5,-479.5 607.5,-479.5 607.5,-479.5 601.5,-479.5 595.5,-473.5 595.5,-467.5 595.5,-467.5 595.5,-399.5 595.5,-399.5 595.5,-393.5 601.5,-387.5 607.5,-387.5"/>
<text text-anchor="middle" x="798.5" y="-464.3" font-family="Times,serif" font-size="14.00">[0x503000000160]</text>
<polyline fill="none" stroke="black" points="595.5,-456.5 1001.5,-456.5 "/>
<text text-anchor="middle" x="798.5" y="-441.3" font-family="Times,serif" font-size="14.00">type = 2 (OP)</text>
<polyline fill="none" stroke="black" points="595.5,-433.5 1001.5,-433.5 "/>
<text text-anchor="middle" x="798.5" y="-418.3" font-family="Times,serif" font-size="14.00">value = &#39;&#39; = &#39;&#39; (61)</text>
<polyline fill="none" stroke="black" points="595.5,-410.5 1001.5,-410.5 "/>
<text text-anchor="middle" x="694" y="-395.3" font-family="Times,serif" font-size="14.00">left = [0x503000000100]</text>
<polyline fill="none" stroke="black" points="792.5,-387.5 792.5,-410.5 "/>
<text text-anchor="middle" x="897" y="-395.3" font-family="Times,serif" font-size="14.00">right = [0x503000000130]</text>
</g>
<!-- node0x503000000190&#45;&gt;node0x503000000160 -->
<g id="edge5" class="edge">
<title>node0x503000000190&#45;&gt;node0x503000000160</title>
<path fill="none" stroke="black" d="M813.97,-516.37C812.35,-507.77 810.63,-498.68 808.95,-489.8"/>
<polygon fill="black" stroke="black" points="812.38,-489.09 807.08,-479.92 805.5,-490.39 812.38,-489.09"/>
</g>
<!-- node0x5030000002b0 -->
<g id="node7" class="node">
<title>node0x5030000002b0</title>
<path fill="#e0e0e0" stroke="black" d="M1031,-387.5C1031,-387.5 1316,-387.5 1316,-387.5 1322,-387.5 1328,-393.5 1328,-399.5 1328,-399.5 1328,-467.5 1328,-467.5 1328,-473.5 1322,-479.5 1316,-479.5 1316,-479.5 1031,-479.5 1031,-479.5 1025,-479.5 1019,-473.5 1019,-467.5 1019,-467.5 1019,-399.5 1019,-399.5 1019,-393.5 1025,-387.5 1031,-387.5"/>
<text text-anchor="middle" x="1173.5" y="-464.3" font-family="Times,serif" font-size="14.00">[0x5030000002b0]</text>
<polyline fill="none" stroke="black" points="1019,-456.5 1328,-456.5 "/>
<text text-anchor="middle" x="1173.5" y="-441.3" font-family="Times,serif" font-size="14.00">type = 2 (OP)</text>
<polyline fill="none" stroke="black" points="1019,-433.5 1328,-433.5 "/>
<text text-anchor="middle" x="1173.5" y="-418.3" font-family="Times,serif" font-size="14.00">value = &#39;&#39; SHUTUP &#39;&#39; (59)</text>
<polyline fill="none" stroke="black" points="1019,-410.5 1328,-410.5 "/>
<text text-anchor="middle" x="1117.5" y="-395.3" font-family="Times,serif" font-size="14.00">left = [0x503000000280]</text>
<polyline fill="none" stroke="black" points="1216,-387.5 1216,-410.5 "/>
<text text-anchor="middle" x="1272" y="-395.3" font-family="Times,serif" font-size="14.00">right = [(nil)]</text>
</g>
<!-- node0x503000000190&#45;&gt;node0x5030000002b0 -->
<g id="edge6" class="edge">
<title>node0x503000000190&#45;&gt;node0x5030000002b0</title>
<path fill="none" stroke="black" d="M947.24,-516.37C977.02,-505.59 1008.94,-494.04 1039.13,-483.12"/>
<polygon fill="black" stroke="black" points="1040.66,-486.29 1048.87,-479.59 1038.27,-479.71 1040.66,-486.29"/>
</g>
<!-- node0x503000000100 -->
<g id="node8" class="node">
<title>node0x503000000100</title>
<path fill="#ff5050" stroke="black" d="M411,-258.5C411,-258.5 686,-258.5 686,-258.5 692,-258.5 698,-264.5 698,-270.5 698,-270.5 698,-338.5 698,-338.5 698,-344.5 692,-350.5 686,-350.5 686,-350.5 411,-350.5 411,-350.5 405,-350.5 399,-344.5 399,-338.5 399,-338.5 399,-270.5 399,-270.5 399,-264.5 405,-258.5 411,-258.5"/>
<text text-anchor="middle" x="548.5" y="-335.3" font-family="Times,serif" font-size="14.00">[0x503000000100]</text>
<polyline fill="none" stroke="black" points="399,-327.5 698,-327.5 "/>
<text text-anchor="middle" x="548.5" y="-312.3" font-family="Times,serif" font-size="14.00">type = 3 (ID)</text>
<polyline fill="none" stroke="black" points="399,-304.5 698,-304.5 "/>
<text text-anchor="middle" x="548.5" y="-289.3" font-family="Times,serif" font-size="14.00">number of name in name table = &#39;&#39; 20 &#39;&#39;</text>
<polyline fill="none" stroke="black" points="399,-281.5 698,-281.5 "/>
<text text-anchor="middle" x="471" y="-266.3" font-family="Times,serif" font-size="14.00">left = [(nil)]</text>
<polyline fill="none" stroke="black" points="543,-258.5 543,-281.5 "/>
<text text-anchor="middle" x="620.5" y="-266.3" font-family="Times,serif" font-size="14.00">right = [(nil)]</text>
</g>
<!-- node0x503000000160&#45;&gt;node0x503000000100 -->
<g id="edge7" class="edge">
<title>node0x503000000160&#45;&gt;node0x503000000100</title>
<path fill="none" stroke="black" d="M709.66,-387.37C689.24,-377 667.41,-365.91 646.63,-355.35"/>
<polygon fill="black" stroke="black" points="647.98,-352.11 637.48,-350.7 644.81,-358.35 647.98,-352.11"/>
</g>
<!-- node0x503000000130 -->
<g id="node9" class="node">
<title>node0x503000000130</title>
<path fill="#ffd700" stroke="black" d="M728,-258.5C728,-258.5 917,-258.5 917,-258.5 923,-258.5 929,-264.5 929,-270.5 929,-270.5 929,-338.5 929,-338.5 929,-344.5 923,-350.5 917,-350.5 917,-350.5 728,-350.5 728,-350.5 722,-350.5 716,-344.5 716,-338.5 716,-338.5 716,-270.5 716,-270.5 716,-264.5 722,-258.5 728,-258.5"/>
<text text-anchor="middle" x="822.5" y="-335.3" font-family="Times,serif" font-size="14.00">[0x503000000130]</text>
<polyline fill="none" stroke="black" points="716,-327.5 929,-327.5 "/>
<text text-anchor="middle" x="822.5" y="-312.3" font-family="Times,serif" font-size="14.00">type = 1 (NUM)</text>
<polyline fill="none" stroke="black" points="716,-304.5 929,-304.5 "/>
<text text-anchor="middle" x="822.5" y="-289.3" font-family="Times,serif" font-size="14.00">value = &#39;&#39; 10 &#39;&#39;</text>
<polyline fill="none" stroke="black" points="716,-281.5 929,-281.5 "/>
<text text-anchor="middle" x="766.5" y="-266.3" font-family="Times,serif" font-size="14.00">left = [(nil)]</text>
<polyline fill="none" stroke="black" points="817,-258.5 817,-281.5 "/>
<text text-anchor="middle" x="873" y="-266.3" font-family="Times,serif" font-size="14.00">right = [(nil)]</text>
</g>
<!-- node0x503000000160&#45;&gt;node0x503000000130 -->
<g id="edge8" class="edge">
<title>node0x503000000160&#45;&gt;node0x503000000130</title>
<path fill="none" stroke="black" d="M807.03,-387.37C808.65,-378.77 810.37,-369.68 812.05,-360.8"/>
<polygon fill="black" stroke="black" points="815.5,-361.39 813.92,-350.92 808.62,-360.09 815.5,-361.39"/>
</g>
<!-- node0x503000000280 -->
<g id="node10" class="node">
<title>node0x503000000280</title>
<path fill="#50b2aa" stroke="black" d="M983,-258.5C983,-258.5 1364,-258.5 1364,-258.5 1370,-258.5 1376,-264.5 1376,-270.5 1376,-270.5 1376,-338.5 1376,-338.5 1376,-344.5 1370,-350.5 1364,-350.5 1364,-350.5 983,-350.5 983,-350.5 977,-350.5 971,-344.5 971,-338.5 971,-338.5 971,-270.5 971,-270.5 971,-264.5 977,-258.5 983,-258.5"/>
<text text-anchor="middle" x="1173.5" y="-335.3" font-family="Times,serif" font-size="14.00">[0x503000000280]</text>
<polyline fill="none" stroke="black" points="971,-327.5 1376,-327.5 "/>
<text text-anchor="middle" x="1173.5" y="-312.3" font-family="Times,serif" font-size="14.00">type = 2 (OP)</text>
<polyline fill="none" stroke="black" points="971,-304.5 1376,-304.5 "/>
<text text-anchor="middle" x="1173.5" y="-289.3" font-family="Times,serif" font-size="14.00">value = &#39;&#39; = &#39;&#39; (61)</text>
<polyline fill="none" stroke="black" points="971,-281.5 1376,-281.5 "/>
<text text-anchor="middle" x="1069" y="-266.3" font-family="Times,serif" font-size="14.00">left = [0x5030000001c0]</text>
<polyline fill="none" stroke="black" points="1167,-258.5 1167,-281.5 "/>
<text text-anchor="middle" x="1271.5" y="-266.3" font-family="Times,serif" font-size="14.00">right = [0x503000000250]</text>
</g>
<!-- node0x5030000002b0&#45;&gt;node0x503000000280 -->
<g id="edge9" class="edge">
<title>node0x5030000002b0&#45;&gt;node0x503000000280</title>
<path fill="none" stroke="black" d="M1173.5,-387.37C1173.5,-378.86 1173.5,-369.87 1173.5,-361.09"/>
<polygon fill="black" stroke="black" points="1177,-360.92 1173.5,-350.92 1170,-360.92 1177,-360.92"/>
</g>
<!-- node0x5030000001c0 -->
<g id="node11" class="node">
<title>node0x5030000001c0</title>
<path fill="#ff5050" stroke="black" d="M851,-129.5C851,-129.5 1126,-129.5 1126,-129.5 1132,-129.5 1138,-135.5 1138,-141.5 1138,-141.5 1138,-209.5 1138,-209.5 1138,-215.5 1132,-221.5 1126,-221.5 1126,-221.5 851,-221.5 851,-221.5 845,-221.5 839,-215.5 839,-209.5 839,-209.5 839,-141.5 839,-141.5 839,-135.5 845,-129.5 851,-129.5"/>
<text text-anchor="middle" x="988.5" y="-206.3" font-family="Times,serif" font-size="14.00">[0x5030000001c0]</text>
<polyline fill="none" stroke="black" points="839,-198.5 1138,-198.5 "/>
<text text-anchor="middle" x="988.5" y="-183.3" font-family="Times,serif" font-size="14.00">type = 3 (ID)</text>
<polyline fill="none" stroke="black" points="839,-175.5 1138,-175.5 "/>
<text text-anchor="middle" x="988.5" y="-160.3" font-family="Times,serif" font-size="14.00">number of name in name table = &#39;&#39; 20 &#39;&#39;</text>
<polyline fill="none" stroke="black" points="839,-152.5 1138,-152.5 "/>
<text text-anchor="middle" x="911" y="-137.3" font-family="Times,serif" font-size="14.00">left = [(nil)]</text>
<polyline fill="none" stroke="black" points="983,-129.5 983,-152.5 "/>
<text text-anchor="middle" x="1060.5" y="-137.3" font-family="Times,serif" font-size="14.00">right = [(nil)]</text>
</g>
<!-- node0x503000000280&#45;&gt;node0x5030000001c0 -->
<g id="edge10" class="edge">
<title>node0x503000000280&#45;&gt;node0x5030000001c0</title>
<path fill="none" stroke="black" d="M1107.76,-258.37C1093.26,-248.41 1077.8,-237.8 1062.98,-227.63"/>
<polygon fill="black" stroke="black" points="1064.57,-224.48 1054.34,-221.7 1060.61,-230.25 1064.57,-224.48"/>
</g>
<!-- node0x503000000250 -->
<g id="node12" class="node">
<title>node0x503000000250</title>
<path fill="#50b2aa" stroke="black" d="M1168,-129.5C1168,-129.5 1547,-129.5 1547,-129.5 1553,-129.5 1559,-135.5 1559,-141.5 1559,-141.5 1559,-209.5 1559,-209.5 1559,-215.5 1553,-221.5 1547,-221.5 1547,-221.5 1168,-221.5 1168,-221.5 1162,-221.5 1156,-215.5 1156,-209.5 1156,-209.5 1156,-141.5 1156,-141.5 1156,-135.5 1162,-129.5 1168,-129.5"/>
<text text-anchor="middle" x="1357.5" y="-206.3" font-family="Times,serif" font-size="14.00">[0x503000000250]</text>
<polyline fill="none" stroke="black" points="1156,-198.5 1559,-198.5 "/>
<text text-anchor="middle" x="1357.5" y="-183.3" font-family="Times,serif" font-size="14.00">type = 2 (OP)</text>
<polyline fill="none" stroke="black" points="1156,-175.5 1559,-175.5 "/>
<text text-anchor="middle" x="1357.5" y="-160.3" font-family="Times,serif" font-size="14.00">value = &#39;&#39; SUB &#39;&#39; (45)</text>
<polyline fill="none" stroke="black" points="1156,-152.5 1559,-152.5 "/>
<text text-anchor="middle" x="1253" y="-137.3" font-family="Times,serif" font-size="14.00">left = [0x5030000001f0]</text>
<polyline fill="none" stroke="black" points="1350,-129.5 1350,-152.5 "/>
<text text-anchor="middle" x="1454.5" y="-137.3" font-family="Times,serif" font-size="14.00">right = [0x503000000220]</text>
</g>
<!-- node0x503000000280&#45;&gt;node0x503000000250 -->
<g id="edge11" class="edge">
<title>node0x503000000280&#45;&gt;node0x503000000250</title>
<path fill="none" stroke="black" d="M1238.89,-258.37C1253.31,-248.41 1268.68,-237.8 1283.42,-227.63"/>
<polygon fill="black" stroke="black" points="1285.77,-230.26 1292.01,-221.7 1281.79,-224.5 1285.77,-230.26"/>
</g>
<!-- node0x5030000001f0 -->
<g id="node13" class="node">
<title>node0x5030000001f0</title>
<path fill="#ff5050" stroke="black" d="M1061,-0.5C1061,-0.5 1336,-0.5 1336,-0.5 1342,-0.5 1348,-6.5 1348,-12.5 1348,-12.5 1348,-80.5 1348,-80.5 1348,-86.5 1342,-92.5 1336,-92.5 1336,-92.5 1061,-92.5 1061,-92.5 1055,-92.5 1049,-86.5 1049,-80.5 1049,-80.5 1049,-12.5 1049,-12.5 1049,-6.5 1055,-0.5 1061,-0.5"/>
<text text-anchor="middle" x="1198.5" y="-77.3" font-family="Times,serif" font-size="14.00">[0x5030000001f0]</text>
<polyline fill="none" stroke="black" points="1049,-69.5 1348,-69.5 "/>
<text text-anchor="middle" x="1198.5" y="-54.3" font-family="Times,serif" font-size="14.00">type = 3 (ID)</text>
<polyline fill="none" stroke="black" points="1049,-46.5 1348,-46.5 "/>
<text text-anchor="middle" x="1198.5" y="-31.3" font-family="Times,serif" font-size="14.00">number of name in name table = &#39;&#39; 20 &#39;&#39;</text>
<polyline fill="none" stroke="black" points="1049,-23.5 1348,-23.5 "/>
<text text-anchor="middle" x="1121" y="-8.3" font-family="Times,serif" font-size="14.00">left = [(nil)]</text>
<polyline fill="none" stroke="black" points="1193,-0.5 1193,-23.5 "/>
<text text-anchor="middle" x="1270.5" y="-8.3" font-family="Times,serif" font-size="14.00">right = [(nil)]</text>
</g>
<!-- node0x503000000250&#45;&gt;node0x5030000001f0 -->
<g id="edge12" class="edge">
<title>node0x503000000250&#45;&gt;node0x5030000001f0</title>
<path fill="none" stroke="black" d="M1300.99,-129.37C1288.77,-119.6 1275.74,-109.2 1263.23,-99.2"/>
<polygon fill="black" stroke="black" points="1265.09,-96.21 1255.09,-92.7 1260.72,-101.68 1265.09,-96.21"/>
</g>
<!-- node0x503000000220 -->
<g id="node14" class="node">
<title>node0x503000000220</title>
<path fill="#ff5050" stroke="black" d="M1378,-0.5C1378,-0.5 1653,-0.5 1653,-0.5 1659,-0.5 1665,-6.5 1665,-12.5 1665,-12.5 1665,-80.5 1665,-80.5 1665,-86.5 1659,-92.5 1653,-92.5 1653,-92.5 1378,-92.5 1378,-92.5 1372,-92.5 1366,-86.5 1366,-80.5 1366,-80.5 1366,-12.5 1366,-12.5 1366,-6.5 1372,-0.5 1378,-0.5"/>
<text text-anchor="middle" x="1515.5" y="-77.3" font-family="Times,serif" font-size="14.00">[0x503000000220]</text>
<polyline fill="none" stroke="black" points="1366,-69.5 1665,-69.5 "/>
<text text-anchor="middle" x="1515.5" y="-54.3" font-family="Times,serif" font-size="14.00">type = 3 (ID)</text>
<polyline fill="none" stroke="black" points="1366,-46.5 1665,-46.5 "/>
<text text-anchor="middle" x="1515.5" y="-31.3" font-family="Times,serif" font-size="14.00">number of name in name table = &#39;&#39; 19 &#39;&#39;</text>
<polyline fill="none" stroke="black" points="1366,-23.5 1665,-23.5 "/>
<text text-anchor="middle" x="1438" y="-8.3" font-family="Times,serif" font-size="14.00">left = [(nil)]</text>
<polyline fill="none" stroke="black" points="1510,-0.5 1510,-23.5 "/>
<text text-anchor="middle" x="1587.5" y="-8.3" font-family="Times,serif" font-size="14.00">right = [(nil)]</text>
</g>
<!-- node0x503000000250&#45;&gt;node0x503000000220 -->
<g id="edge13" class="edge">
<title>node0x503000000250&#45;&gt;node0x503000000220</title>
<path fill="none" stroke="black" d="M1413.65,-129.37C1425.8,-119.6 1438.74,-109.2 1451.18,-99.2"/>
<polygon fill="black" stroke="black" points="1453.66,-101.69 1459.27,-92.7 1449.28,-96.24 1453.66,-101.69"/>
</g>
</g>
</svg>
