<?xml version="1.0" encoding="UTF-8" standalone="no"?>
<!DOCTYPE svg PUBLIC "-//W3C//DTD SVG 1.1//EN"
 "http://www.w3.org/Graphics/SVG/1.1/DTD/svg11.dtd">
<!-- Generated by graphviz version 2.43.0 (0)
 -->
<!-- Title: %3 Pages: 1 -->
<svg width="661pt" height="470pt"
 viewBox="0.00 0.00 661.00 470.00" xmlns="http://www.w3.org/2000/svg" xmlns:xlink="http://www.w3.org/1999/xlink">
<g id="graph0" class="graph" transform="scale(1 1) rotate(0) translate(4 466)">
<title>%3</title>
<!-- node0x5030000004f0 -->
<g id="node1" class="node">
<title>node0x5030000004f0</title>
<path fill="#00ffdd" stroke="black" d="M191,-415.5C191,-415.5 340,-415.5 340,-415.5 346,-415.5 352,-421.5 352,-427.5 352,-427.5 352,-449.5 352,-449.5 352,-455.5 346,-461.5 340,-461.5 340,-461.5 191,-461.5 191,-461.5 185,-461.5 179,-455.5 179,-449.5 179,-449.5 179,-427.5 179,-427.5 179,-421.5 185,-415.5 191,-415.5"/>
<text text-anchor="middle" x="265.5" y="-446.3" font-family="Times,serif" font-size="14.00">type = 2 (OP)</text>
<polyline fill="none" stroke="black" points="179,-438.5 352,-438.5 "/>
<text text-anchor="middle" x="265.5" y="-423.3" font-family="Times,serif" font-size="14.00">value = &#39;&#39; PLUS &#39;&#39; (43)</text>
</g>
<!-- node0x503000000490 -->
<g id="node2" class="node">
<title>node0x503000000490</title>
<path fill="#f069f5" stroke="black" d="M108,-332.5C108,-332.5 255,-332.5 255,-332.5 261,-332.5 267,-338.5 267,-344.5 267,-344.5 267,-366.5 267,-366.5 267,-372.5 261,-378.5 255,-378.5 255,-378.5 108,-378.5 108,-378.5 102,-378.5 96,-372.5 96,-366.5 96,-366.5 96,-344.5 96,-344.5 96,-338.5 102,-332.5 108,-332.5"/>
<text text-anchor="middle" x="181.5" y="-363.3" font-family="Times,serif" font-size="14.00">type = 4 (FUNC)</text>
<polyline fill="none" stroke="black" points="96,-355.5 267,-355.5 "/>
<text text-anchor="middle" x="181.5" y="-340.3" font-family="Times,serif" font-size="14.00">value = &#39;&#39; CALL &#39;&#39; (67)</text>
</g>
<!-- node0x5030000004f0&#45;&gt;node0x503000000490 -->
<g id="edge1" class="edge">
<title>node0x5030000004f0&#45;&gt;node0x503000000490</title>
<path fill="none" stroke="black" d="M242.55,-415.37C233.01,-406.17 221.81,-395.37 211.62,-385.55"/>
<polygon fill="black" stroke="black" points="214.05,-383.03 204.43,-378.61 209.19,-388.07 214.05,-383.03"/>
</g>
<!-- node0x5030000004c0 -->
<g id="node3" class="node">
<title>node0x5030000004c0</title>
<path fill="#ffd700" stroke="black" d="M297,-332.5C297,-332.5 404,-332.5 404,-332.5 410,-332.5 416,-338.5 416,-344.5 416,-344.5 416,-366.5 416,-366.5 416,-372.5 410,-378.5 404,-378.5 404,-378.5 297,-378.5 297,-378.5 291,-378.5 285,-372.5 285,-366.5 285,-366.5 285,-344.5 285,-344.5 285,-338.5 291,-332.5 297,-332.5"/>
<text text-anchor="middle" x="350.5" y="-363.3" font-family="Times,serif" font-size="14.00">type = 1 (NUM)</text>
<polyline fill="none" stroke="black" points="285,-355.5 416,-355.5 "/>
<text text-anchor="middle" x="350.5" y="-340.3" font-family="Times,serif" font-size="14.00">value = &#39;&#39; 5 &#39;&#39;</text>
</g>
<!-- node0x5030000004f0&#45;&gt;node0x5030000004c0 -->
<g id="edge2" class="edge">
<title>node0x5030000004f0&#45;&gt;node0x5030000004c0</title>
<path fill="none" stroke="black" d="M288.73,-415.37C298.38,-406.17 309.71,-395.37 320.02,-385.55"/>
<polygon fill="black" stroke="black" points="322.48,-388.04 327.3,-378.61 317.65,-382.97 322.48,-388.04"/>
</g>
<!-- node0x503000000340 -->
<g id="node4" class="node">
<title>node0x503000000340</title>
<path fill="#2ee31e" stroke="black" d="M22.5,-249.5C22.5,-249.5 168.5,-249.5 168.5,-249.5 174.5,-249.5 180.5,-255.5 180.5,-261.5 180.5,-261.5 180.5,-283.5 180.5,-283.5 180.5,-289.5 174.5,-295.5 168.5,-295.5 168.5,-295.5 22.5,-295.5 22.5,-295.5 16.5,-295.5 10.5,-289.5 10.5,-283.5 10.5,-283.5 10.5,-261.5 10.5,-261.5 10.5,-255.5 16.5,-249.5 22.5,-249.5"/>
<text text-anchor="middle" x="95.5" y="-280.3" font-family="Times,serif" font-size="14.00">type = 4 (FUNC)</text>
<polyline fill="none" stroke="black" points="10.5,-272.5 180.5,-272.5 "/>
<text text-anchor="middle" x="95.5" y="-257.3" font-family="Times,serif" font-size="14.00">value = &#39;&#39; Jump &#39;&#39; (25)</text>
</g>
<!-- node0x503000000490&#45;&gt;node0x503000000340 -->
<g id="edge3" class="edge">
<title>node0x503000000490&#45;&gt;node0x503000000340</title>
<path fill="none" stroke="black" d="M158,-332.37C148.24,-323.17 136.77,-312.37 126.34,-302.55"/>
<polygon fill="black" stroke="black" points="128.65,-299.92 118.97,-295.61 123.85,-305.01 128.65,-299.92"/>
</g>
<!-- node0x5030000003a0 -->
<g id="node5" class="node">
<title>node0x5030000003a0</title>
<path fill="#feaadf" stroke="black" d="M211,-249.5C211,-249.5 324,-249.5 324,-249.5 330,-249.5 336,-255.5 336,-261.5 336,-261.5 336,-283.5 336,-283.5 336,-289.5 330,-295.5 324,-295.5 324,-295.5 211,-295.5 211,-295.5 205,-295.5 199,-289.5 199,-283.5 199,-283.5 199,-261.5 199,-261.5 199,-255.5 205,-249.5 211,-249.5"/>
<text text-anchor="middle" x="267.5" y="-280.3" font-family="Times,serif" font-size="14.00">type = 4 (FUNC)</text>
<polyline fill="none" stroke="black" points="199,-272.5 336,-272.5 "/>
<text text-anchor="middle" x="267.5" y="-257.3" font-family="Times,serif" font-size="14.00">value = &#39;&#39; , &#39;&#39; (44)</text>
</g>
<!-- node0x503000000490&#45;&gt;node0x5030000003a0 -->
<g id="edge4" class="edge">
<title>node0x503000000490&#45;&gt;node0x5030000003a0</title>
<path fill="none" stroke="black" d="M205,-332.37C214.76,-323.17 226.23,-312.37 236.66,-302.55"/>
<polygon fill="black" stroke="black" points="239.15,-305.01 244.03,-295.61 234.35,-299.92 239.15,-305.01"/>
</g>
<!-- node0x503000000370 -->
<g id="node6" class="node">
<title>node0x503000000370</title>
<path fill="#ff5050" stroke="black" d="M12,-166.5C12,-166.5 287,-166.5 287,-166.5 293,-166.5 299,-172.5 299,-178.5 299,-178.5 299,-200.5 299,-200.5 299,-206.5 293,-212.5 287,-212.5 287,-212.5 12,-212.5 12,-212.5 6,-212.5 0,-206.5 0,-200.5 0,-200.5 0,-178.5 0,-178.5 0,-172.5 6,-166.5 12,-166.5"/>
<text text-anchor="middle" x="149.5" y="-197.3" font-family="Times,serif" font-size="14.00">type = 3 (ID)</text>
<polyline fill="none" stroke="black" points="0,-189.5 299,-189.5 "/>
<text text-anchor="middle" x="149.5" y="-174.3" font-family="Times,serif" font-size="14.00">number of name in name table = &#39;&#39; 23 &#39;&#39;</text>
</g>
<!-- node0x5030000003a0&#45;&gt;node0x503000000370 -->
<g id="edge5" class="edge">
<title>node0x5030000003a0&#45;&gt;node0x503000000370</title>
<path fill="none" stroke="black" d="M235.26,-249.37C221.34,-239.81 204.9,-228.53 190.16,-218.41"/>
<polygon fill="black" stroke="black" points="191.93,-215.38 181.71,-212.61 187.97,-221.15 191.93,-215.38"/>
</g>
<!-- node0x503000000400 -->
<g id="node7" class="node">
<title>node0x503000000400</title>
<path fill="#feaadf" stroke="black" d="M329,-166.5C329,-166.5 442,-166.5 442,-166.5 448,-166.5 454,-172.5 454,-178.5 454,-178.5 454,-200.5 454,-200.5 454,-206.5 448,-212.5 442,-212.5 442,-212.5 329,-212.5 329,-212.5 323,-212.5 317,-206.5 317,-200.5 317,-200.5 317,-178.5 317,-178.5 317,-172.5 323,-166.5 329,-166.5"/>
<text text-anchor="middle" x="385.5" y="-197.3" font-family="Times,serif" font-size="14.00">type = 4 (FUNC)</text>
<polyline fill="none" stroke="black" points="317,-189.5 454,-189.5 "/>
<text text-anchor="middle" x="385.5" y="-174.3" font-family="Times,serif" font-size="14.00">value = &#39;&#39; , &#39;&#39; (44)</text>
</g>
<!-- node0x5030000003a0&#45;&gt;node0x503000000400 -->
<g id="edge6" class="edge">
<title>node0x5030000003a0&#45;&gt;node0x503000000400</title>
<path fill="none" stroke="black" d="M299.74,-249.37C313.66,-239.81 330.1,-228.53 344.84,-218.41"/>
<polygon fill="black" stroke="black" points="347.03,-221.15 353.29,-212.61 343.07,-215.38 347.03,-221.15"/>
</g>
<!-- node0x5030000003d0 -->
<g id="node8" class="node">
<title>node0x5030000003d0</title>
<path fill="#ff5050" stroke="black" d="M130,-83.5C130,-83.5 405,-83.5 405,-83.5 411,-83.5 417,-89.5 417,-95.5 417,-95.5 417,-117.5 417,-117.5 417,-123.5 411,-129.5 405,-129.5 405,-129.5 130,-129.5 130,-129.5 124,-129.5 118,-123.5 118,-117.5 118,-117.5 118,-95.5 118,-95.5 118,-89.5 124,-83.5 130,-83.5"/>
<text text-anchor="middle" x="267.5" y="-114.3" font-family="Times,serif" font-size="14.00">type = 3 (ID)</text>
<polyline fill="none" stroke="black" points="118,-106.5 417,-106.5 "/>
<text text-anchor="middle" x="267.5" y="-91.3" font-family="Times,serif" font-size="14.00">number of name in name table = &#39;&#39; 22 &#39;&#39;</text>
</g>
<!-- node0x503000000400&#45;&gt;node0x5030000003d0 -->
<g id="edge7" class="edge">
<title>node0x503000000400&#45;&gt;node0x5030000003d0</title>
<path fill="none" stroke="black" d="M353.26,-166.37C339.34,-156.81 322.9,-145.53 308.16,-135.41"/>
<polygon fill="black" stroke="black" points="309.93,-132.38 299.71,-129.61 305.97,-138.15 309.93,-132.38"/>
</g>
<!-- node0x503000000460 -->
<g id="node9" class="node">
<title>node0x503000000460</title>
<path fill="#feaadf" stroke="black" d="M447,-83.5C447,-83.5 560,-83.5 560,-83.5 566,-83.5 572,-89.5 572,-95.5 572,-95.5 572,-117.5 572,-117.5 572,-123.5 566,-129.5 560,-129.5 560,-129.5 447,-129.5 447,-129.5 441,-129.5 435,-123.5 435,-117.5 435,-117.5 435,-95.5 435,-95.5 435,-89.5 441,-83.5 447,-83.5"/>
<text text-anchor="middle" x="503.5" y="-114.3" font-family="Times,serif" font-size="14.00">type = 4 (FUNC)</text>
<polyline fill="none" stroke="black" points="435,-106.5 572,-106.5 "/>
<text text-anchor="middle" x="503.5" y="-91.3" font-family="Times,serif" font-size="14.00">value = &#39;&#39; , &#39;&#39; (44)</text>
</g>
<!-- node0x503000000400&#45;&gt;node0x503000000460 -->
<g id="edge8" class="edge">
<title>node0x503000000400&#45;&gt;node0x503000000460</title>
<path fill="none" stroke="black" d="M417.74,-166.37C431.66,-156.81 448.1,-145.53 462.84,-135.41"/>
<polygon fill="black" stroke="black" points="465.03,-138.15 471.29,-129.61 461.07,-132.38 465.03,-138.15"/>
</g>
<!-- node0x503000000430 -->
<g id="node10" class="node">
<title>node0x503000000430</title>
<path fill="#ff5050" stroke="black" d="M366,-0.5C366,-0.5 641,-0.5 641,-0.5 647,-0.5 653,-6.5 653,-12.5 653,-12.5 653,-34.5 653,-34.5 653,-40.5 647,-46.5 641,-46.5 641,-46.5 366,-46.5 366,-46.5 360,-46.5 354,-40.5 354,-34.5 354,-34.5 354,-12.5 354,-12.5 354,-6.5 360,-0.5 366,-0.5"/>
<text text-anchor="middle" x="503.5" y="-31.3" font-family="Times,serif" font-size="14.00">type = 3 (ID)</text>
<polyline fill="none" stroke="black" points="354,-23.5 653,-23.5 "/>
<text text-anchor="middle" x="503.5" y="-8.3" font-family="Times,serif" font-size="14.00">number of name in name table = &#39;&#39; 24 &#39;&#39;</text>
</g>
<!-- node0x503000000460&#45;&gt;node0x503000000430 -->
<g id="edge9" class="edge">
<title>node0x503000000460&#45;&gt;node0x503000000430</title>
<path fill="none" stroke="black" d="M503.5,-83.37C503.5,-75.15 503.5,-65.66 503.5,-56.73"/>
<polygon fill="black" stroke="black" points="507,-56.61 503.5,-46.61 500,-56.61 507,-56.61"/>
</g>
</g>
</svg>
