<?xml version="1.0" encoding="UTF-8" standalone="no"?>
<!DOCTYPE svg PUBLIC "-//W3C//DTD SVG 1.1//EN"
 "http://www.w3.org/Graphics/SVG/1.1/DTD/svg11.dtd">
<!-- Generated by graphviz version 2.43.0 (0)
 -->
<!-- Title: %3 Pages: 1 -->
<svg width="2463pt" height="1134pt"
 viewBox="0.00 0.00 2463.00 1134.00" xmlns="http://www.w3.org/2000/svg" xmlns:xlink="http://www.w3.org/1999/xlink">
<g id="graph0" class="graph" transform="scale(1 1) rotate(0) translate(4 1130)">
<title>%3</title>
<!-- node0x5030000008e0 -->
<g id="node1" class="node">
<title>node0x5030000008e0</title>
<path fill="#a0a0a0" stroke="black" d="M290.5,-1079.5C290.5,-1079.5 526.5,-1079.5 526.5,-1079.5 532.5,-1079.5 538.5,-1085.5 538.5,-1091.5 538.5,-1091.5 538.5,-1113.5 538.5,-1113.5 538.5,-1119.5 532.5,-1125.5 526.5,-1125.5 526.5,-1125.5 290.5,-1125.5 290.5,-1125.5 284.5,-1125.5 278.5,-1119.5 278.5,-1113.5 278.5,-1113.5 278.5,-1091.5 278.5,-1091.5 278.5,-1085.5 284.5,-1079.5 290.5,-1079.5"/>
<text text-anchor="middle" x="408.5" y="-1110.3" font-family="Times,serif" font-size="14.00">type = 4 (FUNC)</text>
<polyline fill="none" stroke="black" points="278.5,-1102.5 538.5,-1102.5 "/>
<text text-anchor="middle" x="408.5" y="-1087.3" font-family="Times,serif" font-size="14.00">value = &#39;&#39; NEXT FUNCTION &#39;&#39; (64)</text>
</g>
<!-- node0x5030000008b0 -->
<g id="node2" class="node">
<title>node0x5030000008b0</title>
<path fill="#755cf7" stroke="black" d="M308.5,-996.5C308.5,-996.5 508.5,-996.5 508.5,-996.5 514.5,-996.5 520.5,-1002.5 520.5,-1008.5 520.5,-1008.5 520.5,-1030.5 520.5,-1030.5 520.5,-1036.5 514.5,-1042.5 508.5,-1042.5 508.5,-1042.5 308.5,-1042.5 308.5,-1042.5 302.5,-1042.5 296.5,-1036.5 296.5,-1030.5 296.5,-1030.5 296.5,-1008.5 296.5,-1008.5 296.5,-1002.5 302.5,-996.5 308.5,-996.5"/>
<text text-anchor="middle" x="408.5" y="-1027.3" font-family="Times,serif" font-size="14.00">type = 4 (FUNC)</text>
<polyline fill="none" stroke="black" points="296.5,-1019.5 520.5,-1019.5 "/>
<text text-anchor="middle" x="408.5" y="-1004.3" font-family="Times,serif" font-size="14.00">value = &#39;&#39; DEFINITION &#39;&#39; (68)</text>
</g>
<!-- node0x5030000008e0&#45;&gt;node0x5030000008b0 -->
<g id="edge1" class="edge">
<title>node0x5030000008e0&#45;&gt;node0x5030000008b0</title>
<path fill="none" stroke="black" d="M408.5,-1079.37C408.5,-1071.15 408.5,-1061.66 408.5,-1052.73"/>
<polygon fill="black" stroke="black" points="412,-1052.61 408.5,-1042.61 405,-1052.61 412,-1052.61"/>
</g>
<!-- node0x5030000000d0 -->
<g id="node3" class="node">
<title>node0x5030000000d0</title>
<path fill="#f069f5" stroke="black" d="M234,-913.5C234,-913.5 381,-913.5 381,-913.5 387,-913.5 393,-919.5 393,-925.5 393,-925.5 393,-947.5 393,-947.5 393,-953.5 387,-959.5 381,-959.5 381,-959.5 234,-959.5 234,-959.5 228,-959.5 222,-953.5 222,-947.5 222,-947.5 222,-925.5 222,-925.5 222,-919.5 228,-913.5 234,-913.5"/>
<text text-anchor="middle" x="307.5" y="-944.3" font-family="Times,serif" font-size="14.00">type = 4 (FUNC)</text>
<polyline fill="none" stroke="black" points="222,-936.5 393,-936.5 "/>
<text text-anchor="middle" x="307.5" y="-921.3" font-family="Times,serif" font-size="14.00">value = &#39;&#39; CALL &#39;&#39; (67)</text>
</g>
<!-- node0x5030000008b0&#45;&gt;node0x5030000000d0 -->
<g id="edge2" class="edge">
<title>node0x5030000008b0&#45;&gt;node0x5030000000d0</title>
<path fill="none" stroke="black" d="M380.9,-996.37C369.21,-986.99 355.44,-975.95 343.01,-965.98"/>
<polygon fill="black" stroke="black" points="345.06,-963.13 335.07,-959.61 340.68,-968.59 345.06,-963.13"/>
</g>
<!-- node0x503000000190 -->
<g id="node4" class="node">
<title>node0x503000000190</title>
<path fill="#e0e0e0" stroke="black" d="M480,-913.5C480,-913.5 653,-913.5 653,-913.5 659,-913.5 665,-919.5 665,-925.5 665,-925.5 665,-947.5 665,-947.5 665,-953.5 659,-959.5 653,-959.5 653,-959.5 480,-959.5 480,-959.5 474,-959.5 468,-953.5 468,-947.5 468,-947.5 468,-925.5 468,-925.5 468,-919.5 474,-913.5 480,-913.5"/>
<text text-anchor="middle" x="566.5" y="-944.3" font-family="Times,serif" font-size="14.00">type = 2 (OP)</text>
<polyline fill="none" stroke="black" points="468,-936.5 665,-936.5 "/>
<text text-anchor="middle" x="566.5" y="-921.3" font-family="Times,serif" font-size="14.00">value = &#39;&#39; SHUTUP &#39;&#39; (59)</text>
</g>
<!-- node0x5030000008b0&#45;&gt;node0x503000000190 -->
<g id="edge3" class="edge">
<title>node0x5030000008b0&#45;&gt;node0x503000000190</title>
<path fill="none" stroke="black" d="M451.67,-996.37C471.01,-986.46 493.97,-974.68 514.26,-964.28"/>
<polygon fill="black" stroke="black" points="516.08,-967.28 523.38,-959.61 512.88,-961.05 516.08,-967.28"/>
</g>
<!-- node0x503000000040 -->
<g id="node5" class="node">
<title>node0x503000000040</title>
<path fill="#2ee31e" stroke="black" d="M66.5,-830.5C66.5,-830.5 208.5,-830.5 208.5,-830.5 214.5,-830.5 220.5,-836.5 220.5,-842.5 220.5,-842.5 220.5,-864.5 220.5,-864.5 220.5,-870.5 214.5,-876.5 208.5,-876.5 208.5,-876.5 66.5,-876.5 66.5,-876.5 60.5,-876.5 54.5,-870.5 54.5,-864.5 54.5,-864.5 54.5,-842.5 54.5,-842.5 54.5,-836.5 60.5,-830.5 66.5,-830.5"/>
<text text-anchor="middle" x="137.5" y="-861.3" font-family="Times,serif" font-size="14.00">type = 4 (FUNC)</text>
<polyline fill="none" stroke="black" points="54.5,-853.5 220.5,-853.5 "/>
<text text-anchor="middle" x="137.5" y="-838.3" font-family="Times,serif" font-size="14.00">value = &#39;&#39; carti &#39;&#39; (21)</text>
</g>
<!-- node0x5030000000d0&#45;&gt;node0x503000000040 -->
<g id="edge4" class="edge">
<title>node0x5030000000d0&#45;&gt;node0x503000000040</title>
<path fill="none" stroke="black" d="M261.05,-913.37C240.06,-903.37 215.09,-891.47 193.11,-881"/>
<polygon fill="black" stroke="black" points="194.43,-877.75 183.9,-876.61 191.42,-884.07 194.43,-877.75"/>
</g>
<!-- node0x5030000000a0 -->
<g id="node6" class="node">
<title>node0x5030000000a0</title>
<path fill="#feaadf" stroke="black" d="M251,-830.5C251,-830.5 364,-830.5 364,-830.5 370,-830.5 376,-836.5 376,-842.5 376,-842.5 376,-864.5 376,-864.5 376,-870.5 370,-876.5 364,-876.5 364,-876.5 251,-876.5 251,-876.5 245,-876.5 239,-870.5 239,-864.5 239,-864.5 239,-842.5 239,-842.5 239,-836.5 245,-830.5 251,-830.5"/>
<text text-anchor="middle" x="307.5" y="-861.3" font-family="Times,serif" font-size="14.00">type = 4 (FUNC)</text>
<polyline fill="none" stroke="black" points="239,-853.5 376,-853.5 "/>
<text text-anchor="middle" x="307.5" y="-838.3" font-family="Times,serif" font-size="14.00">value = &#39;&#39; , &#39;&#39; (44)</text>
</g>
<!-- node0x5030000000d0&#45;&gt;node0x5030000000a0 -->
<g id="edge5" class="edge">
<title>node0x5030000000d0&#45;&gt;node0x5030000000a0</title>
<path fill="none" stroke="black" d="M307.5,-913.37C307.5,-905.15 307.5,-895.66 307.5,-886.73"/>
<polygon fill="black" stroke="black" points="311,-886.61 307.5,-876.61 304,-886.61 311,-886.61"/>
</g>
<!-- node0x503000000160 -->
<g id="node8" class="node">
<title>node0x503000000160</title>
<path fill="#00ffdd" stroke="black" d="M506,-830.5C506,-830.5 627,-830.5 627,-830.5 633,-830.5 639,-836.5 639,-842.5 639,-842.5 639,-864.5 639,-864.5 639,-870.5 633,-876.5 627,-876.5 627,-876.5 506,-876.5 506,-876.5 500,-876.5 494,-870.5 494,-864.5 494,-864.5 494,-842.5 494,-842.5 494,-836.5 500,-830.5 506,-830.5"/>
<text text-anchor="middle" x="566.5" y="-861.3" font-family="Times,serif" font-size="14.00">type = 2 (OP)</text>
<polyline fill="none" stroke="black" points="494,-853.5 639,-853.5 "/>
<text text-anchor="middle" x="566.5" y="-838.3" font-family="Times,serif" font-size="14.00">value = &#39;&#39; = &#39;&#39; (61)</text>
</g>
<!-- node0x503000000190&#45;&gt;node0x503000000160 -->
<g id="edge7" class="edge">
<title>node0x503000000190&#45;&gt;node0x503000000160</title>
<path fill="none" stroke="black" d="M566.5,-913.37C566.5,-905.15 566.5,-895.66 566.5,-886.73"/>
<polygon fill="black" stroke="black" points="570,-886.61 566.5,-876.61 563,-886.61 570,-886.61"/>
</g>
<!-- node0x503000000250 -->
<g id="node9" class="node">
<title>node0x503000000250</title>
<path fill="#e0e0e0" stroke="black" d="M769,-830.5C769,-830.5 942,-830.5 942,-830.5 948,-830.5 954,-836.5 954,-842.5 954,-842.5 954,-864.5 954,-864.5 954,-870.5 948,-876.5 942,-876.5 942,-876.5 769,-876.5 769,-876.5 763,-876.5 757,-870.5 757,-864.5 757,-864.5 757,-842.5 757,-842.5 757,-836.5 763,-830.5 769,-830.5"/>
<text text-anchor="middle" x="855.5" y="-861.3" font-family="Times,serif" font-size="14.00">type = 2 (OP)</text>
<polyline fill="none" stroke="black" points="757,-853.5 954,-853.5 "/>
<text text-anchor="middle" x="855.5" y="-838.3" font-family="Times,serif" font-size="14.00">value = &#39;&#39; SHUTUP &#39;&#39; (59)</text>
</g>
<!-- node0x503000000190&#45;&gt;node0x503000000250 -->
<g id="edge8" class="edge">
<title>node0x503000000190&#45;&gt;node0x503000000250</title>
<path fill="none" stroke="black" d="M645.09,-913.47C682.84,-902.89 728.23,-890.17 767.17,-879.26"/>
<polygon fill="black" stroke="black" points="768.24,-882.59 776.93,-876.52 766.35,-875.85 768.24,-882.59"/>
</g>
<!-- node0x503000000070 -->
<g id="node7" class="node">
<title>node0x503000000070</title>
<path fill="#ff5050" stroke="black" d="M12,-747.5C12,-747.5 287,-747.5 287,-747.5 293,-747.5 299,-753.5 299,-759.5 299,-759.5 299,-781.5 299,-781.5 299,-787.5 293,-793.5 287,-793.5 287,-793.5 12,-793.5 12,-793.5 6,-793.5 0,-787.5 0,-781.5 0,-781.5 0,-759.5 0,-759.5 0,-753.5 6,-747.5 12,-747.5"/>
<text text-anchor="middle" x="149.5" y="-778.3" font-family="Times,serif" font-size="14.00">type = 3 (ID)</text>
<polyline fill="none" stroke="black" points="0,-770.5 299,-770.5 "/>
<text text-anchor="middle" x="149.5" y="-755.3" font-family="Times,serif" font-size="14.00">number of name in name table = &#39;&#39; 22 &#39;&#39;</text>
</g>
<!-- node0x5030000000a0&#45;&gt;node0x503000000070 -->
<g id="edge6" class="edge">
<title>node0x5030000000a0&#45;&gt;node0x503000000070</title>
<path fill="none" stroke="black" d="M264.33,-830.37C244.99,-820.46 222.03,-808.68 201.74,-798.28"/>
<polygon fill="black" stroke="black" points="203.12,-795.05 192.62,-793.61 199.92,-801.28 203.12,-795.05"/>
</g>
<!-- node0x503000000100 -->
<g id="node10" class="node">
<title>node0x503000000100</title>
<path fill="#ff5050" stroke="black" d="M329,-747.5C329,-747.5 604,-747.5 604,-747.5 610,-747.5 616,-753.5 616,-759.5 616,-759.5 616,-781.5 616,-781.5 616,-787.5 610,-793.5 604,-793.5 604,-793.5 329,-793.5 329,-793.5 323,-793.5 317,-787.5 317,-781.5 317,-781.5 317,-759.5 317,-759.5 317,-753.5 323,-747.5 329,-747.5"/>
<text text-anchor="middle" x="466.5" y="-778.3" font-family="Times,serif" font-size="14.00">type = 3 (ID)</text>
<polyline fill="none" stroke="black" points="317,-770.5 616,-770.5 "/>
<text text-anchor="middle" x="466.5" y="-755.3" font-family="Times,serif" font-size="14.00">number of name in name table = &#39;&#39; 23 &#39;&#39;</text>
</g>
<!-- node0x503000000160&#45;&gt;node0x503000000100 -->
<g id="edge9" class="edge">
<title>node0x503000000160&#45;&gt;node0x503000000100</title>
<path fill="none" stroke="black" d="M539.17,-830.37C527.6,-820.99 513.97,-809.95 501.66,-799.98"/>
<polygon fill="black" stroke="black" points="503.77,-797.18 493.79,-793.61 499.36,-802.62 503.77,-797.18"/>
</g>
<!-- node0x503000000130 -->
<g id="node11" class="node">
<title>node0x503000000130</title>
<path fill="#ffd700" stroke="black" d="M646,-747.5C646,-747.5 753,-747.5 753,-747.5 759,-747.5 765,-753.5 765,-759.5 765,-759.5 765,-781.5 765,-781.5 765,-787.5 759,-793.5 753,-793.5 753,-793.5 646,-793.5 646,-793.5 640,-793.5 634,-787.5 634,-781.5 634,-781.5 634,-759.5 634,-759.5 634,-753.5 640,-747.5 646,-747.5"/>
<text text-anchor="middle" x="699.5" y="-778.3" font-family="Times,serif" font-size="14.00">type = 1 (NUM)</text>
<polyline fill="none" stroke="black" points="634,-770.5 765,-770.5 "/>
<text text-anchor="middle" x="699.5" y="-755.3" font-family="Times,serif" font-size="14.00">value = &#39;&#39; 5 &#39;&#39;</text>
</g>
<!-- node0x503000000160&#45;&gt;node0x503000000130 -->
<g id="edge10" class="edge">
<title>node0x503000000160&#45;&gt;node0x503000000130</title>
<path fill="none" stroke="black" d="M602.84,-830.37C618.82,-820.63 637.75,-809.11 654.6,-798.84"/>
<polygon fill="black" stroke="black" points="656.48,-801.8 663.2,-793.61 652.84,-795.82 656.48,-801.8"/>
</g>
<!-- node0x503000000220 -->
<g id="node12" class="node">
<title>node0x503000000220</title>
<path fill="#00ffdd" stroke="black" d="M795,-747.5C795,-747.5 916,-747.5 916,-747.5 922,-747.5 928,-753.5 928,-759.5 928,-759.5 928,-781.5 928,-781.5 928,-787.5 922,-793.5 916,-793.5 916,-793.5 795,-793.5 795,-793.5 789,-793.5 783,-787.5 783,-781.5 783,-781.5 783,-759.5 783,-759.5 783,-753.5 789,-747.5 795,-747.5"/>
<text text-anchor="middle" x="855.5" y="-778.3" font-family="Times,serif" font-size="14.00">type = 2 (OP)</text>
<polyline fill="none" stroke="black" points="783,-770.5 928,-770.5 "/>
<text text-anchor="middle" x="855.5" y="-755.3" font-family="Times,serif" font-size="14.00">value = &#39;&#39; = &#39;&#39; (61)</text>
</g>
<!-- node0x503000000250&#45;&gt;node0x503000000220 -->
<g id="edge11" class="edge">
<title>node0x503000000250&#45;&gt;node0x503000000220</title>
<path fill="none" stroke="black" d="M855.5,-830.37C855.5,-822.15 855.5,-812.66 855.5,-803.73"/>
<polygon fill="black" stroke="black" points="859,-803.61 855.5,-793.61 852,-803.61 859,-803.61"/>
</g>
<!-- node0x503000000310 -->
<g id="node13" class="node">
<title>node0x503000000310</title>
<path fill="#e0e0e0" stroke="black" d="M958,-747.5C958,-747.5 1131,-747.5 1131,-747.5 1137,-747.5 1143,-753.5 1143,-759.5 1143,-759.5 1143,-781.5 1143,-781.5 1143,-787.5 1137,-793.5 1131,-793.5 1131,-793.5 958,-793.5 958,-793.5 952,-793.5 946,-787.5 946,-781.5 946,-781.5 946,-759.5 946,-759.5 946,-753.5 952,-747.5 958,-747.5"/>
<text text-anchor="middle" x="1044.5" y="-778.3" font-family="Times,serif" font-size="14.00">type = 2 (OP)</text>
<polyline fill="none" stroke="black" points="946,-770.5 1143,-770.5 "/>
<text text-anchor="middle" x="1044.5" y="-755.3" font-family="Times,serif" font-size="14.00">value = &#39;&#39; SHUTUP &#39;&#39; (59)</text>
</g>
<!-- node0x503000000250&#45;&gt;node0x503000000310 -->
<g id="edge12" class="edge">
<title>node0x503000000250&#45;&gt;node0x503000000310</title>
<path fill="none" stroke="black" d="M907.15,-830.37C930.79,-820.23 958.98,-808.15 983.65,-797.58"/>
<polygon fill="black" stroke="black" points="985.1,-800.76 992.92,-793.61 982.35,-794.33 985.1,-800.76"/>
</g>
<!-- node0x5030000001c0 -->
<g id="node14" class="node">
<title>node0x5030000001c0</title>
<path fill="#ff5050" stroke="black" d="M493,-664.5C493,-664.5 768,-664.5 768,-664.5 774,-664.5 780,-670.5 780,-676.5 780,-676.5 780,-698.5 780,-698.5 780,-704.5 774,-710.5 768,-710.5 768,-710.5 493,-710.5 493,-710.5 487,-710.5 481,-704.5 481,-698.5 481,-698.5 481,-676.5 481,-676.5 481,-670.5 487,-664.5 493,-664.5"/>
<text text-anchor="middle" x="630.5" y="-695.3" font-family="Times,serif" font-size="14.00">type = 3 (ID)</text>
<polyline fill="none" stroke="black" points="481,-687.5 780,-687.5 "/>
<text text-anchor="middle" x="630.5" y="-672.3" font-family="Times,serif" font-size="14.00">number of name in name table = &#39;&#39; 24 &#39;&#39;</text>
</g>
<!-- node0x503000000220&#45;&gt;node0x5030000001c0 -->
<g id="edge13" class="edge">
<title>node0x503000000220&#45;&gt;node0x5030000001c0</title>
<path fill="none" stroke="black" d="M794.31,-747.47C765.55,-737.12 731.08,-724.71 701.2,-713.95"/>
<polygon fill="black" stroke="black" points="702.27,-710.62 691.67,-710.52 699.9,-717.2 702.27,-710.62"/>
</g>
<!-- node0x5030000001f0 -->
<g id="node15" class="node">
<title>node0x5030000001f0</title>
<path fill="#ffd700" stroke="black" d="M810,-664.5C810,-664.5 917,-664.5 917,-664.5 923,-664.5 929,-670.5 929,-676.5 929,-676.5 929,-698.5 929,-698.5 929,-704.5 923,-710.5 917,-710.5 917,-710.5 810,-710.5 810,-710.5 804,-710.5 798,-704.5 798,-698.5 798,-698.5 798,-676.5 798,-676.5 798,-670.5 804,-664.5 810,-664.5"/>
<text text-anchor="middle" x="863.5" y="-695.3" font-family="Times,serif" font-size="14.00">type = 1 (NUM)</text>
<polyline fill="none" stroke="black" points="798,-687.5 929,-687.5 "/>
<text text-anchor="middle" x="863.5" y="-672.3" font-family="Times,serif" font-size="14.00">value = &#39;&#39; 1 &#39;&#39;</text>
</g>
<!-- node0x503000000220&#45;&gt;node0x5030000001f0 -->
<g id="edge14" class="edge">
<title>node0x503000000220&#45;&gt;node0x5030000001f0</title>
<path fill="none" stroke="black" d="M857.69,-747.37C858.5,-739.15 859.44,-729.66 860.32,-720.73"/>
<polygon fill="black" stroke="black" points="863.82,-720.9 861.32,-710.61 856.85,-720.21 863.82,-720.9"/>
</g>
<!-- node0x5030000002e0 -->
<g id="node16" class="node">
<title>node0x5030000002e0</title>
<path fill="#00ffdd" stroke="black" d="M975,-664.5C975,-664.5 1096,-664.5 1096,-664.5 1102,-664.5 1108,-670.5 1108,-676.5 1108,-676.5 1108,-698.5 1108,-698.5 1108,-704.5 1102,-710.5 1096,-710.5 1096,-710.5 975,-710.5 975,-710.5 969,-710.5 963,-704.5 963,-698.5 963,-698.5 963,-676.5 963,-676.5 963,-670.5 969,-664.5 975,-664.5"/>
<text text-anchor="middle" x="1035.5" y="-695.3" font-family="Times,serif" font-size="14.00">type = 2 (OP)</text>
<polyline fill="none" stroke="black" points="963,-687.5 1108,-687.5 "/>
<text text-anchor="middle" x="1035.5" y="-672.3" font-family="Times,serif" font-size="14.00">value = &#39;&#39; = &#39;&#39; (61)</text>
</g>
<!-- node0x503000000310&#45;&gt;node0x5030000002e0 -->
<g id="edge15" class="edge">
<title>node0x503000000310&#45;&gt;node0x5030000002e0</title>
<path fill="none" stroke="black" d="M1042.04,-747.37C1041.13,-739.15 1040.07,-729.66 1039.08,-720.73"/>
<polygon fill="black" stroke="black" points="1042.54,-720.16 1037.96,-710.61 1035.58,-720.93 1042.54,-720.16"/>
</g>
<!-- node0x5030000007c0 -->
<g id="node17" class="node">
<title>node0x5030000007c0</title>
<path fill="#e0e0e0" stroke="black" d="M1138,-664.5C1138,-664.5 1311,-664.5 1311,-664.5 1317,-664.5 1323,-670.5 1323,-676.5 1323,-676.5 1323,-698.5 1323,-698.5 1323,-704.5 1317,-710.5 1311,-710.5 1311,-710.5 1138,-710.5 1138,-710.5 1132,-710.5 1126,-704.5 1126,-698.5 1126,-698.5 1126,-676.5 1126,-676.5 1126,-670.5 1132,-664.5 1138,-664.5"/>
<text text-anchor="middle" x="1224.5" y="-695.3" font-family="Times,serif" font-size="14.00">type = 2 (OP)</text>
<polyline fill="none" stroke="black" points="1126,-687.5 1323,-687.5 "/>
<text text-anchor="middle" x="1224.5" y="-672.3" font-family="Times,serif" font-size="14.00">value = &#39;&#39; SHUTUP &#39;&#39; (59)</text>
</g>
<!-- node0x503000000310&#45;&gt;node0x5030000007c0 -->
<g id="edge16" class="edge">
<title>node0x503000000310&#45;&gt;node0x5030000007c0</title>
<path fill="none" stroke="black" d="M1093.69,-747.37C1116.11,-737.28 1142.82,-725.26 1166.24,-714.72"/>
<polygon fill="black" stroke="black" points="1167.69,-717.9 1175.37,-710.61 1164.82,-711.52 1167.69,-717.9"/>
</g>
<!-- node0x503000000280 -->
<g id="node18" class="node">
<title>node0x503000000280</title>
<path fill="#ff5050" stroke="black" d="M667,-581.5C667,-581.5 942,-581.5 942,-581.5 948,-581.5 954,-587.5 954,-593.5 954,-593.5 954,-615.5 954,-615.5 954,-621.5 948,-627.5 942,-627.5 942,-627.5 667,-627.5 667,-627.5 661,-627.5 655,-621.5 655,-615.5 655,-615.5 655,-593.5 655,-593.5 655,-587.5 661,-581.5 667,-581.5"/>
<text text-anchor="middle" x="804.5" y="-612.3" font-family="Times,serif" font-size="14.00">type = 3 (ID)</text>
<polyline fill="none" stroke="black" points="655,-604.5 954,-604.5 "/>
<text text-anchor="middle" x="804.5" y="-589.3" font-family="Times,serif" font-size="14.00">number of name in name table = &#39;&#39; 25 &#39;&#39;</text>
</g>
<!-- node0x5030000002e0&#45;&gt;node0x503000000280 -->
<g id="edge17" class="edge">
<title>node0x5030000002e0&#45;&gt;node0x503000000280</title>
<path fill="none" stroke="black" d="M972.68,-664.47C943.15,-654.12 907.76,-641.71 877.09,-630.95"/>
<polygon fill="black" stroke="black" points="877.9,-627.53 867.3,-627.52 875.58,-634.13 877.9,-627.53"/>
</g>
<!-- node0x5030000002b0 -->
<g id="node19" class="node">
<title>node0x5030000002b0</title>
<path fill="#ffd700" stroke="black" d="M984,-581.5C984,-581.5 1091,-581.5 1091,-581.5 1097,-581.5 1103,-587.5 1103,-593.5 1103,-593.5 1103,-615.5 1103,-615.5 1103,-621.5 1097,-627.5 1091,-627.5 1091,-627.5 984,-627.5 984,-627.5 978,-627.5 972,-621.5 972,-615.5 972,-615.5 972,-593.5 972,-593.5 972,-587.5 978,-581.5 984,-581.5"/>
<text text-anchor="middle" x="1037.5" y="-612.3" font-family="Times,serif" font-size="14.00">type = 1 (NUM)</text>
<polyline fill="none" stroke="black" points="972,-604.5 1103,-604.5 "/>
<text text-anchor="middle" x="1037.5" y="-589.3" font-family="Times,serif" font-size="14.00">value = &#39;&#39; 1 &#39;&#39;</text>
</g>
<!-- node0x5030000002e0&#45;&gt;node0x5030000002b0 -->
<g id="edge18" class="edge">
<title>node0x5030000002e0&#45;&gt;node0x5030000002b0</title>
<path fill="none" stroke="black" d="M1036.05,-664.37C1036.25,-656.15 1036.48,-646.66 1036.7,-637.73"/>
<polygon fill="black" stroke="black" points="1040.21,-637.69 1036.95,-627.61 1033.21,-637.52 1040.21,-637.69"/>
</g>
<!-- node0x503000000790 -->
<g id="node20" class="node">
<title>node0x503000000790</title>
<path fill="#df73df" stroke="black" d="M1136,-581.5C1136,-581.5 1311,-581.5 1311,-581.5 1317,-581.5 1323,-587.5 1323,-593.5 1323,-593.5 1323,-615.5 1323,-615.5 1323,-621.5 1317,-627.5 1311,-627.5 1311,-627.5 1136,-627.5 1136,-627.5 1130,-627.5 1124,-621.5 1124,-615.5 1124,-615.5 1124,-593.5 1124,-593.5 1124,-587.5 1130,-581.5 1136,-581.5"/>
<text text-anchor="middle" x="1223.5" y="-612.3" font-family="Times,serif" font-size="14.00">type = 2 (OP)</text>
<polyline fill="none" stroke="black" points="1124,-604.5 1323,-604.5 "/>
<text text-anchor="middle" x="1223.5" y="-589.3" font-family="Times,serif" font-size="14.00">value = &#39;&#39; MONEY &#39;&#39; (119)</text>
</g>
<!-- node0x5030000007c0&#45;&gt;node0x503000000790 -->
<g id="edge19" class="edge">
<title>node0x5030000007c0&#45;&gt;node0x503000000790</title>
<path fill="none" stroke="black" d="M1224.23,-664.37C1224.13,-656.15 1224.01,-646.66 1223.9,-637.73"/>
<polygon fill="black" stroke="black" points="1227.4,-637.56 1223.77,-627.61 1220.4,-637.65 1227.4,-637.56"/>
</g>
<!-- node0x503000000880 -->
<g id="node21" class="node">
<title>node0x503000000880</title>
<path fill="#e0e0e0" stroke="black" d="M1378,-581.5C1378,-581.5 1551,-581.5 1551,-581.5 1557,-581.5 1563,-587.5 1563,-593.5 1563,-593.5 1563,-615.5 1563,-615.5 1563,-621.5 1557,-627.5 1551,-627.5 1551,-627.5 1378,-627.5 1378,-627.5 1372,-627.5 1366,-621.5 1366,-615.5 1366,-615.5 1366,-593.5 1366,-593.5 1366,-587.5 1372,-581.5 1378,-581.5"/>
<text text-anchor="middle" x="1464.5" y="-612.3" font-family="Times,serif" font-size="14.00">type = 2 (OP)</text>
<polyline fill="none" stroke="black" points="1366,-604.5 1563,-604.5 "/>
<text text-anchor="middle" x="1464.5" y="-589.3" font-family="Times,serif" font-size="14.00">value = &#39;&#39; SHUTUP &#39;&#39; (59)</text>
</g>
<!-- node0x5030000007c0&#45;&gt;node0x503000000880 -->
<g id="edge20" class="edge">
<title>node0x5030000007c0&#45;&gt;node0x503000000880</title>
<path fill="none" stroke="black" d="M1289.76,-664.47C1320.58,-654.07 1357.53,-641.6 1389.5,-630.81"/>
<polygon fill="black" stroke="black" points="1390.89,-634.04 1399.25,-627.52 1388.65,-627.4 1390.89,-634.04"/>
</g>
<!-- node0x503000000340 -->
<g id="node22" class="node">
<title>node0x503000000340</title>
<path fill="#ff5050" stroke="black" d="M820,-498.5C820,-498.5 1095,-498.5 1095,-498.5 1101,-498.5 1107,-504.5 1107,-510.5 1107,-510.5 1107,-532.5 1107,-532.5 1107,-538.5 1101,-544.5 1095,-544.5 1095,-544.5 820,-544.5 820,-544.5 814,-544.5 808,-538.5 808,-532.5 808,-532.5 808,-510.5 808,-510.5 808,-504.5 814,-498.5 820,-498.5"/>
<text text-anchor="middle" x="957.5" y="-529.3" font-family="Times,serif" font-size="14.00">type = 3 (ID)</text>
<polyline fill="none" stroke="black" points="808,-521.5 1107,-521.5 "/>
<text text-anchor="middle" x="957.5" y="-506.3" font-family="Times,serif" font-size="14.00">number of name in name table = &#39;&#39; 23 &#39;&#39;</text>
</g>
<!-- node0x503000000790&#45;&gt;node0x503000000340 -->
<g id="edge21" class="edge">
<title>node0x503000000790&#45;&gt;node0x503000000340</title>
<path fill="none" stroke="black" d="M1151.17,-581.47C1116.71,-570.98 1075.35,-558.39 1039.71,-547.53"/>
<polygon fill="black" stroke="black" points="1040.41,-544.09 1029.82,-544.52 1038.37,-550.78 1040.41,-544.09"/>
</g>
<!-- node0x503000000400 -->
<g id="node23" class="node">
<title>node0x503000000400</title>
<path fill="#e0e0e0" stroke="black" d="M1137,-498.5C1137,-498.5 1310,-498.5 1310,-498.5 1316,-498.5 1322,-504.5 1322,-510.5 1322,-510.5 1322,-532.5 1322,-532.5 1322,-538.5 1316,-544.5 1310,-544.5 1310,-544.5 1137,-544.5 1137,-544.5 1131,-544.5 1125,-538.5 1125,-532.5 1125,-532.5 1125,-510.5 1125,-510.5 1125,-504.5 1131,-498.5 1137,-498.5"/>
<text text-anchor="middle" x="1223.5" y="-529.3" font-family="Times,serif" font-size="14.00">type = 2 (OP)</text>
<polyline fill="none" stroke="black" points="1125,-521.5 1322,-521.5 "/>
<text text-anchor="middle" x="1223.5" y="-506.3" font-family="Times,serif" font-size="14.00">value = &#39;&#39; SHUTUP &#39;&#39; (59)</text>
</g>
<!-- node0x503000000790&#45;&gt;node0x503000000400 -->
<g id="edge22" class="edge">
<title>node0x503000000790&#45;&gt;node0x503000000400</title>
<path fill="none" stroke="black" d="M1223.5,-581.37C1223.5,-573.15 1223.5,-563.66 1223.5,-554.73"/>
<polygon fill="black" stroke="black" points="1227,-554.61 1223.5,-544.61 1220,-554.61 1227,-554.61"/>
</g>
<!-- node0x503000000850 -->
<g id="node45" class="node">
<title>node0x503000000850</title>
<path fill="#00ffdd" stroke="black" d="M1429,-498.5C1429,-498.5 1550,-498.5 1550,-498.5 1556,-498.5 1562,-504.5 1562,-510.5 1562,-510.5 1562,-532.5 1562,-532.5 1562,-538.5 1556,-544.5 1550,-544.5 1550,-544.5 1429,-544.5 1429,-544.5 1423,-544.5 1417,-538.5 1417,-532.5 1417,-532.5 1417,-510.5 1417,-510.5 1417,-504.5 1423,-498.5 1429,-498.5"/>
<text text-anchor="middle" x="1489.5" y="-529.3" font-family="Times,serif" font-size="14.00">type = 2 (OP)</text>
<polyline fill="none" stroke="black" points="1417,-521.5 1562,-521.5 "/>
<text text-anchor="middle" x="1489.5" y="-506.3" font-family="Times,serif" font-size="14.00">value = &#39;&#39; = &#39;&#39; (61)</text>
</g>
<!-- node0x503000000880&#45;&gt;node0x503000000850 -->
<g id="edge44" class="edge">
<title>node0x503000000880&#45;&gt;node0x503000000850</title>
<path fill="none" stroke="black" d="M1471.33,-581.37C1473.89,-573.06 1476.86,-563.45 1479.64,-554.43"/>
<polygon fill="black" stroke="black" points="1483.07,-555.19 1482.68,-544.61 1476.38,-553.13 1483.07,-555.19"/>
</g>
<!-- node0x5030000003d0 -->
<g id="node24" class="node">
<title>node0x5030000003d0</title>
<path fill="#00ffdd" stroke="black" d="M923,-415.5C923,-415.5 1044,-415.5 1044,-415.5 1050,-415.5 1056,-421.5 1056,-427.5 1056,-427.5 1056,-449.5 1056,-449.5 1056,-455.5 1050,-461.5 1044,-461.5 1044,-461.5 923,-461.5 923,-461.5 917,-461.5 911,-455.5 911,-449.5 911,-449.5 911,-427.5 911,-427.5 911,-421.5 917,-415.5 923,-415.5"/>
<text text-anchor="middle" x="983.5" y="-446.3" font-family="Times,serif" font-size="14.00">type = 2 (OP)</text>
<polyline fill="none" stroke="black" points="911,-438.5 1056,-438.5 "/>
<text text-anchor="middle" x="983.5" y="-423.3" font-family="Times,serif" font-size="14.00">value = &#39;&#39; = &#39;&#39; (61)</text>
</g>
<!-- node0x503000000400&#45;&gt;node0x5030000003d0 -->
<g id="edge23" class="edge">
<title>node0x503000000400&#45;&gt;node0x5030000003d0</title>
<path fill="none" stroke="black" d="M1158.24,-498.47C1127.42,-488.07 1090.47,-475.6 1058.5,-464.81"/>
<polygon fill="black" stroke="black" points="1059.35,-461.4 1048.75,-461.52 1057.11,-468.04 1059.35,-461.4"/>
</g>
<!-- node0x503000000520 -->
<g id="node25" class="node">
<title>node0x503000000520</title>
<path fill="#e0e0e0" stroke="black" d="M1137,-415.5C1137,-415.5 1310,-415.5 1310,-415.5 1316,-415.5 1322,-421.5 1322,-427.5 1322,-427.5 1322,-449.5 1322,-449.5 1322,-455.5 1316,-461.5 1310,-461.5 1310,-461.5 1137,-461.5 1137,-461.5 1131,-461.5 1125,-455.5 1125,-449.5 1125,-449.5 1125,-427.5 1125,-427.5 1125,-421.5 1131,-415.5 1137,-415.5"/>
<text text-anchor="middle" x="1223.5" y="-446.3" font-family="Times,serif" font-size="14.00">type = 2 (OP)</text>
<polyline fill="none" stroke="black" points="1125,-438.5 1322,-438.5 "/>
<text text-anchor="middle" x="1223.5" y="-423.3" font-family="Times,serif" font-size="14.00">value = &#39;&#39; SHUTUP &#39;&#39; (59)</text>
</g>
<!-- node0x503000000400&#45;&gt;node0x503000000520 -->
<g id="edge24" class="edge">
<title>node0x503000000400&#45;&gt;node0x503000000520</title>
<path fill="none" stroke="black" d="M1223.5,-498.37C1223.5,-490.15 1223.5,-480.66 1223.5,-471.73"/>
<polygon fill="black" stroke="black" points="1227,-471.61 1223.5,-461.61 1220,-471.61 1227,-471.61"/>
</g>
<!-- node0x503000000370 -->
<g id="node26" class="node">
<title>node0x503000000370</title>
<path fill="#ff5050" stroke="black" d="M529,-332.5C529,-332.5 804,-332.5 804,-332.5 810,-332.5 816,-338.5 816,-344.5 816,-344.5 816,-366.5 816,-366.5 816,-372.5 810,-378.5 804,-378.5 804,-378.5 529,-378.5 529,-378.5 523,-378.5 517,-372.5 517,-366.5 517,-366.5 517,-344.5 517,-344.5 517,-338.5 523,-332.5 529,-332.5"/>
<text text-anchor="middle" x="666.5" y="-363.3" font-family="Times,serif" font-size="14.00">type = 3 (ID)</text>
<polyline fill="none" stroke="black" points="517,-355.5 816,-355.5 "/>
<text text-anchor="middle" x="666.5" y="-340.3" font-family="Times,serif" font-size="14.00">number of name in name table = &#39;&#39; 25 &#39;&#39;</text>
</g>
<!-- node0x5030000003d0&#45;&gt;node0x503000000370 -->
<g id="edge25" class="edge">
<title>node0x5030000003d0&#45;&gt;node0x503000000370</title>
<path fill="none" stroke="black" d="M910.77,-418.92C866.74,-407.67 810.06,-393.18 762.39,-381"/>
<polygon fill="black" stroke="black" points="763.23,-377.6 752.67,-378.52 761.5,-384.39 763.23,-377.6"/>
</g>
<!-- node0x5030000003a0 -->
<g id="node27" class="node">
<title>node0x5030000003a0</title>
<path fill="#ff5050" stroke="black" d="M846,-332.5C846,-332.5 1121,-332.5 1121,-332.5 1127,-332.5 1133,-338.5 1133,-344.5 1133,-344.5 1133,-366.5 1133,-366.5 1133,-372.5 1127,-378.5 1121,-378.5 1121,-378.5 846,-378.5 846,-378.5 840,-378.5 834,-372.5 834,-366.5 834,-366.5 834,-344.5 834,-344.5 834,-338.5 840,-332.5 846,-332.5"/>
<text text-anchor="middle" x="983.5" y="-363.3" font-family="Times,serif" font-size="14.00">type = 3 (ID)</text>
<polyline fill="none" stroke="black" points="834,-355.5 1133,-355.5 "/>
<text text-anchor="middle" x="983.5" y="-340.3" font-family="Times,serif" font-size="14.00">number of name in name table = &#39;&#39; 23 &#39;&#39;</text>
</g>
<!-- node0x5030000003d0&#45;&gt;node0x5030000003a0 -->
<g id="edge26" class="edge">
<title>node0x5030000003d0&#45;&gt;node0x5030000003a0</title>
<path fill="none" stroke="black" d="M983.5,-415.37C983.5,-407.15 983.5,-397.66 983.5,-388.73"/>
<polygon fill="black" stroke="black" points="987,-388.61 983.5,-378.61 980,-388.61 987,-388.61"/>
</g>
<!-- node0x5030000004f0 -->
<g id="node28" class="node">
<title>node0x5030000004f0</title>
<path fill="#00ffdd" stroke="black" d="M1163,-332.5C1163,-332.5 1284,-332.5 1284,-332.5 1290,-332.5 1296,-338.5 1296,-344.5 1296,-344.5 1296,-366.5 1296,-366.5 1296,-372.5 1290,-378.5 1284,-378.5 1284,-378.5 1163,-378.5 1163,-378.5 1157,-378.5 1151,-372.5 1151,-366.5 1151,-366.5 1151,-344.5 1151,-344.5 1151,-338.5 1157,-332.5 1163,-332.5"/>
<text text-anchor="middle" x="1223.5" y="-363.3" font-family="Times,serif" font-size="14.00">type = 2 (OP)</text>
<polyline fill="none" stroke="black" points="1151,-355.5 1296,-355.5 "/>
<text text-anchor="middle" x="1223.5" y="-340.3" font-family="Times,serif" font-size="14.00">value = &#39;&#39; = &#39;&#39; (61)</text>
</g>
<!-- node0x503000000520&#45;&gt;node0x5030000004f0 -->
<g id="edge27" class="edge">
<title>node0x503000000520&#45;&gt;node0x5030000004f0</title>
<path fill="none" stroke="black" d="M1223.5,-415.37C1223.5,-407.15 1223.5,-397.66 1223.5,-388.73"/>
<polygon fill="black" stroke="black" points="1227,-388.61 1223.5,-378.61 1220,-388.61 1227,-388.61"/>
</g>
<!-- node0x503000000640 -->
<g id="node29" class="node">
<title>node0x503000000640</title>
<path fill="#e0e0e0" stroke="black" d="M1527,-332.5C1527,-332.5 1700,-332.5 1700,-332.5 1706,-332.5 1712,-338.5 1712,-344.5 1712,-344.5 1712,-366.5 1712,-366.5 1712,-372.5 1706,-378.5 1700,-378.5 1700,-378.5 1527,-378.5 1527,-378.5 1521,-378.5 1515,-372.5 1515,-366.5 1515,-366.5 1515,-344.5 1515,-344.5 1515,-338.5 1521,-332.5 1527,-332.5"/>
<text text-anchor="middle" x="1613.5" y="-363.3" font-family="Times,serif" font-size="14.00">type = 2 (OP)</text>
<polyline fill="none" stroke="black" points="1515,-355.5 1712,-355.5 "/>
<text text-anchor="middle" x="1613.5" y="-340.3" font-family="Times,serif" font-size="14.00">value = &#39;&#39; SHUTUP &#39;&#39; (59)</text>
</g>
<!-- node0x503000000520&#45;&gt;node0x503000000640 -->
<g id="edge28" class="edge">
<title>node0x503000000520&#45;&gt;node0x503000000640</title>
<path fill="none" stroke="black" d="M1322.03,-416.77C1324.88,-416.17 1327.71,-415.58 1330.5,-415 1388.06,-403 1452.23,-389.73 1504.89,-378.86"/>
<polygon fill="black" stroke="black" points="1505.84,-382.24 1514.93,-376.79 1504.43,-375.38 1505.84,-382.24"/>
</g>
<!-- node0x503000000430 -->
<g id="node30" class="node">
<title>node0x503000000430</title>
<path fill="#ff5050" stroke="black" d="M834,-249.5C834,-249.5 1109,-249.5 1109,-249.5 1115,-249.5 1121,-255.5 1121,-261.5 1121,-261.5 1121,-283.5 1121,-283.5 1121,-289.5 1115,-295.5 1109,-295.5 1109,-295.5 834,-295.5 834,-295.5 828,-295.5 822,-289.5 822,-283.5 822,-283.5 822,-261.5 822,-261.5 822,-255.5 828,-249.5 834,-249.5"/>
<text text-anchor="middle" x="971.5" y="-280.3" font-family="Times,serif" font-size="14.00">type = 3 (ID)</text>
<polyline fill="none" stroke="black" points="822,-272.5 1121,-272.5 "/>
<text text-anchor="middle" x="971.5" y="-257.3" font-family="Times,serif" font-size="14.00">number of name in name table = &#39;&#39; 24 &#39;&#39;</text>
</g>
<!-- node0x5030000004f0&#45;&gt;node0x503000000430 -->
<g id="edge29" class="edge">
<title>node0x5030000004f0&#45;&gt;node0x503000000430</title>
<path fill="none" stroke="black" d="M1154.97,-332.47C1122.47,-322.03 1083.48,-309.49 1049.82,-298.67"/>
<polygon fill="black" stroke="black" points="1050.6,-295.25 1040.01,-295.52 1048.46,-301.91 1050.6,-295.25"/>
</g>
<!-- node0x5030000004c0 -->
<g id="node31" class="node">
<title>node0x5030000004c0</title>
<path fill="#00ffdd" stroke="black" d="M1151.5,-249.5C1151.5,-249.5 1295.5,-249.5 1295.5,-249.5 1301.5,-249.5 1307.5,-255.5 1307.5,-261.5 1307.5,-261.5 1307.5,-283.5 1307.5,-283.5 1307.5,-289.5 1301.5,-295.5 1295.5,-295.5 1295.5,-295.5 1151.5,-295.5 1151.5,-295.5 1145.5,-295.5 1139.5,-289.5 1139.5,-283.5 1139.5,-283.5 1139.5,-261.5 1139.5,-261.5 1139.5,-255.5 1145.5,-249.5 1151.5,-249.5"/>
<text text-anchor="middle" x="1223.5" y="-280.3" font-family="Times,serif" font-size="14.00">type = 2 (OP)</text>
<polyline fill="none" stroke="black" points="1139.5,-272.5 1307.5,-272.5 "/>
<text text-anchor="middle" x="1223.5" y="-257.3" font-family="Times,serif" font-size="14.00">value = &#39;&#39; MUL &#39;&#39; (42)</text>
</g>
<!-- node0x5030000004f0&#45;&gt;node0x5030000004c0 -->
<g id="edge30" class="edge">
<title>node0x5030000004f0&#45;&gt;node0x5030000004c0</title>
<path fill="none" stroke="black" d="M1223.5,-332.37C1223.5,-324.15 1223.5,-314.66 1223.5,-305.73"/>
<polygon fill="black" stroke="black" points="1227,-305.61 1223.5,-295.61 1220,-305.61 1227,-305.61"/>
</g>
<!-- node0x503000000610 -->
<g id="node34" class="node">
<title>node0x503000000610</title>
<path fill="#00ffdd" stroke="black" d="M1553,-249.5C1553,-249.5 1674,-249.5 1674,-249.5 1680,-249.5 1686,-255.5 1686,-261.5 1686,-261.5 1686,-283.5 1686,-283.5 1686,-289.5 1680,-295.5 1674,-295.5 1674,-295.5 1553,-295.5 1553,-295.5 1547,-295.5 1541,-289.5 1541,-283.5 1541,-283.5 1541,-261.5 1541,-261.5 1541,-255.5 1547,-249.5 1553,-249.5"/>
<text text-anchor="middle" x="1613.5" y="-280.3" font-family="Times,serif" font-size="14.00">type = 2 (OP)</text>
<polyline fill="none" stroke="black" points="1541,-272.5 1686,-272.5 "/>
<text text-anchor="middle" x="1613.5" y="-257.3" font-family="Times,serif" font-size="14.00">value = &#39;&#39; = &#39;&#39; (61)</text>
</g>
<!-- node0x503000000640&#45;&gt;node0x503000000610 -->
<g id="edge33" class="edge">
<title>node0x503000000640&#45;&gt;node0x503000000610</title>
<path fill="none" stroke="black" d="M1613.5,-332.37C1613.5,-324.15 1613.5,-314.66 1613.5,-305.73"/>
<polygon fill="black" stroke="black" points="1617,-305.61 1613.5,-295.61 1610,-305.61 1617,-305.61"/>
</g>
<!-- node0x503000000760 -->
<g id="node35" class="node">
<title>node0x503000000760</title>
<path fill="#e0e0e0" stroke="black" d="M1863,-249.5C1863,-249.5 2036,-249.5 2036,-249.5 2042,-249.5 2048,-255.5 2048,-261.5 2048,-261.5 2048,-283.5 2048,-283.5 2048,-289.5 2042,-295.5 2036,-295.5 2036,-295.5 1863,-295.5 1863,-295.5 1857,-295.5 1851,-289.5 1851,-283.5 1851,-283.5 1851,-261.5 1851,-261.5 1851,-255.5 1857,-249.5 1863,-249.5"/>
<text text-anchor="middle" x="1949.5" y="-280.3" font-family="Times,serif" font-size="14.00">type = 2 (OP)</text>
<polyline fill="none" stroke="black" points="1851,-272.5 2048,-272.5 "/>
<text text-anchor="middle" x="1949.5" y="-257.3" font-family="Times,serif" font-size="14.00">value = &#39;&#39; SHUTUP &#39;&#39; (59)</text>
</g>
<!-- node0x503000000640&#45;&gt;node0x503000000760 -->
<g id="edge34" class="edge">
<title>node0x503000000640&#45;&gt;node0x503000000760</title>
<path fill="none" stroke="black" d="M1704.87,-332.47C1749.23,-321.78 1802.65,-308.9 1848.25,-297.91"/>
<polygon fill="black" stroke="black" points="1849.25,-301.27 1858.15,-295.52 1847.61,-294.46 1849.25,-301.27"/>
</g>
<!-- node0x503000000460 -->
<g id="node32" class="node">
<title>node0x503000000460</title>
<path fill="#ff5050" stroke="black" d="M769,-166.5C769,-166.5 1044,-166.5 1044,-166.5 1050,-166.5 1056,-172.5 1056,-178.5 1056,-178.5 1056,-200.5 1056,-200.5 1056,-206.5 1050,-212.5 1044,-212.5 1044,-212.5 769,-212.5 769,-212.5 763,-212.5 757,-206.5 757,-200.5 757,-200.5 757,-178.5 757,-178.5 757,-172.5 763,-166.5 769,-166.5"/>
<text text-anchor="middle" x="906.5" y="-197.3" font-family="Times,serif" font-size="14.00">type = 3 (ID)</text>
<polyline fill="none" stroke="black" points="757,-189.5 1056,-189.5 "/>
<text text-anchor="middle" x="906.5" y="-174.3" font-family="Times,serif" font-size="14.00">number of name in name table = &#39;&#39; 24 &#39;&#39;</text>
</g>
<!-- node0x5030000004c0&#45;&gt;node0x503000000460 -->
<g id="edge31" class="edge">
<title>node0x5030000004c0&#45;&gt;node0x503000000460</title>
<path fill="none" stroke="black" d="M1139.38,-250.01C1097.26,-239.24 1046.08,-226.17 1002.43,-215.01"/>
<polygon fill="black" stroke="black" points="1003.22,-211.6 992.67,-212.52 1001.49,-218.38 1003.22,-211.6"/>
</g>
<!-- node0x503000000490 -->
<g id="node33" class="node">
<title>node0x503000000490</title>
<path fill="#ff5050" stroke="black" d="M1086,-166.5C1086,-166.5 1361,-166.5 1361,-166.5 1367,-166.5 1373,-172.5 1373,-178.5 1373,-178.5 1373,-200.5 1373,-200.5 1373,-206.5 1367,-212.5 1361,-212.5 1361,-212.5 1086,-212.5 1086,-212.5 1080,-212.5 1074,-206.5 1074,-200.5 1074,-200.5 1074,-178.5 1074,-178.5 1074,-172.5 1080,-166.5 1086,-166.5"/>
<text text-anchor="middle" x="1223.5" y="-197.3" font-family="Times,serif" font-size="14.00">type = 3 (ID)</text>
<polyline fill="none" stroke="black" points="1074,-189.5 1373,-189.5 "/>
<text text-anchor="middle" x="1223.5" y="-174.3" font-family="Times,serif" font-size="14.00">number of name in name table = &#39;&#39; 25 &#39;&#39;</text>
</g>
<!-- node0x5030000004c0&#45;&gt;node0x503000000490 -->
<g id="edge32" class="edge">
<title>node0x5030000004c0&#45;&gt;node0x503000000490</title>
<path fill="none" stroke="black" d="M1223.5,-249.37C1223.5,-241.15 1223.5,-231.66 1223.5,-222.73"/>
<polygon fill="black" stroke="black" points="1227,-222.61 1223.5,-212.61 1220,-222.61 1227,-222.61"/>
</g>
<!-- node0x503000000550 -->
<g id="node36" class="node">
<title>node0x503000000550</title>
<path fill="#ff5050" stroke="black" d="M1403,-166.5C1403,-166.5 1678,-166.5 1678,-166.5 1684,-166.5 1690,-172.5 1690,-178.5 1690,-178.5 1690,-200.5 1690,-200.5 1690,-206.5 1684,-212.5 1678,-212.5 1678,-212.5 1403,-212.5 1403,-212.5 1397,-212.5 1391,-206.5 1391,-200.5 1391,-200.5 1391,-178.5 1391,-178.5 1391,-172.5 1397,-166.5 1403,-166.5"/>
<text text-anchor="middle" x="1540.5" y="-197.3" font-family="Times,serif" font-size="14.00">type = 3 (ID)</text>
<polyline fill="none" stroke="black" points="1391,-189.5 1690,-189.5 "/>
<text text-anchor="middle" x="1540.5" y="-174.3" font-family="Times,serif" font-size="14.00">number of name in name table = &#39;&#39; 25 &#39;&#39;</text>
</g>
<!-- node0x503000000610&#45;&gt;node0x503000000550 -->
<g id="edge35" class="edge">
<title>node0x503000000610&#45;&gt;node0x503000000550</title>
<path fill="none" stroke="black" d="M1593.55,-249.37C1585.42,-240.35 1575.91,-229.79 1567.2,-220.12"/>
<polygon fill="black" stroke="black" points="1569.72,-217.69 1560.42,-212.61 1564.52,-222.38 1569.72,-217.69"/>
</g>
<!-- node0x5030000005e0 -->
<g id="node37" class="node">
<title>node0x5030000005e0</title>
<path fill="#00ffdd" stroke="black" d="M1720,-166.5C1720,-166.5 1861,-166.5 1861,-166.5 1867,-166.5 1873,-172.5 1873,-178.5 1873,-178.5 1873,-200.5 1873,-200.5 1873,-206.5 1867,-212.5 1861,-212.5 1861,-212.5 1720,-212.5 1720,-212.5 1714,-212.5 1708,-206.5 1708,-200.5 1708,-200.5 1708,-178.5 1708,-178.5 1708,-172.5 1714,-166.5 1720,-166.5"/>
<text text-anchor="middle" x="1790.5" y="-197.3" font-family="Times,serif" font-size="14.00">type = 2 (OP)</text>
<polyline fill="none" stroke="black" points="1708,-189.5 1873,-189.5 "/>
<text text-anchor="middle" x="1790.5" y="-174.3" font-family="Times,serif" font-size="14.00">value = &#39;&#39; SUB &#39;&#39; (45)</text>
</g>
<!-- node0x503000000610&#45;&gt;node0x5030000005e0 -->
<g id="edge36" class="edge">
<title>node0x503000000610&#45;&gt;node0x5030000005e0</title>
<path fill="none" stroke="black" d="M1661.87,-249.37C1683.82,-239.32 1709.95,-227.36 1732.9,-216.86"/>
<polygon fill="black" stroke="black" points="1734.56,-219.95 1742.19,-212.61 1731.64,-213.59 1734.56,-219.95"/>
</g>
<!-- node0x503000000730 -->
<g id="node40" class="node">
<title>node0x503000000730</title>
<path fill="#00ffdd" stroke="black" d="M1963,-166.5C1963,-166.5 2084,-166.5 2084,-166.5 2090,-166.5 2096,-172.5 2096,-178.5 2096,-178.5 2096,-200.5 2096,-200.5 2096,-206.5 2090,-212.5 2084,-212.5 2084,-212.5 1963,-212.5 1963,-212.5 1957,-212.5 1951,-206.5 1951,-200.5 1951,-200.5 1951,-178.5 1951,-178.5 1951,-172.5 1957,-166.5 1963,-166.5"/>
<text text-anchor="middle" x="2023.5" y="-197.3" font-family="Times,serif" font-size="14.00">type = 2 (OP)</text>
<polyline fill="none" stroke="black" points="1951,-189.5 2096,-189.5 "/>
<text text-anchor="middle" x="2023.5" y="-174.3" font-family="Times,serif" font-size="14.00">value = &#39;&#39; = &#39;&#39; (61)</text>
</g>
<!-- node0x503000000760&#45;&gt;node0x503000000730 -->
<g id="edge39" class="edge">
<title>node0x503000000760&#45;&gt;node0x503000000730</title>
<path fill="none" stroke="black" d="M1969.72,-249.37C1977.96,-240.35 1987.61,-229.79 1996.44,-220.12"/>
<polygon fill="black" stroke="black" points="1999.14,-222.35 2003.3,-212.61 1993.97,-217.63 1999.14,-222.35"/>
</g>
<!-- node0x503000000580 -->
<g id="node38" class="node">
<title>node0x503000000580</title>
<path fill="#ff5050" stroke="black" d="M1420,-83.5C1420,-83.5 1695,-83.5 1695,-83.5 1701,-83.5 1707,-89.5 1707,-95.5 1707,-95.5 1707,-117.5 1707,-117.5 1707,-123.5 1701,-129.5 1695,-129.5 1695,-129.5 1420,-129.5 1420,-129.5 1414,-129.5 1408,-123.5 1408,-117.5 1408,-117.5 1408,-95.5 1408,-95.5 1408,-89.5 1414,-83.5 1420,-83.5"/>
<text text-anchor="middle" x="1557.5" y="-114.3" font-family="Times,serif" font-size="14.00">type = 3 (ID)</text>
<polyline fill="none" stroke="black" points="1408,-106.5 1707,-106.5 "/>
<text text-anchor="middle" x="1557.5" y="-91.3" font-family="Times,serif" font-size="14.00">number of name in name table = &#39;&#39; 23 &#39;&#39;</text>
</g>
<!-- node0x5030000005e0&#45;&gt;node0x503000000580 -->
<g id="edge37" class="edge">
<title>node0x5030000005e0&#45;&gt;node0x503000000580</title>
<path fill="none" stroke="black" d="M1727.14,-166.47C1697.22,-156.07 1661.35,-143.6 1630.31,-132.81"/>
<polygon fill="black" stroke="black" points="1631.44,-129.5 1620.85,-129.52 1629.14,-136.11 1631.44,-129.5"/>
</g>
<!-- node0x5030000005b0 -->
<g id="node39" class="node">
<title>node0x5030000005b0</title>
<path fill="#ffd700" stroke="black" d="M1737,-83.5C1737,-83.5 1844,-83.5 1844,-83.5 1850,-83.5 1856,-89.5 1856,-95.5 1856,-95.5 1856,-117.5 1856,-117.5 1856,-123.5 1850,-129.5 1844,-129.5 1844,-129.5 1737,-129.5 1737,-129.5 1731,-129.5 1725,-123.5 1725,-117.5 1725,-117.5 1725,-95.5 1725,-95.5 1725,-89.5 1731,-83.5 1737,-83.5"/>
<text text-anchor="middle" x="1790.5" y="-114.3" font-family="Times,serif" font-size="14.00">type = 1 (NUM)</text>
<polyline fill="none" stroke="black" points="1725,-106.5 1856,-106.5 "/>
<text text-anchor="middle" x="1790.5" y="-91.3" font-family="Times,serif" font-size="14.00">value = &#39;&#39; 1 &#39;&#39;</text>
</g>
<!-- node0x5030000005e0&#45;&gt;node0x5030000005b0 -->
<g id="edge38" class="edge">
<title>node0x5030000005e0&#45;&gt;node0x5030000005b0</title>
<path fill="none" stroke="black" d="M1790.5,-166.37C1790.5,-158.15 1790.5,-148.66 1790.5,-139.73"/>
<polygon fill="black" stroke="black" points="1794,-139.61 1790.5,-129.61 1787,-139.61 1794,-139.61"/>
</g>
<!-- node0x503000000670 -->
<g id="node41" class="node">
<title>node0x503000000670</title>
<path fill="#ff5050" stroke="black" d="M1886,-83.5C1886,-83.5 2161,-83.5 2161,-83.5 2167,-83.5 2173,-89.5 2173,-95.5 2173,-95.5 2173,-117.5 2173,-117.5 2173,-123.5 2167,-129.5 2161,-129.5 2161,-129.5 1886,-129.5 1886,-129.5 1880,-129.5 1874,-123.5 1874,-117.5 1874,-117.5 1874,-95.5 1874,-95.5 1874,-89.5 1880,-83.5 1886,-83.5"/>
<text text-anchor="middle" x="2023.5" y="-114.3" font-family="Times,serif" font-size="14.00">type = 3 (ID)</text>
<polyline fill="none" stroke="black" points="1874,-106.5 2173,-106.5 "/>
<text text-anchor="middle" x="2023.5" y="-91.3" font-family="Times,serif" font-size="14.00">number of name in name table = &#39;&#39; 23 &#39;&#39;</text>
</g>
<!-- node0x503000000730&#45;&gt;node0x503000000670 -->
<g id="edge40" class="edge">
<title>node0x503000000730&#45;&gt;node0x503000000670</title>
<path fill="none" stroke="black" d="M2023.5,-166.37C2023.5,-158.15 2023.5,-148.66 2023.5,-139.73"/>
<polygon fill="black" stroke="black" points="2027,-139.61 2023.5,-129.61 2020,-139.61 2027,-139.61"/>
</g>
<!-- node0x503000000700 -->
<g id="node42" class="node">
<title>node0x503000000700</title>
<path fill="#00ffdd" stroke="black" d="M2203,-83.5C2203,-83.5 2344,-83.5 2344,-83.5 2350,-83.5 2356,-89.5 2356,-95.5 2356,-95.5 2356,-117.5 2356,-117.5 2356,-123.5 2350,-129.5 2344,-129.5 2344,-129.5 2203,-129.5 2203,-129.5 2197,-129.5 2191,-123.5 2191,-117.5 2191,-117.5 2191,-95.5 2191,-95.5 2191,-89.5 2197,-83.5 2203,-83.5"/>
<text text-anchor="middle" x="2273.5" y="-114.3" font-family="Times,serif" font-size="14.00">type = 2 (OP)</text>
<polyline fill="none" stroke="black" points="2191,-106.5 2356,-106.5 "/>
<text text-anchor="middle" x="2273.5" y="-91.3" font-family="Times,serif" font-size="14.00">value = &#39;&#39; SUB &#39;&#39; (45)</text>
</g>
<!-- node0x503000000730&#45;&gt;node0x503000000700 -->
<g id="edge41" class="edge">
<title>node0x503000000730&#45;&gt;node0x503000000700</title>
<path fill="none" stroke="black" d="M2091.48,-166.47C2123.73,-156.03 2162.41,-143.49 2195.81,-132.67"/>
<polygon fill="black" stroke="black" points="2197.1,-135.93 2205.53,-129.52 2194.94,-129.27 2197.1,-135.93"/>
</g>
<!-- node0x5030000006a0 -->
<g id="node43" class="node">
<title>node0x5030000006a0</title>
<path fill="#ff5050" stroke="black" d="M2019,-0.5C2019,-0.5 2294,-0.5 2294,-0.5 2300,-0.5 2306,-6.5 2306,-12.5 2306,-12.5 2306,-34.5 2306,-34.5 2306,-40.5 2300,-46.5 2294,-46.5 2294,-46.5 2019,-46.5 2019,-46.5 2013,-46.5 2007,-40.5 2007,-34.5 2007,-34.5 2007,-12.5 2007,-12.5 2007,-6.5 2013,-0.5 2019,-0.5"/>
<text text-anchor="middle" x="2156.5" y="-31.3" font-family="Times,serif" font-size="14.00">type = 3 (ID)</text>
<polyline fill="none" stroke="black" points="2007,-23.5 2306,-23.5 "/>
<text text-anchor="middle" x="2156.5" y="-8.3" font-family="Times,serif" font-size="14.00">number of name in name table = &#39;&#39; 23 &#39;&#39;</text>
</g>
<!-- node0x503000000700&#45;&gt;node0x5030000006a0 -->
<g id="edge42" class="edge">
<title>node0x503000000700&#45;&gt;node0x5030000006a0</title>
<path fill="none" stroke="black" d="M2241.53,-83.37C2227.73,-73.81 2211.43,-62.53 2196.81,-52.41"/>
<polygon fill="black" stroke="black" points="2198.65,-49.42 2188.43,-46.61 2194.66,-55.18 2198.65,-49.42"/>
</g>
<!-- node0x5030000006d0 -->
<g id="node44" class="node">
<title>node0x5030000006d0</title>
<path fill="#ffd700" stroke="black" d="M2336,-0.5C2336,-0.5 2443,-0.5 2443,-0.5 2449,-0.5 2455,-6.5 2455,-12.5 2455,-12.5 2455,-34.5 2455,-34.5 2455,-40.5 2449,-46.5 2443,-46.5 2443,-46.5 2336,-46.5 2336,-46.5 2330,-46.5 2324,-40.5 2324,-34.5 2324,-34.5 2324,-12.5 2324,-12.5 2324,-6.5 2330,-0.5 2336,-0.5"/>
<text text-anchor="middle" x="2389.5" y="-31.3" font-family="Times,serif" font-size="14.00">type = 1 (NUM)</text>
<polyline fill="none" stroke="black" points="2324,-23.5 2455,-23.5 "/>
<text text-anchor="middle" x="2389.5" y="-8.3" font-family="Times,serif" font-size="14.00">value = &#39;&#39; 1 &#39;&#39;</text>
</g>
<!-- node0x503000000700&#45;&gt;node0x5030000006d0 -->
<g id="edge43" class="edge">
<title>node0x503000000700&#45;&gt;node0x5030000006d0</title>
<path fill="none" stroke="black" d="M2305.2,-83.37C2318.88,-73.81 2335.04,-62.53 2349.53,-52.41"/>
<polygon fill="black" stroke="black" points="2351.65,-55.2 2357.84,-46.61 2347.64,-49.46 2351.65,-55.2"/>
</g>
<!-- node0x5030000007f0 -->
<g id="node46" class="node">
<title>node0x5030000007f0</title>
<path fill="#ff5050" stroke="black" d="M1352,-415.5C1352,-415.5 1627,-415.5 1627,-415.5 1633,-415.5 1639,-421.5 1639,-427.5 1639,-427.5 1639,-449.5 1639,-449.5 1639,-455.5 1633,-461.5 1627,-461.5 1627,-461.5 1352,-461.5 1352,-461.5 1346,-461.5 1340,-455.5 1340,-449.5 1340,-449.5 1340,-427.5 1340,-427.5 1340,-421.5 1346,-415.5 1352,-415.5"/>
<text text-anchor="middle" x="1489.5" y="-446.3" font-family="Times,serif" font-size="14.00">type = 3 (ID)</text>
<polyline fill="none" stroke="black" points="1340,-438.5 1639,-438.5 "/>
<text text-anchor="middle" x="1489.5" y="-423.3" font-family="Times,serif" font-size="14.00">number of name in name table = &#39;&#39; 24 &#39;&#39;</text>
</g>
<!-- node0x503000000850&#45;&gt;node0x5030000007f0 -->
<g id="edge45" class="edge">
<title>node0x503000000850&#45;&gt;node0x5030000007f0</title>
<path fill="none" stroke="black" d="M1489.5,-498.37C1489.5,-490.15 1489.5,-480.66 1489.5,-471.73"/>
<polygon fill="black" stroke="black" points="1493,-471.61 1489.5,-461.61 1486,-471.61 1493,-471.61"/>
</g>
<!-- node0x503000000820 -->
<g id="node47" class="node">
<title>node0x503000000820</title>
<path fill="#ff5050" stroke="black" d="M1669,-415.5C1669,-415.5 1944,-415.5 1944,-415.5 1950,-415.5 1956,-421.5 1956,-427.5 1956,-427.5 1956,-449.5 1956,-449.5 1956,-455.5 1950,-461.5 1944,-461.5 1944,-461.5 1669,-461.5 1669,-461.5 1663,-461.5 1657,-455.5 1657,-449.5 1657,-449.5 1657,-427.5 1657,-427.5 1657,-421.5 1663,-415.5 1669,-415.5"/>
<text text-anchor="middle" x="1806.5" y="-446.3" font-family="Times,serif" font-size="14.00">type = 3 (ID)</text>
<polyline fill="none" stroke="black" points="1657,-438.5 1956,-438.5 "/>
<text text-anchor="middle" x="1806.5" y="-423.3" font-family="Times,serif" font-size="14.00">number of name in name table = &#39;&#39; 24 &#39;&#39;</text>
</g>
<!-- node0x503000000850&#45;&gt;node0x503000000820 -->
<g id="edge46" class="edge">
<title>node0x503000000850&#45;&gt;node0x503000000820</title>
<path fill="none" stroke="black" d="M1562.23,-501.92C1606.26,-490.67 1662.94,-476.18 1710.61,-464"/>
<polygon fill="black" stroke="black" points="1711.5,-467.39 1720.33,-461.52 1709.77,-460.6 1711.5,-467.39"/>
</g>
</g>
</svg>
