<?xml version="1.0" encoding="UTF-8" standalone="no"?>
<!DOCTYPE svg PUBLIC "-//W3C//DTD SVG 1.1//EN"
 "http://www.w3.org/Graphics/SVG/1.1/DTD/svg11.dtd">
<!-- Generated by graphviz version 14.1.2 (0)
 -->
<!-- Title: pipeline Pages: 1 -->
<svg width="376pt" height="631pt"
 viewBox="0.00 0.00 376.00 631.00" xmlns="http://www.w3.org/2000/svg" xmlns:xlink="http://www.w3.org/1999/xlink">
<g id="graph0" class="graph" transform="scale(1 1) rotate(0) translate(4 626.83)">
<title>pipeline</title>
<!-- source -->
<g id="node1" class="node">
<title>source</title>
<polygon fill="#fffde7" stroke="#bdbdbd" points="219.5,-622.83 127,-622.83 127,-586.83 225.5,-586.83 225.5,-616.83 219.5,-622.83"/>
<polyline fill="none" stroke="#bdbdbd" points="219.5,-622.83 219.5,-616.83"/>
<polyline fill="none" stroke="#bdbdbd" points="225.5,-616.83 219.5,-616.83"/>
<text xml:space="preserve" text-anchor="middle" x="176.25" y="-601.86" font-family="monospace bold" font-size="13.00">source.cook</text>
</g>
<!-- frontend -->
<g id="node2" class="node">
<title>frontend</title>
<path fill="#755cf7" stroke="none" d="M61.25,-438.08C61.25,-438.08 291.25,-438.08 291.25,-438.08 297.25,-438.08 303.25,-444.08 303.25,-450.08 303.25,-450.08 303.25,-519.83 303.25,-519.83 303.25,-525.83 297.25,-531.83 291.25,-531.83 291.25,-531.83 61.25,-531.83 61.25,-531.83 55.25,-531.83 49.25,-525.83 49.25,-519.83 49.25,-519.83 49.25,-450.08 49.25,-450.08 49.25,-444.08 55.25,-438.08 61.25,-438.08"/>
<polygon fill="#5a45cc" stroke="none" points="49.25,-500.58 49.25,-531.83 303.25,-531.83 303.25,-500.58 49.25,-500.58"/>
<polygon fill="none" stroke="#5a45cc" points="49.25,-500.58 49.25,-531.83 303.25,-531.83 303.25,-500.58 49.25,-500.58"/>
<text xml:space="preserve" text-anchor="start" x="146.25" y="-514.43" font-family="monospace" font-weight="bold" font-size="12.00" fill="white">Frontend</text>
<polygon fill="none" stroke="#5a45cc" points="49.25,-469.33 49.25,-500.58 303.25,-500.58 303.25,-469.33 49.25,-469.33"/>
<text xml:space="preserve" text-anchor="start" x="56.25" y="-482.18" font-family="monospace" font-size="12.00" fill="white">lexer + recursive&#45;descent parser</text>
<polygon fill="none" stroke="#5a45cc" points="49.25,-438.08 49.25,-469.33 303.25,-469.33 303.25,-438.08 49.25,-438.08"/>
<text xml:space="preserve" text-anchor="start" x="82.5" y="-450.93" font-family="monospace" font-size="12.00" fill="white">./frontend/build/frontend</text>
</g>
<!-- source&#45;&gt;frontend -->
<g id="edge1" class="edge">
<title>source&#45;&gt;frontend</title>
<path fill="none" stroke="#cccccc" d="M176.25,-586.44C176.25,-575.88 176.25,-561.69 176.25,-547.32"/>
<polygon fill="#cccccc" stroke="#cccccc" points="179.75,-547.33 176.25,-537.33 172.75,-547.33 179.75,-547.33"/>
</g>
<!-- middle -->
<g id="node3" class="node">
<title>middle</title>
<path fill="#2ee31e" stroke="none" d="M20,-272.08C20,-272.08 332.5,-272.08 332.5,-272.08 338.5,-272.08 344.5,-278.08 344.5,-284.08 344.5,-284.08 344.5,-353.83 344.5,-353.83 344.5,-359.83 338.5,-365.83 332.5,-365.83 332.5,-365.83 20,-365.83 20,-365.83 14,-365.83 8,-359.83 8,-353.83 8,-353.83 8,-284.08 8,-284.08 8,-278.08 14,-272.08 20,-272.08"/>
<polygon fill="#22aa18" stroke="none" points="8,-334.58 8,-365.83 344.5,-365.83 344.5,-334.58 8,-334.58"/>
<polygon fill="none" stroke="#22aa18" points="8,-334.58 8,-365.83 344.5,-365.83 344.5,-334.58 8,-334.58"/>
<text xml:space="preserve" text-anchor="start" x="138.75" y="-348.43" font-family="monospace" font-weight="bold" font-size="12.00" fill="white">Middle&#45;end</text>
<polygon fill="none" stroke="#22aa18" points="8,-303.33 8,-334.58 344.5,-334.58 344.5,-303.33 8,-303.33"/>
<text xml:space="preserve" text-anchor="start" x="15" y="-316.18" font-family="monospace" font-size="12.00">constant folding + algebraic simplification</text>
<polygon fill="none" stroke="#22aa18" points="8,-272.08 8,-303.33 344.5,-303.33 344.5,-272.08 8,-272.08"/>
<text xml:space="preserve" text-anchor="start" x="67.5" y="-284.93" font-family="monospace" font-size="12.00">./middle_end/build/middle_end</text>
</g>
<!-- frontend&#45;&gt;middle -->
<g id="edge2" class="edge">
<title>frontend&#45;&gt;middle</title>
<path fill="none" stroke="#cccccc" d="M176.25,-434.3C176.25,-417.52 176.25,-398.59 176.25,-381.03"/>
<polygon fill="#cccccc" stroke="#cccccc" points="179.75,-381.23 176.25,-371.23 172.75,-381.23 179.75,-381.23"/>
<text xml:space="preserve" text-anchor="middle" x="272.25" y="-399.58" font-family="monospace" font-size="10.00" fill="#dddddd"> &#160;AST_tree.txt, Name_Table.txt &#160;</text>
</g>
<!-- backend -->
<g id="node4" class="node">
<title>backend</title>
<path fill="#f069f5" stroke="none" d="M65,-106.08C65,-106.08 287.5,-106.08 287.5,-106.08 293.5,-106.08 299.5,-112.08 299.5,-118.08 299.5,-118.08 299.5,-187.83 299.5,-187.83 299.5,-193.83 293.5,-199.83 287.5,-199.83 287.5,-199.83 65,-199.83 65,-199.83 59,-199.83 53,-193.83 53,-187.83 53,-187.83 53,-118.08 53,-118.08 53,-112.08 59,-106.08 65,-106.08"/>
<polygon fill="#c040c8" stroke="none" points="53,-168.58 53,-199.83 299.5,-199.83 299.5,-168.58 53,-168.58"/>
<polygon fill="none" stroke="#c040c8" points="53,-168.58 53,-199.83 299.5,-199.83 299.5,-168.58 53,-168.58"/>
<text xml:space="preserve" text-anchor="start" x="150" y="-182.43" font-family="monospace" font-weight="bold" font-size="12.00" fill="white">Backend</text>
<polygon fill="none" stroke="#c040c8" points="53,-137.33 53,-168.58 299.5,-168.58 299.5,-137.33 53,-137.33"/>
<text xml:space="preserve" text-anchor="start" x="60" y="-150.18" font-family="monospace" font-size="12.00">IR generation + x86&#45;64 ELF emit</text>
<polygon fill="none" stroke="#c040c8" points="53,-106.08 53,-137.33 299.5,-137.33 299.5,-106.08 53,-106.08"/>
<text xml:space="preserve" text-anchor="start" x="90" y="-118.93" font-family="monospace" font-size="12.00">./backend/build/backend</text>
</g>
<!-- middle&#45;&gt;backend -->
<g id="edge3" class="edge">
<title>middle&#45;&gt;backend</title>
<path fill="none" stroke="#cccccc" d="M176.25,-268.3C176.25,-251.52 176.25,-232.59 176.25,-215.03"/>
<polygon fill="#cccccc" stroke="#cccccc" points="179.75,-215.23 176.25,-205.23 172.75,-215.23 179.75,-215.23"/>
<text xml:space="preserve" text-anchor="middle" x="272.25" y="-233.58" font-family="monospace" font-size="10.00" fill="#dddddd"> &#160;AST_tree.txt, Name_Table.txt &#160;</text>
</g>
<!-- binary -->
<g id="node5" class="node">
<title>binary</title>
<ellipse fill="#00ffdd" stroke="#00bba0" cx="176.25" cy="-18.92" rx="133.29" ry="18.92"/>
<text xml:space="preserve" text-anchor="middle" x="176.25" y="-15.94" font-family="monospace bold" font-size="13.00">./backend/build/program</text>
</g>
<!-- backend&#45;&gt;binary -->
<g id="edge4" class="edge">
<title>backend&#45;&gt;binary</title>
<path fill="none" stroke="#cccccc" d="M176.25,-102.41C176.25,-84.45 176.25,-64.75 176.25,-49.11"/>
<polygon fill="#cccccc" stroke="#cccccc" points="179.75,-49.55 176.25,-39.55 172.75,-49.55 179.75,-49.55"/>
<text xml:space="preserve" text-anchor="middle" x="218.25" y="-67.58" font-family="monospace" font-size="10.00" fill="#dddddd"> &#160;x86&#45;64 ELF &#160;</text>
</g>
</g>
</svg>
